M48
;DRILL file {Pcbnew (2013-05-18 BZR 4017)-stable} date Wed 12 Feb 2014 17:22:11 SAST
;FORMAT={-:-/ absolute / inch / decimal}
FMAT,2
INCH,TZ
T1C0.025
T2C0.030
T3C0.040
T4C0.045
T5C0.047
T6C0.098
T7C0.118
T8C0.120
%
G90
G05
M72
T1
X2.8Y-4.275
X2.9Y-2.775
X2.975Y-3.85
X3.025Y-3.85
X3.025Y-4.65
X3.025Y-4.725
X3.05Y-4.075
X3.1Y-4.075
X3.15Y-4.85
X3.425Y-2.3
X3.45Y-2.35
X3.7Y-2.5
X3.95Y-2.45
X4.125Y-2.95
T2
X3.75Y-3.45
X3.75Y-3.65
T3
X2.5Y-3.25
X2.5Y-3.35
X2.5Y-3.45
X2.5Y-3.55
X2.5Y-3.65
X2.5Y-3.75
X2.5Y-3.95
X2.5Y-4.05
X2.5Y-4.15
X2.5Y-4.25
X2.5Y-4.35
X2.5Y-4.45
X2.5Y-4.75
X2.5Y-4.85
X2.5Y-4.95
X2.5Y-5.05
X2.5Y-5.15
X2.5Y-5.25
X2.5Y-5.35
X2.5Y-5.45
X2.6Y-2.35
X2.6Y-2.65
X2.6Y-2.75
X2.6Y-3.15
X2.6Y-3.25
X2.6Y-3.35
X2.6Y-3.45
X2.6Y-3.55
X2.6Y-3.65
X2.6Y-3.75
X2.6Y-3.95
X2.6Y-4.05
X2.6Y-4.15
X2.6Y-4.25
X2.6Y-4.35
X2.6Y-4.45
X2.6Y-4.75
X2.6Y-4.75
X2.6Y-4.85
X2.6Y-4.85
X2.6Y-4.95
X2.6Y-4.95
X2.6Y-5.05
X2.6Y-5.05
X2.6Y-5.15
X2.6Y-5.15
X2.6Y-5.25
X2.6Y-5.25
X2.6Y-5.35
X2.6Y-5.35
X2.6Y-5.45
X2.6Y-5.45
X2.7Y-3.25
X2.7Y-3.25
X2.7Y-3.35
X2.7Y-3.35
X2.7Y-3.45
X2.7Y-3.45
X2.7Y-3.55
X2.7Y-3.55
X2.7Y-3.65
X2.7Y-3.65
X2.7Y-3.75
X2.7Y-3.75
X2.7Y-3.95
X2.7Y-3.95
X2.7Y-4.05
X2.7Y-4.05
X2.7Y-4.15
X2.7Y-4.15
X2.7Y-4.25
X2.7Y-4.25
X2.7Y-4.35
X2.7Y-4.35
X2.7Y-4.45
X2.7Y-4.45
X2.7Y-4.75
X2.7Y-4.75
X2.7Y-4.85
X2.7Y-4.85
X2.7Y-4.95
X2.7Y-4.95
X2.7Y-5.05
X2.7Y-5.05
X2.7Y-5.15
X2.7Y-5.15
X2.7Y-5.25
X2.7Y-5.25
X2.7Y-5.35
X2.7Y-5.35
X2.7Y-5.45
X2.7Y-5.45
X2.8Y-2.35
X2.8Y-2.65
X2.8Y-2.75
X2.8Y-3.15
X3.Y-2.45
X3.Y-2.65
X3.Y-2.75
X3.Y-3.15
X3.05Y-3.45
X3.05Y-3.65
X3.075Y-5.05
X3.075Y-5.15
X3.1Y-4.25
X3.1Y-4.45
X3.2Y-2.55
X3.2Y-2.65
X3.2Y-2.75
X3.2Y-2.85
X3.2Y-2.95
X3.2Y-3.05
X3.2Y-3.15
X3.2Y-3.25
X3.2Y-3.35
X3.2Y-3.45
X3.2Y-3.55
X3.2Y-3.65
X3.2Y-3.75
X3.2Y-3.85
X3.2Y-3.95
X3.2Y-4.05
X3.2Y-4.15
X3.2Y-4.25
X3.2Y-4.35
X3.2Y-4.45
X3.2122Y-2.2024
X3.25Y-4.7
X3.25Y-5.05
X3.25Y-5.45
X3.3106Y-2.2024
X3.35Y-4.7
X3.35Y-5.05
X3.35Y-5.45
X3.35Y-5.7
X3.3894Y-2.2024
X3.45Y-4.7
X3.45Y-4.85
X3.45Y-5.25
X3.45Y-5.7
X3.4878Y-2.2024
X3.5Y-2.55
X3.5Y-2.65
X3.5Y-2.75
X3.5Y-2.85
X3.5Y-2.95
X3.5Y-3.05
X3.5Y-3.15
X3.5Y-3.25
X3.5Y-3.35
X3.5Y-3.45
X3.5Y-3.55
X3.5Y-3.65
X3.5Y-3.75
X3.5Y-3.85
X3.5Y-3.95
X3.5Y-4.05
X3.5Y-4.15
X3.5Y-4.25
X3.5Y-4.35
X3.5Y-4.45
X3.55Y-4.85
X3.55Y-5.25
X3.55Y-5.7
X3.65Y-3.05
X3.65Y-3.25
X3.7Y-3.9
X3.75Y-4.95
X3.75Y-5.05
X3.75Y-5.15
X3.75Y-5.25
X3.75Y-5.35
X3.75Y-5.45
X3.75Y-5.55
X3.75Y-5.65
X3.8Y-3.95
X3.8Y-4.35
X3.8Y-4.45
X3.8Y-4.55
X3.85Y-2.45
X3.85Y-2.55
X3.85Y-2.65
X3.85Y-2.75
X3.85Y-2.85
X3.85Y-2.95
X4.Y-3.35
X4.Y-3.45
X4.Y-3.65
X4.Y-3.75
X4.Y-3.95
X4.Y-4.35
X4.Y-4.45
X4.Y-4.55
X4.05Y-4.95
X4.05Y-5.05
X4.05Y-5.15
X4.05Y-5.25
X4.05Y-5.35
X4.05Y-5.45
X4.05Y-5.55
X4.05Y-5.65
X4.2Y-3.95
X4.2Y-4.35
X4.2Y-4.45
X4.2Y-4.55
X4.25Y-4.85
X4.25Y-5.25
X4.25Y-5.7
X4.35Y-4.7
X4.35Y-4.85
X4.35Y-5.25
X4.35Y-5.7
X4.4Y-3.95
X4.4Y-4.35
X4.4Y-4.45
X4.4Y-4.55
X4.45Y-4.7
X4.45Y-5.05
X4.45Y-5.45
X4.45Y-5.7
X4.55Y-4.7
X4.55Y-5.05
X4.55Y-5.45
X4.6Y-2.15
X4.6Y-2.3
X4.6Y-2.4
X4.6Y-2.9
X4.6Y-2.9
X4.6Y-3.
X4.6Y-3.
X4.6Y-3.1
X4.6Y-3.1
X4.6Y-3.2
X4.6Y-3.2
X4.6Y-3.3
X4.6Y-3.3
X4.6Y-3.4
X4.6Y-3.4
X4.6Y-3.5
X4.6Y-3.5
X4.6Y-3.6
X4.6Y-3.6
X4.6Y-3.75
X4.6Y-3.75
X4.6Y-3.85
X4.6Y-3.85
X4.6Y-3.95
X4.6Y-3.95
X4.6Y-4.05
X4.6Y-4.05
X4.6Y-4.15
X4.6Y-4.15
X4.6Y-4.25
X4.6Y-4.25
X4.6Y-4.35
X4.6Y-4.35
X4.6Y-4.45
X4.6Y-4.45
X4.7Y-2.9
X4.7Y-2.9
X4.7Y-3.
X4.7Y-3.
X4.7Y-3.1
X4.7Y-3.1
X4.7Y-3.2
X4.7Y-3.2
X4.7Y-3.3
X4.7Y-3.3
X4.7Y-3.4
X4.7Y-3.4
X4.7Y-3.5
X4.7Y-3.5
X4.7Y-3.6
X4.7Y-3.6
X4.7Y-3.75
X4.7Y-3.75
X4.7Y-3.85
X4.7Y-3.85
X4.7Y-3.95
X4.7Y-3.95
X4.7Y-4.05
X4.7Y-4.05
X4.7Y-4.15
X4.7Y-4.15
X4.7Y-4.25
X4.7Y-4.25
X4.7Y-4.35
X4.7Y-4.35
X4.7Y-4.45
X4.7Y-4.45
X4.8Y-2.3
X4.8Y-2.4
X4.8Y-2.55
X4.8Y-2.65
X4.8Y-2.75
X4.8Y-2.9
X4.8Y-3.
X4.8Y-3.1
X4.8Y-3.2
X4.8Y-3.3
X4.8Y-3.4
X4.8Y-3.5
X4.8Y-3.6
X4.8Y-3.75
X4.8Y-3.85
X4.8Y-3.95
X4.8Y-4.05
X4.8Y-4.15
X4.8Y-4.25
X4.8Y-4.35
X4.8Y-4.45
X4.8Y-4.8
X4.8Y-4.9
X4.8Y-5.02
X4.8Y-5.22
X4.95Y-2.75
X4.95Y-2.85
X4.95Y-2.95
X4.95Y-3.05
X4.95Y-3.15
X5.Y-2.15
X5.05Y-2.75
X5.05Y-2.85
X5.05Y-2.95
X5.05Y-3.05
X5.05Y-3.15
X5.05Y-3.25
X5.05Y-3.35
X5.05Y-3.45
X5.05Y-3.55
X5.05Y-3.65
X5.05Y-3.75
X5.05Y-3.85
X5.05Y-3.95
X5.05Y-4.05
X5.05Y-4.15
X5.05Y-4.25
X5.05Y-4.35
X5.05Y-4.45
X5.05Y-4.55
X5.05Y-4.65
X5.05Y-4.8
X5.05Y-4.9
X5.05Y-5.15
X5.05Y-5.35
X5.05Y-5.5
X5.05Y-5.7
X5.15Y-2.75
X5.15Y-2.85
X5.15Y-2.95
X5.15Y-3.05
X5.15Y-3.15
X5.15Y-3.25
X5.15Y-3.35
X5.15Y-3.45
X5.15Y-3.55
X5.15Y-3.65
X5.15Y-3.75
X5.15Y-3.85
X5.15Y-3.95
X5.15Y-4.05
X5.15Y-4.15
X5.15Y-4.25
X5.15Y-4.35
X5.15Y-4.45
X5.15Y-4.55
X5.15Y-4.65
X5.15Y-4.8
X5.15Y-4.9
X5.2Y-2.15
X5.2Y-2.25
X5.2Y-2.35
X5.2Y-2.45
X5.25Y-2.75
X5.25Y-2.85
X5.25Y-2.95
X5.25Y-3.05
X5.25Y-3.15
X5.25Y-3.25
X5.25Y-3.35
X5.25Y-3.45
X5.25Y-3.55
X5.25Y-3.65
X5.25Y-3.75
X5.25Y-3.85
X5.25Y-3.95
X5.25Y-4.05
X5.25Y-4.15
X5.25Y-4.25
X5.25Y-4.35
X5.25Y-4.45
X5.25Y-4.55
X5.25Y-4.65
X5.25Y-4.8
X5.25Y-4.9
X5.25Y-5.15
X5.35Y-2.75
X5.35Y-2.85
X5.35Y-2.95
X5.35Y-3.05
X5.35Y-3.15
X5.35Y-3.25
X5.35Y-3.35
X5.35Y-3.45
X5.35Y-3.55
X5.35Y-3.65
X5.35Y-3.75
X5.35Y-3.85
X5.35Y-3.95
X5.35Y-4.05
X5.35Y-4.15
X5.35Y-4.25
X5.35Y-4.35
X5.35Y-4.45
X5.35Y-4.55
X5.35Y-4.65
X5.35Y-4.8
X5.35Y-4.9
X5.35Y-5.5
X5.35Y-5.7
X5.45Y-2.35
X5.45Y-2.45
X5.45Y-2.75
X5.45Y-2.85
X5.45Y-2.95
X5.45Y-3.05
X5.45Y-3.15
X5.45Y-3.25
X5.45Y-3.35
X5.45Y-3.45
X5.45Y-3.55
X5.45Y-3.65
X5.45Y-3.75
X5.45Y-3.85
X5.45Y-3.95
X5.45Y-4.05
X5.45Y-4.15
X5.45Y-4.25
X5.45Y-4.35
X5.45Y-4.45
X5.45Y-4.55
X5.45Y-4.65
X5.45Y-4.8
X5.45Y-4.9
X5.45Y-5.35
X5.55Y-2.6
X5.55Y-2.75
X5.55Y-2.85
X5.55Y-2.95
X5.55Y-3.05
X5.55Y-3.15
X5.55Y-3.25
X5.55Y-3.35
X5.55Y-3.45
X5.55Y-3.55
X5.55Y-3.65
X5.55Y-3.75
X5.55Y-3.85
X5.55Y-3.95
X5.55Y-4.05
X5.55Y-4.15
X5.55Y-4.25
X5.55Y-4.35
X5.55Y-4.45
X5.55Y-4.55
X5.55Y-4.65
X5.55Y-4.8
X5.55Y-4.9
X5.55Y-5.15
X5.55Y-5.35
X5.55Y-5.5
X5.55Y-5.7
X5.65Y-2.15
X5.65Y-2.35
X5.65Y-2.6
X5.65Y-2.75
X5.65Y-2.85
X5.65Y-2.95
X5.65Y-3.05
X5.65Y-3.15
X5.65Y-3.25
X5.65Y-3.35
X5.65Y-3.45
X5.65Y-3.55
X5.65Y-3.65
X5.65Y-3.75
X5.65Y-3.85
X5.65Y-3.95
X5.65Y-4.05
X5.65Y-4.15
X5.65Y-4.25
X5.65Y-4.35
X5.65Y-4.45
X5.65Y-4.55
X5.65Y-4.65
X5.65Y-4.8
X5.65Y-4.9
X5.75Y-2.6
X5.75Y-2.75
X5.75Y-2.85
X5.75Y-2.95
X5.75Y-3.05
X5.75Y-3.15
X5.75Y-3.25
X5.75Y-3.35
X5.75Y-3.45
X5.75Y-3.55
X5.75Y-3.65
X5.75Y-3.75
X5.75Y-3.85
X5.75Y-3.95
X5.75Y-4.05
X5.75Y-4.15
X5.75Y-4.25
X5.75Y-4.35
X5.75Y-4.45
X5.75Y-4.55
X5.75Y-4.65
X5.75Y-4.8
X5.75Y-4.9
X5.75Y-5.15
X5.85Y-2.75
X5.85Y-2.85
X5.85Y-2.95
X5.85Y-3.05
X5.85Y-3.15
X5.85Y-3.25
X5.85Y-3.35
X5.85Y-3.45
X5.85Y-3.55
X5.85Y-3.65
X5.85Y-3.75
X5.85Y-3.85
X5.85Y-3.95
X5.85Y-4.05
X5.85Y-4.15
X5.85Y-4.25
X5.85Y-4.35
X5.85Y-4.45
X5.85Y-4.55
X5.85Y-4.65
X5.85Y-4.8
X5.85Y-4.9
X5.85Y-5.5
X5.85Y-5.7
X5.95Y-2.75
X5.95Y-2.85
X5.95Y-2.95
X5.95Y-3.05
X5.95Y-3.15
X5.95Y-3.25
X5.95Y-3.35
X5.95Y-3.45
X5.95Y-3.55
X5.95Y-3.65
X5.95Y-3.75
X5.95Y-3.85
X5.95Y-3.95
X5.95Y-4.05
X5.95Y-4.15
X5.95Y-4.25
X5.95Y-4.35
X5.95Y-4.45
X5.95Y-4.55
X5.95Y-4.65
X5.95Y-4.8
X5.95Y-4.9
X5.95Y-5.35
X6.05Y-2.75
X6.05Y-2.85
X6.05Y-2.95
X6.05Y-3.05
X6.05Y-3.15
X6.05Y-3.25
X6.05Y-3.35
X6.05Y-3.45
X6.05Y-3.55
X6.05Y-3.65
X6.05Y-3.75
X6.05Y-3.85
X6.05Y-3.95
X6.05Y-4.05
X6.05Y-4.15
X6.05Y-4.25
X6.05Y-4.35
X6.05Y-4.45
X6.05Y-4.55
X6.05Y-4.65
X6.05Y-4.8
X6.05Y-4.9
X6.15Y-2.6
X6.15Y-2.75
X6.15Y-2.85
X6.15Y-2.95
X6.15Y-3.05
X6.15Y-3.15
X6.15Y-3.25
X6.15Y-3.35
X6.15Y-3.45
X6.15Y-3.55
X6.15Y-3.65
X6.15Y-3.75
X6.15Y-3.85
X6.15Y-3.95
X6.15Y-4.05
X6.15Y-4.15
X6.15Y-4.25
X6.15Y-4.35
X6.15Y-4.45
X6.15Y-4.55
X6.15Y-4.65
X6.15Y-4.8
X6.15Y-4.9
T4
X5.85Y-2.15
X5.85Y-2.25
X5.85Y-2.35
T5
X3.2614Y-2.1
X3.4386Y-2.1
T6
X3.1197Y-2.1
X3.5803Y-2.1
T7
X4.04Y-2.251
X4.225Y-2.1329
X4.225Y-2.3691
T8
X2.6Y-2.15
X2.6Y-5.65
X6.1Y-2.15
X6.1Y-5.65
T0
M30
