G04 (created by PCBNEW (2013-07-07 BZR 4022)-stable) date 4/18/2014 6:42:31 PM*
%MOIN*%
G04 Gerber Fmt 3.4, Leading zero omitted, Abs format*
%FSLAX34Y34*%
G01*
G70*
G90*
G04 APERTURE LIST*
%ADD10C,0.00590551*%
%ADD11C,0.065*%
%ADD12R,0.065X0.065*%
%ADD13C,0.056*%
%ADD14R,0.1378X0.1378*%
%ADD15C,0.07*%
%ADD16R,0.07X0.07*%
%ADD17C,0.16*%
%ADD18R,0.055X0.055*%
%ADD19C,0.055*%
%ADD20R,0.06X0.0787402*%
%ADD21C,0.145669*%
%ADD22C,0.0511811*%
%ADD23C,0.035*%
%ADD24C,0.008*%
%ADD25C,0.03*%
%ADD26C,0.024*%
G04 APERTURE END LIST*
G54D10*
G54D11*
X50500Y-55000D03*
X50500Y-57000D03*
X53500Y-57000D03*
X53500Y-55000D03*
X55500Y-55000D03*
X55500Y-57000D03*
X58500Y-57000D03*
X58500Y-55000D03*
X30000Y-21000D03*
X28000Y-21000D03*
X28000Y-24000D03*
X30000Y-24000D03*
G54D12*
X26000Y-24000D03*
G54D11*
X26000Y-25000D03*
X26000Y-26000D03*
X26000Y-27000D03*
X26000Y-28000D03*
X26000Y-29000D03*
G54D12*
X49500Y-31500D03*
G54D11*
X49500Y-30500D03*
X49500Y-29500D03*
X49500Y-28500D03*
X49500Y-27500D03*
G54D12*
X34500Y-47000D03*
G54D11*
X33500Y-47000D03*
X32500Y-47000D03*
G54D12*
X45500Y-47000D03*
G54D11*
X44500Y-47000D03*
X43500Y-47000D03*
G54D12*
X44500Y-57000D03*
G54D11*
X43500Y-57000D03*
X42500Y-57000D03*
G54D12*
X33500Y-57000D03*
G54D11*
X34500Y-57000D03*
X35500Y-57000D03*
G54D12*
X48000Y-25500D03*
G54D11*
X48000Y-26500D03*
X48000Y-27500D03*
X54500Y-53500D03*
X50500Y-53500D03*
X59500Y-53500D03*
X55500Y-53500D03*
X40000Y-44500D03*
X41000Y-44500D03*
X55500Y-26000D03*
X56500Y-26000D03*
X40000Y-38500D03*
X41000Y-38500D03*
X40000Y-40500D03*
X41000Y-40500D03*
X40000Y-42500D03*
X41000Y-42500D03*
G54D13*
X40000Y-35500D03*
X40000Y-33500D03*
G54D12*
X37500Y-49500D03*
G54D11*
X37500Y-50500D03*
X37500Y-51500D03*
X37500Y-52500D03*
X37500Y-53500D03*
X37500Y-54500D03*
X37500Y-55500D03*
X37500Y-56500D03*
X40500Y-56500D03*
X40500Y-55500D03*
X40500Y-54500D03*
X40500Y-53500D03*
X40500Y-52500D03*
X40500Y-51500D03*
X40500Y-50500D03*
X40500Y-49500D03*
X40000Y-32000D03*
X42000Y-32000D03*
X31250Y-47000D03*
X31250Y-49000D03*
X28000Y-25000D03*
X30000Y-25000D03*
X48000Y-50200D03*
X48000Y-52200D03*
X30500Y-36500D03*
X30500Y-34500D03*
X57500Y-51500D03*
X55500Y-51500D03*
X52500Y-51500D03*
X50500Y-51500D03*
X56500Y-21500D03*
X56500Y-23500D03*
G54D12*
X48000Y-47750D03*
G54D11*
X48000Y-48750D03*
G54D12*
X30750Y-51500D03*
G54D11*
X30750Y-50500D03*
G54D12*
X48000Y-24000D03*
G54D11*
X48000Y-23000D03*
G54D12*
X52000Y-21500D03*
G54D11*
X52000Y-22500D03*
G54D12*
X46000Y-24000D03*
G54D11*
X46000Y-23000D03*
G54D12*
X52000Y-24500D03*
G54D11*
X52000Y-23500D03*
G54D12*
X54500Y-24500D03*
G54D11*
X54500Y-23500D03*
X43000Y-33500D03*
X42000Y-33500D03*
X43000Y-35500D03*
X42000Y-35500D03*
G54D14*
X42250Y-23691D03*
X42250Y-21329D03*
X40400Y-22510D03*
G54D11*
X26000Y-54500D03*
X26000Y-53500D03*
X26000Y-52500D03*
X26000Y-51500D03*
X26000Y-50500D03*
X26000Y-49500D03*
X26000Y-48500D03*
G54D12*
X26000Y-47500D03*
X26000Y-47500D03*
G54D11*
X26000Y-48500D03*
X26000Y-49500D03*
X26000Y-50500D03*
X26000Y-51500D03*
X26000Y-52500D03*
X26000Y-53500D03*
X26000Y-54500D03*
X27000Y-54500D03*
X27000Y-53500D03*
X27000Y-52500D03*
X27000Y-51500D03*
X27000Y-50500D03*
X27000Y-49500D03*
X27000Y-48500D03*
G54D12*
X27000Y-47500D03*
X25000Y-47500D03*
X27000Y-47500D03*
G54D11*
X25000Y-48500D03*
X27000Y-48500D03*
X25000Y-49500D03*
X27000Y-49500D03*
X25000Y-50500D03*
X27000Y-50500D03*
X25000Y-51500D03*
X27000Y-51500D03*
X25000Y-52500D03*
X27000Y-52500D03*
X25000Y-53500D03*
X27000Y-53500D03*
X25000Y-54500D03*
X27000Y-54500D03*
X56500Y-46500D03*
X56500Y-45500D03*
X56500Y-44500D03*
X56500Y-43500D03*
X56500Y-42500D03*
X56500Y-41500D03*
X56500Y-40500D03*
X56500Y-39500D03*
X56500Y-38500D03*
X56500Y-37500D03*
X56500Y-36500D03*
X56500Y-35500D03*
X56500Y-34500D03*
X56500Y-33500D03*
X56500Y-32500D03*
X56500Y-31500D03*
X56500Y-30500D03*
X56500Y-29500D03*
X56500Y-28500D03*
X56500Y-27500D03*
X57500Y-46500D03*
X57500Y-45500D03*
X57500Y-44500D03*
X57500Y-43500D03*
X57500Y-42500D03*
X57500Y-41500D03*
X57500Y-40500D03*
X57500Y-39500D03*
X57500Y-38500D03*
X57500Y-37500D03*
X57500Y-36500D03*
X57500Y-35500D03*
X57500Y-34500D03*
X57500Y-33500D03*
X57500Y-32500D03*
X57500Y-31500D03*
X57500Y-30500D03*
X57500Y-29500D03*
X57500Y-28500D03*
X57500Y-27500D03*
X61500Y-46500D03*
X61500Y-45500D03*
X61500Y-44500D03*
X61500Y-43500D03*
X61500Y-42500D03*
X61500Y-41500D03*
X61500Y-40500D03*
X61500Y-39500D03*
X61500Y-38500D03*
X61500Y-37500D03*
X61500Y-36500D03*
X61500Y-35500D03*
X61500Y-34500D03*
X61500Y-33500D03*
X61500Y-32500D03*
X61500Y-31500D03*
X61500Y-30500D03*
X61500Y-29500D03*
X61500Y-28500D03*
X61500Y-27500D03*
X58500Y-46500D03*
X58500Y-45500D03*
X58500Y-44500D03*
X58500Y-43500D03*
X58500Y-42500D03*
X58500Y-41500D03*
X58500Y-40500D03*
X58500Y-39500D03*
X58500Y-38500D03*
X58500Y-37500D03*
X58500Y-36500D03*
X58500Y-35500D03*
X58500Y-34500D03*
X58500Y-33500D03*
X58500Y-32500D03*
X58500Y-31500D03*
X58500Y-30500D03*
X58500Y-29500D03*
X58500Y-28500D03*
X58500Y-27500D03*
X59500Y-46500D03*
X59500Y-45500D03*
X59500Y-44500D03*
X59500Y-43500D03*
X59500Y-42500D03*
X59500Y-41500D03*
X59500Y-40500D03*
X59500Y-39500D03*
X59500Y-38500D03*
X59500Y-37500D03*
X59500Y-36500D03*
X59500Y-35500D03*
X59500Y-34500D03*
X59500Y-33500D03*
X59500Y-32500D03*
X59500Y-31500D03*
X59500Y-30500D03*
X59500Y-29500D03*
X59500Y-28500D03*
X59500Y-27500D03*
X60500Y-46500D03*
X60500Y-45500D03*
X60500Y-44500D03*
X60500Y-43500D03*
X60500Y-42500D03*
X60500Y-41500D03*
X60500Y-40500D03*
X60500Y-39500D03*
X60500Y-38500D03*
X60500Y-37500D03*
X60500Y-36500D03*
X60500Y-35500D03*
X60500Y-34500D03*
X60500Y-33500D03*
X60500Y-32500D03*
X60500Y-31500D03*
X60500Y-30500D03*
X60500Y-29500D03*
X60500Y-28500D03*
X60500Y-27500D03*
G54D12*
X50500Y-48000D03*
G54D11*
X51500Y-48000D03*
X52500Y-48000D03*
X53500Y-48000D03*
X54500Y-48000D03*
X55500Y-48000D03*
X56500Y-48000D03*
X57500Y-48000D03*
X58500Y-48000D03*
X59500Y-48000D03*
X60500Y-48000D03*
X61500Y-48000D03*
X50500Y-46500D03*
X50500Y-45500D03*
X50500Y-44500D03*
X50500Y-43500D03*
X50500Y-42500D03*
X50500Y-41500D03*
X50500Y-40500D03*
X50500Y-39500D03*
X50500Y-38500D03*
X50500Y-37500D03*
X50500Y-36500D03*
X50500Y-35500D03*
X50500Y-34500D03*
X50500Y-33500D03*
X50500Y-32500D03*
X50500Y-31500D03*
X50500Y-30500D03*
X50500Y-29500D03*
X50500Y-28500D03*
X50500Y-27500D03*
X51500Y-46500D03*
X51500Y-45500D03*
X51500Y-44500D03*
X51500Y-43500D03*
X51500Y-42500D03*
X51500Y-41500D03*
X51500Y-40500D03*
X51500Y-39500D03*
X51500Y-38500D03*
X51500Y-37500D03*
X51500Y-36500D03*
X51500Y-35500D03*
X51500Y-34500D03*
X51500Y-33500D03*
X51500Y-32500D03*
X51500Y-31500D03*
X51500Y-30500D03*
X51500Y-29500D03*
X51500Y-28500D03*
X51500Y-27500D03*
X55500Y-46500D03*
X55500Y-45500D03*
X55500Y-44500D03*
X55500Y-43500D03*
X55500Y-42500D03*
X55500Y-41500D03*
X55500Y-40500D03*
X55500Y-39500D03*
X55500Y-38500D03*
X55500Y-37500D03*
X55500Y-36500D03*
X55500Y-35500D03*
X55500Y-34500D03*
X55500Y-33500D03*
X55500Y-32500D03*
X55500Y-31500D03*
X55500Y-30500D03*
X55500Y-29500D03*
X55500Y-28500D03*
X55500Y-27500D03*
X53500Y-46500D03*
X53500Y-45500D03*
X53500Y-44500D03*
X53500Y-43500D03*
X53500Y-42500D03*
X53500Y-41500D03*
X53500Y-40500D03*
X53500Y-39500D03*
X53500Y-38500D03*
X53500Y-37500D03*
X53500Y-36500D03*
X53500Y-35500D03*
X53500Y-34500D03*
X53500Y-33500D03*
X53500Y-32500D03*
X53500Y-31500D03*
X53500Y-30500D03*
X53500Y-29500D03*
X53500Y-28500D03*
X53500Y-27500D03*
X54500Y-46500D03*
X54500Y-45500D03*
X54500Y-44500D03*
X54500Y-43500D03*
X54500Y-42500D03*
X54500Y-41500D03*
X54500Y-40500D03*
X54500Y-39500D03*
X54500Y-38500D03*
X54500Y-37500D03*
X54500Y-36500D03*
X54500Y-35500D03*
X54500Y-34500D03*
X54500Y-33500D03*
X54500Y-32500D03*
X54500Y-31500D03*
X54500Y-30500D03*
X54500Y-29500D03*
X54500Y-28500D03*
X54500Y-27500D03*
G54D12*
X50500Y-49000D03*
G54D11*
X51500Y-49000D03*
X52500Y-49000D03*
X53500Y-49000D03*
X54500Y-49000D03*
X55500Y-49000D03*
X56500Y-49000D03*
X57500Y-49000D03*
X58500Y-49000D03*
X59500Y-49000D03*
X60500Y-49000D03*
X61500Y-49000D03*
X47000Y-28500D03*
X47000Y-29500D03*
X47000Y-30500D03*
X47000Y-31500D03*
X47000Y-32500D03*
X47000Y-33500D03*
X47000Y-34500D03*
G54D12*
X47000Y-35500D03*
X47000Y-35500D03*
G54D11*
X47000Y-34500D03*
X47000Y-33500D03*
X47000Y-32500D03*
X47000Y-31500D03*
X47000Y-30500D03*
X47000Y-29500D03*
X47000Y-28500D03*
X46000Y-28500D03*
X46000Y-29500D03*
X46000Y-30500D03*
X46000Y-31500D03*
X46000Y-32500D03*
X46000Y-33500D03*
X46000Y-34500D03*
G54D12*
X46000Y-35500D03*
X48000Y-35500D03*
X46000Y-35500D03*
G54D11*
X48000Y-34500D03*
X46000Y-34500D03*
X48000Y-33500D03*
X46000Y-33500D03*
X48000Y-32500D03*
X46000Y-32500D03*
X48000Y-31500D03*
X46000Y-31500D03*
X48000Y-30500D03*
X46000Y-30500D03*
X48000Y-29500D03*
X46000Y-29500D03*
X48000Y-28500D03*
X46000Y-28500D03*
X47000Y-37500D03*
X47000Y-38500D03*
X47000Y-39500D03*
X47000Y-40500D03*
X47000Y-41500D03*
X47000Y-42500D03*
X47000Y-43500D03*
G54D12*
X47000Y-44500D03*
X47000Y-44500D03*
G54D11*
X47000Y-43500D03*
X47000Y-42500D03*
X47000Y-41500D03*
X47000Y-40500D03*
X47000Y-39500D03*
X47000Y-38500D03*
X47000Y-37500D03*
X46000Y-37500D03*
X46000Y-38500D03*
X46000Y-39500D03*
X46000Y-40500D03*
X46000Y-41500D03*
X46000Y-42500D03*
X46000Y-43500D03*
G54D12*
X46000Y-44500D03*
X48000Y-44500D03*
X46000Y-44500D03*
G54D11*
X48000Y-43500D03*
X46000Y-43500D03*
X48000Y-42500D03*
X46000Y-42500D03*
X48000Y-41500D03*
X46000Y-41500D03*
X48000Y-40500D03*
X46000Y-40500D03*
X48000Y-39500D03*
X46000Y-39500D03*
X48000Y-38500D03*
X46000Y-38500D03*
X48000Y-37500D03*
X46000Y-37500D03*
G54D12*
X26000Y-32500D03*
G54D11*
X26000Y-33500D03*
X26000Y-34500D03*
X26000Y-35500D03*
X26000Y-36500D03*
X26000Y-37500D03*
X27000Y-37500D03*
X27000Y-36500D03*
X27000Y-35500D03*
X27000Y-34500D03*
X27000Y-33500D03*
G54D12*
X27000Y-32500D03*
X25000Y-32500D03*
X27000Y-32500D03*
G54D11*
X25000Y-33500D03*
X27000Y-33500D03*
X25000Y-34500D03*
X27000Y-34500D03*
X25000Y-35500D03*
X27000Y-35500D03*
X25000Y-36500D03*
X27000Y-36500D03*
X25000Y-37500D03*
X27000Y-37500D03*
G54D12*
X26000Y-39500D03*
G54D11*
X26000Y-40500D03*
X26000Y-41500D03*
X26000Y-42500D03*
X26000Y-43500D03*
X26000Y-44500D03*
X27000Y-44500D03*
X27000Y-43500D03*
X27000Y-42500D03*
X27000Y-41500D03*
X27000Y-40500D03*
G54D12*
X27000Y-39500D03*
X25000Y-39500D03*
X27000Y-39500D03*
G54D11*
X25000Y-40500D03*
X27000Y-40500D03*
X25000Y-41500D03*
X27000Y-41500D03*
X25000Y-42500D03*
X27000Y-42500D03*
X25000Y-43500D03*
X27000Y-43500D03*
X25000Y-44500D03*
X27000Y-44500D03*
X52500Y-46500D03*
X52500Y-45500D03*
X52500Y-44500D03*
X52500Y-43500D03*
X52500Y-42500D03*
X52500Y-41500D03*
X52500Y-40500D03*
X52500Y-39500D03*
X52500Y-38500D03*
X52500Y-37500D03*
X52500Y-36500D03*
X52500Y-35500D03*
X52500Y-34500D03*
X52500Y-33500D03*
X52500Y-32500D03*
X52500Y-31500D03*
X52500Y-30500D03*
X52500Y-29500D03*
X52500Y-28500D03*
X52500Y-27500D03*
G54D15*
X58500Y-21500D03*
G54D16*
X58500Y-22500D03*
G54D15*
X58500Y-23500D03*
X35500Y-48500D03*
G54D16*
X35500Y-52500D03*
G54D15*
X45500Y-50500D03*
G54D16*
X45500Y-54500D03*
G54D15*
X42500Y-48500D03*
G54D16*
X42500Y-52500D03*
G54D15*
X44500Y-54500D03*
G54D16*
X44500Y-50500D03*
G54D15*
X43500Y-52500D03*
G54D16*
X43500Y-48500D03*
G54D15*
X32500Y-50500D03*
G54D16*
X32500Y-54500D03*
G54D15*
X33500Y-54500D03*
G54D16*
X33500Y-50500D03*
G54D15*
X34500Y-52500D03*
G54D16*
X34500Y-48500D03*
G54D15*
X46000Y-21500D03*
G54D16*
X50000Y-21500D03*
G54D12*
X43000Y-34500D03*
G54D17*
X26000Y-21500D03*
X61000Y-21500D03*
X26000Y-56500D03*
X61000Y-56500D03*
G54D18*
X31500Y-25500D03*
G54D19*
X31500Y-26500D03*
X31500Y-27500D03*
X31500Y-28500D03*
X31500Y-29500D03*
X31500Y-30500D03*
X31500Y-31500D03*
X31500Y-32500D03*
X31500Y-33500D03*
X31500Y-34500D03*
X31500Y-35500D03*
X31500Y-36500D03*
X31500Y-37500D03*
X31500Y-38500D03*
X31500Y-39500D03*
X31500Y-40500D03*
X31500Y-41500D03*
X31500Y-42500D03*
X31500Y-43500D03*
X31500Y-44500D03*
X37500Y-44500D03*
X37500Y-43500D03*
X37500Y-42500D03*
X37500Y-41500D03*
X37500Y-40500D03*
X37500Y-39500D03*
X37500Y-38500D03*
X37500Y-37500D03*
X37500Y-36500D03*
X37500Y-35500D03*
X37500Y-34500D03*
X37500Y-33500D03*
X37500Y-32500D03*
X37500Y-31500D03*
X37500Y-30500D03*
X37500Y-29500D03*
X37500Y-28500D03*
X37500Y-27500D03*
X37500Y-26500D03*
X37500Y-25500D03*
G54D20*
X34122Y-22023D03*
X35106Y-22023D03*
X35893Y-22023D03*
X36877Y-22023D03*
G54D21*
X37803Y-21000D03*
X33196Y-21000D03*
G54D22*
X36385Y-21000D03*
X34614Y-21000D03*
G54D19*
X42000Y-44500D03*
X42000Y-41500D03*
X43000Y-40500D03*
X43000Y-37500D03*
X42000Y-40500D03*
X42000Y-37500D03*
X43000Y-44500D03*
X43000Y-41500D03*
X29000Y-26000D03*
X29000Y-29000D03*
X30000Y-29000D03*
X30000Y-26000D03*
X28000Y-26000D03*
X28000Y-29000D03*
X58500Y-26000D03*
X61500Y-26000D03*
G54D23*
X28000Y-50000D03*
X28000Y-42000D03*
X29750Y-45000D03*
X29750Y-38750D03*
X30250Y-44750D03*
X30250Y-38750D03*
X30750Y-46000D03*
X30000Y-47250D03*
X34000Y-40000D03*
X47500Y-36500D03*
X40500Y-27000D03*
X38500Y-25000D03*
X28500Y-29750D03*
X27250Y-28250D03*
X32000Y-48000D03*
X38500Y-23750D03*
G54D24*
X44000Y-49000D02*
X44000Y-49000D01*
X32000Y-41500D02*
X32000Y-41250D01*
X29500Y-29500D02*
X27750Y-31250D01*
X29500Y-28500D02*
X29500Y-29500D01*
X31500Y-26500D02*
X29500Y-28500D01*
X27750Y-38750D02*
X27000Y-39500D01*
X27750Y-31250D02*
X27750Y-38750D01*
X27000Y-39500D02*
X26000Y-39500D01*
X26000Y-39500D02*
X25000Y-39500D01*
X27000Y-40500D02*
X28000Y-39500D01*
X26000Y-40500D02*
X27000Y-40500D01*
X25000Y-40500D02*
X26000Y-40500D01*
X30500Y-28500D02*
X31500Y-27500D01*
X30500Y-29500D02*
X30500Y-28500D01*
X28000Y-32000D02*
X30500Y-29500D01*
X28000Y-39500D02*
X28000Y-32000D01*
X31500Y-28500D02*
X30750Y-29250D01*
X28250Y-40250D02*
X27000Y-41500D01*
X28250Y-32250D02*
X28250Y-40250D01*
X30750Y-29750D02*
X28250Y-32250D01*
X30750Y-29250D02*
X30750Y-29750D01*
X26000Y-41500D02*
X27000Y-41500D01*
X26000Y-41500D02*
X25000Y-41500D01*
X27000Y-42500D02*
X28500Y-41000D01*
X28500Y-32500D02*
X31500Y-29500D01*
X28500Y-41000D02*
X28500Y-32500D01*
X26000Y-42500D02*
X27000Y-42500D01*
X25000Y-42500D02*
X26000Y-42500D01*
X27000Y-43500D02*
X27250Y-43500D01*
X30500Y-31500D02*
X31500Y-31500D01*
X29000Y-33000D02*
X30500Y-31500D01*
X29000Y-41750D02*
X29000Y-33000D01*
X27250Y-43500D02*
X29000Y-41750D01*
X27000Y-43500D02*
X27000Y-43500D01*
X27000Y-43500D02*
X26000Y-43500D01*
X26000Y-43500D02*
X25000Y-43500D01*
X31500Y-32500D02*
X30000Y-32500D01*
X28000Y-44500D02*
X27000Y-44500D01*
X29250Y-43250D02*
X28000Y-44500D01*
X29250Y-33250D02*
X29250Y-43250D01*
X30000Y-32500D02*
X29250Y-33250D01*
X26000Y-44500D02*
X27000Y-44500D01*
X25000Y-44500D02*
X26000Y-44500D01*
G54D25*
X25000Y-47500D02*
X26000Y-47500D01*
X26000Y-47500D02*
X27000Y-47500D01*
G54D24*
X31500Y-39500D02*
X31250Y-39500D01*
X28000Y-46500D02*
X27000Y-47500D01*
X28000Y-45000D02*
X28000Y-46500D01*
X29500Y-43500D02*
X28000Y-45000D01*
X29500Y-41250D02*
X29500Y-43500D01*
X31250Y-39500D02*
X29500Y-41250D01*
G54D25*
X25000Y-48500D02*
X26000Y-48500D01*
X26000Y-48500D02*
X27000Y-48500D01*
G54D24*
X27000Y-48500D02*
X28250Y-47250D01*
X30750Y-40500D02*
X31500Y-40500D01*
X29750Y-41500D02*
X30750Y-40500D01*
X29750Y-43750D02*
X29750Y-41500D01*
X28250Y-45250D02*
X29750Y-43750D01*
X28250Y-47250D02*
X28250Y-45250D01*
G54D25*
X25000Y-49500D02*
X26000Y-49500D01*
X26000Y-49500D02*
X27000Y-49500D01*
G54D24*
X31500Y-41500D02*
X30500Y-41500D01*
X28500Y-48000D02*
X27000Y-49500D01*
X28500Y-45500D02*
X28500Y-48000D01*
X30000Y-44000D02*
X28500Y-45500D01*
X30000Y-42000D02*
X30000Y-44000D01*
X30500Y-41500D02*
X30000Y-42000D01*
G54D25*
X25000Y-50500D02*
X26000Y-50500D01*
X26000Y-50500D02*
X27000Y-50500D01*
G54D24*
X31500Y-30500D02*
X31000Y-30500D01*
X27500Y-50500D02*
X27000Y-50500D01*
X28000Y-50000D02*
X27500Y-50500D01*
X28750Y-41250D02*
X28000Y-42000D01*
X28750Y-32750D02*
X28750Y-41250D01*
X31000Y-30500D02*
X28750Y-32750D01*
G54D25*
X25000Y-51500D02*
X26000Y-51500D01*
X26000Y-51500D02*
X27000Y-51500D01*
G54D24*
X29750Y-38750D02*
X29750Y-38000D01*
X31500Y-33500D02*
X30000Y-33500D01*
X30000Y-33500D02*
X29500Y-34000D01*
X29500Y-34000D02*
X29500Y-37750D01*
X29750Y-38000D02*
X29500Y-37750D01*
X29000Y-45750D02*
X29750Y-45000D01*
X28250Y-51500D02*
X27000Y-51500D01*
X29000Y-50750D02*
X29000Y-46250D01*
X28250Y-51500D02*
X29000Y-50750D01*
X29000Y-46250D02*
X29000Y-45750D01*
G54D25*
X25000Y-52500D02*
X26000Y-52500D01*
X26000Y-52500D02*
X27000Y-52500D01*
G54D24*
X29750Y-37000D02*
X29750Y-37500D01*
X31000Y-34000D02*
X30000Y-34000D01*
X30000Y-34000D02*
X29750Y-34250D01*
X29750Y-34250D02*
X29750Y-37000D01*
X31000Y-34000D02*
X31500Y-34500D01*
X30250Y-38000D02*
X30250Y-38750D01*
X29750Y-37500D02*
X30250Y-38000D01*
X29250Y-46500D02*
X29750Y-46000D01*
X27000Y-52500D02*
X28250Y-52500D01*
X28500Y-52500D02*
X29250Y-51750D01*
X28250Y-52500D02*
X28500Y-52500D01*
X29250Y-51750D02*
X29250Y-46500D01*
X30250Y-45500D02*
X29750Y-46000D01*
X30250Y-44750D02*
X30250Y-45500D01*
G54D25*
X25000Y-53500D02*
X26000Y-53500D01*
X26000Y-53500D02*
X27000Y-53500D01*
G54D24*
X28000Y-53500D02*
X29500Y-52000D01*
X29500Y-52000D02*
X29500Y-47250D01*
X29500Y-47250D02*
X30750Y-46000D01*
X27000Y-53500D02*
X28000Y-53500D01*
G54D25*
X25000Y-54500D02*
X26000Y-54500D01*
X26000Y-54500D02*
X27000Y-54500D01*
G54D24*
X27500Y-54500D02*
X30000Y-52000D01*
X30000Y-52000D02*
X30000Y-47250D01*
X27000Y-54500D02*
X27500Y-54500D01*
X45000Y-34500D02*
X44500Y-34000D01*
X46000Y-35500D02*
X45000Y-34500D01*
X39750Y-30250D02*
X37500Y-32500D01*
X43000Y-30250D02*
X39750Y-30250D01*
X44500Y-31750D02*
X43000Y-30250D01*
X44500Y-34000D02*
X44500Y-31750D01*
X44750Y-32500D02*
X44750Y-33250D01*
X39000Y-30000D02*
X43250Y-30000D01*
X43250Y-30000D02*
X44750Y-31500D01*
X44750Y-31500D02*
X44750Y-32500D01*
X37500Y-31500D02*
X39000Y-30000D01*
X44750Y-33250D02*
X46000Y-34500D01*
X46000Y-33500D02*
X45750Y-33500D01*
X38250Y-29750D02*
X37500Y-30500D01*
X43500Y-29750D02*
X38250Y-29750D01*
X45000Y-31250D02*
X43500Y-29750D01*
X45000Y-32750D02*
X45000Y-31250D01*
X45750Y-33500D02*
X45000Y-32750D01*
X37500Y-29500D02*
X43750Y-29500D01*
X45250Y-31750D02*
X46000Y-32500D01*
X45250Y-31000D02*
X45250Y-31750D01*
X43750Y-29500D02*
X45250Y-31000D01*
X46000Y-31500D02*
X46000Y-31250D01*
X39000Y-28500D02*
X37500Y-28500D01*
X39750Y-29250D02*
X39000Y-28500D01*
X44000Y-29250D02*
X39750Y-29250D01*
X46000Y-31250D02*
X44000Y-29250D01*
X37500Y-27500D02*
X38500Y-27500D01*
X44500Y-29000D02*
X46000Y-30500D01*
X40000Y-29000D02*
X44500Y-29000D01*
X38500Y-27500D02*
X40000Y-29000D01*
X46000Y-29500D02*
X45750Y-29500D01*
X38000Y-26500D02*
X37500Y-26500D01*
X40250Y-28750D02*
X38000Y-26500D01*
X45000Y-28750D02*
X40250Y-28750D01*
X45750Y-29500D02*
X45000Y-28750D01*
X37500Y-25500D02*
X40500Y-28500D01*
X40500Y-28500D02*
X46000Y-28500D01*
X40000Y-44500D02*
X38750Y-45750D01*
X46000Y-44500D02*
X45500Y-44500D01*
X33750Y-45750D02*
X31500Y-43500D01*
X44250Y-45750D02*
X38750Y-45750D01*
X38750Y-45750D02*
X33750Y-45750D01*
X45500Y-44500D02*
X44250Y-45750D01*
X46000Y-44500D02*
X47000Y-44500D01*
X47000Y-44500D02*
X48000Y-44500D01*
X31500Y-44500D02*
X31000Y-44000D01*
X40000Y-43250D02*
X40000Y-42500D01*
X37750Y-45500D02*
X40000Y-43250D01*
X34750Y-45500D02*
X37750Y-45500D01*
X32250Y-43000D02*
X34750Y-45500D01*
X31250Y-43000D02*
X32250Y-43000D01*
X31000Y-43250D02*
X31250Y-43000D01*
X31000Y-44000D02*
X31000Y-43250D01*
X40000Y-42500D02*
X40500Y-42000D01*
X44500Y-42000D02*
X46000Y-43500D01*
X40500Y-42000D02*
X44500Y-42000D01*
X46000Y-43500D02*
X47000Y-43500D01*
X48000Y-43500D02*
X47000Y-43500D01*
X40000Y-40500D02*
X40750Y-39750D01*
X45750Y-42500D02*
X46000Y-42500D01*
X45250Y-42000D02*
X45750Y-42500D01*
X45250Y-41500D02*
X45250Y-42000D01*
X43500Y-39750D02*
X45250Y-41500D01*
X40750Y-39750D02*
X43500Y-39750D01*
X37500Y-44500D02*
X38750Y-43250D01*
X39500Y-40500D02*
X40000Y-40500D01*
X38750Y-41250D02*
X39500Y-40500D01*
X38750Y-43250D02*
X38750Y-41250D01*
X40000Y-40500D02*
X40100Y-40500D01*
X47000Y-42500D02*
X48000Y-42500D01*
X46000Y-42500D02*
X47000Y-42500D01*
X40000Y-38500D02*
X41000Y-39500D01*
X44000Y-39500D02*
X46000Y-41500D01*
X41000Y-39500D02*
X44000Y-39500D01*
X38400Y-42600D02*
X38400Y-39100D01*
X37500Y-43500D02*
X38400Y-42600D01*
X39000Y-38500D02*
X40000Y-38500D01*
X38400Y-39100D02*
X39000Y-38500D01*
X47000Y-41500D02*
X46000Y-41500D01*
X48000Y-41500D02*
X47000Y-41500D01*
X37500Y-38500D02*
X38250Y-38500D01*
X39000Y-37750D02*
X41250Y-37750D01*
X38250Y-38500D02*
X39000Y-37750D01*
X43750Y-38250D02*
X46000Y-40500D01*
X41750Y-38250D02*
X43750Y-38250D01*
X41250Y-37750D02*
X41750Y-38250D01*
X37500Y-37500D02*
X38500Y-37500D01*
X45250Y-38750D02*
X46000Y-39500D01*
X45250Y-38250D02*
X45250Y-38750D01*
X44000Y-37000D02*
X45250Y-38250D01*
X39000Y-37000D02*
X44000Y-37000D01*
X38500Y-37500D02*
X39000Y-37000D01*
X44250Y-36750D02*
X46000Y-38500D01*
X40250Y-36750D02*
X44250Y-36750D01*
X40000Y-36500D02*
X40250Y-36750D01*
X37500Y-36500D02*
X40000Y-36500D01*
X37500Y-35500D02*
X39250Y-35500D01*
X45000Y-36500D02*
X46000Y-37500D01*
X40250Y-36500D02*
X45000Y-36500D01*
X39250Y-35500D02*
X40250Y-36500D01*
X37500Y-41500D02*
X35750Y-39750D01*
X35750Y-22167D02*
X35893Y-22023D01*
X35750Y-39750D02*
X35750Y-22167D01*
X37500Y-42500D02*
X35500Y-40500D01*
X35106Y-23356D02*
X35106Y-22023D01*
X35500Y-23750D02*
X35106Y-23356D01*
X35500Y-40500D02*
X35500Y-23750D01*
X31500Y-42500D02*
X31250Y-42500D01*
X31250Y-45750D02*
X31250Y-47000D01*
X30750Y-45250D02*
X31250Y-45750D01*
X30750Y-43000D02*
X30750Y-45250D01*
X31250Y-42500D02*
X30750Y-43000D01*
X31500Y-25500D02*
X28000Y-29000D01*
X28000Y-24000D02*
X28000Y-21000D01*
X26000Y-24000D02*
X28000Y-24000D01*
X28000Y-25000D02*
X28000Y-24000D01*
X28000Y-26000D02*
X28000Y-25000D01*
X29000Y-26000D02*
X28000Y-26000D01*
G54D25*
X31500Y-36500D02*
X32500Y-36500D01*
X34000Y-38000D02*
X34000Y-40000D01*
X32500Y-36500D02*
X34000Y-38000D01*
X43000Y-35500D02*
X44500Y-35500D01*
X45500Y-36500D02*
X47500Y-36500D01*
X44500Y-35500D02*
X45500Y-36500D01*
X38500Y-25000D02*
X40500Y-27000D01*
G54D24*
X30750Y-50500D02*
X30750Y-49500D01*
X30750Y-49500D02*
X31250Y-49000D01*
X30000Y-25000D02*
X33196Y-21803D01*
X33196Y-21803D02*
X33196Y-21000D01*
X26000Y-26000D02*
X26750Y-26750D01*
X27500Y-29750D02*
X28500Y-29750D01*
X26750Y-29000D02*
X27500Y-29750D01*
X26750Y-26750D02*
X26750Y-29000D01*
G54D25*
X42250Y-21329D02*
X41581Y-21329D01*
X41581Y-21329D02*
X40400Y-22510D01*
X46000Y-23000D02*
X44329Y-21329D01*
X44329Y-21329D02*
X42250Y-21329D01*
X48000Y-23000D02*
X46000Y-23000D01*
X48000Y-48000D02*
X50500Y-48000D01*
X50500Y-48000D02*
X51500Y-48000D01*
X51500Y-48000D02*
X52500Y-48000D01*
X52500Y-48000D02*
X53500Y-48000D01*
X53500Y-48000D02*
X54500Y-48000D01*
X54500Y-48000D02*
X55500Y-48000D01*
X55500Y-48000D02*
X56500Y-48000D01*
X56500Y-48000D02*
X57500Y-48000D01*
X57500Y-48000D02*
X58500Y-48000D01*
X58500Y-48000D02*
X59500Y-48000D01*
X59500Y-48000D02*
X60500Y-48000D01*
X60500Y-48000D02*
X61500Y-48000D01*
X32500Y-50500D02*
X30750Y-50500D01*
X45500Y-50500D02*
X47700Y-50500D01*
X47700Y-50500D02*
X48000Y-50200D01*
X45500Y-50500D02*
X45500Y-49750D01*
X47250Y-48000D02*
X48000Y-48000D01*
X45500Y-49750D02*
X47250Y-48000D01*
G54D24*
X32500Y-50500D02*
X32250Y-50500D01*
X61500Y-48000D02*
X60500Y-48000D01*
X60500Y-48000D02*
X59500Y-48000D01*
X59500Y-48000D02*
X58500Y-48000D01*
X58500Y-48000D02*
X57500Y-48000D01*
X57500Y-48000D02*
X56500Y-48000D01*
G54D25*
X42500Y-57000D02*
X42500Y-55500D01*
X42500Y-55500D02*
X41500Y-54500D01*
X44500Y-54500D02*
X45500Y-54500D01*
X40500Y-54500D02*
X41500Y-54500D01*
X41500Y-54500D02*
X44500Y-54500D01*
X44500Y-57000D02*
X44500Y-57000D01*
X45500Y-52500D02*
X43500Y-52500D01*
X46500Y-53500D02*
X45500Y-52500D01*
X46500Y-55000D02*
X46500Y-53500D01*
X44500Y-57000D02*
X46500Y-55000D01*
X43500Y-57000D02*
X44500Y-57000D01*
X43500Y-52500D02*
X42500Y-52500D01*
X40500Y-51500D02*
X41000Y-51500D01*
X42000Y-52500D02*
X42500Y-52500D01*
X41000Y-51500D02*
X42000Y-52500D01*
X33500Y-57000D02*
X34500Y-57000D01*
X34500Y-52500D02*
X32500Y-52500D01*
X33500Y-57000D02*
X33500Y-57000D01*
X31500Y-55000D02*
X33500Y-57000D01*
X31500Y-53500D02*
X31500Y-55000D01*
X32500Y-52500D02*
X31500Y-53500D01*
X35500Y-52500D02*
X34500Y-52500D01*
X37500Y-51500D02*
X37000Y-51500D01*
X36000Y-52500D02*
X35500Y-52500D01*
X37000Y-51500D02*
X36000Y-52500D01*
X35500Y-57000D02*
X35500Y-55500D01*
X35500Y-55500D02*
X36500Y-54500D01*
X33500Y-54500D02*
X36500Y-54500D01*
X36500Y-54500D02*
X37500Y-54500D01*
X32500Y-54500D02*
X33500Y-54500D01*
G54D24*
X30000Y-26000D02*
X29250Y-25250D01*
X29250Y-24750D02*
X30000Y-24000D01*
X29250Y-25250D02*
X29250Y-24750D01*
X30000Y-21000D02*
X30000Y-24000D01*
X41000Y-40500D02*
X42000Y-40500D01*
X41000Y-44500D02*
X42000Y-44500D01*
X41000Y-42500D02*
X42250Y-42500D01*
X43000Y-43250D02*
X43000Y-44500D01*
X42250Y-42500D02*
X43000Y-43250D01*
X26000Y-25000D02*
X26250Y-25000D01*
X27250Y-26000D02*
X27250Y-28250D01*
X26250Y-25000D02*
X27250Y-26000D01*
G54D25*
X50500Y-49000D02*
X48000Y-49000D01*
X50500Y-49000D02*
X51500Y-49000D01*
X51500Y-49000D02*
X52500Y-49000D01*
X52500Y-49000D02*
X53500Y-49000D01*
X53500Y-49000D02*
X54500Y-49000D01*
X54500Y-49000D02*
X55500Y-49000D01*
X55500Y-49000D02*
X56500Y-49000D01*
X56500Y-49000D02*
X57500Y-49000D01*
X57500Y-49000D02*
X58500Y-49000D01*
X58500Y-49000D02*
X59500Y-49000D01*
X59500Y-49000D02*
X60500Y-49000D01*
X60500Y-49000D02*
X61500Y-49000D01*
X48000Y-52200D02*
X48000Y-51500D01*
X48000Y-51500D02*
X50500Y-49000D01*
G54D24*
X52500Y-51500D02*
X53000Y-51500D01*
X53000Y-51500D02*
X53500Y-51000D01*
X57500Y-51500D02*
X57500Y-52000D01*
X57500Y-52000D02*
X57000Y-52500D01*
X59500Y-53500D02*
X59000Y-53500D01*
X55000Y-52500D02*
X53500Y-51000D01*
X58000Y-52500D02*
X57000Y-52500D01*
X57000Y-52500D02*
X55000Y-52500D01*
X59000Y-53500D02*
X58000Y-52500D01*
X54500Y-53500D02*
X53500Y-52500D01*
X53500Y-52500D02*
X53500Y-51000D01*
X53500Y-51000D02*
X53500Y-49000D01*
X51500Y-49000D02*
X52500Y-49000D01*
X52500Y-49000D02*
X53250Y-49000D01*
X53250Y-49000D02*
X53500Y-49000D01*
X53500Y-49000D02*
X54500Y-49000D01*
X54500Y-49000D02*
X55500Y-49000D01*
X55500Y-49000D02*
X56500Y-49000D01*
X56500Y-49000D02*
X57500Y-49000D01*
X57500Y-49000D02*
X58500Y-49000D01*
X58500Y-49000D02*
X59500Y-49000D01*
X59500Y-49000D02*
X60500Y-49000D01*
X60500Y-49000D02*
X61500Y-49000D01*
G54D25*
X34500Y-48500D02*
X32500Y-48500D01*
X32500Y-48500D02*
X32000Y-48000D01*
X49500Y-26500D02*
X49500Y-24000D01*
X49500Y-27500D02*
X49500Y-26500D01*
X49500Y-24000D02*
X52000Y-21500D01*
X30750Y-51500D02*
X33000Y-51500D01*
X33500Y-51000D02*
X33500Y-50500D01*
X33000Y-51500D02*
X33500Y-51000D01*
X49500Y-27500D02*
X49500Y-28500D01*
X49500Y-28500D02*
X49500Y-29500D01*
X49500Y-29500D02*
X49500Y-30500D01*
X49500Y-30500D02*
X49500Y-31500D01*
X49500Y-31500D02*
X49500Y-44000D01*
X49500Y-44000D02*
X49500Y-44750D01*
X46500Y-47750D02*
X47750Y-46500D01*
X49500Y-44750D02*
X47750Y-46500D01*
X44500Y-50500D02*
X44500Y-49750D01*
X44500Y-49750D02*
X46500Y-47750D01*
X43500Y-48500D02*
X43500Y-48250D01*
X43500Y-48250D02*
X44000Y-47750D01*
X40500Y-47500D02*
X42500Y-47500D01*
X42750Y-47750D02*
X44000Y-47750D01*
X44000Y-47750D02*
X46500Y-47750D01*
X42500Y-47500D02*
X42750Y-47750D01*
X40500Y-47500D02*
X35500Y-47500D01*
X35500Y-47500D02*
X34500Y-48500D01*
X37500Y-56500D02*
X38000Y-56500D01*
X39000Y-49000D02*
X40500Y-47500D01*
X39000Y-55500D02*
X39000Y-49000D01*
X38000Y-56500D02*
X39000Y-55500D01*
X33500Y-50500D02*
X33500Y-49500D01*
X33500Y-49500D02*
X34500Y-48500D01*
X43750Y-24500D02*
X43500Y-24750D01*
X43500Y-24750D02*
X39500Y-24750D01*
X39500Y-24750D02*
X38500Y-23750D01*
X45000Y-24500D02*
X43750Y-24500D01*
G54D24*
X33893Y-22106D02*
X33893Y-22023D01*
G54D25*
X45000Y-24500D02*
X45250Y-24250D01*
X45250Y-24250D02*
X45500Y-24000D01*
X45500Y-24000D02*
X46000Y-24000D01*
X45000Y-24500D02*
X48000Y-27500D01*
G54D10*
G36*
X27350Y-36903D02*
X27136Y-36815D01*
X26864Y-36814D01*
X26612Y-36918D01*
X26499Y-37031D01*
X26388Y-36919D01*
X26136Y-36815D01*
X25864Y-36814D01*
X25612Y-36918D01*
X25499Y-37031D01*
X25388Y-36919D01*
X25136Y-36815D01*
X25120Y-36815D01*
X25120Y-35185D01*
X25135Y-35185D01*
X25387Y-35081D01*
X25500Y-34968D01*
X25611Y-35080D01*
X25863Y-35184D01*
X26135Y-35185D01*
X26387Y-35081D01*
X26500Y-34968D01*
X26611Y-35080D01*
X26863Y-35184D01*
X27135Y-35185D01*
X27350Y-35096D01*
X27350Y-36903D01*
X27350Y-36903D01*
G37*
G54D26*
X27350Y-36903D02*
X27136Y-36815D01*
X26864Y-36814D01*
X26612Y-36918D01*
X26499Y-37031D01*
X26388Y-36919D01*
X26136Y-36815D01*
X25864Y-36814D01*
X25612Y-36918D01*
X25499Y-37031D01*
X25388Y-36919D01*
X25136Y-36815D01*
X25120Y-36815D01*
X25120Y-35185D01*
X25135Y-35185D01*
X25387Y-35081D01*
X25500Y-34968D01*
X25611Y-35080D01*
X25863Y-35184D01*
X26135Y-35185D01*
X26387Y-35081D01*
X26500Y-34968D01*
X26611Y-35080D01*
X26863Y-35184D01*
X27135Y-35185D01*
X27350Y-35096D01*
X27350Y-36903D01*
G54D10*
G36*
X28821Y-29613D02*
X27467Y-30967D01*
X27380Y-31096D01*
X27375Y-31122D01*
X27350Y-31250D01*
X27350Y-31815D01*
X27253Y-31814D01*
X26685Y-31814D01*
X26685Y-28864D01*
X26581Y-28612D01*
X26468Y-28499D01*
X26580Y-28388D01*
X26684Y-28136D01*
X26685Y-27864D01*
X26581Y-27612D01*
X26468Y-27499D01*
X26580Y-27388D01*
X26684Y-27136D01*
X26685Y-26864D01*
X26581Y-26612D01*
X26388Y-26419D01*
X26136Y-26315D01*
X25864Y-26314D01*
X25612Y-26418D01*
X25419Y-26611D01*
X25315Y-26863D01*
X25314Y-27135D01*
X25418Y-27387D01*
X25531Y-27500D01*
X25419Y-27611D01*
X25315Y-27863D01*
X25314Y-28135D01*
X25418Y-28387D01*
X25531Y-28500D01*
X25419Y-28611D01*
X25315Y-28863D01*
X25314Y-29135D01*
X25418Y-29387D01*
X25611Y-29580D01*
X25863Y-29684D01*
X26135Y-29685D01*
X26387Y-29581D01*
X26580Y-29388D01*
X26684Y-29136D01*
X26685Y-28864D01*
X26685Y-31814D01*
X26603Y-31814D01*
X26499Y-31857D01*
X26396Y-31815D01*
X26253Y-31814D01*
X25603Y-31814D01*
X25499Y-31857D01*
X25396Y-31815D01*
X25253Y-31814D01*
X25120Y-31814D01*
X25120Y-22260D01*
X25342Y-22482D01*
X25768Y-22659D01*
X26229Y-22660D01*
X26656Y-22483D01*
X26982Y-22157D01*
X27159Y-21731D01*
X27160Y-21270D01*
X26983Y-20843D01*
X26760Y-20620D01*
X27416Y-20620D01*
X27315Y-20863D01*
X27314Y-21135D01*
X27418Y-21387D01*
X27600Y-21568D01*
X27600Y-23431D01*
X27431Y-23600D01*
X26683Y-23600D01*
X26630Y-23471D01*
X26529Y-23369D01*
X26396Y-23315D01*
X26253Y-23314D01*
X25603Y-23314D01*
X25471Y-23369D01*
X25369Y-23470D01*
X25315Y-23603D01*
X25314Y-23746D01*
X25314Y-24396D01*
X25369Y-24528D01*
X25435Y-24595D01*
X25419Y-24611D01*
X25315Y-24863D01*
X25314Y-25135D01*
X25418Y-25387D01*
X25611Y-25580D01*
X25863Y-25684D01*
X26135Y-25685D01*
X26301Y-25616D01*
X26850Y-26165D01*
X26850Y-27893D01*
X26796Y-27946D01*
X26715Y-28143D01*
X26714Y-28355D01*
X26796Y-28552D01*
X26946Y-28703D01*
X27143Y-28784D01*
X27355Y-28785D01*
X27411Y-28762D01*
X27365Y-28873D01*
X27364Y-29125D01*
X27461Y-29359D01*
X27639Y-29538D01*
X27873Y-29634D01*
X28125Y-29635D01*
X28359Y-29538D01*
X28500Y-29398D01*
X28639Y-29538D01*
X28821Y-29613D01*
X28821Y-29613D01*
G37*
G54D26*
X28821Y-29613D02*
X27467Y-30967D01*
X27380Y-31096D01*
X27375Y-31122D01*
X27350Y-31250D01*
X27350Y-31815D01*
X27253Y-31814D01*
X26685Y-31814D01*
X26685Y-28864D01*
X26581Y-28612D01*
X26468Y-28499D01*
X26580Y-28388D01*
X26684Y-28136D01*
X26685Y-27864D01*
X26581Y-27612D01*
X26468Y-27499D01*
X26580Y-27388D01*
X26684Y-27136D01*
X26685Y-26864D01*
X26581Y-26612D01*
X26388Y-26419D01*
X26136Y-26315D01*
X25864Y-26314D01*
X25612Y-26418D01*
X25419Y-26611D01*
X25315Y-26863D01*
X25314Y-27135D01*
X25418Y-27387D01*
X25531Y-27500D01*
X25419Y-27611D01*
X25315Y-27863D01*
X25314Y-28135D01*
X25418Y-28387D01*
X25531Y-28500D01*
X25419Y-28611D01*
X25315Y-28863D01*
X25314Y-29135D01*
X25418Y-29387D01*
X25611Y-29580D01*
X25863Y-29684D01*
X26135Y-29685D01*
X26387Y-29581D01*
X26580Y-29388D01*
X26684Y-29136D01*
X26685Y-28864D01*
X26685Y-31814D01*
X26603Y-31814D01*
X26499Y-31857D01*
X26396Y-31815D01*
X26253Y-31814D01*
X25603Y-31814D01*
X25499Y-31857D01*
X25396Y-31815D01*
X25253Y-31814D01*
X25120Y-31814D01*
X25120Y-22260D01*
X25342Y-22482D01*
X25768Y-22659D01*
X26229Y-22660D01*
X26656Y-22483D01*
X26982Y-22157D01*
X27159Y-21731D01*
X27160Y-21270D01*
X26983Y-20843D01*
X26760Y-20620D01*
X27416Y-20620D01*
X27315Y-20863D01*
X27314Y-21135D01*
X27418Y-21387D01*
X27600Y-21568D01*
X27600Y-23431D01*
X27431Y-23600D01*
X26683Y-23600D01*
X26630Y-23471D01*
X26529Y-23369D01*
X26396Y-23315D01*
X26253Y-23314D01*
X25603Y-23314D01*
X25471Y-23369D01*
X25369Y-23470D01*
X25315Y-23603D01*
X25314Y-23746D01*
X25314Y-24396D01*
X25369Y-24528D01*
X25435Y-24595D01*
X25419Y-24611D01*
X25315Y-24863D01*
X25314Y-25135D01*
X25418Y-25387D01*
X25611Y-25580D01*
X25863Y-25684D01*
X26135Y-25685D01*
X26301Y-25616D01*
X26850Y-26165D01*
X26850Y-27893D01*
X26796Y-27946D01*
X26715Y-28143D01*
X26714Y-28355D01*
X26796Y-28552D01*
X26946Y-28703D01*
X27143Y-28784D01*
X27355Y-28785D01*
X27411Y-28762D01*
X27365Y-28873D01*
X27364Y-29125D01*
X27461Y-29359D01*
X27639Y-29538D01*
X27873Y-29634D01*
X28125Y-29635D01*
X28359Y-29538D01*
X28500Y-29398D01*
X28639Y-29538D01*
X28821Y-29613D01*
G54D10*
G36*
X30108Y-28457D02*
X30100Y-28500D01*
X30100Y-29334D01*
X29891Y-29542D01*
X29899Y-29500D01*
X29900Y-29500D01*
X29900Y-28665D01*
X30108Y-28457D01*
X30108Y-28457D01*
G37*
G54D26*
X30108Y-28457D02*
X30100Y-28500D01*
X30100Y-29334D01*
X29891Y-29542D01*
X29899Y-29500D01*
X29900Y-29500D01*
X29900Y-28665D01*
X30108Y-28457D01*
G54D10*
G36*
X33268Y-49010D02*
X33139Y-49139D01*
X33028Y-49304D01*
X32990Y-49500D01*
X32990Y-49826D01*
X32946Y-49844D01*
X32844Y-49945D01*
X32790Y-50078D01*
X32789Y-50221D01*
X32789Y-50921D01*
X32809Y-50969D01*
X32788Y-50990D01*
X31388Y-50990D01*
X31380Y-50971D01*
X31279Y-50869D01*
X31146Y-50815D01*
X31003Y-50814D01*
X30400Y-50814D01*
X30400Y-47606D01*
X30453Y-47553D01*
X30534Y-47356D01*
X30535Y-47144D01*
X30453Y-46947D01*
X30411Y-46904D01*
X30645Y-46670D01*
X30565Y-46863D01*
X30564Y-47135D01*
X30668Y-47387D01*
X30861Y-47580D01*
X31113Y-47684D01*
X31385Y-47685D01*
X31637Y-47581D01*
X31830Y-47388D01*
X31874Y-47281D01*
X31918Y-47387D01*
X31996Y-47464D01*
X31894Y-47464D01*
X31697Y-47546D01*
X31546Y-47696D01*
X31465Y-47893D01*
X31464Y-48105D01*
X31546Y-48302D01*
X31696Y-48453D01*
X31757Y-48478D01*
X32139Y-48860D01*
X32304Y-48971D01*
X32304Y-48971D01*
X32500Y-49010D01*
X33268Y-49010D01*
X33268Y-49010D01*
G37*
G54D26*
X33268Y-49010D02*
X33139Y-49139D01*
X33028Y-49304D01*
X32990Y-49500D01*
X32990Y-49826D01*
X32946Y-49844D01*
X32844Y-49945D01*
X32790Y-50078D01*
X32789Y-50221D01*
X32789Y-50921D01*
X32809Y-50969D01*
X32788Y-50990D01*
X31388Y-50990D01*
X31380Y-50971D01*
X31279Y-50869D01*
X31146Y-50815D01*
X31003Y-50814D01*
X30400Y-50814D01*
X30400Y-47606D01*
X30453Y-47553D01*
X30534Y-47356D01*
X30535Y-47144D01*
X30453Y-46947D01*
X30411Y-46904D01*
X30645Y-46670D01*
X30565Y-46863D01*
X30564Y-47135D01*
X30668Y-47387D01*
X30861Y-47580D01*
X31113Y-47684D01*
X31385Y-47685D01*
X31637Y-47581D01*
X31830Y-47388D01*
X31874Y-47281D01*
X31918Y-47387D01*
X31996Y-47464D01*
X31894Y-47464D01*
X31697Y-47546D01*
X31546Y-47696D01*
X31465Y-47893D01*
X31464Y-48105D01*
X31546Y-48302D01*
X31696Y-48453D01*
X31757Y-48478D01*
X32139Y-48860D01*
X32304Y-48971D01*
X32304Y-48971D01*
X32500Y-49010D01*
X33268Y-49010D01*
G54D10*
G36*
X37289Y-45100D02*
X34915Y-45100D01*
X32532Y-42717D01*
X32403Y-42630D01*
X32377Y-42625D01*
X32250Y-42600D01*
X32134Y-42600D01*
X32135Y-42374D01*
X32038Y-42140D01*
X31898Y-41999D01*
X31998Y-41899D01*
X32000Y-41900D01*
X32153Y-41869D01*
X32282Y-41782D01*
X32369Y-41653D01*
X32400Y-41500D01*
X32400Y-41250D01*
X32369Y-41096D01*
X32282Y-40967D01*
X32153Y-40880D01*
X32039Y-40857D01*
X32134Y-40626D01*
X32135Y-40374D01*
X32038Y-40140D01*
X31898Y-39999D01*
X32038Y-39860D01*
X32134Y-39626D01*
X32135Y-39374D01*
X32038Y-39140D01*
X31898Y-38999D01*
X32038Y-38860D01*
X32134Y-38626D01*
X32135Y-38374D01*
X32038Y-38140D01*
X31898Y-37999D01*
X32038Y-37860D01*
X32134Y-37626D01*
X32135Y-37374D01*
X32038Y-37140D01*
X31860Y-36961D01*
X31626Y-36865D01*
X31374Y-36864D01*
X31140Y-36961D01*
X30961Y-37139D01*
X30865Y-37373D01*
X30864Y-37625D01*
X30961Y-37859D01*
X31101Y-38000D01*
X30961Y-38139D01*
X30865Y-38373D01*
X30864Y-38625D01*
X30961Y-38859D01*
X31101Y-39000D01*
X30961Y-39139D01*
X30903Y-39280D01*
X29650Y-40534D01*
X29650Y-39284D01*
X29855Y-39285D01*
X30000Y-39225D01*
X30143Y-39284D01*
X30355Y-39285D01*
X30552Y-39203D01*
X30703Y-39053D01*
X30784Y-38856D01*
X30785Y-38644D01*
X30703Y-38447D01*
X30650Y-38393D01*
X30650Y-38000D01*
X30619Y-37846D01*
X30619Y-37846D01*
X30590Y-37803D01*
X30532Y-37717D01*
X30532Y-37717D01*
X30150Y-37334D01*
X30150Y-37000D01*
X30150Y-35096D01*
X30363Y-35184D01*
X30635Y-35185D01*
X30887Y-35081D01*
X31035Y-34933D01*
X31101Y-35000D01*
X30961Y-35139D01*
X30865Y-35373D01*
X30864Y-35625D01*
X30961Y-35859D01*
X31139Y-36038D01*
X31373Y-36134D01*
X31625Y-36135D01*
X31859Y-36038D01*
X32038Y-35860D01*
X32134Y-35626D01*
X32135Y-35374D01*
X32038Y-35140D01*
X31898Y-34999D01*
X32038Y-34860D01*
X32134Y-34626D01*
X32135Y-34374D01*
X32038Y-34140D01*
X31898Y-33999D01*
X32038Y-33860D01*
X32134Y-33626D01*
X32135Y-33374D01*
X32038Y-33140D01*
X31898Y-32999D01*
X32038Y-32860D01*
X32134Y-32626D01*
X32135Y-32374D01*
X32038Y-32140D01*
X31898Y-31999D01*
X32038Y-31860D01*
X32134Y-31626D01*
X32135Y-31374D01*
X32038Y-31140D01*
X31898Y-30999D01*
X32038Y-30860D01*
X32134Y-30626D01*
X32135Y-30374D01*
X32038Y-30140D01*
X31898Y-29999D01*
X32038Y-29860D01*
X32134Y-29626D01*
X32135Y-29374D01*
X32038Y-29140D01*
X31898Y-28999D01*
X32038Y-28860D01*
X32134Y-28626D01*
X32135Y-28374D01*
X32038Y-28140D01*
X31898Y-27999D01*
X32038Y-27860D01*
X32134Y-27626D01*
X32135Y-27374D01*
X32038Y-27140D01*
X31898Y-26999D01*
X32038Y-26860D01*
X32134Y-26626D01*
X32135Y-26374D01*
X32038Y-26140D01*
X31978Y-26080D01*
X31978Y-26080D01*
X32080Y-25979D01*
X32134Y-25846D01*
X32135Y-25703D01*
X32135Y-25153D01*
X32080Y-25021D01*
X31979Y-24919D01*
X31846Y-24865D01*
X31703Y-24864D01*
X31153Y-24864D01*
X31021Y-24919D01*
X30919Y-25020D01*
X30865Y-25153D01*
X30864Y-25296D01*
X30864Y-25569D01*
X30613Y-25821D01*
X30538Y-25640D01*
X30360Y-25461D01*
X30126Y-25365D01*
X29930Y-25364D01*
X29650Y-25084D01*
X29650Y-24915D01*
X29880Y-24684D01*
X30135Y-24685D01*
X30387Y-24581D01*
X30580Y-24388D01*
X30684Y-24136D01*
X30685Y-23864D01*
X30581Y-23612D01*
X30400Y-23431D01*
X30400Y-21568D01*
X30580Y-21388D01*
X30684Y-21136D01*
X30685Y-20864D01*
X30584Y-20620D01*
X31880Y-20620D01*
X31880Y-22120D01*
X33461Y-22120D01*
X33461Y-22488D01*
X33516Y-22620D01*
X33617Y-22722D01*
X33750Y-22777D01*
X33893Y-22777D01*
X34493Y-22777D01*
X34614Y-22727D01*
X34706Y-22765D01*
X34706Y-23356D01*
X34731Y-23483D01*
X34736Y-23509D01*
X34823Y-23639D01*
X35100Y-23915D01*
X35100Y-40500D01*
X35125Y-40627D01*
X35130Y-40653D01*
X35217Y-40782D01*
X36865Y-42430D01*
X36864Y-42625D01*
X36961Y-42859D01*
X37101Y-43000D01*
X36961Y-43139D01*
X36865Y-43373D01*
X36864Y-43625D01*
X36961Y-43859D01*
X37101Y-44000D01*
X36961Y-44139D01*
X36865Y-44373D01*
X36864Y-44625D01*
X36961Y-44859D01*
X37139Y-45038D01*
X37289Y-45100D01*
X37289Y-45100D01*
G37*
G54D26*
X37289Y-45100D02*
X34915Y-45100D01*
X32532Y-42717D01*
X32403Y-42630D01*
X32377Y-42625D01*
X32250Y-42600D01*
X32134Y-42600D01*
X32135Y-42374D01*
X32038Y-42140D01*
X31898Y-41999D01*
X31998Y-41899D01*
X32000Y-41900D01*
X32153Y-41869D01*
X32282Y-41782D01*
X32369Y-41653D01*
X32400Y-41500D01*
X32400Y-41250D01*
X32369Y-41096D01*
X32282Y-40967D01*
X32153Y-40880D01*
X32039Y-40857D01*
X32134Y-40626D01*
X32135Y-40374D01*
X32038Y-40140D01*
X31898Y-39999D01*
X32038Y-39860D01*
X32134Y-39626D01*
X32135Y-39374D01*
X32038Y-39140D01*
X31898Y-38999D01*
X32038Y-38860D01*
X32134Y-38626D01*
X32135Y-38374D01*
X32038Y-38140D01*
X31898Y-37999D01*
X32038Y-37860D01*
X32134Y-37626D01*
X32135Y-37374D01*
X32038Y-37140D01*
X31860Y-36961D01*
X31626Y-36865D01*
X31374Y-36864D01*
X31140Y-36961D01*
X30961Y-37139D01*
X30865Y-37373D01*
X30864Y-37625D01*
X30961Y-37859D01*
X31101Y-38000D01*
X30961Y-38139D01*
X30865Y-38373D01*
X30864Y-38625D01*
X30961Y-38859D01*
X31101Y-39000D01*
X30961Y-39139D01*
X30903Y-39280D01*
X29650Y-40534D01*
X29650Y-39284D01*
X29855Y-39285D01*
X30000Y-39225D01*
X30143Y-39284D01*
X30355Y-39285D01*
X30552Y-39203D01*
X30703Y-39053D01*
X30784Y-38856D01*
X30785Y-38644D01*
X30703Y-38447D01*
X30650Y-38393D01*
X30650Y-38000D01*
X30619Y-37846D01*
X30619Y-37846D01*
X30590Y-37803D01*
X30532Y-37717D01*
X30532Y-37717D01*
X30150Y-37334D01*
X30150Y-37000D01*
X30150Y-35096D01*
X30363Y-35184D01*
X30635Y-35185D01*
X30887Y-35081D01*
X31035Y-34933D01*
X31101Y-35000D01*
X30961Y-35139D01*
X30865Y-35373D01*
X30864Y-35625D01*
X30961Y-35859D01*
X31139Y-36038D01*
X31373Y-36134D01*
X31625Y-36135D01*
X31859Y-36038D01*
X32038Y-35860D01*
X32134Y-35626D01*
X32135Y-35374D01*
X32038Y-35140D01*
X31898Y-34999D01*
X32038Y-34860D01*
X32134Y-34626D01*
X32135Y-34374D01*
X32038Y-34140D01*
X31898Y-33999D01*
X32038Y-33860D01*
X32134Y-33626D01*
X32135Y-33374D01*
X32038Y-33140D01*
X31898Y-32999D01*
X32038Y-32860D01*
X32134Y-32626D01*
X32135Y-32374D01*
X32038Y-32140D01*
X31898Y-31999D01*
X32038Y-31860D01*
X32134Y-31626D01*
X32135Y-31374D01*
X32038Y-31140D01*
X31898Y-30999D01*
X32038Y-30860D01*
X32134Y-30626D01*
X32135Y-30374D01*
X32038Y-30140D01*
X31898Y-29999D01*
X32038Y-29860D01*
X32134Y-29626D01*
X32135Y-29374D01*
X32038Y-29140D01*
X31898Y-28999D01*
X32038Y-28860D01*
X32134Y-28626D01*
X32135Y-28374D01*
X32038Y-28140D01*
X31898Y-27999D01*
X32038Y-27860D01*
X32134Y-27626D01*
X32135Y-27374D01*
X32038Y-27140D01*
X31898Y-26999D01*
X32038Y-26860D01*
X32134Y-26626D01*
X32135Y-26374D01*
X32038Y-26140D01*
X31978Y-26080D01*
X31978Y-26080D01*
X32080Y-25979D01*
X32134Y-25846D01*
X32135Y-25703D01*
X32135Y-25153D01*
X32080Y-25021D01*
X31979Y-24919D01*
X31846Y-24865D01*
X31703Y-24864D01*
X31153Y-24864D01*
X31021Y-24919D01*
X30919Y-25020D01*
X30865Y-25153D01*
X30864Y-25296D01*
X30864Y-25569D01*
X30613Y-25821D01*
X30538Y-25640D01*
X30360Y-25461D01*
X30126Y-25365D01*
X29930Y-25364D01*
X29650Y-25084D01*
X29650Y-24915D01*
X29880Y-24684D01*
X30135Y-24685D01*
X30387Y-24581D01*
X30580Y-24388D01*
X30684Y-24136D01*
X30685Y-23864D01*
X30581Y-23612D01*
X30400Y-23431D01*
X30400Y-21568D01*
X30580Y-21388D01*
X30684Y-21136D01*
X30685Y-20864D01*
X30584Y-20620D01*
X31880Y-20620D01*
X31880Y-22120D01*
X33461Y-22120D01*
X33461Y-22488D01*
X33516Y-22620D01*
X33617Y-22722D01*
X33750Y-22777D01*
X33893Y-22777D01*
X34493Y-22777D01*
X34614Y-22727D01*
X34706Y-22765D01*
X34706Y-23356D01*
X34731Y-23483D01*
X34736Y-23509D01*
X34823Y-23639D01*
X35100Y-23915D01*
X35100Y-40500D01*
X35125Y-40627D01*
X35130Y-40653D01*
X35217Y-40782D01*
X36865Y-42430D01*
X36864Y-42625D01*
X36961Y-42859D01*
X37101Y-43000D01*
X36961Y-43139D01*
X36865Y-43373D01*
X36864Y-43625D01*
X36961Y-43859D01*
X37101Y-44000D01*
X36961Y-44139D01*
X36865Y-44373D01*
X36864Y-44625D01*
X36961Y-44859D01*
X37139Y-45038D01*
X37289Y-45100D01*
G54D10*
G36*
X39268Y-48010D02*
X38639Y-48639D01*
X38528Y-48804D01*
X38490Y-49000D01*
X38490Y-55288D01*
X38184Y-55593D01*
X38185Y-55364D01*
X38081Y-55112D01*
X37968Y-54999D01*
X38080Y-54888D01*
X38184Y-54636D01*
X38185Y-54364D01*
X38081Y-54112D01*
X37888Y-53919D01*
X37636Y-53815D01*
X37364Y-53814D01*
X37112Y-53918D01*
X37041Y-53990D01*
X36500Y-53990D01*
X33994Y-53990D01*
X33902Y-53898D01*
X33641Y-53790D01*
X33359Y-53789D01*
X33104Y-53895D01*
X33054Y-53844D01*
X32921Y-53790D01*
X32778Y-53789D01*
X32120Y-53789D01*
X32120Y-53601D01*
X32711Y-53010D01*
X34005Y-53010D01*
X34097Y-53101D01*
X34358Y-53209D01*
X34640Y-53210D01*
X34895Y-53104D01*
X34945Y-53155D01*
X35078Y-53209D01*
X35221Y-53210D01*
X35921Y-53210D01*
X36053Y-53155D01*
X36155Y-53054D01*
X36188Y-52972D01*
X36195Y-52971D01*
X36195Y-52971D01*
X36360Y-52860D01*
X37132Y-52089D01*
X37363Y-52184D01*
X37635Y-52185D01*
X37887Y-52081D01*
X38080Y-51888D01*
X38184Y-51636D01*
X38185Y-51364D01*
X38081Y-51112D01*
X37968Y-50999D01*
X38080Y-50888D01*
X38184Y-50636D01*
X38185Y-50364D01*
X38081Y-50112D01*
X38063Y-50095D01*
X38130Y-50029D01*
X38184Y-49896D01*
X38185Y-49753D01*
X38185Y-49103D01*
X38130Y-48971D01*
X38029Y-48869D01*
X37896Y-48815D01*
X37753Y-48814D01*
X37103Y-48814D01*
X36971Y-48869D01*
X36869Y-48970D01*
X36815Y-49103D01*
X36814Y-49246D01*
X36814Y-49896D01*
X36869Y-50028D01*
X36935Y-50095D01*
X36919Y-50111D01*
X36815Y-50363D01*
X36814Y-50635D01*
X36918Y-50887D01*
X37021Y-50990D01*
X37000Y-50990D01*
X36804Y-51028D01*
X36639Y-51139D01*
X35969Y-51809D01*
X35921Y-51790D01*
X35778Y-51789D01*
X35078Y-51789D01*
X34946Y-51844D01*
X34895Y-51895D01*
X34641Y-51790D01*
X34359Y-51789D01*
X34098Y-51897D01*
X34005Y-51990D01*
X33100Y-51990D01*
X33195Y-51971D01*
X33195Y-51971D01*
X33360Y-51860D01*
X33860Y-51360D01*
X33971Y-51195D01*
X33971Y-51195D01*
X33972Y-51188D01*
X33972Y-51188D01*
X34053Y-51155D01*
X34155Y-51054D01*
X34209Y-50921D01*
X34210Y-50778D01*
X34210Y-50078D01*
X34155Y-49946D01*
X34054Y-49844D01*
X34010Y-49826D01*
X34010Y-49711D01*
X34511Y-49210D01*
X34921Y-49210D01*
X35053Y-49155D01*
X35155Y-49054D01*
X35209Y-48921D01*
X35210Y-48778D01*
X35210Y-48511D01*
X35711Y-48010D01*
X39268Y-48010D01*
X39268Y-48010D01*
G37*
G54D26*
X39268Y-48010D02*
X38639Y-48639D01*
X38528Y-48804D01*
X38490Y-49000D01*
X38490Y-55288D01*
X38184Y-55593D01*
X38185Y-55364D01*
X38081Y-55112D01*
X37968Y-54999D01*
X38080Y-54888D01*
X38184Y-54636D01*
X38185Y-54364D01*
X38081Y-54112D01*
X37888Y-53919D01*
X37636Y-53815D01*
X37364Y-53814D01*
X37112Y-53918D01*
X37041Y-53990D01*
X36500Y-53990D01*
X33994Y-53990D01*
X33902Y-53898D01*
X33641Y-53790D01*
X33359Y-53789D01*
X33104Y-53895D01*
X33054Y-53844D01*
X32921Y-53790D01*
X32778Y-53789D01*
X32120Y-53789D01*
X32120Y-53601D01*
X32711Y-53010D01*
X34005Y-53010D01*
X34097Y-53101D01*
X34358Y-53209D01*
X34640Y-53210D01*
X34895Y-53104D01*
X34945Y-53155D01*
X35078Y-53209D01*
X35221Y-53210D01*
X35921Y-53210D01*
X36053Y-53155D01*
X36155Y-53054D01*
X36188Y-52972D01*
X36195Y-52971D01*
X36195Y-52971D01*
X36360Y-52860D01*
X37132Y-52089D01*
X37363Y-52184D01*
X37635Y-52185D01*
X37887Y-52081D01*
X38080Y-51888D01*
X38184Y-51636D01*
X38185Y-51364D01*
X38081Y-51112D01*
X37968Y-50999D01*
X38080Y-50888D01*
X38184Y-50636D01*
X38185Y-50364D01*
X38081Y-50112D01*
X38063Y-50095D01*
X38130Y-50029D01*
X38184Y-49896D01*
X38185Y-49753D01*
X38185Y-49103D01*
X38130Y-48971D01*
X38029Y-48869D01*
X37896Y-48815D01*
X37753Y-48814D01*
X37103Y-48814D01*
X36971Y-48869D01*
X36869Y-48970D01*
X36815Y-49103D01*
X36814Y-49246D01*
X36814Y-49896D01*
X36869Y-50028D01*
X36935Y-50095D01*
X36919Y-50111D01*
X36815Y-50363D01*
X36814Y-50635D01*
X36918Y-50887D01*
X37021Y-50990D01*
X37000Y-50990D01*
X36804Y-51028D01*
X36639Y-51139D01*
X35969Y-51809D01*
X35921Y-51790D01*
X35778Y-51789D01*
X35078Y-51789D01*
X34946Y-51844D01*
X34895Y-51895D01*
X34641Y-51790D01*
X34359Y-51789D01*
X34098Y-51897D01*
X34005Y-51990D01*
X33100Y-51990D01*
X33195Y-51971D01*
X33195Y-51971D01*
X33360Y-51860D01*
X33860Y-51360D01*
X33971Y-51195D01*
X33971Y-51195D01*
X33972Y-51188D01*
X33972Y-51188D01*
X34053Y-51155D01*
X34155Y-51054D01*
X34209Y-50921D01*
X34210Y-50778D01*
X34210Y-50078D01*
X34155Y-49946D01*
X34054Y-49844D01*
X34010Y-49826D01*
X34010Y-49711D01*
X34511Y-49210D01*
X34921Y-49210D01*
X35053Y-49155D01*
X35155Y-49054D01*
X35209Y-48921D01*
X35210Y-48778D01*
X35210Y-48511D01*
X35711Y-48010D01*
X39268Y-48010D01*
G54D10*
G36*
X44850Y-41784D02*
X44782Y-41717D01*
X44653Y-41630D01*
X44627Y-41625D01*
X44500Y-41600D01*
X40500Y-41600D01*
X40346Y-41630D01*
X40303Y-41659D01*
X40217Y-41717D01*
X40119Y-41815D01*
X39864Y-41814D01*
X39612Y-41918D01*
X39419Y-42111D01*
X39315Y-42363D01*
X39314Y-42635D01*
X39418Y-42887D01*
X39600Y-43068D01*
X39600Y-43084D01*
X38134Y-44549D01*
X38135Y-44430D01*
X39032Y-43532D01*
X39032Y-43532D01*
X39119Y-43403D01*
X39119Y-43403D01*
X39124Y-43377D01*
X39149Y-43250D01*
X39150Y-43250D01*
X39150Y-41415D01*
X39548Y-41017D01*
X39611Y-41080D01*
X39863Y-41184D01*
X40135Y-41185D01*
X40387Y-41081D01*
X40500Y-40968D01*
X40611Y-41080D01*
X40863Y-41184D01*
X41135Y-41185D01*
X41387Y-41081D01*
X41535Y-40933D01*
X41639Y-41038D01*
X41873Y-41134D01*
X42125Y-41135D01*
X42359Y-41038D01*
X42500Y-40898D01*
X42639Y-41038D01*
X42873Y-41134D01*
X43125Y-41135D01*
X43359Y-41038D01*
X43538Y-40860D01*
X43634Y-40626D01*
X43635Y-40450D01*
X44850Y-41665D01*
X44850Y-41784D01*
X44850Y-41784D01*
G37*
G54D26*
X44850Y-41784D02*
X44782Y-41717D01*
X44653Y-41630D01*
X44627Y-41625D01*
X44500Y-41600D01*
X40500Y-41600D01*
X40346Y-41630D01*
X40303Y-41659D01*
X40217Y-41717D01*
X40119Y-41815D01*
X39864Y-41814D01*
X39612Y-41918D01*
X39419Y-42111D01*
X39315Y-42363D01*
X39314Y-42635D01*
X39418Y-42887D01*
X39600Y-43068D01*
X39600Y-43084D01*
X38134Y-44549D01*
X38135Y-44430D01*
X39032Y-43532D01*
X39032Y-43532D01*
X39119Y-43403D01*
X39119Y-43403D01*
X39124Y-43377D01*
X39149Y-43250D01*
X39150Y-43250D01*
X39150Y-41415D01*
X39548Y-41017D01*
X39611Y-41080D01*
X39863Y-41184D01*
X40135Y-41185D01*
X40387Y-41081D01*
X40500Y-40968D01*
X40611Y-41080D01*
X40863Y-41184D01*
X41135Y-41185D01*
X41387Y-41081D01*
X41535Y-40933D01*
X41639Y-41038D01*
X41873Y-41134D01*
X42125Y-41135D01*
X42359Y-41038D01*
X42500Y-40898D01*
X42639Y-41038D01*
X42873Y-41134D01*
X43125Y-41135D01*
X43359Y-41038D01*
X43538Y-40860D01*
X43634Y-40626D01*
X43635Y-40450D01*
X44850Y-41665D01*
X44850Y-41784D01*
G54D10*
G36*
X44858Y-38792D02*
X44032Y-37967D01*
X43903Y-37880D01*
X43877Y-37875D01*
X43750Y-37850D01*
X41915Y-37850D01*
X41532Y-37467D01*
X41432Y-37400D01*
X43834Y-37400D01*
X44850Y-38415D01*
X44850Y-38750D01*
X44858Y-38792D01*
X44858Y-38792D01*
G37*
G54D26*
X44858Y-38792D02*
X44032Y-37967D01*
X43903Y-37880D01*
X43877Y-37875D01*
X43750Y-37850D01*
X41915Y-37850D01*
X41532Y-37467D01*
X41432Y-37400D01*
X43834Y-37400D01*
X44850Y-38415D01*
X44850Y-38750D01*
X44858Y-38792D01*
G54D10*
G36*
X61880Y-26916D02*
X61636Y-26815D01*
X61364Y-26814D01*
X61112Y-26918D01*
X60999Y-27031D01*
X60888Y-26919D01*
X60636Y-26815D01*
X60364Y-26814D01*
X60112Y-26918D01*
X59999Y-27031D01*
X59888Y-26919D01*
X59636Y-26815D01*
X59364Y-26814D01*
X59210Y-26878D01*
X59210Y-23359D01*
X59210Y-21359D01*
X59102Y-21098D01*
X58902Y-20898D01*
X58641Y-20790D01*
X58359Y-20789D01*
X58098Y-20897D01*
X57898Y-21097D01*
X57790Y-21358D01*
X57789Y-21640D01*
X57897Y-21901D01*
X58097Y-22101D01*
X58358Y-22209D01*
X58640Y-22210D01*
X58901Y-22102D01*
X59101Y-21902D01*
X59209Y-21641D01*
X59210Y-21359D01*
X59210Y-23359D01*
X59102Y-23098D01*
X58902Y-22898D01*
X58641Y-22790D01*
X58359Y-22789D01*
X58098Y-22897D01*
X57898Y-23097D01*
X57790Y-23358D01*
X57789Y-23640D01*
X57897Y-23901D01*
X58097Y-24101D01*
X58358Y-24209D01*
X58640Y-24210D01*
X58901Y-24102D01*
X59101Y-23902D01*
X59209Y-23641D01*
X59210Y-23359D01*
X59210Y-26878D01*
X59135Y-26909D01*
X59135Y-25874D01*
X59038Y-25640D01*
X58860Y-25461D01*
X58626Y-25365D01*
X58374Y-25364D01*
X58140Y-25461D01*
X57961Y-25639D01*
X57865Y-25873D01*
X57864Y-26125D01*
X57961Y-26359D01*
X58139Y-26538D01*
X58373Y-26634D01*
X58625Y-26635D01*
X58859Y-26538D01*
X59038Y-26360D01*
X59134Y-26126D01*
X59135Y-25874D01*
X59135Y-26909D01*
X59112Y-26918D01*
X58999Y-27031D01*
X58888Y-26919D01*
X58636Y-26815D01*
X58364Y-26814D01*
X58112Y-26918D01*
X57999Y-27031D01*
X57888Y-26919D01*
X57636Y-26815D01*
X57364Y-26814D01*
X57185Y-26888D01*
X57185Y-25864D01*
X57185Y-21364D01*
X57081Y-21112D01*
X56888Y-20919D01*
X56636Y-20815D01*
X56364Y-20814D01*
X56112Y-20918D01*
X55919Y-21111D01*
X55815Y-21363D01*
X55814Y-21635D01*
X55918Y-21887D01*
X56111Y-22080D01*
X56363Y-22184D01*
X56635Y-22185D01*
X56887Y-22081D01*
X57080Y-21888D01*
X57184Y-21636D01*
X57185Y-21364D01*
X57185Y-25864D01*
X57081Y-25612D01*
X56888Y-25419D01*
X56636Y-25315D01*
X56364Y-25314D01*
X56112Y-25418D01*
X55999Y-25531D01*
X55888Y-25419D01*
X55636Y-25315D01*
X55364Y-25314D01*
X55185Y-25388D01*
X55185Y-24753D01*
X55185Y-24103D01*
X55130Y-23971D01*
X55029Y-23869D01*
X54896Y-23815D01*
X54753Y-23814D01*
X54103Y-23814D01*
X53971Y-23869D01*
X53869Y-23970D01*
X53815Y-24103D01*
X53814Y-24246D01*
X53814Y-24896D01*
X53869Y-25028D01*
X53970Y-25130D01*
X54103Y-25184D01*
X54246Y-25185D01*
X54896Y-25185D01*
X55028Y-25130D01*
X55130Y-25029D01*
X55184Y-24896D01*
X55185Y-24753D01*
X55185Y-25388D01*
X55112Y-25418D01*
X54919Y-25611D01*
X54815Y-25863D01*
X54814Y-26135D01*
X54918Y-26387D01*
X55111Y-26580D01*
X55363Y-26684D01*
X55635Y-26685D01*
X55887Y-26581D01*
X56000Y-26468D01*
X56111Y-26580D01*
X56363Y-26684D01*
X56635Y-26685D01*
X56887Y-26581D01*
X57080Y-26388D01*
X57184Y-26136D01*
X57185Y-25864D01*
X57185Y-26888D01*
X57112Y-26918D01*
X56999Y-27031D01*
X56888Y-26919D01*
X56636Y-26815D01*
X56364Y-26814D01*
X56112Y-26918D01*
X55999Y-27031D01*
X55888Y-26919D01*
X55636Y-26815D01*
X55364Y-26814D01*
X55112Y-26918D01*
X54999Y-27031D01*
X54888Y-26919D01*
X54636Y-26815D01*
X54364Y-26814D01*
X54112Y-26918D01*
X53999Y-27031D01*
X53888Y-26919D01*
X53636Y-26815D01*
X53364Y-26814D01*
X53112Y-26918D01*
X52999Y-27031D01*
X52888Y-26919D01*
X52685Y-26835D01*
X52685Y-24753D01*
X52685Y-24103D01*
X52630Y-23971D01*
X52529Y-23869D01*
X52396Y-23815D01*
X52253Y-23814D01*
X51603Y-23814D01*
X51471Y-23869D01*
X51369Y-23970D01*
X51315Y-24103D01*
X51314Y-24246D01*
X51314Y-24896D01*
X51369Y-25028D01*
X51470Y-25130D01*
X51603Y-25184D01*
X51746Y-25185D01*
X52396Y-25185D01*
X52528Y-25130D01*
X52630Y-25029D01*
X52684Y-24896D01*
X52685Y-24753D01*
X52685Y-26835D01*
X52636Y-26815D01*
X52364Y-26814D01*
X52112Y-26918D01*
X51999Y-27031D01*
X51888Y-26919D01*
X51636Y-26815D01*
X51364Y-26814D01*
X51112Y-26918D01*
X50999Y-27031D01*
X50888Y-26919D01*
X50636Y-26815D01*
X50364Y-26814D01*
X50112Y-26918D01*
X50010Y-27021D01*
X50010Y-26500D01*
X50010Y-24211D01*
X52036Y-22185D01*
X52396Y-22185D01*
X52528Y-22130D01*
X52630Y-22029D01*
X52684Y-21896D01*
X52685Y-21753D01*
X52685Y-21103D01*
X52630Y-20971D01*
X52529Y-20869D01*
X52396Y-20815D01*
X52253Y-20814D01*
X51603Y-20814D01*
X51471Y-20869D01*
X51369Y-20970D01*
X51315Y-21103D01*
X51314Y-21246D01*
X51314Y-21463D01*
X50710Y-22068D01*
X50710Y-21778D01*
X50710Y-21078D01*
X50655Y-20946D01*
X50554Y-20844D01*
X50421Y-20790D01*
X50278Y-20789D01*
X49578Y-20789D01*
X49446Y-20844D01*
X49344Y-20945D01*
X49290Y-21078D01*
X49289Y-21221D01*
X49289Y-21921D01*
X49344Y-22053D01*
X49445Y-22155D01*
X49578Y-22209D01*
X49721Y-22210D01*
X50421Y-22210D01*
X50553Y-22155D01*
X50655Y-22054D01*
X50709Y-21921D01*
X50710Y-21778D01*
X50710Y-22068D01*
X49139Y-23639D01*
X49028Y-23804D01*
X48990Y-24000D01*
X48990Y-26500D01*
X48990Y-27041D01*
X48919Y-27111D01*
X48815Y-27363D01*
X48814Y-27635D01*
X48918Y-27887D01*
X48990Y-27958D01*
X48990Y-28041D01*
X48919Y-28111D01*
X48815Y-28363D01*
X48814Y-28635D01*
X48918Y-28887D01*
X48990Y-28958D01*
X48990Y-29041D01*
X48919Y-29111D01*
X48815Y-29363D01*
X48814Y-29635D01*
X48918Y-29887D01*
X48990Y-29958D01*
X48990Y-30041D01*
X48919Y-30111D01*
X48815Y-30363D01*
X48814Y-30635D01*
X48918Y-30887D01*
X48936Y-30904D01*
X48869Y-30970D01*
X48815Y-31103D01*
X48814Y-31246D01*
X48814Y-31896D01*
X48869Y-32028D01*
X48970Y-32130D01*
X48990Y-32137D01*
X48990Y-44000D01*
X48990Y-44538D01*
X48684Y-44843D01*
X48685Y-44753D01*
X48685Y-44103D01*
X48630Y-43971D01*
X48564Y-43904D01*
X48580Y-43888D01*
X48684Y-43636D01*
X48685Y-43364D01*
X48581Y-43112D01*
X48468Y-42999D01*
X48580Y-42888D01*
X48684Y-42636D01*
X48685Y-42364D01*
X48581Y-42112D01*
X48468Y-41999D01*
X48580Y-41888D01*
X48684Y-41636D01*
X48685Y-41364D01*
X48581Y-41112D01*
X48468Y-40999D01*
X48580Y-40888D01*
X48684Y-40636D01*
X48685Y-40364D01*
X48581Y-40112D01*
X48468Y-39999D01*
X48580Y-39888D01*
X48684Y-39636D01*
X48685Y-39364D01*
X48581Y-39112D01*
X48468Y-38999D01*
X48580Y-38888D01*
X48684Y-38636D01*
X48685Y-38364D01*
X48581Y-38112D01*
X48468Y-37999D01*
X48580Y-37888D01*
X48684Y-37636D01*
X48685Y-37364D01*
X48685Y-34364D01*
X48581Y-34112D01*
X48468Y-33999D01*
X48580Y-33888D01*
X48684Y-33636D01*
X48685Y-33364D01*
X48581Y-33112D01*
X48468Y-32999D01*
X48580Y-32888D01*
X48684Y-32636D01*
X48685Y-32364D01*
X48581Y-32112D01*
X48468Y-31999D01*
X48580Y-31888D01*
X48684Y-31636D01*
X48685Y-31364D01*
X48581Y-31112D01*
X48468Y-30999D01*
X48580Y-30888D01*
X48684Y-30636D01*
X48685Y-30364D01*
X48581Y-30112D01*
X48468Y-29999D01*
X48580Y-29888D01*
X48684Y-29636D01*
X48685Y-29364D01*
X48581Y-29112D01*
X48468Y-28999D01*
X48580Y-28888D01*
X48684Y-28636D01*
X48685Y-28364D01*
X48581Y-28112D01*
X48468Y-27999D01*
X48580Y-27888D01*
X48684Y-27636D01*
X48685Y-27364D01*
X48581Y-27112D01*
X48468Y-26999D01*
X48580Y-26888D01*
X48684Y-26636D01*
X48685Y-26364D01*
X48581Y-26112D01*
X48563Y-26095D01*
X48630Y-26029D01*
X48684Y-25896D01*
X48685Y-25753D01*
X48685Y-25103D01*
X48685Y-24253D01*
X48685Y-23603D01*
X48630Y-23471D01*
X48529Y-23369D01*
X48396Y-23315D01*
X48253Y-23314D01*
X47603Y-23314D01*
X47471Y-23369D01*
X47369Y-23470D01*
X47315Y-23603D01*
X47314Y-23746D01*
X47314Y-24396D01*
X47369Y-24528D01*
X47470Y-24630D01*
X47603Y-24684D01*
X47746Y-24685D01*
X48396Y-24685D01*
X48528Y-24630D01*
X48630Y-24529D01*
X48684Y-24396D01*
X48685Y-24253D01*
X48685Y-25103D01*
X48630Y-24971D01*
X48529Y-24869D01*
X48396Y-24815D01*
X48253Y-24814D01*
X47603Y-24814D01*
X47471Y-24869D01*
X47369Y-24970D01*
X47315Y-25103D01*
X47314Y-25246D01*
X47314Y-25896D01*
X47369Y-26028D01*
X47435Y-26095D01*
X47419Y-26111D01*
X47394Y-26172D01*
X46710Y-25488D01*
X46710Y-21359D01*
X46602Y-21098D01*
X46402Y-20898D01*
X46141Y-20790D01*
X45859Y-20789D01*
X45598Y-20897D01*
X45398Y-21097D01*
X45290Y-21358D01*
X45289Y-21640D01*
X45397Y-21901D01*
X45597Y-22101D01*
X45858Y-22209D01*
X46140Y-22210D01*
X46401Y-22102D01*
X46601Y-21902D01*
X46709Y-21641D01*
X46710Y-21359D01*
X46710Y-25488D01*
X45906Y-24685D01*
X46396Y-24685D01*
X46528Y-24630D01*
X46630Y-24529D01*
X46684Y-24396D01*
X46685Y-24253D01*
X46685Y-23603D01*
X46630Y-23471D01*
X46529Y-23369D01*
X46396Y-23315D01*
X46253Y-23314D01*
X45603Y-23314D01*
X45471Y-23369D01*
X45369Y-23470D01*
X45349Y-23519D01*
X45304Y-23528D01*
X45249Y-23565D01*
X45139Y-23639D01*
X44889Y-23889D01*
X44889Y-23889D01*
X44788Y-23990D01*
X43750Y-23990D01*
X43554Y-24028D01*
X43499Y-24065D01*
X43389Y-24139D01*
X43299Y-24229D01*
X43299Y-22930D01*
X43244Y-22798D01*
X43143Y-22696D01*
X43010Y-22642D01*
X42867Y-22641D01*
X41489Y-22641D01*
X41357Y-22696D01*
X41255Y-22797D01*
X41201Y-22930D01*
X41200Y-23073D01*
X41200Y-24240D01*
X39711Y-24240D01*
X38978Y-23507D01*
X38953Y-23447D01*
X38803Y-23296D01*
X38606Y-23215D01*
X38394Y-23214D01*
X38197Y-23296D01*
X38046Y-23446D01*
X37965Y-23643D01*
X37964Y-23855D01*
X38046Y-24052D01*
X38196Y-24203D01*
X38257Y-24228D01*
X39139Y-25110D01*
X39304Y-25221D01*
X39304Y-25221D01*
X39500Y-25260D01*
X43500Y-25260D01*
X43695Y-25221D01*
X43695Y-25221D01*
X43860Y-25110D01*
X43961Y-25010D01*
X44788Y-25010D01*
X47314Y-27536D01*
X47314Y-27635D01*
X47418Y-27887D01*
X47531Y-28000D01*
X47499Y-28031D01*
X47388Y-27919D01*
X47136Y-27815D01*
X46864Y-27814D01*
X46612Y-27918D01*
X46499Y-28031D01*
X46388Y-27919D01*
X46136Y-27815D01*
X45864Y-27814D01*
X45612Y-27918D01*
X45431Y-28100D01*
X40665Y-28100D01*
X38134Y-25569D01*
X38135Y-25374D01*
X38038Y-25140D01*
X37860Y-24961D01*
X37626Y-24865D01*
X37374Y-24864D01*
X37140Y-24961D01*
X36961Y-25139D01*
X36865Y-25373D01*
X36864Y-25625D01*
X36961Y-25859D01*
X37101Y-26000D01*
X36961Y-26139D01*
X36865Y-26373D01*
X36864Y-26625D01*
X36961Y-26859D01*
X37101Y-27000D01*
X36961Y-27139D01*
X36865Y-27373D01*
X36864Y-27625D01*
X36961Y-27859D01*
X37101Y-28000D01*
X36961Y-28139D01*
X36865Y-28373D01*
X36864Y-28625D01*
X36961Y-28859D01*
X37101Y-29000D01*
X36961Y-29139D01*
X36865Y-29373D01*
X36864Y-29625D01*
X36961Y-29859D01*
X37101Y-30000D01*
X36961Y-30139D01*
X36865Y-30373D01*
X36864Y-30625D01*
X36961Y-30859D01*
X37101Y-31000D01*
X36961Y-31139D01*
X36865Y-31373D01*
X36864Y-31625D01*
X36961Y-31859D01*
X37101Y-32000D01*
X36961Y-32139D01*
X36865Y-32373D01*
X36864Y-32625D01*
X36961Y-32859D01*
X37101Y-33000D01*
X36961Y-33139D01*
X36865Y-33373D01*
X36864Y-33625D01*
X36961Y-33859D01*
X37139Y-34038D01*
X37373Y-34134D01*
X37625Y-34135D01*
X37859Y-34038D01*
X38038Y-33860D01*
X38134Y-33626D01*
X38135Y-33374D01*
X38038Y-33140D01*
X37898Y-32999D01*
X38038Y-32860D01*
X38134Y-32626D01*
X38135Y-32430D01*
X39915Y-30650D01*
X42834Y-30650D01*
X44100Y-31915D01*
X44100Y-34000D01*
X44125Y-34127D01*
X44130Y-34153D01*
X44217Y-34282D01*
X44717Y-34782D01*
X44717Y-34782D01*
X44717Y-34782D01*
X45314Y-35380D01*
X45314Y-35896D01*
X45369Y-36028D01*
X45470Y-36130D01*
X45603Y-36184D01*
X45746Y-36185D01*
X46396Y-36185D01*
X46500Y-36142D01*
X46603Y-36184D01*
X46746Y-36185D01*
X47396Y-36185D01*
X47500Y-36142D01*
X47603Y-36184D01*
X47746Y-36185D01*
X48396Y-36185D01*
X48528Y-36130D01*
X48630Y-36029D01*
X48684Y-35896D01*
X48685Y-35753D01*
X48685Y-35103D01*
X48630Y-34971D01*
X48564Y-34904D01*
X48580Y-34888D01*
X48684Y-34636D01*
X48685Y-34364D01*
X48685Y-37364D01*
X48581Y-37112D01*
X48388Y-36919D01*
X48136Y-36815D01*
X47864Y-36814D01*
X47612Y-36918D01*
X47499Y-37031D01*
X47388Y-36919D01*
X47136Y-36815D01*
X46864Y-36814D01*
X46612Y-36918D01*
X46499Y-37031D01*
X46388Y-36919D01*
X46136Y-36815D01*
X45880Y-36814D01*
X45282Y-36217D01*
X45153Y-36130D01*
X45127Y-36125D01*
X45000Y-36100D01*
X42341Y-36100D01*
X42387Y-36081D01*
X42580Y-35888D01*
X42684Y-35636D01*
X42685Y-35364D01*
X42685Y-33364D01*
X42581Y-33112D01*
X42388Y-32919D01*
X42136Y-32815D01*
X41864Y-32814D01*
X41612Y-32918D01*
X41419Y-33111D01*
X41315Y-33363D01*
X41314Y-33635D01*
X41418Y-33887D01*
X41611Y-34080D01*
X41863Y-34184D01*
X42135Y-34185D01*
X42387Y-34081D01*
X42580Y-33888D01*
X42684Y-33636D01*
X42685Y-33364D01*
X42685Y-35364D01*
X42581Y-35112D01*
X42388Y-34919D01*
X42136Y-34815D01*
X41864Y-34814D01*
X41612Y-34918D01*
X41419Y-35111D01*
X41315Y-35363D01*
X41314Y-35635D01*
X41418Y-35887D01*
X41611Y-36080D01*
X41658Y-36100D01*
X40685Y-36100D01*
X40685Y-31864D01*
X40581Y-31612D01*
X40388Y-31419D01*
X40136Y-31315D01*
X39864Y-31314D01*
X39612Y-31418D01*
X39419Y-31611D01*
X39315Y-31863D01*
X39314Y-32135D01*
X39418Y-32387D01*
X39611Y-32580D01*
X39863Y-32684D01*
X40135Y-32685D01*
X40387Y-32581D01*
X40580Y-32388D01*
X40684Y-32136D01*
X40685Y-31864D01*
X40685Y-36100D01*
X40415Y-36100D01*
X40359Y-36043D01*
X40362Y-36042D01*
X40542Y-35863D01*
X40639Y-35627D01*
X40640Y-35373D01*
X40640Y-33373D01*
X40542Y-33137D01*
X40363Y-32957D01*
X40127Y-32860D01*
X39873Y-32859D01*
X39637Y-32957D01*
X39457Y-33136D01*
X39360Y-33372D01*
X39359Y-33626D01*
X39457Y-33862D01*
X39636Y-34042D01*
X39872Y-34139D01*
X40126Y-34140D01*
X40362Y-34042D01*
X40542Y-33863D01*
X40639Y-33627D01*
X40640Y-33373D01*
X40640Y-35373D01*
X40542Y-35137D01*
X40363Y-34957D01*
X40127Y-34860D01*
X39873Y-34859D01*
X39637Y-34957D01*
X39457Y-35136D01*
X39448Y-35160D01*
X39403Y-35130D01*
X39377Y-35125D01*
X39250Y-35100D01*
X37997Y-35100D01*
X37860Y-34961D01*
X37626Y-34865D01*
X37374Y-34864D01*
X37140Y-34961D01*
X36961Y-35139D01*
X36865Y-35373D01*
X36864Y-35625D01*
X36961Y-35859D01*
X37101Y-36000D01*
X36961Y-36139D01*
X36865Y-36373D01*
X36864Y-36625D01*
X36961Y-36859D01*
X37101Y-37000D01*
X36961Y-37139D01*
X36865Y-37373D01*
X36864Y-37625D01*
X36961Y-37859D01*
X37101Y-38000D01*
X36961Y-38139D01*
X36865Y-38373D01*
X36864Y-38625D01*
X36961Y-38859D01*
X37101Y-39000D01*
X36961Y-39139D01*
X36865Y-39373D01*
X36864Y-39625D01*
X36961Y-39859D01*
X37101Y-40000D01*
X36961Y-40139D01*
X36886Y-40321D01*
X36150Y-39584D01*
X36150Y-22777D01*
X36264Y-22777D01*
X36397Y-22722D01*
X36498Y-22621D01*
X36553Y-22489D01*
X36553Y-22346D01*
X36553Y-22120D01*
X39120Y-22120D01*
X39120Y-20620D01*
X60239Y-20620D01*
X60017Y-20842D01*
X59840Y-21268D01*
X59839Y-21729D01*
X60016Y-22156D01*
X60342Y-22482D01*
X60768Y-22659D01*
X61229Y-22660D01*
X61656Y-22483D01*
X61880Y-22260D01*
X61880Y-26916D01*
X61880Y-26916D01*
G37*
G54D26*
X61880Y-26916D02*
X61636Y-26815D01*
X61364Y-26814D01*
X61112Y-26918D01*
X60999Y-27031D01*
X60888Y-26919D01*
X60636Y-26815D01*
X60364Y-26814D01*
X60112Y-26918D01*
X59999Y-27031D01*
X59888Y-26919D01*
X59636Y-26815D01*
X59364Y-26814D01*
X59210Y-26878D01*
X59210Y-23359D01*
X59210Y-21359D01*
X59102Y-21098D01*
X58902Y-20898D01*
X58641Y-20790D01*
X58359Y-20789D01*
X58098Y-20897D01*
X57898Y-21097D01*
X57790Y-21358D01*
X57789Y-21640D01*
X57897Y-21901D01*
X58097Y-22101D01*
X58358Y-22209D01*
X58640Y-22210D01*
X58901Y-22102D01*
X59101Y-21902D01*
X59209Y-21641D01*
X59210Y-21359D01*
X59210Y-23359D01*
X59102Y-23098D01*
X58902Y-22898D01*
X58641Y-22790D01*
X58359Y-22789D01*
X58098Y-22897D01*
X57898Y-23097D01*
X57790Y-23358D01*
X57789Y-23640D01*
X57897Y-23901D01*
X58097Y-24101D01*
X58358Y-24209D01*
X58640Y-24210D01*
X58901Y-24102D01*
X59101Y-23902D01*
X59209Y-23641D01*
X59210Y-23359D01*
X59210Y-26878D01*
X59135Y-26909D01*
X59135Y-25874D01*
X59038Y-25640D01*
X58860Y-25461D01*
X58626Y-25365D01*
X58374Y-25364D01*
X58140Y-25461D01*
X57961Y-25639D01*
X57865Y-25873D01*
X57864Y-26125D01*
X57961Y-26359D01*
X58139Y-26538D01*
X58373Y-26634D01*
X58625Y-26635D01*
X58859Y-26538D01*
X59038Y-26360D01*
X59134Y-26126D01*
X59135Y-25874D01*
X59135Y-26909D01*
X59112Y-26918D01*
X58999Y-27031D01*
X58888Y-26919D01*
X58636Y-26815D01*
X58364Y-26814D01*
X58112Y-26918D01*
X57999Y-27031D01*
X57888Y-26919D01*
X57636Y-26815D01*
X57364Y-26814D01*
X57185Y-26888D01*
X57185Y-25864D01*
X57185Y-21364D01*
X57081Y-21112D01*
X56888Y-20919D01*
X56636Y-20815D01*
X56364Y-20814D01*
X56112Y-20918D01*
X55919Y-21111D01*
X55815Y-21363D01*
X55814Y-21635D01*
X55918Y-21887D01*
X56111Y-22080D01*
X56363Y-22184D01*
X56635Y-22185D01*
X56887Y-22081D01*
X57080Y-21888D01*
X57184Y-21636D01*
X57185Y-21364D01*
X57185Y-25864D01*
X57081Y-25612D01*
X56888Y-25419D01*
X56636Y-25315D01*
X56364Y-25314D01*
X56112Y-25418D01*
X55999Y-25531D01*
X55888Y-25419D01*
X55636Y-25315D01*
X55364Y-25314D01*
X55185Y-25388D01*
X55185Y-24753D01*
X55185Y-24103D01*
X55130Y-23971D01*
X55029Y-23869D01*
X54896Y-23815D01*
X54753Y-23814D01*
X54103Y-23814D01*
X53971Y-23869D01*
X53869Y-23970D01*
X53815Y-24103D01*
X53814Y-24246D01*
X53814Y-24896D01*
X53869Y-25028D01*
X53970Y-25130D01*
X54103Y-25184D01*
X54246Y-25185D01*
X54896Y-25185D01*
X55028Y-25130D01*
X55130Y-25029D01*
X55184Y-24896D01*
X55185Y-24753D01*
X55185Y-25388D01*
X55112Y-25418D01*
X54919Y-25611D01*
X54815Y-25863D01*
X54814Y-26135D01*
X54918Y-26387D01*
X55111Y-26580D01*
X55363Y-26684D01*
X55635Y-26685D01*
X55887Y-26581D01*
X56000Y-26468D01*
X56111Y-26580D01*
X56363Y-26684D01*
X56635Y-26685D01*
X56887Y-26581D01*
X57080Y-26388D01*
X57184Y-26136D01*
X57185Y-25864D01*
X57185Y-26888D01*
X57112Y-26918D01*
X56999Y-27031D01*
X56888Y-26919D01*
X56636Y-26815D01*
X56364Y-26814D01*
X56112Y-26918D01*
X55999Y-27031D01*
X55888Y-26919D01*
X55636Y-26815D01*
X55364Y-26814D01*
X55112Y-26918D01*
X54999Y-27031D01*
X54888Y-26919D01*
X54636Y-26815D01*
X54364Y-26814D01*
X54112Y-26918D01*
X53999Y-27031D01*
X53888Y-26919D01*
X53636Y-26815D01*
X53364Y-26814D01*
X53112Y-26918D01*
X52999Y-27031D01*
X52888Y-26919D01*
X52685Y-26835D01*
X52685Y-24753D01*
X52685Y-24103D01*
X52630Y-23971D01*
X52529Y-23869D01*
X52396Y-23815D01*
X52253Y-23814D01*
X51603Y-23814D01*
X51471Y-23869D01*
X51369Y-23970D01*
X51315Y-24103D01*
X51314Y-24246D01*
X51314Y-24896D01*
X51369Y-25028D01*
X51470Y-25130D01*
X51603Y-25184D01*
X51746Y-25185D01*
X52396Y-25185D01*
X52528Y-25130D01*
X52630Y-25029D01*
X52684Y-24896D01*
X52685Y-24753D01*
X52685Y-26835D01*
X52636Y-26815D01*
X52364Y-26814D01*
X52112Y-26918D01*
X51999Y-27031D01*
X51888Y-26919D01*
X51636Y-26815D01*
X51364Y-26814D01*
X51112Y-26918D01*
X50999Y-27031D01*
X50888Y-26919D01*
X50636Y-26815D01*
X50364Y-26814D01*
X50112Y-26918D01*
X50010Y-27021D01*
X50010Y-26500D01*
X50010Y-24211D01*
X52036Y-22185D01*
X52396Y-22185D01*
X52528Y-22130D01*
X52630Y-22029D01*
X52684Y-21896D01*
X52685Y-21753D01*
X52685Y-21103D01*
X52630Y-20971D01*
X52529Y-20869D01*
X52396Y-20815D01*
X52253Y-20814D01*
X51603Y-20814D01*
X51471Y-20869D01*
X51369Y-20970D01*
X51315Y-21103D01*
X51314Y-21246D01*
X51314Y-21463D01*
X50710Y-22068D01*
X50710Y-21778D01*
X50710Y-21078D01*
X50655Y-20946D01*
X50554Y-20844D01*
X50421Y-20790D01*
X50278Y-20789D01*
X49578Y-20789D01*
X49446Y-20844D01*
X49344Y-20945D01*
X49290Y-21078D01*
X49289Y-21221D01*
X49289Y-21921D01*
X49344Y-22053D01*
X49445Y-22155D01*
X49578Y-22209D01*
X49721Y-22210D01*
X50421Y-22210D01*
X50553Y-22155D01*
X50655Y-22054D01*
X50709Y-21921D01*
X50710Y-21778D01*
X50710Y-22068D01*
X49139Y-23639D01*
X49028Y-23804D01*
X48990Y-24000D01*
X48990Y-26500D01*
X48990Y-27041D01*
X48919Y-27111D01*
X48815Y-27363D01*
X48814Y-27635D01*
X48918Y-27887D01*
X48990Y-27958D01*
X48990Y-28041D01*
X48919Y-28111D01*
X48815Y-28363D01*
X48814Y-28635D01*
X48918Y-28887D01*
X48990Y-28958D01*
X48990Y-29041D01*
X48919Y-29111D01*
X48815Y-29363D01*
X48814Y-29635D01*
X48918Y-29887D01*
X48990Y-29958D01*
X48990Y-30041D01*
X48919Y-30111D01*
X48815Y-30363D01*
X48814Y-30635D01*
X48918Y-30887D01*
X48936Y-30904D01*
X48869Y-30970D01*
X48815Y-31103D01*
X48814Y-31246D01*
X48814Y-31896D01*
X48869Y-32028D01*
X48970Y-32130D01*
X48990Y-32137D01*
X48990Y-44000D01*
X48990Y-44538D01*
X48684Y-44843D01*
X48685Y-44753D01*
X48685Y-44103D01*
X48630Y-43971D01*
X48564Y-43904D01*
X48580Y-43888D01*
X48684Y-43636D01*
X48685Y-43364D01*
X48581Y-43112D01*
X48468Y-42999D01*
X48580Y-42888D01*
X48684Y-42636D01*
X48685Y-42364D01*
X48581Y-42112D01*
X48468Y-41999D01*
X48580Y-41888D01*
X48684Y-41636D01*
X48685Y-41364D01*
X48581Y-41112D01*
X48468Y-40999D01*
X48580Y-40888D01*
X48684Y-40636D01*
X48685Y-40364D01*
X48581Y-40112D01*
X48468Y-39999D01*
X48580Y-39888D01*
X48684Y-39636D01*
X48685Y-39364D01*
X48581Y-39112D01*
X48468Y-38999D01*
X48580Y-38888D01*
X48684Y-38636D01*
X48685Y-38364D01*
X48581Y-38112D01*
X48468Y-37999D01*
X48580Y-37888D01*
X48684Y-37636D01*
X48685Y-37364D01*
X48685Y-34364D01*
X48581Y-34112D01*
X48468Y-33999D01*
X48580Y-33888D01*
X48684Y-33636D01*
X48685Y-33364D01*
X48581Y-33112D01*
X48468Y-32999D01*
X48580Y-32888D01*
X48684Y-32636D01*
X48685Y-32364D01*
X48581Y-32112D01*
X48468Y-31999D01*
X48580Y-31888D01*
X48684Y-31636D01*
X48685Y-31364D01*
X48581Y-31112D01*
X48468Y-30999D01*
X48580Y-30888D01*
X48684Y-30636D01*
X48685Y-30364D01*
X48581Y-30112D01*
X48468Y-29999D01*
X48580Y-29888D01*
X48684Y-29636D01*
X48685Y-29364D01*
X48581Y-29112D01*
X48468Y-28999D01*
X48580Y-28888D01*
X48684Y-28636D01*
X48685Y-28364D01*
X48581Y-28112D01*
X48468Y-27999D01*
X48580Y-27888D01*
X48684Y-27636D01*
X48685Y-27364D01*
X48581Y-27112D01*
X48468Y-26999D01*
X48580Y-26888D01*
X48684Y-26636D01*
X48685Y-26364D01*
X48581Y-26112D01*
X48563Y-26095D01*
X48630Y-26029D01*
X48684Y-25896D01*
X48685Y-25753D01*
X48685Y-25103D01*
X48685Y-24253D01*
X48685Y-23603D01*
X48630Y-23471D01*
X48529Y-23369D01*
X48396Y-23315D01*
X48253Y-23314D01*
X47603Y-23314D01*
X47471Y-23369D01*
X47369Y-23470D01*
X47315Y-23603D01*
X47314Y-23746D01*
X47314Y-24396D01*
X47369Y-24528D01*
X47470Y-24630D01*
X47603Y-24684D01*
X47746Y-24685D01*
X48396Y-24685D01*
X48528Y-24630D01*
X48630Y-24529D01*
X48684Y-24396D01*
X48685Y-24253D01*
X48685Y-25103D01*
X48630Y-24971D01*
X48529Y-24869D01*
X48396Y-24815D01*
X48253Y-24814D01*
X47603Y-24814D01*
X47471Y-24869D01*
X47369Y-24970D01*
X47315Y-25103D01*
X47314Y-25246D01*
X47314Y-25896D01*
X47369Y-26028D01*
X47435Y-26095D01*
X47419Y-26111D01*
X47394Y-26172D01*
X46710Y-25488D01*
X46710Y-21359D01*
X46602Y-21098D01*
X46402Y-20898D01*
X46141Y-20790D01*
X45859Y-20789D01*
X45598Y-20897D01*
X45398Y-21097D01*
X45290Y-21358D01*
X45289Y-21640D01*
X45397Y-21901D01*
X45597Y-22101D01*
X45858Y-22209D01*
X46140Y-22210D01*
X46401Y-22102D01*
X46601Y-21902D01*
X46709Y-21641D01*
X46710Y-21359D01*
X46710Y-25488D01*
X45906Y-24685D01*
X46396Y-24685D01*
X46528Y-24630D01*
X46630Y-24529D01*
X46684Y-24396D01*
X46685Y-24253D01*
X46685Y-23603D01*
X46630Y-23471D01*
X46529Y-23369D01*
X46396Y-23315D01*
X46253Y-23314D01*
X45603Y-23314D01*
X45471Y-23369D01*
X45369Y-23470D01*
X45349Y-23519D01*
X45304Y-23528D01*
X45249Y-23565D01*
X45139Y-23639D01*
X44889Y-23889D01*
X44889Y-23889D01*
X44788Y-23990D01*
X43750Y-23990D01*
X43554Y-24028D01*
X43499Y-24065D01*
X43389Y-24139D01*
X43299Y-24229D01*
X43299Y-22930D01*
X43244Y-22798D01*
X43143Y-22696D01*
X43010Y-22642D01*
X42867Y-22641D01*
X41489Y-22641D01*
X41357Y-22696D01*
X41255Y-22797D01*
X41201Y-22930D01*
X41200Y-23073D01*
X41200Y-24240D01*
X39711Y-24240D01*
X38978Y-23507D01*
X38953Y-23447D01*
X38803Y-23296D01*
X38606Y-23215D01*
X38394Y-23214D01*
X38197Y-23296D01*
X38046Y-23446D01*
X37965Y-23643D01*
X37964Y-23855D01*
X38046Y-24052D01*
X38196Y-24203D01*
X38257Y-24228D01*
X39139Y-25110D01*
X39304Y-25221D01*
X39304Y-25221D01*
X39500Y-25260D01*
X43500Y-25260D01*
X43695Y-25221D01*
X43695Y-25221D01*
X43860Y-25110D01*
X43961Y-25010D01*
X44788Y-25010D01*
X47314Y-27536D01*
X47314Y-27635D01*
X47418Y-27887D01*
X47531Y-28000D01*
X47499Y-28031D01*
X47388Y-27919D01*
X47136Y-27815D01*
X46864Y-27814D01*
X46612Y-27918D01*
X46499Y-28031D01*
X46388Y-27919D01*
X46136Y-27815D01*
X45864Y-27814D01*
X45612Y-27918D01*
X45431Y-28100D01*
X40665Y-28100D01*
X38134Y-25569D01*
X38135Y-25374D01*
X38038Y-25140D01*
X37860Y-24961D01*
X37626Y-24865D01*
X37374Y-24864D01*
X37140Y-24961D01*
X36961Y-25139D01*
X36865Y-25373D01*
X36864Y-25625D01*
X36961Y-25859D01*
X37101Y-26000D01*
X36961Y-26139D01*
X36865Y-26373D01*
X36864Y-26625D01*
X36961Y-26859D01*
X37101Y-27000D01*
X36961Y-27139D01*
X36865Y-27373D01*
X36864Y-27625D01*
X36961Y-27859D01*
X37101Y-28000D01*
X36961Y-28139D01*
X36865Y-28373D01*
X36864Y-28625D01*
X36961Y-28859D01*
X37101Y-29000D01*
X36961Y-29139D01*
X36865Y-29373D01*
X36864Y-29625D01*
X36961Y-29859D01*
X37101Y-30000D01*
X36961Y-30139D01*
X36865Y-30373D01*
X36864Y-30625D01*
X36961Y-30859D01*
X37101Y-31000D01*
X36961Y-31139D01*
X36865Y-31373D01*
X36864Y-31625D01*
X36961Y-31859D01*
X37101Y-32000D01*
X36961Y-32139D01*
X36865Y-32373D01*
X36864Y-32625D01*
X36961Y-32859D01*
X37101Y-33000D01*
X36961Y-33139D01*
X36865Y-33373D01*
X36864Y-33625D01*
X36961Y-33859D01*
X37139Y-34038D01*
X37373Y-34134D01*
X37625Y-34135D01*
X37859Y-34038D01*
X38038Y-33860D01*
X38134Y-33626D01*
X38135Y-33374D01*
X38038Y-33140D01*
X37898Y-32999D01*
X38038Y-32860D01*
X38134Y-32626D01*
X38135Y-32430D01*
X39915Y-30650D01*
X42834Y-30650D01*
X44100Y-31915D01*
X44100Y-34000D01*
X44125Y-34127D01*
X44130Y-34153D01*
X44217Y-34282D01*
X44717Y-34782D01*
X44717Y-34782D01*
X44717Y-34782D01*
X45314Y-35380D01*
X45314Y-35896D01*
X45369Y-36028D01*
X45470Y-36130D01*
X45603Y-36184D01*
X45746Y-36185D01*
X46396Y-36185D01*
X46500Y-36142D01*
X46603Y-36184D01*
X46746Y-36185D01*
X47396Y-36185D01*
X47500Y-36142D01*
X47603Y-36184D01*
X47746Y-36185D01*
X48396Y-36185D01*
X48528Y-36130D01*
X48630Y-36029D01*
X48684Y-35896D01*
X48685Y-35753D01*
X48685Y-35103D01*
X48630Y-34971D01*
X48564Y-34904D01*
X48580Y-34888D01*
X48684Y-34636D01*
X48685Y-34364D01*
X48685Y-37364D01*
X48581Y-37112D01*
X48388Y-36919D01*
X48136Y-36815D01*
X47864Y-36814D01*
X47612Y-36918D01*
X47499Y-37031D01*
X47388Y-36919D01*
X47136Y-36815D01*
X46864Y-36814D01*
X46612Y-36918D01*
X46499Y-37031D01*
X46388Y-36919D01*
X46136Y-36815D01*
X45880Y-36814D01*
X45282Y-36217D01*
X45153Y-36130D01*
X45127Y-36125D01*
X45000Y-36100D01*
X42341Y-36100D01*
X42387Y-36081D01*
X42580Y-35888D01*
X42684Y-35636D01*
X42685Y-35364D01*
X42685Y-33364D01*
X42581Y-33112D01*
X42388Y-32919D01*
X42136Y-32815D01*
X41864Y-32814D01*
X41612Y-32918D01*
X41419Y-33111D01*
X41315Y-33363D01*
X41314Y-33635D01*
X41418Y-33887D01*
X41611Y-34080D01*
X41863Y-34184D01*
X42135Y-34185D01*
X42387Y-34081D01*
X42580Y-33888D01*
X42684Y-33636D01*
X42685Y-33364D01*
X42685Y-35364D01*
X42581Y-35112D01*
X42388Y-34919D01*
X42136Y-34815D01*
X41864Y-34814D01*
X41612Y-34918D01*
X41419Y-35111D01*
X41315Y-35363D01*
X41314Y-35635D01*
X41418Y-35887D01*
X41611Y-36080D01*
X41658Y-36100D01*
X40685Y-36100D01*
X40685Y-31864D01*
X40581Y-31612D01*
X40388Y-31419D01*
X40136Y-31315D01*
X39864Y-31314D01*
X39612Y-31418D01*
X39419Y-31611D01*
X39315Y-31863D01*
X39314Y-32135D01*
X39418Y-32387D01*
X39611Y-32580D01*
X39863Y-32684D01*
X40135Y-32685D01*
X40387Y-32581D01*
X40580Y-32388D01*
X40684Y-32136D01*
X40685Y-31864D01*
X40685Y-36100D01*
X40415Y-36100D01*
X40359Y-36043D01*
X40362Y-36042D01*
X40542Y-35863D01*
X40639Y-35627D01*
X40640Y-35373D01*
X40640Y-33373D01*
X40542Y-33137D01*
X40363Y-32957D01*
X40127Y-32860D01*
X39873Y-32859D01*
X39637Y-32957D01*
X39457Y-33136D01*
X39360Y-33372D01*
X39359Y-33626D01*
X39457Y-33862D01*
X39636Y-34042D01*
X39872Y-34139D01*
X40126Y-34140D01*
X40362Y-34042D01*
X40542Y-33863D01*
X40639Y-33627D01*
X40640Y-33373D01*
X40640Y-35373D01*
X40542Y-35137D01*
X40363Y-34957D01*
X40127Y-34860D01*
X39873Y-34859D01*
X39637Y-34957D01*
X39457Y-35136D01*
X39448Y-35160D01*
X39403Y-35130D01*
X39377Y-35125D01*
X39250Y-35100D01*
X37997Y-35100D01*
X37860Y-34961D01*
X37626Y-34865D01*
X37374Y-34864D01*
X37140Y-34961D01*
X36961Y-35139D01*
X36865Y-35373D01*
X36864Y-35625D01*
X36961Y-35859D01*
X37101Y-36000D01*
X36961Y-36139D01*
X36865Y-36373D01*
X36864Y-36625D01*
X36961Y-36859D01*
X37101Y-37000D01*
X36961Y-37139D01*
X36865Y-37373D01*
X36864Y-37625D01*
X36961Y-37859D01*
X37101Y-38000D01*
X36961Y-38139D01*
X36865Y-38373D01*
X36864Y-38625D01*
X36961Y-38859D01*
X37101Y-39000D01*
X36961Y-39139D01*
X36865Y-39373D01*
X36864Y-39625D01*
X36961Y-39859D01*
X37101Y-40000D01*
X36961Y-40139D01*
X36886Y-40321D01*
X36150Y-39584D01*
X36150Y-22777D01*
X36264Y-22777D01*
X36397Y-22722D01*
X36498Y-22621D01*
X36553Y-22489D01*
X36553Y-22346D01*
X36553Y-22120D01*
X39120Y-22120D01*
X39120Y-20620D01*
X60239Y-20620D01*
X60017Y-20842D01*
X59840Y-21268D01*
X59839Y-21729D01*
X60016Y-22156D01*
X60342Y-22482D01*
X60768Y-22659D01*
X61229Y-22660D01*
X61656Y-22483D01*
X61880Y-22260D01*
X61880Y-26916D01*
G54D10*
G36*
X61880Y-55739D02*
X61657Y-55517D01*
X61231Y-55340D01*
X60770Y-55339D01*
X60343Y-55516D01*
X60017Y-55842D01*
X59840Y-56268D01*
X59839Y-56729D01*
X60016Y-57156D01*
X60239Y-57380D01*
X59185Y-57380D01*
X59185Y-54864D01*
X59081Y-54612D01*
X58888Y-54419D01*
X58636Y-54315D01*
X58364Y-54314D01*
X58112Y-54418D01*
X57919Y-54611D01*
X57815Y-54863D01*
X57814Y-55135D01*
X57918Y-55387D01*
X58111Y-55580D01*
X58363Y-55684D01*
X58635Y-55685D01*
X58887Y-55581D01*
X59080Y-55388D01*
X59184Y-55136D01*
X59185Y-54864D01*
X59185Y-57380D01*
X56185Y-57380D01*
X56185Y-54864D01*
X56081Y-54612D01*
X55888Y-54419D01*
X55636Y-54315D01*
X55364Y-54314D01*
X55112Y-54418D01*
X54919Y-54611D01*
X54815Y-54863D01*
X54814Y-55135D01*
X54918Y-55387D01*
X55111Y-55580D01*
X55363Y-55684D01*
X55635Y-55685D01*
X55887Y-55581D01*
X56080Y-55388D01*
X56184Y-55136D01*
X56185Y-54864D01*
X56185Y-57380D01*
X54185Y-57380D01*
X54185Y-54864D01*
X54081Y-54612D01*
X53888Y-54419D01*
X53636Y-54315D01*
X53364Y-54314D01*
X53112Y-54418D01*
X52919Y-54611D01*
X52815Y-54863D01*
X52814Y-55135D01*
X52918Y-55387D01*
X53111Y-55580D01*
X53363Y-55684D01*
X53635Y-55685D01*
X53887Y-55581D01*
X54080Y-55388D01*
X54184Y-55136D01*
X54185Y-54864D01*
X54185Y-57380D01*
X51185Y-57380D01*
X51185Y-54864D01*
X51185Y-53364D01*
X51185Y-51364D01*
X51081Y-51112D01*
X50888Y-50919D01*
X50636Y-50815D01*
X50364Y-50814D01*
X50112Y-50918D01*
X49919Y-51111D01*
X49815Y-51363D01*
X49814Y-51635D01*
X49918Y-51887D01*
X50111Y-52080D01*
X50363Y-52184D01*
X50635Y-52185D01*
X50887Y-52081D01*
X51080Y-51888D01*
X51184Y-51636D01*
X51185Y-51364D01*
X51185Y-53364D01*
X51081Y-53112D01*
X50888Y-52919D01*
X50636Y-52815D01*
X50364Y-52814D01*
X50112Y-52918D01*
X49919Y-53111D01*
X49815Y-53363D01*
X49814Y-53635D01*
X49918Y-53887D01*
X50111Y-54080D01*
X50363Y-54184D01*
X50635Y-54185D01*
X50887Y-54081D01*
X51080Y-53888D01*
X51184Y-53636D01*
X51185Y-53364D01*
X51185Y-54864D01*
X51081Y-54612D01*
X50888Y-54419D01*
X50636Y-54315D01*
X50364Y-54314D01*
X50112Y-54418D01*
X49919Y-54611D01*
X49815Y-54863D01*
X49814Y-55135D01*
X49918Y-55387D01*
X50111Y-55580D01*
X50363Y-55684D01*
X50635Y-55685D01*
X50887Y-55581D01*
X51080Y-55388D01*
X51184Y-55136D01*
X51185Y-54864D01*
X51185Y-57380D01*
X45184Y-57380D01*
X45185Y-57253D01*
X45185Y-57036D01*
X46860Y-55360D01*
X46860Y-55360D01*
X46860Y-55360D01*
X46971Y-55195D01*
X46971Y-55195D01*
X47009Y-55000D01*
X47010Y-55000D01*
X47010Y-53500D01*
X46971Y-53304D01*
X46971Y-53304D01*
X46860Y-53139D01*
X45860Y-52139D01*
X45695Y-52028D01*
X45500Y-51990D01*
X43994Y-51990D01*
X43902Y-51898D01*
X43641Y-51790D01*
X43359Y-51789D01*
X43104Y-51895D01*
X43054Y-51844D01*
X42921Y-51790D01*
X42778Y-51789D01*
X42078Y-51789D01*
X42030Y-51809D01*
X41360Y-51139D01*
X41195Y-51028D01*
X41000Y-50990D01*
X40978Y-50990D01*
X41080Y-50888D01*
X41184Y-50636D01*
X41185Y-50364D01*
X41081Y-50112D01*
X40968Y-49999D01*
X41080Y-49888D01*
X41184Y-49636D01*
X41185Y-49364D01*
X41081Y-49112D01*
X40888Y-48919D01*
X40636Y-48815D01*
X40364Y-48814D01*
X40112Y-48918D01*
X39919Y-49111D01*
X39815Y-49363D01*
X39814Y-49635D01*
X39918Y-49887D01*
X40031Y-50000D01*
X39919Y-50111D01*
X39815Y-50363D01*
X39814Y-50635D01*
X39918Y-50887D01*
X40031Y-51000D01*
X39919Y-51111D01*
X39815Y-51363D01*
X39814Y-51635D01*
X39918Y-51887D01*
X40111Y-52080D01*
X40363Y-52184D01*
X40635Y-52185D01*
X40867Y-52089D01*
X41639Y-52860D01*
X41804Y-52971D01*
X41804Y-52971D01*
X41811Y-52972D01*
X41844Y-53053D01*
X41945Y-53155D01*
X42078Y-53209D01*
X42221Y-53210D01*
X42921Y-53210D01*
X43053Y-53155D01*
X43104Y-53104D01*
X43358Y-53209D01*
X43640Y-53210D01*
X43901Y-53102D01*
X43994Y-53010D01*
X45288Y-53010D01*
X45990Y-53711D01*
X45990Y-53818D01*
X45921Y-53790D01*
X45778Y-53789D01*
X45078Y-53789D01*
X44946Y-53844D01*
X44895Y-53895D01*
X44641Y-53790D01*
X44359Y-53789D01*
X44098Y-53897D01*
X44005Y-53990D01*
X41500Y-53990D01*
X40958Y-53990D01*
X40888Y-53919D01*
X40636Y-53815D01*
X40364Y-53814D01*
X40112Y-53918D01*
X39919Y-54111D01*
X39815Y-54363D01*
X39814Y-54635D01*
X39918Y-54887D01*
X40031Y-55000D01*
X39919Y-55111D01*
X39815Y-55363D01*
X39814Y-55635D01*
X39918Y-55887D01*
X40031Y-56000D01*
X39919Y-56111D01*
X39815Y-56363D01*
X39814Y-56635D01*
X39918Y-56887D01*
X40111Y-57080D01*
X40363Y-57184D01*
X40635Y-57185D01*
X40887Y-57081D01*
X41080Y-56888D01*
X41184Y-56636D01*
X41185Y-56364D01*
X41081Y-56112D01*
X40968Y-55999D01*
X41080Y-55888D01*
X41184Y-55636D01*
X41185Y-55364D01*
X41081Y-55112D01*
X40978Y-55010D01*
X41288Y-55010D01*
X41990Y-55711D01*
X41990Y-56541D01*
X41919Y-56611D01*
X41815Y-56863D01*
X41814Y-57135D01*
X41915Y-57380D01*
X36083Y-57380D01*
X36184Y-57136D01*
X36185Y-56864D01*
X36081Y-56612D01*
X36010Y-56541D01*
X36010Y-55711D01*
X36711Y-55010D01*
X37021Y-55010D01*
X36919Y-55111D01*
X36815Y-55363D01*
X36814Y-55635D01*
X36918Y-55887D01*
X37031Y-56000D01*
X36919Y-56111D01*
X36815Y-56363D01*
X36814Y-56635D01*
X36918Y-56887D01*
X37111Y-57080D01*
X37363Y-57184D01*
X37635Y-57185D01*
X37887Y-57081D01*
X37958Y-57010D01*
X38000Y-57010D01*
X38195Y-56971D01*
X38195Y-56971D01*
X38360Y-56860D01*
X39360Y-55860D01*
X39471Y-55695D01*
X39471Y-55695D01*
X39510Y-55500D01*
X39510Y-49211D01*
X40711Y-48010D01*
X42288Y-48010D01*
X42389Y-48110D01*
X42389Y-48110D01*
X42499Y-48184D01*
X42554Y-48221D01*
X42554Y-48221D01*
X42750Y-48260D01*
X42789Y-48260D01*
X42789Y-48921D01*
X42844Y-49053D01*
X42945Y-49155D01*
X43078Y-49209D01*
X43221Y-49210D01*
X43668Y-49210D01*
X43717Y-49282D01*
X43846Y-49369D01*
X44000Y-49400D01*
X44153Y-49369D01*
X44171Y-49357D01*
X44139Y-49389D01*
X44028Y-49554D01*
X43990Y-49750D01*
X43990Y-49826D01*
X43946Y-49844D01*
X43844Y-49945D01*
X43790Y-50078D01*
X43789Y-50221D01*
X43789Y-50921D01*
X43844Y-51053D01*
X43945Y-51155D01*
X44078Y-51209D01*
X44221Y-51210D01*
X44921Y-51210D01*
X45053Y-51155D01*
X45155Y-51054D01*
X45209Y-50921D01*
X45210Y-50778D01*
X45210Y-50078D01*
X45155Y-49946D01*
X45090Y-49881D01*
X46860Y-48110D01*
X46860Y-48110D01*
X46860Y-48110D01*
X48110Y-46860D01*
X49860Y-45110D01*
X49971Y-44945D01*
X49971Y-44945D01*
X49972Y-44940D01*
X50031Y-45000D01*
X49919Y-45111D01*
X49815Y-45363D01*
X49814Y-45635D01*
X49918Y-45887D01*
X50031Y-46000D01*
X49919Y-46111D01*
X49815Y-46363D01*
X49814Y-46635D01*
X49918Y-46887D01*
X50111Y-47080D01*
X50363Y-47184D01*
X50635Y-47185D01*
X50887Y-47081D01*
X51000Y-46968D01*
X51111Y-47080D01*
X51363Y-47184D01*
X51635Y-47185D01*
X51887Y-47081D01*
X52000Y-46968D01*
X52111Y-47080D01*
X52363Y-47184D01*
X52635Y-47185D01*
X52887Y-47081D01*
X53000Y-46968D01*
X53111Y-47080D01*
X53363Y-47184D01*
X53635Y-47185D01*
X53887Y-47081D01*
X54000Y-46968D01*
X54111Y-47080D01*
X54363Y-47184D01*
X54635Y-47185D01*
X54887Y-47081D01*
X55000Y-46968D01*
X55111Y-47080D01*
X55363Y-47184D01*
X55635Y-47185D01*
X55887Y-47081D01*
X56000Y-46968D01*
X56111Y-47080D01*
X56363Y-47184D01*
X56635Y-47185D01*
X56887Y-47081D01*
X57000Y-46968D01*
X57111Y-47080D01*
X57363Y-47184D01*
X57635Y-47185D01*
X57887Y-47081D01*
X58000Y-46968D01*
X58111Y-47080D01*
X58363Y-47184D01*
X58635Y-47185D01*
X58887Y-47081D01*
X59000Y-46968D01*
X59111Y-47080D01*
X59363Y-47184D01*
X59635Y-47185D01*
X59887Y-47081D01*
X60000Y-46968D01*
X60111Y-47080D01*
X60363Y-47184D01*
X60635Y-47185D01*
X60887Y-47081D01*
X61000Y-46968D01*
X61111Y-47080D01*
X61363Y-47184D01*
X61635Y-47185D01*
X61880Y-47084D01*
X61880Y-48416D01*
X61636Y-48315D01*
X61364Y-48314D01*
X61112Y-48418D01*
X61041Y-48490D01*
X60958Y-48490D01*
X60888Y-48419D01*
X60636Y-48315D01*
X60364Y-48314D01*
X60112Y-48418D01*
X60041Y-48490D01*
X59958Y-48490D01*
X59888Y-48419D01*
X59636Y-48315D01*
X59364Y-48314D01*
X59112Y-48418D01*
X59041Y-48490D01*
X58958Y-48490D01*
X58888Y-48419D01*
X58636Y-48315D01*
X58364Y-48314D01*
X58112Y-48418D01*
X58041Y-48490D01*
X57958Y-48490D01*
X57888Y-48419D01*
X57636Y-48315D01*
X57364Y-48314D01*
X57112Y-48418D01*
X57041Y-48490D01*
X56958Y-48490D01*
X56888Y-48419D01*
X56636Y-48315D01*
X56364Y-48314D01*
X56112Y-48418D01*
X56041Y-48490D01*
X55958Y-48490D01*
X55888Y-48419D01*
X55636Y-48315D01*
X55364Y-48314D01*
X55112Y-48418D01*
X55041Y-48490D01*
X54958Y-48490D01*
X54888Y-48419D01*
X54636Y-48315D01*
X54364Y-48314D01*
X54112Y-48418D01*
X54041Y-48490D01*
X53958Y-48490D01*
X53888Y-48419D01*
X53636Y-48315D01*
X53364Y-48314D01*
X53112Y-48418D01*
X53041Y-48490D01*
X52958Y-48490D01*
X52888Y-48419D01*
X52636Y-48315D01*
X52364Y-48314D01*
X52112Y-48418D01*
X52041Y-48490D01*
X51958Y-48490D01*
X51888Y-48419D01*
X51636Y-48315D01*
X51364Y-48314D01*
X51112Y-48418D01*
X51095Y-48436D01*
X51029Y-48369D01*
X50896Y-48315D01*
X50753Y-48314D01*
X50103Y-48314D01*
X49971Y-48369D01*
X49869Y-48470D01*
X49862Y-48490D01*
X48633Y-48490D01*
X48581Y-48362D01*
X48388Y-48169D01*
X48136Y-48065D01*
X47864Y-48064D01*
X47612Y-48168D01*
X47419Y-48361D01*
X47315Y-48613D01*
X47314Y-48885D01*
X47418Y-49137D01*
X47611Y-49330D01*
X47622Y-49334D01*
X47639Y-49360D01*
X47804Y-49471D01*
X48000Y-49510D01*
X49268Y-49510D01*
X47639Y-51139D01*
X47528Y-51304D01*
X47490Y-51500D01*
X47490Y-51741D01*
X47419Y-51811D01*
X47315Y-52063D01*
X47314Y-52335D01*
X47418Y-52587D01*
X47611Y-52780D01*
X47863Y-52884D01*
X48135Y-52885D01*
X48387Y-52781D01*
X48580Y-52588D01*
X48684Y-52336D01*
X48685Y-52064D01*
X48581Y-51812D01*
X48510Y-51741D01*
X48510Y-51711D01*
X50536Y-49685D01*
X50896Y-49685D01*
X51028Y-49630D01*
X51095Y-49564D01*
X51111Y-49580D01*
X51363Y-49684D01*
X51635Y-49685D01*
X51887Y-49581D01*
X51958Y-49510D01*
X52041Y-49510D01*
X52111Y-49580D01*
X52363Y-49684D01*
X52635Y-49685D01*
X52887Y-49581D01*
X52958Y-49510D01*
X53041Y-49510D01*
X53100Y-49568D01*
X53100Y-50834D01*
X52951Y-50982D01*
X52888Y-50919D01*
X52636Y-50815D01*
X52364Y-50814D01*
X52112Y-50918D01*
X51919Y-51111D01*
X51815Y-51363D01*
X51814Y-51635D01*
X51918Y-51887D01*
X52111Y-52080D01*
X52363Y-52184D01*
X52635Y-52185D01*
X52887Y-52081D01*
X53080Y-51888D01*
X53082Y-51883D01*
X53100Y-51880D01*
X53100Y-52500D01*
X53125Y-52627D01*
X53130Y-52653D01*
X53217Y-52782D01*
X53815Y-53380D01*
X53814Y-53635D01*
X53918Y-53887D01*
X54111Y-54080D01*
X54363Y-54184D01*
X54635Y-54185D01*
X54887Y-54081D01*
X55000Y-53968D01*
X55111Y-54080D01*
X55363Y-54184D01*
X55635Y-54185D01*
X55887Y-54081D01*
X56080Y-53888D01*
X56184Y-53636D01*
X56185Y-53364D01*
X56081Y-53112D01*
X55888Y-52919D01*
X55841Y-52900D01*
X57000Y-52900D01*
X57834Y-52900D01*
X58717Y-53782D01*
X58717Y-53782D01*
X58803Y-53840D01*
X58846Y-53869D01*
X58846Y-53869D01*
X58917Y-53883D01*
X58918Y-53887D01*
X59111Y-54080D01*
X59363Y-54184D01*
X59635Y-54185D01*
X59887Y-54081D01*
X60080Y-53888D01*
X60184Y-53636D01*
X60185Y-53364D01*
X60081Y-53112D01*
X59888Y-52919D01*
X59636Y-52815D01*
X59364Y-52814D01*
X59112Y-52918D01*
X59048Y-52982D01*
X58282Y-52217D01*
X58153Y-52130D01*
X58127Y-52125D01*
X58000Y-52100D01*
X57880Y-52100D01*
X57883Y-52082D01*
X57887Y-52081D01*
X58080Y-51888D01*
X58184Y-51636D01*
X58185Y-51364D01*
X58081Y-51112D01*
X57888Y-50919D01*
X57636Y-50815D01*
X57364Y-50814D01*
X57112Y-50918D01*
X56919Y-51111D01*
X56815Y-51363D01*
X56814Y-51635D01*
X56918Y-51887D01*
X56982Y-51951D01*
X56834Y-52100D01*
X55841Y-52100D01*
X55887Y-52081D01*
X56080Y-51888D01*
X56184Y-51636D01*
X56185Y-51364D01*
X56081Y-51112D01*
X55888Y-50919D01*
X55636Y-50815D01*
X55364Y-50814D01*
X55112Y-50918D01*
X54919Y-51111D01*
X54815Y-51363D01*
X54814Y-51635D01*
X54894Y-51829D01*
X53900Y-50834D01*
X53900Y-49568D01*
X53958Y-49510D01*
X54041Y-49510D01*
X54111Y-49580D01*
X54363Y-49684D01*
X54635Y-49685D01*
X54887Y-49581D01*
X54958Y-49510D01*
X55041Y-49510D01*
X55111Y-49580D01*
X55363Y-49684D01*
X55635Y-49685D01*
X55887Y-49581D01*
X55958Y-49510D01*
X56041Y-49510D01*
X56111Y-49580D01*
X56363Y-49684D01*
X56635Y-49685D01*
X56887Y-49581D01*
X56958Y-49510D01*
X57041Y-49510D01*
X57111Y-49580D01*
X57363Y-49684D01*
X57635Y-49685D01*
X57887Y-49581D01*
X57958Y-49510D01*
X58041Y-49510D01*
X58111Y-49580D01*
X58363Y-49684D01*
X58635Y-49685D01*
X58887Y-49581D01*
X58958Y-49510D01*
X59041Y-49510D01*
X59111Y-49580D01*
X59363Y-49684D01*
X59635Y-49685D01*
X59887Y-49581D01*
X59958Y-49510D01*
X60041Y-49510D01*
X60111Y-49580D01*
X60363Y-49684D01*
X60635Y-49685D01*
X60887Y-49581D01*
X60958Y-49510D01*
X61041Y-49510D01*
X61111Y-49580D01*
X61363Y-49684D01*
X61635Y-49685D01*
X61880Y-49584D01*
X61880Y-55739D01*
X61880Y-55739D01*
G37*
G54D26*
X61880Y-55739D02*
X61657Y-55517D01*
X61231Y-55340D01*
X60770Y-55339D01*
X60343Y-55516D01*
X60017Y-55842D01*
X59840Y-56268D01*
X59839Y-56729D01*
X60016Y-57156D01*
X60239Y-57380D01*
X59185Y-57380D01*
X59185Y-54864D01*
X59081Y-54612D01*
X58888Y-54419D01*
X58636Y-54315D01*
X58364Y-54314D01*
X58112Y-54418D01*
X57919Y-54611D01*
X57815Y-54863D01*
X57814Y-55135D01*
X57918Y-55387D01*
X58111Y-55580D01*
X58363Y-55684D01*
X58635Y-55685D01*
X58887Y-55581D01*
X59080Y-55388D01*
X59184Y-55136D01*
X59185Y-54864D01*
X59185Y-57380D01*
X56185Y-57380D01*
X56185Y-54864D01*
X56081Y-54612D01*
X55888Y-54419D01*
X55636Y-54315D01*
X55364Y-54314D01*
X55112Y-54418D01*
X54919Y-54611D01*
X54815Y-54863D01*
X54814Y-55135D01*
X54918Y-55387D01*
X55111Y-55580D01*
X55363Y-55684D01*
X55635Y-55685D01*
X55887Y-55581D01*
X56080Y-55388D01*
X56184Y-55136D01*
X56185Y-54864D01*
X56185Y-57380D01*
X54185Y-57380D01*
X54185Y-54864D01*
X54081Y-54612D01*
X53888Y-54419D01*
X53636Y-54315D01*
X53364Y-54314D01*
X53112Y-54418D01*
X52919Y-54611D01*
X52815Y-54863D01*
X52814Y-55135D01*
X52918Y-55387D01*
X53111Y-55580D01*
X53363Y-55684D01*
X53635Y-55685D01*
X53887Y-55581D01*
X54080Y-55388D01*
X54184Y-55136D01*
X54185Y-54864D01*
X54185Y-57380D01*
X51185Y-57380D01*
X51185Y-54864D01*
X51185Y-53364D01*
X51185Y-51364D01*
X51081Y-51112D01*
X50888Y-50919D01*
X50636Y-50815D01*
X50364Y-50814D01*
X50112Y-50918D01*
X49919Y-51111D01*
X49815Y-51363D01*
X49814Y-51635D01*
X49918Y-51887D01*
X50111Y-52080D01*
X50363Y-52184D01*
X50635Y-52185D01*
X50887Y-52081D01*
X51080Y-51888D01*
X51184Y-51636D01*
X51185Y-51364D01*
X51185Y-53364D01*
X51081Y-53112D01*
X50888Y-52919D01*
X50636Y-52815D01*
X50364Y-52814D01*
X50112Y-52918D01*
X49919Y-53111D01*
X49815Y-53363D01*
X49814Y-53635D01*
X49918Y-53887D01*
X50111Y-54080D01*
X50363Y-54184D01*
X50635Y-54185D01*
X50887Y-54081D01*
X51080Y-53888D01*
X51184Y-53636D01*
X51185Y-53364D01*
X51185Y-54864D01*
X51081Y-54612D01*
X50888Y-54419D01*
X50636Y-54315D01*
X50364Y-54314D01*
X50112Y-54418D01*
X49919Y-54611D01*
X49815Y-54863D01*
X49814Y-55135D01*
X49918Y-55387D01*
X50111Y-55580D01*
X50363Y-55684D01*
X50635Y-55685D01*
X50887Y-55581D01*
X51080Y-55388D01*
X51184Y-55136D01*
X51185Y-54864D01*
X51185Y-57380D01*
X45184Y-57380D01*
X45185Y-57253D01*
X45185Y-57036D01*
X46860Y-55360D01*
X46860Y-55360D01*
X46860Y-55360D01*
X46971Y-55195D01*
X46971Y-55195D01*
X47009Y-55000D01*
X47010Y-55000D01*
X47010Y-53500D01*
X46971Y-53304D01*
X46971Y-53304D01*
X46860Y-53139D01*
X45860Y-52139D01*
X45695Y-52028D01*
X45500Y-51990D01*
X43994Y-51990D01*
X43902Y-51898D01*
X43641Y-51790D01*
X43359Y-51789D01*
X43104Y-51895D01*
X43054Y-51844D01*
X42921Y-51790D01*
X42778Y-51789D01*
X42078Y-51789D01*
X42030Y-51809D01*
X41360Y-51139D01*
X41195Y-51028D01*
X41000Y-50990D01*
X40978Y-50990D01*
X41080Y-50888D01*
X41184Y-50636D01*
X41185Y-50364D01*
X41081Y-50112D01*
X40968Y-49999D01*
X41080Y-49888D01*
X41184Y-49636D01*
X41185Y-49364D01*
X41081Y-49112D01*
X40888Y-48919D01*
X40636Y-48815D01*
X40364Y-48814D01*
X40112Y-48918D01*
X39919Y-49111D01*
X39815Y-49363D01*
X39814Y-49635D01*
X39918Y-49887D01*
X40031Y-50000D01*
X39919Y-50111D01*
X39815Y-50363D01*
X39814Y-50635D01*
X39918Y-50887D01*
X40031Y-51000D01*
X39919Y-51111D01*
X39815Y-51363D01*
X39814Y-51635D01*
X39918Y-51887D01*
X40111Y-52080D01*
X40363Y-52184D01*
X40635Y-52185D01*
X40867Y-52089D01*
X41639Y-52860D01*
X41804Y-52971D01*
X41804Y-52971D01*
X41811Y-52972D01*
X41844Y-53053D01*
X41945Y-53155D01*
X42078Y-53209D01*
X42221Y-53210D01*
X42921Y-53210D01*
X43053Y-53155D01*
X43104Y-53104D01*
X43358Y-53209D01*
X43640Y-53210D01*
X43901Y-53102D01*
X43994Y-53010D01*
X45288Y-53010D01*
X45990Y-53711D01*
X45990Y-53818D01*
X45921Y-53790D01*
X45778Y-53789D01*
X45078Y-53789D01*
X44946Y-53844D01*
X44895Y-53895D01*
X44641Y-53790D01*
X44359Y-53789D01*
X44098Y-53897D01*
X44005Y-53990D01*
X41500Y-53990D01*
X40958Y-53990D01*
X40888Y-53919D01*
X40636Y-53815D01*
X40364Y-53814D01*
X40112Y-53918D01*
X39919Y-54111D01*
X39815Y-54363D01*
X39814Y-54635D01*
X39918Y-54887D01*
X40031Y-55000D01*
X39919Y-55111D01*
X39815Y-55363D01*
X39814Y-55635D01*
X39918Y-55887D01*
X40031Y-56000D01*
X39919Y-56111D01*
X39815Y-56363D01*
X39814Y-56635D01*
X39918Y-56887D01*
X40111Y-57080D01*
X40363Y-57184D01*
X40635Y-57185D01*
X40887Y-57081D01*
X41080Y-56888D01*
X41184Y-56636D01*
X41185Y-56364D01*
X41081Y-56112D01*
X40968Y-55999D01*
X41080Y-55888D01*
X41184Y-55636D01*
X41185Y-55364D01*
X41081Y-55112D01*
X40978Y-55010D01*
X41288Y-55010D01*
X41990Y-55711D01*
X41990Y-56541D01*
X41919Y-56611D01*
X41815Y-56863D01*
X41814Y-57135D01*
X41915Y-57380D01*
X36083Y-57380D01*
X36184Y-57136D01*
X36185Y-56864D01*
X36081Y-56612D01*
X36010Y-56541D01*
X36010Y-55711D01*
X36711Y-55010D01*
X37021Y-55010D01*
X36919Y-55111D01*
X36815Y-55363D01*
X36814Y-55635D01*
X36918Y-55887D01*
X37031Y-56000D01*
X36919Y-56111D01*
X36815Y-56363D01*
X36814Y-56635D01*
X36918Y-56887D01*
X37111Y-57080D01*
X37363Y-57184D01*
X37635Y-57185D01*
X37887Y-57081D01*
X37958Y-57010D01*
X38000Y-57010D01*
X38195Y-56971D01*
X38195Y-56971D01*
X38360Y-56860D01*
X39360Y-55860D01*
X39471Y-55695D01*
X39471Y-55695D01*
X39510Y-55500D01*
X39510Y-49211D01*
X40711Y-48010D01*
X42288Y-48010D01*
X42389Y-48110D01*
X42389Y-48110D01*
X42499Y-48184D01*
X42554Y-48221D01*
X42554Y-48221D01*
X42750Y-48260D01*
X42789Y-48260D01*
X42789Y-48921D01*
X42844Y-49053D01*
X42945Y-49155D01*
X43078Y-49209D01*
X43221Y-49210D01*
X43668Y-49210D01*
X43717Y-49282D01*
X43846Y-49369D01*
X44000Y-49400D01*
X44153Y-49369D01*
X44171Y-49357D01*
X44139Y-49389D01*
X44028Y-49554D01*
X43990Y-49750D01*
X43990Y-49826D01*
X43946Y-49844D01*
X43844Y-49945D01*
X43790Y-50078D01*
X43789Y-50221D01*
X43789Y-50921D01*
X43844Y-51053D01*
X43945Y-51155D01*
X44078Y-51209D01*
X44221Y-51210D01*
X44921Y-51210D01*
X45053Y-51155D01*
X45155Y-51054D01*
X45209Y-50921D01*
X45210Y-50778D01*
X45210Y-50078D01*
X45155Y-49946D01*
X45090Y-49881D01*
X46860Y-48110D01*
X46860Y-48110D01*
X46860Y-48110D01*
X48110Y-46860D01*
X49860Y-45110D01*
X49971Y-44945D01*
X49971Y-44945D01*
X49972Y-44940D01*
X50031Y-45000D01*
X49919Y-45111D01*
X49815Y-45363D01*
X49814Y-45635D01*
X49918Y-45887D01*
X50031Y-46000D01*
X49919Y-46111D01*
X49815Y-46363D01*
X49814Y-46635D01*
X49918Y-46887D01*
X50111Y-47080D01*
X50363Y-47184D01*
X50635Y-47185D01*
X50887Y-47081D01*
X51000Y-46968D01*
X51111Y-47080D01*
X51363Y-47184D01*
X51635Y-47185D01*
X51887Y-47081D01*
X52000Y-46968D01*
X52111Y-47080D01*
X52363Y-47184D01*
X52635Y-47185D01*
X52887Y-47081D01*
X53000Y-46968D01*
X53111Y-47080D01*
X53363Y-47184D01*
X53635Y-47185D01*
X53887Y-47081D01*
X54000Y-46968D01*
X54111Y-47080D01*
X54363Y-47184D01*
X54635Y-47185D01*
X54887Y-47081D01*
X55000Y-46968D01*
X55111Y-47080D01*
X55363Y-47184D01*
X55635Y-47185D01*
X55887Y-47081D01*
X56000Y-46968D01*
X56111Y-47080D01*
X56363Y-47184D01*
X56635Y-47185D01*
X56887Y-47081D01*
X57000Y-46968D01*
X57111Y-47080D01*
X57363Y-47184D01*
X57635Y-47185D01*
X57887Y-47081D01*
X58000Y-46968D01*
X58111Y-47080D01*
X58363Y-47184D01*
X58635Y-47185D01*
X58887Y-47081D01*
X59000Y-46968D01*
X59111Y-47080D01*
X59363Y-47184D01*
X59635Y-47185D01*
X59887Y-47081D01*
X60000Y-46968D01*
X60111Y-47080D01*
X60363Y-47184D01*
X60635Y-47185D01*
X60887Y-47081D01*
X61000Y-46968D01*
X61111Y-47080D01*
X61363Y-47184D01*
X61635Y-47185D01*
X61880Y-47084D01*
X61880Y-48416D01*
X61636Y-48315D01*
X61364Y-48314D01*
X61112Y-48418D01*
X61041Y-48490D01*
X60958Y-48490D01*
X60888Y-48419D01*
X60636Y-48315D01*
X60364Y-48314D01*
X60112Y-48418D01*
X60041Y-48490D01*
X59958Y-48490D01*
X59888Y-48419D01*
X59636Y-48315D01*
X59364Y-48314D01*
X59112Y-48418D01*
X59041Y-48490D01*
X58958Y-48490D01*
X58888Y-48419D01*
X58636Y-48315D01*
X58364Y-48314D01*
X58112Y-48418D01*
X58041Y-48490D01*
X57958Y-48490D01*
X57888Y-48419D01*
X57636Y-48315D01*
X57364Y-48314D01*
X57112Y-48418D01*
X57041Y-48490D01*
X56958Y-48490D01*
X56888Y-48419D01*
X56636Y-48315D01*
X56364Y-48314D01*
X56112Y-48418D01*
X56041Y-48490D01*
X55958Y-48490D01*
X55888Y-48419D01*
X55636Y-48315D01*
X55364Y-48314D01*
X55112Y-48418D01*
X55041Y-48490D01*
X54958Y-48490D01*
X54888Y-48419D01*
X54636Y-48315D01*
X54364Y-48314D01*
X54112Y-48418D01*
X54041Y-48490D01*
X53958Y-48490D01*
X53888Y-48419D01*
X53636Y-48315D01*
X53364Y-48314D01*
X53112Y-48418D01*
X53041Y-48490D01*
X52958Y-48490D01*
X52888Y-48419D01*
X52636Y-48315D01*
X52364Y-48314D01*
X52112Y-48418D01*
X52041Y-48490D01*
X51958Y-48490D01*
X51888Y-48419D01*
X51636Y-48315D01*
X51364Y-48314D01*
X51112Y-48418D01*
X51095Y-48436D01*
X51029Y-48369D01*
X50896Y-48315D01*
X50753Y-48314D01*
X50103Y-48314D01*
X49971Y-48369D01*
X49869Y-48470D01*
X49862Y-48490D01*
X48633Y-48490D01*
X48581Y-48362D01*
X48388Y-48169D01*
X48136Y-48065D01*
X47864Y-48064D01*
X47612Y-48168D01*
X47419Y-48361D01*
X47315Y-48613D01*
X47314Y-48885D01*
X47418Y-49137D01*
X47611Y-49330D01*
X47622Y-49334D01*
X47639Y-49360D01*
X47804Y-49471D01*
X48000Y-49510D01*
X49268Y-49510D01*
X47639Y-51139D01*
X47528Y-51304D01*
X47490Y-51500D01*
X47490Y-51741D01*
X47419Y-51811D01*
X47315Y-52063D01*
X47314Y-52335D01*
X47418Y-52587D01*
X47611Y-52780D01*
X47863Y-52884D01*
X48135Y-52885D01*
X48387Y-52781D01*
X48580Y-52588D01*
X48684Y-52336D01*
X48685Y-52064D01*
X48581Y-51812D01*
X48510Y-51741D01*
X48510Y-51711D01*
X50536Y-49685D01*
X50896Y-49685D01*
X51028Y-49630D01*
X51095Y-49564D01*
X51111Y-49580D01*
X51363Y-49684D01*
X51635Y-49685D01*
X51887Y-49581D01*
X51958Y-49510D01*
X52041Y-49510D01*
X52111Y-49580D01*
X52363Y-49684D01*
X52635Y-49685D01*
X52887Y-49581D01*
X52958Y-49510D01*
X53041Y-49510D01*
X53100Y-49568D01*
X53100Y-50834D01*
X52951Y-50982D01*
X52888Y-50919D01*
X52636Y-50815D01*
X52364Y-50814D01*
X52112Y-50918D01*
X51919Y-51111D01*
X51815Y-51363D01*
X51814Y-51635D01*
X51918Y-51887D01*
X52111Y-52080D01*
X52363Y-52184D01*
X52635Y-52185D01*
X52887Y-52081D01*
X53080Y-51888D01*
X53082Y-51883D01*
X53100Y-51880D01*
X53100Y-52500D01*
X53125Y-52627D01*
X53130Y-52653D01*
X53217Y-52782D01*
X53815Y-53380D01*
X53814Y-53635D01*
X53918Y-53887D01*
X54111Y-54080D01*
X54363Y-54184D01*
X54635Y-54185D01*
X54887Y-54081D01*
X55000Y-53968D01*
X55111Y-54080D01*
X55363Y-54184D01*
X55635Y-54185D01*
X55887Y-54081D01*
X56080Y-53888D01*
X56184Y-53636D01*
X56185Y-53364D01*
X56081Y-53112D01*
X55888Y-52919D01*
X55841Y-52900D01*
X57000Y-52900D01*
X57834Y-52900D01*
X58717Y-53782D01*
X58717Y-53782D01*
X58803Y-53840D01*
X58846Y-53869D01*
X58846Y-53869D01*
X58917Y-53883D01*
X58918Y-53887D01*
X59111Y-54080D01*
X59363Y-54184D01*
X59635Y-54185D01*
X59887Y-54081D01*
X60080Y-53888D01*
X60184Y-53636D01*
X60185Y-53364D01*
X60081Y-53112D01*
X59888Y-52919D01*
X59636Y-52815D01*
X59364Y-52814D01*
X59112Y-52918D01*
X59048Y-52982D01*
X58282Y-52217D01*
X58153Y-52130D01*
X58127Y-52125D01*
X58000Y-52100D01*
X57880Y-52100D01*
X57883Y-52082D01*
X57887Y-52081D01*
X58080Y-51888D01*
X58184Y-51636D01*
X58185Y-51364D01*
X58081Y-51112D01*
X57888Y-50919D01*
X57636Y-50815D01*
X57364Y-50814D01*
X57112Y-50918D01*
X56919Y-51111D01*
X56815Y-51363D01*
X56814Y-51635D01*
X56918Y-51887D01*
X56982Y-51951D01*
X56834Y-52100D01*
X55841Y-52100D01*
X55887Y-52081D01*
X56080Y-51888D01*
X56184Y-51636D01*
X56185Y-51364D01*
X56081Y-51112D01*
X55888Y-50919D01*
X55636Y-50815D01*
X55364Y-50814D01*
X55112Y-50918D01*
X54919Y-51111D01*
X54815Y-51363D01*
X54814Y-51635D01*
X54894Y-51829D01*
X53900Y-50834D01*
X53900Y-49568D01*
X53958Y-49510D01*
X54041Y-49510D01*
X54111Y-49580D01*
X54363Y-49684D01*
X54635Y-49685D01*
X54887Y-49581D01*
X54958Y-49510D01*
X55041Y-49510D01*
X55111Y-49580D01*
X55363Y-49684D01*
X55635Y-49685D01*
X55887Y-49581D01*
X55958Y-49510D01*
X56041Y-49510D01*
X56111Y-49580D01*
X56363Y-49684D01*
X56635Y-49685D01*
X56887Y-49581D01*
X56958Y-49510D01*
X57041Y-49510D01*
X57111Y-49580D01*
X57363Y-49684D01*
X57635Y-49685D01*
X57887Y-49581D01*
X57958Y-49510D01*
X58041Y-49510D01*
X58111Y-49580D01*
X58363Y-49684D01*
X58635Y-49685D01*
X58887Y-49581D01*
X58958Y-49510D01*
X59041Y-49510D01*
X59111Y-49580D01*
X59363Y-49684D01*
X59635Y-49685D01*
X59887Y-49581D01*
X59958Y-49510D01*
X60041Y-49510D01*
X60111Y-49580D01*
X60363Y-49684D01*
X60635Y-49685D01*
X60887Y-49581D01*
X60958Y-49510D01*
X61041Y-49510D01*
X61111Y-49580D01*
X61363Y-49684D01*
X61635Y-49685D01*
X61880Y-49584D01*
X61880Y-55739D01*
M02*
