M48
;DRILL file {Pcbnew (2013-07-07 BZR 4022)-stable} date Wed 30 Apr 2014 07:05:40 SAST
;FORMAT={-:-/ absolute / inch / decimal}
FMAT,2
INCH,TZ
T1C0.025
T2C0.030
T3C0.032
T4C0.040
T5C0.045
T6C0.047
T7C0.098
T8C0.118
T9C0.120
%
G90
G05
M72
T1
X2.8Y-4.275
X2.85Y-4.575
X2.9Y-4.625
X2.925Y-5.2
X3.35Y-2.5
X3.425Y-3.175
X3.425Y-3.75
X3.5Y-2.525
X3.5Y-4.4
X3.75Y-2.3
X4.05Y-2.875
X4.15Y-2.45
X4.175Y-2.95
X4.225Y-2.075
X4.3Y-3.65
X4.425Y-2.075
X4.5Y-2.075
X4.725Y-2.15
X4.9Y-2.825
X5.025Y-5.175
X5.1Y-3.375
T2
X4.Y-3.35
X4.Y-3.55
X4.85Y-2.25
X4.85Y-2.45
T3
X2.7Y-3.05
X2.8Y-2.6
X2.8Y-2.9
X2.9Y-2.6
X2.9Y-2.9
X2.9Y-3.05
X3.Y-2.6
X3.Y-2.9
X3.15Y-4.5
X3.15Y-4.7
X3.2Y-2.3
X3.2Y-2.4
X3.25Y-2.65
X3.25Y-2.75
X3.25Y-2.85
X3.25Y-2.95
X3.25Y-3.05
X3.25Y-3.15
X3.25Y-3.25
X3.25Y-3.35
X3.25Y-3.45
X3.25Y-3.55
X3.25Y-3.65
X3.25Y-3.75
X3.25Y-3.85
X3.25Y-3.95
X3.25Y-4.05
X3.25Y-4.15
X3.25Y-4.25
X3.25Y-4.35
X3.25Y-4.45
X3.25Y-4.55
X3.4Y-2.3
X3.5Y-2.4
X3.85Y-2.65
X3.85Y-2.75
X3.85Y-2.85
X3.85Y-2.95
X3.85Y-3.05
X3.85Y-3.15
X3.85Y-3.25
X3.85Y-3.35
X3.85Y-3.45
X3.85Y-3.55
X3.85Y-3.65
X3.85Y-3.75
X3.85Y-3.85
X3.85Y-3.95
X3.85Y-4.05
X3.85Y-4.15
X3.85Y-4.25
X3.85Y-4.35
X3.85Y-4.45
X3.85Y-4.55
X3.95Y-2.25
X3.95Y-2.35
X3.95Y-2.45
X4.05Y-2.25
X4.05Y-2.35
X4.05Y-2.45
X4.1Y-3.15
X4.15Y-2.15
X4.15Y-2.35
X4.3Y-2.65
X4.3Y-3.15
X4.3Y-3.75
X4.3Y-4.05
X4.3Y-4.15
X4.3Y-4.45
X4.4Y-3.75
X4.4Y-4.05
X4.4Y-4.15
X4.4Y-4.45
X4.5Y-2.65
X4.6Y-2.65
X4.7Y-2.65
X4.825Y-2.65
X4.925Y-2.65
X5.Y-2.15
X5.Y-2.35
X5.1Y-2.15
X5.1Y-2.35
X5.1Y-4.75
X5.2Y-4.75
X5.25Y-2.1
X5.25Y-2.4
X5.3Y-4.75
X5.35Y-2.1
X5.35Y-2.4
X5.4Y-4.75
X5.5Y-4.75
X5.6Y-4.75
X5.7Y-3.4
X5.7Y-4.75
X5.75Y-3.05
X5.75Y-3.15
X5.8Y-4.75
X5.9Y-4.75
X6.Y-3.4
X6.Y-4.75
X6.1Y-4.75
X6.2Y-4.75
T4
X2.5Y-3.25
X2.5Y-3.35
X2.5Y-3.45
X2.5Y-3.55
X2.5Y-3.65
X2.5Y-3.75
X2.5Y-3.95
X2.5Y-4.05
X2.5Y-4.15
X2.5Y-4.25
X2.5Y-4.35
X2.5Y-4.45
X2.5Y-4.75
X2.5Y-4.85
X2.5Y-4.95
X2.5Y-5.05
X2.5Y-5.15
X2.5Y-5.25
X2.5Y-5.35
X2.5Y-5.45
X2.6Y-2.4
X2.6Y-2.5
X2.6Y-2.6
X2.6Y-2.7
X2.6Y-2.8
X2.6Y-2.9
X2.6Y-3.25
X2.6Y-3.35
X2.6Y-3.45
X2.6Y-3.55
X2.6Y-3.65
X2.6Y-3.75
X2.6Y-3.95
X2.6Y-4.05
X2.6Y-4.15
X2.6Y-4.25
X2.6Y-4.35
X2.6Y-4.45
X2.6Y-4.75
X2.6Y-4.75
X2.6Y-4.85
X2.6Y-4.85
X2.6Y-4.95
X2.6Y-4.95
X2.6Y-5.05
X2.6Y-5.05
X2.6Y-5.15
X2.6Y-5.15
X2.6Y-5.25
X2.6Y-5.25
X2.6Y-5.35
X2.6Y-5.35
X2.6Y-5.45
X2.6Y-5.45
X2.7Y-3.25
X2.7Y-3.25
X2.7Y-3.35
X2.7Y-3.35
X2.7Y-3.45
X2.7Y-3.45
X2.7Y-3.55
X2.7Y-3.55
X2.7Y-3.65
X2.7Y-3.65
X2.7Y-3.75
X2.7Y-3.75
X2.7Y-3.95
X2.7Y-3.95
X2.7Y-4.05
X2.7Y-4.05
X2.7Y-4.15
X2.7Y-4.15
X2.7Y-4.25
X2.7Y-4.25
X2.7Y-4.35
X2.7Y-4.35
X2.7Y-4.45
X2.7Y-4.45
X2.7Y-4.75
X2.7Y-4.75
X2.7Y-4.85
X2.7Y-4.85
X2.7Y-4.95
X2.7Y-4.95
X2.7Y-5.05
X2.7Y-5.05
X2.7Y-5.15
X2.7Y-5.15
X2.7Y-5.25
X2.7Y-5.25
X2.7Y-5.35
X2.7Y-5.35
X2.7Y-5.45
X2.7Y-5.45
X2.8Y-2.1
X2.8Y-2.4
X2.8Y-2.5
X3.Y-2.1
X3.Y-2.4
X3.Y-2.5
X3.15Y-3.55
X3.15Y-3.75
X3.25Y-4.8
X3.25Y-4.9
X3.25Y-5.
X3.25Y-5.1
X3.25Y-5.2
X3.25Y-5.3
X3.3622Y-2.2024
X3.4606Y-2.2024
X3.5Y-5.05
X3.5Y-5.45
X3.5394Y-2.2024
X3.6Y-4.75
X3.6Y-5.05
X3.6Y-5.45
X3.6Y-5.7
X3.6378Y-2.2024
X3.7Y-4.85
X3.7Y-5.25
X3.7Y-5.7
X3.8Y-4.75
X3.8Y-4.85
X3.8Y-5.25
X3.8Y-5.7
X4.Y-4.95
X4.Y-5.05
X4.Y-5.15
X4.Y-5.25
X4.Y-5.35
X4.Y-5.45
X4.Y-5.55
X4.Y-5.65
X4.1Y-3.85
X4.1Y-4.05
X4.1Y-4.25
X4.1Y-4.45
X4.175Y-3.35
X4.175Y-3.55
X4.2Y-3.85
X4.2Y-4.05
X4.2Y-4.25
X4.2Y-4.45
X4.275Y-3.35
X4.275Y-3.45
X4.275Y-3.55
X4.3Y-4.95
X4.3Y-5.05
X4.3Y-5.15
X4.3Y-5.25
X4.3Y-5.35
X4.3Y-5.45
X4.3Y-5.55
X4.3Y-5.65
X4.35Y-4.65
X4.35Y-4.75
X4.5Y-4.85
X4.5Y-5.25
X4.5Y-5.7
X4.6Y-2.85
X4.6Y-2.85
X4.6Y-2.95
X4.6Y-2.95
X4.6Y-3.05
X4.6Y-3.05
X4.6Y-3.15
X4.6Y-3.15
X4.6Y-3.25
X4.6Y-3.25
X4.6Y-3.35
X4.6Y-3.35
X4.6Y-3.45
X4.6Y-3.45
X4.6Y-3.55
X4.6Y-3.55
X4.6Y-3.75
X4.6Y-3.75
X4.6Y-3.85
X4.6Y-3.85
X4.6Y-3.95
X4.6Y-3.95
X4.6Y-4.05
X4.6Y-4.05
X4.6Y-4.15
X4.6Y-4.15
X4.6Y-4.25
X4.6Y-4.25
X4.6Y-4.35
X4.6Y-4.35
X4.6Y-4.45
X4.6Y-4.45
X4.6Y-4.85
X4.6Y-5.25
X4.6Y-5.7
X4.7Y-2.85
X4.7Y-2.85
X4.7Y-2.95
X4.7Y-2.95
X4.7Y-3.05
X4.7Y-3.05
X4.7Y-3.15
X4.7Y-3.15
X4.7Y-3.25
X4.7Y-3.25
X4.7Y-3.35
X4.7Y-3.35
X4.7Y-3.45
X4.7Y-3.45
X4.7Y-3.55
X4.7Y-3.55
X4.7Y-3.75
X4.7Y-3.75
X4.7Y-3.85
X4.7Y-3.85
X4.7Y-3.95
X4.7Y-3.95
X4.7Y-4.05
X4.7Y-4.05
X4.7Y-4.15
X4.7Y-4.15
X4.7Y-4.25
X4.7Y-4.25
X4.7Y-4.35
X4.7Y-4.35
X4.7Y-4.45
X4.7Y-4.45
X4.7Y-4.65
X4.7Y-4.85
X4.7Y-5.05
X4.7Y-5.45
X4.7Y-5.7
X4.8Y-2.85
X4.8Y-2.95
X4.8Y-3.05
X4.8Y-3.15
X4.8Y-3.25
X4.8Y-3.35
X4.8Y-3.45
X4.8Y-3.55
X4.8Y-3.75
X4.8Y-3.85
X4.8Y-3.95
X4.8Y-4.05
X4.8Y-4.15
X4.8Y-4.25
X4.8Y-4.35
X4.8Y-4.45
X4.8Y-5.05
X4.8Y-5.45
X4.85Y-4.85
X4.85Y-4.95
X5.Y-2.95
X5.Y-3.05
X5.Y-3.15
X5.Y-3.25
X5.Y-3.35
X5.05Y-5.35
X5.05Y-5.5
X5.05Y-5.7
X5.1Y-3.55
X5.1Y-3.65
X5.1Y-3.75
X5.1Y-3.85
X5.1Y-3.95
X5.1Y-4.05
X5.1Y-4.15
X5.1Y-4.25
X5.1Y-4.35
X5.1Y-4.45
X5.1Y-4.55
X5.1Y-4.65
X5.1Y-4.85
X5.1Y-4.95
X5.2Y-3.55
X5.2Y-3.65
X5.2Y-3.75
X5.2Y-3.85
X5.2Y-3.95
X5.2Y-4.05
X5.2Y-4.15
X5.2Y-4.25
X5.2Y-4.35
X5.2Y-4.45
X5.2Y-4.55
X5.2Y-4.65
X5.2Y-4.85
X5.2Y-4.95
X5.25Y-2.5
X5.25Y-2.6
X5.25Y-2.75
X5.25Y-2.85
X5.25Y-3.05
X5.25Y-3.15
X5.25Y-3.25
X5.25Y-5.25
X5.3Y-3.55
X5.3Y-3.65
X5.3Y-3.75
X5.3Y-3.85
X5.3Y-3.95
X5.3Y-4.05
X5.3Y-4.15
X5.3Y-4.25
X5.3Y-4.35
X5.3Y-4.45
X5.3Y-4.55
X5.3Y-4.65
X5.3Y-4.85
X5.3Y-4.95
X5.35Y-5.5
X5.35Y-5.7
X5.4Y-3.55
X5.4Y-3.65
X5.4Y-3.75
X5.4Y-3.85
X5.4Y-3.95
X5.4Y-4.05
X5.4Y-4.15
X5.4Y-4.25
X5.4Y-4.35
X5.4Y-4.45
X5.4Y-4.55
X5.4Y-4.65
X5.4Y-4.85
X5.4Y-4.95
X5.45Y-2.55
X5.45Y-5.25
X5.45Y-5.35
X5.5Y-2.75
X5.5Y-2.85
X5.5Y-3.05
X5.5Y-3.15
X5.5Y-3.4
X5.5Y-3.55
X5.5Y-3.65
X5.5Y-3.75
X5.5Y-3.85
X5.5Y-3.95
X5.5Y-4.05
X5.5Y-4.15
X5.5Y-4.25
X5.5Y-4.35
X5.5Y-4.45
X5.5Y-4.55
X5.5Y-4.65
X5.5Y-4.85
X5.5Y-4.95
X5.55Y-3.25
X5.55Y-5.35
X5.55Y-5.5
X5.55Y-5.7
X5.6Y-3.4
X5.6Y-3.55
X5.6Y-3.65
X5.6Y-3.75
X5.6Y-3.85
X5.6Y-3.95
X5.6Y-4.05
X5.6Y-4.15
X5.6Y-4.25
X5.6Y-4.35
X5.6Y-4.45
X5.6Y-4.55
X5.6Y-4.65
X5.6Y-4.85
X5.6Y-4.95
X5.7Y-3.55
X5.7Y-3.65
X5.7Y-3.75
X5.7Y-3.85
X5.7Y-3.95
X5.7Y-4.05
X5.7Y-4.15
X5.7Y-4.25
X5.7Y-4.35
X5.7Y-4.45
X5.7Y-4.55
X5.7Y-4.65
X5.7Y-4.85
X5.7Y-4.95
X5.75Y-2.75
X5.75Y-2.85
X5.75Y-3.25
X5.75Y-5.25
X5.8Y-3.55
X5.8Y-3.65
X5.8Y-3.75
X5.8Y-3.85
X5.8Y-3.95
X5.8Y-4.05
X5.8Y-4.15
X5.8Y-4.25
X5.8Y-4.35
X5.8Y-4.45
X5.8Y-4.55
X5.8Y-4.65
X5.8Y-4.85
X5.8Y-4.95
X5.85Y-2.55
X5.85Y-5.5
X5.85Y-5.7
X5.9Y-3.55
X5.9Y-3.65
X5.9Y-3.75
X5.9Y-3.85
X5.9Y-3.95
X5.9Y-4.05
X5.9Y-4.15
X5.9Y-4.25
X5.9Y-4.35
X5.9Y-4.45
X5.9Y-4.55
X5.9Y-4.65
X5.9Y-4.85
X5.9Y-4.95
X5.95Y-5.25
X5.95Y-5.35
X6.Y-3.55
X6.Y-3.65
X6.Y-3.75
X6.Y-3.85
X6.Y-3.95
X6.Y-4.05
X6.Y-4.15
X6.Y-4.25
X6.Y-4.35
X6.Y-4.45
X6.Y-4.55
X6.Y-4.65
X6.Y-4.85
X6.Y-4.95
X6.1Y-3.55
X6.1Y-3.65
X6.1Y-3.75
X6.1Y-3.85
X6.1Y-3.95
X6.1Y-4.05
X6.1Y-4.15
X6.1Y-4.25
X6.1Y-4.35
X6.1Y-4.45
X6.1Y-4.55
X6.1Y-4.65
X6.1Y-4.85
X6.1Y-4.95
X6.2Y-3.55
X6.2Y-3.65
X6.2Y-3.75
X6.2Y-3.85
X6.2Y-3.95
X6.2Y-4.05
X6.2Y-4.15
X6.2Y-4.25
X6.2Y-4.35
X6.2Y-4.45
X6.2Y-4.55
X6.2Y-4.65
X6.2Y-4.85
X6.2Y-4.95
T5
X6.Y-2.55
X6.Y-2.65
X6.Y-2.75
X6.Y-3.05
X6.Y-3.15
X6.Y-3.25
T6
X3.4114Y-2.1
X3.5886Y-2.1
T7
X3.2697Y-2.1
X3.7303Y-2.1
T8
X5.515Y-2.276
X5.7Y-2.1579
X5.7Y-2.3941
T9
X2.6Y-2.15
X2.6Y-5.65
X6.1Y-2.15
X6.1Y-5.65
T0
M30
