G04 (created by PCBNEW (2013-07-07 BZR 4022)-stable) date Wed 30 Apr 2014 07:05:42 SAST*
%MOIN*%
G04 Gerber Fmt 3.4, Leading zero omitted, Abs format*
%FSLAX34Y34*%
G01*
G70*
G90*
G04 APERTURE LIST*
%ADD10C,0.00590551*%
%ADD11C,0.0001*%
%ADD12C,0.065*%
%ADD13R,0.065X0.065*%
%ADD14C,0.056*%
%ADD15R,0.1378X0.1378*%
%ADD16C,0.07*%
%ADD17R,0.07X0.07*%
%ADD18C,0.16*%
%ADD19R,0.055X0.055*%
%ADD20C,0.055*%
%ADD21R,0.06X0.0787402*%
%ADD22C,0.145669*%
%ADD23C,0.0511811*%
%ADD24C,0.066*%
%ADD25C,0.04*%
%ADD26C,0.008*%
%ADD27C,0.03*%
%ADD28C,0.024*%
G04 APERTURE END LIST*
G54D10*
G54D11*
G36*
X31943Y-57768D02*
X31923Y-57757D01*
X31876Y-57728D01*
X31811Y-57685D01*
X31733Y-57633D01*
X31655Y-57581D01*
X31591Y-57538D01*
X31546Y-57509D01*
X31527Y-57498D01*
X31517Y-57502D01*
X31480Y-57520D01*
X31426Y-57548D01*
X31395Y-57564D01*
X31346Y-57585D01*
X31321Y-57590D01*
X31317Y-57583D01*
X31299Y-57545D01*
X31271Y-57481D01*
X31234Y-57395D01*
X31191Y-57295D01*
X31146Y-57188D01*
X31100Y-57078D01*
X31056Y-56973D01*
X31018Y-56879D01*
X30987Y-56802D01*
X30967Y-56749D01*
X30959Y-56726D01*
X30961Y-56721D01*
X30986Y-56697D01*
X31029Y-56665D01*
X31122Y-56589D01*
X31214Y-56474D01*
X31270Y-56344D01*
X31289Y-56199D01*
X31273Y-56065D01*
X31220Y-55936D01*
X31130Y-55820D01*
X31021Y-55733D01*
X30893Y-55679D01*
X30750Y-55661D01*
X30613Y-55677D01*
X30481Y-55729D01*
X30365Y-55817D01*
X30316Y-55874D01*
X30248Y-55991D01*
X30210Y-56117D01*
X30206Y-56149D01*
X30211Y-56287D01*
X30252Y-56420D01*
X30325Y-56539D01*
X30427Y-56636D01*
X30439Y-56645D01*
X30486Y-56680D01*
X30518Y-56704D01*
X30542Y-56724D01*
X30366Y-57148D01*
X30338Y-57215D01*
X30290Y-57331D01*
X30247Y-57431D01*
X30214Y-57510D01*
X30190Y-57563D01*
X30180Y-57585D01*
X30179Y-57586D01*
X30163Y-57589D01*
X30131Y-57577D01*
X30072Y-57548D01*
X30033Y-57528D01*
X29988Y-57506D01*
X29967Y-57498D01*
X29950Y-57508D01*
X29907Y-57536D01*
X29844Y-57578D01*
X29768Y-57629D01*
X29696Y-57678D01*
X29630Y-57722D01*
X29581Y-57753D01*
X29558Y-57766D01*
X29554Y-57766D01*
X29533Y-57754D01*
X29495Y-57722D01*
X29437Y-57668D01*
X29356Y-57587D01*
X29343Y-57575D01*
X29276Y-57506D01*
X29222Y-57449D01*
X29185Y-57408D01*
X29172Y-57390D01*
X29172Y-57390D01*
X29184Y-57367D01*
X29214Y-57319D01*
X29258Y-57251D01*
X29312Y-57173D01*
X29452Y-56969D01*
X29375Y-56776D01*
X29352Y-56717D01*
X29322Y-56646D01*
X29299Y-56595D01*
X29288Y-56573D01*
X29267Y-56565D01*
X29214Y-56553D01*
X29138Y-56537D01*
X29047Y-56520D01*
X28960Y-56504D01*
X28882Y-56489D01*
X28825Y-56478D01*
X28800Y-56473D01*
X28794Y-56469D01*
X28788Y-56457D01*
X28785Y-56430D01*
X28783Y-56383D01*
X28782Y-56308D01*
X28782Y-56199D01*
X28782Y-56187D01*
X28783Y-56084D01*
X28785Y-56001D01*
X28788Y-55947D01*
X28791Y-55926D01*
X28792Y-55926D01*
X28816Y-55920D01*
X28871Y-55908D01*
X28950Y-55893D01*
X29043Y-55875D01*
X29049Y-55874D01*
X29142Y-55856D01*
X29220Y-55840D01*
X29275Y-55827D01*
X29298Y-55820D01*
X29303Y-55813D01*
X29321Y-55777D01*
X29348Y-55719D01*
X29379Y-55649D01*
X29409Y-55576D01*
X29436Y-55510D01*
X29453Y-55461D01*
X29459Y-55439D01*
X29458Y-55438D01*
X29444Y-55416D01*
X29412Y-55368D01*
X29367Y-55301D01*
X29313Y-55221D01*
X29309Y-55215D01*
X29255Y-55137D01*
X29212Y-55070D01*
X29183Y-55023D01*
X29172Y-55001D01*
X29172Y-55000D01*
X29190Y-54976D01*
X29230Y-54932D01*
X29287Y-54872D01*
X29356Y-54802D01*
X29378Y-54781D01*
X29455Y-54706D01*
X29508Y-54657D01*
X29541Y-54631D01*
X29557Y-54625D01*
X29557Y-54626D01*
X29581Y-54640D01*
X29631Y-54672D01*
X29698Y-54718D01*
X29778Y-54772D01*
X29784Y-54776D01*
X29862Y-54830D01*
X29928Y-54874D01*
X29974Y-54905D01*
X29995Y-54917D01*
X29998Y-54917D01*
X30030Y-54908D01*
X30086Y-54888D01*
X30155Y-54861D01*
X30228Y-54832D01*
X30294Y-54804D01*
X30344Y-54782D01*
X30367Y-54768D01*
X30368Y-54767D01*
X30376Y-54739D01*
X30390Y-54680D01*
X30406Y-54599D01*
X30425Y-54503D01*
X30428Y-54487D01*
X30445Y-54393D01*
X30460Y-54316D01*
X30471Y-54262D01*
X30477Y-54240D01*
X30490Y-54237D01*
X30536Y-54234D01*
X30606Y-54232D01*
X30691Y-54231D01*
X30780Y-54232D01*
X30867Y-54234D01*
X30941Y-54236D01*
X30994Y-54240D01*
X31016Y-54244D01*
X31017Y-54246D01*
X31025Y-54275D01*
X31038Y-54334D01*
X31055Y-54415D01*
X31073Y-54512D01*
X31077Y-54529D01*
X31094Y-54622D01*
X31110Y-54699D01*
X31121Y-54752D01*
X31127Y-54773D01*
X31136Y-54777D01*
X31174Y-54794D01*
X31237Y-54820D01*
X31315Y-54851D01*
X31495Y-54924D01*
X31716Y-54773D01*
X31736Y-54759D01*
X31816Y-54705D01*
X31881Y-54662D01*
X31926Y-54632D01*
X31945Y-54622D01*
X31947Y-54622D01*
X31969Y-54642D01*
X32012Y-54683D01*
X32072Y-54741D01*
X32142Y-54810D01*
X32193Y-54862D01*
X32254Y-54924D01*
X32293Y-54965D01*
X32314Y-54992D01*
X32321Y-55008D01*
X32319Y-55019D01*
X32305Y-55042D01*
X32273Y-55090D01*
X32227Y-55157D01*
X32173Y-55235D01*
X32129Y-55301D01*
X32081Y-55375D01*
X32050Y-55428D01*
X32039Y-55454D01*
X32042Y-55464D01*
X32057Y-55508D01*
X32084Y-55573D01*
X32117Y-55651D01*
X32194Y-55826D01*
X32308Y-55848D01*
X32378Y-55861D01*
X32475Y-55880D01*
X32568Y-55898D01*
X32713Y-55926D01*
X32718Y-56459D01*
X32696Y-56469D01*
X32674Y-56475D01*
X32620Y-56487D01*
X32544Y-56502D01*
X32453Y-56519D01*
X32376Y-56533D01*
X32298Y-56548D01*
X32242Y-56559D01*
X32218Y-56564D01*
X32211Y-56573D01*
X32192Y-56610D01*
X32164Y-56670D01*
X32133Y-56742D01*
X32102Y-56817D01*
X32075Y-56886D01*
X32056Y-56938D01*
X32048Y-56965D01*
X32059Y-56986D01*
X32088Y-57032D01*
X32131Y-57097D01*
X32184Y-57174D01*
X32237Y-57251D01*
X32282Y-57317D01*
X32313Y-57365D01*
X32326Y-57387D01*
X32319Y-57401D01*
X32288Y-57439D01*
X32230Y-57499D01*
X32143Y-57585D01*
X32129Y-57599D01*
X32060Y-57665D01*
X32002Y-57719D01*
X31961Y-57755D01*
X31943Y-57768D01*
X31943Y-57768D01*
G37*
G54D12*
X50500Y-55000D03*
X50500Y-57000D03*
X53500Y-57000D03*
X53500Y-55000D03*
X55500Y-55000D03*
X55500Y-57000D03*
X58500Y-57000D03*
X58500Y-55000D03*
X30000Y-21000D03*
X28000Y-21000D03*
X28000Y-24000D03*
X30000Y-24000D03*
G54D13*
X26000Y-24000D03*
G54D12*
X26000Y-25000D03*
X26000Y-26000D03*
X26000Y-27000D03*
X26000Y-28000D03*
X26000Y-29000D03*
G54D13*
X50000Y-33500D03*
G54D12*
X50000Y-32500D03*
X50000Y-31500D03*
X50000Y-30500D03*
X50000Y-29500D03*
G54D13*
X32500Y-50000D03*
G54D12*
X32500Y-49000D03*
X32500Y-48000D03*
G54D13*
X32500Y-53000D03*
G54D12*
X32500Y-52000D03*
X32500Y-51000D03*
G54D13*
X47000Y-57000D03*
G54D12*
X46000Y-57000D03*
X45000Y-57000D03*
G54D13*
X36000Y-57000D03*
G54D12*
X37000Y-57000D03*
X38000Y-57000D03*
G54D13*
X52500Y-30500D03*
G54D12*
X52500Y-31500D03*
X52500Y-32500D03*
X54500Y-53500D03*
X50500Y-53500D03*
X59500Y-53500D03*
X55500Y-53500D03*
X41000Y-44500D03*
X42000Y-44500D03*
X55000Y-34000D03*
X56000Y-34000D03*
X41000Y-38500D03*
X42000Y-38500D03*
X41000Y-40500D03*
X42000Y-40500D03*
X41000Y-42500D03*
X42000Y-42500D03*
G54D14*
X40000Y-35500D03*
X40000Y-33500D03*
G54D13*
X40000Y-49500D03*
G54D12*
X40000Y-50500D03*
X40000Y-51500D03*
X40000Y-52500D03*
X40000Y-53500D03*
X40000Y-54500D03*
X40000Y-55500D03*
X40000Y-56500D03*
X43000Y-56500D03*
X43000Y-55500D03*
X43000Y-54500D03*
X43000Y-53500D03*
X43000Y-52500D03*
X43000Y-51500D03*
X43000Y-50500D03*
X43000Y-49500D03*
X55500Y-32500D03*
X57500Y-32500D03*
X28000Y-25000D03*
X30000Y-25000D03*
X47000Y-48500D03*
X47000Y-46500D03*
X31500Y-37500D03*
X31500Y-35500D03*
X59500Y-52500D03*
X57500Y-52500D03*
X54500Y-52500D03*
X52500Y-52500D03*
X38000Y-47500D03*
X36000Y-47500D03*
G54D13*
X48500Y-48500D03*
G54D12*
X48500Y-49500D03*
G54D13*
X43500Y-47500D03*
G54D12*
X43500Y-46500D03*
G54D13*
X52500Y-26000D03*
G54D12*
X52500Y-25000D03*
G54D13*
X57500Y-27500D03*
G54D12*
X57500Y-28500D03*
G54D13*
X55000Y-31500D03*
G54D12*
X55000Y-30500D03*
G54D13*
X55000Y-27500D03*
G54D12*
X55000Y-28500D03*
G54D13*
X52500Y-27500D03*
G54D12*
X52500Y-28500D03*
X42750Y-33500D03*
X41750Y-33500D03*
X42750Y-35500D03*
X41750Y-35500D03*
G54D15*
X57000Y-23941D03*
X57000Y-21579D03*
X55150Y-22760D03*
G54D12*
X26000Y-54500D03*
X26000Y-53500D03*
X26000Y-52500D03*
X26000Y-51500D03*
X26000Y-50500D03*
X26000Y-49500D03*
X26000Y-48500D03*
G54D13*
X26000Y-47500D03*
X26000Y-47500D03*
G54D12*
X26000Y-48500D03*
X26000Y-49500D03*
X26000Y-50500D03*
X26000Y-51500D03*
X26000Y-52500D03*
X26000Y-53500D03*
X26000Y-54500D03*
X27000Y-54500D03*
X27000Y-53500D03*
X27000Y-52500D03*
X27000Y-51500D03*
X27000Y-50500D03*
X27000Y-49500D03*
X27000Y-48500D03*
G54D13*
X27000Y-47500D03*
X25000Y-47500D03*
X27000Y-47500D03*
G54D12*
X25000Y-48500D03*
X27000Y-48500D03*
X25000Y-49500D03*
X27000Y-49500D03*
X25000Y-50500D03*
X27000Y-50500D03*
X25000Y-51500D03*
X27000Y-51500D03*
X25000Y-52500D03*
X27000Y-52500D03*
X25000Y-53500D03*
X27000Y-53500D03*
X25000Y-54500D03*
X27000Y-54500D03*
G54D13*
X51000Y-48500D03*
G54D12*
X52000Y-48500D03*
X53000Y-48500D03*
X54000Y-48500D03*
X55000Y-48500D03*
X56000Y-48500D03*
X57000Y-48500D03*
X58000Y-48500D03*
X59000Y-48500D03*
X60000Y-48500D03*
X61000Y-48500D03*
X62000Y-48500D03*
G54D13*
X51000Y-49500D03*
G54D12*
X52000Y-49500D03*
X53000Y-49500D03*
X54000Y-49500D03*
X55000Y-49500D03*
X56000Y-49500D03*
X57000Y-49500D03*
X58000Y-49500D03*
X59000Y-49500D03*
X60000Y-49500D03*
X61000Y-49500D03*
X62000Y-49500D03*
X47000Y-28500D03*
X47000Y-29500D03*
X47000Y-30500D03*
X47000Y-31500D03*
X47000Y-32500D03*
X47000Y-33500D03*
X47000Y-34500D03*
G54D13*
X47000Y-35500D03*
X47000Y-35500D03*
G54D12*
X47000Y-34500D03*
X47000Y-33500D03*
X47000Y-32500D03*
X47000Y-31500D03*
X47000Y-30500D03*
X47000Y-29500D03*
X47000Y-28500D03*
X46000Y-28500D03*
X46000Y-29500D03*
X46000Y-30500D03*
X46000Y-31500D03*
X46000Y-32500D03*
X46000Y-33500D03*
X46000Y-34500D03*
G54D13*
X46000Y-35500D03*
X48000Y-35500D03*
X46000Y-35500D03*
G54D12*
X48000Y-34500D03*
X46000Y-34500D03*
X48000Y-33500D03*
X46000Y-33500D03*
X48000Y-32500D03*
X46000Y-32500D03*
X48000Y-31500D03*
X46000Y-31500D03*
X48000Y-30500D03*
X46000Y-30500D03*
X48000Y-29500D03*
X46000Y-29500D03*
X48000Y-28500D03*
X46000Y-28500D03*
X47000Y-37500D03*
X47000Y-38500D03*
X47000Y-39500D03*
X47000Y-40500D03*
X47000Y-41500D03*
X47000Y-42500D03*
X47000Y-43500D03*
G54D13*
X47000Y-44500D03*
X47000Y-44500D03*
G54D12*
X47000Y-43500D03*
X47000Y-42500D03*
X47000Y-41500D03*
X47000Y-40500D03*
X47000Y-39500D03*
X47000Y-38500D03*
X47000Y-37500D03*
X46000Y-37500D03*
X46000Y-38500D03*
X46000Y-39500D03*
X46000Y-40500D03*
X46000Y-41500D03*
X46000Y-42500D03*
X46000Y-43500D03*
G54D13*
X46000Y-44500D03*
X48000Y-44500D03*
X46000Y-44500D03*
G54D12*
X48000Y-43500D03*
X46000Y-43500D03*
X48000Y-42500D03*
X46000Y-42500D03*
X48000Y-41500D03*
X46000Y-41500D03*
X48000Y-40500D03*
X46000Y-40500D03*
X48000Y-39500D03*
X46000Y-39500D03*
X48000Y-38500D03*
X46000Y-38500D03*
X48000Y-37500D03*
X46000Y-37500D03*
G54D13*
X26000Y-32500D03*
G54D12*
X26000Y-33500D03*
X26000Y-34500D03*
X26000Y-35500D03*
X26000Y-36500D03*
X26000Y-37500D03*
X27000Y-37500D03*
X27000Y-36500D03*
X27000Y-35500D03*
X27000Y-34500D03*
X27000Y-33500D03*
G54D13*
X27000Y-32500D03*
X25000Y-32500D03*
X27000Y-32500D03*
G54D12*
X25000Y-33500D03*
X27000Y-33500D03*
X25000Y-34500D03*
X27000Y-34500D03*
X25000Y-35500D03*
X27000Y-35500D03*
X25000Y-36500D03*
X27000Y-36500D03*
X25000Y-37500D03*
X27000Y-37500D03*
G54D13*
X26000Y-39500D03*
G54D12*
X26000Y-40500D03*
X26000Y-41500D03*
X26000Y-42500D03*
X26000Y-43500D03*
X26000Y-44500D03*
X27000Y-44500D03*
X27000Y-43500D03*
X27000Y-42500D03*
X27000Y-41500D03*
X27000Y-40500D03*
G54D13*
X27000Y-39500D03*
X25000Y-39500D03*
X27000Y-39500D03*
G54D12*
X25000Y-40500D03*
X27000Y-40500D03*
X25000Y-41500D03*
X27000Y-41500D03*
X25000Y-42500D03*
X27000Y-42500D03*
X25000Y-43500D03*
X27000Y-43500D03*
X25000Y-44500D03*
X27000Y-44500D03*
G54D16*
X60000Y-25500D03*
G54D17*
X60000Y-26500D03*
G54D16*
X60000Y-27500D03*
X38000Y-48500D03*
G54D17*
X38000Y-52500D03*
G54D16*
X48000Y-50500D03*
G54D17*
X48000Y-54500D03*
G54D16*
X45000Y-48500D03*
G54D17*
X45000Y-52500D03*
G54D16*
X47000Y-54500D03*
G54D17*
X47000Y-50500D03*
G54D16*
X46000Y-52500D03*
G54D17*
X46000Y-48500D03*
G54D16*
X35000Y-50500D03*
G54D17*
X35000Y-54500D03*
G54D16*
X36000Y-54500D03*
G54D17*
X36000Y-50500D03*
G54D16*
X37000Y-52500D03*
G54D17*
X37000Y-48500D03*
G54D16*
X54500Y-25500D03*
G54D17*
X58500Y-25500D03*
G54D13*
X42750Y-34500D03*
G54D18*
X26000Y-21500D03*
X61000Y-21500D03*
X26000Y-56500D03*
X61000Y-56500D03*
G54D19*
X32500Y-26500D03*
G54D20*
X32500Y-27500D03*
X32500Y-28500D03*
X32500Y-29500D03*
X32500Y-30500D03*
X32500Y-31500D03*
X32500Y-32500D03*
X32500Y-33500D03*
X32500Y-34500D03*
X32500Y-35500D03*
X32500Y-36500D03*
X32500Y-37500D03*
X32500Y-38500D03*
X32500Y-39500D03*
X32500Y-40500D03*
X32500Y-41500D03*
X32500Y-42500D03*
X32500Y-43500D03*
X32500Y-44500D03*
X32500Y-45500D03*
X38500Y-45500D03*
X38500Y-44500D03*
X38500Y-43500D03*
X38500Y-42500D03*
X38500Y-41500D03*
X38500Y-40500D03*
X38500Y-39500D03*
X38500Y-38500D03*
X38500Y-37500D03*
X38500Y-36500D03*
X38500Y-35500D03*
X38500Y-34500D03*
X38500Y-33500D03*
X38500Y-32500D03*
X38500Y-31500D03*
X38500Y-30500D03*
X38500Y-29500D03*
X38500Y-28500D03*
X38500Y-27500D03*
X38500Y-26500D03*
G54D21*
X33622Y-22023D03*
X34606Y-22023D03*
X35393Y-22023D03*
X36377Y-22023D03*
G54D22*
X37303Y-21000D03*
X32696Y-21000D03*
G54D23*
X35885Y-21000D03*
X34114Y-21000D03*
G54D20*
X43000Y-44500D03*
X43000Y-41500D03*
X44000Y-40500D03*
X44000Y-37500D03*
X43000Y-40500D03*
X43000Y-37500D03*
X44000Y-44500D03*
X44000Y-41500D03*
X29000Y-26000D03*
X29000Y-29000D03*
X30000Y-29000D03*
X30000Y-26000D03*
X28000Y-26000D03*
X28000Y-29000D03*
X57000Y-34000D03*
X60000Y-34000D03*
G54D19*
X40500Y-22500D03*
G54D20*
X40500Y-23500D03*
X40500Y-24500D03*
G54D19*
X39500Y-22500D03*
G54D20*
X39500Y-23500D03*
X39500Y-24500D03*
X53500Y-24000D03*
X53500Y-21000D03*
X52500Y-24000D03*
X52500Y-21000D03*
G54D24*
X51000Y-21500D03*
X50000Y-21500D03*
X51000Y-23500D03*
X50000Y-23500D03*
G54D12*
X57000Y-46500D03*
X57000Y-45500D03*
X57000Y-44500D03*
X57000Y-43500D03*
X57000Y-42500D03*
X57000Y-41500D03*
X57000Y-40500D03*
X57000Y-39500D03*
X57000Y-38500D03*
X57000Y-37500D03*
X57000Y-36500D03*
X57000Y-35500D03*
X58000Y-46500D03*
X58000Y-45500D03*
X58000Y-44500D03*
X58000Y-43500D03*
X58000Y-42500D03*
X58000Y-41500D03*
X58000Y-40500D03*
X58000Y-39500D03*
X58000Y-38500D03*
X58000Y-37500D03*
X58000Y-36500D03*
X58000Y-35500D03*
X62000Y-46500D03*
X62000Y-45500D03*
X62000Y-44500D03*
X62000Y-43500D03*
X62000Y-42500D03*
X62000Y-41500D03*
X62000Y-40500D03*
X62000Y-39500D03*
X62000Y-38500D03*
X62000Y-37500D03*
X62000Y-36500D03*
X62000Y-35500D03*
X59000Y-46500D03*
X59000Y-45500D03*
X59000Y-44500D03*
X59000Y-43500D03*
X59000Y-42500D03*
X59000Y-41500D03*
X59000Y-40500D03*
X59000Y-39500D03*
X59000Y-38500D03*
X59000Y-37500D03*
X59000Y-36500D03*
X59000Y-35500D03*
X60000Y-46500D03*
X60000Y-45500D03*
X60000Y-44500D03*
X60000Y-43500D03*
X60000Y-42500D03*
X60000Y-41500D03*
X60000Y-40500D03*
X60000Y-39500D03*
X60000Y-38500D03*
X60000Y-37500D03*
X60000Y-36500D03*
X60000Y-35500D03*
X61000Y-46500D03*
X61000Y-45500D03*
X61000Y-44500D03*
X61000Y-43500D03*
X61000Y-42500D03*
X61000Y-41500D03*
X61000Y-40500D03*
X61000Y-39500D03*
X61000Y-38500D03*
X61000Y-37500D03*
X61000Y-36500D03*
X61000Y-35500D03*
X51000Y-46500D03*
X51000Y-45500D03*
X51000Y-44500D03*
X51000Y-43500D03*
X51000Y-42500D03*
X51000Y-41500D03*
X51000Y-40500D03*
X51000Y-39500D03*
X51000Y-38500D03*
X51000Y-37500D03*
X51000Y-36500D03*
X51000Y-35500D03*
X52000Y-46500D03*
X52000Y-45500D03*
X52000Y-44500D03*
X52000Y-43500D03*
X52000Y-42500D03*
X52000Y-41500D03*
X52000Y-40500D03*
X52000Y-39500D03*
X52000Y-38500D03*
X52000Y-37500D03*
X52000Y-36500D03*
X52000Y-35500D03*
X56000Y-46500D03*
X56000Y-45500D03*
X56000Y-44500D03*
X56000Y-43500D03*
X56000Y-42500D03*
X56000Y-41500D03*
X56000Y-40500D03*
X56000Y-39500D03*
X56000Y-38500D03*
X56000Y-37500D03*
X56000Y-36500D03*
X56000Y-35500D03*
X54000Y-46500D03*
X54000Y-45500D03*
X54000Y-44500D03*
X54000Y-43500D03*
X54000Y-42500D03*
X54000Y-41500D03*
X54000Y-40500D03*
X54000Y-39500D03*
X54000Y-38500D03*
X54000Y-37500D03*
X54000Y-36500D03*
X54000Y-35500D03*
X55000Y-46500D03*
X55000Y-45500D03*
X55000Y-44500D03*
X55000Y-43500D03*
X55000Y-42500D03*
X55000Y-41500D03*
X55000Y-40500D03*
X55000Y-39500D03*
X55000Y-38500D03*
X55000Y-37500D03*
X55000Y-36500D03*
X55000Y-35500D03*
X53000Y-46500D03*
X53000Y-45500D03*
X53000Y-44500D03*
X53000Y-43500D03*
X53000Y-42500D03*
X53000Y-41500D03*
X53000Y-40500D03*
X53000Y-39500D03*
X53000Y-38500D03*
X53000Y-37500D03*
X53000Y-36500D03*
X53000Y-35500D03*
G54D20*
X49250Y-26500D03*
X48250Y-26500D03*
G54D19*
X51000Y-47500D03*
G54D20*
X52000Y-47500D03*
X53000Y-47500D03*
X54000Y-47500D03*
X55000Y-47500D03*
X56000Y-47500D03*
X57000Y-47500D03*
X58000Y-47500D03*
X59000Y-47500D03*
X60000Y-47500D03*
X61000Y-47500D03*
X62000Y-47500D03*
X32000Y-24000D03*
X35000Y-24000D03*
X27000Y-30500D03*
X29000Y-30500D03*
X32000Y-23000D03*
X34000Y-23000D03*
G54D16*
X60000Y-30500D03*
G54D17*
X60000Y-31500D03*
G54D16*
X60000Y-32500D03*
G54D19*
X57500Y-31500D03*
G54D20*
X57500Y-30500D03*
G54D14*
X48500Y-24500D03*
X48500Y-22500D03*
G54D20*
X31500Y-47000D03*
X31500Y-45000D03*
X43000Y-26500D03*
X45000Y-26500D03*
X43000Y-31500D03*
X41000Y-31500D03*
X46000Y-26500D03*
X47000Y-26500D03*
X41500Y-21500D03*
X41500Y-23500D03*
G54D25*
X28000Y-42750D03*
X28500Y-45750D03*
X29000Y-46250D03*
X41500Y-24500D03*
X29250Y-52000D03*
X42250Y-20750D03*
X50250Y-51750D03*
X43000Y-36500D03*
X44250Y-20750D03*
X45000Y-20750D03*
X47250Y-21500D03*
X41750Y-29500D03*
X40500Y-28750D03*
X34250Y-31750D03*
X35000Y-44000D03*
X34250Y-37500D03*
X33500Y-25000D03*
X37500Y-23000D03*
X35000Y-25250D03*
X49000Y-28250D03*
X51000Y-33750D03*
G54D26*
X28000Y-42750D02*
X28000Y-50000D01*
X27000Y-50500D02*
X27500Y-50500D01*
X28000Y-50000D02*
X27500Y-50500D01*
X27500Y-51500D02*
X28500Y-50500D01*
X28500Y-50500D02*
X28500Y-45750D01*
X27000Y-51500D02*
X27500Y-51500D01*
X27500Y-52500D02*
X27000Y-52500D01*
X29000Y-51000D02*
X27500Y-52500D01*
X29000Y-50250D02*
X29000Y-51000D01*
X29000Y-46250D02*
X29000Y-50250D01*
X38500Y-41500D02*
X37000Y-41500D01*
X41500Y-25000D02*
X41500Y-24500D01*
X41250Y-25250D02*
X41500Y-25000D01*
X36500Y-25250D02*
X41250Y-25250D01*
X36000Y-25750D02*
X36500Y-25250D01*
X36000Y-40500D02*
X36000Y-25750D01*
X37000Y-41500D02*
X36000Y-40500D01*
X29250Y-52000D02*
X29250Y-53000D01*
X29250Y-53000D02*
X27750Y-54500D01*
X27750Y-54500D02*
X27000Y-54500D01*
X42250Y-24750D02*
X42000Y-25000D01*
X42250Y-24500D02*
X42250Y-24750D01*
X42250Y-20750D02*
X42250Y-24500D01*
X41500Y-25500D02*
X42000Y-25000D01*
X38500Y-40500D02*
X37250Y-40500D01*
X36250Y-26000D02*
X36750Y-25500D01*
X36250Y-39500D02*
X36250Y-26000D01*
X37250Y-40500D02*
X36250Y-39500D01*
X36750Y-25500D02*
X41500Y-25500D01*
X40500Y-24500D02*
X40000Y-25000D01*
X36750Y-42500D02*
X38500Y-42500D01*
X35750Y-41500D02*
X36750Y-42500D01*
X35750Y-25500D02*
X35750Y-41500D01*
X36250Y-25000D02*
X35750Y-25500D01*
X36750Y-25000D02*
X36250Y-25000D01*
X40000Y-25000D02*
X36750Y-25000D01*
X38500Y-43500D02*
X36750Y-43500D01*
X36250Y-24500D02*
X39500Y-24500D01*
X35500Y-25250D02*
X36250Y-24500D01*
X35500Y-42250D02*
X35500Y-25250D01*
X36750Y-43500D02*
X35500Y-42250D01*
X32500Y-44500D02*
X32000Y-45000D01*
X39250Y-46250D02*
X41000Y-44500D01*
X32500Y-46250D02*
X39250Y-46250D01*
X32000Y-45750D02*
X32500Y-46250D01*
X32000Y-45000D02*
X32000Y-45750D01*
X41000Y-42500D02*
X40500Y-42500D01*
X36750Y-45500D02*
X32500Y-45500D01*
X37250Y-46000D02*
X36750Y-45500D01*
X39000Y-46000D02*
X37250Y-46000D01*
X39750Y-45250D02*
X39000Y-46000D01*
X39750Y-43250D02*
X39750Y-45250D01*
X40500Y-42500D02*
X39750Y-43250D01*
X41000Y-40500D02*
X40000Y-40500D01*
X39000Y-45500D02*
X38500Y-45500D01*
X39500Y-45000D02*
X39000Y-45500D01*
X39500Y-41000D02*
X39500Y-45000D01*
X40000Y-40500D02*
X39500Y-41000D01*
X38500Y-44500D02*
X38750Y-44500D01*
X39750Y-38500D02*
X41000Y-38500D01*
X39250Y-39000D02*
X39750Y-38500D01*
X39250Y-44000D02*
X39250Y-39000D01*
X38750Y-44500D02*
X39250Y-44000D01*
X50500Y-53500D02*
X50500Y-53000D01*
X51000Y-52500D02*
X52500Y-52500D01*
X50500Y-53000D02*
X51000Y-52500D01*
X53500Y-55000D02*
X50500Y-55000D01*
X50500Y-55000D02*
X50500Y-53500D01*
X56000Y-52500D02*
X55750Y-52500D01*
X55000Y-51750D02*
X50250Y-51750D01*
X55750Y-52500D02*
X55000Y-51750D01*
X55500Y-53500D02*
X55500Y-53000D01*
X56000Y-52500D02*
X57500Y-52500D01*
X55500Y-53000D02*
X56000Y-52500D01*
X55500Y-55000D02*
X55500Y-53500D01*
X55500Y-55000D02*
X58500Y-55000D01*
X43000Y-36500D02*
X38500Y-36500D01*
X45250Y-23500D02*
X50000Y-23500D01*
X44250Y-22500D02*
X45250Y-23500D01*
X44250Y-20750D02*
X44250Y-22500D01*
X45000Y-20750D02*
X49250Y-20750D01*
X49250Y-20750D02*
X50000Y-21500D01*
G54D27*
X31500Y-45000D02*
X31500Y-44000D01*
X32000Y-43500D02*
X32500Y-43500D01*
X31500Y-44000D02*
X32000Y-43500D01*
G54D26*
X26000Y-24000D02*
X25250Y-24750D01*
X26000Y-31750D02*
X26000Y-32500D01*
X25250Y-31000D02*
X26000Y-31750D01*
X25250Y-24750D02*
X25250Y-31000D01*
X25000Y-32500D02*
X26000Y-32500D01*
X26000Y-32500D02*
X27000Y-32500D01*
G54D27*
X42750Y-34500D02*
X44000Y-34500D01*
X42750Y-34500D02*
X39500Y-34500D01*
X39500Y-34500D02*
X38500Y-35500D01*
X42750Y-34500D02*
X42750Y-35500D01*
X42750Y-34500D02*
X42750Y-33500D01*
G54D26*
X49250Y-26500D02*
X50500Y-25250D01*
X48500Y-21500D02*
X47250Y-21500D01*
X49500Y-22500D02*
X48500Y-21500D01*
X50250Y-22500D02*
X49500Y-22500D01*
X50500Y-22750D02*
X50250Y-22500D01*
X50500Y-23250D02*
X50500Y-22750D01*
X50500Y-25250D02*
X50500Y-23250D01*
G54D27*
X43000Y-26500D02*
X42250Y-26500D01*
X43000Y-30250D02*
X43000Y-31500D01*
X42250Y-29500D02*
X43000Y-30250D01*
X41750Y-29500D02*
X42250Y-29500D01*
X40500Y-28250D02*
X40500Y-28750D01*
X42250Y-26500D02*
X40500Y-28250D01*
X46750Y-27250D02*
X43750Y-27250D01*
X43750Y-27250D02*
X43000Y-26500D01*
X49250Y-26500D02*
X48500Y-27250D01*
X46750Y-27250D02*
X46000Y-26500D01*
X48500Y-27250D02*
X46750Y-27250D01*
X57500Y-32500D02*
X58250Y-32500D01*
X59500Y-30500D02*
X60000Y-30500D01*
X59000Y-31000D02*
X59500Y-30500D01*
X59000Y-32000D02*
X59000Y-31000D01*
X58500Y-32500D02*
X59000Y-32000D01*
X58250Y-32500D02*
X58500Y-32500D01*
X34250Y-37500D02*
X34250Y-31750D01*
X29000Y-30500D02*
X29000Y-30000D01*
X29000Y-30000D02*
X29250Y-29750D01*
X29250Y-29750D02*
X30000Y-29000D01*
X34250Y-43250D02*
X34250Y-37500D01*
X35000Y-44000D02*
X34250Y-43250D01*
X43000Y-41500D02*
X44000Y-41500D01*
X33500Y-25000D02*
X34500Y-24000D01*
X35000Y-24000D02*
X34500Y-24000D01*
X30000Y-29000D02*
X31000Y-28000D01*
X30250Y-25000D02*
X30000Y-25000D01*
X31000Y-25750D02*
X30250Y-25000D01*
X31000Y-28000D02*
X31000Y-25750D01*
X45000Y-37500D02*
X45000Y-36500D01*
X44000Y-34500D02*
X44000Y-35500D01*
X45000Y-36500D02*
X44000Y-35500D01*
X44000Y-37500D02*
X45000Y-37500D01*
X26000Y-35500D02*
X27000Y-35500D01*
X27000Y-36500D02*
X27000Y-35500D01*
X31500Y-37500D02*
X28250Y-37500D01*
X27250Y-36500D02*
X28250Y-37500D01*
X27250Y-36500D02*
X27000Y-36500D01*
X32500Y-37500D02*
X31500Y-37500D01*
X35000Y-24000D02*
X35500Y-24000D01*
X36377Y-23122D02*
X36377Y-22023D01*
X35500Y-24000D02*
X36377Y-23122D01*
X43000Y-52500D02*
X45000Y-50500D01*
X45000Y-48500D02*
X45000Y-50500D01*
X46250Y-51750D02*
X49000Y-51750D01*
X45000Y-50500D02*
X46250Y-51750D01*
X48500Y-48500D02*
X47000Y-48500D01*
X51000Y-48500D02*
X48500Y-48500D01*
X58500Y-57000D02*
X55500Y-57000D01*
X55500Y-57000D02*
X53500Y-57000D01*
X53500Y-57000D02*
X50500Y-57000D01*
X50500Y-57000D02*
X49750Y-57000D01*
X49750Y-57000D02*
X49000Y-56250D01*
X49000Y-56250D02*
X49000Y-51750D01*
X49000Y-51750D02*
X49000Y-51500D01*
X49000Y-51500D02*
X48000Y-50500D01*
X44000Y-33500D02*
X44000Y-34500D01*
X44000Y-32500D02*
X44000Y-33500D01*
X43000Y-31500D02*
X44000Y-32500D01*
X43000Y-37500D02*
X44000Y-37500D01*
X44000Y-41500D02*
X45000Y-41500D01*
X43750Y-46500D02*
X43500Y-46500D01*
X45000Y-45250D02*
X43750Y-46500D01*
X45000Y-41500D02*
X45000Y-45250D01*
X45000Y-37500D02*
X45000Y-41500D01*
X51000Y-48500D02*
X52000Y-48500D01*
X52000Y-48500D02*
X53000Y-48500D01*
X53000Y-48500D02*
X54000Y-48500D01*
X54000Y-48500D02*
X55000Y-48500D01*
X55000Y-48500D02*
X56000Y-48500D01*
X56000Y-48500D02*
X57000Y-48500D01*
X57000Y-48500D02*
X58000Y-48500D01*
X58000Y-48500D02*
X59000Y-48500D01*
X59000Y-48500D02*
X60000Y-48500D01*
X60000Y-48500D02*
X61000Y-48500D01*
X61000Y-48500D02*
X62000Y-48500D01*
X25000Y-36500D02*
X26000Y-36500D01*
X26000Y-36500D02*
X27000Y-36500D01*
X25000Y-35500D02*
X26000Y-35500D01*
X34000Y-23000D02*
X34000Y-23250D01*
X34750Y-24000D02*
X35000Y-24000D01*
X34000Y-23250D02*
X34750Y-24000D01*
X43000Y-53500D02*
X43000Y-52500D01*
X40000Y-53500D02*
X43000Y-53500D01*
X40000Y-53500D02*
X40000Y-52500D01*
X43000Y-52500D02*
X40000Y-52500D01*
G54D26*
X51000Y-21500D02*
X52000Y-21500D01*
X52000Y-21500D02*
X52500Y-21000D01*
X42000Y-38500D02*
X43000Y-38500D01*
X44000Y-39500D02*
X44000Y-40500D01*
X43000Y-38500D02*
X44000Y-39500D01*
X42000Y-40500D02*
X43000Y-40500D01*
X42000Y-42500D02*
X43000Y-42500D01*
X44000Y-43500D02*
X44000Y-44500D01*
X43000Y-42500D02*
X44000Y-43500D01*
X43000Y-44500D02*
X42000Y-44500D01*
G54D27*
X57000Y-39500D02*
X57000Y-38500D01*
X57000Y-38500D02*
X57000Y-37500D01*
X57000Y-37500D02*
X57000Y-36500D01*
X57000Y-36500D02*
X57000Y-35500D01*
X57000Y-42500D02*
X57000Y-43500D01*
X57000Y-43500D02*
X57000Y-44500D01*
X57000Y-44500D02*
X57000Y-45500D01*
X57000Y-45500D02*
X57000Y-46500D01*
X58000Y-42500D02*
X58000Y-43500D01*
X58000Y-43500D02*
X58000Y-44500D01*
X58000Y-44500D02*
X58000Y-45500D01*
X58000Y-45500D02*
X58000Y-46500D01*
X58000Y-35500D02*
X58000Y-36500D01*
X58000Y-36500D02*
X58000Y-37500D01*
X58000Y-37500D02*
X58000Y-38500D01*
X58000Y-38500D02*
X58000Y-39500D01*
X55000Y-42500D02*
X55000Y-43500D01*
X55000Y-43500D02*
X55000Y-44500D01*
X55000Y-44500D02*
X55000Y-45500D01*
X55000Y-45500D02*
X55000Y-46500D01*
X62000Y-41500D02*
X61000Y-41500D01*
X61000Y-41500D02*
X60000Y-41500D01*
X60000Y-41500D02*
X59000Y-41500D01*
X59000Y-41500D02*
X58000Y-41500D01*
X58000Y-41500D02*
X57000Y-41500D01*
X57000Y-41500D02*
X56000Y-41500D01*
X56000Y-41500D02*
X55000Y-41500D01*
X55000Y-41500D02*
X54000Y-41500D01*
X54000Y-41500D02*
X53000Y-41500D01*
X53000Y-41500D02*
X52000Y-41500D01*
X52000Y-41500D02*
X51000Y-41500D01*
X51000Y-41500D02*
X51500Y-41500D01*
X55000Y-39500D02*
X55000Y-38500D01*
X55000Y-38500D02*
X55000Y-37500D01*
X55000Y-37500D02*
X55000Y-36500D01*
X55000Y-36500D02*
X55000Y-35500D01*
X56000Y-46500D02*
X56000Y-45500D01*
X56000Y-45500D02*
X56000Y-44500D01*
X56000Y-44500D02*
X56000Y-43500D01*
X56000Y-43500D02*
X56000Y-42500D01*
X56000Y-35500D02*
X56000Y-37000D01*
X56000Y-37000D02*
X56000Y-36500D01*
X56000Y-36500D02*
X56000Y-37500D01*
X56000Y-37500D02*
X56000Y-38500D01*
X56000Y-38500D02*
X56000Y-39500D01*
X61000Y-46500D02*
X61000Y-45500D01*
X61000Y-45500D02*
X61000Y-44500D01*
X61000Y-44500D02*
X61000Y-43500D01*
X61000Y-43500D02*
X61000Y-42500D01*
X61000Y-39500D02*
X61000Y-38500D01*
X61000Y-38500D02*
X61000Y-37500D01*
X61000Y-37500D02*
X61000Y-36500D01*
X61000Y-36500D02*
X61000Y-35500D01*
X62000Y-42500D02*
X62000Y-43500D01*
X62000Y-43500D02*
X62000Y-44500D01*
X62000Y-44500D02*
X62000Y-45500D01*
X62000Y-45500D02*
X62000Y-46500D01*
X62000Y-35500D02*
X62000Y-36500D01*
X62000Y-36500D02*
X62000Y-37500D01*
X62000Y-37500D02*
X62000Y-38500D01*
X62000Y-38500D02*
X62000Y-39500D01*
X59000Y-46500D02*
X59000Y-45500D01*
X59000Y-45500D02*
X59000Y-44500D01*
X59000Y-44500D02*
X59000Y-43500D01*
X59000Y-43500D02*
X59000Y-42500D01*
X59000Y-39500D02*
X59000Y-38500D01*
X59000Y-38500D02*
X59000Y-37500D01*
X59000Y-37500D02*
X59000Y-36500D01*
X59000Y-36500D02*
X59000Y-35500D01*
X60000Y-42500D02*
X60000Y-43500D01*
X60000Y-43500D02*
X60000Y-44500D01*
X60000Y-44500D02*
X60000Y-45500D01*
X60000Y-45500D02*
X60000Y-46500D01*
X60000Y-35500D02*
X60000Y-36500D01*
X60000Y-36500D02*
X60000Y-37500D01*
X60000Y-37500D02*
X60000Y-38500D01*
X60000Y-38500D02*
X60000Y-39500D01*
X53000Y-42500D02*
X53000Y-43500D01*
X53000Y-43500D02*
X53000Y-44500D01*
X53000Y-44500D02*
X53000Y-45500D01*
X53000Y-45500D02*
X53000Y-46500D01*
X53000Y-39500D02*
X53000Y-38500D01*
X53000Y-38500D02*
X53000Y-37500D01*
X53000Y-37500D02*
X53000Y-36500D01*
X53000Y-36500D02*
X53000Y-35500D01*
X54000Y-46500D02*
X54000Y-45500D01*
X54000Y-45500D02*
X54000Y-44500D01*
X54000Y-44500D02*
X54000Y-43500D01*
X54000Y-43500D02*
X54000Y-42500D01*
X51000Y-40500D02*
X52000Y-40500D01*
X52000Y-40500D02*
X53000Y-40500D01*
X53000Y-40500D02*
X54000Y-40500D01*
X54000Y-40500D02*
X55000Y-40500D01*
X55000Y-40500D02*
X56000Y-40500D01*
X56000Y-40500D02*
X57000Y-40500D01*
X57000Y-40500D02*
X58000Y-40500D01*
X58000Y-40500D02*
X59000Y-40500D01*
X59000Y-40500D02*
X60000Y-40500D01*
X60000Y-40500D02*
X61000Y-40500D01*
X61000Y-40500D02*
X62000Y-40500D01*
X54000Y-35500D02*
X54000Y-36500D01*
X54000Y-36500D02*
X54000Y-37500D01*
X54000Y-37500D02*
X54000Y-38500D01*
X54000Y-38500D02*
X54000Y-39500D01*
X52000Y-46500D02*
X52000Y-45500D01*
X52000Y-45500D02*
X52000Y-44500D01*
X52000Y-44500D02*
X52000Y-43500D01*
X52000Y-43500D02*
X52000Y-42500D01*
X51000Y-42500D02*
X51000Y-43500D01*
X51000Y-43500D02*
X51000Y-44500D01*
X51000Y-44500D02*
X51000Y-45500D01*
X51000Y-45500D02*
X51000Y-46500D01*
X51000Y-35500D02*
X51000Y-36500D01*
X51000Y-36500D02*
X51000Y-37500D01*
X51000Y-37500D02*
X51000Y-38500D01*
X51000Y-38500D02*
X51000Y-39500D01*
X52000Y-35500D02*
X52000Y-36500D01*
X52000Y-36500D02*
X52000Y-37500D01*
X52000Y-37500D02*
X52000Y-38500D01*
X52000Y-38500D02*
X52000Y-39500D01*
X52500Y-30500D02*
X53750Y-29250D01*
X53750Y-28750D02*
X55000Y-27500D01*
X53750Y-29250D02*
X53750Y-28750D01*
X54500Y-25500D02*
X56500Y-25500D01*
X57000Y-25000D02*
X57000Y-23941D01*
X56500Y-25500D02*
X57000Y-25000D01*
G54D26*
X34750Y-51500D02*
X39000Y-51500D01*
X33500Y-49000D02*
X33750Y-49250D01*
X33750Y-49250D02*
X33750Y-50500D01*
X33750Y-50500D02*
X34750Y-51500D01*
X32500Y-49000D02*
X33500Y-49000D01*
X39000Y-51500D02*
X40000Y-50500D01*
X34750Y-51250D02*
X37750Y-51250D01*
X32000Y-49500D02*
X32000Y-48750D01*
X32000Y-48750D02*
X32250Y-48500D01*
X32250Y-48500D02*
X33750Y-48500D01*
X33750Y-48500D02*
X34000Y-48750D01*
X34000Y-48750D02*
X34000Y-50500D01*
X34000Y-50500D02*
X34750Y-51250D01*
X32500Y-50000D02*
X32000Y-49500D01*
X39500Y-49500D02*
X40000Y-49500D01*
X37750Y-51250D02*
X39500Y-49500D01*
X32500Y-51000D02*
X33250Y-51000D01*
X42500Y-50500D02*
X42000Y-51000D01*
X42000Y-51000D02*
X42000Y-51750D01*
X42000Y-51750D02*
X41750Y-52000D01*
X42500Y-50500D02*
X43000Y-50500D01*
X34250Y-52000D02*
X41750Y-52000D01*
X33250Y-51000D02*
X34250Y-52000D01*
X43000Y-55500D02*
X42250Y-55500D01*
X33000Y-52000D02*
X32500Y-52000D01*
X33250Y-52250D02*
X33000Y-52000D01*
X33250Y-54250D02*
X33250Y-52250D01*
X34500Y-55500D02*
X33250Y-54250D01*
X38250Y-55500D02*
X34500Y-55500D01*
X38750Y-56000D02*
X38250Y-55500D01*
X41750Y-56000D02*
X38750Y-56000D01*
X42250Y-55500D02*
X41750Y-56000D01*
X32500Y-48000D02*
X32000Y-48000D01*
X39750Y-55250D02*
X40000Y-55500D01*
X34750Y-55250D02*
X39750Y-55250D01*
X33500Y-54000D02*
X34750Y-55250D01*
X33500Y-51750D02*
X33500Y-54000D01*
X33250Y-51500D02*
X33500Y-51750D01*
X32000Y-51500D02*
X33250Y-51500D01*
X31750Y-51250D02*
X32000Y-51500D01*
X31750Y-48250D02*
X31750Y-51250D01*
X32000Y-48000D02*
X31750Y-48250D01*
X35250Y-55750D02*
X34000Y-55750D01*
X42500Y-57000D02*
X39500Y-57000D01*
X39500Y-57000D02*
X38250Y-55750D01*
X38250Y-55750D02*
X35250Y-55750D01*
X43000Y-56500D02*
X42500Y-57000D01*
X32500Y-54250D02*
X32500Y-53000D01*
X34000Y-55750D02*
X32500Y-54250D01*
X40000Y-23000D02*
X40500Y-23500D01*
X37500Y-23000D02*
X40000Y-23000D01*
X32696Y-21000D02*
X33000Y-21000D01*
X36803Y-21500D02*
X37303Y-21000D01*
X33500Y-21500D02*
X36803Y-21500D01*
X33000Y-21000D02*
X33500Y-21500D01*
G54D27*
X32000Y-24000D02*
X32000Y-23000D01*
X32000Y-23000D02*
X32000Y-21696D01*
X32000Y-21696D02*
X32696Y-21000D01*
G54D26*
X51000Y-23500D02*
X53500Y-21000D01*
G54D27*
X27000Y-30500D02*
X27750Y-31250D01*
X31500Y-26250D02*
X32250Y-25500D01*
X31500Y-29000D02*
X31500Y-26250D01*
X29250Y-31250D02*
X31500Y-29000D01*
X27750Y-31250D02*
X29250Y-31250D01*
X32250Y-25500D02*
X34500Y-25500D01*
X34750Y-25500D02*
X34500Y-25500D01*
X35000Y-25250D02*
X34750Y-25500D01*
X62000Y-47500D02*
X61000Y-47500D01*
X61000Y-47500D02*
X60000Y-47500D01*
X60000Y-47500D02*
X59000Y-47500D01*
X59000Y-47500D02*
X58000Y-47500D01*
X58000Y-47500D02*
X57000Y-47500D01*
X57000Y-47500D02*
X56000Y-47500D01*
X56000Y-47500D02*
X55000Y-47500D01*
X55000Y-47500D02*
X54000Y-47500D01*
X54000Y-47500D02*
X53000Y-47500D01*
X53000Y-47500D02*
X52000Y-47500D01*
X52000Y-47500D02*
X51000Y-47500D01*
X25000Y-33500D02*
X26000Y-33500D01*
X26000Y-33500D02*
X27000Y-33500D01*
X49000Y-28250D02*
X48500Y-27750D01*
X51000Y-32250D02*
X51750Y-31500D01*
X51000Y-33000D02*
X51000Y-32250D01*
X51000Y-33750D02*
X51000Y-33000D01*
X51750Y-31500D02*
X52500Y-31500D01*
X38500Y-34500D02*
X39250Y-33750D01*
X40750Y-31500D02*
X41000Y-31500D01*
X39250Y-33000D02*
X40750Y-31500D01*
X39250Y-33250D02*
X39250Y-33000D01*
X39250Y-33750D02*
X39250Y-33250D01*
X52500Y-24000D02*
X53500Y-24000D01*
X52500Y-26000D02*
X52750Y-26000D01*
X52750Y-26000D02*
X53500Y-25250D01*
X53500Y-25250D02*
X53500Y-24000D01*
X48500Y-27750D02*
X49500Y-27750D01*
X49500Y-27750D02*
X51250Y-26000D01*
X51250Y-26000D02*
X52500Y-26000D01*
G54D26*
X55000Y-34000D02*
X55000Y-33000D01*
X55000Y-33000D02*
X55500Y-32500D01*
G54D27*
X42000Y-27750D02*
X48500Y-27750D01*
X42000Y-27750D02*
X41000Y-28750D01*
X41000Y-28750D02*
X41000Y-31500D01*
X60000Y-32500D02*
X59250Y-33250D01*
X56250Y-33250D02*
X55500Y-32500D01*
X59250Y-33250D02*
X56250Y-33250D01*
X55500Y-32500D02*
X54500Y-32500D01*
X53500Y-31500D02*
X52500Y-31500D01*
X53500Y-31500D02*
X54500Y-32500D01*
X25000Y-34500D02*
X26000Y-34500D01*
X26000Y-34500D02*
X27000Y-34500D01*
X27000Y-34500D02*
X30500Y-34500D01*
X30500Y-34500D02*
X31500Y-35500D01*
X31500Y-34250D02*
X30750Y-33500D01*
X26750Y-31750D02*
X28500Y-31750D01*
X28500Y-31750D02*
X29000Y-31750D01*
X29000Y-31750D02*
X30750Y-33500D01*
X26250Y-31000D02*
X26250Y-31250D01*
X26250Y-31250D02*
X26750Y-31750D01*
X27000Y-29500D02*
X26250Y-30250D01*
X26250Y-30250D02*
X26250Y-31000D01*
X27000Y-26500D02*
X27000Y-29500D01*
X27000Y-26500D02*
X27000Y-25500D01*
X29000Y-28500D02*
X27000Y-26500D01*
X27000Y-25500D02*
X26500Y-25000D01*
X31500Y-35500D02*
X31500Y-36000D01*
X31500Y-36000D02*
X32000Y-36500D01*
X32000Y-36500D02*
X32500Y-36500D01*
X31500Y-35500D02*
X31500Y-34250D01*
G54D26*
X59500Y-53500D02*
X59500Y-52500D01*
G54D27*
X29000Y-29000D02*
X29000Y-28500D01*
X26500Y-25000D02*
X26000Y-25000D01*
G54D26*
X54500Y-53500D02*
X54500Y-52500D01*
G54D27*
X48500Y-49500D02*
X51000Y-49500D01*
X62000Y-49500D02*
X61000Y-49500D01*
X61000Y-49500D02*
X60000Y-49500D01*
X60000Y-49500D02*
X59000Y-49500D01*
X59000Y-49500D02*
X58000Y-49500D01*
X58000Y-49500D02*
X57000Y-49500D01*
X57000Y-49500D02*
X56000Y-49500D01*
X56000Y-49500D02*
X55000Y-49500D01*
X55000Y-49500D02*
X54000Y-49500D01*
X54000Y-49500D02*
X53000Y-49500D01*
X53000Y-49500D02*
X52000Y-49500D01*
X52000Y-49500D02*
X51000Y-49500D01*
X50000Y-33500D02*
X50000Y-36750D01*
X45500Y-46250D02*
X46250Y-45500D01*
X46250Y-45500D02*
X48250Y-45500D01*
X48250Y-45500D02*
X49000Y-44750D01*
X45500Y-46250D02*
X45500Y-47500D01*
X49000Y-37750D02*
X49000Y-44750D01*
X50000Y-36750D02*
X49000Y-37750D01*
X50000Y-29500D02*
X50000Y-28000D01*
X57000Y-26750D02*
X57500Y-26250D01*
X51250Y-26750D02*
X57000Y-26750D01*
X50000Y-28000D02*
X51250Y-26750D01*
X31500Y-46000D02*
X30500Y-45000D01*
X36000Y-49500D02*
X33500Y-47000D01*
X32500Y-47000D02*
X33500Y-47000D01*
X31500Y-46000D02*
X32500Y-47000D01*
X30500Y-45000D02*
X30500Y-41000D01*
X38000Y-47500D02*
X43500Y-47500D01*
X46000Y-48500D02*
X46000Y-49500D01*
X46000Y-49500D02*
X47000Y-50500D01*
X46000Y-48500D02*
X46000Y-48000D01*
X46000Y-48000D02*
X45500Y-47500D01*
X45500Y-47500D02*
X43500Y-47500D01*
X57500Y-27500D02*
X57500Y-26250D01*
X58250Y-25500D02*
X60000Y-25500D01*
X57500Y-26250D02*
X58250Y-25500D01*
X25000Y-37500D02*
X26000Y-37500D01*
X26000Y-37500D02*
X27000Y-37500D01*
X27000Y-37500D02*
X30500Y-41000D01*
X50000Y-30500D02*
X50000Y-29500D01*
X50000Y-31500D02*
X50000Y-30500D01*
X50000Y-31500D02*
X50000Y-32500D01*
X50000Y-33500D02*
X50000Y-32500D01*
X36000Y-50500D02*
X36000Y-49500D01*
X36000Y-49500D02*
X37000Y-48500D01*
X38000Y-47500D02*
X37000Y-48500D01*
G54D10*
G36*
X26490Y-26521D02*
X26388Y-26419D01*
X26136Y-26315D01*
X25864Y-26314D01*
X25650Y-26403D01*
X25650Y-25596D01*
X25863Y-25684D01*
X26135Y-25685D01*
X26367Y-25589D01*
X26490Y-25711D01*
X26490Y-26500D01*
X26490Y-26521D01*
X26490Y-26521D01*
G37*
G54D28*
X26490Y-26521D02*
X26388Y-26419D01*
X26136Y-26315D01*
X25864Y-26314D01*
X25650Y-26403D01*
X25650Y-25596D01*
X25863Y-25684D01*
X26135Y-25685D01*
X26367Y-25589D01*
X26490Y-25711D01*
X26490Y-26500D01*
X26490Y-26521D01*
G54D10*
G36*
X32183Y-47389D02*
X32112Y-47418D01*
X31919Y-47611D01*
X31917Y-47616D01*
X31846Y-47630D01*
X31803Y-47659D01*
X31717Y-47717D01*
X31467Y-47967D01*
X31380Y-48096D01*
X31375Y-48122D01*
X31350Y-48250D01*
X31350Y-51250D01*
X31375Y-51377D01*
X31380Y-51403D01*
X31467Y-51532D01*
X31717Y-51782D01*
X31717Y-51782D01*
X31803Y-51840D01*
X31819Y-51851D01*
X31815Y-51863D01*
X31814Y-52135D01*
X31918Y-52387D01*
X31936Y-52404D01*
X31869Y-52470D01*
X31815Y-52603D01*
X31814Y-52746D01*
X31814Y-53380D01*
X29435Y-53380D01*
X29532Y-53282D01*
X29532Y-53282D01*
X29590Y-53196D01*
X29619Y-53153D01*
X29619Y-53153D01*
X29649Y-53000D01*
X29650Y-53000D01*
X29650Y-52391D01*
X29724Y-52317D01*
X29809Y-52111D01*
X29810Y-51889D01*
X29725Y-51683D01*
X29567Y-51525D01*
X29361Y-51440D01*
X29139Y-51439D01*
X29116Y-51449D01*
X29282Y-51282D01*
X29282Y-51282D01*
X29340Y-51196D01*
X29369Y-51153D01*
X29369Y-51153D01*
X29399Y-51000D01*
X29400Y-51000D01*
X29400Y-50250D01*
X29400Y-46641D01*
X29474Y-46567D01*
X29559Y-46361D01*
X29560Y-46139D01*
X29475Y-45933D01*
X29317Y-45775D01*
X29111Y-45690D01*
X29060Y-45690D01*
X29060Y-45639D01*
X28975Y-45433D01*
X28817Y-45275D01*
X28611Y-45190D01*
X28400Y-45189D01*
X28400Y-43141D01*
X28474Y-43067D01*
X28559Y-42861D01*
X28560Y-42639D01*
X28475Y-42433D01*
X28317Y-42275D01*
X28111Y-42190D01*
X27889Y-42189D01*
X27683Y-42274D01*
X27658Y-42299D01*
X27581Y-42112D01*
X27468Y-41999D01*
X27580Y-41888D01*
X27684Y-41636D01*
X27685Y-41364D01*
X27581Y-41112D01*
X27468Y-40999D01*
X27580Y-40888D01*
X27684Y-40636D01*
X27685Y-40364D01*
X27581Y-40112D01*
X27563Y-40095D01*
X27630Y-40029D01*
X27684Y-39896D01*
X27685Y-39753D01*
X27685Y-39103D01*
X27630Y-38971D01*
X27529Y-38869D01*
X27396Y-38815D01*
X27253Y-38814D01*
X26603Y-38814D01*
X26499Y-38857D01*
X26396Y-38815D01*
X26253Y-38814D01*
X25603Y-38814D01*
X25499Y-38857D01*
X25396Y-38815D01*
X25253Y-38814D01*
X25120Y-38814D01*
X25120Y-38185D01*
X25135Y-38185D01*
X25387Y-38081D01*
X25458Y-38010D01*
X25541Y-38010D01*
X25611Y-38080D01*
X25863Y-38184D01*
X26135Y-38185D01*
X26387Y-38081D01*
X26458Y-38010D01*
X26541Y-38010D01*
X26611Y-38080D01*
X26863Y-38184D01*
X26963Y-38184D01*
X29990Y-41211D01*
X29990Y-45000D01*
X30028Y-45195D01*
X30139Y-45360D01*
X31139Y-46360D01*
X32139Y-47360D01*
X32183Y-47389D01*
X32183Y-47389D01*
G37*
G54D28*
X32183Y-47389D02*
X32112Y-47418D01*
X31919Y-47611D01*
X31917Y-47616D01*
X31846Y-47630D01*
X31803Y-47659D01*
X31717Y-47717D01*
X31467Y-47967D01*
X31380Y-48096D01*
X31375Y-48122D01*
X31350Y-48250D01*
X31350Y-51250D01*
X31375Y-51377D01*
X31380Y-51403D01*
X31467Y-51532D01*
X31717Y-51782D01*
X31717Y-51782D01*
X31803Y-51840D01*
X31819Y-51851D01*
X31815Y-51863D01*
X31814Y-52135D01*
X31918Y-52387D01*
X31936Y-52404D01*
X31869Y-52470D01*
X31815Y-52603D01*
X31814Y-52746D01*
X31814Y-53380D01*
X29435Y-53380D01*
X29532Y-53282D01*
X29532Y-53282D01*
X29590Y-53196D01*
X29619Y-53153D01*
X29619Y-53153D01*
X29649Y-53000D01*
X29650Y-53000D01*
X29650Y-52391D01*
X29724Y-52317D01*
X29809Y-52111D01*
X29810Y-51889D01*
X29725Y-51683D01*
X29567Y-51525D01*
X29361Y-51440D01*
X29139Y-51439D01*
X29116Y-51449D01*
X29282Y-51282D01*
X29282Y-51282D01*
X29340Y-51196D01*
X29369Y-51153D01*
X29369Y-51153D01*
X29399Y-51000D01*
X29400Y-51000D01*
X29400Y-50250D01*
X29400Y-46641D01*
X29474Y-46567D01*
X29559Y-46361D01*
X29560Y-46139D01*
X29475Y-45933D01*
X29317Y-45775D01*
X29111Y-45690D01*
X29060Y-45690D01*
X29060Y-45639D01*
X28975Y-45433D01*
X28817Y-45275D01*
X28611Y-45190D01*
X28400Y-45189D01*
X28400Y-43141D01*
X28474Y-43067D01*
X28559Y-42861D01*
X28560Y-42639D01*
X28475Y-42433D01*
X28317Y-42275D01*
X28111Y-42190D01*
X27889Y-42189D01*
X27683Y-42274D01*
X27658Y-42299D01*
X27581Y-42112D01*
X27468Y-41999D01*
X27580Y-41888D01*
X27684Y-41636D01*
X27685Y-41364D01*
X27581Y-41112D01*
X27468Y-40999D01*
X27580Y-40888D01*
X27684Y-40636D01*
X27685Y-40364D01*
X27581Y-40112D01*
X27563Y-40095D01*
X27630Y-40029D01*
X27684Y-39896D01*
X27685Y-39753D01*
X27685Y-39103D01*
X27630Y-38971D01*
X27529Y-38869D01*
X27396Y-38815D01*
X27253Y-38814D01*
X26603Y-38814D01*
X26499Y-38857D01*
X26396Y-38815D01*
X26253Y-38814D01*
X25603Y-38814D01*
X25499Y-38857D01*
X25396Y-38815D01*
X25253Y-38814D01*
X25120Y-38814D01*
X25120Y-38185D01*
X25135Y-38185D01*
X25387Y-38081D01*
X25458Y-38010D01*
X25541Y-38010D01*
X25611Y-38080D01*
X25863Y-38184D01*
X26135Y-38185D01*
X26387Y-38081D01*
X26458Y-38010D01*
X26541Y-38010D01*
X26611Y-38080D01*
X26863Y-38184D01*
X26963Y-38184D01*
X29990Y-41211D01*
X29990Y-45000D01*
X30028Y-45195D01*
X30139Y-45360D01*
X31139Y-46360D01*
X32139Y-47360D01*
X32183Y-47389D01*
G54D10*
G36*
X35490Y-49826D02*
X35446Y-49844D01*
X35344Y-49945D01*
X35290Y-50078D01*
X35289Y-50221D01*
X35289Y-50850D01*
X34915Y-50850D01*
X34400Y-50334D01*
X34400Y-48750D01*
X34369Y-48596D01*
X34369Y-48596D01*
X34357Y-48578D01*
X35490Y-49711D01*
X35490Y-49826D01*
X35490Y-49826D01*
G37*
G54D28*
X35490Y-49826D02*
X35446Y-49844D01*
X35344Y-49945D01*
X35290Y-50078D01*
X35289Y-50221D01*
X35289Y-50850D01*
X34915Y-50850D01*
X34400Y-50334D01*
X34400Y-48750D01*
X34369Y-48596D01*
X34369Y-48596D01*
X34357Y-48578D01*
X35490Y-49711D01*
X35490Y-49826D01*
G54D10*
G36*
X38101Y-45000D02*
X37961Y-45139D01*
X37865Y-45373D01*
X37864Y-45600D01*
X37415Y-45600D01*
X37032Y-45217D01*
X36903Y-45130D01*
X36877Y-45125D01*
X36750Y-45100D01*
X32997Y-45100D01*
X32898Y-44999D01*
X33038Y-44860D01*
X33134Y-44626D01*
X33135Y-44374D01*
X33038Y-44140D01*
X32898Y-43999D01*
X33038Y-43860D01*
X33134Y-43626D01*
X33135Y-43374D01*
X33038Y-43140D01*
X32898Y-42999D01*
X33038Y-42860D01*
X33134Y-42626D01*
X33135Y-42374D01*
X33038Y-42140D01*
X32898Y-41999D01*
X33038Y-41860D01*
X33134Y-41626D01*
X33135Y-41374D01*
X33038Y-41140D01*
X32898Y-40999D01*
X33038Y-40860D01*
X33134Y-40626D01*
X33135Y-40374D01*
X33038Y-40140D01*
X32898Y-39999D01*
X33038Y-39860D01*
X33134Y-39626D01*
X33135Y-39374D01*
X33038Y-39140D01*
X32898Y-38999D01*
X33038Y-38860D01*
X33134Y-38626D01*
X33135Y-38374D01*
X33038Y-38140D01*
X32860Y-37961D01*
X32626Y-37865D01*
X32374Y-37864D01*
X32140Y-37961D01*
X31961Y-38139D01*
X31865Y-38373D01*
X31864Y-38625D01*
X31961Y-38859D01*
X32101Y-39000D01*
X31961Y-39139D01*
X31865Y-39373D01*
X31864Y-39625D01*
X31961Y-39859D01*
X32101Y-40000D01*
X31961Y-40139D01*
X31865Y-40373D01*
X31864Y-40625D01*
X31961Y-40859D01*
X32101Y-41000D01*
X31961Y-41139D01*
X31865Y-41373D01*
X31864Y-41625D01*
X31961Y-41859D01*
X32101Y-42000D01*
X31961Y-42139D01*
X31865Y-42373D01*
X31864Y-42625D01*
X31961Y-42859D01*
X32091Y-42990D01*
X32000Y-42990D01*
X31804Y-43028D01*
X31639Y-43139D01*
X31139Y-43639D01*
X31028Y-43804D01*
X31010Y-43899D01*
X31010Y-41000D01*
X30971Y-40804D01*
X30971Y-40804D01*
X30934Y-40749D01*
X30860Y-40639D01*
X30860Y-40639D01*
X27685Y-37463D01*
X27685Y-37364D01*
X27581Y-37112D01*
X27388Y-36919D01*
X27136Y-36815D01*
X26864Y-36814D01*
X26612Y-36918D01*
X26541Y-36990D01*
X26458Y-36990D01*
X26388Y-36919D01*
X26136Y-36815D01*
X25864Y-36814D01*
X25612Y-36918D01*
X25541Y-36990D01*
X25458Y-36990D01*
X25388Y-36919D01*
X25136Y-36815D01*
X25120Y-36815D01*
X25120Y-35185D01*
X25135Y-35185D01*
X25387Y-35081D01*
X25458Y-35010D01*
X25541Y-35010D01*
X25611Y-35080D01*
X25863Y-35184D01*
X26135Y-35185D01*
X26387Y-35081D01*
X26458Y-35010D01*
X26541Y-35010D01*
X26611Y-35080D01*
X26863Y-35184D01*
X27135Y-35185D01*
X27387Y-35081D01*
X27458Y-35010D01*
X30288Y-35010D01*
X30814Y-35536D01*
X30814Y-35635D01*
X30918Y-35887D01*
X30990Y-35958D01*
X30990Y-36000D01*
X31028Y-36195D01*
X31139Y-36360D01*
X31639Y-36860D01*
X31804Y-36971D01*
X31804Y-36971D01*
X32000Y-37010D01*
X32111Y-37010D01*
X32139Y-37038D01*
X32373Y-37134D01*
X32625Y-37135D01*
X32859Y-37038D01*
X33038Y-36860D01*
X33134Y-36626D01*
X33135Y-36374D01*
X33038Y-36140D01*
X32898Y-35999D01*
X33038Y-35860D01*
X33134Y-35626D01*
X33135Y-35374D01*
X33038Y-35140D01*
X32898Y-34999D01*
X33038Y-34860D01*
X33134Y-34626D01*
X33135Y-34374D01*
X33038Y-34140D01*
X32898Y-33999D01*
X33038Y-33860D01*
X33134Y-33626D01*
X33135Y-33374D01*
X33038Y-33140D01*
X32898Y-32999D01*
X33038Y-32860D01*
X33134Y-32626D01*
X33135Y-32374D01*
X33038Y-32140D01*
X32898Y-31999D01*
X33038Y-31860D01*
X33134Y-31626D01*
X33135Y-31374D01*
X33038Y-31140D01*
X32898Y-30999D01*
X33038Y-30860D01*
X33134Y-30626D01*
X33135Y-30374D01*
X33038Y-30140D01*
X32898Y-29999D01*
X33038Y-29860D01*
X33134Y-29626D01*
X33135Y-29374D01*
X33038Y-29140D01*
X32898Y-28999D01*
X33038Y-28860D01*
X33134Y-28626D01*
X33135Y-28374D01*
X33038Y-28140D01*
X32898Y-27999D01*
X33038Y-27860D01*
X33134Y-27626D01*
X33135Y-27374D01*
X33038Y-27140D01*
X32978Y-27080D01*
X32978Y-27080D01*
X33080Y-26979D01*
X33134Y-26846D01*
X33135Y-26703D01*
X33135Y-26153D01*
X33080Y-26021D01*
X33069Y-26010D01*
X34500Y-26010D01*
X34750Y-26010D01*
X34945Y-25971D01*
X34945Y-25971D01*
X35100Y-25867D01*
X35100Y-42250D01*
X35125Y-42377D01*
X35130Y-42403D01*
X35217Y-42532D01*
X36467Y-43782D01*
X36467Y-43782D01*
X36596Y-43869D01*
X36596Y-43869D01*
X36622Y-43874D01*
X36750Y-43900D01*
X38002Y-43900D01*
X38101Y-44000D01*
X37961Y-44139D01*
X37865Y-44373D01*
X37864Y-44625D01*
X37961Y-44859D01*
X38101Y-45000D01*
X38101Y-45000D01*
G37*
G54D28*
X38101Y-45000D02*
X37961Y-45139D01*
X37865Y-45373D01*
X37864Y-45600D01*
X37415Y-45600D01*
X37032Y-45217D01*
X36903Y-45130D01*
X36877Y-45125D01*
X36750Y-45100D01*
X32997Y-45100D01*
X32898Y-44999D01*
X33038Y-44860D01*
X33134Y-44626D01*
X33135Y-44374D01*
X33038Y-44140D01*
X32898Y-43999D01*
X33038Y-43860D01*
X33134Y-43626D01*
X33135Y-43374D01*
X33038Y-43140D01*
X32898Y-42999D01*
X33038Y-42860D01*
X33134Y-42626D01*
X33135Y-42374D01*
X33038Y-42140D01*
X32898Y-41999D01*
X33038Y-41860D01*
X33134Y-41626D01*
X33135Y-41374D01*
X33038Y-41140D01*
X32898Y-40999D01*
X33038Y-40860D01*
X33134Y-40626D01*
X33135Y-40374D01*
X33038Y-40140D01*
X32898Y-39999D01*
X33038Y-39860D01*
X33134Y-39626D01*
X33135Y-39374D01*
X33038Y-39140D01*
X32898Y-38999D01*
X33038Y-38860D01*
X33134Y-38626D01*
X33135Y-38374D01*
X33038Y-38140D01*
X32860Y-37961D01*
X32626Y-37865D01*
X32374Y-37864D01*
X32140Y-37961D01*
X31961Y-38139D01*
X31865Y-38373D01*
X31864Y-38625D01*
X31961Y-38859D01*
X32101Y-39000D01*
X31961Y-39139D01*
X31865Y-39373D01*
X31864Y-39625D01*
X31961Y-39859D01*
X32101Y-40000D01*
X31961Y-40139D01*
X31865Y-40373D01*
X31864Y-40625D01*
X31961Y-40859D01*
X32101Y-41000D01*
X31961Y-41139D01*
X31865Y-41373D01*
X31864Y-41625D01*
X31961Y-41859D01*
X32101Y-42000D01*
X31961Y-42139D01*
X31865Y-42373D01*
X31864Y-42625D01*
X31961Y-42859D01*
X32091Y-42990D01*
X32000Y-42990D01*
X31804Y-43028D01*
X31639Y-43139D01*
X31139Y-43639D01*
X31028Y-43804D01*
X31010Y-43899D01*
X31010Y-41000D01*
X30971Y-40804D01*
X30971Y-40804D01*
X30934Y-40749D01*
X30860Y-40639D01*
X30860Y-40639D01*
X27685Y-37463D01*
X27685Y-37364D01*
X27581Y-37112D01*
X27388Y-36919D01*
X27136Y-36815D01*
X26864Y-36814D01*
X26612Y-36918D01*
X26541Y-36990D01*
X26458Y-36990D01*
X26388Y-36919D01*
X26136Y-36815D01*
X25864Y-36814D01*
X25612Y-36918D01*
X25541Y-36990D01*
X25458Y-36990D01*
X25388Y-36919D01*
X25136Y-36815D01*
X25120Y-36815D01*
X25120Y-35185D01*
X25135Y-35185D01*
X25387Y-35081D01*
X25458Y-35010D01*
X25541Y-35010D01*
X25611Y-35080D01*
X25863Y-35184D01*
X26135Y-35185D01*
X26387Y-35081D01*
X26458Y-35010D01*
X26541Y-35010D01*
X26611Y-35080D01*
X26863Y-35184D01*
X27135Y-35185D01*
X27387Y-35081D01*
X27458Y-35010D01*
X30288Y-35010D01*
X30814Y-35536D01*
X30814Y-35635D01*
X30918Y-35887D01*
X30990Y-35958D01*
X30990Y-36000D01*
X31028Y-36195D01*
X31139Y-36360D01*
X31639Y-36860D01*
X31804Y-36971D01*
X31804Y-36971D01*
X32000Y-37010D01*
X32111Y-37010D01*
X32139Y-37038D01*
X32373Y-37134D01*
X32625Y-37135D01*
X32859Y-37038D01*
X33038Y-36860D01*
X33134Y-36626D01*
X33135Y-36374D01*
X33038Y-36140D01*
X32898Y-35999D01*
X33038Y-35860D01*
X33134Y-35626D01*
X33135Y-35374D01*
X33038Y-35140D01*
X32898Y-34999D01*
X33038Y-34860D01*
X33134Y-34626D01*
X33135Y-34374D01*
X33038Y-34140D01*
X32898Y-33999D01*
X33038Y-33860D01*
X33134Y-33626D01*
X33135Y-33374D01*
X33038Y-33140D01*
X32898Y-32999D01*
X33038Y-32860D01*
X33134Y-32626D01*
X33135Y-32374D01*
X33038Y-32140D01*
X32898Y-31999D01*
X33038Y-31860D01*
X33134Y-31626D01*
X33135Y-31374D01*
X33038Y-31140D01*
X32898Y-30999D01*
X33038Y-30860D01*
X33134Y-30626D01*
X33135Y-30374D01*
X33038Y-30140D01*
X32898Y-29999D01*
X33038Y-29860D01*
X33134Y-29626D01*
X33135Y-29374D01*
X33038Y-29140D01*
X32898Y-28999D01*
X33038Y-28860D01*
X33134Y-28626D01*
X33135Y-28374D01*
X33038Y-28140D01*
X32898Y-27999D01*
X33038Y-27860D01*
X33134Y-27626D01*
X33135Y-27374D01*
X33038Y-27140D01*
X32978Y-27080D01*
X32978Y-27080D01*
X33080Y-26979D01*
X33134Y-26846D01*
X33135Y-26703D01*
X33135Y-26153D01*
X33080Y-26021D01*
X33069Y-26010D01*
X34500Y-26010D01*
X34750Y-26010D01*
X34945Y-25971D01*
X34945Y-25971D01*
X35100Y-25867D01*
X35100Y-42250D01*
X35125Y-42377D01*
X35130Y-42403D01*
X35217Y-42532D01*
X36467Y-43782D01*
X36467Y-43782D01*
X36596Y-43869D01*
X36596Y-43869D01*
X36622Y-43874D01*
X36750Y-43900D01*
X38002Y-43900D01*
X38101Y-44000D01*
X37961Y-44139D01*
X37865Y-44373D01*
X37864Y-44625D01*
X37961Y-44859D01*
X38101Y-45000D01*
G54D10*
G36*
X38880Y-35981D02*
X38860Y-35961D01*
X38626Y-35865D01*
X38374Y-35864D01*
X38140Y-35961D01*
X37961Y-36139D01*
X37865Y-36373D01*
X37864Y-36625D01*
X37961Y-36859D01*
X38101Y-37000D01*
X37961Y-37139D01*
X37865Y-37373D01*
X37864Y-37625D01*
X37961Y-37859D01*
X38101Y-38000D01*
X37961Y-38139D01*
X37865Y-38373D01*
X37864Y-38625D01*
X37961Y-38859D01*
X38101Y-39000D01*
X37961Y-39139D01*
X37865Y-39373D01*
X37864Y-39625D01*
X37961Y-39859D01*
X38101Y-40000D01*
X38001Y-40100D01*
X37415Y-40100D01*
X36650Y-39334D01*
X36650Y-26165D01*
X36915Y-25900D01*
X38289Y-25900D01*
X38140Y-25961D01*
X37961Y-26139D01*
X37865Y-26373D01*
X37864Y-26625D01*
X37961Y-26859D01*
X38101Y-27000D01*
X37961Y-27139D01*
X37865Y-27373D01*
X37864Y-27625D01*
X37961Y-27859D01*
X38101Y-28000D01*
X37961Y-28139D01*
X37865Y-28373D01*
X37864Y-28625D01*
X37961Y-28859D01*
X38101Y-29000D01*
X37961Y-29139D01*
X37865Y-29373D01*
X37864Y-29625D01*
X37961Y-29859D01*
X38101Y-30000D01*
X37961Y-30139D01*
X37865Y-30373D01*
X37864Y-30625D01*
X37961Y-30859D01*
X38101Y-31000D01*
X37961Y-31139D01*
X37865Y-31373D01*
X37864Y-31625D01*
X37961Y-31859D01*
X38101Y-32000D01*
X37961Y-32139D01*
X37865Y-32373D01*
X37864Y-32625D01*
X37961Y-32859D01*
X38101Y-33000D01*
X37961Y-33139D01*
X37865Y-33373D01*
X37864Y-33625D01*
X37961Y-33859D01*
X38101Y-34000D01*
X37961Y-34139D01*
X37865Y-34373D01*
X37864Y-34625D01*
X37961Y-34859D01*
X38139Y-35038D01*
X38373Y-35134D01*
X38625Y-35135D01*
X38859Y-35038D01*
X38880Y-35017D01*
X38880Y-35981D01*
X38880Y-35981D01*
G37*
G54D28*
X38880Y-35981D02*
X38860Y-35961D01*
X38626Y-35865D01*
X38374Y-35864D01*
X38140Y-35961D01*
X37961Y-36139D01*
X37865Y-36373D01*
X37864Y-36625D01*
X37961Y-36859D01*
X38101Y-37000D01*
X37961Y-37139D01*
X37865Y-37373D01*
X37864Y-37625D01*
X37961Y-37859D01*
X38101Y-38000D01*
X37961Y-38139D01*
X37865Y-38373D01*
X37864Y-38625D01*
X37961Y-38859D01*
X38101Y-39000D01*
X37961Y-39139D01*
X37865Y-39373D01*
X37864Y-39625D01*
X37961Y-39859D01*
X38101Y-40000D01*
X38001Y-40100D01*
X37415Y-40100D01*
X36650Y-39334D01*
X36650Y-26165D01*
X36915Y-25900D01*
X38289Y-25900D01*
X38140Y-25961D01*
X37961Y-26139D01*
X37865Y-26373D01*
X37864Y-26625D01*
X37961Y-26859D01*
X38101Y-27000D01*
X37961Y-27139D01*
X37865Y-27373D01*
X37864Y-27625D01*
X37961Y-27859D01*
X38101Y-28000D01*
X37961Y-28139D01*
X37865Y-28373D01*
X37864Y-28625D01*
X37961Y-28859D01*
X38101Y-29000D01*
X37961Y-29139D01*
X37865Y-29373D01*
X37864Y-29625D01*
X37961Y-29859D01*
X38101Y-30000D01*
X37961Y-30139D01*
X37865Y-30373D01*
X37864Y-30625D01*
X37961Y-30859D01*
X38101Y-31000D01*
X37961Y-31139D01*
X37865Y-31373D01*
X37864Y-31625D01*
X37961Y-31859D01*
X38101Y-32000D01*
X37961Y-32139D01*
X37865Y-32373D01*
X37864Y-32625D01*
X37961Y-32859D01*
X38101Y-33000D01*
X37961Y-33139D01*
X37865Y-33373D01*
X37864Y-33625D01*
X37961Y-33859D01*
X38101Y-34000D01*
X37961Y-34139D01*
X37865Y-34373D01*
X37864Y-34625D01*
X37961Y-34859D01*
X38139Y-35038D01*
X38373Y-35134D01*
X38625Y-35135D01*
X38859Y-35038D01*
X38880Y-35017D01*
X38880Y-35981D01*
G54D10*
G36*
X41850Y-24057D02*
X41817Y-24025D01*
X41611Y-23940D01*
X41389Y-23939D01*
X41183Y-24024D01*
X41046Y-24160D01*
X41038Y-24140D01*
X40898Y-23999D01*
X41038Y-23860D01*
X41134Y-23626D01*
X41135Y-23374D01*
X41038Y-23140D01*
X40978Y-23080D01*
X40978Y-23080D01*
X41080Y-22979D01*
X41134Y-22846D01*
X41135Y-22703D01*
X41135Y-22153D01*
X41080Y-22021D01*
X40979Y-21919D01*
X40846Y-21865D01*
X40703Y-21864D01*
X40153Y-21864D01*
X40021Y-21919D01*
X40000Y-21940D01*
X39979Y-21919D01*
X39846Y-21865D01*
X39703Y-21864D01*
X39153Y-21864D01*
X39021Y-21919D01*
X38919Y-22020D01*
X38865Y-22153D01*
X38864Y-22296D01*
X38864Y-22600D01*
X37891Y-22600D01*
X37817Y-22525D01*
X37611Y-22440D01*
X37389Y-22439D01*
X37183Y-22524D01*
X37025Y-22682D01*
X36940Y-22888D01*
X36939Y-23110D01*
X37024Y-23316D01*
X37182Y-23474D01*
X37388Y-23559D01*
X37610Y-23560D01*
X37816Y-23475D01*
X37891Y-23400D01*
X38865Y-23400D01*
X38864Y-23625D01*
X38961Y-23859D01*
X39101Y-24000D01*
X39001Y-24100D01*
X36250Y-24100D01*
X36096Y-24130D01*
X36053Y-24159D01*
X35967Y-24217D01*
X35363Y-24821D01*
X35317Y-24775D01*
X35111Y-24690D01*
X34889Y-24689D01*
X34683Y-24774D01*
X34525Y-24932D01*
X34501Y-24990D01*
X34500Y-24990D01*
X32250Y-24990D01*
X32054Y-25028D01*
X31999Y-25065D01*
X31889Y-25139D01*
X31139Y-25889D01*
X31028Y-26054D01*
X30990Y-26250D01*
X30990Y-28788D01*
X30685Y-29093D01*
X30685Y-23864D01*
X30581Y-23612D01*
X30388Y-23419D01*
X30136Y-23315D01*
X29864Y-23314D01*
X29612Y-23418D01*
X29419Y-23611D01*
X29315Y-23863D01*
X29314Y-24135D01*
X29418Y-24387D01*
X29611Y-24580D01*
X29863Y-24684D01*
X30135Y-24685D01*
X30387Y-24581D01*
X30580Y-24388D01*
X30684Y-24136D01*
X30685Y-23864D01*
X30685Y-29093D01*
X29038Y-30740D01*
X27961Y-30740D01*
X27635Y-30413D01*
X27635Y-30374D01*
X27538Y-30140D01*
X27360Y-29961D01*
X27288Y-29932D01*
X27360Y-29860D01*
X27360Y-29860D01*
X27434Y-29750D01*
X27471Y-29695D01*
X27471Y-29695D01*
X27509Y-29500D01*
X27510Y-29500D01*
X27510Y-29407D01*
X27639Y-29538D01*
X27873Y-29634D01*
X28125Y-29635D01*
X28359Y-29538D01*
X28500Y-29398D01*
X28639Y-29538D01*
X28873Y-29634D01*
X29125Y-29635D01*
X29359Y-29538D01*
X29538Y-29360D01*
X29634Y-29126D01*
X29635Y-28874D01*
X29538Y-28640D01*
X29510Y-28612D01*
X29510Y-28500D01*
X29509Y-28499D01*
X29471Y-28304D01*
X29471Y-28304D01*
X29360Y-28139D01*
X29360Y-28139D01*
X27844Y-26622D01*
X27873Y-26634D01*
X28125Y-26635D01*
X28359Y-26538D01*
X28500Y-26398D01*
X28639Y-26538D01*
X28873Y-26634D01*
X29125Y-26635D01*
X29359Y-26538D01*
X29500Y-26398D01*
X29639Y-26538D01*
X29873Y-26634D01*
X30125Y-26635D01*
X30359Y-26538D01*
X30538Y-26360D01*
X30634Y-26126D01*
X30635Y-25874D01*
X30538Y-25640D01*
X30360Y-25461D01*
X30126Y-25365D01*
X29874Y-25364D01*
X29640Y-25461D01*
X29499Y-25601D01*
X29360Y-25461D01*
X29126Y-25365D01*
X28874Y-25364D01*
X28640Y-25461D01*
X28499Y-25601D01*
X28433Y-25535D01*
X28580Y-25388D01*
X28684Y-25136D01*
X28685Y-24864D01*
X28581Y-24612D01*
X28468Y-24499D01*
X28580Y-24388D01*
X28684Y-24136D01*
X28685Y-23864D01*
X28581Y-23612D01*
X28388Y-23419D01*
X28136Y-23315D01*
X27864Y-23314D01*
X27612Y-23418D01*
X27419Y-23611D01*
X27315Y-23863D01*
X27314Y-24135D01*
X27418Y-24387D01*
X27531Y-24500D01*
X27419Y-24611D01*
X27315Y-24863D01*
X27314Y-25093D01*
X26860Y-24639D01*
X26695Y-24528D01*
X26635Y-24516D01*
X26684Y-24396D01*
X26685Y-24253D01*
X26685Y-23603D01*
X26630Y-23471D01*
X26529Y-23369D01*
X26396Y-23315D01*
X26253Y-23314D01*
X25603Y-23314D01*
X25471Y-23369D01*
X25369Y-23470D01*
X25315Y-23603D01*
X25314Y-23746D01*
X25314Y-24119D01*
X25120Y-24314D01*
X25120Y-22260D01*
X25342Y-22482D01*
X25768Y-22659D01*
X26229Y-22660D01*
X26656Y-22483D01*
X26982Y-22157D01*
X27159Y-21731D01*
X27160Y-21270D01*
X26983Y-20843D01*
X26760Y-20620D01*
X27416Y-20620D01*
X27315Y-20863D01*
X27314Y-21135D01*
X27418Y-21387D01*
X27611Y-21580D01*
X27863Y-21684D01*
X28135Y-21685D01*
X28387Y-21581D01*
X28580Y-21388D01*
X28684Y-21136D01*
X28685Y-20864D01*
X28584Y-20620D01*
X29416Y-20620D01*
X29315Y-20863D01*
X29314Y-21135D01*
X29418Y-21387D01*
X29611Y-21580D01*
X29863Y-21684D01*
X30135Y-21685D01*
X30387Y-21581D01*
X30580Y-21388D01*
X30684Y-21136D01*
X30685Y-20864D01*
X30584Y-20620D01*
X31380Y-20620D01*
X31380Y-22120D01*
X31490Y-22120D01*
X31490Y-22611D01*
X31461Y-22639D01*
X31365Y-22873D01*
X31364Y-23125D01*
X31461Y-23359D01*
X31490Y-23387D01*
X31490Y-23611D01*
X31461Y-23639D01*
X31365Y-23873D01*
X31364Y-24125D01*
X31461Y-24359D01*
X31639Y-24538D01*
X31873Y-24634D01*
X32125Y-24635D01*
X32359Y-24538D01*
X32538Y-24360D01*
X32634Y-24126D01*
X32635Y-23874D01*
X32538Y-23640D01*
X32510Y-23612D01*
X32510Y-23388D01*
X32538Y-23360D01*
X32634Y-23126D01*
X32635Y-22874D01*
X32538Y-22640D01*
X32510Y-22612D01*
X32510Y-22120D01*
X32961Y-22120D01*
X32961Y-22488D01*
X33016Y-22620D01*
X33117Y-22722D01*
X33250Y-22777D01*
X33393Y-22777D01*
X33993Y-22777D01*
X34114Y-22727D01*
X34234Y-22777D01*
X34377Y-22777D01*
X34977Y-22777D01*
X34999Y-22768D01*
X35021Y-22777D01*
X35164Y-22777D01*
X35764Y-22777D01*
X35897Y-22722D01*
X35998Y-22621D01*
X36053Y-22489D01*
X36053Y-22346D01*
X36053Y-22120D01*
X38620Y-22120D01*
X38620Y-20620D01*
X41697Y-20620D01*
X41690Y-20638D01*
X41689Y-20860D01*
X41705Y-20897D01*
X41626Y-20865D01*
X41374Y-20864D01*
X41140Y-20961D01*
X40961Y-21139D01*
X40865Y-21373D01*
X40864Y-21625D01*
X40961Y-21859D01*
X41139Y-22038D01*
X41373Y-22134D01*
X41625Y-22135D01*
X41850Y-22042D01*
X41850Y-24057D01*
X41850Y-24057D01*
G37*
G54D28*
X41850Y-24057D02*
X41817Y-24025D01*
X41611Y-23940D01*
X41389Y-23939D01*
X41183Y-24024D01*
X41046Y-24160D01*
X41038Y-24140D01*
X40898Y-23999D01*
X41038Y-23860D01*
X41134Y-23626D01*
X41135Y-23374D01*
X41038Y-23140D01*
X40978Y-23080D01*
X40978Y-23080D01*
X41080Y-22979D01*
X41134Y-22846D01*
X41135Y-22703D01*
X41135Y-22153D01*
X41080Y-22021D01*
X40979Y-21919D01*
X40846Y-21865D01*
X40703Y-21864D01*
X40153Y-21864D01*
X40021Y-21919D01*
X40000Y-21940D01*
X39979Y-21919D01*
X39846Y-21865D01*
X39703Y-21864D01*
X39153Y-21864D01*
X39021Y-21919D01*
X38919Y-22020D01*
X38865Y-22153D01*
X38864Y-22296D01*
X38864Y-22600D01*
X37891Y-22600D01*
X37817Y-22525D01*
X37611Y-22440D01*
X37389Y-22439D01*
X37183Y-22524D01*
X37025Y-22682D01*
X36940Y-22888D01*
X36939Y-23110D01*
X37024Y-23316D01*
X37182Y-23474D01*
X37388Y-23559D01*
X37610Y-23560D01*
X37816Y-23475D01*
X37891Y-23400D01*
X38865Y-23400D01*
X38864Y-23625D01*
X38961Y-23859D01*
X39101Y-24000D01*
X39001Y-24100D01*
X36250Y-24100D01*
X36096Y-24130D01*
X36053Y-24159D01*
X35967Y-24217D01*
X35363Y-24821D01*
X35317Y-24775D01*
X35111Y-24690D01*
X34889Y-24689D01*
X34683Y-24774D01*
X34525Y-24932D01*
X34501Y-24990D01*
X34500Y-24990D01*
X32250Y-24990D01*
X32054Y-25028D01*
X31999Y-25065D01*
X31889Y-25139D01*
X31139Y-25889D01*
X31028Y-26054D01*
X30990Y-26250D01*
X30990Y-28788D01*
X30685Y-29093D01*
X30685Y-23864D01*
X30581Y-23612D01*
X30388Y-23419D01*
X30136Y-23315D01*
X29864Y-23314D01*
X29612Y-23418D01*
X29419Y-23611D01*
X29315Y-23863D01*
X29314Y-24135D01*
X29418Y-24387D01*
X29611Y-24580D01*
X29863Y-24684D01*
X30135Y-24685D01*
X30387Y-24581D01*
X30580Y-24388D01*
X30684Y-24136D01*
X30685Y-23864D01*
X30685Y-29093D01*
X29038Y-30740D01*
X27961Y-30740D01*
X27635Y-30413D01*
X27635Y-30374D01*
X27538Y-30140D01*
X27360Y-29961D01*
X27288Y-29932D01*
X27360Y-29860D01*
X27360Y-29860D01*
X27434Y-29750D01*
X27471Y-29695D01*
X27471Y-29695D01*
X27509Y-29500D01*
X27510Y-29500D01*
X27510Y-29407D01*
X27639Y-29538D01*
X27873Y-29634D01*
X28125Y-29635D01*
X28359Y-29538D01*
X28500Y-29398D01*
X28639Y-29538D01*
X28873Y-29634D01*
X29125Y-29635D01*
X29359Y-29538D01*
X29538Y-29360D01*
X29634Y-29126D01*
X29635Y-28874D01*
X29538Y-28640D01*
X29510Y-28612D01*
X29510Y-28500D01*
X29509Y-28499D01*
X29471Y-28304D01*
X29471Y-28304D01*
X29360Y-28139D01*
X29360Y-28139D01*
X27844Y-26622D01*
X27873Y-26634D01*
X28125Y-26635D01*
X28359Y-26538D01*
X28500Y-26398D01*
X28639Y-26538D01*
X28873Y-26634D01*
X29125Y-26635D01*
X29359Y-26538D01*
X29500Y-26398D01*
X29639Y-26538D01*
X29873Y-26634D01*
X30125Y-26635D01*
X30359Y-26538D01*
X30538Y-26360D01*
X30634Y-26126D01*
X30635Y-25874D01*
X30538Y-25640D01*
X30360Y-25461D01*
X30126Y-25365D01*
X29874Y-25364D01*
X29640Y-25461D01*
X29499Y-25601D01*
X29360Y-25461D01*
X29126Y-25365D01*
X28874Y-25364D01*
X28640Y-25461D01*
X28499Y-25601D01*
X28433Y-25535D01*
X28580Y-25388D01*
X28684Y-25136D01*
X28685Y-24864D01*
X28581Y-24612D01*
X28468Y-24499D01*
X28580Y-24388D01*
X28684Y-24136D01*
X28685Y-23864D01*
X28581Y-23612D01*
X28388Y-23419D01*
X28136Y-23315D01*
X27864Y-23314D01*
X27612Y-23418D01*
X27419Y-23611D01*
X27315Y-23863D01*
X27314Y-24135D01*
X27418Y-24387D01*
X27531Y-24500D01*
X27419Y-24611D01*
X27315Y-24863D01*
X27314Y-25093D01*
X26860Y-24639D01*
X26695Y-24528D01*
X26635Y-24516D01*
X26684Y-24396D01*
X26685Y-24253D01*
X26685Y-23603D01*
X26630Y-23471D01*
X26529Y-23369D01*
X26396Y-23315D01*
X26253Y-23314D01*
X25603Y-23314D01*
X25471Y-23369D01*
X25369Y-23470D01*
X25315Y-23603D01*
X25314Y-23746D01*
X25314Y-24119D01*
X25120Y-24314D01*
X25120Y-22260D01*
X25342Y-22482D01*
X25768Y-22659D01*
X26229Y-22660D01*
X26656Y-22483D01*
X26982Y-22157D01*
X27159Y-21731D01*
X27160Y-21270D01*
X26983Y-20843D01*
X26760Y-20620D01*
X27416Y-20620D01*
X27315Y-20863D01*
X27314Y-21135D01*
X27418Y-21387D01*
X27611Y-21580D01*
X27863Y-21684D01*
X28135Y-21685D01*
X28387Y-21581D01*
X28580Y-21388D01*
X28684Y-21136D01*
X28685Y-20864D01*
X28584Y-20620D01*
X29416Y-20620D01*
X29315Y-20863D01*
X29314Y-21135D01*
X29418Y-21387D01*
X29611Y-21580D01*
X29863Y-21684D01*
X30135Y-21685D01*
X30387Y-21581D01*
X30580Y-21388D01*
X30684Y-21136D01*
X30685Y-20864D01*
X30584Y-20620D01*
X31380Y-20620D01*
X31380Y-22120D01*
X31490Y-22120D01*
X31490Y-22611D01*
X31461Y-22639D01*
X31365Y-22873D01*
X31364Y-23125D01*
X31461Y-23359D01*
X31490Y-23387D01*
X31490Y-23611D01*
X31461Y-23639D01*
X31365Y-23873D01*
X31364Y-24125D01*
X31461Y-24359D01*
X31639Y-24538D01*
X31873Y-24634D01*
X32125Y-24635D01*
X32359Y-24538D01*
X32538Y-24360D01*
X32634Y-24126D01*
X32635Y-23874D01*
X32538Y-23640D01*
X32510Y-23612D01*
X32510Y-23388D01*
X32538Y-23360D01*
X32634Y-23126D01*
X32635Y-22874D01*
X32538Y-22640D01*
X32510Y-22612D01*
X32510Y-22120D01*
X32961Y-22120D01*
X32961Y-22488D01*
X33016Y-22620D01*
X33117Y-22722D01*
X33250Y-22777D01*
X33393Y-22777D01*
X33993Y-22777D01*
X34114Y-22727D01*
X34234Y-22777D01*
X34377Y-22777D01*
X34977Y-22777D01*
X34999Y-22768D01*
X35021Y-22777D01*
X35164Y-22777D01*
X35764Y-22777D01*
X35897Y-22722D01*
X35998Y-22621D01*
X36053Y-22489D01*
X36053Y-22346D01*
X36053Y-22120D01*
X38620Y-22120D01*
X38620Y-20620D01*
X41697Y-20620D01*
X41690Y-20638D01*
X41689Y-20860D01*
X41705Y-20897D01*
X41626Y-20865D01*
X41374Y-20864D01*
X41140Y-20961D01*
X40961Y-21139D01*
X40865Y-21373D01*
X40864Y-21625D01*
X40961Y-21859D01*
X41139Y-22038D01*
X41373Y-22134D01*
X41625Y-22135D01*
X41850Y-22042D01*
X41850Y-24057D01*
G54D10*
G36*
X49490Y-36538D02*
X48679Y-37349D01*
X48581Y-37112D01*
X48388Y-36919D01*
X48136Y-36815D01*
X47864Y-36814D01*
X47612Y-36918D01*
X47499Y-37031D01*
X47388Y-36919D01*
X47136Y-36815D01*
X46864Y-36814D01*
X46612Y-36918D01*
X46499Y-37031D01*
X46388Y-36919D01*
X46136Y-36815D01*
X45864Y-36814D01*
X45612Y-36918D01*
X45419Y-37111D01*
X45315Y-37363D01*
X45314Y-37635D01*
X45418Y-37887D01*
X45531Y-38000D01*
X45419Y-38111D01*
X45315Y-38363D01*
X45314Y-38635D01*
X45418Y-38887D01*
X45531Y-39000D01*
X45419Y-39111D01*
X45315Y-39363D01*
X45314Y-39635D01*
X45418Y-39887D01*
X45531Y-40000D01*
X45419Y-40111D01*
X45315Y-40363D01*
X45314Y-40635D01*
X45418Y-40887D01*
X45531Y-41000D01*
X45419Y-41111D01*
X45315Y-41363D01*
X45314Y-41635D01*
X45418Y-41887D01*
X45531Y-42000D01*
X45419Y-42111D01*
X45315Y-42363D01*
X45314Y-42635D01*
X45418Y-42887D01*
X45531Y-43000D01*
X45419Y-43111D01*
X45315Y-43363D01*
X45314Y-43635D01*
X45418Y-43887D01*
X45436Y-43904D01*
X45369Y-43970D01*
X45315Y-44103D01*
X45314Y-44246D01*
X45314Y-44896D01*
X45369Y-45028D01*
X45470Y-45130D01*
X45603Y-45184D01*
X45746Y-45185D01*
X45843Y-45185D01*
X45139Y-45889D01*
X45028Y-46054D01*
X44990Y-46250D01*
X44990Y-46990D01*
X44138Y-46990D01*
X44130Y-46971D01*
X44029Y-46869D01*
X43896Y-46815D01*
X43753Y-46814D01*
X43103Y-46814D01*
X42971Y-46869D01*
X42869Y-46970D01*
X42862Y-46990D01*
X38458Y-46990D01*
X38388Y-46919D01*
X38136Y-46815D01*
X37864Y-46814D01*
X37612Y-46918D01*
X37419Y-47111D01*
X37315Y-47363D01*
X37315Y-47463D01*
X36988Y-47789D01*
X36578Y-47789D01*
X36446Y-47844D01*
X36344Y-47945D01*
X36290Y-48078D01*
X36289Y-48221D01*
X36289Y-48488D01*
X36000Y-48778D01*
X33871Y-46650D01*
X39250Y-46650D01*
X39250Y-46649D01*
X39377Y-46624D01*
X39403Y-46619D01*
X39403Y-46619D01*
X39532Y-46532D01*
X40880Y-45184D01*
X41135Y-45185D01*
X41387Y-45081D01*
X41500Y-44968D01*
X41611Y-45080D01*
X41863Y-45184D01*
X42135Y-45185D01*
X42387Y-45081D01*
X42535Y-44933D01*
X42639Y-45038D01*
X42873Y-45134D01*
X43125Y-45135D01*
X43359Y-45038D01*
X43500Y-44898D01*
X43639Y-45038D01*
X43873Y-45134D01*
X44125Y-45135D01*
X44359Y-45038D01*
X44538Y-44860D01*
X44634Y-44626D01*
X44635Y-44374D01*
X44538Y-44140D01*
X44400Y-44001D01*
X44400Y-43500D01*
X44369Y-43346D01*
X44369Y-43346D01*
X44340Y-43303D01*
X44282Y-43217D01*
X44282Y-43217D01*
X43282Y-42217D01*
X43153Y-42130D01*
X43127Y-42125D01*
X43000Y-42100D01*
X42568Y-42100D01*
X42388Y-41919D01*
X42136Y-41815D01*
X41864Y-41814D01*
X41612Y-41918D01*
X41499Y-42031D01*
X41388Y-41919D01*
X41136Y-41815D01*
X40864Y-41814D01*
X40612Y-41918D01*
X40419Y-42111D01*
X40417Y-42116D01*
X40346Y-42130D01*
X40303Y-42159D01*
X40217Y-42217D01*
X39900Y-42534D01*
X39900Y-41165D01*
X40165Y-40900D01*
X40431Y-40900D01*
X40611Y-41080D01*
X40863Y-41184D01*
X41135Y-41185D01*
X41387Y-41081D01*
X41500Y-40968D01*
X41611Y-41080D01*
X41863Y-41184D01*
X42135Y-41185D01*
X42387Y-41081D01*
X42535Y-40933D01*
X42639Y-41038D01*
X42873Y-41134D01*
X43125Y-41135D01*
X43359Y-41038D01*
X43500Y-40898D01*
X43639Y-41038D01*
X43873Y-41134D01*
X44125Y-41135D01*
X44359Y-41038D01*
X44538Y-40860D01*
X44634Y-40626D01*
X44635Y-40374D01*
X44538Y-40140D01*
X44400Y-40001D01*
X44400Y-39500D01*
X44369Y-39346D01*
X44369Y-39346D01*
X44340Y-39303D01*
X44282Y-39217D01*
X44282Y-39217D01*
X43282Y-38217D01*
X43153Y-38130D01*
X43127Y-38125D01*
X43000Y-38100D01*
X42568Y-38100D01*
X42388Y-37919D01*
X42136Y-37815D01*
X41864Y-37814D01*
X41612Y-37918D01*
X41499Y-38031D01*
X41388Y-37919D01*
X41136Y-37815D01*
X40864Y-37814D01*
X40612Y-37918D01*
X40431Y-38100D01*
X39750Y-38100D01*
X39596Y-38130D01*
X39553Y-38159D01*
X39467Y-38217D01*
X39134Y-38549D01*
X39135Y-38374D01*
X39038Y-38140D01*
X38898Y-37999D01*
X39038Y-37860D01*
X39134Y-37626D01*
X39135Y-37374D01*
X39038Y-37140D01*
X39017Y-37120D01*
X41120Y-37120D01*
X41120Y-36900D01*
X42608Y-36900D01*
X42682Y-36974D01*
X42888Y-37059D01*
X43110Y-37060D01*
X43316Y-36975D01*
X43474Y-36817D01*
X43559Y-36611D01*
X43560Y-36389D01*
X43475Y-36183D01*
X43317Y-36025D01*
X43111Y-35940D01*
X42889Y-35939D01*
X42683Y-36024D01*
X42608Y-36100D01*
X42091Y-36100D01*
X42137Y-36081D01*
X42330Y-35888D01*
X42434Y-35636D01*
X42435Y-35364D01*
X42331Y-35112D01*
X42138Y-34919D01*
X41886Y-34815D01*
X41614Y-34814D01*
X41362Y-34918D01*
X41169Y-35111D01*
X41120Y-35230D01*
X41120Y-33769D01*
X41168Y-33887D01*
X41361Y-34080D01*
X41613Y-34184D01*
X41885Y-34185D01*
X42137Y-34081D01*
X42330Y-33888D01*
X42434Y-33636D01*
X42435Y-33364D01*
X42331Y-33112D01*
X42138Y-32919D01*
X41886Y-32815D01*
X41614Y-32814D01*
X41362Y-32918D01*
X41169Y-33111D01*
X41120Y-33230D01*
X41120Y-32135D01*
X41125Y-32135D01*
X41359Y-32038D01*
X41538Y-31860D01*
X41634Y-31626D01*
X41635Y-31374D01*
X41538Y-31140D01*
X41510Y-31112D01*
X41510Y-28961D01*
X42211Y-28260D01*
X45357Y-28260D01*
X45315Y-28363D01*
X45314Y-28635D01*
X45418Y-28887D01*
X45531Y-29000D01*
X45419Y-29111D01*
X45315Y-29363D01*
X45314Y-29635D01*
X45418Y-29887D01*
X45531Y-30000D01*
X45419Y-30111D01*
X45315Y-30363D01*
X45314Y-30635D01*
X45418Y-30887D01*
X45531Y-31000D01*
X45419Y-31111D01*
X45315Y-31363D01*
X45314Y-31635D01*
X45418Y-31887D01*
X45531Y-32000D01*
X45419Y-32111D01*
X45315Y-32363D01*
X45314Y-32635D01*
X45418Y-32887D01*
X45531Y-33000D01*
X45419Y-33111D01*
X45315Y-33363D01*
X45314Y-33635D01*
X45418Y-33887D01*
X45531Y-34000D01*
X45419Y-34111D01*
X45315Y-34363D01*
X45314Y-34635D01*
X45418Y-34887D01*
X45436Y-34904D01*
X45369Y-34970D01*
X45315Y-35103D01*
X45314Y-35246D01*
X45314Y-35896D01*
X45369Y-36028D01*
X45470Y-36130D01*
X45603Y-36184D01*
X45746Y-36185D01*
X46396Y-36185D01*
X46500Y-36142D01*
X46603Y-36184D01*
X46746Y-36185D01*
X47396Y-36185D01*
X47500Y-36142D01*
X47603Y-36184D01*
X47746Y-36185D01*
X48396Y-36185D01*
X48528Y-36130D01*
X48630Y-36029D01*
X48684Y-35896D01*
X48685Y-35753D01*
X48685Y-35103D01*
X48630Y-34971D01*
X48564Y-34904D01*
X48580Y-34888D01*
X48684Y-34636D01*
X48685Y-34364D01*
X48581Y-34112D01*
X48468Y-33999D01*
X48580Y-33888D01*
X48684Y-33636D01*
X48685Y-33364D01*
X48581Y-33112D01*
X48468Y-32999D01*
X48580Y-32888D01*
X48684Y-32636D01*
X48685Y-32364D01*
X48581Y-32112D01*
X48468Y-31999D01*
X48580Y-31888D01*
X48684Y-31636D01*
X48685Y-31364D01*
X48581Y-31112D01*
X48468Y-30999D01*
X48580Y-30888D01*
X48684Y-30636D01*
X48685Y-30364D01*
X48581Y-30112D01*
X48468Y-29999D01*
X48580Y-29888D01*
X48684Y-29636D01*
X48685Y-29364D01*
X48581Y-29112D01*
X48468Y-28999D01*
X48580Y-28888D01*
X48658Y-28700D01*
X48682Y-28724D01*
X48888Y-28809D01*
X49110Y-28810D01*
X49316Y-28725D01*
X49474Y-28567D01*
X49490Y-28530D01*
X49490Y-29041D01*
X49419Y-29111D01*
X49315Y-29363D01*
X49314Y-29635D01*
X49418Y-29887D01*
X49490Y-29958D01*
X49490Y-30041D01*
X49419Y-30111D01*
X49315Y-30363D01*
X49314Y-30635D01*
X49418Y-30887D01*
X49490Y-30958D01*
X49490Y-31041D01*
X49419Y-31111D01*
X49315Y-31363D01*
X49314Y-31635D01*
X49418Y-31887D01*
X49490Y-31958D01*
X49490Y-32041D01*
X49419Y-32111D01*
X49315Y-32363D01*
X49314Y-32635D01*
X49418Y-32887D01*
X49436Y-32904D01*
X49369Y-32970D01*
X49315Y-33103D01*
X49314Y-33246D01*
X49314Y-33896D01*
X49369Y-34028D01*
X49470Y-34130D01*
X49490Y-34137D01*
X49490Y-36538D01*
X49490Y-36538D01*
G37*
G54D28*
X49490Y-36538D02*
X48679Y-37349D01*
X48581Y-37112D01*
X48388Y-36919D01*
X48136Y-36815D01*
X47864Y-36814D01*
X47612Y-36918D01*
X47499Y-37031D01*
X47388Y-36919D01*
X47136Y-36815D01*
X46864Y-36814D01*
X46612Y-36918D01*
X46499Y-37031D01*
X46388Y-36919D01*
X46136Y-36815D01*
X45864Y-36814D01*
X45612Y-36918D01*
X45419Y-37111D01*
X45315Y-37363D01*
X45314Y-37635D01*
X45418Y-37887D01*
X45531Y-38000D01*
X45419Y-38111D01*
X45315Y-38363D01*
X45314Y-38635D01*
X45418Y-38887D01*
X45531Y-39000D01*
X45419Y-39111D01*
X45315Y-39363D01*
X45314Y-39635D01*
X45418Y-39887D01*
X45531Y-40000D01*
X45419Y-40111D01*
X45315Y-40363D01*
X45314Y-40635D01*
X45418Y-40887D01*
X45531Y-41000D01*
X45419Y-41111D01*
X45315Y-41363D01*
X45314Y-41635D01*
X45418Y-41887D01*
X45531Y-42000D01*
X45419Y-42111D01*
X45315Y-42363D01*
X45314Y-42635D01*
X45418Y-42887D01*
X45531Y-43000D01*
X45419Y-43111D01*
X45315Y-43363D01*
X45314Y-43635D01*
X45418Y-43887D01*
X45436Y-43904D01*
X45369Y-43970D01*
X45315Y-44103D01*
X45314Y-44246D01*
X45314Y-44896D01*
X45369Y-45028D01*
X45470Y-45130D01*
X45603Y-45184D01*
X45746Y-45185D01*
X45843Y-45185D01*
X45139Y-45889D01*
X45028Y-46054D01*
X44990Y-46250D01*
X44990Y-46990D01*
X44138Y-46990D01*
X44130Y-46971D01*
X44029Y-46869D01*
X43896Y-46815D01*
X43753Y-46814D01*
X43103Y-46814D01*
X42971Y-46869D01*
X42869Y-46970D01*
X42862Y-46990D01*
X38458Y-46990D01*
X38388Y-46919D01*
X38136Y-46815D01*
X37864Y-46814D01*
X37612Y-46918D01*
X37419Y-47111D01*
X37315Y-47363D01*
X37315Y-47463D01*
X36988Y-47789D01*
X36578Y-47789D01*
X36446Y-47844D01*
X36344Y-47945D01*
X36290Y-48078D01*
X36289Y-48221D01*
X36289Y-48488D01*
X36000Y-48778D01*
X33871Y-46650D01*
X39250Y-46650D01*
X39250Y-46649D01*
X39377Y-46624D01*
X39403Y-46619D01*
X39403Y-46619D01*
X39532Y-46532D01*
X40880Y-45184D01*
X41135Y-45185D01*
X41387Y-45081D01*
X41500Y-44968D01*
X41611Y-45080D01*
X41863Y-45184D01*
X42135Y-45185D01*
X42387Y-45081D01*
X42535Y-44933D01*
X42639Y-45038D01*
X42873Y-45134D01*
X43125Y-45135D01*
X43359Y-45038D01*
X43500Y-44898D01*
X43639Y-45038D01*
X43873Y-45134D01*
X44125Y-45135D01*
X44359Y-45038D01*
X44538Y-44860D01*
X44634Y-44626D01*
X44635Y-44374D01*
X44538Y-44140D01*
X44400Y-44001D01*
X44400Y-43500D01*
X44369Y-43346D01*
X44369Y-43346D01*
X44340Y-43303D01*
X44282Y-43217D01*
X44282Y-43217D01*
X43282Y-42217D01*
X43153Y-42130D01*
X43127Y-42125D01*
X43000Y-42100D01*
X42568Y-42100D01*
X42388Y-41919D01*
X42136Y-41815D01*
X41864Y-41814D01*
X41612Y-41918D01*
X41499Y-42031D01*
X41388Y-41919D01*
X41136Y-41815D01*
X40864Y-41814D01*
X40612Y-41918D01*
X40419Y-42111D01*
X40417Y-42116D01*
X40346Y-42130D01*
X40303Y-42159D01*
X40217Y-42217D01*
X39900Y-42534D01*
X39900Y-41165D01*
X40165Y-40900D01*
X40431Y-40900D01*
X40611Y-41080D01*
X40863Y-41184D01*
X41135Y-41185D01*
X41387Y-41081D01*
X41500Y-40968D01*
X41611Y-41080D01*
X41863Y-41184D01*
X42135Y-41185D01*
X42387Y-41081D01*
X42535Y-40933D01*
X42639Y-41038D01*
X42873Y-41134D01*
X43125Y-41135D01*
X43359Y-41038D01*
X43500Y-40898D01*
X43639Y-41038D01*
X43873Y-41134D01*
X44125Y-41135D01*
X44359Y-41038D01*
X44538Y-40860D01*
X44634Y-40626D01*
X44635Y-40374D01*
X44538Y-40140D01*
X44400Y-40001D01*
X44400Y-39500D01*
X44369Y-39346D01*
X44369Y-39346D01*
X44340Y-39303D01*
X44282Y-39217D01*
X44282Y-39217D01*
X43282Y-38217D01*
X43153Y-38130D01*
X43127Y-38125D01*
X43000Y-38100D01*
X42568Y-38100D01*
X42388Y-37919D01*
X42136Y-37815D01*
X41864Y-37814D01*
X41612Y-37918D01*
X41499Y-38031D01*
X41388Y-37919D01*
X41136Y-37815D01*
X40864Y-37814D01*
X40612Y-37918D01*
X40431Y-38100D01*
X39750Y-38100D01*
X39596Y-38130D01*
X39553Y-38159D01*
X39467Y-38217D01*
X39134Y-38549D01*
X39135Y-38374D01*
X39038Y-38140D01*
X38898Y-37999D01*
X39038Y-37860D01*
X39134Y-37626D01*
X39135Y-37374D01*
X39038Y-37140D01*
X39017Y-37120D01*
X41120Y-37120D01*
X41120Y-36900D01*
X42608Y-36900D01*
X42682Y-36974D01*
X42888Y-37059D01*
X43110Y-37060D01*
X43316Y-36975D01*
X43474Y-36817D01*
X43559Y-36611D01*
X43560Y-36389D01*
X43475Y-36183D01*
X43317Y-36025D01*
X43111Y-35940D01*
X42889Y-35939D01*
X42683Y-36024D01*
X42608Y-36100D01*
X42091Y-36100D01*
X42137Y-36081D01*
X42330Y-35888D01*
X42434Y-35636D01*
X42435Y-35364D01*
X42331Y-35112D01*
X42138Y-34919D01*
X41886Y-34815D01*
X41614Y-34814D01*
X41362Y-34918D01*
X41169Y-35111D01*
X41120Y-35230D01*
X41120Y-33769D01*
X41168Y-33887D01*
X41361Y-34080D01*
X41613Y-34184D01*
X41885Y-34185D01*
X42137Y-34081D01*
X42330Y-33888D01*
X42434Y-33636D01*
X42435Y-33364D01*
X42331Y-33112D01*
X42138Y-32919D01*
X41886Y-32815D01*
X41614Y-32814D01*
X41362Y-32918D01*
X41169Y-33111D01*
X41120Y-33230D01*
X41120Y-32135D01*
X41125Y-32135D01*
X41359Y-32038D01*
X41538Y-31860D01*
X41634Y-31626D01*
X41635Y-31374D01*
X41538Y-31140D01*
X41510Y-31112D01*
X41510Y-28961D01*
X42211Y-28260D01*
X45357Y-28260D01*
X45315Y-28363D01*
X45314Y-28635D01*
X45418Y-28887D01*
X45531Y-29000D01*
X45419Y-29111D01*
X45315Y-29363D01*
X45314Y-29635D01*
X45418Y-29887D01*
X45531Y-30000D01*
X45419Y-30111D01*
X45315Y-30363D01*
X45314Y-30635D01*
X45418Y-30887D01*
X45531Y-31000D01*
X45419Y-31111D01*
X45315Y-31363D01*
X45314Y-31635D01*
X45418Y-31887D01*
X45531Y-32000D01*
X45419Y-32111D01*
X45315Y-32363D01*
X45314Y-32635D01*
X45418Y-32887D01*
X45531Y-33000D01*
X45419Y-33111D01*
X45315Y-33363D01*
X45314Y-33635D01*
X45418Y-33887D01*
X45531Y-34000D01*
X45419Y-34111D01*
X45315Y-34363D01*
X45314Y-34635D01*
X45418Y-34887D01*
X45436Y-34904D01*
X45369Y-34970D01*
X45315Y-35103D01*
X45314Y-35246D01*
X45314Y-35896D01*
X45369Y-36028D01*
X45470Y-36130D01*
X45603Y-36184D01*
X45746Y-36185D01*
X46396Y-36185D01*
X46500Y-36142D01*
X46603Y-36184D01*
X46746Y-36185D01*
X47396Y-36185D01*
X47500Y-36142D01*
X47603Y-36184D01*
X47746Y-36185D01*
X48396Y-36185D01*
X48528Y-36130D01*
X48630Y-36029D01*
X48684Y-35896D01*
X48685Y-35753D01*
X48685Y-35103D01*
X48630Y-34971D01*
X48564Y-34904D01*
X48580Y-34888D01*
X48684Y-34636D01*
X48685Y-34364D01*
X48581Y-34112D01*
X48468Y-33999D01*
X48580Y-33888D01*
X48684Y-33636D01*
X48685Y-33364D01*
X48581Y-33112D01*
X48468Y-32999D01*
X48580Y-32888D01*
X48684Y-32636D01*
X48685Y-32364D01*
X48581Y-32112D01*
X48468Y-31999D01*
X48580Y-31888D01*
X48684Y-31636D01*
X48685Y-31364D01*
X48581Y-31112D01*
X48468Y-30999D01*
X48580Y-30888D01*
X48684Y-30636D01*
X48685Y-30364D01*
X48581Y-30112D01*
X48468Y-29999D01*
X48580Y-29888D01*
X48684Y-29636D01*
X48685Y-29364D01*
X48581Y-29112D01*
X48468Y-28999D01*
X48580Y-28888D01*
X48658Y-28700D01*
X48682Y-28724D01*
X48888Y-28809D01*
X49110Y-28810D01*
X49316Y-28725D01*
X49474Y-28567D01*
X49490Y-28530D01*
X49490Y-29041D01*
X49419Y-29111D01*
X49315Y-29363D01*
X49314Y-29635D01*
X49418Y-29887D01*
X49490Y-29958D01*
X49490Y-30041D01*
X49419Y-30111D01*
X49315Y-30363D01*
X49314Y-30635D01*
X49418Y-30887D01*
X49490Y-30958D01*
X49490Y-31041D01*
X49419Y-31111D01*
X49315Y-31363D01*
X49314Y-31635D01*
X49418Y-31887D01*
X49490Y-31958D01*
X49490Y-32041D01*
X49419Y-32111D01*
X49315Y-32363D01*
X49314Y-32635D01*
X49418Y-32887D01*
X49436Y-32904D01*
X49369Y-32970D01*
X49315Y-33103D01*
X49314Y-33246D01*
X49314Y-33896D01*
X49369Y-34028D01*
X49470Y-34130D01*
X49490Y-34137D01*
X49490Y-36538D01*
G54D10*
G36*
X52042Y-21891D02*
X51124Y-22810D01*
X50863Y-22809D01*
X50609Y-22914D01*
X50499Y-23024D01*
X50391Y-22915D01*
X50137Y-22810D01*
X49863Y-22809D01*
X49609Y-22914D01*
X49424Y-23100D01*
X48723Y-23100D01*
X48862Y-23042D01*
X49042Y-22863D01*
X49139Y-22627D01*
X49140Y-22373D01*
X49042Y-22137D01*
X48863Y-21957D01*
X48627Y-21860D01*
X48373Y-21859D01*
X48137Y-21957D01*
X47957Y-22136D01*
X47860Y-22372D01*
X47859Y-22626D01*
X47957Y-22862D01*
X48136Y-23042D01*
X48276Y-23100D01*
X45415Y-23100D01*
X44650Y-22334D01*
X44650Y-21192D01*
X44682Y-21224D01*
X44888Y-21309D01*
X45110Y-21310D01*
X45316Y-21225D01*
X45391Y-21150D01*
X49084Y-21150D01*
X49310Y-21375D01*
X49309Y-21636D01*
X49414Y-21890D01*
X49608Y-22084D01*
X49862Y-22189D01*
X50136Y-22190D01*
X50390Y-22085D01*
X50500Y-21975D01*
X50608Y-22084D01*
X50862Y-22189D01*
X51136Y-22190D01*
X51390Y-22085D01*
X51575Y-21900D01*
X52000Y-21900D01*
X52000Y-21899D01*
X52042Y-21891D01*
X52042Y-21891D01*
G37*
G54D28*
X52042Y-21891D02*
X51124Y-22810D01*
X50863Y-22809D01*
X50609Y-22914D01*
X50499Y-23024D01*
X50391Y-22915D01*
X50137Y-22810D01*
X49863Y-22809D01*
X49609Y-22914D01*
X49424Y-23100D01*
X48723Y-23100D01*
X48862Y-23042D01*
X49042Y-22863D01*
X49139Y-22627D01*
X49140Y-22373D01*
X49042Y-22137D01*
X48863Y-21957D01*
X48627Y-21860D01*
X48373Y-21859D01*
X48137Y-21957D01*
X47957Y-22136D01*
X47860Y-22372D01*
X47859Y-22626D01*
X47957Y-22862D01*
X48136Y-23042D01*
X48276Y-23100D01*
X45415Y-23100D01*
X44650Y-22334D01*
X44650Y-21192D01*
X44682Y-21224D01*
X44888Y-21309D01*
X45110Y-21310D01*
X45316Y-21225D01*
X45391Y-21150D01*
X49084Y-21150D01*
X49310Y-21375D01*
X49309Y-21636D01*
X49414Y-21890D01*
X49608Y-22084D01*
X49862Y-22189D01*
X50136Y-22190D01*
X50390Y-22085D01*
X50500Y-21975D01*
X50608Y-22084D01*
X50862Y-22189D01*
X51136Y-22190D01*
X51390Y-22085D01*
X51575Y-21900D01*
X52000Y-21900D01*
X52000Y-21899D01*
X52042Y-21891D01*
G54D10*
G36*
X54314Y-27463D02*
X53389Y-28389D01*
X53278Y-28554D01*
X53240Y-28750D01*
X53240Y-29038D01*
X52463Y-29814D01*
X52103Y-29814D01*
X51971Y-29869D01*
X51869Y-29970D01*
X51815Y-30103D01*
X51814Y-30246D01*
X51814Y-30896D01*
X51853Y-30990D01*
X51750Y-30990D01*
X51554Y-31028D01*
X51499Y-31065D01*
X51389Y-31139D01*
X50639Y-31889D01*
X50528Y-32054D01*
X50527Y-32059D01*
X50510Y-32041D01*
X50510Y-31958D01*
X50580Y-31888D01*
X50684Y-31636D01*
X50685Y-31364D01*
X50581Y-31112D01*
X50510Y-31041D01*
X50510Y-30958D01*
X50580Y-30888D01*
X50684Y-30636D01*
X50685Y-30364D01*
X50581Y-30112D01*
X50510Y-30041D01*
X50510Y-29958D01*
X50580Y-29888D01*
X50684Y-29636D01*
X50685Y-29364D01*
X50581Y-29112D01*
X50510Y-29041D01*
X50510Y-28211D01*
X51461Y-27260D01*
X51814Y-27260D01*
X51814Y-27896D01*
X51869Y-28028D01*
X51970Y-28130D01*
X52103Y-28184D01*
X52246Y-28185D01*
X52896Y-28185D01*
X53028Y-28130D01*
X53130Y-28029D01*
X53184Y-27896D01*
X53185Y-27753D01*
X53185Y-27260D01*
X54314Y-27260D01*
X54314Y-27463D01*
X54314Y-27463D01*
G37*
G54D28*
X54314Y-27463D02*
X53389Y-28389D01*
X53278Y-28554D01*
X53240Y-28750D01*
X53240Y-29038D01*
X52463Y-29814D01*
X52103Y-29814D01*
X51971Y-29869D01*
X51869Y-29970D01*
X51815Y-30103D01*
X51814Y-30246D01*
X51814Y-30896D01*
X51853Y-30990D01*
X51750Y-30990D01*
X51554Y-31028D01*
X51499Y-31065D01*
X51389Y-31139D01*
X50639Y-31889D01*
X50528Y-32054D01*
X50527Y-32059D01*
X50510Y-32041D01*
X50510Y-31958D01*
X50580Y-31888D01*
X50684Y-31636D01*
X50685Y-31364D01*
X50581Y-31112D01*
X50510Y-31041D01*
X50510Y-30958D01*
X50580Y-30888D01*
X50684Y-30636D01*
X50685Y-30364D01*
X50581Y-30112D01*
X50510Y-30041D01*
X50510Y-29958D01*
X50580Y-29888D01*
X50684Y-29636D01*
X50685Y-29364D01*
X50581Y-29112D01*
X50510Y-29041D01*
X50510Y-28211D01*
X51461Y-27260D01*
X51814Y-27260D01*
X51814Y-27896D01*
X51869Y-28028D01*
X51970Y-28130D01*
X52103Y-28184D01*
X52246Y-28185D01*
X52896Y-28185D01*
X53028Y-28130D01*
X53130Y-28029D01*
X53184Y-27896D01*
X53185Y-27753D01*
X53185Y-27260D01*
X54314Y-27260D01*
X54314Y-27463D01*
G54D10*
G36*
X61880Y-34814D02*
X61864Y-34814D01*
X61612Y-34918D01*
X61499Y-35031D01*
X61388Y-34919D01*
X61136Y-34815D01*
X60864Y-34814D01*
X60612Y-34918D01*
X60499Y-35031D01*
X60388Y-34919D01*
X60136Y-34815D01*
X59864Y-34814D01*
X59612Y-34918D01*
X59499Y-35031D01*
X59388Y-34919D01*
X59136Y-34815D01*
X58864Y-34814D01*
X58612Y-34918D01*
X58499Y-35031D01*
X58388Y-34919D01*
X58136Y-34815D01*
X57864Y-34814D01*
X57612Y-34918D01*
X57499Y-35031D01*
X57388Y-34919D01*
X57136Y-34815D01*
X56864Y-34814D01*
X56612Y-34918D01*
X56499Y-35031D01*
X56388Y-34919D01*
X56136Y-34815D01*
X55864Y-34814D01*
X55612Y-34918D01*
X55499Y-35031D01*
X55388Y-34919D01*
X55136Y-34815D01*
X54864Y-34814D01*
X54612Y-34918D01*
X54499Y-35031D01*
X54388Y-34919D01*
X54136Y-34815D01*
X53864Y-34814D01*
X53612Y-34918D01*
X53499Y-35031D01*
X53388Y-34919D01*
X53136Y-34815D01*
X52864Y-34814D01*
X52612Y-34918D01*
X52499Y-35031D01*
X52388Y-34919D01*
X52136Y-34815D01*
X51864Y-34814D01*
X51612Y-34918D01*
X51499Y-35031D01*
X51388Y-34919D01*
X51136Y-34815D01*
X50864Y-34814D01*
X50612Y-34918D01*
X50510Y-35021D01*
X50510Y-34138D01*
X50528Y-34130D01*
X50558Y-34100D01*
X50682Y-34224D01*
X50888Y-34309D01*
X51110Y-34310D01*
X51316Y-34225D01*
X51474Y-34067D01*
X51559Y-33861D01*
X51560Y-33639D01*
X51510Y-33517D01*
X51510Y-33000D01*
X51510Y-32461D01*
X51961Y-32010D01*
X52021Y-32010D01*
X51919Y-32111D01*
X51815Y-32363D01*
X51814Y-32635D01*
X51918Y-32887D01*
X52111Y-33080D01*
X52363Y-33184D01*
X52635Y-33185D01*
X52887Y-33081D01*
X53080Y-32888D01*
X53184Y-32636D01*
X53185Y-32364D01*
X53081Y-32112D01*
X52978Y-32010D01*
X53288Y-32010D01*
X54139Y-32860D01*
X54304Y-32971D01*
X54304Y-32971D01*
X54500Y-33010D01*
X54600Y-33010D01*
X54600Y-33431D01*
X54419Y-33611D01*
X54315Y-33863D01*
X54314Y-34135D01*
X54418Y-34387D01*
X54611Y-34580D01*
X54863Y-34684D01*
X55135Y-34685D01*
X55387Y-34581D01*
X55500Y-34468D01*
X55611Y-34580D01*
X55863Y-34684D01*
X56135Y-34685D01*
X56387Y-34581D01*
X56535Y-34433D01*
X56639Y-34538D01*
X56873Y-34634D01*
X57125Y-34635D01*
X57359Y-34538D01*
X57538Y-34360D01*
X57634Y-34126D01*
X57635Y-33874D01*
X57587Y-33760D01*
X59250Y-33760D01*
X59445Y-33721D01*
X59445Y-33721D01*
X59610Y-33610D01*
X60011Y-33210D01*
X60140Y-33210D01*
X60401Y-33102D01*
X60601Y-32902D01*
X60709Y-32641D01*
X60710Y-32359D01*
X60710Y-27359D01*
X60602Y-27098D01*
X60402Y-26898D01*
X60141Y-26790D01*
X59859Y-26789D01*
X59598Y-26897D01*
X59398Y-27097D01*
X59290Y-27358D01*
X59289Y-27640D01*
X59397Y-27901D01*
X59597Y-28101D01*
X59858Y-28209D01*
X60140Y-28210D01*
X60401Y-28102D01*
X60601Y-27902D01*
X60709Y-27641D01*
X60710Y-27359D01*
X60710Y-32359D01*
X60604Y-32104D01*
X60655Y-32054D01*
X60709Y-31921D01*
X60710Y-31778D01*
X60710Y-31078D01*
X60655Y-30946D01*
X60554Y-30844D01*
X60421Y-30790D01*
X60278Y-30789D01*
X59578Y-30789D01*
X59446Y-30844D01*
X59344Y-30945D01*
X59290Y-31078D01*
X59289Y-31221D01*
X59289Y-31921D01*
X59344Y-32053D01*
X59395Y-32104D01*
X59290Y-32358D01*
X59290Y-32488D01*
X59038Y-32740D01*
X58135Y-32740D01*
X58135Y-31703D01*
X58135Y-31153D01*
X58080Y-31021D01*
X57979Y-30919D01*
X57846Y-30865D01*
X57703Y-30864D01*
X57153Y-30864D01*
X57021Y-30919D01*
X56919Y-31020D01*
X56865Y-31153D01*
X56864Y-31296D01*
X56864Y-31846D01*
X56919Y-31978D01*
X57020Y-32080D01*
X57153Y-32134D01*
X57296Y-32135D01*
X57846Y-32135D01*
X57978Y-32080D01*
X58080Y-31979D01*
X58134Y-31846D01*
X58135Y-31703D01*
X58135Y-32740D01*
X56461Y-32740D01*
X56185Y-32463D01*
X56185Y-32364D01*
X56081Y-32112D01*
X55888Y-31919D01*
X55684Y-31835D01*
X55685Y-31753D01*
X55685Y-31103D01*
X55630Y-30971D01*
X55529Y-30869D01*
X55396Y-30815D01*
X55253Y-30814D01*
X54603Y-30814D01*
X54471Y-30869D01*
X54369Y-30970D01*
X54315Y-31103D01*
X54314Y-31246D01*
X54314Y-31593D01*
X53860Y-31139D01*
X53695Y-31028D01*
X53500Y-30990D01*
X53146Y-30990D01*
X53184Y-30896D01*
X53185Y-30753D01*
X53185Y-30536D01*
X54110Y-29610D01*
X54221Y-29445D01*
X54221Y-29445D01*
X54260Y-29250D01*
X54260Y-28961D01*
X55036Y-28185D01*
X55396Y-28185D01*
X55528Y-28130D01*
X55630Y-28029D01*
X55684Y-27896D01*
X55685Y-27753D01*
X55685Y-27260D01*
X56814Y-27260D01*
X56814Y-27896D01*
X56869Y-28028D01*
X56970Y-28130D01*
X57103Y-28184D01*
X57246Y-28185D01*
X57896Y-28185D01*
X58028Y-28130D01*
X58130Y-28029D01*
X58184Y-27896D01*
X58185Y-27753D01*
X58185Y-27103D01*
X58130Y-26971D01*
X58029Y-26869D01*
X58010Y-26862D01*
X58010Y-26461D01*
X58261Y-26210D01*
X58921Y-26210D01*
X59053Y-26155D01*
X59155Y-26054D01*
X59173Y-26010D01*
X59505Y-26010D01*
X59597Y-26101D01*
X59858Y-26209D01*
X60140Y-26210D01*
X60401Y-26102D01*
X60601Y-25902D01*
X60709Y-25641D01*
X60710Y-25359D01*
X60602Y-25098D01*
X60402Y-24898D01*
X60141Y-24790D01*
X59859Y-24789D01*
X59598Y-24897D01*
X59505Y-24990D01*
X59173Y-24990D01*
X59155Y-24946D01*
X59054Y-24844D01*
X58921Y-24790D01*
X58778Y-24789D01*
X58078Y-24789D01*
X57998Y-24823D01*
X58048Y-24701D01*
X58049Y-24558D01*
X58049Y-23180D01*
X57994Y-23048D01*
X57893Y-22946D01*
X57760Y-22892D01*
X57617Y-22891D01*
X56239Y-22891D01*
X56107Y-22946D01*
X56005Y-23047D01*
X55951Y-23180D01*
X55950Y-23323D01*
X55950Y-24701D01*
X56005Y-24833D01*
X56106Y-24935D01*
X56239Y-24989D01*
X56288Y-24989D01*
X56288Y-24990D01*
X54994Y-24990D01*
X54902Y-24898D01*
X54641Y-24790D01*
X54359Y-24789D01*
X54098Y-24897D01*
X54010Y-24985D01*
X54010Y-24388D01*
X54038Y-24360D01*
X54134Y-24126D01*
X54135Y-23874D01*
X54038Y-23640D01*
X53860Y-23461D01*
X53626Y-23365D01*
X53374Y-23364D01*
X53140Y-23461D01*
X53112Y-23490D01*
X52888Y-23490D01*
X52860Y-23461D01*
X52626Y-23365D01*
X52374Y-23364D01*
X52140Y-23461D01*
X51961Y-23639D01*
X51865Y-23873D01*
X51864Y-24125D01*
X51961Y-24359D01*
X52139Y-24538D01*
X52373Y-24634D01*
X52625Y-24635D01*
X52859Y-24538D01*
X52887Y-24510D01*
X52990Y-24510D01*
X52990Y-25038D01*
X52713Y-25314D01*
X52103Y-25314D01*
X51971Y-25369D01*
X51869Y-25470D01*
X51862Y-25490D01*
X51250Y-25490D01*
X51054Y-25528D01*
X50889Y-25639D01*
X49288Y-27240D01*
X48885Y-27240D01*
X48885Y-26374D01*
X48788Y-26140D01*
X48610Y-25961D01*
X48376Y-25865D01*
X48124Y-25864D01*
X47890Y-25961D01*
X47711Y-26139D01*
X47624Y-26349D01*
X47538Y-26140D01*
X47360Y-25961D01*
X47126Y-25865D01*
X46874Y-25864D01*
X46640Y-25961D01*
X46461Y-26139D01*
X46365Y-26373D01*
X46364Y-26625D01*
X46461Y-26859D01*
X46639Y-27038D01*
X46873Y-27134D01*
X47125Y-27135D01*
X47359Y-27038D01*
X47538Y-26860D01*
X47625Y-26650D01*
X47711Y-26859D01*
X47889Y-27038D01*
X48123Y-27134D01*
X48375Y-27135D01*
X48609Y-27038D01*
X48788Y-26860D01*
X48884Y-26626D01*
X48885Y-26374D01*
X48885Y-27240D01*
X48500Y-27240D01*
X45635Y-27240D01*
X45635Y-26374D01*
X45538Y-26140D01*
X45360Y-25961D01*
X45126Y-25865D01*
X44874Y-25864D01*
X44640Y-25961D01*
X44461Y-26139D01*
X44365Y-26373D01*
X44364Y-26625D01*
X44461Y-26859D01*
X44639Y-27038D01*
X44873Y-27134D01*
X45125Y-27135D01*
X45359Y-27038D01*
X45538Y-26860D01*
X45634Y-26626D01*
X45635Y-26374D01*
X45635Y-27240D01*
X42000Y-27240D01*
X41804Y-27278D01*
X41639Y-27389D01*
X40639Y-28389D01*
X40528Y-28554D01*
X40490Y-28750D01*
X40490Y-31072D01*
X40389Y-31139D01*
X39648Y-31880D01*
X39018Y-31880D01*
X39038Y-31860D01*
X39134Y-31626D01*
X39135Y-31374D01*
X39038Y-31140D01*
X38898Y-30999D01*
X39038Y-30860D01*
X39134Y-30626D01*
X39135Y-30374D01*
X39038Y-30140D01*
X38898Y-29999D01*
X39038Y-29860D01*
X39134Y-29626D01*
X39135Y-29374D01*
X39038Y-29140D01*
X38898Y-28999D01*
X39038Y-28860D01*
X39134Y-28626D01*
X39135Y-28374D01*
X39038Y-28140D01*
X38898Y-27999D01*
X39038Y-27860D01*
X39134Y-27626D01*
X39135Y-27374D01*
X39038Y-27140D01*
X38898Y-26999D01*
X39038Y-26860D01*
X39134Y-26626D01*
X39135Y-26374D01*
X39038Y-26140D01*
X38860Y-25961D01*
X38710Y-25900D01*
X41500Y-25900D01*
X41500Y-25899D01*
X41627Y-25874D01*
X41653Y-25869D01*
X41653Y-25869D01*
X41782Y-25782D01*
X42282Y-25282D01*
X42282Y-25282D01*
X42282Y-25282D01*
X42532Y-25032D01*
X42532Y-25032D01*
X42590Y-24946D01*
X42619Y-24903D01*
X42619Y-24903D01*
X42649Y-24750D01*
X42650Y-24750D01*
X42650Y-24500D01*
X42650Y-21141D01*
X42724Y-21067D01*
X42809Y-20861D01*
X42810Y-20639D01*
X42802Y-20620D01*
X43697Y-20620D01*
X43690Y-20638D01*
X43689Y-20860D01*
X43774Y-21066D01*
X43850Y-21141D01*
X43850Y-22500D01*
X43875Y-22627D01*
X43880Y-22653D01*
X43967Y-22782D01*
X44967Y-23782D01*
X44967Y-23782D01*
X45053Y-23840D01*
X45096Y-23869D01*
X45096Y-23869D01*
X45250Y-23900D01*
X48276Y-23900D01*
X48137Y-23957D01*
X47957Y-24136D01*
X47860Y-24372D01*
X47859Y-24626D01*
X47957Y-24862D01*
X48136Y-25042D01*
X48372Y-25139D01*
X48626Y-25140D01*
X48862Y-25042D01*
X49042Y-24863D01*
X49139Y-24627D01*
X49140Y-24373D01*
X49042Y-24137D01*
X48863Y-23957D01*
X48723Y-23900D01*
X49424Y-23900D01*
X49608Y-24084D01*
X49862Y-24189D01*
X50136Y-24190D01*
X50390Y-24085D01*
X50500Y-23975D01*
X50608Y-24084D01*
X50862Y-24189D01*
X51136Y-24190D01*
X51390Y-24085D01*
X51584Y-23891D01*
X51689Y-23637D01*
X51690Y-23375D01*
X53430Y-21634D01*
X53625Y-21635D01*
X53859Y-21538D01*
X54038Y-21360D01*
X54134Y-21126D01*
X54135Y-20874D01*
X54038Y-20640D01*
X54017Y-20620D01*
X60239Y-20620D01*
X60017Y-20842D01*
X59840Y-21268D01*
X59839Y-21729D01*
X60016Y-22156D01*
X60342Y-22482D01*
X60768Y-22659D01*
X61229Y-22660D01*
X61656Y-22483D01*
X61880Y-22260D01*
X61880Y-34814D01*
X61880Y-34814D01*
G37*
G54D28*
X61880Y-34814D02*
X61864Y-34814D01*
X61612Y-34918D01*
X61499Y-35031D01*
X61388Y-34919D01*
X61136Y-34815D01*
X60864Y-34814D01*
X60612Y-34918D01*
X60499Y-35031D01*
X60388Y-34919D01*
X60136Y-34815D01*
X59864Y-34814D01*
X59612Y-34918D01*
X59499Y-35031D01*
X59388Y-34919D01*
X59136Y-34815D01*
X58864Y-34814D01*
X58612Y-34918D01*
X58499Y-35031D01*
X58388Y-34919D01*
X58136Y-34815D01*
X57864Y-34814D01*
X57612Y-34918D01*
X57499Y-35031D01*
X57388Y-34919D01*
X57136Y-34815D01*
X56864Y-34814D01*
X56612Y-34918D01*
X56499Y-35031D01*
X56388Y-34919D01*
X56136Y-34815D01*
X55864Y-34814D01*
X55612Y-34918D01*
X55499Y-35031D01*
X55388Y-34919D01*
X55136Y-34815D01*
X54864Y-34814D01*
X54612Y-34918D01*
X54499Y-35031D01*
X54388Y-34919D01*
X54136Y-34815D01*
X53864Y-34814D01*
X53612Y-34918D01*
X53499Y-35031D01*
X53388Y-34919D01*
X53136Y-34815D01*
X52864Y-34814D01*
X52612Y-34918D01*
X52499Y-35031D01*
X52388Y-34919D01*
X52136Y-34815D01*
X51864Y-34814D01*
X51612Y-34918D01*
X51499Y-35031D01*
X51388Y-34919D01*
X51136Y-34815D01*
X50864Y-34814D01*
X50612Y-34918D01*
X50510Y-35021D01*
X50510Y-34138D01*
X50528Y-34130D01*
X50558Y-34100D01*
X50682Y-34224D01*
X50888Y-34309D01*
X51110Y-34310D01*
X51316Y-34225D01*
X51474Y-34067D01*
X51559Y-33861D01*
X51560Y-33639D01*
X51510Y-33517D01*
X51510Y-33000D01*
X51510Y-32461D01*
X51961Y-32010D01*
X52021Y-32010D01*
X51919Y-32111D01*
X51815Y-32363D01*
X51814Y-32635D01*
X51918Y-32887D01*
X52111Y-33080D01*
X52363Y-33184D01*
X52635Y-33185D01*
X52887Y-33081D01*
X53080Y-32888D01*
X53184Y-32636D01*
X53185Y-32364D01*
X53081Y-32112D01*
X52978Y-32010D01*
X53288Y-32010D01*
X54139Y-32860D01*
X54304Y-32971D01*
X54304Y-32971D01*
X54500Y-33010D01*
X54600Y-33010D01*
X54600Y-33431D01*
X54419Y-33611D01*
X54315Y-33863D01*
X54314Y-34135D01*
X54418Y-34387D01*
X54611Y-34580D01*
X54863Y-34684D01*
X55135Y-34685D01*
X55387Y-34581D01*
X55500Y-34468D01*
X55611Y-34580D01*
X55863Y-34684D01*
X56135Y-34685D01*
X56387Y-34581D01*
X56535Y-34433D01*
X56639Y-34538D01*
X56873Y-34634D01*
X57125Y-34635D01*
X57359Y-34538D01*
X57538Y-34360D01*
X57634Y-34126D01*
X57635Y-33874D01*
X57587Y-33760D01*
X59250Y-33760D01*
X59445Y-33721D01*
X59445Y-33721D01*
X59610Y-33610D01*
X60011Y-33210D01*
X60140Y-33210D01*
X60401Y-33102D01*
X60601Y-32902D01*
X60709Y-32641D01*
X60710Y-32359D01*
X60710Y-27359D01*
X60602Y-27098D01*
X60402Y-26898D01*
X60141Y-26790D01*
X59859Y-26789D01*
X59598Y-26897D01*
X59398Y-27097D01*
X59290Y-27358D01*
X59289Y-27640D01*
X59397Y-27901D01*
X59597Y-28101D01*
X59858Y-28209D01*
X60140Y-28210D01*
X60401Y-28102D01*
X60601Y-27902D01*
X60709Y-27641D01*
X60710Y-27359D01*
X60710Y-32359D01*
X60604Y-32104D01*
X60655Y-32054D01*
X60709Y-31921D01*
X60710Y-31778D01*
X60710Y-31078D01*
X60655Y-30946D01*
X60554Y-30844D01*
X60421Y-30790D01*
X60278Y-30789D01*
X59578Y-30789D01*
X59446Y-30844D01*
X59344Y-30945D01*
X59290Y-31078D01*
X59289Y-31221D01*
X59289Y-31921D01*
X59344Y-32053D01*
X59395Y-32104D01*
X59290Y-32358D01*
X59290Y-32488D01*
X59038Y-32740D01*
X58135Y-32740D01*
X58135Y-31703D01*
X58135Y-31153D01*
X58080Y-31021D01*
X57979Y-30919D01*
X57846Y-30865D01*
X57703Y-30864D01*
X57153Y-30864D01*
X57021Y-30919D01*
X56919Y-31020D01*
X56865Y-31153D01*
X56864Y-31296D01*
X56864Y-31846D01*
X56919Y-31978D01*
X57020Y-32080D01*
X57153Y-32134D01*
X57296Y-32135D01*
X57846Y-32135D01*
X57978Y-32080D01*
X58080Y-31979D01*
X58134Y-31846D01*
X58135Y-31703D01*
X58135Y-32740D01*
X56461Y-32740D01*
X56185Y-32463D01*
X56185Y-32364D01*
X56081Y-32112D01*
X55888Y-31919D01*
X55684Y-31835D01*
X55685Y-31753D01*
X55685Y-31103D01*
X55630Y-30971D01*
X55529Y-30869D01*
X55396Y-30815D01*
X55253Y-30814D01*
X54603Y-30814D01*
X54471Y-30869D01*
X54369Y-30970D01*
X54315Y-31103D01*
X54314Y-31246D01*
X54314Y-31593D01*
X53860Y-31139D01*
X53695Y-31028D01*
X53500Y-30990D01*
X53146Y-30990D01*
X53184Y-30896D01*
X53185Y-30753D01*
X53185Y-30536D01*
X54110Y-29610D01*
X54221Y-29445D01*
X54221Y-29445D01*
X54260Y-29250D01*
X54260Y-28961D01*
X55036Y-28185D01*
X55396Y-28185D01*
X55528Y-28130D01*
X55630Y-28029D01*
X55684Y-27896D01*
X55685Y-27753D01*
X55685Y-27260D01*
X56814Y-27260D01*
X56814Y-27896D01*
X56869Y-28028D01*
X56970Y-28130D01*
X57103Y-28184D01*
X57246Y-28185D01*
X57896Y-28185D01*
X58028Y-28130D01*
X58130Y-28029D01*
X58184Y-27896D01*
X58185Y-27753D01*
X58185Y-27103D01*
X58130Y-26971D01*
X58029Y-26869D01*
X58010Y-26862D01*
X58010Y-26461D01*
X58261Y-26210D01*
X58921Y-26210D01*
X59053Y-26155D01*
X59155Y-26054D01*
X59173Y-26010D01*
X59505Y-26010D01*
X59597Y-26101D01*
X59858Y-26209D01*
X60140Y-26210D01*
X60401Y-26102D01*
X60601Y-25902D01*
X60709Y-25641D01*
X60710Y-25359D01*
X60602Y-25098D01*
X60402Y-24898D01*
X60141Y-24790D01*
X59859Y-24789D01*
X59598Y-24897D01*
X59505Y-24990D01*
X59173Y-24990D01*
X59155Y-24946D01*
X59054Y-24844D01*
X58921Y-24790D01*
X58778Y-24789D01*
X58078Y-24789D01*
X57998Y-24823D01*
X58048Y-24701D01*
X58049Y-24558D01*
X58049Y-23180D01*
X57994Y-23048D01*
X57893Y-22946D01*
X57760Y-22892D01*
X57617Y-22891D01*
X56239Y-22891D01*
X56107Y-22946D01*
X56005Y-23047D01*
X55951Y-23180D01*
X55950Y-23323D01*
X55950Y-24701D01*
X56005Y-24833D01*
X56106Y-24935D01*
X56239Y-24989D01*
X56288Y-24989D01*
X56288Y-24990D01*
X54994Y-24990D01*
X54902Y-24898D01*
X54641Y-24790D01*
X54359Y-24789D01*
X54098Y-24897D01*
X54010Y-24985D01*
X54010Y-24388D01*
X54038Y-24360D01*
X54134Y-24126D01*
X54135Y-23874D01*
X54038Y-23640D01*
X53860Y-23461D01*
X53626Y-23365D01*
X53374Y-23364D01*
X53140Y-23461D01*
X53112Y-23490D01*
X52888Y-23490D01*
X52860Y-23461D01*
X52626Y-23365D01*
X52374Y-23364D01*
X52140Y-23461D01*
X51961Y-23639D01*
X51865Y-23873D01*
X51864Y-24125D01*
X51961Y-24359D01*
X52139Y-24538D01*
X52373Y-24634D01*
X52625Y-24635D01*
X52859Y-24538D01*
X52887Y-24510D01*
X52990Y-24510D01*
X52990Y-25038D01*
X52713Y-25314D01*
X52103Y-25314D01*
X51971Y-25369D01*
X51869Y-25470D01*
X51862Y-25490D01*
X51250Y-25490D01*
X51054Y-25528D01*
X50889Y-25639D01*
X49288Y-27240D01*
X48885Y-27240D01*
X48885Y-26374D01*
X48788Y-26140D01*
X48610Y-25961D01*
X48376Y-25865D01*
X48124Y-25864D01*
X47890Y-25961D01*
X47711Y-26139D01*
X47624Y-26349D01*
X47538Y-26140D01*
X47360Y-25961D01*
X47126Y-25865D01*
X46874Y-25864D01*
X46640Y-25961D01*
X46461Y-26139D01*
X46365Y-26373D01*
X46364Y-26625D01*
X46461Y-26859D01*
X46639Y-27038D01*
X46873Y-27134D01*
X47125Y-27135D01*
X47359Y-27038D01*
X47538Y-26860D01*
X47625Y-26650D01*
X47711Y-26859D01*
X47889Y-27038D01*
X48123Y-27134D01*
X48375Y-27135D01*
X48609Y-27038D01*
X48788Y-26860D01*
X48884Y-26626D01*
X48885Y-26374D01*
X48885Y-27240D01*
X48500Y-27240D01*
X45635Y-27240D01*
X45635Y-26374D01*
X45538Y-26140D01*
X45360Y-25961D01*
X45126Y-25865D01*
X44874Y-25864D01*
X44640Y-25961D01*
X44461Y-26139D01*
X44365Y-26373D01*
X44364Y-26625D01*
X44461Y-26859D01*
X44639Y-27038D01*
X44873Y-27134D01*
X45125Y-27135D01*
X45359Y-27038D01*
X45538Y-26860D01*
X45634Y-26626D01*
X45635Y-26374D01*
X45635Y-27240D01*
X42000Y-27240D01*
X41804Y-27278D01*
X41639Y-27389D01*
X40639Y-28389D01*
X40528Y-28554D01*
X40490Y-28750D01*
X40490Y-31072D01*
X40389Y-31139D01*
X39648Y-31880D01*
X39018Y-31880D01*
X39038Y-31860D01*
X39134Y-31626D01*
X39135Y-31374D01*
X39038Y-31140D01*
X38898Y-30999D01*
X39038Y-30860D01*
X39134Y-30626D01*
X39135Y-30374D01*
X39038Y-30140D01*
X38898Y-29999D01*
X39038Y-29860D01*
X39134Y-29626D01*
X39135Y-29374D01*
X39038Y-29140D01*
X38898Y-28999D01*
X39038Y-28860D01*
X39134Y-28626D01*
X39135Y-28374D01*
X39038Y-28140D01*
X38898Y-27999D01*
X39038Y-27860D01*
X39134Y-27626D01*
X39135Y-27374D01*
X39038Y-27140D01*
X38898Y-26999D01*
X39038Y-26860D01*
X39134Y-26626D01*
X39135Y-26374D01*
X39038Y-26140D01*
X38860Y-25961D01*
X38710Y-25900D01*
X41500Y-25900D01*
X41500Y-25899D01*
X41627Y-25874D01*
X41653Y-25869D01*
X41653Y-25869D01*
X41782Y-25782D01*
X42282Y-25282D01*
X42282Y-25282D01*
X42282Y-25282D01*
X42532Y-25032D01*
X42532Y-25032D01*
X42590Y-24946D01*
X42619Y-24903D01*
X42619Y-24903D01*
X42649Y-24750D01*
X42650Y-24750D01*
X42650Y-24500D01*
X42650Y-21141D01*
X42724Y-21067D01*
X42809Y-20861D01*
X42810Y-20639D01*
X42802Y-20620D01*
X43697Y-20620D01*
X43690Y-20638D01*
X43689Y-20860D01*
X43774Y-21066D01*
X43850Y-21141D01*
X43850Y-22500D01*
X43875Y-22627D01*
X43880Y-22653D01*
X43967Y-22782D01*
X44967Y-23782D01*
X44967Y-23782D01*
X45053Y-23840D01*
X45096Y-23869D01*
X45096Y-23869D01*
X45250Y-23900D01*
X48276Y-23900D01*
X48137Y-23957D01*
X47957Y-24136D01*
X47860Y-24372D01*
X47859Y-24626D01*
X47957Y-24862D01*
X48136Y-25042D01*
X48372Y-25139D01*
X48626Y-25140D01*
X48862Y-25042D01*
X49042Y-24863D01*
X49139Y-24627D01*
X49140Y-24373D01*
X49042Y-24137D01*
X48863Y-23957D01*
X48723Y-23900D01*
X49424Y-23900D01*
X49608Y-24084D01*
X49862Y-24189D01*
X50136Y-24190D01*
X50390Y-24085D01*
X50500Y-23975D01*
X50608Y-24084D01*
X50862Y-24189D01*
X51136Y-24190D01*
X51390Y-24085D01*
X51584Y-23891D01*
X51689Y-23637D01*
X51690Y-23375D01*
X53430Y-21634D01*
X53625Y-21635D01*
X53859Y-21538D01*
X54038Y-21360D01*
X54134Y-21126D01*
X54135Y-20874D01*
X54038Y-20640D01*
X54017Y-20620D01*
X60239Y-20620D01*
X60017Y-20842D01*
X59840Y-21268D01*
X59839Y-21729D01*
X60016Y-22156D01*
X60342Y-22482D01*
X60768Y-22659D01*
X61229Y-22660D01*
X61656Y-22483D01*
X61880Y-22260D01*
X61880Y-34814D01*
G54D10*
G36*
X61880Y-55739D02*
X61657Y-55517D01*
X61231Y-55340D01*
X60770Y-55339D01*
X60343Y-55516D01*
X60185Y-55674D01*
X60185Y-53364D01*
X60081Y-53112D01*
X59968Y-52999D01*
X60080Y-52888D01*
X60184Y-52636D01*
X60185Y-52364D01*
X60081Y-52112D01*
X59888Y-51919D01*
X59636Y-51815D01*
X59364Y-51814D01*
X59112Y-51918D01*
X58919Y-52111D01*
X58815Y-52363D01*
X58814Y-52635D01*
X58918Y-52887D01*
X59031Y-53000D01*
X58919Y-53111D01*
X58815Y-53363D01*
X58814Y-53635D01*
X58918Y-53887D01*
X59111Y-54080D01*
X59363Y-54184D01*
X59635Y-54185D01*
X59887Y-54081D01*
X60080Y-53888D01*
X60184Y-53636D01*
X60185Y-53364D01*
X60185Y-55674D01*
X60017Y-55842D01*
X59840Y-56268D01*
X59839Y-56729D01*
X60016Y-57156D01*
X60239Y-57380D01*
X59185Y-57380D01*
X59185Y-54864D01*
X59081Y-54612D01*
X58888Y-54419D01*
X58636Y-54315D01*
X58364Y-54314D01*
X58112Y-54418D01*
X57931Y-54600D01*
X56068Y-54600D01*
X55900Y-54431D01*
X55900Y-54068D01*
X56080Y-53888D01*
X56184Y-53636D01*
X56185Y-53364D01*
X56081Y-53112D01*
X56017Y-53048D01*
X56165Y-52900D01*
X56931Y-52900D01*
X57111Y-53080D01*
X57363Y-53184D01*
X57635Y-53185D01*
X57887Y-53081D01*
X58080Y-52888D01*
X58184Y-52636D01*
X58185Y-52364D01*
X58081Y-52112D01*
X57888Y-51919D01*
X57636Y-51815D01*
X57364Y-51814D01*
X57112Y-51918D01*
X56931Y-52100D01*
X56000Y-52100D01*
X55915Y-52100D01*
X55282Y-51467D01*
X55153Y-51380D01*
X55127Y-51375D01*
X55000Y-51350D01*
X50641Y-51350D01*
X50567Y-51275D01*
X50361Y-51190D01*
X50139Y-51189D01*
X49933Y-51274D01*
X49775Y-51432D01*
X49690Y-51638D01*
X49689Y-51860D01*
X49774Y-52066D01*
X49932Y-52224D01*
X50138Y-52309D01*
X50360Y-52310D01*
X50566Y-52225D01*
X50641Y-52150D01*
X50817Y-52150D01*
X50803Y-52159D01*
X50717Y-52217D01*
X50217Y-52717D01*
X50130Y-52846D01*
X50125Y-52872D01*
X50116Y-52917D01*
X50112Y-52918D01*
X49919Y-53111D01*
X49815Y-53363D01*
X49814Y-53635D01*
X49918Y-53887D01*
X50100Y-54068D01*
X50100Y-54431D01*
X49919Y-54611D01*
X49815Y-54863D01*
X49814Y-55135D01*
X49918Y-55387D01*
X50111Y-55580D01*
X50363Y-55684D01*
X50635Y-55685D01*
X50887Y-55581D01*
X51068Y-55400D01*
X52931Y-55400D01*
X53111Y-55580D01*
X53363Y-55684D01*
X53635Y-55685D01*
X53887Y-55581D01*
X54080Y-55388D01*
X54184Y-55136D01*
X54185Y-54864D01*
X54081Y-54612D01*
X53888Y-54419D01*
X53636Y-54315D01*
X53364Y-54314D01*
X53112Y-54418D01*
X52931Y-54600D01*
X51068Y-54600D01*
X50900Y-54431D01*
X50900Y-54068D01*
X51080Y-53888D01*
X51184Y-53636D01*
X51185Y-53364D01*
X51081Y-53112D01*
X51017Y-53048D01*
X51165Y-52900D01*
X51931Y-52900D01*
X52111Y-53080D01*
X52363Y-53184D01*
X52635Y-53185D01*
X52887Y-53081D01*
X53080Y-52888D01*
X53184Y-52636D01*
X53185Y-52364D01*
X53096Y-52150D01*
X53903Y-52150D01*
X53815Y-52363D01*
X53814Y-52635D01*
X53918Y-52887D01*
X54031Y-53000D01*
X53919Y-53111D01*
X53815Y-53363D01*
X53814Y-53635D01*
X53918Y-53887D01*
X54111Y-54080D01*
X54363Y-54184D01*
X54635Y-54185D01*
X54887Y-54081D01*
X55000Y-53968D01*
X55100Y-54068D01*
X55100Y-54431D01*
X54919Y-54611D01*
X54815Y-54863D01*
X54814Y-55135D01*
X54918Y-55387D01*
X55111Y-55580D01*
X55363Y-55684D01*
X55635Y-55685D01*
X55887Y-55581D01*
X56068Y-55400D01*
X57931Y-55400D01*
X58111Y-55580D01*
X58363Y-55684D01*
X58635Y-55685D01*
X58887Y-55581D01*
X59080Y-55388D01*
X59184Y-55136D01*
X59185Y-54864D01*
X59185Y-57380D01*
X48710Y-57380D01*
X48710Y-54778D01*
X48710Y-54078D01*
X48655Y-53946D01*
X48554Y-53844D01*
X48421Y-53790D01*
X48278Y-53789D01*
X47578Y-53789D01*
X47446Y-53844D01*
X47395Y-53895D01*
X47141Y-53790D01*
X46859Y-53789D01*
X46710Y-53851D01*
X46710Y-52359D01*
X46602Y-52098D01*
X46402Y-51898D01*
X46141Y-51790D01*
X45859Y-51789D01*
X45604Y-51895D01*
X45554Y-51844D01*
X45421Y-51790D01*
X45278Y-51789D01*
X44578Y-51789D01*
X44446Y-51844D01*
X44344Y-51945D01*
X44290Y-52078D01*
X44289Y-52221D01*
X44289Y-52921D01*
X44344Y-53053D01*
X44445Y-53155D01*
X44578Y-53209D01*
X44721Y-53210D01*
X45421Y-53210D01*
X45553Y-53155D01*
X45604Y-53104D01*
X45858Y-53209D01*
X46140Y-53210D01*
X46401Y-53102D01*
X46601Y-52902D01*
X46709Y-52641D01*
X46710Y-52359D01*
X46710Y-53851D01*
X46598Y-53897D01*
X46398Y-54097D01*
X46290Y-54358D01*
X46289Y-54640D01*
X46397Y-54901D01*
X46597Y-55101D01*
X46858Y-55209D01*
X47140Y-55210D01*
X47395Y-55104D01*
X47445Y-55155D01*
X47578Y-55209D01*
X47721Y-55210D01*
X48421Y-55210D01*
X48553Y-55155D01*
X48655Y-55054D01*
X48709Y-54921D01*
X48710Y-54778D01*
X48710Y-57380D01*
X47684Y-57380D01*
X47685Y-57253D01*
X47685Y-56603D01*
X47630Y-56471D01*
X47529Y-56369D01*
X47396Y-56315D01*
X47253Y-56314D01*
X46603Y-56314D01*
X46471Y-56369D01*
X46404Y-56435D01*
X46388Y-56419D01*
X46136Y-56315D01*
X45864Y-56314D01*
X45612Y-56418D01*
X45499Y-56531D01*
X45388Y-56419D01*
X45136Y-56315D01*
X44864Y-56314D01*
X44612Y-56418D01*
X44419Y-56611D01*
X44315Y-56863D01*
X44314Y-57135D01*
X44415Y-57380D01*
X42600Y-57380D01*
X42627Y-57374D01*
X42653Y-57369D01*
X42653Y-57369D01*
X42782Y-57282D01*
X42880Y-57184D01*
X43135Y-57185D01*
X43387Y-57081D01*
X43580Y-56888D01*
X43684Y-56636D01*
X43685Y-56364D01*
X43581Y-56112D01*
X43468Y-55999D01*
X43580Y-55888D01*
X43684Y-55636D01*
X43685Y-55364D01*
X43581Y-55112D01*
X43468Y-54999D01*
X43580Y-54888D01*
X43684Y-54636D01*
X43685Y-54364D01*
X43581Y-54112D01*
X43388Y-53919D01*
X43136Y-53815D01*
X42864Y-53814D01*
X42612Y-53918D01*
X42419Y-54111D01*
X42315Y-54363D01*
X42314Y-54635D01*
X42418Y-54887D01*
X42531Y-55000D01*
X42431Y-55100D01*
X42250Y-55100D01*
X42096Y-55130D01*
X42053Y-55159D01*
X41967Y-55217D01*
X41584Y-55600D01*
X40684Y-55600D01*
X40685Y-55364D01*
X40581Y-55112D01*
X40468Y-54999D01*
X40580Y-54888D01*
X40684Y-54636D01*
X40685Y-54364D01*
X40581Y-54112D01*
X40388Y-53919D01*
X40136Y-53815D01*
X39864Y-53814D01*
X39612Y-53918D01*
X39419Y-54111D01*
X39315Y-54363D01*
X39314Y-54635D01*
X39403Y-54850D01*
X36623Y-54850D01*
X36709Y-54641D01*
X36710Y-54359D01*
X36602Y-54098D01*
X36402Y-53898D01*
X36141Y-53790D01*
X35859Y-53789D01*
X35604Y-53895D01*
X35554Y-53844D01*
X35421Y-53790D01*
X35278Y-53789D01*
X34578Y-53789D01*
X34446Y-53844D01*
X34344Y-53945D01*
X34290Y-54078D01*
X34289Y-54221D01*
X34289Y-54224D01*
X33900Y-53834D01*
X33900Y-52215D01*
X33967Y-52282D01*
X33967Y-52282D01*
X34053Y-52340D01*
X34096Y-52369D01*
X34096Y-52369D01*
X34250Y-52400D01*
X36290Y-52400D01*
X36289Y-52640D01*
X36397Y-52901D01*
X36597Y-53101D01*
X36858Y-53209D01*
X37140Y-53210D01*
X37395Y-53104D01*
X37445Y-53155D01*
X37578Y-53209D01*
X37721Y-53210D01*
X38421Y-53210D01*
X38553Y-53155D01*
X38655Y-53054D01*
X38709Y-52921D01*
X38710Y-52778D01*
X38710Y-52400D01*
X41750Y-52400D01*
X41750Y-52399D01*
X41877Y-52374D01*
X41903Y-52369D01*
X41903Y-52369D01*
X42032Y-52282D01*
X42282Y-52032D01*
X42282Y-52032D01*
X42340Y-51946D01*
X42369Y-51903D01*
X42369Y-51903D01*
X42387Y-51811D01*
X42418Y-51887D01*
X42611Y-52080D01*
X42863Y-52184D01*
X43135Y-52185D01*
X43387Y-52081D01*
X43580Y-51888D01*
X43684Y-51636D01*
X43685Y-51364D01*
X43581Y-51112D01*
X43468Y-50999D01*
X43580Y-50888D01*
X43684Y-50636D01*
X43685Y-50364D01*
X43581Y-50112D01*
X43468Y-49999D01*
X43580Y-49888D01*
X43684Y-49636D01*
X43685Y-49364D01*
X43581Y-49112D01*
X43388Y-48919D01*
X43136Y-48815D01*
X42864Y-48814D01*
X42612Y-48918D01*
X42419Y-49111D01*
X42315Y-49363D01*
X42314Y-49635D01*
X42418Y-49887D01*
X42531Y-50000D01*
X42419Y-50111D01*
X42417Y-50116D01*
X42346Y-50130D01*
X42303Y-50159D01*
X42217Y-50217D01*
X41717Y-50717D01*
X41630Y-50846D01*
X41625Y-50872D01*
X41600Y-51000D01*
X41600Y-51584D01*
X41584Y-51600D01*
X40684Y-51600D01*
X40685Y-51364D01*
X40581Y-51112D01*
X40468Y-50999D01*
X40580Y-50888D01*
X40684Y-50636D01*
X40685Y-50364D01*
X40581Y-50112D01*
X40563Y-50095D01*
X40630Y-50029D01*
X40684Y-49896D01*
X40685Y-49753D01*
X40685Y-49103D01*
X40630Y-48971D01*
X40529Y-48869D01*
X40396Y-48815D01*
X40253Y-48814D01*
X39603Y-48814D01*
X39471Y-48869D01*
X39369Y-48970D01*
X39315Y-49103D01*
X39315Y-49151D01*
X39303Y-49159D01*
X39217Y-49217D01*
X37584Y-50850D01*
X36709Y-50850D01*
X36710Y-50778D01*
X36710Y-50078D01*
X36655Y-49946D01*
X36554Y-49844D01*
X36510Y-49826D01*
X36510Y-49711D01*
X37011Y-49210D01*
X37421Y-49210D01*
X37553Y-49155D01*
X37655Y-49054D01*
X37709Y-48921D01*
X37710Y-48778D01*
X37710Y-48511D01*
X38036Y-48185D01*
X38135Y-48185D01*
X38387Y-48081D01*
X38458Y-48010D01*
X42861Y-48010D01*
X42869Y-48028D01*
X42970Y-48130D01*
X43103Y-48184D01*
X43246Y-48185D01*
X43896Y-48185D01*
X44028Y-48130D01*
X44130Y-48029D01*
X44137Y-48010D01*
X45288Y-48010D01*
X45309Y-48030D01*
X45290Y-48078D01*
X45289Y-48221D01*
X45289Y-48921D01*
X45344Y-49053D01*
X45445Y-49155D01*
X45490Y-49173D01*
X45490Y-49500D01*
X45528Y-49695D01*
X45639Y-49860D01*
X46289Y-50511D01*
X46289Y-50921D01*
X46344Y-51053D01*
X46445Y-51155D01*
X46578Y-51209D01*
X46721Y-51210D01*
X47421Y-51210D01*
X47553Y-51155D01*
X47655Y-51054D01*
X47709Y-50921D01*
X47710Y-50778D01*
X47710Y-50078D01*
X47655Y-49946D01*
X47554Y-49844D01*
X47421Y-49790D01*
X47278Y-49789D01*
X47011Y-49789D01*
X46510Y-49288D01*
X46510Y-49173D01*
X46553Y-49155D01*
X46655Y-49054D01*
X46709Y-48921D01*
X46710Y-48778D01*
X46710Y-48078D01*
X46655Y-47946D01*
X46554Y-47844D01*
X46472Y-47811D01*
X46471Y-47804D01*
X46471Y-47804D01*
X46360Y-47639D01*
X46010Y-47288D01*
X46010Y-46461D01*
X46461Y-46010D01*
X46521Y-46010D01*
X46419Y-46111D01*
X46315Y-46363D01*
X46314Y-46635D01*
X46418Y-46887D01*
X46611Y-47080D01*
X46863Y-47184D01*
X47135Y-47185D01*
X47387Y-47081D01*
X47580Y-46888D01*
X47684Y-46636D01*
X47685Y-46364D01*
X47581Y-46112D01*
X47478Y-46010D01*
X48250Y-46010D01*
X48445Y-45971D01*
X48445Y-45971D01*
X48610Y-45860D01*
X49360Y-45110D01*
X49360Y-45110D01*
X49434Y-45000D01*
X49471Y-44945D01*
X49471Y-44945D01*
X49509Y-44750D01*
X49510Y-44750D01*
X49510Y-37961D01*
X50360Y-37110D01*
X50471Y-36945D01*
X50471Y-36945D01*
X50472Y-36940D01*
X50490Y-36958D01*
X50490Y-37041D01*
X50419Y-37111D01*
X50315Y-37363D01*
X50314Y-37635D01*
X50418Y-37887D01*
X50490Y-37958D01*
X50490Y-38041D01*
X50419Y-38111D01*
X50315Y-38363D01*
X50314Y-38635D01*
X50418Y-38887D01*
X50490Y-38958D01*
X50490Y-39041D01*
X50419Y-39111D01*
X50315Y-39363D01*
X50314Y-39635D01*
X50418Y-39887D01*
X50531Y-40000D01*
X50419Y-40111D01*
X50315Y-40363D01*
X50314Y-40635D01*
X50418Y-40887D01*
X50531Y-41000D01*
X50419Y-41111D01*
X50315Y-41363D01*
X50314Y-41635D01*
X50418Y-41887D01*
X50531Y-42000D01*
X50419Y-42111D01*
X50315Y-42363D01*
X50314Y-42635D01*
X50418Y-42887D01*
X50490Y-42958D01*
X50490Y-43041D01*
X50419Y-43111D01*
X50315Y-43363D01*
X50314Y-43635D01*
X50418Y-43887D01*
X50490Y-43958D01*
X50490Y-44041D01*
X50419Y-44111D01*
X50315Y-44363D01*
X50314Y-44635D01*
X50418Y-44887D01*
X50490Y-44958D01*
X50490Y-45041D01*
X50419Y-45111D01*
X50315Y-45363D01*
X50314Y-45635D01*
X50418Y-45887D01*
X50490Y-45958D01*
X50490Y-46041D01*
X50419Y-46111D01*
X50315Y-46363D01*
X50314Y-46635D01*
X50418Y-46887D01*
X50486Y-46954D01*
X50419Y-47020D01*
X50365Y-47153D01*
X50364Y-47296D01*
X50364Y-47846D01*
X50419Y-47978D01*
X50520Y-48080D01*
X50653Y-48134D01*
X50796Y-48135D01*
X51346Y-48135D01*
X51478Y-48080D01*
X51549Y-48010D01*
X51611Y-48010D01*
X51639Y-48038D01*
X51873Y-48134D01*
X52125Y-48135D01*
X52359Y-48038D01*
X52387Y-48010D01*
X52611Y-48010D01*
X52639Y-48038D01*
X52873Y-48134D01*
X53125Y-48135D01*
X53359Y-48038D01*
X53387Y-48010D01*
X53611Y-48010D01*
X53639Y-48038D01*
X53873Y-48134D01*
X54125Y-48135D01*
X54359Y-48038D01*
X54387Y-48010D01*
X54611Y-48010D01*
X54639Y-48038D01*
X54873Y-48134D01*
X55125Y-48135D01*
X55359Y-48038D01*
X55387Y-48010D01*
X55611Y-48010D01*
X55639Y-48038D01*
X55873Y-48134D01*
X56125Y-48135D01*
X56359Y-48038D01*
X56387Y-48010D01*
X56611Y-48010D01*
X56639Y-48038D01*
X56873Y-48134D01*
X57125Y-48135D01*
X57359Y-48038D01*
X57387Y-48010D01*
X57611Y-48010D01*
X57639Y-48038D01*
X57873Y-48134D01*
X58125Y-48135D01*
X58359Y-48038D01*
X58387Y-48010D01*
X58611Y-48010D01*
X58639Y-48038D01*
X58873Y-48134D01*
X59125Y-48135D01*
X59359Y-48038D01*
X59387Y-48010D01*
X59611Y-48010D01*
X59639Y-48038D01*
X59873Y-48134D01*
X60125Y-48135D01*
X60359Y-48038D01*
X60387Y-48010D01*
X60611Y-48010D01*
X60639Y-48038D01*
X60873Y-48134D01*
X61125Y-48135D01*
X61359Y-48038D01*
X61387Y-48010D01*
X61611Y-48010D01*
X61639Y-48038D01*
X61873Y-48134D01*
X61880Y-48134D01*
X61880Y-48814D01*
X61864Y-48814D01*
X61612Y-48918D01*
X61541Y-48990D01*
X61458Y-48990D01*
X61388Y-48919D01*
X61136Y-48815D01*
X60864Y-48814D01*
X60612Y-48918D01*
X60541Y-48990D01*
X60458Y-48990D01*
X60388Y-48919D01*
X60136Y-48815D01*
X59864Y-48814D01*
X59612Y-48918D01*
X59541Y-48990D01*
X59458Y-48990D01*
X59388Y-48919D01*
X59136Y-48815D01*
X58864Y-48814D01*
X58612Y-48918D01*
X58541Y-48990D01*
X58458Y-48990D01*
X58388Y-48919D01*
X58136Y-48815D01*
X57864Y-48814D01*
X57612Y-48918D01*
X57541Y-48990D01*
X57458Y-48990D01*
X57388Y-48919D01*
X57136Y-48815D01*
X56864Y-48814D01*
X56612Y-48918D01*
X56541Y-48990D01*
X56458Y-48990D01*
X56388Y-48919D01*
X56136Y-48815D01*
X55864Y-48814D01*
X55612Y-48918D01*
X55541Y-48990D01*
X55458Y-48990D01*
X55388Y-48919D01*
X55136Y-48815D01*
X54864Y-48814D01*
X54612Y-48918D01*
X54541Y-48990D01*
X54458Y-48990D01*
X54388Y-48919D01*
X54136Y-48815D01*
X53864Y-48814D01*
X53612Y-48918D01*
X53541Y-48990D01*
X53458Y-48990D01*
X53388Y-48919D01*
X53136Y-48815D01*
X52864Y-48814D01*
X52612Y-48918D01*
X52541Y-48990D01*
X52458Y-48990D01*
X52388Y-48919D01*
X52136Y-48815D01*
X51864Y-48814D01*
X51612Y-48918D01*
X51595Y-48936D01*
X51529Y-48869D01*
X51396Y-48815D01*
X51253Y-48814D01*
X50603Y-48814D01*
X50471Y-48869D01*
X50369Y-48970D01*
X50362Y-48990D01*
X48958Y-48990D01*
X48888Y-48919D01*
X48636Y-48815D01*
X48364Y-48814D01*
X48112Y-48918D01*
X47919Y-49111D01*
X47815Y-49363D01*
X47814Y-49635D01*
X47918Y-49887D01*
X48111Y-50080D01*
X48363Y-50184D01*
X48635Y-50185D01*
X48887Y-50081D01*
X48958Y-50010D01*
X50361Y-50010D01*
X50369Y-50028D01*
X50470Y-50130D01*
X50603Y-50184D01*
X50746Y-50185D01*
X51396Y-50185D01*
X51528Y-50130D01*
X51595Y-50064D01*
X51611Y-50080D01*
X51863Y-50184D01*
X52135Y-50185D01*
X52387Y-50081D01*
X52458Y-50010D01*
X52541Y-50010D01*
X52611Y-50080D01*
X52863Y-50184D01*
X53135Y-50185D01*
X53387Y-50081D01*
X53458Y-50010D01*
X53541Y-50010D01*
X53611Y-50080D01*
X53863Y-50184D01*
X54135Y-50185D01*
X54387Y-50081D01*
X54458Y-50010D01*
X54541Y-50010D01*
X54611Y-50080D01*
X54863Y-50184D01*
X55135Y-50185D01*
X55387Y-50081D01*
X55458Y-50010D01*
X55541Y-50010D01*
X55611Y-50080D01*
X55863Y-50184D01*
X56135Y-50185D01*
X56387Y-50081D01*
X56458Y-50010D01*
X56541Y-50010D01*
X56611Y-50080D01*
X56863Y-50184D01*
X57135Y-50185D01*
X57387Y-50081D01*
X57458Y-50010D01*
X57541Y-50010D01*
X57611Y-50080D01*
X57863Y-50184D01*
X58135Y-50185D01*
X58387Y-50081D01*
X58458Y-50010D01*
X58541Y-50010D01*
X58611Y-50080D01*
X58863Y-50184D01*
X59135Y-50185D01*
X59387Y-50081D01*
X59458Y-50010D01*
X59541Y-50010D01*
X59611Y-50080D01*
X59863Y-50184D01*
X60135Y-50185D01*
X60387Y-50081D01*
X60458Y-50010D01*
X60541Y-50010D01*
X60611Y-50080D01*
X60863Y-50184D01*
X61135Y-50185D01*
X61387Y-50081D01*
X61458Y-50010D01*
X61541Y-50010D01*
X61611Y-50080D01*
X61863Y-50184D01*
X61880Y-50184D01*
X61880Y-55739D01*
X61880Y-55739D01*
G37*
G54D28*
X61880Y-55739D02*
X61657Y-55517D01*
X61231Y-55340D01*
X60770Y-55339D01*
X60343Y-55516D01*
X60185Y-55674D01*
X60185Y-53364D01*
X60081Y-53112D01*
X59968Y-52999D01*
X60080Y-52888D01*
X60184Y-52636D01*
X60185Y-52364D01*
X60081Y-52112D01*
X59888Y-51919D01*
X59636Y-51815D01*
X59364Y-51814D01*
X59112Y-51918D01*
X58919Y-52111D01*
X58815Y-52363D01*
X58814Y-52635D01*
X58918Y-52887D01*
X59031Y-53000D01*
X58919Y-53111D01*
X58815Y-53363D01*
X58814Y-53635D01*
X58918Y-53887D01*
X59111Y-54080D01*
X59363Y-54184D01*
X59635Y-54185D01*
X59887Y-54081D01*
X60080Y-53888D01*
X60184Y-53636D01*
X60185Y-53364D01*
X60185Y-55674D01*
X60017Y-55842D01*
X59840Y-56268D01*
X59839Y-56729D01*
X60016Y-57156D01*
X60239Y-57380D01*
X59185Y-57380D01*
X59185Y-54864D01*
X59081Y-54612D01*
X58888Y-54419D01*
X58636Y-54315D01*
X58364Y-54314D01*
X58112Y-54418D01*
X57931Y-54600D01*
X56068Y-54600D01*
X55900Y-54431D01*
X55900Y-54068D01*
X56080Y-53888D01*
X56184Y-53636D01*
X56185Y-53364D01*
X56081Y-53112D01*
X56017Y-53048D01*
X56165Y-52900D01*
X56931Y-52900D01*
X57111Y-53080D01*
X57363Y-53184D01*
X57635Y-53185D01*
X57887Y-53081D01*
X58080Y-52888D01*
X58184Y-52636D01*
X58185Y-52364D01*
X58081Y-52112D01*
X57888Y-51919D01*
X57636Y-51815D01*
X57364Y-51814D01*
X57112Y-51918D01*
X56931Y-52100D01*
X56000Y-52100D01*
X55915Y-52100D01*
X55282Y-51467D01*
X55153Y-51380D01*
X55127Y-51375D01*
X55000Y-51350D01*
X50641Y-51350D01*
X50567Y-51275D01*
X50361Y-51190D01*
X50139Y-51189D01*
X49933Y-51274D01*
X49775Y-51432D01*
X49690Y-51638D01*
X49689Y-51860D01*
X49774Y-52066D01*
X49932Y-52224D01*
X50138Y-52309D01*
X50360Y-52310D01*
X50566Y-52225D01*
X50641Y-52150D01*
X50817Y-52150D01*
X50803Y-52159D01*
X50717Y-52217D01*
X50217Y-52717D01*
X50130Y-52846D01*
X50125Y-52872D01*
X50116Y-52917D01*
X50112Y-52918D01*
X49919Y-53111D01*
X49815Y-53363D01*
X49814Y-53635D01*
X49918Y-53887D01*
X50100Y-54068D01*
X50100Y-54431D01*
X49919Y-54611D01*
X49815Y-54863D01*
X49814Y-55135D01*
X49918Y-55387D01*
X50111Y-55580D01*
X50363Y-55684D01*
X50635Y-55685D01*
X50887Y-55581D01*
X51068Y-55400D01*
X52931Y-55400D01*
X53111Y-55580D01*
X53363Y-55684D01*
X53635Y-55685D01*
X53887Y-55581D01*
X54080Y-55388D01*
X54184Y-55136D01*
X54185Y-54864D01*
X54081Y-54612D01*
X53888Y-54419D01*
X53636Y-54315D01*
X53364Y-54314D01*
X53112Y-54418D01*
X52931Y-54600D01*
X51068Y-54600D01*
X50900Y-54431D01*
X50900Y-54068D01*
X51080Y-53888D01*
X51184Y-53636D01*
X51185Y-53364D01*
X51081Y-53112D01*
X51017Y-53048D01*
X51165Y-52900D01*
X51931Y-52900D01*
X52111Y-53080D01*
X52363Y-53184D01*
X52635Y-53185D01*
X52887Y-53081D01*
X53080Y-52888D01*
X53184Y-52636D01*
X53185Y-52364D01*
X53096Y-52150D01*
X53903Y-52150D01*
X53815Y-52363D01*
X53814Y-52635D01*
X53918Y-52887D01*
X54031Y-53000D01*
X53919Y-53111D01*
X53815Y-53363D01*
X53814Y-53635D01*
X53918Y-53887D01*
X54111Y-54080D01*
X54363Y-54184D01*
X54635Y-54185D01*
X54887Y-54081D01*
X55000Y-53968D01*
X55100Y-54068D01*
X55100Y-54431D01*
X54919Y-54611D01*
X54815Y-54863D01*
X54814Y-55135D01*
X54918Y-55387D01*
X55111Y-55580D01*
X55363Y-55684D01*
X55635Y-55685D01*
X55887Y-55581D01*
X56068Y-55400D01*
X57931Y-55400D01*
X58111Y-55580D01*
X58363Y-55684D01*
X58635Y-55685D01*
X58887Y-55581D01*
X59080Y-55388D01*
X59184Y-55136D01*
X59185Y-54864D01*
X59185Y-57380D01*
X48710Y-57380D01*
X48710Y-54778D01*
X48710Y-54078D01*
X48655Y-53946D01*
X48554Y-53844D01*
X48421Y-53790D01*
X48278Y-53789D01*
X47578Y-53789D01*
X47446Y-53844D01*
X47395Y-53895D01*
X47141Y-53790D01*
X46859Y-53789D01*
X46710Y-53851D01*
X46710Y-52359D01*
X46602Y-52098D01*
X46402Y-51898D01*
X46141Y-51790D01*
X45859Y-51789D01*
X45604Y-51895D01*
X45554Y-51844D01*
X45421Y-51790D01*
X45278Y-51789D01*
X44578Y-51789D01*
X44446Y-51844D01*
X44344Y-51945D01*
X44290Y-52078D01*
X44289Y-52221D01*
X44289Y-52921D01*
X44344Y-53053D01*
X44445Y-53155D01*
X44578Y-53209D01*
X44721Y-53210D01*
X45421Y-53210D01*
X45553Y-53155D01*
X45604Y-53104D01*
X45858Y-53209D01*
X46140Y-53210D01*
X46401Y-53102D01*
X46601Y-52902D01*
X46709Y-52641D01*
X46710Y-52359D01*
X46710Y-53851D01*
X46598Y-53897D01*
X46398Y-54097D01*
X46290Y-54358D01*
X46289Y-54640D01*
X46397Y-54901D01*
X46597Y-55101D01*
X46858Y-55209D01*
X47140Y-55210D01*
X47395Y-55104D01*
X47445Y-55155D01*
X47578Y-55209D01*
X47721Y-55210D01*
X48421Y-55210D01*
X48553Y-55155D01*
X48655Y-55054D01*
X48709Y-54921D01*
X48710Y-54778D01*
X48710Y-57380D01*
X47684Y-57380D01*
X47685Y-57253D01*
X47685Y-56603D01*
X47630Y-56471D01*
X47529Y-56369D01*
X47396Y-56315D01*
X47253Y-56314D01*
X46603Y-56314D01*
X46471Y-56369D01*
X46404Y-56435D01*
X46388Y-56419D01*
X46136Y-56315D01*
X45864Y-56314D01*
X45612Y-56418D01*
X45499Y-56531D01*
X45388Y-56419D01*
X45136Y-56315D01*
X44864Y-56314D01*
X44612Y-56418D01*
X44419Y-56611D01*
X44315Y-56863D01*
X44314Y-57135D01*
X44415Y-57380D01*
X42600Y-57380D01*
X42627Y-57374D01*
X42653Y-57369D01*
X42653Y-57369D01*
X42782Y-57282D01*
X42880Y-57184D01*
X43135Y-57185D01*
X43387Y-57081D01*
X43580Y-56888D01*
X43684Y-56636D01*
X43685Y-56364D01*
X43581Y-56112D01*
X43468Y-55999D01*
X43580Y-55888D01*
X43684Y-55636D01*
X43685Y-55364D01*
X43581Y-55112D01*
X43468Y-54999D01*
X43580Y-54888D01*
X43684Y-54636D01*
X43685Y-54364D01*
X43581Y-54112D01*
X43388Y-53919D01*
X43136Y-53815D01*
X42864Y-53814D01*
X42612Y-53918D01*
X42419Y-54111D01*
X42315Y-54363D01*
X42314Y-54635D01*
X42418Y-54887D01*
X42531Y-55000D01*
X42431Y-55100D01*
X42250Y-55100D01*
X42096Y-55130D01*
X42053Y-55159D01*
X41967Y-55217D01*
X41584Y-55600D01*
X40684Y-55600D01*
X40685Y-55364D01*
X40581Y-55112D01*
X40468Y-54999D01*
X40580Y-54888D01*
X40684Y-54636D01*
X40685Y-54364D01*
X40581Y-54112D01*
X40388Y-53919D01*
X40136Y-53815D01*
X39864Y-53814D01*
X39612Y-53918D01*
X39419Y-54111D01*
X39315Y-54363D01*
X39314Y-54635D01*
X39403Y-54850D01*
X36623Y-54850D01*
X36709Y-54641D01*
X36710Y-54359D01*
X36602Y-54098D01*
X36402Y-53898D01*
X36141Y-53790D01*
X35859Y-53789D01*
X35604Y-53895D01*
X35554Y-53844D01*
X35421Y-53790D01*
X35278Y-53789D01*
X34578Y-53789D01*
X34446Y-53844D01*
X34344Y-53945D01*
X34290Y-54078D01*
X34289Y-54221D01*
X34289Y-54224D01*
X33900Y-53834D01*
X33900Y-52215D01*
X33967Y-52282D01*
X33967Y-52282D01*
X34053Y-52340D01*
X34096Y-52369D01*
X34096Y-52369D01*
X34250Y-52400D01*
X36290Y-52400D01*
X36289Y-52640D01*
X36397Y-52901D01*
X36597Y-53101D01*
X36858Y-53209D01*
X37140Y-53210D01*
X37395Y-53104D01*
X37445Y-53155D01*
X37578Y-53209D01*
X37721Y-53210D01*
X38421Y-53210D01*
X38553Y-53155D01*
X38655Y-53054D01*
X38709Y-52921D01*
X38710Y-52778D01*
X38710Y-52400D01*
X41750Y-52400D01*
X41750Y-52399D01*
X41877Y-52374D01*
X41903Y-52369D01*
X41903Y-52369D01*
X42032Y-52282D01*
X42282Y-52032D01*
X42282Y-52032D01*
X42340Y-51946D01*
X42369Y-51903D01*
X42369Y-51903D01*
X42387Y-51811D01*
X42418Y-51887D01*
X42611Y-52080D01*
X42863Y-52184D01*
X43135Y-52185D01*
X43387Y-52081D01*
X43580Y-51888D01*
X43684Y-51636D01*
X43685Y-51364D01*
X43581Y-51112D01*
X43468Y-50999D01*
X43580Y-50888D01*
X43684Y-50636D01*
X43685Y-50364D01*
X43581Y-50112D01*
X43468Y-49999D01*
X43580Y-49888D01*
X43684Y-49636D01*
X43685Y-49364D01*
X43581Y-49112D01*
X43388Y-48919D01*
X43136Y-48815D01*
X42864Y-48814D01*
X42612Y-48918D01*
X42419Y-49111D01*
X42315Y-49363D01*
X42314Y-49635D01*
X42418Y-49887D01*
X42531Y-50000D01*
X42419Y-50111D01*
X42417Y-50116D01*
X42346Y-50130D01*
X42303Y-50159D01*
X42217Y-50217D01*
X41717Y-50717D01*
X41630Y-50846D01*
X41625Y-50872D01*
X41600Y-51000D01*
X41600Y-51584D01*
X41584Y-51600D01*
X40684Y-51600D01*
X40685Y-51364D01*
X40581Y-51112D01*
X40468Y-50999D01*
X40580Y-50888D01*
X40684Y-50636D01*
X40685Y-50364D01*
X40581Y-50112D01*
X40563Y-50095D01*
X40630Y-50029D01*
X40684Y-49896D01*
X40685Y-49753D01*
X40685Y-49103D01*
X40630Y-48971D01*
X40529Y-48869D01*
X40396Y-48815D01*
X40253Y-48814D01*
X39603Y-48814D01*
X39471Y-48869D01*
X39369Y-48970D01*
X39315Y-49103D01*
X39315Y-49151D01*
X39303Y-49159D01*
X39217Y-49217D01*
X37584Y-50850D01*
X36709Y-50850D01*
X36710Y-50778D01*
X36710Y-50078D01*
X36655Y-49946D01*
X36554Y-49844D01*
X36510Y-49826D01*
X36510Y-49711D01*
X37011Y-49210D01*
X37421Y-49210D01*
X37553Y-49155D01*
X37655Y-49054D01*
X37709Y-48921D01*
X37710Y-48778D01*
X37710Y-48511D01*
X38036Y-48185D01*
X38135Y-48185D01*
X38387Y-48081D01*
X38458Y-48010D01*
X42861Y-48010D01*
X42869Y-48028D01*
X42970Y-48130D01*
X43103Y-48184D01*
X43246Y-48185D01*
X43896Y-48185D01*
X44028Y-48130D01*
X44130Y-48029D01*
X44137Y-48010D01*
X45288Y-48010D01*
X45309Y-48030D01*
X45290Y-48078D01*
X45289Y-48221D01*
X45289Y-48921D01*
X45344Y-49053D01*
X45445Y-49155D01*
X45490Y-49173D01*
X45490Y-49500D01*
X45528Y-49695D01*
X45639Y-49860D01*
X46289Y-50511D01*
X46289Y-50921D01*
X46344Y-51053D01*
X46445Y-51155D01*
X46578Y-51209D01*
X46721Y-51210D01*
X47421Y-51210D01*
X47553Y-51155D01*
X47655Y-51054D01*
X47709Y-50921D01*
X47710Y-50778D01*
X47710Y-50078D01*
X47655Y-49946D01*
X47554Y-49844D01*
X47421Y-49790D01*
X47278Y-49789D01*
X47011Y-49789D01*
X46510Y-49288D01*
X46510Y-49173D01*
X46553Y-49155D01*
X46655Y-49054D01*
X46709Y-48921D01*
X46710Y-48778D01*
X46710Y-48078D01*
X46655Y-47946D01*
X46554Y-47844D01*
X46472Y-47811D01*
X46471Y-47804D01*
X46471Y-47804D01*
X46360Y-47639D01*
X46010Y-47288D01*
X46010Y-46461D01*
X46461Y-46010D01*
X46521Y-46010D01*
X46419Y-46111D01*
X46315Y-46363D01*
X46314Y-46635D01*
X46418Y-46887D01*
X46611Y-47080D01*
X46863Y-47184D01*
X47135Y-47185D01*
X47387Y-47081D01*
X47580Y-46888D01*
X47684Y-46636D01*
X47685Y-46364D01*
X47581Y-46112D01*
X47478Y-46010D01*
X48250Y-46010D01*
X48445Y-45971D01*
X48445Y-45971D01*
X48610Y-45860D01*
X49360Y-45110D01*
X49360Y-45110D01*
X49434Y-45000D01*
X49471Y-44945D01*
X49471Y-44945D01*
X49509Y-44750D01*
X49510Y-44750D01*
X49510Y-37961D01*
X50360Y-37110D01*
X50471Y-36945D01*
X50471Y-36945D01*
X50472Y-36940D01*
X50490Y-36958D01*
X50490Y-37041D01*
X50419Y-37111D01*
X50315Y-37363D01*
X50314Y-37635D01*
X50418Y-37887D01*
X50490Y-37958D01*
X50490Y-38041D01*
X50419Y-38111D01*
X50315Y-38363D01*
X50314Y-38635D01*
X50418Y-38887D01*
X50490Y-38958D01*
X50490Y-39041D01*
X50419Y-39111D01*
X50315Y-39363D01*
X50314Y-39635D01*
X50418Y-39887D01*
X50531Y-40000D01*
X50419Y-40111D01*
X50315Y-40363D01*
X50314Y-40635D01*
X50418Y-40887D01*
X50531Y-41000D01*
X50419Y-41111D01*
X50315Y-41363D01*
X50314Y-41635D01*
X50418Y-41887D01*
X50531Y-42000D01*
X50419Y-42111D01*
X50315Y-42363D01*
X50314Y-42635D01*
X50418Y-42887D01*
X50490Y-42958D01*
X50490Y-43041D01*
X50419Y-43111D01*
X50315Y-43363D01*
X50314Y-43635D01*
X50418Y-43887D01*
X50490Y-43958D01*
X50490Y-44041D01*
X50419Y-44111D01*
X50315Y-44363D01*
X50314Y-44635D01*
X50418Y-44887D01*
X50490Y-44958D01*
X50490Y-45041D01*
X50419Y-45111D01*
X50315Y-45363D01*
X50314Y-45635D01*
X50418Y-45887D01*
X50490Y-45958D01*
X50490Y-46041D01*
X50419Y-46111D01*
X50315Y-46363D01*
X50314Y-46635D01*
X50418Y-46887D01*
X50486Y-46954D01*
X50419Y-47020D01*
X50365Y-47153D01*
X50364Y-47296D01*
X50364Y-47846D01*
X50419Y-47978D01*
X50520Y-48080D01*
X50653Y-48134D01*
X50796Y-48135D01*
X51346Y-48135D01*
X51478Y-48080D01*
X51549Y-48010D01*
X51611Y-48010D01*
X51639Y-48038D01*
X51873Y-48134D01*
X52125Y-48135D01*
X52359Y-48038D01*
X52387Y-48010D01*
X52611Y-48010D01*
X52639Y-48038D01*
X52873Y-48134D01*
X53125Y-48135D01*
X53359Y-48038D01*
X53387Y-48010D01*
X53611Y-48010D01*
X53639Y-48038D01*
X53873Y-48134D01*
X54125Y-48135D01*
X54359Y-48038D01*
X54387Y-48010D01*
X54611Y-48010D01*
X54639Y-48038D01*
X54873Y-48134D01*
X55125Y-48135D01*
X55359Y-48038D01*
X55387Y-48010D01*
X55611Y-48010D01*
X55639Y-48038D01*
X55873Y-48134D01*
X56125Y-48135D01*
X56359Y-48038D01*
X56387Y-48010D01*
X56611Y-48010D01*
X56639Y-48038D01*
X56873Y-48134D01*
X57125Y-48135D01*
X57359Y-48038D01*
X57387Y-48010D01*
X57611Y-48010D01*
X57639Y-48038D01*
X57873Y-48134D01*
X58125Y-48135D01*
X58359Y-48038D01*
X58387Y-48010D01*
X58611Y-48010D01*
X58639Y-48038D01*
X58873Y-48134D01*
X59125Y-48135D01*
X59359Y-48038D01*
X59387Y-48010D01*
X59611Y-48010D01*
X59639Y-48038D01*
X59873Y-48134D01*
X60125Y-48135D01*
X60359Y-48038D01*
X60387Y-48010D01*
X60611Y-48010D01*
X60639Y-48038D01*
X60873Y-48134D01*
X61125Y-48135D01*
X61359Y-48038D01*
X61387Y-48010D01*
X61611Y-48010D01*
X61639Y-48038D01*
X61873Y-48134D01*
X61880Y-48134D01*
X61880Y-48814D01*
X61864Y-48814D01*
X61612Y-48918D01*
X61541Y-48990D01*
X61458Y-48990D01*
X61388Y-48919D01*
X61136Y-48815D01*
X60864Y-48814D01*
X60612Y-48918D01*
X60541Y-48990D01*
X60458Y-48990D01*
X60388Y-48919D01*
X60136Y-48815D01*
X59864Y-48814D01*
X59612Y-48918D01*
X59541Y-48990D01*
X59458Y-48990D01*
X59388Y-48919D01*
X59136Y-48815D01*
X58864Y-48814D01*
X58612Y-48918D01*
X58541Y-48990D01*
X58458Y-48990D01*
X58388Y-48919D01*
X58136Y-48815D01*
X57864Y-48814D01*
X57612Y-48918D01*
X57541Y-48990D01*
X57458Y-48990D01*
X57388Y-48919D01*
X57136Y-48815D01*
X56864Y-48814D01*
X56612Y-48918D01*
X56541Y-48990D01*
X56458Y-48990D01*
X56388Y-48919D01*
X56136Y-48815D01*
X55864Y-48814D01*
X55612Y-48918D01*
X55541Y-48990D01*
X55458Y-48990D01*
X55388Y-48919D01*
X55136Y-48815D01*
X54864Y-48814D01*
X54612Y-48918D01*
X54541Y-48990D01*
X54458Y-48990D01*
X54388Y-48919D01*
X54136Y-48815D01*
X53864Y-48814D01*
X53612Y-48918D01*
X53541Y-48990D01*
X53458Y-48990D01*
X53388Y-48919D01*
X53136Y-48815D01*
X52864Y-48814D01*
X52612Y-48918D01*
X52541Y-48990D01*
X52458Y-48990D01*
X52388Y-48919D01*
X52136Y-48815D01*
X51864Y-48814D01*
X51612Y-48918D01*
X51595Y-48936D01*
X51529Y-48869D01*
X51396Y-48815D01*
X51253Y-48814D01*
X50603Y-48814D01*
X50471Y-48869D01*
X50369Y-48970D01*
X50362Y-48990D01*
X48958Y-48990D01*
X48888Y-48919D01*
X48636Y-48815D01*
X48364Y-48814D01*
X48112Y-48918D01*
X47919Y-49111D01*
X47815Y-49363D01*
X47814Y-49635D01*
X47918Y-49887D01*
X48111Y-50080D01*
X48363Y-50184D01*
X48635Y-50185D01*
X48887Y-50081D01*
X48958Y-50010D01*
X50361Y-50010D01*
X50369Y-50028D01*
X50470Y-50130D01*
X50603Y-50184D01*
X50746Y-50185D01*
X51396Y-50185D01*
X51528Y-50130D01*
X51595Y-50064D01*
X51611Y-50080D01*
X51863Y-50184D01*
X52135Y-50185D01*
X52387Y-50081D01*
X52458Y-50010D01*
X52541Y-50010D01*
X52611Y-50080D01*
X52863Y-50184D01*
X53135Y-50185D01*
X53387Y-50081D01*
X53458Y-50010D01*
X53541Y-50010D01*
X53611Y-50080D01*
X53863Y-50184D01*
X54135Y-50185D01*
X54387Y-50081D01*
X54458Y-50010D01*
X54541Y-50010D01*
X54611Y-50080D01*
X54863Y-50184D01*
X55135Y-50185D01*
X55387Y-50081D01*
X55458Y-50010D01*
X55541Y-50010D01*
X55611Y-50080D01*
X55863Y-50184D01*
X56135Y-50185D01*
X56387Y-50081D01*
X56458Y-50010D01*
X56541Y-50010D01*
X56611Y-50080D01*
X56863Y-50184D01*
X57135Y-50185D01*
X57387Y-50081D01*
X57458Y-50010D01*
X57541Y-50010D01*
X57611Y-50080D01*
X57863Y-50184D01*
X58135Y-50185D01*
X58387Y-50081D01*
X58458Y-50010D01*
X58541Y-50010D01*
X58611Y-50080D01*
X58863Y-50184D01*
X59135Y-50185D01*
X59387Y-50081D01*
X59458Y-50010D01*
X59541Y-50010D01*
X59611Y-50080D01*
X59863Y-50184D01*
X60135Y-50185D01*
X60387Y-50081D01*
X60458Y-50010D01*
X60541Y-50010D01*
X60611Y-50080D01*
X60863Y-50184D01*
X61135Y-50185D01*
X61387Y-50081D01*
X61458Y-50010D01*
X61541Y-50010D01*
X61611Y-50080D01*
X61863Y-50184D01*
X61880Y-50184D01*
X61880Y-55739D01*
M02*
