G04 (created by PCBNEW (2013-07-07 BZR 4022)-stable) date Wed 30 Apr 2014 07:05:42 SAST*
%MOIN*%
G04 Gerber Fmt 3.4, Leading zero omitted, Abs format*
%FSLAX34Y34*%
G01*
G70*
G90*
G04 APERTURE LIST*
%ADD10C,0.00590551*%
%ADD11C,0.006*%
%ADD12C,0.00787402*%
%ADD13C,0.011811*%
%ADD14C,0.012*%
%ADD15C,0.01*%
%ADD16C,0.0125*%
%ADD17C,0.015*%
%ADD18C,0.005*%
%ADD19C,0.0001*%
%ADD20C,0.008*%
%ADD21C,0.0075*%
G04 APERTURE END LIST*
G54D10*
G54D11*
X50071Y-47899D02*
X50071Y-47714D01*
X50185Y-47814D01*
X50185Y-47771D01*
X50200Y-47742D01*
X50214Y-47728D01*
X50242Y-47714D01*
X50314Y-47714D01*
X50342Y-47728D01*
X50357Y-47742D01*
X50371Y-47771D01*
X50371Y-47857D01*
X50357Y-47885D01*
X50342Y-47899D01*
X50342Y-47585D02*
X50357Y-47571D01*
X50371Y-47585D01*
X50357Y-47599D01*
X50342Y-47585D01*
X50371Y-47585D01*
X50071Y-47471D02*
X50071Y-47285D01*
X50185Y-47385D01*
X50185Y-47342D01*
X50200Y-47314D01*
X50214Y-47299D01*
X50242Y-47285D01*
X50314Y-47285D01*
X50342Y-47299D01*
X50357Y-47314D01*
X50371Y-47342D01*
X50371Y-47428D01*
X50357Y-47457D01*
X50342Y-47471D01*
X50171Y-47185D02*
X50371Y-47114D01*
X50171Y-47042D01*
X27792Y-33321D02*
X27978Y-33321D01*
X27878Y-33435D01*
X27921Y-33435D01*
X27950Y-33450D01*
X27964Y-33464D01*
X27978Y-33492D01*
X27978Y-33564D01*
X27964Y-33592D01*
X27950Y-33607D01*
X27921Y-33621D01*
X27835Y-33621D01*
X27807Y-33607D01*
X27792Y-33592D01*
X28107Y-33592D02*
X28121Y-33607D01*
X28107Y-33621D01*
X28092Y-33607D01*
X28107Y-33592D01*
X28107Y-33621D01*
X28221Y-33321D02*
X28407Y-33321D01*
X28307Y-33435D01*
X28350Y-33435D01*
X28378Y-33450D01*
X28392Y-33464D01*
X28407Y-33492D01*
X28407Y-33564D01*
X28392Y-33592D01*
X28378Y-33607D01*
X28350Y-33621D01*
X28264Y-33621D01*
X28235Y-33607D01*
X28221Y-33592D01*
X28507Y-33421D02*
X28578Y-33621D01*
X28649Y-33421D01*
X37921Y-23321D02*
X37921Y-23564D01*
X37935Y-23592D01*
X37950Y-23607D01*
X37978Y-23621D01*
X38035Y-23621D01*
X38064Y-23607D01*
X38078Y-23592D01*
X38092Y-23564D01*
X38092Y-23321D01*
X38221Y-23607D02*
X38264Y-23621D01*
X38335Y-23621D01*
X38364Y-23607D01*
X38378Y-23592D01*
X38392Y-23564D01*
X38392Y-23535D01*
X38378Y-23507D01*
X38364Y-23492D01*
X38335Y-23478D01*
X38278Y-23464D01*
X38250Y-23450D01*
X38235Y-23435D01*
X38221Y-23407D01*
X38221Y-23378D01*
X38235Y-23350D01*
X38250Y-23335D01*
X38278Y-23321D01*
X38350Y-23321D01*
X38392Y-23335D01*
X38621Y-23464D02*
X38664Y-23478D01*
X38678Y-23492D01*
X38692Y-23521D01*
X38692Y-23564D01*
X38678Y-23592D01*
X38664Y-23607D01*
X38635Y-23621D01*
X38521Y-23621D01*
X38521Y-23321D01*
X38621Y-23321D01*
X38650Y-23335D01*
X38664Y-23350D01*
X38678Y-23378D01*
X38678Y-23407D01*
X38664Y-23435D01*
X38650Y-23450D01*
X38621Y-23464D01*
X38521Y-23464D01*
X38078Y-24621D02*
X38078Y-24321D01*
X38192Y-24321D01*
X38221Y-24335D01*
X38235Y-24350D01*
X38250Y-24378D01*
X38250Y-24421D01*
X38235Y-24450D01*
X38221Y-24464D01*
X38192Y-24478D01*
X38078Y-24478D01*
X38378Y-24621D02*
X38378Y-24321D01*
X38692Y-24592D02*
X38678Y-24607D01*
X38635Y-24621D01*
X38607Y-24621D01*
X38564Y-24607D01*
X38535Y-24578D01*
X38521Y-24550D01*
X38507Y-24492D01*
X38507Y-24450D01*
X38521Y-24392D01*
X38535Y-24364D01*
X38564Y-24335D01*
X38607Y-24321D01*
X38635Y-24321D01*
X38678Y-24335D01*
X38692Y-24350D01*
X37992Y-22464D02*
X37892Y-22464D01*
X37892Y-22621D02*
X37892Y-22321D01*
X38035Y-22321D01*
X38107Y-22321D02*
X38278Y-22321D01*
X38192Y-22621D02*
X38192Y-22321D01*
X38378Y-22621D02*
X38378Y-22321D01*
X38450Y-22321D01*
X38492Y-22335D01*
X38521Y-22364D01*
X38535Y-22392D01*
X38550Y-22450D01*
X38550Y-22492D01*
X38535Y-22550D01*
X38521Y-22578D01*
X38492Y-22607D01*
X38450Y-22621D01*
X38378Y-22621D01*
X38678Y-22621D02*
X38678Y-22321D01*
G54D12*
X62000Y-41500D02*
X51000Y-41500D01*
X51000Y-40500D02*
X62000Y-40500D01*
X51000Y-39500D02*
X51000Y-35500D01*
X52000Y-39500D02*
X52000Y-35500D01*
X54000Y-39500D02*
X54000Y-35500D01*
X53000Y-39500D02*
X53000Y-35500D01*
X57000Y-39500D02*
X57000Y-35500D01*
X58000Y-39500D02*
X58000Y-35500D01*
X56000Y-39500D02*
X56000Y-35500D01*
X55000Y-39500D02*
X55000Y-35500D01*
X59000Y-39500D02*
X59000Y-35500D01*
X60000Y-39500D02*
X60000Y-35500D01*
X62000Y-39500D02*
X62000Y-35500D01*
X61000Y-39500D02*
X61000Y-35500D01*
X60000Y-46500D02*
X60000Y-42500D01*
X61000Y-46500D02*
X61000Y-42500D01*
X62000Y-46500D02*
X62000Y-42500D01*
X56000Y-46500D02*
X56000Y-42500D01*
X57000Y-46500D02*
X57000Y-42500D01*
X59000Y-46500D02*
X59000Y-42500D01*
X58000Y-46500D02*
X58000Y-42500D01*
X52000Y-46500D02*
X52000Y-42500D01*
X53000Y-46500D02*
X53000Y-42500D01*
X55000Y-46500D02*
X55000Y-42500D01*
X54000Y-46500D02*
X54000Y-42500D01*
X51000Y-46500D02*
X51000Y-42500D01*
G54D11*
X30121Y-53178D02*
X29821Y-53178D01*
X30121Y-53050D02*
X29964Y-53050D01*
X29935Y-53064D01*
X29921Y-53092D01*
X29921Y-53135D01*
X29935Y-53164D01*
X29950Y-53178D01*
X29921Y-52950D02*
X29921Y-52835D01*
X29821Y-52907D02*
X30078Y-52907D01*
X30107Y-52892D01*
X30121Y-52864D01*
X30121Y-52835D01*
X29921Y-52778D02*
X29921Y-52664D01*
X29821Y-52735D02*
X30078Y-52735D01*
X30107Y-52721D01*
X30121Y-52692D01*
X30121Y-52664D01*
X29921Y-52564D02*
X30221Y-52564D01*
X29935Y-52564D02*
X29921Y-52535D01*
X29921Y-52478D01*
X29935Y-52449D01*
X29950Y-52435D01*
X29978Y-52421D01*
X30064Y-52421D01*
X30092Y-52435D01*
X30107Y-52449D01*
X30121Y-52478D01*
X30121Y-52535D01*
X30107Y-52564D01*
X30107Y-52307D02*
X30121Y-52278D01*
X30121Y-52221D01*
X30107Y-52192D01*
X30078Y-52178D01*
X30064Y-52178D01*
X30035Y-52192D01*
X30021Y-52221D01*
X30021Y-52264D01*
X30007Y-52292D01*
X29978Y-52307D01*
X29964Y-52307D01*
X29935Y-52292D01*
X29921Y-52264D01*
X29921Y-52221D01*
X29935Y-52192D01*
X30092Y-52049D02*
X30107Y-52035D01*
X30121Y-52049D01*
X30107Y-52064D01*
X30092Y-52049D01*
X30121Y-52049D01*
X29935Y-52049D02*
X29950Y-52035D01*
X29964Y-52049D01*
X29950Y-52064D01*
X29935Y-52049D01*
X29964Y-52049D01*
X29807Y-51692D02*
X30192Y-51949D01*
X29807Y-51378D02*
X30192Y-51635D01*
X29921Y-51149D02*
X30164Y-51149D01*
X30192Y-51164D01*
X30207Y-51178D01*
X30221Y-51207D01*
X30221Y-51249D01*
X30207Y-51278D01*
X30107Y-51149D02*
X30121Y-51178D01*
X30121Y-51235D01*
X30107Y-51264D01*
X30092Y-51278D01*
X30064Y-51292D01*
X29978Y-51292D01*
X29950Y-51278D01*
X29935Y-51264D01*
X29921Y-51235D01*
X29921Y-51178D01*
X29935Y-51149D01*
X30121Y-51007D02*
X29921Y-51007D01*
X29821Y-51007D02*
X29835Y-51021D01*
X29850Y-51007D01*
X29835Y-50992D01*
X29821Y-51007D01*
X29850Y-51007D01*
X29921Y-50907D02*
X29921Y-50792D01*
X29821Y-50864D02*
X30078Y-50864D01*
X30107Y-50849D01*
X30121Y-50821D01*
X30121Y-50792D01*
X30121Y-50692D02*
X29821Y-50692D01*
X30121Y-50564D02*
X29964Y-50564D01*
X29935Y-50578D01*
X29921Y-50607D01*
X29921Y-50649D01*
X29935Y-50678D01*
X29950Y-50692D01*
X29921Y-50292D02*
X30121Y-50292D01*
X29921Y-50421D02*
X30078Y-50421D01*
X30107Y-50407D01*
X30121Y-50378D01*
X30121Y-50335D01*
X30107Y-50307D01*
X30092Y-50292D01*
X30121Y-50149D02*
X29821Y-50149D01*
X29935Y-50149D02*
X29921Y-50121D01*
X29921Y-50064D01*
X29935Y-50035D01*
X29950Y-50021D01*
X29978Y-50007D01*
X30064Y-50007D01*
X30092Y-50021D01*
X30107Y-50035D01*
X30121Y-50064D01*
X30121Y-50121D01*
X30107Y-50149D01*
X30092Y-49878D02*
X30107Y-49864D01*
X30121Y-49878D01*
X30107Y-49892D01*
X30092Y-49878D01*
X30121Y-49878D01*
X30107Y-49607D02*
X30121Y-49635D01*
X30121Y-49692D01*
X30107Y-49721D01*
X30092Y-49735D01*
X30064Y-49749D01*
X29978Y-49749D01*
X29950Y-49735D01*
X29935Y-49721D01*
X29921Y-49692D01*
X29921Y-49635D01*
X29935Y-49607D01*
X30121Y-49435D02*
X30107Y-49464D01*
X30092Y-49478D01*
X30064Y-49492D01*
X29978Y-49492D01*
X29950Y-49478D01*
X29935Y-49464D01*
X29921Y-49435D01*
X29921Y-49392D01*
X29935Y-49364D01*
X29950Y-49349D01*
X29978Y-49335D01*
X30064Y-49335D01*
X30092Y-49349D01*
X30107Y-49364D01*
X30121Y-49392D01*
X30121Y-49435D01*
X30121Y-49207D02*
X29921Y-49207D01*
X29950Y-49207D02*
X29935Y-49192D01*
X29921Y-49164D01*
X29921Y-49121D01*
X29935Y-49092D01*
X29964Y-49078D01*
X30121Y-49078D01*
X29964Y-49078D02*
X29935Y-49064D01*
X29921Y-49035D01*
X29921Y-48992D01*
X29935Y-48964D01*
X29964Y-48949D01*
X30121Y-48949D01*
X29807Y-48592D02*
X30192Y-48849D01*
X30121Y-48492D02*
X29821Y-48492D01*
X30121Y-48321D02*
X29950Y-48449D01*
X29821Y-48321D02*
X29992Y-48492D01*
X30121Y-48149D02*
X30107Y-48178D01*
X30092Y-48192D01*
X30064Y-48207D01*
X29978Y-48207D01*
X29950Y-48192D01*
X29935Y-48178D01*
X29921Y-48149D01*
X29921Y-48107D01*
X29935Y-48078D01*
X29950Y-48064D01*
X29978Y-48049D01*
X30064Y-48049D01*
X30092Y-48064D01*
X30107Y-48078D01*
X30121Y-48107D01*
X30121Y-48149D01*
X30121Y-47878D02*
X30107Y-47907D01*
X30078Y-47921D01*
X29821Y-47921D01*
X30121Y-47764D02*
X29921Y-47764D01*
X29821Y-47764D02*
X29835Y-47778D01*
X29850Y-47764D01*
X29835Y-47749D01*
X29821Y-47764D01*
X29850Y-47764D01*
X29921Y-47621D02*
X30178Y-47621D01*
X30207Y-47635D01*
X30221Y-47664D01*
X30221Y-47678D01*
X29821Y-47621D02*
X29835Y-47635D01*
X29850Y-47621D01*
X29835Y-47607D01*
X29821Y-47621D01*
X29850Y-47621D01*
X29921Y-47478D02*
X30121Y-47478D01*
X29950Y-47478D02*
X29935Y-47464D01*
X29921Y-47435D01*
X29921Y-47392D01*
X29935Y-47364D01*
X29964Y-47349D01*
X30121Y-47349D01*
X29821Y-47235D02*
X30121Y-47164D01*
X29907Y-47107D01*
X30121Y-47049D01*
X29821Y-46978D01*
X30121Y-46821D02*
X30107Y-46849D01*
X30092Y-46864D01*
X30064Y-46878D01*
X29978Y-46878D01*
X29950Y-46864D01*
X29935Y-46849D01*
X29921Y-46821D01*
X29921Y-46778D01*
X29935Y-46749D01*
X29950Y-46735D01*
X29978Y-46721D01*
X30064Y-46721D01*
X30092Y-46735D01*
X30107Y-46749D01*
X30121Y-46778D01*
X30121Y-46821D01*
X30121Y-46549D02*
X30107Y-46578D01*
X30078Y-46592D01*
X29821Y-46592D01*
X29921Y-46478D02*
X29921Y-46364D01*
X30121Y-46435D02*
X29864Y-46435D01*
X29835Y-46421D01*
X29821Y-46392D01*
X29821Y-46364D01*
X30121Y-46135D02*
X29964Y-46135D01*
X29935Y-46149D01*
X29921Y-46178D01*
X29921Y-46235D01*
X29935Y-46264D01*
X30107Y-46135D02*
X30121Y-46164D01*
X30121Y-46235D01*
X30107Y-46264D01*
X30078Y-46278D01*
X30050Y-46278D01*
X30021Y-46264D01*
X30007Y-46235D01*
X30007Y-46164D01*
X29992Y-46135D01*
X30121Y-45864D02*
X29964Y-45864D01*
X29935Y-45878D01*
X29921Y-45907D01*
X29921Y-45964D01*
X29935Y-45992D01*
X30107Y-45864D02*
X30121Y-45892D01*
X30121Y-45964D01*
X30107Y-45992D01*
X30078Y-46007D01*
X30050Y-46007D01*
X30021Y-45992D01*
X30007Y-45964D01*
X30007Y-45892D01*
X29992Y-45864D01*
X30121Y-45721D02*
X29921Y-45721D01*
X29978Y-45721D02*
X29950Y-45707D01*
X29935Y-45692D01*
X29921Y-45664D01*
X29921Y-45635D01*
X30121Y-45407D02*
X29821Y-45407D01*
X30107Y-45407D02*
X30121Y-45435D01*
X30121Y-45492D01*
X30107Y-45521D01*
X30092Y-45535D01*
X30064Y-45549D01*
X29978Y-45549D01*
X29950Y-45535D01*
X29935Y-45521D01*
X29921Y-45492D01*
X29921Y-45435D01*
X29935Y-45407D01*
X29921Y-45307D02*
X29921Y-45192D01*
X29821Y-45264D02*
X30078Y-45264D01*
X30107Y-45249D01*
X30121Y-45221D01*
X30121Y-45192D01*
X29807Y-44878D02*
X30192Y-45135D01*
X30107Y-44792D02*
X30121Y-44749D01*
X30121Y-44678D01*
X30107Y-44649D01*
X30092Y-44635D01*
X30064Y-44621D01*
X30035Y-44621D01*
X30007Y-44635D01*
X29992Y-44649D01*
X29978Y-44678D01*
X29964Y-44735D01*
X29950Y-44764D01*
X29935Y-44778D01*
X29907Y-44792D01*
X29878Y-44792D01*
X29850Y-44778D01*
X29835Y-44764D01*
X29821Y-44735D01*
X29821Y-44664D01*
X29835Y-44621D01*
X30121Y-44321D02*
X29978Y-44421D01*
X30121Y-44492D02*
X29821Y-44492D01*
X29821Y-44378D01*
X29835Y-44349D01*
X29850Y-44335D01*
X29878Y-44321D01*
X29921Y-44321D01*
X29950Y-44335D01*
X29964Y-44349D01*
X29978Y-44378D01*
X29978Y-44492D01*
X29964Y-44192D02*
X29964Y-44092D01*
X30121Y-44049D02*
X30121Y-44192D01*
X29821Y-44192D01*
X29821Y-44049D01*
X29964Y-43821D02*
X29978Y-43778D01*
X29992Y-43764D01*
X30021Y-43749D01*
X30064Y-43749D01*
X30092Y-43764D01*
X30107Y-43778D01*
X30121Y-43807D01*
X30121Y-43921D01*
X29821Y-43921D01*
X29821Y-43821D01*
X29835Y-43792D01*
X29850Y-43778D01*
X29878Y-43764D01*
X29907Y-43764D01*
X29935Y-43778D01*
X29950Y-43792D01*
X29964Y-43821D01*
X29964Y-43921D01*
G54D13*
X38862Y-27710D02*
X38946Y-27739D01*
X39087Y-27739D01*
X39143Y-27710D01*
X39171Y-27682D01*
X39199Y-27626D01*
X39199Y-27570D01*
X39171Y-27514D01*
X39143Y-27485D01*
X39087Y-27457D01*
X38974Y-27429D01*
X38918Y-27401D01*
X38890Y-27373D01*
X38862Y-27317D01*
X38862Y-27260D01*
X38890Y-27204D01*
X38918Y-27176D01*
X38974Y-27148D01*
X39115Y-27148D01*
X39199Y-27176D01*
X39368Y-27345D02*
X39593Y-27345D01*
X39453Y-27148D02*
X39453Y-27654D01*
X39481Y-27710D01*
X39537Y-27739D01*
X39593Y-27739D01*
X40015Y-27710D02*
X39959Y-27739D01*
X39846Y-27739D01*
X39790Y-27710D01*
X39762Y-27654D01*
X39762Y-27429D01*
X39790Y-27373D01*
X39846Y-27345D01*
X39959Y-27345D01*
X40015Y-27373D01*
X40043Y-27429D01*
X40043Y-27485D01*
X39762Y-27542D01*
X40381Y-27739D02*
X40324Y-27710D01*
X40296Y-27654D01*
X40296Y-27148D01*
X40690Y-27739D02*
X40634Y-27710D01*
X40606Y-27654D01*
X40606Y-27148D01*
X41140Y-27710D02*
X41084Y-27739D01*
X40971Y-27739D01*
X40915Y-27710D01*
X40887Y-27654D01*
X40887Y-27429D01*
X40915Y-27373D01*
X40971Y-27345D01*
X41084Y-27345D01*
X41140Y-27373D01*
X41168Y-27429D01*
X41168Y-27485D01*
X40887Y-27542D01*
X41421Y-27345D02*
X41421Y-27739D01*
X41421Y-27401D02*
X41449Y-27373D01*
X41505Y-27345D01*
X41590Y-27345D01*
X41646Y-27373D01*
X41674Y-27429D01*
X41674Y-27739D01*
X41955Y-27739D02*
X41955Y-27148D01*
X41955Y-27373D02*
X42012Y-27345D01*
X42124Y-27345D01*
X42180Y-27373D01*
X42208Y-27401D01*
X42237Y-27457D01*
X42237Y-27626D01*
X42208Y-27682D01*
X42180Y-27710D01*
X42124Y-27739D01*
X42012Y-27739D01*
X41955Y-27710D01*
X42574Y-27739D02*
X42518Y-27710D01*
X42490Y-27682D01*
X42462Y-27626D01*
X42462Y-27457D01*
X42490Y-27401D01*
X42518Y-27373D01*
X42574Y-27345D01*
X42658Y-27345D01*
X42715Y-27373D01*
X42743Y-27401D01*
X42771Y-27457D01*
X42771Y-27626D01*
X42743Y-27682D01*
X42715Y-27710D01*
X42658Y-27739D01*
X42574Y-27739D01*
X42996Y-27710D02*
X43052Y-27739D01*
X43165Y-27739D01*
X43221Y-27710D01*
X43249Y-27654D01*
X43249Y-27626D01*
X43221Y-27570D01*
X43165Y-27542D01*
X43080Y-27542D01*
X43024Y-27514D01*
X42996Y-27457D01*
X42996Y-27429D01*
X43024Y-27373D01*
X43080Y-27345D01*
X43165Y-27345D01*
X43221Y-27373D01*
X43755Y-27710D02*
X43699Y-27739D01*
X43586Y-27739D01*
X43530Y-27710D01*
X43502Y-27682D01*
X43474Y-27626D01*
X43474Y-27457D01*
X43502Y-27401D01*
X43530Y-27373D01*
X43586Y-27345D01*
X43699Y-27345D01*
X43755Y-27373D01*
X44008Y-27739D02*
X44008Y-27148D01*
X44261Y-27739D02*
X44261Y-27429D01*
X44233Y-27373D01*
X44177Y-27345D01*
X44093Y-27345D01*
X44036Y-27373D01*
X44008Y-27401D01*
X39228Y-28683D02*
X39031Y-28402D01*
X38890Y-28683D02*
X38890Y-28093D01*
X39115Y-28093D01*
X39171Y-28121D01*
X39199Y-28149D01*
X39228Y-28205D01*
X39228Y-28290D01*
X39199Y-28346D01*
X39171Y-28374D01*
X39115Y-28402D01*
X38890Y-28402D01*
X39565Y-28683D02*
X39509Y-28655D01*
X39481Y-28627D01*
X39453Y-28571D01*
X39453Y-28402D01*
X39481Y-28346D01*
X39509Y-28318D01*
X39565Y-28290D01*
X39649Y-28290D01*
X39706Y-28318D01*
X39734Y-28346D01*
X39762Y-28402D01*
X39762Y-28571D01*
X39734Y-28627D01*
X39706Y-28655D01*
X39649Y-28683D01*
X39565Y-28683D01*
X40015Y-28683D02*
X40015Y-28093D01*
X40015Y-28318D02*
X40071Y-28290D01*
X40184Y-28290D01*
X40240Y-28318D01*
X40268Y-28346D01*
X40296Y-28402D01*
X40296Y-28571D01*
X40268Y-28627D01*
X40240Y-28655D01*
X40184Y-28683D01*
X40071Y-28683D01*
X40015Y-28655D01*
X40634Y-28683D02*
X40577Y-28655D01*
X40549Y-28627D01*
X40521Y-28571D01*
X40521Y-28402D01*
X40549Y-28346D01*
X40577Y-28318D01*
X40634Y-28290D01*
X40718Y-28290D01*
X40774Y-28318D01*
X40802Y-28346D01*
X40830Y-28402D01*
X40830Y-28571D01*
X40802Y-28627D01*
X40774Y-28655D01*
X40718Y-28683D01*
X40634Y-28683D01*
X40999Y-28290D02*
X41224Y-28290D01*
X41084Y-28093D02*
X41084Y-28599D01*
X41112Y-28655D01*
X41168Y-28683D01*
X41224Y-28683D01*
X41421Y-28683D02*
X41421Y-28290D01*
X41421Y-28093D02*
X41393Y-28121D01*
X41421Y-28149D01*
X41449Y-28121D01*
X41421Y-28093D01*
X41421Y-28149D01*
X41955Y-28655D02*
X41899Y-28683D01*
X41787Y-28683D01*
X41730Y-28655D01*
X41702Y-28627D01*
X41674Y-28571D01*
X41674Y-28402D01*
X41702Y-28346D01*
X41730Y-28318D01*
X41787Y-28290D01*
X41899Y-28290D01*
X41955Y-28318D01*
X42180Y-28655D02*
X42237Y-28683D01*
X42349Y-28683D01*
X42405Y-28655D01*
X42433Y-28599D01*
X42433Y-28571D01*
X42405Y-28515D01*
X42349Y-28487D01*
X42265Y-28487D01*
X42208Y-28458D01*
X42180Y-28402D01*
X42180Y-28374D01*
X42208Y-28318D01*
X42265Y-28290D01*
X42349Y-28290D01*
X42405Y-28318D01*
X38890Y-29628D02*
X38890Y-29038D01*
X39031Y-29038D01*
X39115Y-29066D01*
X39171Y-29122D01*
X39199Y-29178D01*
X39228Y-29291D01*
X39228Y-29375D01*
X39199Y-29488D01*
X39171Y-29544D01*
X39115Y-29600D01*
X39031Y-29628D01*
X38890Y-29628D01*
X39706Y-29600D02*
X39649Y-29628D01*
X39537Y-29628D01*
X39481Y-29600D01*
X39453Y-29544D01*
X39453Y-29319D01*
X39481Y-29263D01*
X39537Y-29235D01*
X39649Y-29235D01*
X39706Y-29263D01*
X39734Y-29319D01*
X39734Y-29375D01*
X39453Y-29431D01*
X39931Y-29235D02*
X40071Y-29628D01*
X40212Y-29235D01*
X40662Y-29600D02*
X40606Y-29628D01*
X40493Y-29628D01*
X40437Y-29600D01*
X40409Y-29544D01*
X40409Y-29319D01*
X40437Y-29263D01*
X40493Y-29235D01*
X40606Y-29235D01*
X40662Y-29263D01*
X40690Y-29319D01*
X40690Y-29375D01*
X40409Y-29431D01*
X41027Y-29628D02*
X40971Y-29600D01*
X40943Y-29544D01*
X40943Y-29038D01*
X41337Y-29628D02*
X41280Y-29600D01*
X41252Y-29572D01*
X41224Y-29516D01*
X41224Y-29347D01*
X41252Y-29291D01*
X41280Y-29263D01*
X41337Y-29235D01*
X41421Y-29235D01*
X41477Y-29263D01*
X41505Y-29291D01*
X41534Y-29347D01*
X41534Y-29516D01*
X41505Y-29572D01*
X41477Y-29600D01*
X41421Y-29628D01*
X41337Y-29628D01*
X41787Y-29235D02*
X41787Y-29825D01*
X41787Y-29263D02*
X41843Y-29235D01*
X41955Y-29235D01*
X42012Y-29263D01*
X42040Y-29291D01*
X42068Y-29347D01*
X42068Y-29516D01*
X42040Y-29572D01*
X42012Y-29600D01*
X41955Y-29628D01*
X41843Y-29628D01*
X41787Y-29600D01*
X42321Y-29628D02*
X42321Y-29235D01*
X42321Y-29291D02*
X42349Y-29263D01*
X42405Y-29235D01*
X42490Y-29235D01*
X42546Y-29263D01*
X42574Y-29319D01*
X42574Y-29628D01*
X42574Y-29319D02*
X42602Y-29263D01*
X42658Y-29235D01*
X42743Y-29235D01*
X42799Y-29263D01*
X42827Y-29319D01*
X42827Y-29628D01*
X43333Y-29600D02*
X43277Y-29628D01*
X43165Y-29628D01*
X43108Y-29600D01*
X43080Y-29544D01*
X43080Y-29319D01*
X43108Y-29263D01*
X43165Y-29235D01*
X43277Y-29235D01*
X43333Y-29263D01*
X43361Y-29319D01*
X43361Y-29375D01*
X43080Y-29431D01*
X43615Y-29235D02*
X43615Y-29628D01*
X43615Y-29291D02*
X43643Y-29263D01*
X43699Y-29235D01*
X43783Y-29235D01*
X43839Y-29263D01*
X43868Y-29319D01*
X43868Y-29628D01*
X44064Y-29235D02*
X44289Y-29235D01*
X44149Y-29038D02*
X44149Y-29544D01*
X44177Y-29600D01*
X44233Y-29628D01*
X44289Y-29628D01*
X39087Y-30264D02*
X39171Y-30292D01*
X39199Y-30320D01*
X39228Y-30376D01*
X39228Y-30461D01*
X39199Y-30517D01*
X39171Y-30545D01*
X39115Y-30573D01*
X38890Y-30573D01*
X38890Y-29983D01*
X39087Y-29983D01*
X39143Y-30011D01*
X39171Y-30039D01*
X39199Y-30095D01*
X39199Y-30151D01*
X39171Y-30208D01*
X39143Y-30236D01*
X39087Y-30264D01*
X38890Y-30264D01*
X39565Y-30573D02*
X39509Y-30545D01*
X39481Y-30517D01*
X39453Y-30461D01*
X39453Y-30292D01*
X39481Y-30236D01*
X39509Y-30208D01*
X39565Y-30179D01*
X39649Y-30179D01*
X39706Y-30208D01*
X39734Y-30236D01*
X39762Y-30292D01*
X39762Y-30461D01*
X39734Y-30517D01*
X39706Y-30545D01*
X39649Y-30573D01*
X39565Y-30573D01*
X40268Y-30573D02*
X40268Y-30264D01*
X40240Y-30208D01*
X40184Y-30179D01*
X40071Y-30179D01*
X40015Y-30208D01*
X40268Y-30545D02*
X40212Y-30573D01*
X40071Y-30573D01*
X40015Y-30545D01*
X39987Y-30489D01*
X39987Y-30433D01*
X40015Y-30376D01*
X40071Y-30348D01*
X40212Y-30348D01*
X40268Y-30320D01*
X40549Y-30573D02*
X40549Y-30179D01*
X40549Y-30292D02*
X40577Y-30236D01*
X40606Y-30208D01*
X40662Y-30179D01*
X40718Y-30179D01*
X41168Y-30573D02*
X41168Y-29983D01*
X41168Y-30545D02*
X41112Y-30573D01*
X40999Y-30573D01*
X40943Y-30545D01*
X40915Y-30517D01*
X40887Y-30461D01*
X40887Y-30292D01*
X40915Y-30236D01*
X40943Y-30208D01*
X40999Y-30179D01*
X41112Y-30179D01*
X41168Y-30208D01*
X42068Y-30798D02*
X42040Y-30770D01*
X41983Y-30686D01*
X41955Y-30629D01*
X41927Y-30545D01*
X41899Y-30404D01*
X41899Y-30292D01*
X41927Y-30151D01*
X41955Y-30067D01*
X41983Y-30011D01*
X42040Y-29926D01*
X42068Y-29898D01*
X42208Y-29983D02*
X42405Y-30573D01*
X42602Y-29983D01*
X42771Y-30039D02*
X42799Y-30011D01*
X42855Y-29983D01*
X42996Y-29983D01*
X43052Y-30011D01*
X43080Y-30039D01*
X43108Y-30095D01*
X43108Y-30151D01*
X43080Y-30236D01*
X42743Y-30573D01*
X43108Y-30573D01*
X43361Y-30517D02*
X43390Y-30545D01*
X43361Y-30573D01*
X43333Y-30545D01*
X43361Y-30517D01*
X43361Y-30573D01*
X43755Y-29983D02*
X43811Y-29983D01*
X43868Y-30011D01*
X43896Y-30039D01*
X43924Y-30095D01*
X43952Y-30208D01*
X43952Y-30348D01*
X43924Y-30461D01*
X43896Y-30517D01*
X43868Y-30545D01*
X43811Y-30573D01*
X43755Y-30573D01*
X43699Y-30545D01*
X43671Y-30517D01*
X43643Y-30461D01*
X43615Y-30348D01*
X43615Y-30208D01*
X43643Y-30095D01*
X43671Y-30039D01*
X43699Y-30011D01*
X43755Y-29983D01*
X44149Y-30798D02*
X44177Y-30770D01*
X44233Y-30686D01*
X44261Y-30629D01*
X44289Y-30545D01*
X44318Y-30404D01*
X44318Y-30292D01*
X44289Y-30151D01*
X44261Y-30067D01*
X44233Y-30011D01*
X44177Y-29926D01*
X44149Y-29898D01*
G54D11*
X50085Y-48864D02*
X50071Y-48892D01*
X50071Y-48935D01*
X50085Y-48978D01*
X50114Y-49007D01*
X50142Y-49021D01*
X50200Y-49035D01*
X50242Y-49035D01*
X50300Y-49021D01*
X50328Y-49007D01*
X50357Y-48978D01*
X50371Y-48935D01*
X50371Y-48907D01*
X50357Y-48864D01*
X50342Y-48850D01*
X50242Y-48850D01*
X50242Y-48907D01*
X50171Y-48721D02*
X50371Y-48721D01*
X50200Y-48721D02*
X50185Y-48707D01*
X50171Y-48678D01*
X50171Y-48635D01*
X50185Y-48607D01*
X50214Y-48592D01*
X50371Y-48592D01*
X50371Y-48321D02*
X50071Y-48321D01*
X50357Y-48321D02*
X50371Y-48350D01*
X50371Y-48407D01*
X50357Y-48435D01*
X50342Y-48450D01*
X50314Y-48464D01*
X50228Y-48464D01*
X50200Y-48450D01*
X50185Y-48435D01*
X50171Y-48407D01*
X50171Y-48350D01*
X50185Y-48321D01*
X50071Y-49828D02*
X50071Y-49971D01*
X50214Y-49985D01*
X50200Y-49971D01*
X50185Y-49942D01*
X50185Y-49871D01*
X50200Y-49842D01*
X50214Y-49828D01*
X50242Y-49814D01*
X50314Y-49814D01*
X50342Y-49828D01*
X50357Y-49842D01*
X50371Y-49871D01*
X50371Y-49942D01*
X50357Y-49971D01*
X50342Y-49985D01*
X50071Y-49728D02*
X50371Y-49628D01*
X50071Y-49528D01*
X31321Y-52964D02*
X31421Y-52964D01*
X31464Y-53121D02*
X31321Y-53121D01*
X31321Y-52821D01*
X31464Y-52821D01*
X31592Y-52921D02*
X31592Y-53121D01*
X31592Y-52950D02*
X31607Y-52935D01*
X31635Y-52921D01*
X31678Y-52921D01*
X31707Y-52935D01*
X31721Y-52964D01*
X31721Y-53121D01*
X31321Y-52121D02*
X31321Y-51821D01*
X31392Y-51821D01*
X31435Y-51835D01*
X31464Y-51864D01*
X31478Y-51892D01*
X31492Y-51950D01*
X31492Y-51992D01*
X31478Y-52050D01*
X31464Y-52078D01*
X31435Y-52107D01*
X31392Y-52121D01*
X31321Y-52121D01*
X31778Y-52121D02*
X31607Y-52121D01*
X31692Y-52121D02*
X31692Y-51821D01*
X31664Y-51864D01*
X31635Y-51892D01*
X31607Y-51907D01*
X31321Y-51121D02*
X31321Y-50821D01*
X31392Y-50821D01*
X31435Y-50835D01*
X31464Y-50864D01*
X31478Y-50892D01*
X31492Y-50950D01*
X31492Y-50992D01*
X31478Y-51050D01*
X31464Y-51078D01*
X31435Y-51107D01*
X31392Y-51121D01*
X31321Y-51121D01*
X31607Y-50850D02*
X31621Y-50835D01*
X31650Y-50821D01*
X31721Y-50821D01*
X31750Y-50835D01*
X31764Y-50850D01*
X31778Y-50878D01*
X31778Y-50907D01*
X31764Y-50950D01*
X31592Y-51121D01*
X31778Y-51121D01*
X31321Y-48121D02*
X31321Y-47821D01*
X31392Y-47821D01*
X31435Y-47835D01*
X31464Y-47864D01*
X31478Y-47892D01*
X31492Y-47950D01*
X31492Y-47992D01*
X31478Y-48050D01*
X31464Y-48078D01*
X31435Y-48107D01*
X31392Y-48121D01*
X31321Y-48121D01*
X31607Y-47850D02*
X31621Y-47835D01*
X31650Y-47821D01*
X31721Y-47821D01*
X31750Y-47835D01*
X31764Y-47850D01*
X31778Y-47878D01*
X31778Y-47907D01*
X31764Y-47950D01*
X31592Y-48121D01*
X31778Y-48121D01*
X31321Y-49121D02*
X31321Y-48821D01*
X31392Y-48821D01*
X31435Y-48835D01*
X31464Y-48864D01*
X31478Y-48892D01*
X31492Y-48950D01*
X31492Y-48992D01*
X31478Y-49050D01*
X31464Y-49078D01*
X31435Y-49107D01*
X31392Y-49121D01*
X31321Y-49121D01*
X31778Y-49121D02*
X31607Y-49121D01*
X31692Y-49121D02*
X31692Y-48821D01*
X31664Y-48864D01*
X31635Y-48892D01*
X31607Y-48907D01*
X31321Y-49964D02*
X31421Y-49964D01*
X31464Y-50121D02*
X31321Y-50121D01*
X31321Y-49821D01*
X31464Y-49821D01*
X31592Y-49921D02*
X31592Y-50121D01*
X31592Y-49950D02*
X31607Y-49935D01*
X31635Y-49921D01*
X31678Y-49921D01*
X31707Y-49935D01*
X31721Y-49964D01*
X31721Y-50121D01*
X27871Y-54335D02*
X27842Y-54321D01*
X27800Y-54321D01*
X27757Y-54335D01*
X27728Y-54364D01*
X27714Y-54392D01*
X27700Y-54450D01*
X27700Y-54492D01*
X27714Y-54550D01*
X27728Y-54578D01*
X27757Y-54607D01*
X27800Y-54621D01*
X27828Y-54621D01*
X27871Y-54607D01*
X27885Y-54592D01*
X27885Y-54492D01*
X27828Y-54492D01*
X28014Y-54621D02*
X28014Y-54321D01*
X28128Y-54321D01*
X28157Y-54335D01*
X28171Y-54350D01*
X28185Y-54378D01*
X28185Y-54421D01*
X28171Y-54450D01*
X28157Y-54464D01*
X28128Y-54478D01*
X28014Y-54478D01*
X28285Y-54321D02*
X28485Y-54321D01*
X28357Y-54621D01*
X28814Y-54307D02*
X28557Y-54692D01*
X28871Y-54321D02*
X29042Y-54321D01*
X28957Y-54621D02*
X28957Y-54321D01*
X29114Y-54321D02*
X29314Y-54621D01*
X29314Y-54321D02*
X29114Y-54621D01*
X27835Y-53335D02*
X27807Y-53321D01*
X27764Y-53321D01*
X27721Y-53335D01*
X27692Y-53364D01*
X27678Y-53392D01*
X27664Y-53450D01*
X27664Y-53492D01*
X27678Y-53550D01*
X27692Y-53578D01*
X27721Y-53607D01*
X27764Y-53621D01*
X27792Y-53621D01*
X27835Y-53607D01*
X27850Y-53592D01*
X27850Y-53492D01*
X27792Y-53492D01*
X27978Y-53621D02*
X27978Y-53321D01*
X28092Y-53321D01*
X28121Y-53335D01*
X28135Y-53350D01*
X28150Y-53378D01*
X28150Y-53421D01*
X28135Y-53450D01*
X28121Y-53464D01*
X28092Y-53478D01*
X27978Y-53478D01*
X28407Y-53321D02*
X28350Y-53321D01*
X28321Y-53335D01*
X28307Y-53350D01*
X28278Y-53392D01*
X28264Y-53450D01*
X28264Y-53564D01*
X28278Y-53592D01*
X28292Y-53607D01*
X28321Y-53621D01*
X28378Y-53621D01*
X28407Y-53607D01*
X28421Y-53592D01*
X28435Y-53564D01*
X28435Y-53492D01*
X28421Y-53464D01*
X28407Y-53450D01*
X28378Y-53435D01*
X28321Y-53435D01*
X28292Y-53450D01*
X28278Y-53464D01*
X28264Y-53492D01*
X28778Y-53307D02*
X28521Y-53692D01*
X29050Y-53621D02*
X28950Y-53478D01*
X28878Y-53621D02*
X28878Y-53321D01*
X28992Y-53321D01*
X29021Y-53335D01*
X29035Y-53350D01*
X29050Y-53378D01*
X29050Y-53421D01*
X29035Y-53450D01*
X29021Y-53464D01*
X28992Y-53478D01*
X28878Y-53478D01*
X29150Y-53321D02*
X29350Y-53621D01*
X29350Y-53321D02*
X29150Y-53621D01*
X27785Y-52335D02*
X27757Y-52321D01*
X27714Y-52321D01*
X27671Y-52335D01*
X27642Y-52364D01*
X27628Y-52392D01*
X27614Y-52450D01*
X27614Y-52492D01*
X27628Y-52550D01*
X27642Y-52578D01*
X27671Y-52607D01*
X27714Y-52621D01*
X27742Y-52621D01*
X27785Y-52607D01*
X27800Y-52592D01*
X27800Y-52492D01*
X27742Y-52492D01*
X27928Y-52621D02*
X27928Y-52321D01*
X28042Y-52321D01*
X28071Y-52335D01*
X28085Y-52350D01*
X28100Y-52378D01*
X28100Y-52421D01*
X28085Y-52450D01*
X28071Y-52464D01*
X28042Y-52478D01*
X27928Y-52478D01*
X28371Y-52321D02*
X28228Y-52321D01*
X28214Y-52464D01*
X28228Y-52450D01*
X28257Y-52435D01*
X28328Y-52435D01*
X28357Y-52450D01*
X28371Y-52464D01*
X28385Y-52492D01*
X28385Y-52564D01*
X28371Y-52592D01*
X28357Y-52607D01*
X28328Y-52621D01*
X28257Y-52621D01*
X28228Y-52607D01*
X28214Y-52592D01*
X27785Y-51335D02*
X27757Y-51321D01*
X27714Y-51321D01*
X27671Y-51335D01*
X27642Y-51364D01*
X27628Y-51392D01*
X27614Y-51450D01*
X27614Y-51492D01*
X27628Y-51550D01*
X27642Y-51578D01*
X27671Y-51607D01*
X27714Y-51621D01*
X27742Y-51621D01*
X27785Y-51607D01*
X27800Y-51592D01*
X27800Y-51492D01*
X27742Y-51492D01*
X27928Y-51621D02*
X27928Y-51321D01*
X28042Y-51321D01*
X28071Y-51335D01*
X28085Y-51350D01*
X28100Y-51378D01*
X28100Y-51421D01*
X28085Y-51450D01*
X28071Y-51464D01*
X28042Y-51478D01*
X27928Y-51478D01*
X28357Y-51421D02*
X28357Y-51621D01*
X28285Y-51307D02*
X28214Y-51521D01*
X28400Y-51521D01*
X27785Y-50335D02*
X27757Y-50321D01*
X27714Y-50321D01*
X27671Y-50335D01*
X27642Y-50364D01*
X27628Y-50392D01*
X27614Y-50450D01*
X27614Y-50492D01*
X27628Y-50550D01*
X27642Y-50578D01*
X27671Y-50607D01*
X27714Y-50621D01*
X27742Y-50621D01*
X27785Y-50607D01*
X27800Y-50592D01*
X27800Y-50492D01*
X27742Y-50492D01*
X27928Y-50621D02*
X27928Y-50321D01*
X28042Y-50321D01*
X28071Y-50335D01*
X28085Y-50350D01*
X28100Y-50378D01*
X28100Y-50421D01*
X28085Y-50450D01*
X28071Y-50464D01*
X28042Y-50478D01*
X27928Y-50478D01*
X28200Y-50321D02*
X28385Y-50321D01*
X28285Y-50435D01*
X28328Y-50435D01*
X28357Y-50450D01*
X28371Y-50464D01*
X28385Y-50492D01*
X28385Y-50564D01*
X28371Y-50592D01*
X28357Y-50607D01*
X28328Y-50621D01*
X28242Y-50621D01*
X28214Y-50607D01*
X28200Y-50592D01*
X27785Y-49335D02*
X27757Y-49321D01*
X27714Y-49321D01*
X27671Y-49335D01*
X27642Y-49364D01*
X27628Y-49392D01*
X27614Y-49450D01*
X27614Y-49492D01*
X27628Y-49550D01*
X27642Y-49578D01*
X27671Y-49607D01*
X27714Y-49621D01*
X27742Y-49621D01*
X27785Y-49607D01*
X27800Y-49592D01*
X27800Y-49492D01*
X27742Y-49492D01*
X27928Y-49621D02*
X27928Y-49321D01*
X28042Y-49321D01*
X28071Y-49335D01*
X28085Y-49350D01*
X28100Y-49378D01*
X28100Y-49421D01*
X28085Y-49450D01*
X28071Y-49464D01*
X28042Y-49478D01*
X27928Y-49478D01*
X28214Y-49350D02*
X28228Y-49335D01*
X28257Y-49321D01*
X28328Y-49321D01*
X28357Y-49335D01*
X28371Y-49350D01*
X28385Y-49378D01*
X28385Y-49407D01*
X28371Y-49450D01*
X28200Y-49621D01*
X28385Y-49621D01*
X27785Y-48335D02*
X27757Y-48321D01*
X27714Y-48321D01*
X27671Y-48335D01*
X27642Y-48364D01*
X27628Y-48392D01*
X27614Y-48450D01*
X27614Y-48492D01*
X27628Y-48550D01*
X27642Y-48578D01*
X27671Y-48607D01*
X27714Y-48621D01*
X27742Y-48621D01*
X27785Y-48607D01*
X27800Y-48592D01*
X27800Y-48492D01*
X27742Y-48492D01*
X27928Y-48621D02*
X27928Y-48321D01*
X28042Y-48321D01*
X28071Y-48335D01*
X28085Y-48350D01*
X28100Y-48378D01*
X28100Y-48421D01*
X28085Y-48450D01*
X28071Y-48464D01*
X28042Y-48478D01*
X27928Y-48478D01*
X28385Y-48621D02*
X28214Y-48621D01*
X28300Y-48621D02*
X28300Y-48321D01*
X28271Y-48364D01*
X28242Y-48392D01*
X28214Y-48407D01*
X27785Y-47335D02*
X27757Y-47321D01*
X27714Y-47321D01*
X27671Y-47335D01*
X27642Y-47364D01*
X27628Y-47392D01*
X27614Y-47450D01*
X27614Y-47492D01*
X27628Y-47550D01*
X27642Y-47578D01*
X27671Y-47607D01*
X27714Y-47621D01*
X27742Y-47621D01*
X27785Y-47607D01*
X27800Y-47592D01*
X27800Y-47492D01*
X27742Y-47492D01*
X27928Y-47621D02*
X27928Y-47321D01*
X28042Y-47321D01*
X28071Y-47335D01*
X28085Y-47350D01*
X28100Y-47378D01*
X28100Y-47421D01*
X28085Y-47450D01*
X28071Y-47464D01*
X28042Y-47478D01*
X27928Y-47478D01*
X28285Y-47321D02*
X28314Y-47321D01*
X28342Y-47335D01*
X28357Y-47350D01*
X28371Y-47378D01*
X28385Y-47435D01*
X28385Y-47507D01*
X28371Y-47564D01*
X28357Y-47592D01*
X28342Y-47607D01*
X28314Y-47621D01*
X28285Y-47621D01*
X28257Y-47607D01*
X28242Y-47592D01*
X28228Y-47564D01*
X28214Y-47507D01*
X28214Y-47435D01*
X28228Y-47378D01*
X28242Y-47350D01*
X28257Y-47335D01*
X28285Y-47321D01*
X44607Y-37621D02*
X44507Y-37478D01*
X44435Y-37621D02*
X44435Y-37321D01*
X44550Y-37321D01*
X44578Y-37335D01*
X44592Y-37350D01*
X44607Y-37378D01*
X44607Y-37421D01*
X44592Y-37450D01*
X44578Y-37464D01*
X44550Y-37478D01*
X44435Y-37478D01*
X44735Y-37621D02*
X44735Y-37321D01*
X44807Y-37321D01*
X44850Y-37335D01*
X44878Y-37364D01*
X44892Y-37392D01*
X44907Y-37450D01*
X44907Y-37492D01*
X44892Y-37550D01*
X44878Y-37578D01*
X44850Y-37607D01*
X44807Y-37621D01*
X44735Y-37621D01*
X45007Y-37321D02*
X45207Y-37321D01*
X45078Y-37621D01*
X44607Y-38621D02*
X44507Y-38478D01*
X44435Y-38621D02*
X44435Y-38321D01*
X44550Y-38321D01*
X44578Y-38335D01*
X44592Y-38350D01*
X44607Y-38378D01*
X44607Y-38421D01*
X44592Y-38450D01*
X44578Y-38464D01*
X44550Y-38478D01*
X44435Y-38478D01*
X44735Y-38621D02*
X44735Y-38321D01*
X44807Y-38321D01*
X44850Y-38335D01*
X44878Y-38364D01*
X44892Y-38392D01*
X44907Y-38450D01*
X44907Y-38492D01*
X44892Y-38550D01*
X44878Y-38578D01*
X44850Y-38607D01*
X44807Y-38621D01*
X44735Y-38621D01*
X45164Y-38321D02*
X45107Y-38321D01*
X45078Y-38335D01*
X45064Y-38350D01*
X45035Y-38392D01*
X45021Y-38450D01*
X45021Y-38564D01*
X45035Y-38592D01*
X45050Y-38607D01*
X45078Y-38621D01*
X45135Y-38621D01*
X45164Y-38607D01*
X45178Y-38592D01*
X45192Y-38564D01*
X45192Y-38492D01*
X45178Y-38464D01*
X45164Y-38450D01*
X45135Y-38435D01*
X45078Y-38435D01*
X45050Y-38450D01*
X45035Y-38464D01*
X45021Y-38492D01*
X44607Y-39621D02*
X44507Y-39478D01*
X44435Y-39621D02*
X44435Y-39321D01*
X44550Y-39321D01*
X44578Y-39335D01*
X44592Y-39350D01*
X44607Y-39378D01*
X44607Y-39421D01*
X44592Y-39450D01*
X44578Y-39464D01*
X44550Y-39478D01*
X44435Y-39478D01*
X44735Y-39621D02*
X44735Y-39321D01*
X44807Y-39321D01*
X44850Y-39335D01*
X44878Y-39364D01*
X44892Y-39392D01*
X44907Y-39450D01*
X44907Y-39492D01*
X44892Y-39550D01*
X44878Y-39578D01*
X44850Y-39607D01*
X44807Y-39621D01*
X44735Y-39621D01*
X45178Y-39321D02*
X45035Y-39321D01*
X45021Y-39464D01*
X45035Y-39450D01*
X45064Y-39435D01*
X45135Y-39435D01*
X45164Y-39450D01*
X45178Y-39464D01*
X45192Y-39492D01*
X45192Y-39564D01*
X45178Y-39592D01*
X45164Y-39607D01*
X45135Y-39621D01*
X45064Y-39621D01*
X45035Y-39607D01*
X45021Y-39592D01*
X44607Y-40621D02*
X44507Y-40478D01*
X44435Y-40621D02*
X44435Y-40321D01*
X44550Y-40321D01*
X44578Y-40335D01*
X44592Y-40350D01*
X44607Y-40378D01*
X44607Y-40421D01*
X44592Y-40450D01*
X44578Y-40464D01*
X44550Y-40478D01*
X44435Y-40478D01*
X44735Y-40621D02*
X44735Y-40321D01*
X44807Y-40321D01*
X44850Y-40335D01*
X44878Y-40364D01*
X44892Y-40392D01*
X44907Y-40450D01*
X44907Y-40492D01*
X44892Y-40550D01*
X44878Y-40578D01*
X44850Y-40607D01*
X44807Y-40621D01*
X44735Y-40621D01*
X45164Y-40421D02*
X45164Y-40621D01*
X45092Y-40307D02*
X45021Y-40521D01*
X45207Y-40521D01*
X44607Y-41621D02*
X44507Y-41478D01*
X44435Y-41621D02*
X44435Y-41321D01*
X44550Y-41321D01*
X44578Y-41335D01*
X44592Y-41350D01*
X44607Y-41378D01*
X44607Y-41421D01*
X44592Y-41450D01*
X44578Y-41464D01*
X44550Y-41478D01*
X44435Y-41478D01*
X44735Y-41621D02*
X44735Y-41321D01*
X44807Y-41321D01*
X44850Y-41335D01*
X44878Y-41364D01*
X44892Y-41392D01*
X44907Y-41450D01*
X44907Y-41492D01*
X44892Y-41550D01*
X44878Y-41578D01*
X44850Y-41607D01*
X44807Y-41621D01*
X44735Y-41621D01*
X45007Y-41321D02*
X45192Y-41321D01*
X45092Y-41435D01*
X45135Y-41435D01*
X45164Y-41450D01*
X45178Y-41464D01*
X45192Y-41492D01*
X45192Y-41564D01*
X45178Y-41592D01*
X45164Y-41607D01*
X45135Y-41621D01*
X45050Y-41621D01*
X45021Y-41607D01*
X45007Y-41592D01*
X44607Y-42621D02*
X44507Y-42478D01*
X44435Y-42621D02*
X44435Y-42321D01*
X44550Y-42321D01*
X44578Y-42335D01*
X44592Y-42350D01*
X44607Y-42378D01*
X44607Y-42421D01*
X44592Y-42450D01*
X44578Y-42464D01*
X44550Y-42478D01*
X44435Y-42478D01*
X44735Y-42621D02*
X44735Y-42321D01*
X44807Y-42321D01*
X44850Y-42335D01*
X44878Y-42364D01*
X44892Y-42392D01*
X44907Y-42450D01*
X44907Y-42492D01*
X44892Y-42550D01*
X44878Y-42578D01*
X44850Y-42607D01*
X44807Y-42621D01*
X44735Y-42621D01*
X45021Y-42350D02*
X45035Y-42335D01*
X45064Y-42321D01*
X45135Y-42321D01*
X45164Y-42335D01*
X45178Y-42350D01*
X45192Y-42378D01*
X45192Y-42407D01*
X45178Y-42450D01*
X45007Y-42621D01*
X45192Y-42621D01*
X44607Y-43621D02*
X44507Y-43478D01*
X44435Y-43621D02*
X44435Y-43321D01*
X44550Y-43321D01*
X44578Y-43335D01*
X44592Y-43350D01*
X44607Y-43378D01*
X44607Y-43421D01*
X44592Y-43450D01*
X44578Y-43464D01*
X44550Y-43478D01*
X44435Y-43478D01*
X44735Y-43621D02*
X44735Y-43321D01*
X44807Y-43321D01*
X44850Y-43335D01*
X44878Y-43364D01*
X44892Y-43392D01*
X44907Y-43450D01*
X44907Y-43492D01*
X44892Y-43550D01*
X44878Y-43578D01*
X44850Y-43607D01*
X44807Y-43621D01*
X44735Y-43621D01*
X45192Y-43621D02*
X45021Y-43621D01*
X45107Y-43621D02*
X45107Y-43321D01*
X45078Y-43364D01*
X45050Y-43392D01*
X45021Y-43407D01*
X44607Y-44621D02*
X44507Y-44478D01*
X44435Y-44621D02*
X44435Y-44321D01*
X44550Y-44321D01*
X44578Y-44335D01*
X44592Y-44350D01*
X44607Y-44378D01*
X44607Y-44421D01*
X44592Y-44450D01*
X44578Y-44464D01*
X44550Y-44478D01*
X44435Y-44478D01*
X44735Y-44621D02*
X44735Y-44321D01*
X44807Y-44321D01*
X44850Y-44335D01*
X44878Y-44364D01*
X44892Y-44392D01*
X44907Y-44450D01*
X44907Y-44492D01*
X44892Y-44550D01*
X44878Y-44578D01*
X44850Y-44607D01*
X44807Y-44621D01*
X44735Y-44621D01*
X45092Y-44321D02*
X45121Y-44321D01*
X45150Y-44335D01*
X45164Y-44350D01*
X45178Y-44378D01*
X45192Y-44435D01*
X45192Y-44507D01*
X45178Y-44564D01*
X45164Y-44592D01*
X45150Y-44607D01*
X45121Y-44621D01*
X45092Y-44621D01*
X45064Y-44607D01*
X45050Y-44592D01*
X45035Y-44564D01*
X45021Y-44507D01*
X45021Y-44435D01*
X45035Y-44378D01*
X45050Y-44350D01*
X45064Y-44335D01*
X45092Y-44321D01*
X44607Y-28621D02*
X44507Y-28478D01*
X44435Y-28621D02*
X44435Y-28321D01*
X44550Y-28321D01*
X44578Y-28335D01*
X44592Y-28350D01*
X44607Y-28378D01*
X44607Y-28421D01*
X44592Y-28450D01*
X44578Y-28464D01*
X44550Y-28478D01*
X44435Y-28478D01*
X44835Y-28464D02*
X44878Y-28478D01*
X44892Y-28492D01*
X44907Y-28521D01*
X44907Y-28564D01*
X44892Y-28592D01*
X44878Y-28607D01*
X44850Y-28621D01*
X44735Y-28621D01*
X44735Y-28321D01*
X44835Y-28321D01*
X44864Y-28335D01*
X44878Y-28350D01*
X44892Y-28378D01*
X44892Y-28407D01*
X44878Y-28435D01*
X44864Y-28450D01*
X44835Y-28464D01*
X44735Y-28464D01*
X45007Y-28321D02*
X45207Y-28321D01*
X45078Y-28621D01*
X44607Y-29621D02*
X44507Y-29478D01*
X44435Y-29621D02*
X44435Y-29321D01*
X44550Y-29321D01*
X44578Y-29335D01*
X44592Y-29350D01*
X44607Y-29378D01*
X44607Y-29421D01*
X44592Y-29450D01*
X44578Y-29464D01*
X44550Y-29478D01*
X44435Y-29478D01*
X44835Y-29464D02*
X44878Y-29478D01*
X44892Y-29492D01*
X44907Y-29521D01*
X44907Y-29564D01*
X44892Y-29592D01*
X44878Y-29607D01*
X44850Y-29621D01*
X44735Y-29621D01*
X44735Y-29321D01*
X44835Y-29321D01*
X44864Y-29335D01*
X44878Y-29350D01*
X44892Y-29378D01*
X44892Y-29407D01*
X44878Y-29435D01*
X44864Y-29450D01*
X44835Y-29464D01*
X44735Y-29464D01*
X45164Y-29321D02*
X45107Y-29321D01*
X45078Y-29335D01*
X45064Y-29350D01*
X45035Y-29392D01*
X45021Y-29450D01*
X45021Y-29564D01*
X45035Y-29592D01*
X45050Y-29607D01*
X45078Y-29621D01*
X45135Y-29621D01*
X45164Y-29607D01*
X45178Y-29592D01*
X45192Y-29564D01*
X45192Y-29492D01*
X45178Y-29464D01*
X45164Y-29450D01*
X45135Y-29435D01*
X45078Y-29435D01*
X45050Y-29450D01*
X45035Y-29464D01*
X45021Y-29492D01*
X44607Y-30621D02*
X44507Y-30478D01*
X44435Y-30621D02*
X44435Y-30321D01*
X44550Y-30321D01*
X44578Y-30335D01*
X44592Y-30350D01*
X44607Y-30378D01*
X44607Y-30421D01*
X44592Y-30450D01*
X44578Y-30464D01*
X44550Y-30478D01*
X44435Y-30478D01*
X44835Y-30464D02*
X44878Y-30478D01*
X44892Y-30492D01*
X44907Y-30521D01*
X44907Y-30564D01*
X44892Y-30592D01*
X44878Y-30607D01*
X44850Y-30621D01*
X44735Y-30621D01*
X44735Y-30321D01*
X44835Y-30321D01*
X44864Y-30335D01*
X44878Y-30350D01*
X44892Y-30378D01*
X44892Y-30407D01*
X44878Y-30435D01*
X44864Y-30450D01*
X44835Y-30464D01*
X44735Y-30464D01*
X45178Y-30321D02*
X45035Y-30321D01*
X45021Y-30464D01*
X45035Y-30450D01*
X45064Y-30435D01*
X45135Y-30435D01*
X45164Y-30450D01*
X45178Y-30464D01*
X45192Y-30492D01*
X45192Y-30564D01*
X45178Y-30592D01*
X45164Y-30607D01*
X45135Y-30621D01*
X45064Y-30621D01*
X45035Y-30607D01*
X45021Y-30592D01*
X44607Y-31621D02*
X44507Y-31478D01*
X44435Y-31621D02*
X44435Y-31321D01*
X44550Y-31321D01*
X44578Y-31335D01*
X44592Y-31350D01*
X44607Y-31378D01*
X44607Y-31421D01*
X44592Y-31450D01*
X44578Y-31464D01*
X44550Y-31478D01*
X44435Y-31478D01*
X44835Y-31464D02*
X44878Y-31478D01*
X44892Y-31492D01*
X44907Y-31521D01*
X44907Y-31564D01*
X44892Y-31592D01*
X44878Y-31607D01*
X44850Y-31621D01*
X44735Y-31621D01*
X44735Y-31321D01*
X44835Y-31321D01*
X44864Y-31335D01*
X44878Y-31350D01*
X44892Y-31378D01*
X44892Y-31407D01*
X44878Y-31435D01*
X44864Y-31450D01*
X44835Y-31464D01*
X44735Y-31464D01*
X45164Y-31421D02*
X45164Y-31621D01*
X45092Y-31307D02*
X45021Y-31521D01*
X45207Y-31521D01*
X44607Y-32621D02*
X44507Y-32478D01*
X44435Y-32621D02*
X44435Y-32321D01*
X44550Y-32321D01*
X44578Y-32335D01*
X44592Y-32350D01*
X44607Y-32378D01*
X44607Y-32421D01*
X44592Y-32450D01*
X44578Y-32464D01*
X44550Y-32478D01*
X44435Y-32478D01*
X44835Y-32464D02*
X44878Y-32478D01*
X44892Y-32492D01*
X44907Y-32521D01*
X44907Y-32564D01*
X44892Y-32592D01*
X44878Y-32607D01*
X44850Y-32621D01*
X44735Y-32621D01*
X44735Y-32321D01*
X44835Y-32321D01*
X44864Y-32335D01*
X44878Y-32350D01*
X44892Y-32378D01*
X44892Y-32407D01*
X44878Y-32435D01*
X44864Y-32450D01*
X44835Y-32464D01*
X44735Y-32464D01*
X45007Y-32321D02*
X45192Y-32321D01*
X45092Y-32435D01*
X45135Y-32435D01*
X45164Y-32450D01*
X45178Y-32464D01*
X45192Y-32492D01*
X45192Y-32564D01*
X45178Y-32592D01*
X45164Y-32607D01*
X45135Y-32621D01*
X45050Y-32621D01*
X45021Y-32607D01*
X45007Y-32592D01*
X44607Y-33621D02*
X44507Y-33478D01*
X44435Y-33621D02*
X44435Y-33321D01*
X44550Y-33321D01*
X44578Y-33335D01*
X44592Y-33350D01*
X44607Y-33378D01*
X44607Y-33421D01*
X44592Y-33450D01*
X44578Y-33464D01*
X44550Y-33478D01*
X44435Y-33478D01*
X44835Y-33464D02*
X44878Y-33478D01*
X44892Y-33492D01*
X44907Y-33521D01*
X44907Y-33564D01*
X44892Y-33592D01*
X44878Y-33607D01*
X44850Y-33621D01*
X44735Y-33621D01*
X44735Y-33321D01*
X44835Y-33321D01*
X44864Y-33335D01*
X44878Y-33350D01*
X44892Y-33378D01*
X44892Y-33407D01*
X44878Y-33435D01*
X44864Y-33450D01*
X44835Y-33464D01*
X44735Y-33464D01*
X45021Y-33350D02*
X45035Y-33335D01*
X45064Y-33321D01*
X45135Y-33321D01*
X45164Y-33335D01*
X45178Y-33350D01*
X45192Y-33378D01*
X45192Y-33407D01*
X45178Y-33450D01*
X45007Y-33621D01*
X45192Y-33621D01*
X44607Y-34621D02*
X44507Y-34478D01*
X44435Y-34621D02*
X44435Y-34321D01*
X44550Y-34321D01*
X44578Y-34335D01*
X44592Y-34350D01*
X44607Y-34378D01*
X44607Y-34421D01*
X44592Y-34450D01*
X44578Y-34464D01*
X44550Y-34478D01*
X44435Y-34478D01*
X44835Y-34464D02*
X44878Y-34478D01*
X44892Y-34492D01*
X44907Y-34521D01*
X44907Y-34564D01*
X44892Y-34592D01*
X44878Y-34607D01*
X44850Y-34621D01*
X44735Y-34621D01*
X44735Y-34321D01*
X44835Y-34321D01*
X44864Y-34335D01*
X44878Y-34350D01*
X44892Y-34378D01*
X44892Y-34407D01*
X44878Y-34435D01*
X44864Y-34450D01*
X44835Y-34464D01*
X44735Y-34464D01*
X45192Y-34621D02*
X45021Y-34621D01*
X45107Y-34621D02*
X45107Y-34321D01*
X45078Y-34364D01*
X45050Y-34392D01*
X45021Y-34407D01*
X44607Y-35621D02*
X44507Y-35478D01*
X44435Y-35621D02*
X44435Y-35321D01*
X44550Y-35321D01*
X44578Y-35335D01*
X44592Y-35350D01*
X44607Y-35378D01*
X44607Y-35421D01*
X44592Y-35450D01*
X44578Y-35464D01*
X44550Y-35478D01*
X44435Y-35478D01*
X44835Y-35464D02*
X44878Y-35478D01*
X44892Y-35492D01*
X44907Y-35521D01*
X44907Y-35564D01*
X44892Y-35592D01*
X44878Y-35607D01*
X44850Y-35621D01*
X44735Y-35621D01*
X44735Y-35321D01*
X44835Y-35321D01*
X44864Y-35335D01*
X44878Y-35350D01*
X44892Y-35378D01*
X44892Y-35407D01*
X44878Y-35435D01*
X44864Y-35450D01*
X44835Y-35464D01*
X44735Y-35464D01*
X45092Y-35321D02*
X45121Y-35321D01*
X45150Y-35335D01*
X45164Y-35350D01*
X45178Y-35378D01*
X45192Y-35435D01*
X45192Y-35507D01*
X45178Y-35564D01*
X45164Y-35592D01*
X45150Y-35607D01*
X45121Y-35621D01*
X45092Y-35621D01*
X45064Y-35607D01*
X45050Y-35592D01*
X45035Y-35564D01*
X45021Y-35507D01*
X45021Y-35435D01*
X45035Y-35378D01*
X45050Y-35350D01*
X45064Y-35335D01*
X45092Y-35321D01*
X27992Y-32621D02*
X27892Y-32478D01*
X27821Y-32621D02*
X27821Y-32321D01*
X27935Y-32321D01*
X27964Y-32335D01*
X27978Y-32350D01*
X27992Y-32378D01*
X27992Y-32421D01*
X27978Y-32450D01*
X27964Y-32464D01*
X27935Y-32478D01*
X27821Y-32478D01*
X28121Y-32464D02*
X28221Y-32464D01*
X28264Y-32621D02*
X28121Y-32621D01*
X28121Y-32321D01*
X28264Y-32321D01*
X28378Y-32607D02*
X28421Y-32621D01*
X28492Y-32621D01*
X28521Y-32607D01*
X28535Y-32592D01*
X28550Y-32564D01*
X28550Y-32535D01*
X28535Y-32507D01*
X28521Y-32492D01*
X28492Y-32478D01*
X28435Y-32464D01*
X28407Y-32450D01*
X28392Y-32435D01*
X28378Y-32407D01*
X28378Y-32378D01*
X28392Y-32350D01*
X28407Y-32335D01*
X28435Y-32321D01*
X28507Y-32321D01*
X28550Y-32335D01*
X28678Y-32464D02*
X28778Y-32464D01*
X28821Y-32621D02*
X28678Y-32621D01*
X28678Y-32321D01*
X28821Y-32321D01*
X28907Y-32321D02*
X29078Y-32321D01*
X28992Y-32621D02*
X28992Y-32321D01*
X27750Y-32230D02*
X29107Y-32230D01*
X27964Y-34321D02*
X27821Y-34321D01*
X27807Y-34464D01*
X27821Y-34450D01*
X27850Y-34435D01*
X27921Y-34435D01*
X27950Y-34450D01*
X27964Y-34464D01*
X27978Y-34492D01*
X27978Y-34564D01*
X27964Y-34592D01*
X27950Y-34607D01*
X27921Y-34621D01*
X27850Y-34621D01*
X27821Y-34607D01*
X27807Y-34592D01*
X28078Y-34421D02*
X28150Y-34621D01*
X28221Y-34421D01*
X27978Y-35335D02*
X27950Y-35321D01*
X27907Y-35321D01*
X27864Y-35335D01*
X27835Y-35364D01*
X27821Y-35392D01*
X27807Y-35450D01*
X27807Y-35492D01*
X27821Y-35550D01*
X27835Y-35578D01*
X27864Y-35607D01*
X27907Y-35621D01*
X27935Y-35621D01*
X27978Y-35607D01*
X27992Y-35592D01*
X27992Y-35492D01*
X27935Y-35492D01*
X28121Y-35421D02*
X28121Y-35621D01*
X28121Y-35450D02*
X28135Y-35435D01*
X28164Y-35421D01*
X28207Y-35421D01*
X28235Y-35435D01*
X28250Y-35464D01*
X28250Y-35621D01*
X28521Y-35621D02*
X28521Y-35321D01*
X28521Y-35607D02*
X28492Y-35621D01*
X28435Y-35621D01*
X28407Y-35607D01*
X28392Y-35592D01*
X28378Y-35564D01*
X28378Y-35478D01*
X28392Y-35450D01*
X28407Y-35435D01*
X28435Y-35421D01*
X28492Y-35421D01*
X28521Y-35435D01*
X27978Y-36335D02*
X27950Y-36321D01*
X27907Y-36321D01*
X27864Y-36335D01*
X27835Y-36364D01*
X27821Y-36392D01*
X27807Y-36450D01*
X27807Y-36492D01*
X27821Y-36550D01*
X27835Y-36578D01*
X27864Y-36607D01*
X27907Y-36621D01*
X27935Y-36621D01*
X27978Y-36607D01*
X27992Y-36592D01*
X27992Y-36492D01*
X27935Y-36492D01*
X28121Y-36421D02*
X28121Y-36621D01*
X28121Y-36450D02*
X28135Y-36435D01*
X28164Y-36421D01*
X28207Y-36421D01*
X28235Y-36435D01*
X28250Y-36464D01*
X28250Y-36621D01*
X28521Y-36621D02*
X28521Y-36321D01*
X28521Y-36607D02*
X28492Y-36621D01*
X28435Y-36621D01*
X28407Y-36607D01*
X28392Y-36592D01*
X28378Y-36564D01*
X28378Y-36478D01*
X28392Y-36450D01*
X28407Y-36435D01*
X28435Y-36421D01*
X28492Y-36421D01*
X28521Y-36435D01*
X27778Y-37321D02*
X27878Y-37621D01*
X27978Y-37321D01*
X28078Y-37621D02*
X28078Y-37421D01*
X28078Y-37321D02*
X28064Y-37335D01*
X28078Y-37350D01*
X28092Y-37335D01*
X28078Y-37321D01*
X28078Y-37350D01*
X28221Y-37421D02*
X28221Y-37621D01*
X28221Y-37450D02*
X28235Y-37435D01*
X28264Y-37421D01*
X28307Y-37421D01*
X28335Y-37435D01*
X28350Y-37464D01*
X28350Y-37621D01*
X27628Y-39535D02*
X27771Y-39535D01*
X27600Y-39621D02*
X27700Y-39321D01*
X27800Y-39621D01*
X27900Y-39621D02*
X27900Y-39321D01*
X28071Y-39621D01*
X28071Y-39321D01*
X28271Y-39321D02*
X28300Y-39321D01*
X28328Y-39335D01*
X28342Y-39350D01*
X28357Y-39378D01*
X28371Y-39435D01*
X28371Y-39507D01*
X28357Y-39564D01*
X28342Y-39592D01*
X28328Y-39607D01*
X28300Y-39621D01*
X28271Y-39621D01*
X28242Y-39607D01*
X28228Y-39592D01*
X28214Y-39564D01*
X28200Y-39507D01*
X28200Y-39435D01*
X28214Y-39378D01*
X28228Y-39350D01*
X28242Y-39335D01*
X28271Y-39321D01*
X27628Y-40535D02*
X27771Y-40535D01*
X27600Y-40621D02*
X27700Y-40321D01*
X27800Y-40621D01*
X27900Y-40621D02*
X27900Y-40321D01*
X28071Y-40621D01*
X28071Y-40321D01*
X28371Y-40621D02*
X28200Y-40621D01*
X28285Y-40621D02*
X28285Y-40321D01*
X28257Y-40364D01*
X28228Y-40392D01*
X28200Y-40407D01*
X27628Y-41535D02*
X27771Y-41535D01*
X27600Y-41621D02*
X27700Y-41321D01*
X27800Y-41621D01*
X27900Y-41621D02*
X27900Y-41321D01*
X28071Y-41621D01*
X28071Y-41321D01*
X28200Y-41350D02*
X28214Y-41335D01*
X28242Y-41321D01*
X28314Y-41321D01*
X28342Y-41335D01*
X28357Y-41350D01*
X28371Y-41378D01*
X28371Y-41407D01*
X28357Y-41450D01*
X28185Y-41621D01*
X28371Y-41621D01*
X27628Y-42535D02*
X27771Y-42535D01*
X27600Y-42621D02*
X27700Y-42321D01*
X27800Y-42621D01*
X27900Y-42621D02*
X27900Y-42321D01*
X28071Y-42621D01*
X28071Y-42321D01*
X28185Y-42321D02*
X28371Y-42321D01*
X28271Y-42435D01*
X28314Y-42435D01*
X28342Y-42450D01*
X28357Y-42464D01*
X28371Y-42492D01*
X28371Y-42564D01*
X28357Y-42592D01*
X28342Y-42607D01*
X28314Y-42621D01*
X28228Y-42621D01*
X28200Y-42607D01*
X28185Y-42592D01*
X27628Y-43535D02*
X27771Y-43535D01*
X27600Y-43621D02*
X27700Y-43321D01*
X27800Y-43621D01*
X27900Y-43621D02*
X27900Y-43321D01*
X28071Y-43621D01*
X28071Y-43321D01*
X28342Y-43421D02*
X28342Y-43621D01*
X28271Y-43307D02*
X28200Y-43521D01*
X28385Y-43521D01*
X27628Y-44535D02*
X27771Y-44535D01*
X27600Y-44621D02*
X27700Y-44321D01*
X27800Y-44621D01*
X27900Y-44621D02*
X27900Y-44321D01*
X28071Y-44621D01*
X28071Y-44321D01*
X28357Y-44321D02*
X28214Y-44321D01*
X28200Y-44464D01*
X28214Y-44450D01*
X28242Y-44435D01*
X28314Y-44435D01*
X28342Y-44450D01*
X28357Y-44464D01*
X28371Y-44492D01*
X28371Y-44564D01*
X28357Y-44592D01*
X28342Y-44607D01*
X28314Y-44621D01*
X28242Y-44621D01*
X28214Y-44607D01*
X28200Y-44592D01*
G54D10*
X53000Y-56500D02*
X54000Y-56500D01*
X53000Y-56500D02*
X53000Y-57500D01*
X53000Y-54500D02*
X53000Y-55500D01*
X53000Y-55500D02*
X54000Y-55500D01*
X50000Y-55500D02*
X51000Y-55500D01*
X51000Y-55500D02*
X51000Y-54500D01*
X50000Y-56500D02*
X51000Y-56500D01*
X51000Y-56500D02*
X51000Y-57500D01*
X50000Y-57500D02*
X54000Y-57500D01*
X54000Y-57500D02*
X54000Y-54500D01*
X54000Y-54500D02*
X50000Y-54500D01*
X50000Y-54500D02*
X50000Y-57500D01*
X58000Y-56500D02*
X59000Y-56500D01*
X58000Y-56500D02*
X58000Y-57500D01*
X58000Y-54500D02*
X58000Y-55500D01*
X58000Y-55500D02*
X59000Y-55500D01*
X55000Y-55500D02*
X56000Y-55500D01*
X56000Y-55500D02*
X56000Y-54500D01*
X55000Y-56500D02*
X56000Y-56500D01*
X56000Y-56500D02*
X56000Y-57500D01*
X55000Y-57500D02*
X59000Y-57500D01*
X59000Y-57500D02*
X59000Y-54500D01*
X59000Y-54500D02*
X55000Y-54500D01*
X55000Y-54500D02*
X55000Y-57500D01*
X28500Y-23500D02*
X28500Y-24500D01*
X28500Y-23500D02*
X27500Y-23500D01*
X30500Y-23500D02*
X29500Y-23500D01*
X29500Y-23500D02*
X29500Y-24500D01*
X29500Y-20500D02*
X29500Y-21500D01*
X29500Y-21500D02*
X30500Y-21500D01*
X28500Y-20500D02*
X28500Y-21500D01*
X28500Y-21500D02*
X27500Y-21500D01*
X27500Y-20500D02*
X27500Y-24500D01*
X27500Y-24500D02*
X30500Y-24500D01*
X30500Y-24500D02*
X30500Y-20500D01*
X30500Y-20500D02*
X27500Y-20500D01*
G54D14*
X25500Y-23500D02*
X26500Y-23500D01*
X26500Y-23500D02*
X26500Y-29500D01*
X26500Y-29500D02*
X25500Y-29500D01*
X25500Y-29500D02*
X25500Y-23500D01*
X25500Y-24500D02*
X26500Y-24500D01*
X50500Y-34000D02*
X49500Y-34000D01*
X49500Y-34000D02*
X49500Y-29000D01*
X49500Y-29000D02*
X50500Y-29000D01*
X50500Y-29000D02*
X50500Y-34000D01*
X50500Y-33000D02*
X49500Y-33000D01*
X33000Y-50500D02*
X32000Y-50500D01*
X32000Y-50500D02*
X32000Y-47500D01*
X32000Y-47500D02*
X33000Y-47500D01*
X33000Y-47500D02*
X33000Y-50500D01*
X32000Y-49500D02*
X33000Y-49500D01*
X33000Y-53500D02*
X32000Y-53500D01*
X32000Y-53500D02*
X32000Y-50500D01*
X32000Y-50500D02*
X33000Y-50500D01*
X33000Y-50500D02*
X33000Y-53500D01*
X32000Y-52500D02*
X33000Y-52500D01*
X47500Y-56500D02*
X47500Y-57500D01*
X47500Y-57500D02*
X44500Y-57500D01*
X44500Y-57500D02*
X44500Y-56500D01*
X44500Y-56500D02*
X47500Y-56500D01*
X46500Y-57500D02*
X46500Y-56500D01*
X35500Y-57500D02*
X35500Y-56500D01*
X35500Y-56500D02*
X38500Y-56500D01*
X38500Y-56500D02*
X38500Y-57500D01*
X38500Y-57500D02*
X35500Y-57500D01*
X36500Y-56500D02*
X36500Y-57500D01*
X52000Y-30000D02*
X53000Y-30000D01*
X53000Y-30000D02*
X53000Y-33000D01*
X53000Y-33000D02*
X52000Y-33000D01*
X52000Y-33000D02*
X52000Y-30000D01*
X53000Y-31000D02*
X52000Y-31000D01*
X54500Y-53500D02*
X54100Y-53500D01*
X54100Y-53500D02*
X54100Y-53900D01*
X54100Y-53900D02*
X50900Y-53900D01*
X50900Y-53900D02*
X50900Y-53100D01*
X50900Y-53100D02*
X54100Y-53100D01*
X54100Y-53100D02*
X54100Y-53500D01*
X54100Y-53700D02*
X53900Y-53900D01*
X50500Y-53500D02*
X50900Y-53500D01*
X59500Y-53500D02*
X59100Y-53500D01*
X59100Y-53500D02*
X59100Y-53900D01*
X59100Y-53900D02*
X55900Y-53900D01*
X55900Y-53900D02*
X55900Y-53100D01*
X55900Y-53100D02*
X59100Y-53100D01*
X59100Y-53100D02*
X59100Y-53500D01*
X59100Y-53700D02*
X58900Y-53900D01*
X55500Y-53500D02*
X55900Y-53500D01*
G54D15*
X42220Y-45000D02*
X42220Y-44000D01*
G54D11*
X41139Y-44115D02*
G75*
G03X41000Y-44500I460J-384D01*
G74*
G01*
X41000Y-44500D02*
G75*
G03X41151Y-44897I599J0D01*
G74*
G01*
X42199Y-44500D02*
G75*
G03X42055Y-44110I-599J0D01*
G74*
G01*
X42060Y-44884D02*
G75*
G03X42200Y-44500I-460J384D01*
G74*
G01*
X42087Y-44150D02*
G75*
G03X41600Y-43900I-487J-349D01*
G74*
G01*
X41600Y-43900D02*
G75*
G03X41120Y-44139I0J-600D01*
G74*
G01*
X41600Y-45099D02*
G75*
G03X42072Y-44868I0J599D01*
G74*
G01*
X41126Y-44868D02*
G75*
G03X41600Y-45100I473J368D01*
G74*
G01*
X41600Y-44250D02*
G75*
G03X41350Y-44500I0J-250D01*
G74*
G01*
X41600Y-44100D02*
G75*
G03X41200Y-44500I0J-400D01*
G74*
G01*
X41600Y-44750D02*
G75*
G03X41850Y-44500I0J250D01*
G74*
G01*
X41600Y-44900D02*
G75*
G03X42000Y-44500I0J400D01*
G74*
G01*
G54D15*
X42213Y-43986D02*
G75*
G03X41600Y-43700I-613J-513D01*
G74*
G01*
X41600Y-43701D02*
G75*
G03X40895Y-44123I0J-799D01*
G74*
G01*
X41601Y-45298D02*
G75*
G03X42210Y-45015I-1J798D01*
G74*
G01*
X40905Y-44897D02*
G75*
G03X41600Y-45300I694J397D01*
G74*
G01*
X40895Y-44120D02*
G75*
G03X40800Y-44500I704J-379D01*
G74*
G01*
X40800Y-44500D02*
G75*
G03X40918Y-44918I799J0D01*
G74*
G01*
X56220Y-34500D02*
X56220Y-33500D01*
G54D11*
X55139Y-33615D02*
G75*
G03X55000Y-34000I460J-384D01*
G74*
G01*
X55000Y-34000D02*
G75*
G03X55151Y-34397I599J0D01*
G74*
G01*
X56199Y-34000D02*
G75*
G03X56055Y-33610I-599J0D01*
G74*
G01*
X56060Y-34384D02*
G75*
G03X56200Y-34000I-460J384D01*
G74*
G01*
X56087Y-33650D02*
G75*
G03X55600Y-33400I-487J-349D01*
G74*
G01*
X55600Y-33400D02*
G75*
G03X55120Y-33639I0J-600D01*
G74*
G01*
X55600Y-34599D02*
G75*
G03X56072Y-34368I0J599D01*
G74*
G01*
X55126Y-34368D02*
G75*
G03X55600Y-34600I473J368D01*
G74*
G01*
X55600Y-33750D02*
G75*
G03X55350Y-34000I0J-250D01*
G74*
G01*
X55600Y-33600D02*
G75*
G03X55200Y-34000I0J-400D01*
G74*
G01*
X55600Y-34250D02*
G75*
G03X55850Y-34000I0J250D01*
G74*
G01*
X55600Y-34400D02*
G75*
G03X56000Y-34000I0J400D01*
G74*
G01*
G54D15*
X56213Y-33486D02*
G75*
G03X55600Y-33200I-613J-513D01*
G74*
G01*
X55600Y-33201D02*
G75*
G03X54895Y-33623I0J-799D01*
G74*
G01*
X55601Y-34798D02*
G75*
G03X56210Y-34515I-1J798D01*
G74*
G01*
X54905Y-34397D02*
G75*
G03X55600Y-34800I694J397D01*
G74*
G01*
X54895Y-33620D02*
G75*
G03X54800Y-34000I704J-379D01*
G74*
G01*
X54800Y-34000D02*
G75*
G03X54918Y-34418I799J0D01*
G74*
G01*
X42220Y-39000D02*
X42220Y-38000D01*
G54D11*
X41139Y-38115D02*
G75*
G03X41000Y-38500I460J-384D01*
G74*
G01*
X41000Y-38500D02*
G75*
G03X41151Y-38897I599J0D01*
G74*
G01*
X42199Y-38500D02*
G75*
G03X42055Y-38110I-599J0D01*
G74*
G01*
X42060Y-38884D02*
G75*
G03X42200Y-38500I-460J384D01*
G74*
G01*
X42087Y-38150D02*
G75*
G03X41600Y-37900I-487J-349D01*
G74*
G01*
X41600Y-37900D02*
G75*
G03X41120Y-38139I0J-600D01*
G74*
G01*
X41600Y-39099D02*
G75*
G03X42072Y-38868I0J599D01*
G74*
G01*
X41126Y-38868D02*
G75*
G03X41600Y-39100I473J368D01*
G74*
G01*
X41600Y-38250D02*
G75*
G03X41350Y-38500I0J-250D01*
G74*
G01*
X41600Y-38100D02*
G75*
G03X41200Y-38500I0J-400D01*
G74*
G01*
X41600Y-38750D02*
G75*
G03X41850Y-38500I0J250D01*
G74*
G01*
X41600Y-38900D02*
G75*
G03X42000Y-38500I0J400D01*
G74*
G01*
G54D15*
X42213Y-37986D02*
G75*
G03X41600Y-37700I-613J-513D01*
G74*
G01*
X41600Y-37701D02*
G75*
G03X40895Y-38123I0J-799D01*
G74*
G01*
X41601Y-39298D02*
G75*
G03X42210Y-39015I-1J798D01*
G74*
G01*
X40905Y-38897D02*
G75*
G03X41600Y-39300I694J397D01*
G74*
G01*
X40895Y-38120D02*
G75*
G03X40800Y-38500I704J-379D01*
G74*
G01*
X40800Y-38500D02*
G75*
G03X40918Y-38918I799J0D01*
G74*
G01*
X42220Y-41000D02*
X42220Y-40000D01*
G54D11*
X41139Y-40115D02*
G75*
G03X41000Y-40500I460J-384D01*
G74*
G01*
X41000Y-40500D02*
G75*
G03X41151Y-40897I599J0D01*
G74*
G01*
X42199Y-40500D02*
G75*
G03X42055Y-40110I-599J0D01*
G74*
G01*
X42060Y-40884D02*
G75*
G03X42200Y-40500I-460J384D01*
G74*
G01*
X42087Y-40150D02*
G75*
G03X41600Y-39900I-487J-349D01*
G74*
G01*
X41600Y-39900D02*
G75*
G03X41120Y-40139I0J-600D01*
G74*
G01*
X41600Y-41099D02*
G75*
G03X42072Y-40868I0J599D01*
G74*
G01*
X41126Y-40868D02*
G75*
G03X41600Y-41100I473J368D01*
G74*
G01*
X41600Y-40250D02*
G75*
G03X41350Y-40500I0J-250D01*
G74*
G01*
X41600Y-40100D02*
G75*
G03X41200Y-40500I0J-400D01*
G74*
G01*
X41600Y-40750D02*
G75*
G03X41850Y-40500I0J250D01*
G74*
G01*
X41600Y-40900D02*
G75*
G03X42000Y-40500I0J400D01*
G74*
G01*
G54D15*
X42213Y-39986D02*
G75*
G03X41600Y-39700I-613J-513D01*
G74*
G01*
X41600Y-39701D02*
G75*
G03X40895Y-40123I0J-799D01*
G74*
G01*
X41601Y-41298D02*
G75*
G03X42210Y-41015I-1J798D01*
G74*
G01*
X40905Y-40897D02*
G75*
G03X41600Y-41300I694J397D01*
G74*
G01*
X40895Y-40120D02*
G75*
G03X40800Y-40500I704J-379D01*
G74*
G01*
X40800Y-40500D02*
G75*
G03X40918Y-40918I799J0D01*
G74*
G01*
X42220Y-43000D02*
X42220Y-42000D01*
G54D11*
X41139Y-42115D02*
G75*
G03X41000Y-42500I460J-384D01*
G74*
G01*
X41000Y-42500D02*
G75*
G03X41151Y-42897I599J0D01*
G74*
G01*
X42199Y-42500D02*
G75*
G03X42055Y-42110I-599J0D01*
G74*
G01*
X42060Y-42884D02*
G75*
G03X42200Y-42500I-460J384D01*
G74*
G01*
X42087Y-42150D02*
G75*
G03X41600Y-41900I-487J-349D01*
G74*
G01*
X41600Y-41900D02*
G75*
G03X41120Y-42139I0J-600D01*
G74*
G01*
X41600Y-43099D02*
G75*
G03X42072Y-42868I0J599D01*
G74*
G01*
X41126Y-42868D02*
G75*
G03X41600Y-43100I473J368D01*
G74*
G01*
X41600Y-42250D02*
G75*
G03X41350Y-42500I0J-250D01*
G74*
G01*
X41600Y-42100D02*
G75*
G03X41200Y-42500I0J-400D01*
G74*
G01*
X41600Y-42750D02*
G75*
G03X41850Y-42500I0J250D01*
G74*
G01*
X41600Y-42900D02*
G75*
G03X42000Y-42500I0J400D01*
G74*
G01*
G54D15*
X42213Y-41986D02*
G75*
G03X41600Y-41700I-613J-513D01*
G74*
G01*
X41600Y-41701D02*
G75*
G03X40895Y-42123I0J-799D01*
G74*
G01*
X41601Y-43298D02*
G75*
G03X42210Y-43015I-1J798D01*
G74*
G01*
X40905Y-42897D02*
G75*
G03X41600Y-43300I694J397D01*
G74*
G01*
X40895Y-42120D02*
G75*
G03X40800Y-42500I704J-379D01*
G74*
G01*
X40800Y-42500D02*
G75*
G03X40918Y-42918I799J0D01*
G74*
G01*
G54D16*
X41000Y-35750D02*
X41000Y-33250D01*
X39000Y-35750D02*
X39000Y-33250D01*
X40000Y-32250D02*
G75*
G03X39000Y-33250I0J-1000D01*
G74*
G01*
X41000Y-33250D02*
G75*
G03X40000Y-32250I-1000J0D01*
G74*
G01*
X39000Y-35750D02*
G75*
G03X40000Y-36750I1000J0D01*
G74*
G01*
X40000Y-36750D02*
G75*
G03X41000Y-35750I0J1000D01*
G74*
G01*
G54D17*
X42000Y-48500D02*
X42000Y-48500D01*
X42000Y-48500D02*
X42000Y-49000D01*
X42000Y-49000D02*
X41000Y-49000D01*
X41000Y-49000D02*
X41000Y-48500D01*
X42500Y-48500D02*
X42500Y-57500D01*
X42500Y-57500D02*
X40500Y-57500D01*
X40500Y-57500D02*
X40500Y-48500D01*
X40500Y-48500D02*
X42500Y-48500D01*
G54D14*
X55100Y-32100D02*
X57900Y-32100D01*
X57900Y-32100D02*
X57900Y-32900D01*
X57900Y-32900D02*
X55100Y-32900D01*
X55100Y-32900D02*
X55100Y-32100D01*
X55100Y-32300D02*
X55300Y-32100D01*
X27600Y-24600D02*
X30400Y-24600D01*
X30400Y-24600D02*
X30400Y-25400D01*
X30400Y-25400D02*
X27600Y-25400D01*
X27600Y-25400D02*
X27600Y-24600D01*
X27600Y-24800D02*
X27800Y-24600D01*
X46600Y-48900D02*
X46600Y-46100D01*
X46600Y-46100D02*
X47400Y-46100D01*
X47400Y-46100D02*
X47400Y-48900D01*
X47400Y-48900D02*
X46600Y-48900D01*
X46800Y-48900D02*
X46600Y-48700D01*
X31100Y-37900D02*
X31100Y-35100D01*
X31100Y-35100D02*
X31900Y-35100D01*
X31900Y-35100D02*
X31900Y-37900D01*
X31900Y-37900D02*
X31100Y-37900D01*
X31300Y-37900D02*
X31100Y-37700D01*
X59900Y-52900D02*
X57100Y-52900D01*
X57100Y-52900D02*
X57100Y-52100D01*
X57100Y-52100D02*
X59900Y-52100D01*
X59900Y-52100D02*
X59900Y-52900D01*
X59900Y-52700D02*
X59700Y-52900D01*
X54900Y-52900D02*
X52100Y-52900D01*
X52100Y-52900D02*
X52100Y-52100D01*
X52100Y-52100D02*
X54900Y-52100D01*
X54900Y-52100D02*
X54900Y-52900D01*
X54900Y-52700D02*
X54700Y-52900D01*
X38400Y-47900D02*
X35600Y-47900D01*
X35600Y-47900D02*
X35600Y-47100D01*
X35600Y-47100D02*
X38400Y-47100D01*
X38400Y-47100D02*
X38400Y-47900D01*
X38400Y-47700D02*
X38200Y-47900D01*
G54D18*
X49501Y-49000D02*
G75*
G03X49501Y-49000I-1001J0D01*
G74*
G01*
X44501Y-47000D02*
G75*
G03X44501Y-47000I-1001J0D01*
G74*
G01*
X53501Y-25500D02*
G75*
G03X53501Y-25500I-1001J0D01*
G74*
G01*
X58501Y-28000D02*
G75*
G03X58501Y-28000I-1001J0D01*
G74*
G01*
X56001Y-31000D02*
G75*
G03X56001Y-31000I-1001J0D01*
G74*
G01*
X56001Y-28000D02*
G75*
G03X56001Y-28000I-1001J0D01*
G74*
G01*
X53501Y-28000D02*
G75*
G03X53501Y-28000I-1001J0D01*
G74*
G01*
G54D14*
X43230Y-34000D02*
X41250Y-34000D01*
X41250Y-34000D02*
X41250Y-33000D01*
X41250Y-33000D02*
X43250Y-33000D01*
X43250Y-33000D02*
X43250Y-34000D01*
X43250Y-33750D02*
X43000Y-34000D01*
X43230Y-36000D02*
X41250Y-36000D01*
X41250Y-36000D02*
X41250Y-35000D01*
X41250Y-35000D02*
X43250Y-35000D01*
X43250Y-35000D02*
X43250Y-36000D01*
X43250Y-35750D02*
X43000Y-36000D01*
G54D17*
X58772Y-19925D02*
X55228Y-19925D01*
X58772Y-18547D02*
X55228Y-18547D01*
X55228Y-18547D02*
X55228Y-24256D01*
X55228Y-24256D02*
X58772Y-24256D01*
X58772Y-24256D02*
X58772Y-18547D01*
G54D11*
X24500Y-47000D02*
X24500Y-55000D01*
X24500Y-55000D02*
X27500Y-55000D01*
X27500Y-55000D02*
X27500Y-47000D01*
X27500Y-47000D02*
X24500Y-47000D01*
G54D14*
X50500Y-49000D02*
X50500Y-49000D01*
X50500Y-49000D02*
X50500Y-48000D01*
X50500Y-48000D02*
X60500Y-48000D01*
X60500Y-49000D02*
X50500Y-49000D01*
X51500Y-49000D02*
X51500Y-48000D01*
X60500Y-48000D02*
X62250Y-48000D01*
X62250Y-48000D02*
X62500Y-48000D01*
X62500Y-48000D02*
X62500Y-49000D01*
X62500Y-49000D02*
X60500Y-49000D01*
X50500Y-50000D02*
X50500Y-50000D01*
X50500Y-50000D02*
X50500Y-49000D01*
X50500Y-49000D02*
X60500Y-49000D01*
X60500Y-50000D02*
X50500Y-50000D01*
X51500Y-50000D02*
X51500Y-49000D01*
X60500Y-49000D02*
X62250Y-49000D01*
X62250Y-49000D02*
X62500Y-49000D01*
X62500Y-49000D02*
X62500Y-50000D01*
X62500Y-50000D02*
X60500Y-50000D01*
G54D11*
X48500Y-36000D02*
X48500Y-28000D01*
X48500Y-28000D02*
X45500Y-28000D01*
X45500Y-28000D02*
X45500Y-36000D01*
X45500Y-36000D02*
X48500Y-36000D01*
X48500Y-45000D02*
X48500Y-37000D01*
X48500Y-37000D02*
X45500Y-37000D01*
X45500Y-37000D02*
X45500Y-45000D01*
X45500Y-45000D02*
X48500Y-45000D01*
X27500Y-32000D02*
X27500Y-38000D01*
X27500Y-38000D02*
X24500Y-38000D01*
X24500Y-38000D02*
X24500Y-32000D01*
X27500Y-32000D02*
X24500Y-32000D01*
X27500Y-39000D02*
X27500Y-45000D01*
X27500Y-45000D02*
X24500Y-45000D01*
X24500Y-45000D02*
X24500Y-39000D01*
X27500Y-39000D02*
X24500Y-39000D01*
G54D15*
X60750Y-24750D02*
X61000Y-24750D01*
X61000Y-24750D02*
X61000Y-28250D01*
X61000Y-28250D02*
X60750Y-28250D01*
X59250Y-24750D02*
X60750Y-24750D01*
X60750Y-24750D02*
X60750Y-28250D01*
X60750Y-28250D02*
X59250Y-28250D01*
X59250Y-28250D02*
X59250Y-24750D01*
G54D14*
X38500Y-49000D02*
X38500Y-52000D01*
X38500Y-52000D02*
X37500Y-52000D01*
X37500Y-52000D02*
X37500Y-49000D01*
X37500Y-49000D02*
X38500Y-49000D01*
X38500Y-51750D02*
X37500Y-51750D01*
X37500Y-51500D02*
X38500Y-51500D01*
X38000Y-49000D02*
X38000Y-48500D01*
X38000Y-52000D02*
X38000Y-52500D01*
X48500Y-51000D02*
X48500Y-54000D01*
X48500Y-54000D02*
X47500Y-54000D01*
X47500Y-54000D02*
X47500Y-51000D01*
X47500Y-51000D02*
X48500Y-51000D01*
X48500Y-53750D02*
X47500Y-53750D01*
X47500Y-53500D02*
X48500Y-53500D01*
X48000Y-51000D02*
X48000Y-50500D01*
X48000Y-54000D02*
X48000Y-54500D01*
X45500Y-49000D02*
X45500Y-52000D01*
X45500Y-52000D02*
X44500Y-52000D01*
X44500Y-52000D02*
X44500Y-49000D01*
X44500Y-49000D02*
X45500Y-49000D01*
X45500Y-51750D02*
X44500Y-51750D01*
X44500Y-51500D02*
X45500Y-51500D01*
X45000Y-49000D02*
X45000Y-48500D01*
X45000Y-52000D02*
X45000Y-52500D01*
X46500Y-54000D02*
X46500Y-51000D01*
X46500Y-51000D02*
X47500Y-51000D01*
X47500Y-51000D02*
X47500Y-54000D01*
X47500Y-54000D02*
X46500Y-54000D01*
X46500Y-51250D02*
X47500Y-51250D01*
X47500Y-51500D02*
X46500Y-51500D01*
X47000Y-54000D02*
X47000Y-54500D01*
X47000Y-51000D02*
X47000Y-50500D01*
X45500Y-52000D02*
X45500Y-49000D01*
X45500Y-49000D02*
X46500Y-49000D01*
X46500Y-49000D02*
X46500Y-52000D01*
X46500Y-52000D02*
X45500Y-52000D01*
X45500Y-49250D02*
X46500Y-49250D01*
X46500Y-49500D02*
X45500Y-49500D01*
X46000Y-52000D02*
X46000Y-52500D01*
X46000Y-49000D02*
X46000Y-48500D01*
X35500Y-51000D02*
X35500Y-54000D01*
X35500Y-54000D02*
X34500Y-54000D01*
X34500Y-54000D02*
X34500Y-51000D01*
X34500Y-51000D02*
X35500Y-51000D01*
X35500Y-53750D02*
X34500Y-53750D01*
X34500Y-53500D02*
X35500Y-53500D01*
X35000Y-51000D02*
X35000Y-50500D01*
X35000Y-54000D02*
X35000Y-54500D01*
X35500Y-54000D02*
X35500Y-51000D01*
X35500Y-51000D02*
X36500Y-51000D01*
X36500Y-51000D02*
X36500Y-54000D01*
X36500Y-54000D02*
X35500Y-54000D01*
X35500Y-51250D02*
X36500Y-51250D01*
X36500Y-51500D02*
X35500Y-51500D01*
X36000Y-54000D02*
X36000Y-54500D01*
X36000Y-51000D02*
X36000Y-50500D01*
X36500Y-52000D02*
X36500Y-49000D01*
X36500Y-49000D02*
X37500Y-49000D01*
X37500Y-49000D02*
X37500Y-52000D01*
X37500Y-52000D02*
X36500Y-52000D01*
X36500Y-49250D02*
X37500Y-49250D01*
X37500Y-49500D02*
X36500Y-49500D01*
X37000Y-52000D02*
X37000Y-52500D01*
X37000Y-49000D02*
X37000Y-48500D01*
X55000Y-25000D02*
X58000Y-25000D01*
X58000Y-25000D02*
X58000Y-26000D01*
X58000Y-26000D02*
X55000Y-26000D01*
X55000Y-26000D02*
X55000Y-25000D01*
X57750Y-25000D02*
X57750Y-26000D01*
X57500Y-26000D02*
X57500Y-25000D01*
X55000Y-25500D02*
X54500Y-25500D01*
X58000Y-25500D02*
X58500Y-25500D01*
G54D16*
X42250Y-35000D02*
X43250Y-35000D01*
X42250Y-34000D02*
X43250Y-34000D01*
G54D14*
X42250Y-35000D02*
X42250Y-34000D01*
X43250Y-34000D02*
X43250Y-35000D01*
G54D19*
G36*
X29557Y-57768D02*
X29577Y-57757D01*
X29624Y-57728D01*
X29689Y-57685D01*
X29767Y-57633D01*
X29845Y-57581D01*
X29909Y-57538D01*
X29954Y-57509D01*
X29973Y-57498D01*
X29983Y-57502D01*
X30020Y-57520D01*
X30074Y-57548D01*
X30105Y-57564D01*
X30154Y-57585D01*
X30179Y-57590D01*
X30183Y-57583D01*
X30201Y-57545D01*
X30229Y-57481D01*
X30266Y-57395D01*
X30309Y-57295D01*
X30354Y-57188D01*
X30400Y-57078D01*
X30444Y-56973D01*
X30482Y-56879D01*
X30513Y-56802D01*
X30533Y-56749D01*
X30541Y-56726D01*
X30539Y-56721D01*
X30514Y-56697D01*
X30471Y-56665D01*
X30378Y-56589D01*
X30286Y-56474D01*
X30230Y-56344D01*
X30211Y-56199D01*
X30227Y-56065D01*
X30280Y-55936D01*
X30370Y-55820D01*
X30479Y-55733D01*
X30607Y-55679D01*
X30750Y-55661D01*
X30887Y-55677D01*
X31019Y-55729D01*
X31135Y-55817D01*
X31184Y-55874D01*
X31252Y-55991D01*
X31290Y-56117D01*
X31294Y-56149D01*
X31289Y-56287D01*
X31248Y-56420D01*
X31175Y-56539D01*
X31073Y-56636D01*
X31061Y-56645D01*
X31014Y-56680D01*
X30982Y-56704D01*
X30958Y-56724D01*
X31134Y-57148D01*
X31162Y-57215D01*
X31210Y-57331D01*
X31253Y-57431D01*
X31286Y-57510D01*
X31310Y-57563D01*
X31320Y-57585D01*
X31321Y-57586D01*
X31337Y-57589D01*
X31369Y-57577D01*
X31428Y-57548D01*
X31467Y-57528D01*
X31512Y-57506D01*
X31533Y-57498D01*
X31550Y-57508D01*
X31593Y-57536D01*
X31656Y-57578D01*
X31732Y-57629D01*
X31804Y-57678D01*
X31870Y-57722D01*
X31919Y-57753D01*
X31942Y-57766D01*
X31946Y-57766D01*
X31967Y-57754D01*
X32005Y-57722D01*
X32063Y-57668D01*
X32144Y-57587D01*
X32157Y-57575D01*
X32224Y-57506D01*
X32278Y-57449D01*
X32315Y-57408D01*
X32328Y-57390D01*
X32328Y-57390D01*
X32316Y-57367D01*
X32286Y-57319D01*
X32242Y-57251D01*
X32188Y-57173D01*
X32048Y-56969D01*
X32125Y-56776D01*
X32148Y-56717D01*
X32178Y-56646D01*
X32201Y-56595D01*
X32212Y-56573D01*
X32233Y-56565D01*
X32286Y-56553D01*
X32362Y-56537D01*
X32453Y-56520D01*
X32540Y-56504D01*
X32618Y-56489D01*
X32675Y-56478D01*
X32700Y-56473D01*
X32706Y-56469D01*
X32712Y-56457D01*
X32715Y-56430D01*
X32717Y-56383D01*
X32718Y-56308D01*
X32718Y-56199D01*
X32718Y-56187D01*
X32717Y-56084D01*
X32715Y-56001D01*
X32712Y-55947D01*
X32709Y-55926D01*
X32708Y-55926D01*
X32684Y-55920D01*
X32629Y-55908D01*
X32550Y-55893D01*
X32457Y-55875D01*
X32451Y-55874D01*
X32358Y-55856D01*
X32280Y-55840D01*
X32225Y-55827D01*
X32202Y-55820D01*
X32197Y-55813D01*
X32179Y-55777D01*
X32152Y-55719D01*
X32121Y-55649D01*
X32091Y-55576D01*
X32064Y-55510D01*
X32047Y-55461D01*
X32041Y-55439D01*
X32042Y-55438D01*
X32056Y-55416D01*
X32088Y-55368D01*
X32133Y-55301D01*
X32187Y-55221D01*
X32191Y-55215D01*
X32245Y-55137D01*
X32288Y-55070D01*
X32317Y-55023D01*
X32328Y-55001D01*
X32328Y-55000D01*
X32310Y-54976D01*
X32270Y-54932D01*
X32213Y-54872D01*
X32144Y-54802D01*
X32122Y-54781D01*
X32045Y-54706D01*
X31992Y-54657D01*
X31959Y-54631D01*
X31943Y-54625D01*
X31943Y-54626D01*
X31919Y-54640D01*
X31869Y-54672D01*
X31802Y-54718D01*
X31722Y-54772D01*
X31716Y-54776D01*
X31638Y-54830D01*
X31572Y-54874D01*
X31526Y-54905D01*
X31505Y-54917D01*
X31502Y-54917D01*
X31470Y-54908D01*
X31414Y-54888D01*
X31345Y-54861D01*
X31272Y-54832D01*
X31206Y-54804D01*
X31156Y-54782D01*
X31133Y-54768D01*
X31132Y-54767D01*
X31124Y-54739D01*
X31110Y-54680D01*
X31094Y-54599D01*
X31075Y-54503D01*
X31072Y-54487D01*
X31055Y-54393D01*
X31040Y-54316D01*
X31029Y-54262D01*
X31023Y-54240D01*
X31010Y-54237D01*
X30964Y-54234D01*
X30894Y-54232D01*
X30809Y-54231D01*
X30720Y-54232D01*
X30633Y-54234D01*
X30559Y-54236D01*
X30506Y-54240D01*
X30484Y-54244D01*
X30483Y-54246D01*
X30475Y-54275D01*
X30462Y-54334D01*
X30445Y-54415D01*
X30427Y-54512D01*
X30423Y-54529D01*
X30406Y-54622D01*
X30390Y-54699D01*
X30379Y-54752D01*
X30373Y-54773D01*
X30364Y-54777D01*
X30326Y-54794D01*
X30263Y-54820D01*
X30185Y-54851D01*
X30005Y-54924D01*
X29784Y-54773D01*
X29764Y-54759D01*
X29684Y-54705D01*
X29619Y-54662D01*
X29574Y-54632D01*
X29555Y-54622D01*
X29553Y-54622D01*
X29531Y-54642D01*
X29488Y-54683D01*
X29428Y-54741D01*
X29358Y-54810D01*
X29307Y-54862D01*
X29246Y-54924D01*
X29207Y-54965D01*
X29186Y-54992D01*
X29179Y-55008D01*
X29181Y-55019D01*
X29195Y-55042D01*
X29227Y-55090D01*
X29273Y-55157D01*
X29327Y-55235D01*
X29371Y-55301D01*
X29419Y-55375D01*
X29450Y-55428D01*
X29461Y-55454D01*
X29458Y-55464D01*
X29443Y-55508D01*
X29416Y-55573D01*
X29383Y-55651D01*
X29306Y-55826D01*
X29192Y-55848D01*
X29122Y-55861D01*
X29025Y-55880D01*
X28932Y-55898D01*
X28787Y-55926D01*
X28782Y-56459D01*
X28804Y-56469D01*
X28826Y-56475D01*
X28880Y-56487D01*
X28956Y-56502D01*
X29047Y-56519D01*
X29124Y-56533D01*
X29202Y-56548D01*
X29258Y-56559D01*
X29282Y-56564D01*
X29289Y-56573D01*
X29308Y-56610D01*
X29336Y-56670D01*
X29367Y-56742D01*
X29398Y-56817D01*
X29425Y-56886D01*
X29444Y-56938D01*
X29452Y-56965D01*
X29441Y-56986D01*
X29412Y-57032D01*
X29369Y-57097D01*
X29316Y-57174D01*
X29263Y-57251D01*
X29218Y-57317D01*
X29187Y-57365D01*
X29174Y-57387D01*
X29181Y-57401D01*
X29212Y-57439D01*
X29270Y-57499D01*
X29357Y-57585D01*
X29371Y-57599D01*
X29440Y-57665D01*
X29498Y-57719D01*
X29539Y-57755D01*
X29557Y-57768D01*
X29557Y-57768D01*
G37*
G54D17*
X26900Y-21500D02*
G75*
G03X26900Y-21500I-900J0D01*
G74*
G01*
X61900Y-21500D02*
G75*
G03X61900Y-21500I-900J0D01*
G74*
G01*
X26900Y-56500D02*
G75*
G03X26900Y-56500I-900J0D01*
G74*
G01*
X61900Y-56500D02*
G75*
G03X61900Y-56500I-900J0D01*
G74*
G01*
X36000Y-25500D02*
X36000Y-26000D01*
X36000Y-26000D02*
X35000Y-26000D01*
X35000Y-26000D02*
X35000Y-25500D01*
X38000Y-25500D02*
X38000Y-46500D01*
X38000Y-46500D02*
X33000Y-46500D01*
X33000Y-46500D02*
X33000Y-25500D01*
X33000Y-25500D02*
X38000Y-25500D01*
G54D11*
X38500Y-22500D02*
X31500Y-22500D01*
X31500Y-22500D02*
X31500Y-19500D01*
X31500Y-19500D02*
X38500Y-19500D01*
X38500Y-19500D02*
X38500Y-22500D01*
G54D20*
X43000Y-44500D02*
X43000Y-44300D01*
X43000Y-41500D02*
X43000Y-41700D01*
X43000Y-41700D02*
X42600Y-41700D01*
X42600Y-41700D02*
X42600Y-44300D01*
X42600Y-44300D02*
X43400Y-44300D01*
X43400Y-44300D02*
X43400Y-41700D01*
X43400Y-41700D02*
X43000Y-41700D01*
X42800Y-44300D02*
X42600Y-44100D01*
X44000Y-40500D02*
X44000Y-40300D01*
X44000Y-37500D02*
X44000Y-37700D01*
X44000Y-37700D02*
X43600Y-37700D01*
X43600Y-37700D02*
X43600Y-40300D01*
X43600Y-40300D02*
X44400Y-40300D01*
X44400Y-40300D02*
X44400Y-37700D01*
X44400Y-37700D02*
X44000Y-37700D01*
X43800Y-40300D02*
X43600Y-40100D01*
X43000Y-40500D02*
X43000Y-40300D01*
X43000Y-37500D02*
X43000Y-37700D01*
X43000Y-37700D02*
X42600Y-37700D01*
X42600Y-37700D02*
X42600Y-40300D01*
X42600Y-40300D02*
X43400Y-40300D01*
X43400Y-40300D02*
X43400Y-37700D01*
X43400Y-37700D02*
X43000Y-37700D01*
X42800Y-40300D02*
X42600Y-40100D01*
X44000Y-44500D02*
X44000Y-44300D01*
X44000Y-41500D02*
X44000Y-41700D01*
X44000Y-41700D02*
X43600Y-41700D01*
X43600Y-41700D02*
X43600Y-44300D01*
X43600Y-44300D02*
X44400Y-44300D01*
X44400Y-44300D02*
X44400Y-41700D01*
X44400Y-41700D02*
X44000Y-41700D01*
X43800Y-44300D02*
X43600Y-44100D01*
X29000Y-26000D02*
X29000Y-26200D01*
X29000Y-29000D02*
X29000Y-28800D01*
X29000Y-28800D02*
X29400Y-28800D01*
X29400Y-28800D02*
X29400Y-26200D01*
X29400Y-26200D02*
X28600Y-26200D01*
X28600Y-26200D02*
X28600Y-28800D01*
X28600Y-28800D02*
X29000Y-28800D01*
X29200Y-26200D02*
X29400Y-26400D01*
X30000Y-29000D02*
X30000Y-28800D01*
X30000Y-26000D02*
X30000Y-26200D01*
X30000Y-26200D02*
X29600Y-26200D01*
X29600Y-26200D02*
X29600Y-28800D01*
X29600Y-28800D02*
X30400Y-28800D01*
X30400Y-28800D02*
X30400Y-26200D01*
X30400Y-26200D02*
X30000Y-26200D01*
X29800Y-28800D02*
X29600Y-28600D01*
X28000Y-26000D02*
X28000Y-26200D01*
X28000Y-29000D02*
X28000Y-28800D01*
X28000Y-28800D02*
X28400Y-28800D01*
X28400Y-28800D02*
X28400Y-26200D01*
X28400Y-26200D02*
X27600Y-26200D01*
X27600Y-26200D02*
X27600Y-28800D01*
X27600Y-28800D02*
X28000Y-28800D01*
X28200Y-26200D02*
X28400Y-26400D01*
X57000Y-34000D02*
X57200Y-34000D01*
X60000Y-34000D02*
X59800Y-34000D01*
X59800Y-34000D02*
X59800Y-33600D01*
X59800Y-33600D02*
X57200Y-33600D01*
X57200Y-33600D02*
X57200Y-34400D01*
X57200Y-34400D02*
X59800Y-34400D01*
X59800Y-34400D02*
X59800Y-34000D01*
X57200Y-33800D02*
X57400Y-33600D01*
G54D14*
X40000Y-22000D02*
X41000Y-22000D01*
X41000Y-22000D02*
X41000Y-25000D01*
X41000Y-25000D02*
X40000Y-25000D01*
X40000Y-25000D02*
X40000Y-22000D01*
X41000Y-23000D02*
X40000Y-23000D01*
X39000Y-22000D02*
X40000Y-22000D01*
X40000Y-22000D02*
X40000Y-25000D01*
X40000Y-25000D02*
X39000Y-25000D01*
X39000Y-25000D02*
X39000Y-22000D01*
X40000Y-23000D02*
X39000Y-23000D01*
G54D20*
X53500Y-24000D02*
X53500Y-23800D01*
X53500Y-21000D02*
X53500Y-21200D01*
X53500Y-21200D02*
X53100Y-21200D01*
X53100Y-21200D02*
X53100Y-23800D01*
X53100Y-23800D02*
X53900Y-23800D01*
X53900Y-23800D02*
X53900Y-21200D01*
X53900Y-21200D02*
X53500Y-21200D01*
X53300Y-23800D02*
X53100Y-23600D01*
X52500Y-24000D02*
X52500Y-23800D01*
X52500Y-21000D02*
X52500Y-21200D01*
X52500Y-21200D02*
X52100Y-21200D01*
X52100Y-21200D02*
X52100Y-23800D01*
X52100Y-23800D02*
X52900Y-23800D01*
X52900Y-23800D02*
X52900Y-21200D01*
X52900Y-21200D02*
X52500Y-21200D01*
X52300Y-23800D02*
X52100Y-23600D01*
G54D15*
X49780Y-21000D02*
X49780Y-22000D01*
G54D11*
X50860Y-21884D02*
G75*
G03X51000Y-21500I-460J384D01*
G74*
G01*
X50999Y-21500D02*
G75*
G03X50848Y-21102I-599J0D01*
G74*
G01*
X49800Y-21500D02*
G75*
G03X49944Y-21889I599J0D01*
G74*
G01*
X49939Y-21115D02*
G75*
G03X49800Y-21500I460J-384D01*
G74*
G01*
X49912Y-21849D02*
G75*
G03X50400Y-22100I487J349D01*
G74*
G01*
X50400Y-22100D02*
G75*
G03X50879Y-21860I0J600D01*
G74*
G01*
X50400Y-20900D02*
G75*
G03X49927Y-21131I0J-599D01*
G74*
G01*
X50873Y-21131D02*
G75*
G03X50400Y-20900I-473J-368D01*
G74*
G01*
X50400Y-21750D02*
G75*
G03X50650Y-21500I0J250D01*
G74*
G01*
X50400Y-21900D02*
G75*
G03X50800Y-21500I0J400D01*
G74*
G01*
X50400Y-21250D02*
G75*
G03X50150Y-21500I0J-250D01*
G74*
G01*
X50400Y-21100D02*
G75*
G03X50000Y-21500I0J-400D01*
G74*
G01*
G54D15*
X49786Y-22013D02*
G75*
G03X50400Y-22300I613J513D01*
G74*
G01*
X50400Y-22299D02*
G75*
G03X51104Y-21876I0J799D01*
G74*
G01*
X50398Y-20701D02*
G75*
G03X49789Y-20984I1J-798D01*
G74*
G01*
X51094Y-21102D02*
G75*
G03X50400Y-20700I-694J-397D01*
G74*
G01*
X51104Y-21879D02*
G75*
G03X51200Y-21500I-704J379D01*
G74*
G01*
X51199Y-21500D02*
G75*
G03X51081Y-21081I-799J0D01*
G74*
G01*
X49780Y-23000D02*
X49780Y-24000D01*
G54D11*
X50860Y-23884D02*
G75*
G03X51000Y-23500I-460J384D01*
G74*
G01*
X50999Y-23500D02*
G75*
G03X50848Y-23102I-599J0D01*
G74*
G01*
X49800Y-23500D02*
G75*
G03X49944Y-23889I599J0D01*
G74*
G01*
X49939Y-23115D02*
G75*
G03X49800Y-23500I460J-384D01*
G74*
G01*
X49912Y-23849D02*
G75*
G03X50400Y-24100I487J349D01*
G74*
G01*
X50400Y-24100D02*
G75*
G03X50879Y-23860I0J600D01*
G74*
G01*
X50400Y-22900D02*
G75*
G03X49927Y-23131I0J-599D01*
G74*
G01*
X50873Y-23131D02*
G75*
G03X50400Y-22900I-473J-368D01*
G74*
G01*
X50400Y-23750D02*
G75*
G03X50650Y-23500I0J250D01*
G74*
G01*
X50400Y-23900D02*
G75*
G03X50800Y-23500I0J400D01*
G74*
G01*
X50400Y-23250D02*
G75*
G03X50150Y-23500I0J-250D01*
G74*
G01*
X50400Y-23100D02*
G75*
G03X50000Y-23500I0J-400D01*
G74*
G01*
G54D15*
X49786Y-24013D02*
G75*
G03X50400Y-24300I613J513D01*
G74*
G01*
X50400Y-24299D02*
G75*
G03X51104Y-23876I0J799D01*
G74*
G01*
X50398Y-22701D02*
G75*
G03X49789Y-22984I1J-798D01*
G74*
G01*
X51094Y-23102D02*
G75*
G03X50400Y-22700I-694J-397D01*
G74*
G01*
X51104Y-23879D02*
G75*
G03X51200Y-23500I-704J379D01*
G74*
G01*
X51199Y-23500D02*
G75*
G03X51081Y-23081I-799J0D01*
G74*
G01*
G54D14*
X49730Y-27000D02*
X47750Y-27000D01*
X47750Y-27000D02*
X47750Y-26000D01*
X47750Y-26000D02*
X49750Y-26000D01*
X49750Y-26000D02*
X49750Y-27000D01*
X49750Y-26750D02*
X49500Y-27000D01*
X50500Y-48000D02*
X50500Y-48000D01*
X50500Y-48000D02*
X50500Y-47000D01*
X50500Y-47000D02*
X60500Y-47000D01*
X60500Y-48000D02*
X50500Y-48000D01*
X51500Y-48000D02*
X51500Y-47000D01*
X60500Y-47000D02*
X62250Y-47000D01*
X62250Y-47000D02*
X62500Y-47000D01*
X62500Y-47000D02*
X62500Y-48000D01*
X62500Y-48000D02*
X60500Y-48000D01*
G54D20*
X32000Y-24000D02*
X32200Y-24000D01*
X35000Y-24000D02*
X34800Y-24000D01*
X34800Y-24000D02*
X34800Y-23600D01*
X34800Y-23600D02*
X32200Y-23600D01*
X32200Y-23600D02*
X32200Y-24400D01*
X32200Y-24400D02*
X34800Y-24400D01*
X34800Y-24400D02*
X34800Y-24000D01*
X32200Y-23800D02*
X32400Y-23600D01*
G54D14*
X26600Y-30100D02*
X29400Y-30100D01*
X29400Y-30100D02*
X29400Y-30900D01*
X29400Y-30900D02*
X26600Y-30900D01*
X26600Y-30900D02*
X26600Y-30100D01*
X26600Y-30300D02*
X26800Y-30100D01*
X31600Y-22600D02*
X34400Y-22600D01*
X34400Y-22600D02*
X34400Y-23400D01*
X34400Y-23400D02*
X31600Y-23400D01*
X31600Y-23400D02*
X31600Y-22600D01*
X31600Y-22800D02*
X31800Y-22600D01*
G54D15*
X60750Y-29750D02*
X61000Y-29750D01*
X61000Y-29750D02*
X61000Y-33250D01*
X61000Y-33250D02*
X60750Y-33250D01*
X59250Y-29750D02*
X60750Y-29750D01*
X60750Y-29750D02*
X60750Y-33250D01*
X60750Y-33250D02*
X59250Y-33250D01*
X59250Y-33250D02*
X59250Y-29750D01*
G54D18*
X58501Y-31000D02*
G75*
G03X58501Y-31000I-1001J0D01*
G74*
G01*
G54D16*
X49500Y-24750D02*
X49500Y-22250D01*
X47500Y-24750D02*
X47500Y-22250D01*
X48500Y-21250D02*
G75*
G03X47500Y-22250I0J-1000D01*
G74*
G01*
X49500Y-22250D02*
G75*
G03X48500Y-21250I-1000J0D01*
G74*
G01*
X47500Y-24750D02*
G75*
G03X48500Y-25750I1000J0D01*
G74*
G01*
X48500Y-25750D02*
G75*
G03X49500Y-24750I0J1000D01*
G74*
G01*
G54D14*
X31100Y-47400D02*
X31100Y-44600D01*
X31100Y-44600D02*
X31900Y-44600D01*
X31900Y-44600D02*
X31900Y-47400D01*
X31900Y-47400D02*
X31100Y-47400D01*
X31300Y-47400D02*
X31100Y-47200D01*
X42600Y-26100D02*
X45400Y-26100D01*
X45400Y-26100D02*
X45400Y-26900D01*
X45400Y-26900D02*
X42600Y-26900D01*
X42600Y-26900D02*
X42600Y-26100D01*
X42600Y-26300D02*
X42800Y-26100D01*
X43400Y-31900D02*
X40600Y-31900D01*
X40600Y-31900D02*
X40600Y-31100D01*
X40600Y-31100D02*
X43400Y-31100D01*
X43400Y-31100D02*
X43400Y-31900D01*
X43400Y-31700D02*
X43200Y-31900D01*
G54D11*
X46719Y-22550D02*
G75*
G03X46719Y-22550I-269J0D01*
G74*
G01*
X46950Y-22050D02*
X42050Y-22050D01*
X42050Y-22050D02*
X42050Y-24950D01*
X42050Y-24950D02*
X46950Y-24950D01*
X46950Y-24950D02*
X46950Y-22050D01*
G54D14*
X45520Y-26000D02*
X47500Y-26000D01*
X47500Y-26000D02*
X47500Y-27000D01*
X47500Y-27000D02*
X45500Y-27000D01*
X45500Y-27000D02*
X45500Y-26000D01*
X45500Y-26250D02*
X45750Y-26000D01*
X41900Y-21100D02*
X41900Y-23900D01*
X41900Y-23900D02*
X41100Y-23900D01*
X41100Y-23900D02*
X41100Y-21100D01*
X41100Y-21100D02*
X41900Y-21100D01*
X41700Y-21100D02*
X41900Y-21300D01*
G54D11*
X49714Y-56507D02*
X49728Y-56464D01*
X49742Y-56450D01*
X49771Y-56435D01*
X49814Y-56435D01*
X49842Y-56450D01*
X49857Y-56464D01*
X49871Y-56492D01*
X49871Y-56607D01*
X49571Y-56607D01*
X49571Y-56507D01*
X49585Y-56478D01*
X49600Y-56464D01*
X49628Y-56450D01*
X49657Y-56450D01*
X49685Y-56464D01*
X49700Y-56478D01*
X49714Y-56507D01*
X49714Y-56607D01*
X49571Y-56307D02*
X49814Y-56307D01*
X49842Y-56292D01*
X49857Y-56278D01*
X49871Y-56250D01*
X49871Y-56192D01*
X49857Y-56164D01*
X49842Y-56150D01*
X49814Y-56135D01*
X49571Y-56135D01*
X49571Y-56035D02*
X49571Y-55864D01*
X49871Y-55949D02*
X49571Y-55949D01*
X49900Y-55835D02*
X49900Y-55607D01*
X49571Y-55478D02*
X49571Y-55450D01*
X49585Y-55421D01*
X49600Y-55407D01*
X49628Y-55392D01*
X49685Y-55378D01*
X49757Y-55378D01*
X49814Y-55392D01*
X49842Y-55407D01*
X49857Y-55421D01*
X49871Y-55450D01*
X49871Y-55478D01*
X49857Y-55507D01*
X49842Y-55521D01*
X49814Y-55535D01*
X49757Y-55550D01*
X49685Y-55550D01*
X49628Y-55535D01*
X49600Y-55521D01*
X49585Y-55507D01*
X49571Y-55478D01*
X54714Y-56507D02*
X54728Y-56464D01*
X54742Y-56450D01*
X54771Y-56435D01*
X54814Y-56435D01*
X54842Y-56450D01*
X54857Y-56464D01*
X54871Y-56492D01*
X54871Y-56607D01*
X54571Y-56607D01*
X54571Y-56507D01*
X54585Y-56478D01*
X54600Y-56464D01*
X54628Y-56450D01*
X54657Y-56450D01*
X54685Y-56464D01*
X54700Y-56478D01*
X54714Y-56507D01*
X54714Y-56607D01*
X54571Y-56307D02*
X54814Y-56307D01*
X54842Y-56292D01*
X54857Y-56278D01*
X54871Y-56250D01*
X54871Y-56192D01*
X54857Y-56164D01*
X54842Y-56150D01*
X54814Y-56135D01*
X54571Y-56135D01*
X54571Y-56035D02*
X54571Y-55864D01*
X54871Y-55949D02*
X54571Y-55949D01*
X54900Y-55835D02*
X54900Y-55607D01*
X54871Y-55378D02*
X54871Y-55550D01*
X54871Y-55464D02*
X54571Y-55464D01*
X54614Y-55492D01*
X54642Y-55521D01*
X54657Y-55550D01*
X27371Y-23514D02*
X27228Y-23614D01*
X27371Y-23685D02*
X27071Y-23685D01*
X27071Y-23571D01*
X27085Y-23542D01*
X27100Y-23528D01*
X27128Y-23514D01*
X27171Y-23514D01*
X27200Y-23528D01*
X27214Y-23542D01*
X27228Y-23571D01*
X27228Y-23685D01*
X27357Y-23271D02*
X27371Y-23300D01*
X27371Y-23357D01*
X27357Y-23385D01*
X27328Y-23400D01*
X27214Y-23400D01*
X27185Y-23385D01*
X27171Y-23357D01*
X27171Y-23300D01*
X27185Y-23271D01*
X27214Y-23257D01*
X27242Y-23257D01*
X27271Y-23400D01*
X27357Y-23142D02*
X27371Y-23114D01*
X27371Y-23057D01*
X27357Y-23028D01*
X27328Y-23014D01*
X27314Y-23014D01*
X27285Y-23028D01*
X27271Y-23057D01*
X27271Y-23100D01*
X27257Y-23128D01*
X27228Y-23142D01*
X27214Y-23142D01*
X27185Y-23128D01*
X27171Y-23100D01*
X27171Y-23057D01*
X27185Y-23028D01*
X27357Y-22771D02*
X27371Y-22800D01*
X27371Y-22857D01*
X27357Y-22885D01*
X27328Y-22900D01*
X27214Y-22900D01*
X27185Y-22885D01*
X27171Y-22857D01*
X27171Y-22800D01*
X27185Y-22771D01*
X27214Y-22757D01*
X27242Y-22757D01*
X27271Y-22900D01*
X27171Y-22671D02*
X27171Y-22557D01*
X27071Y-22628D02*
X27328Y-22628D01*
X27357Y-22614D01*
X27371Y-22585D01*
X27371Y-22557D01*
X27371Y-22300D02*
X27371Y-22471D01*
X27371Y-22385D02*
X27071Y-22385D01*
X27114Y-22414D01*
X27142Y-22442D01*
X27157Y-22471D01*
X25414Y-30121D02*
X25414Y-29821D01*
X25728Y-30092D02*
X25714Y-30107D01*
X25671Y-30121D01*
X25642Y-30121D01*
X25600Y-30107D01*
X25571Y-30078D01*
X25557Y-30050D01*
X25542Y-29992D01*
X25542Y-29950D01*
X25557Y-29892D01*
X25571Y-29864D01*
X25600Y-29835D01*
X25642Y-29821D01*
X25671Y-29821D01*
X25714Y-29835D01*
X25728Y-29850D01*
X25842Y-30107D02*
X25885Y-30121D01*
X25957Y-30121D01*
X25985Y-30107D01*
X26000Y-30092D01*
X26014Y-30064D01*
X26014Y-30035D01*
X26000Y-30007D01*
X25985Y-29992D01*
X25957Y-29978D01*
X25900Y-29964D01*
X25871Y-29950D01*
X25857Y-29935D01*
X25842Y-29907D01*
X25842Y-29878D01*
X25857Y-29850D01*
X25871Y-29835D01*
X25900Y-29821D01*
X25971Y-29821D01*
X26014Y-29835D01*
X26142Y-30121D02*
X26142Y-29821D01*
X26257Y-29821D01*
X26285Y-29835D01*
X26300Y-29850D01*
X26314Y-29878D01*
X26314Y-29921D01*
X26300Y-29950D01*
X26285Y-29964D01*
X26257Y-29978D01*
X26142Y-29978D01*
X26600Y-30121D02*
X26428Y-30121D01*
X26514Y-30121D02*
X26514Y-29821D01*
X26485Y-29864D01*
X26457Y-29892D01*
X26428Y-29907D01*
X33621Y-49564D02*
X33321Y-49564D01*
X33321Y-49450D01*
X33335Y-49421D01*
X33350Y-49407D01*
X33378Y-49392D01*
X33421Y-49392D01*
X33450Y-49407D01*
X33464Y-49421D01*
X33478Y-49450D01*
X33478Y-49564D01*
X33321Y-49292D02*
X33621Y-49221D01*
X33407Y-49164D01*
X33621Y-49107D01*
X33321Y-49035D01*
X33621Y-48921D02*
X33321Y-48921D01*
X33535Y-48821D01*
X33321Y-48721D01*
X33621Y-48721D01*
X33621Y-48421D02*
X33621Y-48592D01*
X33621Y-48507D02*
X33321Y-48507D01*
X33364Y-48535D01*
X33392Y-48564D01*
X33407Y-48592D01*
X33621Y-52564D02*
X33321Y-52564D01*
X33321Y-52450D01*
X33335Y-52421D01*
X33350Y-52407D01*
X33378Y-52392D01*
X33421Y-52392D01*
X33450Y-52407D01*
X33464Y-52421D01*
X33478Y-52450D01*
X33478Y-52564D01*
X33321Y-52292D02*
X33621Y-52221D01*
X33407Y-52164D01*
X33621Y-52107D01*
X33321Y-52035D01*
X33621Y-51921D02*
X33321Y-51921D01*
X33535Y-51821D01*
X33321Y-51721D01*
X33621Y-51721D01*
X33350Y-51592D02*
X33335Y-51578D01*
X33321Y-51550D01*
X33321Y-51478D01*
X33335Y-51450D01*
X33350Y-51435D01*
X33378Y-51421D01*
X33407Y-51421D01*
X33450Y-51435D01*
X33621Y-51607D01*
X33621Y-51421D01*
X48028Y-57121D02*
X48028Y-56821D01*
X48142Y-56821D01*
X48171Y-56835D01*
X48185Y-56850D01*
X48200Y-56878D01*
X48200Y-56921D01*
X48185Y-56950D01*
X48171Y-56964D01*
X48142Y-56978D01*
X48028Y-56978D01*
X48314Y-56850D02*
X48328Y-56835D01*
X48357Y-56821D01*
X48428Y-56821D01*
X48457Y-56835D01*
X48471Y-56850D01*
X48485Y-56878D01*
X48485Y-56907D01*
X48471Y-56950D01*
X48300Y-57121D01*
X48485Y-57121D01*
X38778Y-57121D02*
X38778Y-56821D01*
X38892Y-56821D01*
X38921Y-56835D01*
X38935Y-56850D01*
X38950Y-56878D01*
X38950Y-56921D01*
X38935Y-56950D01*
X38921Y-56964D01*
X38892Y-56978D01*
X38778Y-56978D01*
X39235Y-57121D02*
X39064Y-57121D01*
X39150Y-57121D02*
X39150Y-56821D01*
X39121Y-56864D01*
X39092Y-56892D01*
X39064Y-56907D01*
X51871Y-32564D02*
X51571Y-32564D01*
X51571Y-32450D01*
X51585Y-32421D01*
X51600Y-32407D01*
X51628Y-32392D01*
X51671Y-32392D01*
X51700Y-32407D01*
X51714Y-32421D01*
X51728Y-32450D01*
X51728Y-32564D01*
X51571Y-32207D02*
X51571Y-32150D01*
X51585Y-32121D01*
X51614Y-32092D01*
X51671Y-32078D01*
X51771Y-32078D01*
X51828Y-32092D01*
X51857Y-32121D01*
X51871Y-32150D01*
X51871Y-32207D01*
X51857Y-32235D01*
X51828Y-32264D01*
X51771Y-32278D01*
X51671Y-32278D01*
X51614Y-32264D01*
X51585Y-32235D01*
X51571Y-32207D01*
X51571Y-31978D02*
X51871Y-31907D01*
X51657Y-31849D01*
X51871Y-31792D01*
X51571Y-31721D01*
X51900Y-31678D02*
X51900Y-31450D01*
X51857Y-31392D02*
X51871Y-31350D01*
X51871Y-31278D01*
X51857Y-31250D01*
X51842Y-31235D01*
X51814Y-31221D01*
X51785Y-31221D01*
X51757Y-31235D01*
X51742Y-31250D01*
X51728Y-31278D01*
X51714Y-31335D01*
X51700Y-31364D01*
X51685Y-31378D01*
X51657Y-31392D01*
X51628Y-31392D01*
X51600Y-31378D01*
X51585Y-31364D01*
X51571Y-31335D01*
X51571Y-31264D01*
X51585Y-31221D01*
X51714Y-31092D02*
X51714Y-30992D01*
X51871Y-30950D02*
X51871Y-31092D01*
X51571Y-31092D01*
X51571Y-30950D01*
X51871Y-30678D02*
X51871Y-30821D01*
X51571Y-30821D01*
X51871Y-30421D02*
X51871Y-30592D01*
X51871Y-30507D02*
X51571Y-30507D01*
X51614Y-30535D01*
X51642Y-30564D01*
X51657Y-30592D01*
X51200Y-54371D02*
X51100Y-54228D01*
X51028Y-54371D02*
X51028Y-54071D01*
X51142Y-54071D01*
X51171Y-54085D01*
X51185Y-54100D01*
X51200Y-54128D01*
X51200Y-54171D01*
X51185Y-54200D01*
X51171Y-54214D01*
X51142Y-54228D01*
X51028Y-54228D01*
X51342Y-54371D02*
X51400Y-54371D01*
X51428Y-54357D01*
X51442Y-54342D01*
X51471Y-54300D01*
X51485Y-54242D01*
X51485Y-54128D01*
X51471Y-54100D01*
X51457Y-54085D01*
X51428Y-54071D01*
X51371Y-54071D01*
X51342Y-54085D01*
X51328Y-54100D01*
X51314Y-54128D01*
X51314Y-54200D01*
X51328Y-54228D01*
X51342Y-54242D01*
X51371Y-54257D01*
X51428Y-54257D01*
X51457Y-54242D01*
X51471Y-54228D01*
X51485Y-54200D01*
X53571Y-54371D02*
X53400Y-54371D01*
X53485Y-54371D02*
X53485Y-54071D01*
X53457Y-54114D01*
X53428Y-54142D01*
X53400Y-54157D01*
X53757Y-54071D02*
X53785Y-54071D01*
X53814Y-54085D01*
X53828Y-54100D01*
X53842Y-54128D01*
X53857Y-54185D01*
X53857Y-54257D01*
X53842Y-54314D01*
X53828Y-54342D01*
X53814Y-54357D01*
X53785Y-54371D01*
X53757Y-54371D01*
X53728Y-54357D01*
X53714Y-54342D01*
X53700Y-54314D01*
X53685Y-54257D01*
X53685Y-54185D01*
X53700Y-54128D01*
X53714Y-54100D01*
X53728Y-54085D01*
X53757Y-54071D01*
X53985Y-54371D02*
X53985Y-54071D01*
X54014Y-54257D02*
X54100Y-54371D01*
X54100Y-54171D02*
X53985Y-54285D01*
X56057Y-54371D02*
X55957Y-54228D01*
X55885Y-54371D02*
X55885Y-54071D01*
X56000Y-54071D01*
X56028Y-54085D01*
X56042Y-54100D01*
X56057Y-54128D01*
X56057Y-54171D01*
X56042Y-54200D01*
X56028Y-54214D01*
X56000Y-54228D01*
X55885Y-54228D01*
X56342Y-54371D02*
X56171Y-54371D01*
X56257Y-54371D02*
X56257Y-54071D01*
X56228Y-54114D01*
X56200Y-54142D01*
X56171Y-54157D01*
X56528Y-54071D02*
X56557Y-54071D01*
X56585Y-54085D01*
X56600Y-54100D01*
X56614Y-54128D01*
X56628Y-54185D01*
X56628Y-54257D01*
X56614Y-54314D01*
X56600Y-54342D01*
X56585Y-54357D01*
X56557Y-54371D01*
X56528Y-54371D01*
X56500Y-54357D01*
X56485Y-54342D01*
X56471Y-54314D01*
X56457Y-54257D01*
X56457Y-54185D01*
X56471Y-54128D01*
X56485Y-54100D01*
X56500Y-54085D01*
X56528Y-54071D01*
X58321Y-54371D02*
X58150Y-54371D01*
X58235Y-54371D02*
X58235Y-54071D01*
X58207Y-54114D01*
X58178Y-54142D01*
X58150Y-54157D01*
X58507Y-54071D02*
X58535Y-54071D01*
X58564Y-54085D01*
X58578Y-54100D01*
X58592Y-54128D01*
X58607Y-54185D01*
X58607Y-54257D01*
X58592Y-54314D01*
X58578Y-54342D01*
X58564Y-54357D01*
X58535Y-54371D01*
X58507Y-54371D01*
X58478Y-54357D01*
X58464Y-54342D01*
X58450Y-54314D01*
X58435Y-54257D01*
X58435Y-54185D01*
X58450Y-54128D01*
X58464Y-54100D01*
X58478Y-54085D01*
X58507Y-54071D01*
X58735Y-54371D02*
X58735Y-54071D01*
X58764Y-54257D02*
X58850Y-54371D01*
X58850Y-54171D02*
X58735Y-54285D01*
X40371Y-44835D02*
X40371Y-44978D01*
X40071Y-44978D01*
X40214Y-44735D02*
X40214Y-44635D01*
X40371Y-44592D02*
X40371Y-44735D01*
X40071Y-44735D01*
X40071Y-44592D01*
X40371Y-44464D02*
X40071Y-44464D01*
X40071Y-44392D01*
X40085Y-44350D01*
X40114Y-44321D01*
X40142Y-44307D01*
X40200Y-44292D01*
X40242Y-44292D01*
X40300Y-44307D01*
X40328Y-44321D01*
X40357Y-44350D01*
X40371Y-44392D01*
X40371Y-44464D01*
X40071Y-44107D02*
X40071Y-44078D01*
X40085Y-44050D01*
X40100Y-44035D01*
X40128Y-44021D01*
X40185Y-44007D01*
X40257Y-44007D01*
X40314Y-44021D01*
X40342Y-44035D01*
X40357Y-44050D01*
X40371Y-44078D01*
X40371Y-44107D01*
X40357Y-44135D01*
X40342Y-44150D01*
X40314Y-44164D01*
X40257Y-44178D01*
X40185Y-44178D01*
X40128Y-44164D01*
X40100Y-44150D01*
X40085Y-44135D01*
X40071Y-44107D01*
X52135Y-34121D02*
X52135Y-33821D01*
X52250Y-33821D01*
X52278Y-33835D01*
X52292Y-33850D01*
X52307Y-33878D01*
X52307Y-33921D01*
X52292Y-33950D01*
X52278Y-33964D01*
X52250Y-33978D01*
X52135Y-33978D01*
X52478Y-34121D02*
X52450Y-34107D01*
X52435Y-34092D01*
X52421Y-34064D01*
X52421Y-33978D01*
X52435Y-33950D01*
X52450Y-33935D01*
X52478Y-33921D01*
X52521Y-33921D01*
X52550Y-33935D01*
X52564Y-33950D01*
X52578Y-33978D01*
X52578Y-34064D01*
X52564Y-34092D01*
X52550Y-34107D01*
X52521Y-34121D01*
X52478Y-34121D01*
X52678Y-33921D02*
X52735Y-34121D01*
X52792Y-33978D01*
X52850Y-34121D01*
X52907Y-33921D01*
X53135Y-34107D02*
X53107Y-34121D01*
X53050Y-34121D01*
X53021Y-34107D01*
X53007Y-34078D01*
X53007Y-33964D01*
X53021Y-33935D01*
X53050Y-33921D01*
X53107Y-33921D01*
X53135Y-33935D01*
X53150Y-33964D01*
X53150Y-33992D01*
X53007Y-34021D01*
X53278Y-34121D02*
X53278Y-33921D01*
X53278Y-33978D02*
X53292Y-33950D01*
X53307Y-33935D01*
X53335Y-33921D01*
X53364Y-33921D01*
X53392Y-34150D02*
X53621Y-34150D01*
X53835Y-34121D02*
X53692Y-34121D01*
X53692Y-33821D01*
X53935Y-33964D02*
X54035Y-33964D01*
X54078Y-34121D02*
X53935Y-34121D01*
X53935Y-33821D01*
X54078Y-33821D01*
X54207Y-34121D02*
X54207Y-33821D01*
X54278Y-33821D01*
X54321Y-33835D01*
X54350Y-33864D01*
X54364Y-33892D01*
X54378Y-33950D01*
X54378Y-33992D01*
X54364Y-34050D01*
X54350Y-34078D01*
X54321Y-34107D01*
X54278Y-34121D01*
X54207Y-34121D01*
X40371Y-38835D02*
X40371Y-38978D01*
X40071Y-38978D01*
X40214Y-38735D02*
X40214Y-38635D01*
X40371Y-38592D02*
X40371Y-38735D01*
X40071Y-38735D01*
X40071Y-38592D01*
X40371Y-38464D02*
X40071Y-38464D01*
X40071Y-38392D01*
X40085Y-38350D01*
X40114Y-38321D01*
X40142Y-38307D01*
X40200Y-38292D01*
X40242Y-38292D01*
X40300Y-38307D01*
X40328Y-38321D01*
X40357Y-38350D01*
X40371Y-38392D01*
X40371Y-38464D01*
X40071Y-38192D02*
X40071Y-38007D01*
X40185Y-38107D01*
X40185Y-38064D01*
X40200Y-38035D01*
X40214Y-38021D01*
X40242Y-38007D01*
X40314Y-38007D01*
X40342Y-38021D01*
X40357Y-38035D01*
X40371Y-38064D01*
X40371Y-38150D01*
X40357Y-38178D01*
X40342Y-38192D01*
X40371Y-40835D02*
X40371Y-40978D01*
X40071Y-40978D01*
X40214Y-40735D02*
X40214Y-40635D01*
X40371Y-40592D02*
X40371Y-40735D01*
X40071Y-40735D01*
X40071Y-40592D01*
X40371Y-40464D02*
X40071Y-40464D01*
X40071Y-40392D01*
X40085Y-40350D01*
X40114Y-40321D01*
X40142Y-40307D01*
X40200Y-40292D01*
X40242Y-40292D01*
X40300Y-40307D01*
X40328Y-40321D01*
X40357Y-40350D01*
X40371Y-40392D01*
X40371Y-40464D01*
X40100Y-40178D02*
X40085Y-40164D01*
X40071Y-40135D01*
X40071Y-40064D01*
X40085Y-40035D01*
X40100Y-40021D01*
X40128Y-40007D01*
X40157Y-40007D01*
X40200Y-40021D01*
X40371Y-40192D01*
X40371Y-40007D01*
X40371Y-42835D02*
X40371Y-42978D01*
X40071Y-42978D01*
X40214Y-42735D02*
X40214Y-42635D01*
X40371Y-42592D02*
X40371Y-42735D01*
X40071Y-42735D01*
X40071Y-42592D01*
X40371Y-42464D02*
X40071Y-42464D01*
X40071Y-42392D01*
X40085Y-42350D01*
X40114Y-42321D01*
X40142Y-42307D01*
X40200Y-42292D01*
X40242Y-42292D01*
X40300Y-42307D01*
X40328Y-42321D01*
X40357Y-42350D01*
X40371Y-42392D01*
X40371Y-42464D01*
X40371Y-42007D02*
X40371Y-42178D01*
X40371Y-42092D02*
X40071Y-42092D01*
X40114Y-42121D01*
X40142Y-42150D01*
X40157Y-42178D01*
X38571Y-36742D02*
X38871Y-36542D01*
X38571Y-36542D02*
X38871Y-36742D01*
X38871Y-36271D02*
X38871Y-36442D01*
X38871Y-36357D02*
X38571Y-36357D01*
X38614Y-36385D01*
X38642Y-36414D01*
X38657Y-36442D01*
X38671Y-34142D02*
X38871Y-34142D01*
X38557Y-34214D02*
X38771Y-34285D01*
X38771Y-34100D01*
X38871Y-33985D02*
X38571Y-33985D01*
X38785Y-33885D01*
X38571Y-33785D01*
X38871Y-33785D01*
X38871Y-33642D02*
X38571Y-33642D01*
X38714Y-33642D02*
X38714Y-33471D01*
X38871Y-33471D02*
X38571Y-33471D01*
X38671Y-33357D02*
X38671Y-33200D01*
X38871Y-33357D01*
X38871Y-33200D01*
X39071Y-55728D02*
X39314Y-55728D01*
X39342Y-55714D01*
X39357Y-55700D01*
X39371Y-55671D01*
X39371Y-55614D01*
X39357Y-55585D01*
X39342Y-55571D01*
X39314Y-55557D01*
X39071Y-55557D01*
X39100Y-55428D02*
X39085Y-55414D01*
X39071Y-55385D01*
X39071Y-55314D01*
X39085Y-55285D01*
X39100Y-55271D01*
X39128Y-55257D01*
X39157Y-55257D01*
X39200Y-55271D01*
X39371Y-55442D01*
X39371Y-55257D01*
X43871Y-55835D02*
X43871Y-55978D01*
X43571Y-55978D01*
X43600Y-55749D02*
X43585Y-55735D01*
X43571Y-55707D01*
X43571Y-55635D01*
X43585Y-55607D01*
X43600Y-55592D01*
X43628Y-55578D01*
X43657Y-55578D01*
X43700Y-55592D01*
X43871Y-55764D01*
X43871Y-55578D01*
X43871Y-55435D02*
X43871Y-55378D01*
X43857Y-55349D01*
X43842Y-55335D01*
X43800Y-55307D01*
X43742Y-55292D01*
X43628Y-55292D01*
X43600Y-55307D01*
X43585Y-55321D01*
X43571Y-55349D01*
X43571Y-55407D01*
X43585Y-55435D01*
X43600Y-55449D01*
X43628Y-55464D01*
X43700Y-55464D01*
X43728Y-55449D01*
X43742Y-55435D01*
X43757Y-55407D01*
X43757Y-55349D01*
X43742Y-55321D01*
X43728Y-55307D01*
X43700Y-55292D01*
X43571Y-55192D02*
X43571Y-55007D01*
X43685Y-55107D01*
X43685Y-55064D01*
X43700Y-55035D01*
X43714Y-55021D01*
X43742Y-55007D01*
X43814Y-55007D01*
X43842Y-55021D01*
X43857Y-55035D01*
X43871Y-55064D01*
X43871Y-55150D01*
X43857Y-55178D01*
X43842Y-55192D01*
X56700Y-33342D02*
X56685Y-33357D01*
X56642Y-33371D01*
X56614Y-33371D01*
X56571Y-33357D01*
X56542Y-33328D01*
X56528Y-33300D01*
X56514Y-33242D01*
X56514Y-33200D01*
X56528Y-33142D01*
X56542Y-33114D01*
X56571Y-33085D01*
X56614Y-33071D01*
X56642Y-33071D01*
X56685Y-33085D01*
X56700Y-33100D01*
X56871Y-33200D02*
X56842Y-33185D01*
X56828Y-33171D01*
X56814Y-33142D01*
X56814Y-33128D01*
X56828Y-33100D01*
X56842Y-33085D01*
X56871Y-33071D01*
X56928Y-33071D01*
X56957Y-33085D01*
X56971Y-33100D01*
X56985Y-33128D01*
X56985Y-33142D01*
X56971Y-33171D01*
X56957Y-33185D01*
X56928Y-33200D01*
X56871Y-33200D01*
X56842Y-33214D01*
X56828Y-33228D01*
X56814Y-33257D01*
X56814Y-33314D01*
X56828Y-33342D01*
X56842Y-33357D01*
X56871Y-33371D01*
X56928Y-33371D01*
X56957Y-33357D01*
X56971Y-33342D01*
X56985Y-33314D01*
X56985Y-33257D01*
X56971Y-33228D01*
X56957Y-33214D01*
X56928Y-33200D01*
X57535Y-33371D02*
X57364Y-33371D01*
X57450Y-33371D02*
X57450Y-33071D01*
X57421Y-33114D01*
X57392Y-33142D01*
X57364Y-33157D01*
X57721Y-33071D02*
X57750Y-33071D01*
X57778Y-33085D01*
X57792Y-33100D01*
X57807Y-33128D01*
X57821Y-33185D01*
X57821Y-33257D01*
X57807Y-33314D01*
X57792Y-33342D01*
X57778Y-33357D01*
X57750Y-33371D01*
X57721Y-33371D01*
X57692Y-33357D01*
X57678Y-33342D01*
X57664Y-33314D01*
X57650Y-33257D01*
X57650Y-33185D01*
X57664Y-33128D01*
X57678Y-33100D01*
X57692Y-33085D01*
X57721Y-33071D01*
X58007Y-33071D02*
X58035Y-33071D01*
X58064Y-33085D01*
X58078Y-33100D01*
X58092Y-33128D01*
X58107Y-33185D01*
X58107Y-33257D01*
X58092Y-33314D01*
X58078Y-33342D01*
X58064Y-33357D01*
X58035Y-33371D01*
X58007Y-33371D01*
X57978Y-33357D01*
X57964Y-33342D01*
X57950Y-33314D01*
X57935Y-33257D01*
X57935Y-33185D01*
X57950Y-33128D01*
X57964Y-33100D01*
X57978Y-33085D01*
X58007Y-33071D01*
X58235Y-33171D02*
X58235Y-33371D01*
X58235Y-33200D02*
X58249Y-33185D01*
X58278Y-33171D01*
X58321Y-33171D01*
X58349Y-33185D01*
X58364Y-33214D01*
X58364Y-33371D01*
X58607Y-33214D02*
X58507Y-33214D01*
X58507Y-33371D02*
X58507Y-33071D01*
X58650Y-33071D01*
X27342Y-25192D02*
X27357Y-25207D01*
X27371Y-25250D01*
X27371Y-25278D01*
X27357Y-25321D01*
X27328Y-25350D01*
X27300Y-25364D01*
X27242Y-25378D01*
X27200Y-25378D01*
X27142Y-25364D01*
X27114Y-25350D01*
X27085Y-25321D01*
X27071Y-25278D01*
X27071Y-25250D01*
X27085Y-25207D01*
X27100Y-25192D01*
X27371Y-24907D02*
X27371Y-25078D01*
X27371Y-24992D02*
X27071Y-24992D01*
X27114Y-25021D01*
X27142Y-25050D01*
X27157Y-25078D01*
X27171Y-24650D02*
X27371Y-24650D01*
X27057Y-24721D02*
X27271Y-24792D01*
X27271Y-24607D01*
X30871Y-25464D02*
X30871Y-25635D01*
X30871Y-25550D02*
X30571Y-25550D01*
X30614Y-25578D01*
X30642Y-25607D01*
X30657Y-25635D01*
X30571Y-25278D02*
X30571Y-25250D01*
X30585Y-25221D01*
X30600Y-25207D01*
X30628Y-25192D01*
X30685Y-25178D01*
X30757Y-25178D01*
X30814Y-25192D01*
X30842Y-25207D01*
X30857Y-25221D01*
X30871Y-25250D01*
X30871Y-25278D01*
X30857Y-25307D01*
X30842Y-25321D01*
X30814Y-25335D01*
X30757Y-25350D01*
X30685Y-25350D01*
X30628Y-25335D01*
X30600Y-25321D01*
X30585Y-25307D01*
X30571Y-25278D01*
X30571Y-24992D02*
X30571Y-24964D01*
X30585Y-24935D01*
X30600Y-24921D01*
X30628Y-24907D01*
X30685Y-24892D01*
X30757Y-24892D01*
X30814Y-24907D01*
X30842Y-24921D01*
X30857Y-24935D01*
X30871Y-24964D01*
X30871Y-24992D01*
X30857Y-25021D01*
X30842Y-25035D01*
X30814Y-25050D01*
X30757Y-25064D01*
X30685Y-25064D01*
X30628Y-25050D01*
X30600Y-25035D01*
X30585Y-25021D01*
X30571Y-24992D01*
X30671Y-24764D02*
X30871Y-24764D01*
X30700Y-24764D02*
X30685Y-24750D01*
X30671Y-24721D01*
X30671Y-24678D01*
X30685Y-24650D01*
X30714Y-24635D01*
X30871Y-24635D01*
X30714Y-24392D02*
X30714Y-24492D01*
X30871Y-24492D02*
X30571Y-24492D01*
X30571Y-24350D01*
X46342Y-47800D02*
X46357Y-47814D01*
X46371Y-47857D01*
X46371Y-47885D01*
X46357Y-47928D01*
X46328Y-47957D01*
X46300Y-47971D01*
X46242Y-47985D01*
X46200Y-47985D01*
X46142Y-47971D01*
X46114Y-47957D01*
X46085Y-47928D01*
X46071Y-47885D01*
X46071Y-47857D01*
X46085Y-47814D01*
X46100Y-47800D01*
X46371Y-47657D02*
X46371Y-47600D01*
X46357Y-47571D01*
X46342Y-47557D01*
X46300Y-47528D01*
X46242Y-47514D01*
X46128Y-47514D01*
X46100Y-47528D01*
X46085Y-47542D01*
X46071Y-47571D01*
X46071Y-47628D01*
X46085Y-47657D01*
X46100Y-47671D01*
X46128Y-47685D01*
X46200Y-47685D01*
X46228Y-47671D01*
X46242Y-47657D01*
X46257Y-47628D01*
X46257Y-47571D01*
X46242Y-47542D01*
X46228Y-47528D01*
X46200Y-47514D01*
X46371Y-46964D02*
X46371Y-47135D01*
X46371Y-47050D02*
X46071Y-47050D01*
X46114Y-47078D01*
X46142Y-47107D01*
X46157Y-47135D01*
X46071Y-46778D02*
X46071Y-46750D01*
X46085Y-46721D01*
X46100Y-46707D01*
X46128Y-46692D01*
X46185Y-46678D01*
X46257Y-46678D01*
X46314Y-46692D01*
X46342Y-46707D01*
X46357Y-46721D01*
X46371Y-46750D01*
X46371Y-46778D01*
X46357Y-46807D01*
X46342Y-46821D01*
X46314Y-46835D01*
X46257Y-46850D01*
X46185Y-46850D01*
X46128Y-46835D01*
X46100Y-46821D01*
X46085Y-46807D01*
X46071Y-46778D01*
X46071Y-46492D02*
X46071Y-46464D01*
X46085Y-46435D01*
X46100Y-46421D01*
X46128Y-46407D01*
X46185Y-46392D01*
X46257Y-46392D01*
X46314Y-46407D01*
X46342Y-46421D01*
X46357Y-46435D01*
X46371Y-46464D01*
X46371Y-46492D01*
X46357Y-46521D01*
X46342Y-46535D01*
X46314Y-46550D01*
X46257Y-46564D01*
X46185Y-46564D01*
X46128Y-46550D01*
X46100Y-46535D01*
X46085Y-46521D01*
X46071Y-46492D01*
X46171Y-46264D02*
X46371Y-46264D01*
X46200Y-46264D02*
X46185Y-46250D01*
X46171Y-46221D01*
X46171Y-46178D01*
X46185Y-46150D01*
X46214Y-46135D01*
X46371Y-46135D01*
X46214Y-45892D02*
X46214Y-45992D01*
X46371Y-45992D02*
X46071Y-45992D01*
X46071Y-45850D01*
X30842Y-37692D02*
X30857Y-37707D01*
X30871Y-37750D01*
X30871Y-37778D01*
X30857Y-37821D01*
X30828Y-37850D01*
X30800Y-37864D01*
X30742Y-37878D01*
X30700Y-37878D01*
X30642Y-37864D01*
X30614Y-37850D01*
X30585Y-37821D01*
X30571Y-37778D01*
X30571Y-37750D01*
X30585Y-37707D01*
X30600Y-37692D01*
X30871Y-37407D02*
X30871Y-37578D01*
X30871Y-37492D02*
X30571Y-37492D01*
X30614Y-37521D01*
X30642Y-37550D01*
X30657Y-37578D01*
X30600Y-37292D02*
X30585Y-37278D01*
X30571Y-37250D01*
X30571Y-37178D01*
X30585Y-37150D01*
X30600Y-37135D01*
X30628Y-37121D01*
X30657Y-37121D01*
X30700Y-37135D01*
X30871Y-37307D01*
X30871Y-37121D01*
X30871Y-35964D02*
X30871Y-36135D01*
X30871Y-36050D02*
X30571Y-36050D01*
X30614Y-36078D01*
X30642Y-36107D01*
X30657Y-36135D01*
X30571Y-35778D02*
X30571Y-35750D01*
X30585Y-35721D01*
X30600Y-35707D01*
X30628Y-35692D01*
X30685Y-35678D01*
X30757Y-35678D01*
X30814Y-35692D01*
X30842Y-35707D01*
X30857Y-35721D01*
X30871Y-35750D01*
X30871Y-35778D01*
X30857Y-35807D01*
X30842Y-35821D01*
X30814Y-35835D01*
X30757Y-35850D01*
X30685Y-35850D01*
X30628Y-35835D01*
X30600Y-35821D01*
X30585Y-35807D01*
X30571Y-35778D01*
X30571Y-35492D02*
X30571Y-35464D01*
X30585Y-35435D01*
X30600Y-35421D01*
X30628Y-35407D01*
X30685Y-35392D01*
X30757Y-35392D01*
X30814Y-35407D01*
X30842Y-35421D01*
X30857Y-35435D01*
X30871Y-35464D01*
X30871Y-35492D01*
X30857Y-35521D01*
X30842Y-35535D01*
X30814Y-35550D01*
X30757Y-35564D01*
X30685Y-35564D01*
X30628Y-35550D01*
X30600Y-35535D01*
X30585Y-35521D01*
X30571Y-35492D01*
X30671Y-35264D02*
X30871Y-35264D01*
X30700Y-35264D02*
X30685Y-35250D01*
X30671Y-35221D01*
X30671Y-35178D01*
X30685Y-35150D01*
X30714Y-35135D01*
X30871Y-35135D01*
X30714Y-34892D02*
X30714Y-34992D01*
X30871Y-34992D02*
X30571Y-34992D01*
X30571Y-34850D01*
X57307Y-51842D02*
X57292Y-51857D01*
X57250Y-51871D01*
X57221Y-51871D01*
X57178Y-51857D01*
X57150Y-51828D01*
X57135Y-51800D01*
X57121Y-51742D01*
X57121Y-51700D01*
X57135Y-51642D01*
X57150Y-51614D01*
X57178Y-51585D01*
X57221Y-51571D01*
X57250Y-51571D01*
X57292Y-51585D01*
X57307Y-51600D01*
X57592Y-51871D02*
X57421Y-51871D01*
X57507Y-51871D02*
X57507Y-51571D01*
X57478Y-51614D01*
X57450Y-51642D01*
X57421Y-51657D01*
X57850Y-51571D02*
X57792Y-51571D01*
X57764Y-51585D01*
X57750Y-51600D01*
X57721Y-51642D01*
X57707Y-51700D01*
X57707Y-51814D01*
X57721Y-51842D01*
X57735Y-51857D01*
X57764Y-51871D01*
X57821Y-51871D01*
X57850Y-51857D01*
X57864Y-51842D01*
X57878Y-51814D01*
X57878Y-51742D01*
X57864Y-51714D01*
X57850Y-51700D01*
X57821Y-51685D01*
X57764Y-51685D01*
X57735Y-51700D01*
X57721Y-51714D01*
X57707Y-51742D01*
X59178Y-51871D02*
X59007Y-51871D01*
X59092Y-51871D02*
X59092Y-51571D01*
X59064Y-51614D01*
X59035Y-51642D01*
X59007Y-51657D01*
X59364Y-51571D02*
X59392Y-51571D01*
X59421Y-51585D01*
X59435Y-51600D01*
X59450Y-51628D01*
X59464Y-51685D01*
X59464Y-51757D01*
X59450Y-51814D01*
X59435Y-51842D01*
X59421Y-51857D01*
X59392Y-51871D01*
X59364Y-51871D01*
X59335Y-51857D01*
X59321Y-51842D01*
X59307Y-51814D01*
X59292Y-51757D01*
X59292Y-51685D01*
X59307Y-51628D01*
X59321Y-51600D01*
X59335Y-51585D01*
X59364Y-51571D01*
X59592Y-51671D02*
X59592Y-51871D01*
X59592Y-51700D02*
X59607Y-51685D01*
X59635Y-51671D01*
X59678Y-51671D01*
X59707Y-51685D01*
X59721Y-51714D01*
X59721Y-51871D01*
X59964Y-51714D02*
X59864Y-51714D01*
X59864Y-51871D02*
X59864Y-51571D01*
X60007Y-51571D01*
X52307Y-51842D02*
X52292Y-51857D01*
X52250Y-51871D01*
X52221Y-51871D01*
X52178Y-51857D01*
X52150Y-51828D01*
X52135Y-51800D01*
X52121Y-51742D01*
X52121Y-51700D01*
X52135Y-51642D01*
X52150Y-51614D01*
X52178Y-51585D01*
X52221Y-51571D01*
X52250Y-51571D01*
X52292Y-51585D01*
X52307Y-51600D01*
X52592Y-51871D02*
X52421Y-51871D01*
X52507Y-51871D02*
X52507Y-51571D01*
X52478Y-51614D01*
X52450Y-51642D01*
X52421Y-51657D01*
X52864Y-51571D02*
X52721Y-51571D01*
X52707Y-51714D01*
X52721Y-51700D01*
X52750Y-51685D01*
X52821Y-51685D01*
X52850Y-51700D01*
X52864Y-51714D01*
X52878Y-51742D01*
X52878Y-51814D01*
X52864Y-51842D01*
X52850Y-51857D01*
X52821Y-51871D01*
X52750Y-51871D01*
X52721Y-51857D01*
X52707Y-51842D01*
X54178Y-51871D02*
X54007Y-51871D01*
X54092Y-51871D02*
X54092Y-51571D01*
X54064Y-51614D01*
X54035Y-51642D01*
X54007Y-51657D01*
X54364Y-51571D02*
X54392Y-51571D01*
X54421Y-51585D01*
X54435Y-51600D01*
X54450Y-51628D01*
X54464Y-51685D01*
X54464Y-51757D01*
X54450Y-51814D01*
X54435Y-51842D01*
X54421Y-51857D01*
X54392Y-51871D01*
X54364Y-51871D01*
X54335Y-51857D01*
X54321Y-51842D01*
X54307Y-51814D01*
X54292Y-51757D01*
X54292Y-51685D01*
X54307Y-51628D01*
X54321Y-51600D01*
X54335Y-51585D01*
X54364Y-51571D01*
X54592Y-51671D02*
X54592Y-51871D01*
X54592Y-51700D02*
X54607Y-51685D01*
X54635Y-51671D01*
X54678Y-51671D01*
X54707Y-51685D01*
X54721Y-51714D01*
X54721Y-51871D01*
X54964Y-51714D02*
X54864Y-51714D01*
X54864Y-51871D02*
X54864Y-51571D01*
X55007Y-51571D01*
X37950Y-46842D02*
X37935Y-46857D01*
X37892Y-46871D01*
X37864Y-46871D01*
X37821Y-46857D01*
X37792Y-46828D01*
X37778Y-46800D01*
X37764Y-46742D01*
X37764Y-46700D01*
X37778Y-46642D01*
X37792Y-46614D01*
X37821Y-46585D01*
X37864Y-46571D01*
X37892Y-46571D01*
X37935Y-46585D01*
X37950Y-46600D01*
X38064Y-46600D02*
X38078Y-46585D01*
X38107Y-46571D01*
X38178Y-46571D01*
X38207Y-46585D01*
X38221Y-46600D01*
X38235Y-46628D01*
X38235Y-46657D01*
X38221Y-46700D01*
X38050Y-46871D01*
X38235Y-46871D01*
X35785Y-46871D02*
X35614Y-46871D01*
X35700Y-46871D02*
X35700Y-46571D01*
X35671Y-46614D01*
X35642Y-46642D01*
X35614Y-46657D01*
X35971Y-46571D02*
X36000Y-46571D01*
X36028Y-46585D01*
X36042Y-46600D01*
X36057Y-46628D01*
X36071Y-46685D01*
X36071Y-46757D01*
X36057Y-46814D01*
X36042Y-46842D01*
X36028Y-46857D01*
X36000Y-46871D01*
X35971Y-46871D01*
X35942Y-46857D01*
X35928Y-46842D01*
X35914Y-46814D01*
X35900Y-46757D01*
X35900Y-46685D01*
X35914Y-46628D01*
X35928Y-46600D01*
X35942Y-46585D01*
X35971Y-46571D01*
X36257Y-46571D02*
X36285Y-46571D01*
X36314Y-46585D01*
X36328Y-46600D01*
X36342Y-46628D01*
X36357Y-46685D01*
X36357Y-46757D01*
X36342Y-46814D01*
X36328Y-46842D01*
X36314Y-46857D01*
X36285Y-46871D01*
X36257Y-46871D01*
X36228Y-46857D01*
X36214Y-46842D01*
X36200Y-46814D01*
X36185Y-46757D01*
X36185Y-46685D01*
X36200Y-46628D01*
X36214Y-46600D01*
X36228Y-46585D01*
X36257Y-46571D01*
X36485Y-46671D02*
X36485Y-46871D01*
X36485Y-46700D02*
X36499Y-46685D01*
X36528Y-46671D01*
X36571Y-46671D01*
X36599Y-46685D01*
X36614Y-46714D01*
X36614Y-46871D01*
X36857Y-46714D02*
X36757Y-46714D01*
X36757Y-46871D02*
X36757Y-46571D01*
X36900Y-46571D01*
X48807Y-47842D02*
X48792Y-47857D01*
X48750Y-47871D01*
X48721Y-47871D01*
X48678Y-47857D01*
X48650Y-47828D01*
X48635Y-47800D01*
X48621Y-47742D01*
X48621Y-47700D01*
X48635Y-47642D01*
X48650Y-47614D01*
X48678Y-47585D01*
X48721Y-47571D01*
X48750Y-47571D01*
X48792Y-47585D01*
X48807Y-47600D01*
X49092Y-47871D02*
X48921Y-47871D01*
X49007Y-47871D02*
X49007Y-47571D01*
X48978Y-47614D01*
X48950Y-47642D01*
X48921Y-47657D01*
X49192Y-47571D02*
X49392Y-47571D01*
X49264Y-47871D01*
X49071Y-50371D02*
X48900Y-50371D01*
X48985Y-50371D02*
X48985Y-50071D01*
X48957Y-50114D01*
X48928Y-50142D01*
X48900Y-50157D01*
X49328Y-50171D02*
X49328Y-50371D01*
X49200Y-50171D02*
X49200Y-50328D01*
X49214Y-50357D01*
X49242Y-50371D01*
X49285Y-50371D01*
X49314Y-50357D01*
X49328Y-50342D01*
X49571Y-50214D02*
X49471Y-50214D01*
X49471Y-50371D02*
X49471Y-50071D01*
X49614Y-50071D01*
G54D21*
X48507Y-50364D02*
X48507Y-50135D01*
X48621Y-50250D02*
X48392Y-50250D01*
G54D20*
G54D11*
X41450Y-47092D02*
X41435Y-47107D01*
X41392Y-47121D01*
X41364Y-47121D01*
X41321Y-47107D01*
X41292Y-47078D01*
X41278Y-47050D01*
X41264Y-46992D01*
X41264Y-46950D01*
X41278Y-46892D01*
X41292Y-46864D01*
X41321Y-46835D01*
X41364Y-46821D01*
X41392Y-46821D01*
X41435Y-46835D01*
X41450Y-46850D01*
X41550Y-46821D02*
X41750Y-46821D01*
X41621Y-47121D01*
X41428Y-47621D02*
X41257Y-47621D01*
X41342Y-47621D02*
X41342Y-47321D01*
X41314Y-47364D01*
X41285Y-47392D01*
X41257Y-47407D01*
X41614Y-47321D02*
X41642Y-47321D01*
X41671Y-47335D01*
X41685Y-47350D01*
X41700Y-47378D01*
X41714Y-47435D01*
X41714Y-47507D01*
X41700Y-47564D01*
X41685Y-47592D01*
X41671Y-47607D01*
X41642Y-47621D01*
X41614Y-47621D01*
X41585Y-47607D01*
X41571Y-47592D01*
X41557Y-47564D01*
X41542Y-47507D01*
X41542Y-47435D01*
X41557Y-47378D01*
X41571Y-47350D01*
X41585Y-47335D01*
X41614Y-47321D01*
X41971Y-47421D02*
X41971Y-47621D01*
X41842Y-47421D02*
X41842Y-47578D01*
X41857Y-47607D01*
X41885Y-47621D01*
X41928Y-47621D01*
X41957Y-47607D01*
X41971Y-47592D01*
X42214Y-47464D02*
X42114Y-47464D01*
X42114Y-47621D02*
X42114Y-47321D01*
X42257Y-47321D01*
G54D21*
X43507Y-48364D02*
X43507Y-48135D01*
X43621Y-48250D02*
X43392Y-48250D01*
G54D20*
G54D18*
X50950Y-25342D02*
X50935Y-25357D01*
X50892Y-25371D01*
X50864Y-25371D01*
X50821Y-25357D01*
X50792Y-25328D01*
X50778Y-25300D01*
X50764Y-25242D01*
X50764Y-25200D01*
X50778Y-25142D01*
X50792Y-25114D01*
X50821Y-25085D01*
X50864Y-25071D01*
X50892Y-25071D01*
X50935Y-25085D01*
X50950Y-25100D01*
X51207Y-25071D02*
X51150Y-25071D01*
X51121Y-25085D01*
X51107Y-25100D01*
X51078Y-25142D01*
X51064Y-25200D01*
X51064Y-25314D01*
X51078Y-25342D01*
X51092Y-25357D01*
X51121Y-25371D01*
X51178Y-25371D01*
X51207Y-25357D01*
X51221Y-25342D01*
X51235Y-25314D01*
X51235Y-25242D01*
X51221Y-25214D01*
X51207Y-25200D01*
X51178Y-25185D01*
X51121Y-25185D01*
X51092Y-25200D01*
X51078Y-25214D01*
X51064Y-25242D01*
G54D11*
X50821Y-25871D02*
X50650Y-25871D01*
X50735Y-25871D02*
X50735Y-25571D01*
X50707Y-25614D01*
X50678Y-25642D01*
X50650Y-25657D01*
X51078Y-25671D02*
X51078Y-25871D01*
X50950Y-25671D02*
X50950Y-25828D01*
X50964Y-25857D01*
X50992Y-25871D01*
X51035Y-25871D01*
X51064Y-25857D01*
X51078Y-25842D01*
X51321Y-25714D02*
X51221Y-25714D01*
X51221Y-25871D02*
X51221Y-25571D01*
X51364Y-25571D01*
G54D21*
X53257Y-26614D02*
X53257Y-26385D01*
X53371Y-26500D02*
X53142Y-26500D01*
G54D20*
G54D11*
X56950Y-29342D02*
X56935Y-29357D01*
X56892Y-29371D01*
X56864Y-29371D01*
X56821Y-29357D01*
X56792Y-29328D01*
X56778Y-29300D01*
X56764Y-29242D01*
X56764Y-29200D01*
X56778Y-29142D01*
X56792Y-29114D01*
X56821Y-29085D01*
X56864Y-29071D01*
X56892Y-29071D01*
X56935Y-29085D01*
X56950Y-29100D01*
X57235Y-29371D02*
X57064Y-29371D01*
X57150Y-29371D02*
X57150Y-29071D01*
X57121Y-29114D01*
X57092Y-29142D01*
X57064Y-29157D01*
X57821Y-29371D02*
X57650Y-29371D01*
X57735Y-29371D02*
X57735Y-29071D01*
X57707Y-29114D01*
X57678Y-29142D01*
X57650Y-29157D01*
X58078Y-29171D02*
X58078Y-29371D01*
X57950Y-29171D02*
X57950Y-29328D01*
X57964Y-29357D01*
X57992Y-29371D01*
X58035Y-29371D01*
X58064Y-29357D01*
X58078Y-29342D01*
X58321Y-29214D02*
X58221Y-29214D01*
X58221Y-29371D02*
X58221Y-29071D01*
X58364Y-29071D01*
X57507Y-26864D02*
X57507Y-26635D01*
X57621Y-26750D02*
X57392Y-26750D01*
G54D18*
X54450Y-29842D02*
X54435Y-29857D01*
X54392Y-29871D01*
X54364Y-29871D01*
X54321Y-29857D01*
X54292Y-29828D01*
X54278Y-29800D01*
X54264Y-29742D01*
X54264Y-29700D01*
X54278Y-29642D01*
X54292Y-29614D01*
X54321Y-29585D01*
X54364Y-29571D01*
X54392Y-29571D01*
X54435Y-29585D01*
X54450Y-29600D01*
X54721Y-29571D02*
X54578Y-29571D01*
X54564Y-29714D01*
X54578Y-29700D01*
X54607Y-29685D01*
X54678Y-29685D01*
X54707Y-29700D01*
X54721Y-29714D01*
X54735Y-29742D01*
X54735Y-29814D01*
X54721Y-29842D01*
X54707Y-29857D01*
X54678Y-29871D01*
X54607Y-29871D01*
X54578Y-29857D01*
X54564Y-29842D01*
G54D11*
X55321Y-29871D02*
X55150Y-29871D01*
X55235Y-29871D02*
X55235Y-29571D01*
X55207Y-29614D01*
X55178Y-29642D01*
X55150Y-29657D01*
X55578Y-29671D02*
X55578Y-29871D01*
X55450Y-29671D02*
X55450Y-29828D01*
X55464Y-29857D01*
X55492Y-29871D01*
X55535Y-29871D01*
X55564Y-29857D01*
X55578Y-29842D01*
X55821Y-29714D02*
X55721Y-29714D01*
X55721Y-29871D02*
X55721Y-29571D01*
X55864Y-29571D01*
G54D21*
X54007Y-32114D02*
X54007Y-31885D01*
X54121Y-32000D02*
X53892Y-32000D01*
G54D20*
G54D11*
X54450Y-29342D02*
X54435Y-29357D01*
X54392Y-29371D01*
X54364Y-29371D01*
X54321Y-29357D01*
X54292Y-29328D01*
X54278Y-29300D01*
X54264Y-29242D01*
X54264Y-29200D01*
X54278Y-29142D01*
X54292Y-29114D01*
X54321Y-29085D01*
X54364Y-29071D01*
X54392Y-29071D01*
X54435Y-29085D01*
X54450Y-29100D01*
X54707Y-29171D02*
X54707Y-29371D01*
X54635Y-29057D02*
X54564Y-29271D01*
X54750Y-29271D01*
X55178Y-29371D02*
X55007Y-29371D01*
X55092Y-29371D02*
X55092Y-29071D01*
X55064Y-29114D01*
X55035Y-29142D01*
X55007Y-29157D01*
X55364Y-29071D02*
X55392Y-29071D01*
X55421Y-29085D01*
X55435Y-29100D01*
X55450Y-29128D01*
X55464Y-29185D01*
X55464Y-29257D01*
X55450Y-29314D01*
X55435Y-29342D01*
X55421Y-29357D01*
X55392Y-29371D01*
X55364Y-29371D01*
X55335Y-29357D01*
X55321Y-29342D01*
X55307Y-29314D01*
X55292Y-29257D01*
X55292Y-29185D01*
X55307Y-29128D01*
X55321Y-29100D01*
X55335Y-29085D01*
X55364Y-29071D01*
X55721Y-29171D02*
X55721Y-29371D01*
X55592Y-29171D02*
X55592Y-29328D01*
X55607Y-29357D01*
X55635Y-29371D01*
X55678Y-29371D01*
X55707Y-29357D01*
X55721Y-29342D01*
X55964Y-29214D02*
X55864Y-29214D01*
X55864Y-29371D02*
X55864Y-29071D01*
X56007Y-29071D01*
X55007Y-26864D02*
X55007Y-26635D01*
X55121Y-26750D02*
X54892Y-26750D01*
X51950Y-29342D02*
X51935Y-29357D01*
X51892Y-29371D01*
X51864Y-29371D01*
X51821Y-29357D01*
X51792Y-29328D01*
X51778Y-29300D01*
X51764Y-29242D01*
X51764Y-29200D01*
X51778Y-29142D01*
X51792Y-29114D01*
X51821Y-29085D01*
X51864Y-29071D01*
X51892Y-29071D01*
X51935Y-29085D01*
X51950Y-29100D01*
X52050Y-29071D02*
X52235Y-29071D01*
X52135Y-29185D01*
X52178Y-29185D01*
X52207Y-29200D01*
X52221Y-29214D01*
X52235Y-29242D01*
X52235Y-29314D01*
X52221Y-29342D01*
X52207Y-29357D01*
X52178Y-29371D01*
X52092Y-29371D01*
X52064Y-29357D01*
X52050Y-29342D01*
X52821Y-29371D02*
X52650Y-29371D01*
X52735Y-29371D02*
X52735Y-29071D01*
X52707Y-29114D01*
X52678Y-29142D01*
X52650Y-29157D01*
X53078Y-29171D02*
X53078Y-29371D01*
X52950Y-29171D02*
X52950Y-29328D01*
X52964Y-29357D01*
X52992Y-29371D01*
X53035Y-29371D01*
X53064Y-29357D01*
X53078Y-29342D01*
X53321Y-29214D02*
X53221Y-29214D01*
X53221Y-29371D02*
X53221Y-29071D01*
X53364Y-29071D01*
X51757Y-27114D02*
X51757Y-26885D01*
X51871Y-27000D02*
X51642Y-27000D01*
X41057Y-32842D02*
X41042Y-32857D01*
X41000Y-32871D01*
X40971Y-32871D01*
X40928Y-32857D01*
X40900Y-32828D01*
X40885Y-32800D01*
X40871Y-32742D01*
X40871Y-32700D01*
X40885Y-32642D01*
X40900Y-32614D01*
X40928Y-32585D01*
X40971Y-32571D01*
X41000Y-32571D01*
X41042Y-32585D01*
X41057Y-32600D01*
X41342Y-32871D02*
X41171Y-32871D01*
X41257Y-32871D02*
X41257Y-32571D01*
X41228Y-32614D01*
X41200Y-32642D01*
X41171Y-32657D01*
X41528Y-32571D02*
X41557Y-32571D01*
X41585Y-32585D01*
X41600Y-32600D01*
X41614Y-32628D01*
X41628Y-32685D01*
X41628Y-32757D01*
X41614Y-32814D01*
X41600Y-32842D01*
X41585Y-32857D01*
X41557Y-32871D01*
X41528Y-32871D01*
X41500Y-32857D01*
X41485Y-32842D01*
X41471Y-32814D01*
X41457Y-32757D01*
X41457Y-32685D01*
X41471Y-32628D01*
X41485Y-32600D01*
X41500Y-32585D01*
X41528Y-32571D01*
X42242Y-32571D02*
X42428Y-32571D01*
X42328Y-32685D01*
X42371Y-32685D01*
X42400Y-32700D01*
X42414Y-32714D01*
X42428Y-32742D01*
X42428Y-32814D01*
X42414Y-32842D01*
X42400Y-32857D01*
X42371Y-32871D01*
X42285Y-32871D01*
X42257Y-32857D01*
X42242Y-32842D01*
X42614Y-32571D02*
X42642Y-32571D01*
X42671Y-32585D01*
X42685Y-32600D01*
X42700Y-32628D01*
X42714Y-32685D01*
X42714Y-32757D01*
X42700Y-32814D01*
X42685Y-32842D01*
X42671Y-32857D01*
X42642Y-32871D01*
X42614Y-32871D01*
X42585Y-32857D01*
X42571Y-32842D01*
X42557Y-32814D01*
X42542Y-32757D01*
X42542Y-32685D01*
X42557Y-32628D01*
X42571Y-32600D01*
X42585Y-32585D01*
X42614Y-32571D01*
X42842Y-32671D02*
X42842Y-32971D01*
X42842Y-32685D02*
X42871Y-32671D01*
X42928Y-32671D01*
X42957Y-32685D01*
X42971Y-32700D01*
X42985Y-32728D01*
X42985Y-32814D01*
X42971Y-32842D01*
X42957Y-32857D01*
X42928Y-32871D01*
X42871Y-32871D01*
X42842Y-32857D01*
X43214Y-32714D02*
X43114Y-32714D01*
X43114Y-32871D02*
X43114Y-32571D01*
X43257Y-32571D01*
X41057Y-36342D02*
X41042Y-36357D01*
X41000Y-36371D01*
X40971Y-36371D01*
X40928Y-36357D01*
X40900Y-36328D01*
X40885Y-36300D01*
X40871Y-36242D01*
X40871Y-36200D01*
X40885Y-36142D01*
X40900Y-36114D01*
X40928Y-36085D01*
X40971Y-36071D01*
X41000Y-36071D01*
X41042Y-36085D01*
X41057Y-36100D01*
X41342Y-36371D02*
X41171Y-36371D01*
X41257Y-36371D02*
X41257Y-36071D01*
X41228Y-36114D01*
X41200Y-36142D01*
X41171Y-36157D01*
X41628Y-36371D02*
X41457Y-36371D01*
X41542Y-36371D02*
X41542Y-36071D01*
X41514Y-36114D01*
X41485Y-36142D01*
X41457Y-36157D01*
X42242Y-36071D02*
X42428Y-36071D01*
X42328Y-36185D01*
X42371Y-36185D01*
X42400Y-36200D01*
X42414Y-36214D01*
X42428Y-36242D01*
X42428Y-36314D01*
X42414Y-36342D01*
X42400Y-36357D01*
X42371Y-36371D01*
X42285Y-36371D01*
X42257Y-36357D01*
X42242Y-36342D01*
X42614Y-36071D02*
X42642Y-36071D01*
X42671Y-36085D01*
X42685Y-36100D01*
X42700Y-36128D01*
X42714Y-36185D01*
X42714Y-36257D01*
X42700Y-36314D01*
X42685Y-36342D01*
X42671Y-36357D01*
X42642Y-36371D01*
X42614Y-36371D01*
X42585Y-36357D01*
X42571Y-36342D01*
X42557Y-36314D01*
X42542Y-36257D01*
X42542Y-36185D01*
X42557Y-36128D01*
X42571Y-36100D01*
X42585Y-36085D01*
X42614Y-36071D01*
X42842Y-36171D02*
X42842Y-36471D01*
X42842Y-36185D02*
X42871Y-36171D01*
X42928Y-36171D01*
X42957Y-36185D01*
X42971Y-36200D01*
X42985Y-36228D01*
X42985Y-36314D01*
X42971Y-36342D01*
X42957Y-36357D01*
X42928Y-36371D01*
X42871Y-36371D01*
X42842Y-36357D01*
X43214Y-36214D02*
X43114Y-36214D01*
X43114Y-36371D02*
X43114Y-36071D01*
X43257Y-36071D01*
X59771Y-28321D02*
X59771Y-28564D01*
X59785Y-28592D01*
X59800Y-28607D01*
X59828Y-28621D01*
X59885Y-28621D01*
X59914Y-28607D01*
X59928Y-28592D01*
X59942Y-28564D01*
X59942Y-28321D01*
X60242Y-28621D02*
X60071Y-28621D01*
X60157Y-28621D02*
X60157Y-28321D01*
X60128Y-28364D01*
X60100Y-28392D01*
X60071Y-28407D01*
X59471Y-24321D02*
X59671Y-24321D01*
X59542Y-24621D01*
X59828Y-24450D02*
X59800Y-24435D01*
X59785Y-24421D01*
X59771Y-24392D01*
X59771Y-24378D01*
X59785Y-24350D01*
X59800Y-24335D01*
X59828Y-24321D01*
X59885Y-24321D01*
X59914Y-24335D01*
X59928Y-24350D01*
X59942Y-24378D01*
X59942Y-24392D01*
X59928Y-24421D01*
X59914Y-24435D01*
X59885Y-24450D01*
X59828Y-24450D01*
X59800Y-24464D01*
X59785Y-24478D01*
X59771Y-24507D01*
X59771Y-24564D01*
X59785Y-24592D01*
X59800Y-24607D01*
X59828Y-24621D01*
X59885Y-24621D01*
X59914Y-24607D01*
X59928Y-24592D01*
X59942Y-24564D01*
X59942Y-24507D01*
X59928Y-24478D01*
X59914Y-24464D01*
X59885Y-24450D01*
X60128Y-24321D02*
X60157Y-24321D01*
X60185Y-24335D01*
X60200Y-24350D01*
X60214Y-24378D01*
X60228Y-24435D01*
X60228Y-24507D01*
X60214Y-24564D01*
X60200Y-24592D01*
X60185Y-24607D01*
X60157Y-24621D01*
X60128Y-24621D01*
X60100Y-24607D01*
X60085Y-24592D01*
X60071Y-24564D01*
X60057Y-24507D01*
X60057Y-24435D01*
X60071Y-24378D01*
X60085Y-24350D01*
X60100Y-24335D01*
X60128Y-24321D01*
X60500Y-24321D02*
X60357Y-24321D01*
X60342Y-24464D01*
X60357Y-24450D01*
X60385Y-24435D01*
X60457Y-24435D01*
X60485Y-24450D01*
X60500Y-24464D01*
X60514Y-24492D01*
X60514Y-24564D01*
X60500Y-24592D01*
X60485Y-24607D01*
X60457Y-24621D01*
X60385Y-24621D01*
X60357Y-24607D01*
X60342Y-24592D01*
X39121Y-49471D02*
X38821Y-49471D01*
X38821Y-49400D01*
X38835Y-49357D01*
X38864Y-49328D01*
X38892Y-49314D01*
X38950Y-49300D01*
X38992Y-49300D01*
X39050Y-49314D01*
X39078Y-49328D01*
X39107Y-49357D01*
X39121Y-49400D01*
X39121Y-49471D01*
X38921Y-49042D02*
X39121Y-49042D01*
X38807Y-49114D02*
X39021Y-49185D01*
X39021Y-49000D01*
X49121Y-53864D02*
X48821Y-53864D01*
X48821Y-53792D01*
X48835Y-53750D01*
X48864Y-53721D01*
X48892Y-53707D01*
X48950Y-53692D01*
X48992Y-53692D01*
X49050Y-53707D01*
X49078Y-53721D01*
X49107Y-53750D01*
X49121Y-53792D01*
X49121Y-53864D01*
X49121Y-53407D02*
X49121Y-53578D01*
X49121Y-53492D02*
X48821Y-53492D01*
X48864Y-53521D01*
X48892Y-53550D01*
X48907Y-53578D01*
X48821Y-53221D02*
X48821Y-53192D01*
X48835Y-53164D01*
X48850Y-53150D01*
X48878Y-53135D01*
X48935Y-53121D01*
X49007Y-53121D01*
X49064Y-53135D01*
X49092Y-53150D01*
X49107Y-53164D01*
X49121Y-53192D01*
X49121Y-53221D01*
X49107Y-53250D01*
X49092Y-53264D01*
X49064Y-53278D01*
X49007Y-53292D01*
X48935Y-53292D01*
X48878Y-53278D01*
X48850Y-53264D01*
X48835Y-53250D01*
X48821Y-53221D01*
X44371Y-49471D02*
X44071Y-49471D01*
X44071Y-49400D01*
X44085Y-49357D01*
X44114Y-49328D01*
X44142Y-49314D01*
X44200Y-49300D01*
X44242Y-49300D01*
X44300Y-49314D01*
X44328Y-49328D01*
X44357Y-49357D01*
X44371Y-49400D01*
X44371Y-49471D01*
X44200Y-49128D02*
X44185Y-49157D01*
X44171Y-49171D01*
X44142Y-49185D01*
X44128Y-49185D01*
X44100Y-49171D01*
X44085Y-49157D01*
X44071Y-49128D01*
X44071Y-49071D01*
X44085Y-49042D01*
X44100Y-49028D01*
X44128Y-49014D01*
X44142Y-49014D01*
X44171Y-49028D01*
X44185Y-49042D01*
X44200Y-49071D01*
X44200Y-49128D01*
X44214Y-49157D01*
X44228Y-49171D01*
X44257Y-49185D01*
X44314Y-49185D01*
X44342Y-49171D01*
X44357Y-49157D01*
X44371Y-49128D01*
X44371Y-49071D01*
X44357Y-49042D01*
X44342Y-49028D01*
X44314Y-49014D01*
X44257Y-49014D01*
X44228Y-49028D01*
X44214Y-49042D01*
X44200Y-49071D01*
X46371Y-53721D02*
X46071Y-53721D01*
X46071Y-53650D01*
X46085Y-53607D01*
X46114Y-53578D01*
X46142Y-53564D01*
X46200Y-53550D01*
X46242Y-53550D01*
X46300Y-53564D01*
X46328Y-53578D01*
X46357Y-53607D01*
X46371Y-53650D01*
X46371Y-53721D01*
X46371Y-53407D02*
X46371Y-53350D01*
X46357Y-53321D01*
X46342Y-53307D01*
X46300Y-53278D01*
X46242Y-53264D01*
X46128Y-53264D01*
X46100Y-53278D01*
X46085Y-53292D01*
X46071Y-53321D01*
X46071Y-53378D01*
X46085Y-53407D01*
X46100Y-53421D01*
X46128Y-53435D01*
X46200Y-53435D01*
X46228Y-53421D01*
X46242Y-53407D01*
X46257Y-53378D01*
X46257Y-53321D01*
X46242Y-53292D01*
X46228Y-53278D01*
X46200Y-53264D01*
X47121Y-49471D02*
X46821Y-49471D01*
X46821Y-49400D01*
X46835Y-49357D01*
X46864Y-49328D01*
X46892Y-49314D01*
X46950Y-49300D01*
X46992Y-49300D01*
X47050Y-49314D01*
X47078Y-49328D01*
X47107Y-49357D01*
X47121Y-49400D01*
X47121Y-49471D01*
X46821Y-49200D02*
X46821Y-49000D01*
X47121Y-49128D01*
X34371Y-53721D02*
X34071Y-53721D01*
X34071Y-53650D01*
X34085Y-53607D01*
X34114Y-53578D01*
X34142Y-53564D01*
X34200Y-53550D01*
X34242Y-53550D01*
X34300Y-53564D01*
X34328Y-53578D01*
X34357Y-53607D01*
X34371Y-53650D01*
X34371Y-53721D01*
X34071Y-53292D02*
X34071Y-53350D01*
X34085Y-53378D01*
X34100Y-53392D01*
X34142Y-53421D01*
X34200Y-53435D01*
X34314Y-53435D01*
X34342Y-53421D01*
X34357Y-53407D01*
X34371Y-53378D01*
X34371Y-53321D01*
X34357Y-53292D01*
X34342Y-53278D01*
X34314Y-53264D01*
X34242Y-53264D01*
X34214Y-53278D01*
X34200Y-53292D01*
X34185Y-53321D01*
X34185Y-53378D01*
X34200Y-53407D01*
X34214Y-53421D01*
X34242Y-53435D01*
X37121Y-53721D02*
X36821Y-53721D01*
X36821Y-53650D01*
X36835Y-53607D01*
X36864Y-53578D01*
X36892Y-53564D01*
X36950Y-53550D01*
X36992Y-53550D01*
X37050Y-53564D01*
X37078Y-53578D01*
X37107Y-53607D01*
X37121Y-53650D01*
X37121Y-53721D01*
X36821Y-53278D02*
X36821Y-53421D01*
X36964Y-53435D01*
X36950Y-53421D01*
X36935Y-53392D01*
X36935Y-53321D01*
X36950Y-53292D01*
X36964Y-53278D01*
X36992Y-53264D01*
X37064Y-53264D01*
X37092Y-53278D01*
X37107Y-53292D01*
X37121Y-53321D01*
X37121Y-53392D01*
X37107Y-53421D01*
X37092Y-53435D01*
X36371Y-49721D02*
X36071Y-49721D01*
X36071Y-49650D01*
X36085Y-49607D01*
X36114Y-49578D01*
X36142Y-49564D01*
X36200Y-49550D01*
X36242Y-49550D01*
X36300Y-49564D01*
X36328Y-49578D01*
X36357Y-49607D01*
X36371Y-49650D01*
X36371Y-49721D01*
X36071Y-49450D02*
X36071Y-49264D01*
X36185Y-49364D01*
X36185Y-49321D01*
X36200Y-49292D01*
X36214Y-49278D01*
X36242Y-49264D01*
X36314Y-49264D01*
X36342Y-49278D01*
X36357Y-49292D01*
X36371Y-49321D01*
X36371Y-49407D01*
X36357Y-49435D01*
X36342Y-49450D01*
X55028Y-26371D02*
X55028Y-26071D01*
X55100Y-26071D01*
X55142Y-26085D01*
X55171Y-26114D01*
X55185Y-26142D01*
X55200Y-26200D01*
X55200Y-26242D01*
X55185Y-26300D01*
X55171Y-26328D01*
X55142Y-26357D01*
X55100Y-26371D01*
X55028Y-26371D01*
X55485Y-26371D02*
X55314Y-26371D01*
X55400Y-26371D02*
X55400Y-26071D01*
X55371Y-26114D01*
X55342Y-26142D01*
X55314Y-26157D01*
X39371Y-45785D02*
X39071Y-45785D01*
X39071Y-45671D01*
X39085Y-45642D01*
X39100Y-45628D01*
X39128Y-45614D01*
X39171Y-45614D01*
X39200Y-45628D01*
X39214Y-45642D01*
X39228Y-45671D01*
X39228Y-45785D01*
X39371Y-45485D02*
X39071Y-45485D01*
X39342Y-45171D02*
X39357Y-45185D01*
X39371Y-45228D01*
X39371Y-45257D01*
X39357Y-45299D01*
X39328Y-45328D01*
X39300Y-45342D01*
X39242Y-45357D01*
X39200Y-45357D01*
X39142Y-45342D01*
X39114Y-45328D01*
X39085Y-45299D01*
X39071Y-45257D01*
X39071Y-45228D01*
X39085Y-45185D01*
X39100Y-45171D01*
X39371Y-44885D02*
X39371Y-45057D01*
X39371Y-44971D02*
X39071Y-44971D01*
X39114Y-44999D01*
X39142Y-45028D01*
X39157Y-45057D01*
X39200Y-44714D02*
X39185Y-44742D01*
X39171Y-44757D01*
X39142Y-44771D01*
X39128Y-44771D01*
X39100Y-44757D01*
X39085Y-44742D01*
X39071Y-44714D01*
X39071Y-44657D01*
X39085Y-44628D01*
X39100Y-44614D01*
X39128Y-44600D01*
X39142Y-44600D01*
X39171Y-44614D01*
X39185Y-44628D01*
X39200Y-44657D01*
X39200Y-44714D01*
X39214Y-44742D01*
X39228Y-44757D01*
X39257Y-44771D01*
X39314Y-44771D01*
X39342Y-44757D01*
X39357Y-44742D01*
X39371Y-44714D01*
X39371Y-44657D01*
X39357Y-44628D01*
X39342Y-44614D01*
X39314Y-44600D01*
X39257Y-44600D01*
X39228Y-44614D01*
X39214Y-44628D01*
X39200Y-44657D01*
X39214Y-44371D02*
X39214Y-44471D01*
X39371Y-44471D02*
X39071Y-44471D01*
X39071Y-44328D01*
X39171Y-44085D02*
X39371Y-44085D01*
X39057Y-44157D02*
X39271Y-44228D01*
X39271Y-44042D01*
X39071Y-43785D02*
X39071Y-43928D01*
X39214Y-43942D01*
X39200Y-43928D01*
X39185Y-43900D01*
X39185Y-43828D01*
X39200Y-43800D01*
X39214Y-43785D01*
X39242Y-43771D01*
X39314Y-43771D01*
X39342Y-43785D01*
X39357Y-43800D01*
X39371Y-43828D01*
X39371Y-43900D01*
X39357Y-43928D01*
X39342Y-43942D01*
X39071Y-43500D02*
X39071Y-43642D01*
X39214Y-43657D01*
X39200Y-43642D01*
X39185Y-43614D01*
X39185Y-43542D01*
X39200Y-43514D01*
X39214Y-43500D01*
X39242Y-43485D01*
X39314Y-43485D01*
X39342Y-43500D01*
X39357Y-43514D01*
X39371Y-43542D01*
X39371Y-43614D01*
X39357Y-43642D01*
X39342Y-43657D01*
X39071Y-43300D02*
X39071Y-43271D01*
X39085Y-43242D01*
X39100Y-43228D01*
X39128Y-43214D01*
X39185Y-43200D01*
X39257Y-43200D01*
X39314Y-43214D01*
X39342Y-43228D01*
X39357Y-43242D01*
X39371Y-43271D01*
X39371Y-43300D01*
X39357Y-43328D01*
X39342Y-43342D01*
X39314Y-43357D01*
X39257Y-43371D01*
X39185Y-43371D01*
X39128Y-43357D01*
X39100Y-43342D01*
X39085Y-43328D01*
X39071Y-43300D01*
X42871Y-45300D02*
X42728Y-45400D01*
X42871Y-45471D02*
X42571Y-45471D01*
X42571Y-45357D01*
X42585Y-45328D01*
X42600Y-45314D01*
X42628Y-45300D01*
X42671Y-45300D01*
X42700Y-45314D01*
X42714Y-45328D01*
X42728Y-45357D01*
X42728Y-45471D01*
X42700Y-45128D02*
X42685Y-45157D01*
X42671Y-45171D01*
X42642Y-45185D01*
X42628Y-45185D01*
X42600Y-45171D01*
X42585Y-45157D01*
X42571Y-45128D01*
X42571Y-45071D01*
X42585Y-45042D01*
X42600Y-45028D01*
X42628Y-45014D01*
X42642Y-45014D01*
X42671Y-45028D01*
X42685Y-45042D01*
X42700Y-45071D01*
X42700Y-45128D01*
X42714Y-45157D01*
X42728Y-45171D01*
X42757Y-45185D01*
X42814Y-45185D01*
X42842Y-45171D01*
X42857Y-45157D01*
X42871Y-45128D01*
X42871Y-45071D01*
X42857Y-45042D01*
X42842Y-45028D01*
X42814Y-45014D01*
X42757Y-45014D01*
X42728Y-45028D01*
X42714Y-45042D01*
X42700Y-45071D01*
X43100Y-45621D02*
X43085Y-45607D01*
X43071Y-45578D01*
X43071Y-45507D01*
X43085Y-45478D01*
X43100Y-45464D01*
X43128Y-45450D01*
X43157Y-45450D01*
X43200Y-45464D01*
X43371Y-45635D01*
X43371Y-45450D01*
X43100Y-45335D02*
X43085Y-45321D01*
X43071Y-45292D01*
X43071Y-45221D01*
X43085Y-45192D01*
X43100Y-45178D01*
X43128Y-45164D01*
X43157Y-45164D01*
X43200Y-45178D01*
X43371Y-45350D01*
X43371Y-45164D01*
X43071Y-44978D02*
X43071Y-44950D01*
X43085Y-44921D01*
X43100Y-44907D01*
X43128Y-44892D01*
X43185Y-44878D01*
X43257Y-44878D01*
X43314Y-44892D01*
X43342Y-44907D01*
X43357Y-44921D01*
X43371Y-44950D01*
X43371Y-44978D01*
X43357Y-45007D01*
X43342Y-45021D01*
X43314Y-45035D01*
X43257Y-45050D01*
X43185Y-45050D01*
X43128Y-45035D01*
X43100Y-45021D01*
X43085Y-45007D01*
X43071Y-44978D01*
X43871Y-40050D02*
X43728Y-40150D01*
X43871Y-40221D02*
X43571Y-40221D01*
X43571Y-40107D01*
X43585Y-40078D01*
X43600Y-40064D01*
X43628Y-40050D01*
X43671Y-40050D01*
X43700Y-40064D01*
X43714Y-40078D01*
X43728Y-40107D01*
X43728Y-40221D01*
X43571Y-39778D02*
X43571Y-39921D01*
X43714Y-39935D01*
X43700Y-39921D01*
X43685Y-39892D01*
X43685Y-39821D01*
X43700Y-39792D01*
X43714Y-39778D01*
X43742Y-39764D01*
X43814Y-39764D01*
X43842Y-39778D01*
X43857Y-39792D01*
X43871Y-39821D01*
X43871Y-39892D01*
X43857Y-39921D01*
X43842Y-39935D01*
X43600Y-38621D02*
X43585Y-38607D01*
X43571Y-38578D01*
X43571Y-38507D01*
X43585Y-38478D01*
X43600Y-38464D01*
X43628Y-38450D01*
X43657Y-38450D01*
X43700Y-38464D01*
X43871Y-38635D01*
X43871Y-38450D01*
X43600Y-38335D02*
X43585Y-38321D01*
X43571Y-38292D01*
X43571Y-38221D01*
X43585Y-38192D01*
X43600Y-38178D01*
X43628Y-38164D01*
X43657Y-38164D01*
X43700Y-38178D01*
X43871Y-38350D01*
X43871Y-38164D01*
X43571Y-37978D02*
X43571Y-37950D01*
X43585Y-37921D01*
X43600Y-37907D01*
X43628Y-37892D01*
X43685Y-37878D01*
X43757Y-37878D01*
X43814Y-37892D01*
X43842Y-37907D01*
X43857Y-37921D01*
X43871Y-37950D01*
X43871Y-37978D01*
X43857Y-38007D01*
X43842Y-38021D01*
X43814Y-38035D01*
X43757Y-38050D01*
X43685Y-38050D01*
X43628Y-38035D01*
X43600Y-38021D01*
X43585Y-38007D01*
X43571Y-37978D01*
X42871Y-40050D02*
X42728Y-40150D01*
X42871Y-40221D02*
X42571Y-40221D01*
X42571Y-40107D01*
X42585Y-40078D01*
X42600Y-40064D01*
X42628Y-40050D01*
X42671Y-40050D01*
X42700Y-40064D01*
X42714Y-40078D01*
X42728Y-40107D01*
X42728Y-40221D01*
X42571Y-39792D02*
X42571Y-39850D01*
X42585Y-39878D01*
X42600Y-39892D01*
X42642Y-39921D01*
X42700Y-39935D01*
X42814Y-39935D01*
X42842Y-39921D01*
X42857Y-39907D01*
X42871Y-39878D01*
X42871Y-39821D01*
X42857Y-39792D01*
X42842Y-39778D01*
X42814Y-39764D01*
X42742Y-39764D01*
X42714Y-39778D01*
X42700Y-39792D01*
X42685Y-39821D01*
X42685Y-39878D01*
X42700Y-39907D01*
X42714Y-39921D01*
X42742Y-39935D01*
X42600Y-38621D02*
X42585Y-38607D01*
X42571Y-38578D01*
X42571Y-38507D01*
X42585Y-38478D01*
X42600Y-38464D01*
X42628Y-38450D01*
X42657Y-38450D01*
X42700Y-38464D01*
X42871Y-38635D01*
X42871Y-38450D01*
X42600Y-38335D02*
X42585Y-38321D01*
X42571Y-38292D01*
X42571Y-38221D01*
X42585Y-38192D01*
X42600Y-38178D01*
X42628Y-38164D01*
X42657Y-38164D01*
X42700Y-38178D01*
X42871Y-38350D01*
X42871Y-38164D01*
X42571Y-37978D02*
X42571Y-37950D01*
X42585Y-37921D01*
X42600Y-37907D01*
X42628Y-37892D01*
X42685Y-37878D01*
X42757Y-37878D01*
X42814Y-37892D01*
X42842Y-37907D01*
X42857Y-37921D01*
X42871Y-37950D01*
X42871Y-37978D01*
X42857Y-38007D01*
X42842Y-38021D01*
X42814Y-38035D01*
X42757Y-38050D01*
X42685Y-38050D01*
X42628Y-38035D01*
X42600Y-38021D01*
X42585Y-38007D01*
X42571Y-37978D01*
X43871Y-45300D02*
X43728Y-45400D01*
X43871Y-45471D02*
X43571Y-45471D01*
X43571Y-45357D01*
X43585Y-45328D01*
X43600Y-45314D01*
X43628Y-45300D01*
X43671Y-45300D01*
X43700Y-45314D01*
X43714Y-45328D01*
X43728Y-45357D01*
X43728Y-45471D01*
X43571Y-45200D02*
X43571Y-45000D01*
X43871Y-45128D01*
X44100Y-45621D02*
X44085Y-45607D01*
X44071Y-45578D01*
X44071Y-45507D01*
X44085Y-45478D01*
X44100Y-45464D01*
X44128Y-45450D01*
X44157Y-45450D01*
X44200Y-45464D01*
X44371Y-45635D01*
X44371Y-45450D01*
X44100Y-45335D02*
X44085Y-45321D01*
X44071Y-45292D01*
X44071Y-45221D01*
X44085Y-45192D01*
X44100Y-45178D01*
X44128Y-45164D01*
X44157Y-45164D01*
X44200Y-45178D01*
X44371Y-45350D01*
X44371Y-45164D01*
X44071Y-44978D02*
X44071Y-44950D01*
X44085Y-44921D01*
X44100Y-44907D01*
X44128Y-44892D01*
X44185Y-44878D01*
X44257Y-44878D01*
X44314Y-44892D01*
X44342Y-44907D01*
X44357Y-44921D01*
X44371Y-44950D01*
X44371Y-44978D01*
X44357Y-45007D01*
X44342Y-45021D01*
X44314Y-45035D01*
X44257Y-45050D01*
X44185Y-45050D01*
X44128Y-45035D01*
X44100Y-45021D01*
X44085Y-45007D01*
X44071Y-44978D01*
X29371Y-28550D02*
X29228Y-28650D01*
X29371Y-28721D02*
X29071Y-28721D01*
X29071Y-28607D01*
X29085Y-28578D01*
X29100Y-28564D01*
X29128Y-28550D01*
X29171Y-28550D01*
X29200Y-28564D01*
X29214Y-28578D01*
X29228Y-28607D01*
X29228Y-28721D01*
X29171Y-28292D02*
X29371Y-28292D01*
X29057Y-28364D02*
X29271Y-28435D01*
X29271Y-28250D01*
X29371Y-26928D02*
X29371Y-27099D01*
X29371Y-27014D02*
X29071Y-27014D01*
X29114Y-27042D01*
X29142Y-27071D01*
X29157Y-27099D01*
X29071Y-26742D02*
X29071Y-26714D01*
X29085Y-26685D01*
X29100Y-26671D01*
X29128Y-26657D01*
X29185Y-26642D01*
X29257Y-26642D01*
X29314Y-26657D01*
X29342Y-26671D01*
X29357Y-26685D01*
X29371Y-26714D01*
X29371Y-26742D01*
X29357Y-26771D01*
X29342Y-26785D01*
X29314Y-26799D01*
X29257Y-26814D01*
X29185Y-26814D01*
X29128Y-26799D01*
X29100Y-26785D01*
X29085Y-26771D01*
X29071Y-26742D01*
X29371Y-26514D02*
X29071Y-26514D01*
X29257Y-26485D02*
X29371Y-26400D01*
X29171Y-26400D02*
X29285Y-26514D01*
X30371Y-28550D02*
X30228Y-28650D01*
X30371Y-28721D02*
X30071Y-28721D01*
X30071Y-28607D01*
X30085Y-28578D01*
X30100Y-28564D01*
X30128Y-28550D01*
X30171Y-28550D01*
X30200Y-28564D01*
X30214Y-28578D01*
X30228Y-28607D01*
X30228Y-28721D01*
X30100Y-28435D02*
X30085Y-28421D01*
X30071Y-28392D01*
X30071Y-28321D01*
X30085Y-28292D01*
X30100Y-28278D01*
X30128Y-28264D01*
X30157Y-28264D01*
X30200Y-28278D01*
X30371Y-28450D01*
X30371Y-28264D01*
X30371Y-26535D02*
X30371Y-26707D01*
X30371Y-26621D02*
X30071Y-26621D01*
X30114Y-26649D01*
X30142Y-26678D01*
X30157Y-26707D01*
X30371Y-26407D02*
X30071Y-26407D01*
X30257Y-26378D02*
X30371Y-26292D01*
X30171Y-26292D02*
X30285Y-26407D01*
X28371Y-28550D02*
X28228Y-28650D01*
X28371Y-28721D02*
X28071Y-28721D01*
X28071Y-28607D01*
X28085Y-28578D01*
X28100Y-28564D01*
X28128Y-28550D01*
X28171Y-28550D01*
X28200Y-28564D01*
X28214Y-28578D01*
X28228Y-28607D01*
X28228Y-28721D01*
X28071Y-28450D02*
X28071Y-28264D01*
X28185Y-28364D01*
X28185Y-28321D01*
X28200Y-28292D01*
X28214Y-28278D01*
X28242Y-28264D01*
X28314Y-28264D01*
X28342Y-28278D01*
X28357Y-28292D01*
X28371Y-28321D01*
X28371Y-28407D01*
X28357Y-28435D01*
X28342Y-28450D01*
X28371Y-26535D02*
X28371Y-26707D01*
X28371Y-26621D02*
X28071Y-26621D01*
X28114Y-26649D01*
X28142Y-26678D01*
X28157Y-26707D01*
X28371Y-26407D02*
X28071Y-26407D01*
X28257Y-26378D02*
X28371Y-26292D01*
X28171Y-26292D02*
X28285Y-26407D01*
X57450Y-34871D02*
X57350Y-34728D01*
X57278Y-34871D02*
X57278Y-34571D01*
X57392Y-34571D01*
X57421Y-34585D01*
X57435Y-34600D01*
X57450Y-34628D01*
X57450Y-34671D01*
X57435Y-34700D01*
X57421Y-34714D01*
X57392Y-34728D01*
X57278Y-34728D01*
X57735Y-34871D02*
X57564Y-34871D01*
X57650Y-34871D02*
X57650Y-34571D01*
X57621Y-34614D01*
X57592Y-34642D01*
X57564Y-34657D01*
X59128Y-34600D02*
X59142Y-34585D01*
X59171Y-34571D01*
X59242Y-34571D01*
X59271Y-34585D01*
X59285Y-34600D01*
X59300Y-34628D01*
X59300Y-34657D01*
X59285Y-34700D01*
X59114Y-34871D01*
X59300Y-34871D01*
X59414Y-34600D02*
X59428Y-34585D01*
X59457Y-34571D01*
X59528Y-34571D01*
X59557Y-34585D01*
X59571Y-34600D01*
X59585Y-34628D01*
X59585Y-34657D01*
X59571Y-34700D01*
X59400Y-34871D01*
X59585Y-34871D01*
X59771Y-34571D02*
X59800Y-34571D01*
X59828Y-34585D01*
X59842Y-34600D01*
X59857Y-34628D01*
X59871Y-34685D01*
X59871Y-34757D01*
X59857Y-34814D01*
X59842Y-34842D01*
X59828Y-34857D01*
X59800Y-34871D01*
X59771Y-34871D01*
X59742Y-34857D01*
X59728Y-34842D01*
X59714Y-34814D01*
X59700Y-34757D01*
X59700Y-34685D01*
X59714Y-34628D01*
X59728Y-34600D01*
X59742Y-34585D01*
X59771Y-34571D01*
X40278Y-21871D02*
X40278Y-21571D01*
X40450Y-21871D02*
X40321Y-21700D01*
X40450Y-21571D02*
X40278Y-21742D01*
X40735Y-21871D02*
X40564Y-21871D01*
X40650Y-21871D02*
X40650Y-21571D01*
X40621Y-21614D01*
X40592Y-21642D01*
X40564Y-21657D01*
X39278Y-21871D02*
X39278Y-21571D01*
X39450Y-21871D02*
X39321Y-21700D01*
X39450Y-21571D02*
X39278Y-21742D01*
X39564Y-21600D02*
X39578Y-21585D01*
X39607Y-21571D01*
X39678Y-21571D01*
X39707Y-21585D01*
X39721Y-21600D01*
X39735Y-21628D01*
X39735Y-21657D01*
X39721Y-21700D01*
X39550Y-21871D01*
X39735Y-21871D01*
X54371Y-21942D02*
X54228Y-22042D01*
X54371Y-22114D02*
X54071Y-22114D01*
X54071Y-22000D01*
X54085Y-21971D01*
X54100Y-21957D01*
X54128Y-21942D01*
X54171Y-21942D01*
X54200Y-21957D01*
X54214Y-21971D01*
X54228Y-22000D01*
X54228Y-22114D01*
X54371Y-21657D02*
X54371Y-21828D01*
X54371Y-21742D02*
X54071Y-21742D01*
X54114Y-21771D01*
X54142Y-21800D01*
X54157Y-21828D01*
X54100Y-21542D02*
X54085Y-21528D01*
X54071Y-21500D01*
X54071Y-21428D01*
X54085Y-21400D01*
X54100Y-21385D01*
X54128Y-21371D01*
X54157Y-21371D01*
X54200Y-21385D01*
X54371Y-21557D01*
X54371Y-21371D01*
X54100Y-23621D02*
X54085Y-23607D01*
X54071Y-23578D01*
X54071Y-23507D01*
X54085Y-23478D01*
X54100Y-23464D01*
X54128Y-23450D01*
X54157Y-23450D01*
X54200Y-23464D01*
X54371Y-23635D01*
X54371Y-23450D01*
X54100Y-23335D02*
X54085Y-23321D01*
X54071Y-23292D01*
X54071Y-23221D01*
X54085Y-23192D01*
X54100Y-23178D01*
X54128Y-23164D01*
X54157Y-23164D01*
X54200Y-23178D01*
X54371Y-23350D01*
X54371Y-23164D01*
X54071Y-22978D02*
X54071Y-22950D01*
X54085Y-22921D01*
X54100Y-22907D01*
X54128Y-22892D01*
X54185Y-22878D01*
X54257Y-22878D01*
X54314Y-22892D01*
X54342Y-22907D01*
X54357Y-22921D01*
X54371Y-22950D01*
X54371Y-22978D01*
X54357Y-23007D01*
X54342Y-23021D01*
X54314Y-23035D01*
X54257Y-23050D01*
X54185Y-23050D01*
X54128Y-23035D01*
X54100Y-23021D01*
X54085Y-23007D01*
X54071Y-22978D01*
X51871Y-21942D02*
X51728Y-22042D01*
X51871Y-22114D02*
X51571Y-22114D01*
X51571Y-22000D01*
X51585Y-21971D01*
X51600Y-21957D01*
X51628Y-21942D01*
X51671Y-21942D01*
X51700Y-21957D01*
X51714Y-21971D01*
X51728Y-22000D01*
X51728Y-22114D01*
X51871Y-21657D02*
X51871Y-21828D01*
X51871Y-21742D02*
X51571Y-21742D01*
X51614Y-21771D01*
X51642Y-21800D01*
X51657Y-21828D01*
X51871Y-21371D02*
X51871Y-21542D01*
X51871Y-21457D02*
X51571Y-21457D01*
X51614Y-21485D01*
X51642Y-21514D01*
X51657Y-21542D01*
X51600Y-23621D02*
X51585Y-23607D01*
X51571Y-23578D01*
X51571Y-23507D01*
X51585Y-23478D01*
X51600Y-23464D01*
X51628Y-23450D01*
X51657Y-23450D01*
X51700Y-23464D01*
X51871Y-23635D01*
X51871Y-23450D01*
X51600Y-23335D02*
X51585Y-23321D01*
X51571Y-23292D01*
X51571Y-23221D01*
X51585Y-23192D01*
X51600Y-23178D01*
X51628Y-23164D01*
X51657Y-23164D01*
X51700Y-23178D01*
X51871Y-23350D01*
X51871Y-23164D01*
X51571Y-22978D02*
X51571Y-22950D01*
X51585Y-22921D01*
X51600Y-22907D01*
X51628Y-22892D01*
X51685Y-22878D01*
X51757Y-22878D01*
X51814Y-22892D01*
X51842Y-22907D01*
X51857Y-22921D01*
X51871Y-22950D01*
X51871Y-22978D01*
X51857Y-23007D01*
X51842Y-23021D01*
X51814Y-23035D01*
X51757Y-23050D01*
X51685Y-23050D01*
X51628Y-23035D01*
X51600Y-23021D01*
X51585Y-23007D01*
X51571Y-22978D01*
X49885Y-20321D02*
X50057Y-20321D01*
X49971Y-20621D02*
X49971Y-20321D01*
X50128Y-20621D02*
X50285Y-20421D01*
X50128Y-20421D02*
X50285Y-20621D01*
X50542Y-20621D02*
X50400Y-20621D01*
X50400Y-20321D01*
X50642Y-20464D02*
X50742Y-20464D01*
X50785Y-20621D02*
X50642Y-20621D01*
X50642Y-20321D01*
X50785Y-20321D01*
X50914Y-20621D02*
X50914Y-20321D01*
X50985Y-20321D01*
X51028Y-20335D01*
X51057Y-20364D01*
X51071Y-20392D01*
X51085Y-20450D01*
X51085Y-20492D01*
X51071Y-20550D01*
X51057Y-20578D01*
X51028Y-20607D01*
X50985Y-20621D01*
X50914Y-20621D01*
X50064Y-24621D02*
X49964Y-24478D01*
X49892Y-24621D02*
X49892Y-24321D01*
X50007Y-24321D01*
X50035Y-24335D01*
X50050Y-24350D01*
X50064Y-24378D01*
X50064Y-24421D01*
X50050Y-24450D01*
X50035Y-24464D01*
X50007Y-24478D01*
X49892Y-24478D01*
X50164Y-24621D02*
X50321Y-24421D01*
X50164Y-24421D02*
X50321Y-24621D01*
X50578Y-24621D02*
X50435Y-24621D01*
X50435Y-24321D01*
X50678Y-24464D02*
X50778Y-24464D01*
X50821Y-24621D02*
X50678Y-24621D01*
X50678Y-24321D01*
X50821Y-24321D01*
X50950Y-24621D02*
X50950Y-24321D01*
X51021Y-24321D01*
X51064Y-24335D01*
X51092Y-24364D01*
X51107Y-24392D01*
X51121Y-24450D01*
X51121Y-24492D01*
X51107Y-24550D01*
X51092Y-24578D01*
X51064Y-24607D01*
X51021Y-24621D01*
X50950Y-24621D01*
X47807Y-27342D02*
X47792Y-27357D01*
X47750Y-27371D01*
X47721Y-27371D01*
X47678Y-27357D01*
X47650Y-27328D01*
X47635Y-27300D01*
X47621Y-27242D01*
X47621Y-27200D01*
X47635Y-27142D01*
X47650Y-27114D01*
X47678Y-27085D01*
X47721Y-27071D01*
X47750Y-27071D01*
X47792Y-27085D01*
X47807Y-27100D01*
X48092Y-27371D02*
X47921Y-27371D01*
X48007Y-27371D02*
X48007Y-27071D01*
X47978Y-27114D01*
X47950Y-27142D01*
X47921Y-27157D01*
X48235Y-27371D02*
X48292Y-27371D01*
X48321Y-27357D01*
X48335Y-27342D01*
X48364Y-27300D01*
X48378Y-27242D01*
X48378Y-27128D01*
X48364Y-27100D01*
X48350Y-27085D01*
X48321Y-27071D01*
X48264Y-27071D01*
X48235Y-27085D01*
X48221Y-27100D01*
X48207Y-27128D01*
X48207Y-27200D01*
X48221Y-27228D01*
X48235Y-27242D01*
X48264Y-27257D01*
X48321Y-27257D01*
X48350Y-27242D01*
X48364Y-27228D01*
X48378Y-27200D01*
X48992Y-27071D02*
X49178Y-27071D01*
X49078Y-27185D01*
X49121Y-27185D01*
X49150Y-27200D01*
X49164Y-27214D01*
X49178Y-27242D01*
X49178Y-27314D01*
X49164Y-27342D01*
X49150Y-27357D01*
X49121Y-27371D01*
X49035Y-27371D01*
X49007Y-27357D01*
X48992Y-27342D01*
X49364Y-27071D02*
X49392Y-27071D01*
X49421Y-27085D01*
X49435Y-27100D01*
X49450Y-27128D01*
X49464Y-27185D01*
X49464Y-27257D01*
X49450Y-27314D01*
X49435Y-27342D01*
X49421Y-27357D01*
X49392Y-27371D01*
X49364Y-27371D01*
X49335Y-27357D01*
X49321Y-27342D01*
X49307Y-27314D01*
X49292Y-27257D01*
X49292Y-27185D01*
X49307Y-27128D01*
X49321Y-27100D01*
X49335Y-27085D01*
X49364Y-27071D01*
X49592Y-27171D02*
X49592Y-27471D01*
X49592Y-27185D02*
X49621Y-27171D01*
X49678Y-27171D01*
X49707Y-27185D01*
X49721Y-27200D01*
X49735Y-27228D01*
X49735Y-27314D01*
X49721Y-27342D01*
X49707Y-27357D01*
X49678Y-27371D01*
X49621Y-27371D01*
X49592Y-27357D01*
X49964Y-27214D02*
X49864Y-27214D01*
X49864Y-27371D02*
X49864Y-27071D01*
X50007Y-27071D01*
X32307Y-24871D02*
X32207Y-24728D01*
X32135Y-24871D02*
X32135Y-24571D01*
X32250Y-24571D01*
X32278Y-24585D01*
X32292Y-24600D01*
X32307Y-24628D01*
X32307Y-24671D01*
X32292Y-24700D01*
X32278Y-24714D01*
X32250Y-24728D01*
X32135Y-24728D01*
X32592Y-24871D02*
X32421Y-24871D01*
X32507Y-24871D02*
X32507Y-24571D01*
X32478Y-24614D01*
X32450Y-24642D01*
X32421Y-24657D01*
X32864Y-24571D02*
X32721Y-24571D01*
X32707Y-24714D01*
X32721Y-24700D01*
X32750Y-24685D01*
X32821Y-24685D01*
X32850Y-24700D01*
X32864Y-24714D01*
X32878Y-24742D01*
X32878Y-24814D01*
X32864Y-24842D01*
X32850Y-24857D01*
X32821Y-24871D01*
X32750Y-24871D01*
X32721Y-24857D01*
X32707Y-24842D01*
X34321Y-24871D02*
X34150Y-24871D01*
X34235Y-24871D02*
X34235Y-24571D01*
X34207Y-24614D01*
X34178Y-24642D01*
X34150Y-24657D01*
X34492Y-24700D02*
X34464Y-24685D01*
X34450Y-24671D01*
X34435Y-24642D01*
X34435Y-24628D01*
X34450Y-24600D01*
X34464Y-24585D01*
X34492Y-24571D01*
X34550Y-24571D01*
X34578Y-24585D01*
X34592Y-24600D01*
X34607Y-24628D01*
X34607Y-24642D01*
X34592Y-24671D01*
X34578Y-24685D01*
X34550Y-24700D01*
X34492Y-24700D01*
X34464Y-24714D01*
X34450Y-24728D01*
X34435Y-24757D01*
X34435Y-24814D01*
X34450Y-24842D01*
X34464Y-24857D01*
X34492Y-24871D01*
X34550Y-24871D01*
X34578Y-24857D01*
X34592Y-24842D01*
X34607Y-24814D01*
X34607Y-24757D01*
X34592Y-24728D01*
X34578Y-24714D01*
X34550Y-24700D01*
X34735Y-24871D02*
X34735Y-24571D01*
X34764Y-24757D02*
X34850Y-24871D01*
X34850Y-24671D02*
X34735Y-24785D01*
X26807Y-31342D02*
X26792Y-31357D01*
X26750Y-31371D01*
X26721Y-31371D01*
X26678Y-31357D01*
X26650Y-31328D01*
X26635Y-31300D01*
X26621Y-31242D01*
X26621Y-31200D01*
X26635Y-31142D01*
X26650Y-31114D01*
X26678Y-31085D01*
X26721Y-31071D01*
X26750Y-31071D01*
X26792Y-31085D01*
X26807Y-31100D01*
X26921Y-31100D02*
X26935Y-31085D01*
X26964Y-31071D01*
X27035Y-31071D01*
X27064Y-31085D01*
X27078Y-31100D01*
X27092Y-31128D01*
X27092Y-31157D01*
X27078Y-31200D01*
X26907Y-31371D01*
X27092Y-31371D01*
X27378Y-31371D02*
X27207Y-31371D01*
X27292Y-31371D02*
X27292Y-31071D01*
X27264Y-31114D01*
X27235Y-31142D01*
X27207Y-31157D01*
X28285Y-31371D02*
X28114Y-31371D01*
X28200Y-31371D02*
X28200Y-31071D01*
X28171Y-31114D01*
X28142Y-31142D01*
X28114Y-31157D01*
X28471Y-31071D02*
X28500Y-31071D01*
X28528Y-31085D01*
X28542Y-31100D01*
X28557Y-31128D01*
X28571Y-31185D01*
X28571Y-31257D01*
X28557Y-31314D01*
X28542Y-31342D01*
X28528Y-31357D01*
X28500Y-31371D01*
X28471Y-31371D01*
X28442Y-31357D01*
X28428Y-31342D01*
X28414Y-31314D01*
X28400Y-31257D01*
X28400Y-31185D01*
X28414Y-31128D01*
X28428Y-31100D01*
X28442Y-31085D01*
X28471Y-31071D01*
X28757Y-31071D02*
X28785Y-31071D01*
X28814Y-31085D01*
X28828Y-31100D01*
X28842Y-31128D01*
X28857Y-31185D01*
X28857Y-31257D01*
X28842Y-31314D01*
X28828Y-31342D01*
X28814Y-31357D01*
X28785Y-31371D01*
X28757Y-31371D01*
X28728Y-31357D01*
X28714Y-31342D01*
X28700Y-31314D01*
X28685Y-31257D01*
X28685Y-31185D01*
X28700Y-31128D01*
X28714Y-31100D01*
X28728Y-31085D01*
X28757Y-31071D01*
X28985Y-31171D02*
X28985Y-31371D01*
X28985Y-31200D02*
X28999Y-31185D01*
X29028Y-31171D01*
X29071Y-31171D01*
X29099Y-31185D01*
X29114Y-31214D01*
X29114Y-31371D01*
X29357Y-31214D02*
X29257Y-31214D01*
X29257Y-31371D02*
X29257Y-31071D01*
X29400Y-31071D01*
X30807Y-23092D02*
X30792Y-23107D01*
X30750Y-23121D01*
X30721Y-23121D01*
X30678Y-23107D01*
X30650Y-23078D01*
X30635Y-23050D01*
X30621Y-22992D01*
X30621Y-22950D01*
X30635Y-22892D01*
X30650Y-22864D01*
X30678Y-22835D01*
X30721Y-22821D01*
X30750Y-22821D01*
X30792Y-22835D01*
X30807Y-22850D01*
X30921Y-22850D02*
X30935Y-22835D01*
X30964Y-22821D01*
X31035Y-22821D01*
X31064Y-22835D01*
X31078Y-22850D01*
X31092Y-22878D01*
X31092Y-22907D01*
X31078Y-22950D01*
X30907Y-23121D01*
X31092Y-23121D01*
X31207Y-22850D02*
X31221Y-22835D01*
X31250Y-22821D01*
X31321Y-22821D01*
X31350Y-22835D01*
X31364Y-22850D01*
X31378Y-22878D01*
X31378Y-22907D01*
X31364Y-22950D01*
X31192Y-23121D01*
X31378Y-23121D01*
X34785Y-23121D02*
X34614Y-23121D01*
X34700Y-23121D02*
X34700Y-22821D01*
X34671Y-22864D01*
X34642Y-22892D01*
X34614Y-22907D01*
X34971Y-22821D02*
X35000Y-22821D01*
X35028Y-22835D01*
X35042Y-22850D01*
X35057Y-22878D01*
X35071Y-22935D01*
X35071Y-23007D01*
X35057Y-23064D01*
X35042Y-23092D01*
X35028Y-23107D01*
X35000Y-23121D01*
X34971Y-23121D01*
X34942Y-23107D01*
X34928Y-23092D01*
X34914Y-23064D01*
X34900Y-23007D01*
X34900Y-22935D01*
X34914Y-22878D01*
X34928Y-22850D01*
X34942Y-22835D01*
X34971Y-22821D01*
X35257Y-22821D02*
X35285Y-22821D01*
X35314Y-22835D01*
X35328Y-22850D01*
X35342Y-22878D01*
X35357Y-22935D01*
X35357Y-23007D01*
X35342Y-23064D01*
X35328Y-23092D01*
X35314Y-23107D01*
X35285Y-23121D01*
X35257Y-23121D01*
X35228Y-23107D01*
X35214Y-23092D01*
X35200Y-23064D01*
X35185Y-23007D01*
X35185Y-22935D01*
X35200Y-22878D01*
X35214Y-22850D01*
X35228Y-22835D01*
X35257Y-22821D01*
X35485Y-22921D02*
X35485Y-23121D01*
X35485Y-22950D02*
X35499Y-22935D01*
X35528Y-22921D01*
X35571Y-22921D01*
X35599Y-22935D01*
X35614Y-22964D01*
X35614Y-23121D01*
X35857Y-22964D02*
X35757Y-22964D01*
X35757Y-23121D02*
X35757Y-22821D01*
X35900Y-22821D01*
X59771Y-33321D02*
X59771Y-33564D01*
X59785Y-33592D01*
X59800Y-33607D01*
X59828Y-33621D01*
X59885Y-33621D01*
X59914Y-33607D01*
X59928Y-33592D01*
X59942Y-33564D01*
X59942Y-33321D01*
X60228Y-33321D02*
X60085Y-33321D01*
X60071Y-33464D01*
X60085Y-33450D01*
X60114Y-33435D01*
X60185Y-33435D01*
X60214Y-33450D01*
X60228Y-33464D01*
X60242Y-33492D01*
X60242Y-33564D01*
X60228Y-33592D01*
X60214Y-33607D01*
X60185Y-33621D01*
X60114Y-33621D01*
X60085Y-33607D01*
X60071Y-33592D01*
X59121Y-29321D02*
X59307Y-29321D01*
X59207Y-29435D01*
X59250Y-29435D01*
X59278Y-29450D01*
X59292Y-29464D01*
X59307Y-29492D01*
X59307Y-29564D01*
X59292Y-29592D01*
X59278Y-29607D01*
X59250Y-29621D01*
X59164Y-29621D01*
X59135Y-29607D01*
X59121Y-29592D01*
X59435Y-29592D02*
X59450Y-29607D01*
X59435Y-29621D01*
X59421Y-29607D01*
X59435Y-29592D01*
X59435Y-29621D01*
X59550Y-29321D02*
X59735Y-29321D01*
X59635Y-29435D01*
X59678Y-29435D01*
X59707Y-29450D01*
X59721Y-29464D01*
X59735Y-29492D01*
X59735Y-29564D01*
X59721Y-29592D01*
X59707Y-29607D01*
X59678Y-29621D01*
X59592Y-29621D01*
X59564Y-29607D01*
X59550Y-29592D01*
X59821Y-29321D02*
X59921Y-29621D01*
X60021Y-29321D01*
X60292Y-29621D02*
X60192Y-29478D01*
X60121Y-29621D02*
X60121Y-29321D01*
X60235Y-29321D01*
X60264Y-29335D01*
X60278Y-29350D01*
X60292Y-29378D01*
X60292Y-29421D01*
X60278Y-29450D01*
X60264Y-29464D01*
X60235Y-29478D01*
X60121Y-29478D01*
X60421Y-29464D02*
X60521Y-29464D01*
X60564Y-29621D02*
X60421Y-29621D01*
X60421Y-29321D01*
X60564Y-29321D01*
X60850Y-29335D02*
X60821Y-29321D01*
X60778Y-29321D01*
X60735Y-29335D01*
X60707Y-29364D01*
X60692Y-29392D01*
X60678Y-29450D01*
X60678Y-29492D01*
X60692Y-29550D01*
X60707Y-29578D01*
X60735Y-29607D01*
X60778Y-29621D01*
X60807Y-29621D01*
X60850Y-29607D01*
X60864Y-29592D01*
X60864Y-29492D01*
X60807Y-29492D01*
G54D18*
X57093Y-31192D02*
X57108Y-31207D01*
X57122Y-31250D01*
X57122Y-31278D01*
X57108Y-31321D01*
X57079Y-31350D01*
X57051Y-31364D01*
X56993Y-31378D01*
X56951Y-31378D01*
X56893Y-31364D01*
X56865Y-31350D01*
X56836Y-31321D01*
X56822Y-31278D01*
X56822Y-31250D01*
X56836Y-31207D01*
X56851Y-31192D01*
X57122Y-30907D02*
X57122Y-31078D01*
X57122Y-30992D02*
X56822Y-30992D01*
X56865Y-31021D01*
X56893Y-31050D01*
X56908Y-31078D01*
X56822Y-30807D02*
X56822Y-30621D01*
X56936Y-30721D01*
X56936Y-30678D01*
X56951Y-30650D01*
X56965Y-30635D01*
X56993Y-30621D01*
X57065Y-30621D01*
X57093Y-30635D01*
X57108Y-30650D01*
X57122Y-30678D01*
X57122Y-30764D01*
X57108Y-30792D01*
X57093Y-30807D01*
X58121Y-31148D02*
X58121Y-31291D01*
X58121Y-31220D02*
X57821Y-31220D01*
X57864Y-31244D01*
X57892Y-31267D01*
X57907Y-31291D01*
X57921Y-30934D02*
X58121Y-30934D01*
X57921Y-31041D02*
X58078Y-31041D01*
X58107Y-31029D01*
X58121Y-31005D01*
X58121Y-30970D01*
X58107Y-30946D01*
X58092Y-30934D01*
X57964Y-30732D02*
X57964Y-30815D01*
X58121Y-30815D02*
X57821Y-30815D01*
X57821Y-30696D01*
G54D21*
X58257Y-32114D02*
X58257Y-31885D01*
X58371Y-32000D02*
X58142Y-32000D01*
G54D20*
G54D11*
X47257Y-20821D02*
X47457Y-21121D01*
X47457Y-20821D02*
X47257Y-21121D01*
X47557Y-20850D02*
X47571Y-20835D01*
X47600Y-20821D01*
X47671Y-20821D01*
X47700Y-20835D01*
X47714Y-20850D01*
X47728Y-20878D01*
X47728Y-20907D01*
X47714Y-20950D01*
X47542Y-21121D01*
X47728Y-21121D01*
X48242Y-21121D02*
X48071Y-21121D01*
X48157Y-21121D02*
X48157Y-20821D01*
X48128Y-20864D01*
X48100Y-20892D01*
X48071Y-20907D01*
X48357Y-20850D02*
X48371Y-20835D01*
X48400Y-20821D01*
X48471Y-20821D01*
X48500Y-20835D01*
X48514Y-20850D01*
X48528Y-20878D01*
X48528Y-20907D01*
X48514Y-20950D01*
X48342Y-21121D01*
X48528Y-21121D01*
X48657Y-21121D02*
X48657Y-20821D01*
X48757Y-21035D01*
X48857Y-20821D01*
X48857Y-21121D01*
X49000Y-21121D02*
X49000Y-20821D01*
X49000Y-20964D02*
X49171Y-20964D01*
X49171Y-21121D02*
X49171Y-20821D01*
X49285Y-20921D02*
X49442Y-20921D01*
X49285Y-21121D01*
X49442Y-21121D01*
X30842Y-46942D02*
X30857Y-46957D01*
X30871Y-47000D01*
X30871Y-47028D01*
X30857Y-47071D01*
X30828Y-47100D01*
X30800Y-47114D01*
X30742Y-47128D01*
X30700Y-47128D01*
X30642Y-47114D01*
X30614Y-47100D01*
X30585Y-47071D01*
X30571Y-47028D01*
X30571Y-47000D01*
X30585Y-46957D01*
X30600Y-46942D01*
X30600Y-46828D02*
X30585Y-46814D01*
X30571Y-46785D01*
X30571Y-46714D01*
X30585Y-46685D01*
X30600Y-46671D01*
X30628Y-46657D01*
X30657Y-46657D01*
X30700Y-46671D01*
X30871Y-46842D01*
X30871Y-46657D01*
X30571Y-46385D02*
X30571Y-46528D01*
X30714Y-46542D01*
X30700Y-46528D01*
X30685Y-46500D01*
X30685Y-46428D01*
X30700Y-46400D01*
X30714Y-46385D01*
X30742Y-46371D01*
X30814Y-46371D01*
X30842Y-46385D01*
X30857Y-46400D01*
X30871Y-46428D01*
X30871Y-46500D01*
X30857Y-46528D01*
X30842Y-46542D01*
X30600Y-45885D02*
X30585Y-45871D01*
X30571Y-45842D01*
X30571Y-45771D01*
X30585Y-45742D01*
X30600Y-45728D01*
X30628Y-45714D01*
X30657Y-45714D01*
X30700Y-45728D01*
X30871Y-45900D01*
X30871Y-45714D01*
X30600Y-45600D02*
X30585Y-45585D01*
X30571Y-45557D01*
X30571Y-45485D01*
X30585Y-45457D01*
X30600Y-45442D01*
X30628Y-45428D01*
X30657Y-45428D01*
X30700Y-45442D01*
X30871Y-45614D01*
X30871Y-45428D01*
X30571Y-45242D02*
X30571Y-45214D01*
X30585Y-45185D01*
X30600Y-45171D01*
X30628Y-45157D01*
X30685Y-45142D01*
X30757Y-45142D01*
X30814Y-45157D01*
X30842Y-45171D01*
X30857Y-45185D01*
X30871Y-45214D01*
X30871Y-45242D01*
X30857Y-45271D01*
X30842Y-45285D01*
X30814Y-45300D01*
X30757Y-45314D01*
X30685Y-45314D01*
X30628Y-45300D01*
X30600Y-45285D01*
X30585Y-45271D01*
X30571Y-45242D01*
X30671Y-45014D02*
X30871Y-45014D01*
X30700Y-45014D02*
X30685Y-45000D01*
X30671Y-44971D01*
X30671Y-44928D01*
X30685Y-44900D01*
X30714Y-44885D01*
X30871Y-44885D01*
X30714Y-44642D02*
X30714Y-44742D01*
X30871Y-44742D02*
X30571Y-44742D01*
X30571Y-44600D01*
X41807Y-26342D02*
X41792Y-26357D01*
X41750Y-26371D01*
X41721Y-26371D01*
X41678Y-26357D01*
X41650Y-26328D01*
X41635Y-26300D01*
X41621Y-26242D01*
X41621Y-26200D01*
X41635Y-26142D01*
X41650Y-26114D01*
X41678Y-26085D01*
X41721Y-26071D01*
X41750Y-26071D01*
X41792Y-26085D01*
X41807Y-26100D01*
X41921Y-26100D02*
X41935Y-26085D01*
X41964Y-26071D01*
X42035Y-26071D01*
X42064Y-26085D01*
X42078Y-26100D01*
X42092Y-26128D01*
X42092Y-26157D01*
X42078Y-26200D01*
X41907Y-26371D01*
X42092Y-26371D01*
X42350Y-26171D02*
X42350Y-26371D01*
X42278Y-26057D02*
X42207Y-26271D01*
X42392Y-26271D01*
X41364Y-26600D02*
X41378Y-26585D01*
X41407Y-26571D01*
X41478Y-26571D01*
X41507Y-26585D01*
X41521Y-26600D01*
X41535Y-26628D01*
X41535Y-26657D01*
X41521Y-26700D01*
X41350Y-26871D01*
X41535Y-26871D01*
X41650Y-26600D02*
X41664Y-26585D01*
X41692Y-26571D01*
X41764Y-26571D01*
X41792Y-26585D01*
X41807Y-26600D01*
X41821Y-26628D01*
X41821Y-26657D01*
X41807Y-26700D01*
X41635Y-26871D01*
X41821Y-26871D01*
X42007Y-26571D02*
X42035Y-26571D01*
X42064Y-26585D01*
X42078Y-26600D01*
X42092Y-26628D01*
X42107Y-26685D01*
X42107Y-26757D01*
X42092Y-26814D01*
X42078Y-26842D01*
X42064Y-26857D01*
X42035Y-26871D01*
X42007Y-26871D01*
X41978Y-26857D01*
X41964Y-26842D01*
X41950Y-26814D01*
X41935Y-26757D01*
X41935Y-26685D01*
X41950Y-26628D01*
X41964Y-26600D01*
X41978Y-26585D01*
X42007Y-26571D01*
X42235Y-26671D02*
X42235Y-26871D01*
X42235Y-26700D02*
X42249Y-26685D01*
X42278Y-26671D01*
X42321Y-26671D01*
X42349Y-26685D01*
X42364Y-26714D01*
X42364Y-26871D01*
X42607Y-26714D02*
X42507Y-26714D01*
X42507Y-26871D02*
X42507Y-26571D01*
X42650Y-26571D01*
X39557Y-31342D02*
X39542Y-31357D01*
X39500Y-31371D01*
X39471Y-31371D01*
X39428Y-31357D01*
X39400Y-31328D01*
X39385Y-31300D01*
X39371Y-31242D01*
X39371Y-31200D01*
X39385Y-31142D01*
X39400Y-31114D01*
X39428Y-31085D01*
X39471Y-31071D01*
X39500Y-31071D01*
X39542Y-31085D01*
X39557Y-31100D01*
X39671Y-31100D02*
X39685Y-31085D01*
X39714Y-31071D01*
X39785Y-31071D01*
X39814Y-31085D01*
X39828Y-31100D01*
X39842Y-31128D01*
X39842Y-31157D01*
X39828Y-31200D01*
X39657Y-31371D01*
X39842Y-31371D01*
X39942Y-31071D02*
X40128Y-31071D01*
X40028Y-31185D01*
X40071Y-31185D01*
X40100Y-31200D01*
X40114Y-31214D01*
X40128Y-31242D01*
X40128Y-31314D01*
X40114Y-31342D01*
X40100Y-31357D01*
X40071Y-31371D01*
X39985Y-31371D01*
X39957Y-31357D01*
X39942Y-31342D01*
X39535Y-31871D02*
X39364Y-31871D01*
X39450Y-31871D02*
X39450Y-31571D01*
X39421Y-31614D01*
X39392Y-31642D01*
X39364Y-31657D01*
X39721Y-31571D02*
X39750Y-31571D01*
X39778Y-31585D01*
X39792Y-31600D01*
X39807Y-31628D01*
X39821Y-31685D01*
X39821Y-31757D01*
X39807Y-31814D01*
X39792Y-31842D01*
X39778Y-31857D01*
X39750Y-31871D01*
X39721Y-31871D01*
X39692Y-31857D01*
X39678Y-31842D01*
X39664Y-31814D01*
X39650Y-31757D01*
X39650Y-31685D01*
X39664Y-31628D01*
X39678Y-31600D01*
X39692Y-31585D01*
X39721Y-31571D01*
X40007Y-31571D02*
X40035Y-31571D01*
X40064Y-31585D01*
X40078Y-31600D01*
X40092Y-31628D01*
X40107Y-31685D01*
X40107Y-31757D01*
X40092Y-31814D01*
X40078Y-31842D01*
X40064Y-31857D01*
X40035Y-31871D01*
X40007Y-31871D01*
X39978Y-31857D01*
X39964Y-31842D01*
X39950Y-31814D01*
X39935Y-31757D01*
X39935Y-31685D01*
X39950Y-31628D01*
X39964Y-31600D01*
X39978Y-31585D01*
X40007Y-31571D01*
X40235Y-31671D02*
X40235Y-31871D01*
X40235Y-31700D02*
X40249Y-31685D01*
X40278Y-31671D01*
X40321Y-31671D01*
X40349Y-31685D01*
X40364Y-31714D01*
X40364Y-31871D01*
X40607Y-31714D02*
X40507Y-31714D01*
X40507Y-31871D02*
X40507Y-31571D01*
X40650Y-31571D01*
X41571Y-25478D02*
X41814Y-25478D01*
X41842Y-25464D01*
X41857Y-25450D01*
X41871Y-25421D01*
X41871Y-25364D01*
X41857Y-25335D01*
X41842Y-25321D01*
X41814Y-25307D01*
X41571Y-25307D01*
X41671Y-25035D02*
X41871Y-25035D01*
X41557Y-25107D02*
X41771Y-25178D01*
X41771Y-24992D01*
X47371Y-24721D02*
X47071Y-24721D01*
X47285Y-24621D01*
X47071Y-24521D01*
X47371Y-24521D01*
X47342Y-24207D02*
X47357Y-24221D01*
X47371Y-24264D01*
X47371Y-24292D01*
X47357Y-24335D01*
X47328Y-24364D01*
X47300Y-24378D01*
X47242Y-24392D01*
X47200Y-24392D01*
X47142Y-24378D01*
X47114Y-24364D01*
X47085Y-24335D01*
X47071Y-24292D01*
X47071Y-24264D01*
X47085Y-24221D01*
X47100Y-24207D01*
X47371Y-24078D02*
X47071Y-24078D01*
X47071Y-23964D01*
X47085Y-23935D01*
X47100Y-23921D01*
X47128Y-23907D01*
X47171Y-23907D01*
X47200Y-23921D01*
X47214Y-23935D01*
X47228Y-23964D01*
X47228Y-24078D01*
X47100Y-23792D02*
X47085Y-23778D01*
X47071Y-23749D01*
X47071Y-23678D01*
X47085Y-23649D01*
X47100Y-23635D01*
X47128Y-23621D01*
X47157Y-23621D01*
X47200Y-23635D01*
X47371Y-23807D01*
X47371Y-23621D01*
X47100Y-23507D02*
X47085Y-23492D01*
X47071Y-23464D01*
X47071Y-23392D01*
X47085Y-23364D01*
X47100Y-23349D01*
X47128Y-23335D01*
X47157Y-23335D01*
X47200Y-23349D01*
X47371Y-23521D01*
X47371Y-23335D01*
X47071Y-23150D02*
X47071Y-23121D01*
X47085Y-23092D01*
X47100Y-23078D01*
X47128Y-23064D01*
X47185Y-23050D01*
X47257Y-23050D01*
X47314Y-23064D01*
X47342Y-23078D01*
X47357Y-23092D01*
X47371Y-23121D01*
X47371Y-23150D01*
X47357Y-23178D01*
X47342Y-23192D01*
X47314Y-23207D01*
X47257Y-23221D01*
X47185Y-23221D01*
X47128Y-23207D01*
X47100Y-23192D01*
X47085Y-23178D01*
X47071Y-23150D01*
X47071Y-22864D02*
X47071Y-22835D01*
X47085Y-22807D01*
X47100Y-22792D01*
X47128Y-22778D01*
X47185Y-22764D01*
X47257Y-22764D01*
X47314Y-22778D01*
X47342Y-22792D01*
X47357Y-22807D01*
X47371Y-22835D01*
X47371Y-22864D01*
X47357Y-22892D01*
X47342Y-22907D01*
X47314Y-22921D01*
X47257Y-22935D01*
X47185Y-22935D01*
X47128Y-22921D01*
X47100Y-22907D01*
X47085Y-22892D01*
X47071Y-22864D01*
X45557Y-27342D02*
X45542Y-27357D01*
X45500Y-27371D01*
X45471Y-27371D01*
X45428Y-27357D01*
X45400Y-27328D01*
X45385Y-27300D01*
X45371Y-27242D01*
X45371Y-27200D01*
X45385Y-27142D01*
X45400Y-27114D01*
X45428Y-27085D01*
X45471Y-27071D01*
X45500Y-27071D01*
X45542Y-27085D01*
X45557Y-27100D01*
X45671Y-27100D02*
X45685Y-27085D01*
X45714Y-27071D01*
X45785Y-27071D01*
X45814Y-27085D01*
X45828Y-27100D01*
X45842Y-27128D01*
X45842Y-27157D01*
X45828Y-27200D01*
X45657Y-27371D01*
X45842Y-27371D01*
X46028Y-27071D02*
X46057Y-27071D01*
X46085Y-27085D01*
X46100Y-27100D01*
X46114Y-27128D01*
X46128Y-27185D01*
X46128Y-27257D01*
X46114Y-27314D01*
X46100Y-27342D01*
X46085Y-27357D01*
X46057Y-27371D01*
X46028Y-27371D01*
X46000Y-27357D01*
X45985Y-27342D01*
X45971Y-27314D01*
X45957Y-27257D01*
X45957Y-27185D01*
X45971Y-27128D01*
X45985Y-27100D01*
X46000Y-27085D01*
X46028Y-27071D01*
X46492Y-27071D02*
X46678Y-27071D01*
X46578Y-27185D01*
X46621Y-27185D01*
X46650Y-27200D01*
X46664Y-27214D01*
X46678Y-27242D01*
X46678Y-27314D01*
X46664Y-27342D01*
X46650Y-27357D01*
X46621Y-27371D01*
X46535Y-27371D01*
X46507Y-27357D01*
X46492Y-27342D01*
X46864Y-27071D02*
X46892Y-27071D01*
X46921Y-27085D01*
X46935Y-27100D01*
X46950Y-27128D01*
X46964Y-27185D01*
X46964Y-27257D01*
X46950Y-27314D01*
X46935Y-27342D01*
X46921Y-27357D01*
X46892Y-27371D01*
X46864Y-27371D01*
X46835Y-27357D01*
X46821Y-27342D01*
X46807Y-27314D01*
X46792Y-27257D01*
X46792Y-27185D01*
X46807Y-27128D01*
X46821Y-27100D01*
X46835Y-27085D01*
X46864Y-27071D01*
X47092Y-27171D02*
X47092Y-27471D01*
X47092Y-27185D02*
X47121Y-27171D01*
X47178Y-27171D01*
X47207Y-27185D01*
X47221Y-27200D01*
X47235Y-27228D01*
X47235Y-27314D01*
X47221Y-27342D01*
X47207Y-27357D01*
X47178Y-27371D01*
X47121Y-27371D01*
X47092Y-27357D01*
X47464Y-27214D02*
X47364Y-27214D01*
X47364Y-27371D02*
X47364Y-27071D01*
X47507Y-27071D01*
X40557Y-20592D02*
X40542Y-20607D01*
X40500Y-20621D01*
X40471Y-20621D01*
X40428Y-20607D01*
X40400Y-20578D01*
X40385Y-20550D01*
X40371Y-20492D01*
X40371Y-20450D01*
X40385Y-20392D01*
X40400Y-20364D01*
X40428Y-20335D01*
X40471Y-20321D01*
X40500Y-20321D01*
X40542Y-20335D01*
X40557Y-20350D01*
X40842Y-20621D02*
X40671Y-20621D01*
X40757Y-20621D02*
X40757Y-20321D01*
X40728Y-20364D01*
X40700Y-20392D01*
X40671Y-20407D01*
X41014Y-20450D02*
X40985Y-20435D01*
X40971Y-20421D01*
X40957Y-20392D01*
X40957Y-20378D01*
X40971Y-20350D01*
X40985Y-20335D01*
X41014Y-20321D01*
X41071Y-20321D01*
X41100Y-20335D01*
X41114Y-20350D01*
X41128Y-20378D01*
X41128Y-20392D01*
X41114Y-20421D01*
X41100Y-20435D01*
X41071Y-20450D01*
X41014Y-20450D01*
X40985Y-20464D01*
X40971Y-20478D01*
X40957Y-20507D01*
X40957Y-20564D01*
X40971Y-20592D01*
X40985Y-20607D01*
X41014Y-20621D01*
X41071Y-20621D01*
X41100Y-20607D01*
X41114Y-20592D01*
X41128Y-20564D01*
X41128Y-20507D01*
X41114Y-20478D01*
X41100Y-20464D01*
X41071Y-20450D01*
X40035Y-21121D02*
X39864Y-21121D01*
X39950Y-21121D02*
X39950Y-20821D01*
X39921Y-20864D01*
X39892Y-20892D01*
X39864Y-20907D01*
X40221Y-20821D02*
X40250Y-20821D01*
X40278Y-20835D01*
X40292Y-20850D01*
X40307Y-20878D01*
X40321Y-20935D01*
X40321Y-21007D01*
X40307Y-21064D01*
X40292Y-21092D01*
X40278Y-21107D01*
X40250Y-21121D01*
X40221Y-21121D01*
X40192Y-21107D01*
X40178Y-21092D01*
X40164Y-21064D01*
X40150Y-21007D01*
X40150Y-20935D01*
X40164Y-20878D01*
X40178Y-20850D01*
X40192Y-20835D01*
X40221Y-20821D01*
X40507Y-20821D02*
X40535Y-20821D01*
X40564Y-20835D01*
X40578Y-20850D01*
X40592Y-20878D01*
X40607Y-20935D01*
X40607Y-21007D01*
X40592Y-21064D01*
X40578Y-21092D01*
X40564Y-21107D01*
X40535Y-21121D01*
X40507Y-21121D01*
X40478Y-21107D01*
X40464Y-21092D01*
X40450Y-21064D01*
X40435Y-21007D01*
X40435Y-20935D01*
X40450Y-20878D01*
X40464Y-20850D01*
X40478Y-20835D01*
X40507Y-20821D01*
X40735Y-20921D02*
X40735Y-21121D01*
X40735Y-20950D02*
X40749Y-20935D01*
X40778Y-20921D01*
X40821Y-20921D01*
X40849Y-20935D01*
X40864Y-20964D01*
X40864Y-21121D01*
X41107Y-20964D02*
X41007Y-20964D01*
X41007Y-21121D02*
X41007Y-20821D01*
X41150Y-20821D01*
M02*
