G04 (created by PCBNEW (2013-07-07 BZR 4022)-stable) date Sun 20 Apr 2014 15:26:44 SAST*
%MOIN*%
G04 Gerber Fmt 3.4, Leading zero omitted, Abs format*
%FSLAX34Y34*%
G01*
G70*
G90*
G04 APERTURE LIST*
%ADD10C,0.00590551*%
%ADD11C,0.065*%
%ADD12R,0.065X0.065*%
%ADD13C,0.056*%
%ADD14R,0.1378X0.1378*%
%ADD15C,0.07*%
%ADD16R,0.07X0.07*%
%ADD17C,0.16*%
%ADD18R,0.055X0.055*%
%ADD19C,0.055*%
%ADD20R,0.06X0.0787402*%
%ADD21C,0.145669*%
%ADD22C,0.0511811*%
%ADD23R,0.016X0.085*%
%ADD24C,0.066*%
%ADD25C,0.035*%
%ADD26C,0.008*%
%ADD27C,0.03*%
%ADD28C,0.024*%
G04 APERTURE END LIST*
G54D10*
G54D11*
X50500Y-55000D03*
X50500Y-57000D03*
X53500Y-57000D03*
X53500Y-55000D03*
X55500Y-55000D03*
X55500Y-57000D03*
X58500Y-57000D03*
X58500Y-55000D03*
X30000Y-21000D03*
X28000Y-21000D03*
X28000Y-24000D03*
X30000Y-24000D03*
G54D12*
X26000Y-24000D03*
G54D11*
X26000Y-25000D03*
X26000Y-26000D03*
X26000Y-27000D03*
X26000Y-28000D03*
X26000Y-29000D03*
G54D12*
X50000Y-33500D03*
G54D11*
X50000Y-32500D03*
X50000Y-31500D03*
X50000Y-30500D03*
X50000Y-29500D03*
G54D12*
X32500Y-50000D03*
G54D11*
X32500Y-49000D03*
X32500Y-48000D03*
G54D12*
X32500Y-53000D03*
G54D11*
X32500Y-52000D03*
X32500Y-51000D03*
G54D12*
X47000Y-57000D03*
G54D11*
X46000Y-57000D03*
X45000Y-57000D03*
G54D12*
X36000Y-57000D03*
G54D11*
X37000Y-57000D03*
X38000Y-57000D03*
G54D12*
X50000Y-25500D03*
G54D11*
X50000Y-26500D03*
X50000Y-27500D03*
X54500Y-53500D03*
X50500Y-53500D03*
X59500Y-53500D03*
X55500Y-53500D03*
X41000Y-44500D03*
X42000Y-44500D03*
X55000Y-34000D03*
X56000Y-34000D03*
X41000Y-38500D03*
X42000Y-38500D03*
X41000Y-40500D03*
X42000Y-40500D03*
X41000Y-42500D03*
X42000Y-42500D03*
G54D13*
X41000Y-35500D03*
X41000Y-33500D03*
G54D12*
X40000Y-49500D03*
G54D11*
X40000Y-50500D03*
X40000Y-51500D03*
X40000Y-52500D03*
X40000Y-53500D03*
X40000Y-54500D03*
X40000Y-55500D03*
X40000Y-56500D03*
X43000Y-56500D03*
X43000Y-55500D03*
X43000Y-54500D03*
X43000Y-53500D03*
X43000Y-52500D03*
X43000Y-51500D03*
X43000Y-50500D03*
X43000Y-49500D03*
X27000Y-30500D03*
X29000Y-30500D03*
X28000Y-25000D03*
X30000Y-25000D03*
X47000Y-48500D03*
X47000Y-46500D03*
X31500Y-37500D03*
X31500Y-35500D03*
X59500Y-52500D03*
X57500Y-52500D03*
X54500Y-52500D03*
X52500Y-52500D03*
X38000Y-47500D03*
X36000Y-47500D03*
G54D12*
X48500Y-48500D03*
G54D11*
X48500Y-49500D03*
G54D12*
X43500Y-47500D03*
G54D11*
X43500Y-46500D03*
G54D12*
X52500Y-26000D03*
G54D11*
X52500Y-25000D03*
G54D12*
X57500Y-27500D03*
G54D11*
X57500Y-28500D03*
G54D12*
X55000Y-31500D03*
G54D11*
X55000Y-30500D03*
G54D12*
X55000Y-27500D03*
G54D11*
X55000Y-28500D03*
G54D12*
X52500Y-27500D03*
G54D11*
X52500Y-28500D03*
X44000Y-33500D03*
X43000Y-33500D03*
X44000Y-35500D03*
X43000Y-35500D03*
G54D14*
X57000Y-23941D03*
X57000Y-21579D03*
X55150Y-22760D03*
G54D11*
X26000Y-54500D03*
X26000Y-53500D03*
X26000Y-52500D03*
X26000Y-51500D03*
X26000Y-50500D03*
X26000Y-49500D03*
X26000Y-48500D03*
G54D12*
X26000Y-47500D03*
X26000Y-47500D03*
G54D11*
X26000Y-48500D03*
X26000Y-49500D03*
X26000Y-50500D03*
X26000Y-51500D03*
X26000Y-52500D03*
X26000Y-53500D03*
X26000Y-54500D03*
X27000Y-54500D03*
X27000Y-53500D03*
X27000Y-52500D03*
X27000Y-51500D03*
X27000Y-50500D03*
X27000Y-49500D03*
X27000Y-48500D03*
G54D12*
X27000Y-47500D03*
X25000Y-47500D03*
X27000Y-47500D03*
G54D11*
X25000Y-48500D03*
X27000Y-48500D03*
X25000Y-49500D03*
X27000Y-49500D03*
X25000Y-50500D03*
X27000Y-50500D03*
X25000Y-51500D03*
X27000Y-51500D03*
X25000Y-52500D03*
X27000Y-52500D03*
X25000Y-53500D03*
X27000Y-53500D03*
X25000Y-54500D03*
X27000Y-54500D03*
G54D12*
X51000Y-48500D03*
G54D11*
X52000Y-48500D03*
X53000Y-48500D03*
X54000Y-48500D03*
X55000Y-48500D03*
X56000Y-48500D03*
X57000Y-48500D03*
X58000Y-48500D03*
X59000Y-48500D03*
X60000Y-48500D03*
X61000Y-48500D03*
X62000Y-48500D03*
G54D12*
X51000Y-49500D03*
G54D11*
X52000Y-49500D03*
X53000Y-49500D03*
X54000Y-49500D03*
X55000Y-49500D03*
X56000Y-49500D03*
X57000Y-49500D03*
X58000Y-49500D03*
X59000Y-49500D03*
X60000Y-49500D03*
X61000Y-49500D03*
X62000Y-49500D03*
X47000Y-28500D03*
X47000Y-29500D03*
X47000Y-30500D03*
X47000Y-31500D03*
X47000Y-32500D03*
X47000Y-33500D03*
X47000Y-34500D03*
G54D12*
X47000Y-35500D03*
X47000Y-35500D03*
G54D11*
X47000Y-34500D03*
X47000Y-33500D03*
X47000Y-32500D03*
X47000Y-31500D03*
X47000Y-30500D03*
X47000Y-29500D03*
X47000Y-28500D03*
X46000Y-28500D03*
X46000Y-29500D03*
X46000Y-30500D03*
X46000Y-31500D03*
X46000Y-32500D03*
X46000Y-33500D03*
X46000Y-34500D03*
G54D12*
X46000Y-35500D03*
X48000Y-35500D03*
X46000Y-35500D03*
G54D11*
X48000Y-34500D03*
X46000Y-34500D03*
X48000Y-33500D03*
X46000Y-33500D03*
X48000Y-32500D03*
X46000Y-32500D03*
X48000Y-31500D03*
X46000Y-31500D03*
X48000Y-30500D03*
X46000Y-30500D03*
X48000Y-29500D03*
X46000Y-29500D03*
X48000Y-28500D03*
X46000Y-28500D03*
X47000Y-37500D03*
X47000Y-38500D03*
X47000Y-39500D03*
X47000Y-40500D03*
X47000Y-41500D03*
X47000Y-42500D03*
X47000Y-43500D03*
G54D12*
X47000Y-44500D03*
X47000Y-44500D03*
G54D11*
X47000Y-43500D03*
X47000Y-42500D03*
X47000Y-41500D03*
X47000Y-40500D03*
X47000Y-39500D03*
X47000Y-38500D03*
X47000Y-37500D03*
X46000Y-37500D03*
X46000Y-38500D03*
X46000Y-39500D03*
X46000Y-40500D03*
X46000Y-41500D03*
X46000Y-42500D03*
X46000Y-43500D03*
G54D12*
X46000Y-44500D03*
X48000Y-44500D03*
X46000Y-44500D03*
G54D11*
X48000Y-43500D03*
X46000Y-43500D03*
X48000Y-42500D03*
X46000Y-42500D03*
X48000Y-41500D03*
X46000Y-41500D03*
X48000Y-40500D03*
X46000Y-40500D03*
X48000Y-39500D03*
X46000Y-39500D03*
X48000Y-38500D03*
X46000Y-38500D03*
X48000Y-37500D03*
X46000Y-37500D03*
G54D12*
X26000Y-32500D03*
G54D11*
X26000Y-33500D03*
X26000Y-34500D03*
X26000Y-35500D03*
X26000Y-36500D03*
X26000Y-37500D03*
X27000Y-37500D03*
X27000Y-36500D03*
X27000Y-35500D03*
X27000Y-34500D03*
X27000Y-33500D03*
G54D12*
X27000Y-32500D03*
X25000Y-32500D03*
X27000Y-32500D03*
G54D11*
X25000Y-33500D03*
X27000Y-33500D03*
X25000Y-34500D03*
X27000Y-34500D03*
X25000Y-35500D03*
X27000Y-35500D03*
X25000Y-36500D03*
X27000Y-36500D03*
X25000Y-37500D03*
X27000Y-37500D03*
G54D12*
X26000Y-39500D03*
G54D11*
X26000Y-40500D03*
X26000Y-41500D03*
X26000Y-42500D03*
X26000Y-43500D03*
X26000Y-44500D03*
X27000Y-44500D03*
X27000Y-43500D03*
X27000Y-42500D03*
X27000Y-41500D03*
X27000Y-40500D03*
G54D12*
X27000Y-39500D03*
X25000Y-39500D03*
X27000Y-39500D03*
G54D11*
X25000Y-40500D03*
X27000Y-40500D03*
X25000Y-41500D03*
X27000Y-41500D03*
X25000Y-42500D03*
X27000Y-42500D03*
X25000Y-43500D03*
X27000Y-43500D03*
X25000Y-44500D03*
X27000Y-44500D03*
G54D15*
X60000Y-25500D03*
G54D16*
X60000Y-26500D03*
G54D15*
X60000Y-27500D03*
X38000Y-48500D03*
G54D16*
X38000Y-52500D03*
G54D15*
X48000Y-50500D03*
G54D16*
X48000Y-54500D03*
G54D15*
X45000Y-48500D03*
G54D16*
X45000Y-52500D03*
G54D15*
X47000Y-54500D03*
G54D16*
X47000Y-50500D03*
G54D15*
X46000Y-52500D03*
G54D16*
X46000Y-48500D03*
G54D15*
X35000Y-50500D03*
G54D16*
X35000Y-54500D03*
G54D15*
X36000Y-54500D03*
G54D16*
X36000Y-50500D03*
G54D15*
X37000Y-52500D03*
G54D16*
X37000Y-48500D03*
G54D15*
X54500Y-25500D03*
G54D16*
X58500Y-25500D03*
G54D12*
X44000Y-34500D03*
G54D17*
X26000Y-21500D03*
X61000Y-21500D03*
X26000Y-56500D03*
X61000Y-56500D03*
G54D18*
X32500Y-26500D03*
G54D19*
X32500Y-27500D03*
X32500Y-28500D03*
X32500Y-29500D03*
X32500Y-30500D03*
X32500Y-31500D03*
X32500Y-32500D03*
X32500Y-33500D03*
X32500Y-34500D03*
X32500Y-35500D03*
X32500Y-36500D03*
X32500Y-37500D03*
X32500Y-38500D03*
X32500Y-39500D03*
X32500Y-40500D03*
X32500Y-41500D03*
X32500Y-42500D03*
X32500Y-43500D03*
X32500Y-44500D03*
X32500Y-45500D03*
X38500Y-45500D03*
X38500Y-44500D03*
X38500Y-43500D03*
X38500Y-42500D03*
X38500Y-41500D03*
X38500Y-40500D03*
X38500Y-39500D03*
X38500Y-38500D03*
X38500Y-37500D03*
X38500Y-36500D03*
X38500Y-35500D03*
X38500Y-34500D03*
X38500Y-33500D03*
X38500Y-32500D03*
X38500Y-31500D03*
X38500Y-30500D03*
X38500Y-29500D03*
X38500Y-28500D03*
X38500Y-27500D03*
X38500Y-26500D03*
G54D20*
X33622Y-22023D03*
X34606Y-22023D03*
X35393Y-22023D03*
X36377Y-22023D03*
G54D21*
X37303Y-21000D03*
X32696Y-21000D03*
G54D22*
X35885Y-21000D03*
X34114Y-21000D03*
G54D19*
X43000Y-44500D03*
X43000Y-41500D03*
X44000Y-40500D03*
X44000Y-37500D03*
X43000Y-40500D03*
X43000Y-37500D03*
X44000Y-44500D03*
X44000Y-41500D03*
X29000Y-26000D03*
X29000Y-29000D03*
X30000Y-29000D03*
X30000Y-26000D03*
X28000Y-26000D03*
X28000Y-29000D03*
X57000Y-34000D03*
X60000Y-34000D03*
G54D23*
X46375Y-22850D03*
X46125Y-22850D03*
X45875Y-22850D03*
X45625Y-22850D03*
X47125Y-25150D03*
X47125Y-22850D03*
X46875Y-22850D03*
X46625Y-22850D03*
X45375Y-25150D03*
X45625Y-25150D03*
X45875Y-25150D03*
X46125Y-25150D03*
X46375Y-25150D03*
X46625Y-25150D03*
X45375Y-22850D03*
X46875Y-25150D03*
G54D18*
X40500Y-22500D03*
G54D19*
X40500Y-23500D03*
X40500Y-24500D03*
G54D18*
X39500Y-22500D03*
G54D19*
X39500Y-23500D03*
X39500Y-24500D03*
X54000Y-21500D03*
X51000Y-21500D03*
X54000Y-22500D03*
X51000Y-22500D03*
G54D24*
X50000Y-23500D03*
X49000Y-23500D03*
X50000Y-21500D03*
X49000Y-21500D03*
G54D19*
X46250Y-26500D03*
X44250Y-26500D03*
G54D11*
X57000Y-46500D03*
X57000Y-45500D03*
X57000Y-44500D03*
X57000Y-43500D03*
X57000Y-42500D03*
X57000Y-41500D03*
X57000Y-40500D03*
X57000Y-39500D03*
X57000Y-38500D03*
X57000Y-37500D03*
X57000Y-36500D03*
X57000Y-35500D03*
X58000Y-46500D03*
X58000Y-45500D03*
X58000Y-44500D03*
X58000Y-43500D03*
X58000Y-42500D03*
X58000Y-41500D03*
X58000Y-40500D03*
X58000Y-39500D03*
X58000Y-38500D03*
X58000Y-37500D03*
X58000Y-36500D03*
X58000Y-35500D03*
X62000Y-46500D03*
X62000Y-45500D03*
X62000Y-44500D03*
X62000Y-43500D03*
X62000Y-42500D03*
X62000Y-41500D03*
X62000Y-40500D03*
X62000Y-39500D03*
X62000Y-38500D03*
X62000Y-37500D03*
X62000Y-36500D03*
X62000Y-35500D03*
X59000Y-46500D03*
X59000Y-45500D03*
X59000Y-44500D03*
X59000Y-43500D03*
X59000Y-42500D03*
X59000Y-41500D03*
X59000Y-40500D03*
X59000Y-39500D03*
X59000Y-38500D03*
X59000Y-37500D03*
X59000Y-36500D03*
X59000Y-35500D03*
X60000Y-46500D03*
X60000Y-45500D03*
X60000Y-44500D03*
X60000Y-43500D03*
X60000Y-42500D03*
X60000Y-41500D03*
X60000Y-40500D03*
X60000Y-39500D03*
X60000Y-38500D03*
X60000Y-37500D03*
X60000Y-36500D03*
X60000Y-35500D03*
X61000Y-46500D03*
X61000Y-45500D03*
X61000Y-44500D03*
X61000Y-43500D03*
X61000Y-42500D03*
X61000Y-41500D03*
X61000Y-40500D03*
X61000Y-39500D03*
X61000Y-38500D03*
X61000Y-37500D03*
X61000Y-36500D03*
X61000Y-35500D03*
X51000Y-46500D03*
X51000Y-45500D03*
X51000Y-44500D03*
X51000Y-43500D03*
X51000Y-42500D03*
X51000Y-41500D03*
X51000Y-40500D03*
X51000Y-39500D03*
X51000Y-38500D03*
X51000Y-37500D03*
X51000Y-36500D03*
X51000Y-35500D03*
X52000Y-46500D03*
X52000Y-45500D03*
X52000Y-44500D03*
X52000Y-43500D03*
X52000Y-42500D03*
X52000Y-41500D03*
X52000Y-40500D03*
X52000Y-39500D03*
X52000Y-38500D03*
X52000Y-37500D03*
X52000Y-36500D03*
X52000Y-35500D03*
X56000Y-46500D03*
X56000Y-45500D03*
X56000Y-44500D03*
X56000Y-43500D03*
X56000Y-42500D03*
X56000Y-41500D03*
X56000Y-40500D03*
X56000Y-39500D03*
X56000Y-38500D03*
X56000Y-37500D03*
X56000Y-36500D03*
X56000Y-35500D03*
X54000Y-46500D03*
X54000Y-45500D03*
X54000Y-44500D03*
X54000Y-43500D03*
X54000Y-42500D03*
X54000Y-41500D03*
X54000Y-40500D03*
X54000Y-39500D03*
X54000Y-38500D03*
X54000Y-37500D03*
X54000Y-36500D03*
X54000Y-35500D03*
X55000Y-46500D03*
X55000Y-45500D03*
X55000Y-44500D03*
X55000Y-43500D03*
X55000Y-42500D03*
X55000Y-41500D03*
X55000Y-40500D03*
X55000Y-39500D03*
X55000Y-38500D03*
X55000Y-37500D03*
X55000Y-36500D03*
X55000Y-35500D03*
X53000Y-46500D03*
X53000Y-45500D03*
X53000Y-44500D03*
X53000Y-43500D03*
X53000Y-42500D03*
X53000Y-41500D03*
X53000Y-40500D03*
X53000Y-39500D03*
X53000Y-38500D03*
X53000Y-37500D03*
X53000Y-36500D03*
X53000Y-35500D03*
G54D19*
X41500Y-23500D03*
X44500Y-23500D03*
X41500Y-24500D03*
X44500Y-24500D03*
X43250Y-25500D03*
X44250Y-25500D03*
X43250Y-22500D03*
X44250Y-22500D03*
G54D18*
X51000Y-47500D03*
G54D19*
X52000Y-47500D03*
X53000Y-47500D03*
X54000Y-47500D03*
X55000Y-47500D03*
X56000Y-47500D03*
X57000Y-47500D03*
X58000Y-47500D03*
X59000Y-47500D03*
X60000Y-47500D03*
X61000Y-47500D03*
X62000Y-47500D03*
X32000Y-24000D03*
X35000Y-24000D03*
X41000Y-31500D03*
X43000Y-31500D03*
X32000Y-23000D03*
X34000Y-23000D03*
G54D15*
X60000Y-30500D03*
G54D16*
X60000Y-31500D03*
G54D15*
X60000Y-32500D03*
G54D18*
X57500Y-31500D03*
G54D19*
X57500Y-30500D03*
G54D25*
X106250Y-12500D03*
X103750Y-14750D03*
X102250Y-16250D03*
X101750Y-17250D03*
X107250Y-12750D03*
X108250Y-13500D03*
X103500Y-19500D03*
X95000Y-15000D03*
X106750Y-12750D03*
X108000Y-28250D03*
X106000Y-18250D03*
X98500Y-64500D03*
X98500Y-56500D03*
X100250Y-59500D03*
X100250Y-53250D03*
X100750Y-59250D03*
X100750Y-53250D03*
X101250Y-60500D03*
X100500Y-61750D03*
X111000Y-61000D03*
X114500Y-57500D03*
X99000Y-44250D03*
X120500Y-60500D03*
X101250Y-53500D03*
X97750Y-42750D03*
X118500Y-60500D03*
X102500Y-62500D03*
X28000Y-42750D03*
X28500Y-45750D03*
X29000Y-46250D03*
X46500Y-21750D03*
X29250Y-52000D03*
X47000Y-21750D03*
X50250Y-51750D03*
X43000Y-36500D03*
X34250Y-31750D03*
X35000Y-44000D03*
X31500Y-47000D03*
X34250Y-37500D03*
X33500Y-25000D03*
X46000Y-22000D03*
X53750Y-29000D03*
X51000Y-31500D03*
X42000Y-27750D03*
X35250Y-24500D03*
X42000Y-26750D03*
X49000Y-29500D03*
G54D26*
X114500Y-63500D02*
X114500Y-63500D01*
X102500Y-56000D02*
X102500Y-55750D01*
X107125Y-15900D02*
X107125Y-15125D01*
X108750Y-14000D02*
X109500Y-13250D01*
X108250Y-14000D02*
X108750Y-14000D01*
X107125Y-15125D02*
X108250Y-14000D01*
X106125Y-13600D02*
X106125Y-12625D01*
X106125Y-12625D02*
X106250Y-12500D01*
X103750Y-14750D02*
X106250Y-14750D01*
X106250Y-14750D02*
X106875Y-14125D01*
X106875Y-13600D02*
X106875Y-14125D01*
X96250Y-16750D02*
X96250Y-16500D01*
X97250Y-32250D02*
X96250Y-31250D01*
X96250Y-31250D02*
X96250Y-16750D01*
X98500Y-16250D02*
X98750Y-16500D01*
X96500Y-16250D02*
X98500Y-16250D01*
X96250Y-16500D02*
X96500Y-16250D01*
X99250Y-17000D02*
X98750Y-16500D01*
X101500Y-17000D02*
X99250Y-17000D01*
X102250Y-16250D02*
X101500Y-17000D01*
X107625Y-13600D02*
X107625Y-13125D01*
X97500Y-31250D02*
X96500Y-30250D01*
X96500Y-30250D02*
X96500Y-16750D01*
X97500Y-31250D02*
X98000Y-31250D01*
X98250Y-16500D02*
X98750Y-17000D01*
X98000Y-16500D02*
X98250Y-16500D01*
X96750Y-16500D02*
X98000Y-16500D01*
X96500Y-16750D02*
X96750Y-16500D01*
X99000Y-17250D02*
X98750Y-17000D01*
X101750Y-17250D02*
X99000Y-17250D01*
X107625Y-13125D02*
X107250Y-12750D01*
X97750Y-16000D02*
X98750Y-16000D01*
X96250Y-16000D02*
X97750Y-16000D01*
X96000Y-16250D02*
X96250Y-16000D01*
X96000Y-32250D02*
X96000Y-16500D01*
X96000Y-16500D02*
X96000Y-16250D01*
X100500Y-16750D02*
X101000Y-16250D01*
X99500Y-16750D02*
X100500Y-16750D01*
X98750Y-16000D02*
X99500Y-16750D01*
X96000Y-15750D02*
X99500Y-15750D01*
X95750Y-16000D02*
X95750Y-32000D01*
X96000Y-15750D02*
X95750Y-16000D01*
X99500Y-15750D02*
X100000Y-16250D01*
X105500Y-26250D02*
X105000Y-25750D01*
X106500Y-27250D02*
X105500Y-26250D01*
X100250Y-22000D02*
X98000Y-24250D01*
X103500Y-22000D02*
X100250Y-22000D01*
X105000Y-23500D02*
X103500Y-22000D01*
X105000Y-25750D02*
X105000Y-23500D01*
X105250Y-24250D02*
X105250Y-25000D01*
X99500Y-21750D02*
X103750Y-21750D01*
X103750Y-21750D02*
X105250Y-23250D01*
X105250Y-23250D02*
X105250Y-24250D01*
X98000Y-23250D02*
X99500Y-21750D01*
X105250Y-25000D02*
X106500Y-26250D01*
X106500Y-25250D02*
X106250Y-25250D01*
X98750Y-21500D02*
X98000Y-22250D01*
X104000Y-21500D02*
X98750Y-21500D01*
X105500Y-23000D02*
X104000Y-21500D01*
X105500Y-24500D02*
X105500Y-23000D01*
X106250Y-25250D02*
X105500Y-24500D01*
X98000Y-21250D02*
X104250Y-21250D01*
X104250Y-21250D02*
X105750Y-22750D01*
X105750Y-22750D02*
X105750Y-23500D01*
X105750Y-23500D02*
X106500Y-24250D01*
X106500Y-23250D02*
X106500Y-23000D01*
X99500Y-20250D02*
X98000Y-20250D01*
X100250Y-21000D02*
X99500Y-20250D01*
X104500Y-21000D02*
X100250Y-21000D01*
X106500Y-23000D02*
X104500Y-21000D01*
X98000Y-19250D02*
X99000Y-19250D01*
X105000Y-20750D02*
X106500Y-22250D01*
X100500Y-20750D02*
X105000Y-20750D01*
X99000Y-19250D02*
X100500Y-20750D01*
X106500Y-21250D02*
X106250Y-21250D01*
X98500Y-18250D02*
X98000Y-18250D01*
X100750Y-20500D02*
X98500Y-18250D01*
X105500Y-20500D02*
X100750Y-20500D01*
X106250Y-21250D02*
X105500Y-20500D01*
X98000Y-17250D02*
X101000Y-20250D01*
X101000Y-20250D02*
X106500Y-20250D01*
X100500Y-32250D02*
X101250Y-31500D01*
X104000Y-31500D02*
X105750Y-33250D01*
X101250Y-31500D02*
X104000Y-31500D01*
X100500Y-30250D02*
X101500Y-31250D01*
X104500Y-31250D02*
X106500Y-33250D01*
X101500Y-31250D02*
X104500Y-31250D01*
X98900Y-34350D02*
X98900Y-30850D01*
X99500Y-30250D02*
X100500Y-30250D01*
X98900Y-30850D02*
X99500Y-30250D01*
X98000Y-30250D02*
X98750Y-30250D01*
X99500Y-29500D02*
X101750Y-29500D01*
X98750Y-30250D02*
X99500Y-29500D01*
X104250Y-30000D02*
X106500Y-32250D01*
X102250Y-30000D02*
X104250Y-30000D01*
X101750Y-29500D02*
X102250Y-30000D01*
X98000Y-29250D02*
X99000Y-29250D01*
X105750Y-30500D02*
X106500Y-31250D01*
X105750Y-30000D02*
X105750Y-30500D01*
X104500Y-28750D02*
X105750Y-30000D01*
X99500Y-28750D02*
X104500Y-28750D01*
X99000Y-29250D02*
X99500Y-28750D01*
X104750Y-28500D02*
X106500Y-30250D01*
X100750Y-28500D02*
X104750Y-28500D01*
X100500Y-28250D02*
X100750Y-28500D01*
X98000Y-28250D02*
X100500Y-28250D01*
X98000Y-27250D02*
X99750Y-27250D01*
X105500Y-28250D02*
X106500Y-29250D01*
X100750Y-28250D02*
X105500Y-28250D01*
X99750Y-27250D02*
X100750Y-28250D01*
X102000Y-14250D02*
X102750Y-14250D01*
X102750Y-14250D02*
X103750Y-13250D01*
X102000Y-15250D02*
X102750Y-15250D01*
X102750Y-15250D02*
X103750Y-16250D01*
X106375Y-15900D02*
X106375Y-15375D01*
X107125Y-14625D02*
X107125Y-13600D01*
X106375Y-15375D02*
X107125Y-14625D01*
X106125Y-15900D02*
X106125Y-16625D01*
X106125Y-16625D02*
X106500Y-17000D01*
X106375Y-15900D02*
X106375Y-16875D01*
X106375Y-16875D02*
X106500Y-17000D01*
X106500Y-17000D02*
X106750Y-17250D01*
G54D27*
X104750Y-18250D02*
X104750Y-17250D01*
X103500Y-19500D02*
X104750Y-18250D01*
G54D26*
X108250Y-12750D02*
X108250Y-13500D01*
X107750Y-12250D02*
X108250Y-12750D01*
X107250Y-12250D02*
X107750Y-12250D01*
X107000Y-12500D02*
X107250Y-12250D01*
X106750Y-12750D02*
X107000Y-12500D01*
X110250Y-16750D02*
X110500Y-16750D01*
X109250Y-17750D02*
X110250Y-16750D01*
X107750Y-17750D02*
X109250Y-17750D01*
X107500Y-17500D02*
X107750Y-17750D01*
X107500Y-17000D02*
X107500Y-17500D01*
X107000Y-16500D02*
X107500Y-17000D01*
X106875Y-16375D02*
X107000Y-16500D01*
X106875Y-15900D02*
X106875Y-16375D01*
G54D27*
X92250Y-15000D02*
X95000Y-15000D01*
G54D26*
X106625Y-13600D02*
X106625Y-12875D01*
X106625Y-12875D02*
X106750Y-12750D01*
G54D27*
X110500Y-16750D02*
X111250Y-16750D01*
X111250Y-16750D02*
X111750Y-17250D01*
X111750Y-17250D02*
X111750Y-19500D01*
X111750Y-19500D02*
X112500Y-20250D01*
X115500Y-20250D02*
X118000Y-20250D01*
X113000Y-20250D02*
X115500Y-20250D01*
X110500Y-20250D02*
X112500Y-20250D01*
X112500Y-20250D02*
X113000Y-20250D01*
X103500Y-27250D02*
X105000Y-27250D01*
X106000Y-28250D02*
X108000Y-28250D01*
X105000Y-27250D02*
X106000Y-28250D01*
X108500Y-17250D02*
X108500Y-16500D01*
X109000Y-16000D02*
X110000Y-16000D01*
X108500Y-16500D02*
X109000Y-16000D01*
X109750Y-16000D02*
X110000Y-16000D01*
X110000Y-16000D02*
X112000Y-16000D01*
X112000Y-16000D02*
X113000Y-17000D01*
X113000Y-17000D02*
X113000Y-19250D01*
X115500Y-19250D02*
X113000Y-19250D01*
X120500Y-19250D02*
X119250Y-19250D01*
X116250Y-18500D02*
X115500Y-19250D01*
X118500Y-18500D02*
X116250Y-18500D01*
X119250Y-19250D02*
X118500Y-18500D01*
G54D26*
X100000Y-15250D02*
X96000Y-15250D01*
X95106Y-14356D02*
X95106Y-13773D01*
X96000Y-15250D02*
X95106Y-14356D01*
X105000Y-15250D02*
X105500Y-15250D01*
X105875Y-15625D02*
X105875Y-15900D01*
X105500Y-15250D02*
X105875Y-15625D01*
X105000Y-14250D02*
X105500Y-14250D01*
X105875Y-13875D02*
X105875Y-13600D01*
X105500Y-14250D02*
X105875Y-13875D01*
X95893Y-13773D02*
X95893Y-14143D01*
X100500Y-14750D02*
X101000Y-15250D01*
X96500Y-14750D02*
X100500Y-14750D01*
X95893Y-14143D02*
X96500Y-14750D01*
G54D27*
X109500Y-21000D02*
X109750Y-20750D01*
X109500Y-36750D02*
X109500Y-21000D01*
X108500Y-18250D02*
X108750Y-18250D01*
X120000Y-24250D02*
X120500Y-24250D01*
X119500Y-23750D02*
X120000Y-24250D01*
X119500Y-22250D02*
X119500Y-23750D01*
X118750Y-21500D02*
X119500Y-22250D01*
X110500Y-21500D02*
X118750Y-21500D01*
X109750Y-20750D02*
X110500Y-21500D01*
X109750Y-19250D02*
X109750Y-20750D01*
X108750Y-18250D02*
X109750Y-19250D01*
G54D26*
X107500Y-18250D02*
X108500Y-18250D01*
X107250Y-18000D02*
X107500Y-18250D01*
X107250Y-17000D02*
X107250Y-18000D01*
X106625Y-16375D02*
X107250Y-17000D01*
X106625Y-15900D02*
X106625Y-16375D01*
G54D27*
X110000Y-35750D02*
X110000Y-26750D01*
X106000Y-18250D02*
X107000Y-19250D01*
X108500Y-19250D02*
X107000Y-19250D01*
G54D26*
X100000Y-44000D02*
X98250Y-45750D01*
X100000Y-43000D02*
X100000Y-44000D01*
X102000Y-41000D02*
X100000Y-43000D01*
X98250Y-53250D02*
X97500Y-54000D01*
X98250Y-45750D02*
X98250Y-53250D01*
X97500Y-55000D02*
X98500Y-54000D01*
X101000Y-43000D02*
X102000Y-42000D01*
X101000Y-44000D02*
X101000Y-43000D01*
X98500Y-46500D02*
X101000Y-44000D01*
X98500Y-54000D02*
X98500Y-46500D01*
X102000Y-43000D02*
X101250Y-43750D01*
X101250Y-43750D02*
X101250Y-44250D01*
X101250Y-44250D02*
X98750Y-46750D01*
X98750Y-46750D02*
X98750Y-54750D01*
X98750Y-54750D02*
X97500Y-56000D01*
X97500Y-57000D02*
X99000Y-55500D01*
X99000Y-47000D02*
X102000Y-44000D01*
X99000Y-55500D02*
X99000Y-47000D01*
X97500Y-58000D02*
X97750Y-58000D01*
X101000Y-46000D02*
X102000Y-46000D01*
X99500Y-47500D02*
X101000Y-46000D01*
X99500Y-56250D02*
X99500Y-47500D01*
X97750Y-58000D02*
X99500Y-56250D01*
X97500Y-58000D02*
X97500Y-58000D01*
X102000Y-47000D02*
X100500Y-47000D01*
X98500Y-59000D02*
X97500Y-59000D01*
X99750Y-57750D02*
X98500Y-59000D01*
X99750Y-47750D02*
X99750Y-57750D01*
X100500Y-47000D02*
X99750Y-47750D01*
X102000Y-54000D02*
X101750Y-54000D01*
X98500Y-61000D02*
X97500Y-62000D01*
X98500Y-59500D02*
X98500Y-61000D01*
X100000Y-58000D02*
X98500Y-59500D01*
X100000Y-55750D02*
X100000Y-58000D01*
X101750Y-54000D02*
X100000Y-55750D01*
X97500Y-63000D02*
X98750Y-61750D01*
X101250Y-55000D02*
X102000Y-55000D01*
X100250Y-56000D02*
X101250Y-55000D01*
X100250Y-58250D02*
X100250Y-56000D01*
X98750Y-59750D02*
X100250Y-58250D01*
X98750Y-61750D02*
X98750Y-59750D01*
X102000Y-56000D02*
X101000Y-56000D01*
X99000Y-62500D02*
X97500Y-64000D01*
X99000Y-60000D02*
X99000Y-62500D01*
X100500Y-58500D02*
X99000Y-60000D01*
X100500Y-56500D02*
X100500Y-58500D01*
X101000Y-56000D02*
X100500Y-56500D01*
X102000Y-45000D02*
X101500Y-45000D01*
X98000Y-65000D02*
X97500Y-65000D01*
X98500Y-64500D02*
X98000Y-65000D01*
X99250Y-55750D02*
X98500Y-56500D01*
X99250Y-47250D02*
X99250Y-55750D01*
X101500Y-45000D02*
X99250Y-47250D01*
X100250Y-53250D02*
X100250Y-52500D01*
X102000Y-48000D02*
X100500Y-48000D01*
X100500Y-48000D02*
X100000Y-48500D01*
X100000Y-48500D02*
X100000Y-52250D01*
X100250Y-52500D02*
X100000Y-52250D01*
X99500Y-60250D02*
X100250Y-59500D01*
X98750Y-66000D02*
X97500Y-66000D01*
X99500Y-65250D02*
X99500Y-60750D01*
X98750Y-66000D02*
X99500Y-65250D01*
X99500Y-60750D02*
X99500Y-60250D01*
X100250Y-51500D02*
X100250Y-52000D01*
X101500Y-48500D02*
X100500Y-48500D01*
X100500Y-48500D02*
X100250Y-48750D01*
X100250Y-48750D02*
X100250Y-51500D01*
X101500Y-48500D02*
X102000Y-49000D01*
X100750Y-52500D02*
X100750Y-53250D01*
X100250Y-52000D02*
X100750Y-52500D01*
X99750Y-61000D02*
X100250Y-60500D01*
X97500Y-67000D02*
X98750Y-67000D01*
X99000Y-67000D02*
X99750Y-66250D01*
X98750Y-67000D02*
X99000Y-67000D01*
X99750Y-66250D02*
X99750Y-61000D01*
X100750Y-60000D02*
X100250Y-60500D01*
X100750Y-59250D02*
X100750Y-60000D01*
X107250Y-55000D02*
X108000Y-55000D01*
X98500Y-68000D02*
X100000Y-66500D01*
X100000Y-66500D02*
X100000Y-61750D01*
X100000Y-61750D02*
X101250Y-60500D01*
X97500Y-68000D02*
X98500Y-68000D01*
X98000Y-69000D02*
X100500Y-66500D01*
X100500Y-66500D02*
X100500Y-61750D01*
X97500Y-69000D02*
X98000Y-69000D01*
X106250Y-55250D02*
X106000Y-55000D01*
X107000Y-56000D02*
X106250Y-55250D01*
X108000Y-56000D02*
X107000Y-56000D01*
X108000Y-57000D02*
X106500Y-57000D01*
X105750Y-56250D02*
X106500Y-57000D01*
X105750Y-54750D02*
X105750Y-56250D01*
X110500Y-59000D02*
X109250Y-60250D01*
X116500Y-59000D02*
X116000Y-59000D01*
X104250Y-60250D02*
X102000Y-58000D01*
X114750Y-60250D02*
X109250Y-60250D01*
X109250Y-60250D02*
X104250Y-60250D01*
X116000Y-59000D02*
X114750Y-60250D01*
X102000Y-59000D02*
X101500Y-58500D01*
X110500Y-57750D02*
X110500Y-57000D01*
X108250Y-60000D02*
X110500Y-57750D01*
X105250Y-60000D02*
X108250Y-60000D01*
X102750Y-57500D02*
X105250Y-60000D01*
X101750Y-57500D02*
X102750Y-57500D01*
X101500Y-57750D02*
X101750Y-57500D01*
X101500Y-58500D02*
X101500Y-57750D01*
X110500Y-57000D02*
X111000Y-56500D01*
X115000Y-56500D02*
X116500Y-58000D01*
X111000Y-56500D02*
X115000Y-56500D01*
X116250Y-57000D02*
X116500Y-57000D01*
X115750Y-56500D02*
X116250Y-57000D01*
X115750Y-56000D02*
X115750Y-56500D01*
X108000Y-59000D02*
X109250Y-57750D01*
X110000Y-55000D02*
X110500Y-55000D01*
X109250Y-55750D02*
X110000Y-55000D01*
X109250Y-57750D02*
X109250Y-55750D01*
X110500Y-55000D02*
X110600Y-55000D01*
X108000Y-58000D02*
X108900Y-57100D01*
X102000Y-40000D02*
X98500Y-43500D01*
X98500Y-38500D02*
X98500Y-35500D01*
X96500Y-38500D02*
X98500Y-38500D01*
X98500Y-39500D02*
X98500Y-38500D01*
X98500Y-40500D02*
X98500Y-39500D01*
X99500Y-40500D02*
X98500Y-40500D01*
G54D27*
X122500Y-63000D02*
X121500Y-63000D01*
X122500Y-63000D02*
X123500Y-63000D01*
X100500Y-39500D02*
X102250Y-37750D01*
X118500Y-62500D02*
X121000Y-62500D01*
X121000Y-62500D02*
X121500Y-63000D01*
X123500Y-63000D02*
X124500Y-63000D01*
X124500Y-63000D02*
X125500Y-63000D01*
X125500Y-63000D02*
X126500Y-63000D01*
X126500Y-63000D02*
X127500Y-63000D01*
X127500Y-63000D02*
X128500Y-63000D01*
X128500Y-63000D02*
X129500Y-63000D01*
X129500Y-63000D02*
X130500Y-63000D01*
X130500Y-63000D02*
X131500Y-63000D01*
X131500Y-63000D02*
X132500Y-63000D01*
G54D26*
X96500Y-40500D02*
X97250Y-41250D01*
X98000Y-44250D02*
X99000Y-44250D01*
X97250Y-43500D02*
X98000Y-44250D01*
X97250Y-41250D02*
X97250Y-43500D01*
G54D27*
X103000Y-65000D02*
X101250Y-65000D01*
X116000Y-65000D02*
X118200Y-65000D01*
X118200Y-65000D02*
X118500Y-64700D01*
X116000Y-65000D02*
X116000Y-64250D01*
X117750Y-62500D02*
X118500Y-62500D01*
X116000Y-64250D02*
X117750Y-62500D01*
G54D26*
X103000Y-65000D02*
X102750Y-65000D01*
X111500Y-55000D02*
X112500Y-55000D01*
X111500Y-57000D02*
X112750Y-57000D01*
X113500Y-57750D02*
X113500Y-59000D01*
X112750Y-57000D02*
X113500Y-57750D01*
X111500Y-59000D02*
X112500Y-59000D01*
X128000Y-66000D02*
X128000Y-66500D01*
X128000Y-66500D02*
X127500Y-67000D01*
X130000Y-68000D02*
X129500Y-68000D01*
X128500Y-67000D02*
X127500Y-67000D01*
X129500Y-68000D02*
X128500Y-67000D01*
G54D27*
X113000Y-71500D02*
X113000Y-70000D01*
X113000Y-70000D02*
X112000Y-69000D01*
X115000Y-69000D02*
X116000Y-69000D01*
X111000Y-69000D02*
X112000Y-69000D01*
X112000Y-69000D02*
X115000Y-69000D01*
X115000Y-71500D02*
X115000Y-71500D01*
X116000Y-67000D02*
X114000Y-67000D01*
X117000Y-68000D02*
X116000Y-67000D01*
X117000Y-69500D02*
X117000Y-68000D01*
X115000Y-71500D02*
X117000Y-69500D01*
X114000Y-71500D02*
X115000Y-71500D01*
X114000Y-67000D02*
X113000Y-67000D01*
X111000Y-66000D02*
X111500Y-66000D01*
X112500Y-67000D02*
X113000Y-67000D01*
X111500Y-66000D02*
X112500Y-67000D01*
X104000Y-71500D02*
X105000Y-71500D01*
X105000Y-67000D02*
X103000Y-67000D01*
X104000Y-71500D02*
X104000Y-71500D01*
X102000Y-69500D02*
X104000Y-71500D01*
X102000Y-68000D02*
X102000Y-69500D01*
X103000Y-67000D02*
X102000Y-68000D01*
X106000Y-67000D02*
X105000Y-67000D01*
X108000Y-66000D02*
X107500Y-66000D01*
X106500Y-67000D02*
X106000Y-67000D01*
X107500Y-66000D02*
X106500Y-67000D01*
X106000Y-71500D02*
X106000Y-70000D01*
X106000Y-70000D02*
X107000Y-69000D01*
X104000Y-69000D02*
X107000Y-69000D01*
X107000Y-69000D02*
X108000Y-69000D01*
X103000Y-69000D02*
X104000Y-69000D01*
G54D26*
X100500Y-40500D02*
X99750Y-39750D01*
X99750Y-39250D02*
X100500Y-38500D01*
X99750Y-39750D02*
X99750Y-39250D01*
X100500Y-35500D02*
X100500Y-38500D01*
G54D27*
X121000Y-62000D02*
X121500Y-62000D01*
X120500Y-61500D02*
X121000Y-62000D01*
X120500Y-60500D02*
X120500Y-61500D01*
X121500Y-62000D02*
X122500Y-62000D01*
X122500Y-62000D02*
X123500Y-62000D01*
X123500Y-62000D02*
X124500Y-62000D01*
X124500Y-62000D02*
X125500Y-62000D01*
X125500Y-62000D02*
X126500Y-62000D01*
X126500Y-62000D02*
X127500Y-62000D01*
X127500Y-62000D02*
X128500Y-62000D01*
X128500Y-62000D02*
X129500Y-62000D01*
X129500Y-62000D02*
X130500Y-62000D01*
X130500Y-62000D02*
X131500Y-62000D01*
X131500Y-62000D02*
X132500Y-62000D01*
G54D26*
X102000Y-50000D02*
X101000Y-50000D01*
X101250Y-52500D02*
X101250Y-53500D01*
X100500Y-51750D02*
X101250Y-52500D01*
X100500Y-50500D02*
X100500Y-51750D01*
X101000Y-50000D02*
X100500Y-50500D01*
X96500Y-39500D02*
X96750Y-39500D01*
X97750Y-40500D02*
X97750Y-42750D01*
X96750Y-39500D02*
X97750Y-40500D01*
G54D27*
X119500Y-64000D02*
X119500Y-65700D01*
X119500Y-65700D02*
X118500Y-66700D01*
X121000Y-64000D02*
X119500Y-64000D01*
X119500Y-64000D02*
X119000Y-63500D01*
X118500Y-60500D02*
X119500Y-59500D01*
X132500Y-64000D02*
X131500Y-64000D01*
X131500Y-64000D02*
X130500Y-64000D01*
X130500Y-64000D02*
X129500Y-64000D01*
X129500Y-64000D02*
X128500Y-64000D01*
X128500Y-64000D02*
X127500Y-64000D01*
X127500Y-64000D02*
X126500Y-64000D01*
X126500Y-64000D02*
X125500Y-64000D01*
X125500Y-64000D02*
X124500Y-64000D01*
X124500Y-64000D02*
X123500Y-64000D01*
X123500Y-64000D02*
X122500Y-64000D01*
X122500Y-64000D02*
X121500Y-64000D01*
X121500Y-64000D02*
X121000Y-64000D01*
X119000Y-63500D02*
X118500Y-63500D01*
X117000Y-62250D02*
X117500Y-61750D01*
X120000Y-58500D02*
X120000Y-59250D01*
X120000Y-60750D02*
X120000Y-59250D01*
X119000Y-61750D02*
X120000Y-60750D01*
X117500Y-61750D02*
X119000Y-61750D01*
X105000Y-63000D02*
X103000Y-63000D01*
X103000Y-63000D02*
X102500Y-62500D01*
X101250Y-66000D02*
X103500Y-66000D01*
X104000Y-65500D02*
X104000Y-65000D01*
X103500Y-66000D02*
X104000Y-65500D01*
X115000Y-65000D02*
X115000Y-64250D01*
X115000Y-64250D02*
X117000Y-62250D01*
X114000Y-63000D02*
X114000Y-62750D01*
X114000Y-62750D02*
X114500Y-62250D01*
X111000Y-62000D02*
X113000Y-62000D01*
X113250Y-62250D02*
X114500Y-62250D01*
X114500Y-62250D02*
X117000Y-62250D01*
X113000Y-62000D02*
X113250Y-62250D01*
X111000Y-62000D02*
X106000Y-62000D01*
X106000Y-62000D02*
X105000Y-63000D01*
X108000Y-71000D02*
X108500Y-71000D01*
X109500Y-63500D02*
X111000Y-62000D01*
X109500Y-70000D02*
X109500Y-63500D01*
X108500Y-71000D02*
X109500Y-70000D01*
X104000Y-65000D02*
X104000Y-64000D01*
X104000Y-64000D02*
X105000Y-63000D01*
G54D26*
X104393Y-36606D02*
X104393Y-36523D01*
X27750Y-39250D02*
X27750Y-36000D01*
X27000Y-39500D02*
X27500Y-39500D01*
X27500Y-39500D02*
X27750Y-39250D01*
X32250Y-27500D02*
X32500Y-27500D01*
X31750Y-28000D02*
X32250Y-27500D01*
X31750Y-28500D02*
X31750Y-28000D01*
X28750Y-31500D02*
X31750Y-28500D01*
X28750Y-35000D02*
X28750Y-31500D01*
X27750Y-36000D02*
X28750Y-35000D01*
G54D27*
X25000Y-39500D02*
X26000Y-39500D01*
X26000Y-39500D02*
X27000Y-39500D01*
G54D26*
X28000Y-40000D02*
X28000Y-36250D01*
X27000Y-40500D02*
X27500Y-40500D01*
X28000Y-40000D02*
X27500Y-40500D01*
X29000Y-32000D02*
X32500Y-28500D01*
X29000Y-35250D02*
X29000Y-32000D01*
X28000Y-36250D02*
X29000Y-35250D01*
G54D27*
X27000Y-40500D02*
X26000Y-40500D01*
X26000Y-40500D02*
X25000Y-40500D01*
G54D26*
X28250Y-39500D02*
X28250Y-36500D01*
X27500Y-41500D02*
X28250Y-40750D01*
X28250Y-40750D02*
X28250Y-39500D01*
X27000Y-41500D02*
X27500Y-41500D01*
X29250Y-32750D02*
X32500Y-29500D01*
X29250Y-35500D02*
X29250Y-32750D01*
X28250Y-36500D02*
X29250Y-35500D01*
G54D27*
X25000Y-41500D02*
X26000Y-41500D01*
X26000Y-41500D02*
X27000Y-41500D01*
G54D26*
X28500Y-41500D02*
X28500Y-36750D01*
X27000Y-42500D02*
X27500Y-42500D01*
X28500Y-41500D02*
X27500Y-42500D01*
X29500Y-33500D02*
X32500Y-30500D01*
X29500Y-35750D02*
X29500Y-33500D01*
X28500Y-36750D02*
X29500Y-35750D01*
G54D27*
X27000Y-42500D02*
X26000Y-42500D01*
X26000Y-42500D02*
X25000Y-42500D01*
G54D26*
X29000Y-42250D02*
X29000Y-37250D01*
X27750Y-43500D02*
X29000Y-42250D01*
X27000Y-43500D02*
X27500Y-43500D01*
X27500Y-43500D02*
X27750Y-43500D01*
X30000Y-35000D02*
X32500Y-32500D01*
X30000Y-36250D02*
X30000Y-35000D01*
X29000Y-37250D02*
X30000Y-36250D01*
G54D27*
X25000Y-43500D02*
X26000Y-43500D01*
X26000Y-43500D02*
X27000Y-43500D01*
G54D26*
X29250Y-43000D02*
X29250Y-37500D01*
X29250Y-43000D02*
X27750Y-44500D01*
X27000Y-44500D02*
X27750Y-44500D01*
X32000Y-33500D02*
X32500Y-33500D01*
X30250Y-35250D02*
X32000Y-33500D01*
X30250Y-36500D02*
X30250Y-35250D01*
X29250Y-37500D02*
X30250Y-36500D01*
G54D27*
X27000Y-44500D02*
X26000Y-44500D01*
X26000Y-44500D02*
X25000Y-44500D01*
G54D26*
X46625Y-25150D02*
X46625Y-24375D01*
X48500Y-24000D02*
X49000Y-23500D01*
X47000Y-24000D02*
X48500Y-24000D01*
X46625Y-24375D02*
X47000Y-24000D01*
X45625Y-22850D02*
X45625Y-21625D01*
X48750Y-21250D02*
X49000Y-21500D01*
X45625Y-21625D02*
X46000Y-21250D01*
X46000Y-21250D02*
X48750Y-21250D01*
G54D27*
X25000Y-47500D02*
X26000Y-47500D01*
X26000Y-47500D02*
X27000Y-47500D01*
G54D26*
X30000Y-45000D02*
X30000Y-46250D01*
X31750Y-40500D02*
X30000Y-42250D01*
X30000Y-42250D02*
X30000Y-45000D01*
X32500Y-40500D02*
X31750Y-40500D01*
X28750Y-47500D02*
X27000Y-47500D01*
X30000Y-46250D02*
X28750Y-47500D01*
G54D27*
X27000Y-48500D02*
X26000Y-48500D01*
X26000Y-48500D02*
X25000Y-48500D01*
G54D26*
X30250Y-45000D02*
X30250Y-47000D01*
X31750Y-41500D02*
X30250Y-43000D01*
X30250Y-43000D02*
X30250Y-45000D01*
X32500Y-41500D02*
X31750Y-41500D01*
X28750Y-48500D02*
X27000Y-48500D01*
X30250Y-47000D02*
X28750Y-48500D01*
G54D27*
X25000Y-49500D02*
X26000Y-49500D01*
X26000Y-49500D02*
X27000Y-49500D01*
G54D26*
X27000Y-49500D02*
X28750Y-49500D01*
X31750Y-42500D02*
X32500Y-42500D01*
X30500Y-43750D02*
X30500Y-44750D01*
X31750Y-42500D02*
X30500Y-43750D01*
X30500Y-46250D02*
X30500Y-44750D01*
X30500Y-47750D02*
X30500Y-46250D01*
X28750Y-49500D02*
X30500Y-47750D01*
X28750Y-42000D02*
X28750Y-37000D01*
X28750Y-42000D02*
X28000Y-42750D01*
X29750Y-34250D02*
X32500Y-31500D01*
X29750Y-36000D02*
X29750Y-34250D01*
X28750Y-37000D02*
X29750Y-36000D01*
G54D27*
X27000Y-50500D02*
X26000Y-50500D01*
X26000Y-50500D02*
X25000Y-50500D01*
G54D26*
X29500Y-43000D02*
X29500Y-37750D01*
X29500Y-43500D02*
X29500Y-43000D01*
X29500Y-44750D02*
X29500Y-43500D01*
X28500Y-45750D02*
X29500Y-44750D01*
X31500Y-34500D02*
X32500Y-34500D01*
X30750Y-35250D02*
X31500Y-34500D01*
X30750Y-36500D02*
X30750Y-35250D01*
X29500Y-37750D02*
X30750Y-36500D01*
G54D27*
X25000Y-51500D02*
X26000Y-51500D01*
X26000Y-51500D02*
X27000Y-51500D01*
X27000Y-52500D02*
X26000Y-52500D01*
X26000Y-52500D02*
X25000Y-52500D01*
G54D26*
X29750Y-45000D02*
X29750Y-45500D01*
X32500Y-35500D02*
X32250Y-35500D01*
X29750Y-38000D02*
X29750Y-42000D01*
X32250Y-35500D02*
X29750Y-38000D01*
X29750Y-45000D02*
X29750Y-42000D01*
X29750Y-45500D02*
X29000Y-46250D01*
G54D27*
X25000Y-53500D02*
X26000Y-53500D01*
X26000Y-53500D02*
X27000Y-53500D01*
G54D26*
X27000Y-53500D02*
X28750Y-53500D01*
X35750Y-41500D02*
X33250Y-44000D01*
X33250Y-44000D02*
X31750Y-44000D01*
X31750Y-44000D02*
X31000Y-44750D01*
X31000Y-44750D02*
X31000Y-46750D01*
X35750Y-41500D02*
X38500Y-41500D01*
X31000Y-51250D02*
X31000Y-46750D01*
X28750Y-53500D02*
X31000Y-51250D01*
X46375Y-22850D02*
X46375Y-21875D01*
X46375Y-21875D02*
X46500Y-21750D01*
G54D27*
X27000Y-54500D02*
X26000Y-54500D01*
X26000Y-54500D02*
X25000Y-54500D01*
G54D26*
X30750Y-46750D02*
X30750Y-50500D01*
X35750Y-40500D02*
X33250Y-43000D01*
X33250Y-43000D02*
X32000Y-43000D01*
X32000Y-43000D02*
X30750Y-44250D01*
X30750Y-44250D02*
X30750Y-46750D01*
X38500Y-40500D02*
X35750Y-40500D01*
X30750Y-50500D02*
X29250Y-52000D01*
X47125Y-22125D02*
X47125Y-22850D01*
X47125Y-21875D02*
X47125Y-22125D01*
X47000Y-21750D02*
X47125Y-21875D01*
X41000Y-33500D02*
X43000Y-33500D01*
X32500Y-38500D02*
X35250Y-38500D01*
X41000Y-34000D02*
X41000Y-33500D01*
X39000Y-36000D02*
X41000Y-34000D01*
X37750Y-36000D02*
X39000Y-36000D01*
X35250Y-38500D02*
X37750Y-36000D01*
X41000Y-35500D02*
X43000Y-35500D01*
X32500Y-39500D02*
X35250Y-39500D01*
X41000Y-36250D02*
X41000Y-35500D01*
X40250Y-37000D02*
X41000Y-36250D01*
X37750Y-37000D02*
X40250Y-37000D01*
X35250Y-39500D02*
X37750Y-37000D01*
G54D27*
X46000Y-35500D02*
X47000Y-35500D01*
X47000Y-35500D02*
X48000Y-35500D01*
G54D26*
X38500Y-33500D02*
X39500Y-32500D01*
X44750Y-34250D02*
X46000Y-35500D01*
X44750Y-32250D02*
X44750Y-34250D01*
X42750Y-30250D02*
X44750Y-32250D01*
X40250Y-30250D02*
X42750Y-30250D01*
X39500Y-31000D02*
X40250Y-30250D01*
X39500Y-32500D02*
X39500Y-31000D01*
G54D27*
X48000Y-34500D02*
X47000Y-34500D01*
X47000Y-34500D02*
X46000Y-34500D01*
G54D26*
X45000Y-33000D02*
X45000Y-33500D01*
X39250Y-31750D02*
X39250Y-30750D01*
X39250Y-30750D02*
X40000Y-30000D01*
X40000Y-30000D02*
X43000Y-30000D01*
X43000Y-30000D02*
X45000Y-32000D01*
X45000Y-32000D02*
X45000Y-33000D01*
X46000Y-34500D02*
X45500Y-34000D01*
X39250Y-31750D02*
X38500Y-32500D01*
X45000Y-33500D02*
X45500Y-34000D01*
G54D27*
X48000Y-33500D02*
X47000Y-33500D01*
X46000Y-33500D02*
X47000Y-33500D01*
G54D26*
X46000Y-33500D02*
X45250Y-32750D01*
X39000Y-31000D02*
X38500Y-31500D01*
X39000Y-30500D02*
X39000Y-31000D01*
X39750Y-29750D02*
X39000Y-30500D01*
X43250Y-29750D02*
X39750Y-29750D01*
X45250Y-31750D02*
X43250Y-29750D01*
X45250Y-32750D02*
X45250Y-31750D01*
G54D27*
X46000Y-32500D02*
X47000Y-32500D01*
X47000Y-32500D02*
X48000Y-32500D01*
G54D26*
X38500Y-30500D02*
X39500Y-29500D01*
X45500Y-32000D02*
X46000Y-32500D01*
X45500Y-31500D02*
X45500Y-32000D01*
X43500Y-29500D02*
X45500Y-31500D01*
X39500Y-29500D02*
X43500Y-29500D01*
G54D27*
X48000Y-31500D02*
X47000Y-31500D01*
X47000Y-31500D02*
X46000Y-31500D01*
G54D26*
X46000Y-31500D02*
X43750Y-29250D01*
X38750Y-29500D02*
X38500Y-29500D01*
X39000Y-29250D02*
X38750Y-29500D01*
X43750Y-29250D02*
X39000Y-29250D01*
G54D27*
X46000Y-30500D02*
X47000Y-30500D01*
X47000Y-30500D02*
X48000Y-30500D01*
G54D26*
X38500Y-28500D02*
X40000Y-28500D01*
X44500Y-29000D02*
X46000Y-30500D01*
X40500Y-29000D02*
X44500Y-29000D01*
X40000Y-28500D02*
X40500Y-29000D01*
G54D27*
X48000Y-29500D02*
X47000Y-29500D01*
X47000Y-29500D02*
X46000Y-29500D01*
G54D26*
X26000Y-28000D02*
X28000Y-28000D01*
X34500Y-27500D02*
X38500Y-27500D01*
X33000Y-26000D02*
X34500Y-27500D01*
X32000Y-26000D02*
X33000Y-26000D01*
X30250Y-27750D02*
X32000Y-26000D01*
X28250Y-27750D02*
X30250Y-27750D01*
X28000Y-28000D02*
X28250Y-27750D01*
X38500Y-27500D02*
X39500Y-27500D01*
X45250Y-28750D02*
X46000Y-29500D01*
X40750Y-28750D02*
X45250Y-28750D01*
X39500Y-27500D02*
X40750Y-28750D01*
G54D27*
X46000Y-28500D02*
X47000Y-28500D01*
X47000Y-28500D02*
X48000Y-28500D01*
G54D26*
X38500Y-26500D02*
X33750Y-26500D01*
X26500Y-27500D02*
X26000Y-27000D01*
X30000Y-27500D02*
X26500Y-27500D01*
X31750Y-25750D02*
X30000Y-27500D01*
X33000Y-25750D02*
X31750Y-25750D01*
X33750Y-26500D02*
X33000Y-25750D01*
X38500Y-26500D02*
X39000Y-26500D01*
X41000Y-28500D02*
X46000Y-28500D01*
X39000Y-26500D02*
X41000Y-28500D01*
G54D27*
X48000Y-44500D02*
X47000Y-44500D01*
X47000Y-44500D02*
X46000Y-44500D01*
G54D26*
X41000Y-44500D02*
X41750Y-45250D01*
X45250Y-45250D02*
X46000Y-44500D01*
X41750Y-45250D02*
X45250Y-45250D01*
G54D27*
X46000Y-43500D02*
X47000Y-43500D01*
X47000Y-43500D02*
X48000Y-43500D01*
G54D26*
X41000Y-42500D02*
X41000Y-42750D01*
X45750Y-43250D02*
X46000Y-43500D01*
X41500Y-43250D02*
X45750Y-43250D01*
X41000Y-42750D02*
X41500Y-43250D01*
G54D27*
X46000Y-42500D02*
X47000Y-42500D01*
X47000Y-42500D02*
X48000Y-42500D01*
G54D26*
X41000Y-40500D02*
X43000Y-42500D01*
X43000Y-42500D02*
X46000Y-42500D01*
G54D27*
X46000Y-41500D02*
X47000Y-41500D01*
X48000Y-41500D02*
X47000Y-41500D01*
G54D26*
X41000Y-38500D02*
X41250Y-38500D01*
X45250Y-42250D02*
X46000Y-41500D01*
X43000Y-42250D02*
X45250Y-42250D01*
X42500Y-41750D02*
X43000Y-42250D01*
X42500Y-39750D02*
X42500Y-41750D01*
X41250Y-38500D02*
X42500Y-39750D01*
X48750Y-46000D02*
X48750Y-47500D01*
X48500Y-41000D02*
X48750Y-41250D01*
X48750Y-41250D02*
X48750Y-46000D01*
X48000Y-40500D02*
X48500Y-41000D01*
X49250Y-52250D02*
X50500Y-53500D01*
X49250Y-48000D02*
X49250Y-52250D01*
X48750Y-47500D02*
X49250Y-48000D01*
G54D27*
X46000Y-40500D02*
X47000Y-40500D01*
X47000Y-40500D02*
X48000Y-40500D01*
G54D26*
X38500Y-39500D02*
X38750Y-39500D01*
X44000Y-38500D02*
X46000Y-40500D01*
X42750Y-38500D02*
X44000Y-38500D01*
X42250Y-38000D02*
X42750Y-38500D01*
X40250Y-38000D02*
X42250Y-38000D01*
X38750Y-39500D02*
X40250Y-38000D01*
X48500Y-39500D02*
X49000Y-40000D01*
X49000Y-40000D02*
X49000Y-45750D01*
X48500Y-39500D02*
X48000Y-39500D01*
X49500Y-51000D02*
X50250Y-51750D01*
X49500Y-47750D02*
X49500Y-51000D01*
X49000Y-47250D02*
X49500Y-47750D01*
X49000Y-45750D02*
X49000Y-47250D01*
G54D27*
X48000Y-39500D02*
X47000Y-39500D01*
X47000Y-39500D02*
X46000Y-39500D01*
G54D26*
X38500Y-38500D02*
X39000Y-38500D01*
X44500Y-38000D02*
X46000Y-39500D01*
X42750Y-38000D02*
X44500Y-38000D01*
X42500Y-37750D02*
X42750Y-38000D01*
X39750Y-37750D02*
X42500Y-37750D01*
X39000Y-38500D02*
X39750Y-37750D01*
G54D27*
X48000Y-38500D02*
X47000Y-38500D01*
X47000Y-38500D02*
X46000Y-38500D01*
G54D26*
X38500Y-37500D02*
X40500Y-37500D01*
X44500Y-37000D02*
X46000Y-38500D01*
X41000Y-37000D02*
X44500Y-37000D01*
X40500Y-37500D02*
X41000Y-37000D01*
G54D27*
X46000Y-37500D02*
X47000Y-37500D01*
X47000Y-37500D02*
X48000Y-37500D01*
G54D26*
X45000Y-36500D02*
X46000Y-37500D01*
X43000Y-36500D02*
X45000Y-36500D01*
X41500Y-23500D02*
X42250Y-23500D01*
X42250Y-23500D02*
X43250Y-22500D01*
X41500Y-24500D02*
X42250Y-24500D01*
X42250Y-24500D02*
X43250Y-25500D01*
X46250Y-26500D02*
X46000Y-26500D01*
X46000Y-26500D02*
X45625Y-26125D01*
X45625Y-26125D02*
X45625Y-25150D01*
X45875Y-26375D02*
X45875Y-25150D01*
X46000Y-26500D02*
X45875Y-26375D01*
X45875Y-25150D02*
X45875Y-24375D01*
X46625Y-23625D02*
X46625Y-22850D01*
X45875Y-24375D02*
X46625Y-23625D01*
X45625Y-25150D02*
X45625Y-25875D01*
X28000Y-29000D02*
X28000Y-28500D01*
X31000Y-28000D02*
X32500Y-26500D01*
X28500Y-28000D02*
X31000Y-28000D01*
X28000Y-28500D02*
X28500Y-28000D01*
X29000Y-26000D02*
X28000Y-26000D01*
X28000Y-26000D02*
X28000Y-25000D01*
X28000Y-25000D02*
X28000Y-24000D01*
X28000Y-24000D02*
X28000Y-21000D01*
X26000Y-24000D02*
X28000Y-24000D01*
G54D27*
X28250Y-34750D02*
X28250Y-31250D01*
X27000Y-35500D02*
X27500Y-35500D01*
X28250Y-31250D02*
X29000Y-30500D01*
X27500Y-35500D02*
X28250Y-34750D01*
X36000Y-47500D02*
X36000Y-45000D01*
X36000Y-45000D02*
X35000Y-44000D01*
X36000Y-47500D02*
X34000Y-47500D01*
X33500Y-47000D02*
X31500Y-47000D01*
X34000Y-47500D02*
X33500Y-47000D01*
X33500Y-25000D02*
X32000Y-25000D01*
X45000Y-48500D02*
X45000Y-47750D01*
X43750Y-46500D02*
X43500Y-46500D01*
X45000Y-47750D02*
X43750Y-46500D01*
X47000Y-48500D02*
X47000Y-47750D01*
X47000Y-47750D02*
X45750Y-46500D01*
X45750Y-46500D02*
X43500Y-46500D01*
G54D26*
X47750Y-25750D02*
X49000Y-24500D01*
X46375Y-25625D02*
X46500Y-25750D01*
X46500Y-25750D02*
X47750Y-25750D01*
X46375Y-25150D02*
X46375Y-25625D01*
X52000Y-24500D02*
X52500Y-25000D01*
X49000Y-24500D02*
X52000Y-24500D01*
G54D27*
X32000Y-25000D02*
X30000Y-25000D01*
X26500Y-26000D02*
X27250Y-26750D01*
X26000Y-26000D02*
X26500Y-26000D01*
X30250Y-26750D02*
X32000Y-25000D01*
X27250Y-26750D02*
X30250Y-26750D01*
X32500Y-37500D02*
X34250Y-37500D01*
X36250Y-35500D02*
X38500Y-35500D01*
X34250Y-37500D02*
X36250Y-35500D01*
X57500Y-30500D02*
X60000Y-30500D01*
G54D26*
X60000Y-34000D02*
X60250Y-34000D01*
X60250Y-34000D02*
X61000Y-33250D01*
X61000Y-33250D02*
X61000Y-31000D01*
X61000Y-31000D02*
X60500Y-30500D01*
X60500Y-30500D02*
X60000Y-30500D01*
G54D27*
X60000Y-26500D02*
X59250Y-26500D01*
X55000Y-24500D02*
X53410Y-24500D01*
X56750Y-26250D02*
X55000Y-24500D01*
X59000Y-26250D02*
X56750Y-26250D01*
X59250Y-26500D02*
X59000Y-26250D01*
X55150Y-22760D02*
X55819Y-22760D01*
X55819Y-22760D02*
X57000Y-21579D01*
X52500Y-25000D02*
X52910Y-25000D01*
X52910Y-25000D02*
X53410Y-24500D01*
X53410Y-24500D02*
X55150Y-22760D01*
X57500Y-28500D02*
X57500Y-30500D01*
X55000Y-30500D02*
X55000Y-28500D01*
X55000Y-28500D02*
X52500Y-28500D01*
X57500Y-28500D02*
X55000Y-28500D01*
X35500Y-49500D02*
X36000Y-49000D01*
X36000Y-49000D02*
X36000Y-47500D01*
G54D26*
X44250Y-22500D02*
X44000Y-22750D01*
X44000Y-22750D02*
X44000Y-25250D01*
X44000Y-25250D02*
X44250Y-25500D01*
X46125Y-22125D02*
X46125Y-22850D01*
X46125Y-22125D02*
X46000Y-22000D01*
G54D27*
X35000Y-50500D02*
X35000Y-50000D01*
X38000Y-49000D02*
X38000Y-48500D01*
X37500Y-49500D02*
X38000Y-49000D01*
X35500Y-49500D02*
X37500Y-49500D01*
X35000Y-50000D02*
X35500Y-49500D01*
X41000Y-48250D02*
X38250Y-48250D01*
X38250Y-48250D02*
X38000Y-48500D01*
X40000Y-52500D02*
X40500Y-52500D01*
X42750Y-46500D02*
X43500Y-46500D01*
X41000Y-48250D02*
X42750Y-46500D01*
X41000Y-52000D02*
X41000Y-48250D01*
X40500Y-52500D02*
X41000Y-52000D01*
G54D26*
X56000Y-34000D02*
X57000Y-34000D01*
G54D27*
X55000Y-27500D02*
X55000Y-27250D01*
X59000Y-27500D02*
X60000Y-27500D01*
X58250Y-26750D02*
X59000Y-27500D01*
X55500Y-26750D02*
X58250Y-26750D01*
X55000Y-27250D02*
X55500Y-26750D01*
X50000Y-25500D02*
X52000Y-27500D01*
X52000Y-27500D02*
X52500Y-27500D01*
X52500Y-27500D02*
X55000Y-27500D01*
X44000Y-54500D02*
X47000Y-54500D01*
X47000Y-54500D02*
X48000Y-54500D01*
X43000Y-54500D02*
X44000Y-54500D01*
X45000Y-55500D02*
X45000Y-57000D01*
X44000Y-54500D02*
X45000Y-55500D01*
X46000Y-57000D02*
X47000Y-57000D01*
X47000Y-57000D02*
X49000Y-55000D01*
X49000Y-55000D02*
X49000Y-53500D01*
X49000Y-53500D02*
X48000Y-52500D01*
X48000Y-52500D02*
X46000Y-52500D01*
X45000Y-52500D02*
X46000Y-52500D01*
X43000Y-51500D02*
X43500Y-51500D01*
X44500Y-52500D02*
X45000Y-52500D01*
X43500Y-51500D02*
X44500Y-52500D01*
X38000Y-52500D02*
X38500Y-52500D01*
X39500Y-51500D02*
X40000Y-51500D01*
X38500Y-52500D02*
X39500Y-51500D01*
X37000Y-52500D02*
X38000Y-52500D01*
X37000Y-57000D02*
X36000Y-57000D01*
X36000Y-57000D02*
X34000Y-55000D01*
X34000Y-55000D02*
X34000Y-53500D01*
X34000Y-53500D02*
X35000Y-52500D01*
X35000Y-52500D02*
X37000Y-52500D01*
X36000Y-54500D02*
X39000Y-54500D01*
X38000Y-57000D02*
X38000Y-55500D01*
X38000Y-55500D02*
X39000Y-54500D01*
X39000Y-54500D02*
X40000Y-54500D01*
X35000Y-54500D02*
X36000Y-54500D01*
G54D26*
X39500Y-23500D02*
X35500Y-23500D01*
X34606Y-22606D02*
X34606Y-22023D01*
X35500Y-23500D02*
X34606Y-22606D01*
X30000Y-26000D02*
X29500Y-25500D01*
X29500Y-24500D02*
X30000Y-24000D01*
X29500Y-25500D02*
X29500Y-24500D01*
X30000Y-24000D02*
X30000Y-21000D01*
X44500Y-24500D02*
X45250Y-24500D01*
X45375Y-24625D02*
X45375Y-25150D01*
X45250Y-24500D02*
X45375Y-24625D01*
X44500Y-23500D02*
X45250Y-23500D01*
X45375Y-23375D02*
X45375Y-22850D01*
X45250Y-23500D02*
X45375Y-23375D01*
X35750Y-23000D02*
X40000Y-23000D01*
X35393Y-22023D02*
X35393Y-22643D01*
X40000Y-23000D02*
X40500Y-23500D01*
X35393Y-22643D02*
X35750Y-23000D01*
X59500Y-52500D02*
X59500Y-48000D01*
X59500Y-48000D02*
X60000Y-47500D01*
X54500Y-52500D02*
X54500Y-48000D01*
X54500Y-48000D02*
X55000Y-47500D01*
X57000Y-31000D02*
X57500Y-31500D01*
X54250Y-31000D02*
X57000Y-31000D01*
X53750Y-30500D02*
X54250Y-31000D01*
X53750Y-29000D02*
X53750Y-30500D01*
G54D27*
X51000Y-29000D02*
X51000Y-31500D01*
X50500Y-28500D02*
X51000Y-29000D01*
X49500Y-28500D02*
X50500Y-28500D01*
X48750Y-27750D02*
X49500Y-28500D01*
X42000Y-27750D02*
X48750Y-27750D01*
X38500Y-34500D02*
X40750Y-32250D01*
X41000Y-31750D02*
X41000Y-31500D01*
X41000Y-32000D02*
X41000Y-31750D01*
X40750Y-32250D02*
X41000Y-32000D01*
X32500Y-36500D02*
X34250Y-36500D01*
X36250Y-34500D02*
X38500Y-34500D01*
X34250Y-36500D02*
X36250Y-34500D01*
X36000Y-25250D02*
X35250Y-24500D01*
X39500Y-25250D02*
X36000Y-25250D01*
X40250Y-26000D02*
X39500Y-25250D01*
X41000Y-26750D02*
X40250Y-26000D01*
X42000Y-26750D02*
X41000Y-26750D01*
X27750Y-31750D02*
X27750Y-31250D01*
X27750Y-31250D02*
X27000Y-30500D01*
X27750Y-32000D02*
X27750Y-31750D01*
X27750Y-34000D02*
X27750Y-32000D01*
X27000Y-34500D02*
X27250Y-34500D01*
X27250Y-34500D02*
X27750Y-34000D01*
X51000Y-49500D02*
X50750Y-49500D01*
X49000Y-37500D02*
X49000Y-36000D01*
X49500Y-38000D02*
X49000Y-37500D01*
X49500Y-46750D02*
X49500Y-38000D01*
X50000Y-47250D02*
X49500Y-46750D01*
X50000Y-48750D02*
X50000Y-47250D01*
X50750Y-49500D02*
X50000Y-48750D01*
G54D26*
X51000Y-34000D02*
X53000Y-34000D01*
X53000Y-34000D02*
X55000Y-34000D01*
G54D27*
X60000Y-32500D02*
X52750Y-32500D01*
X52500Y-32500D02*
X51000Y-34000D01*
X51000Y-34000D02*
X49000Y-36000D01*
X52750Y-32500D02*
X52500Y-32500D01*
X49000Y-36000D02*
X49000Y-29500D01*
X25000Y-34500D02*
X26000Y-34500D01*
X26000Y-34500D02*
X27000Y-34500D01*
X48500Y-49500D02*
X43000Y-49500D01*
G54D26*
X46250Y-26000D02*
X48250Y-26000D01*
X46250Y-26000D02*
X46125Y-25875D01*
X46125Y-25150D02*
X46125Y-25875D01*
X49500Y-26500D02*
X50000Y-26500D01*
X48750Y-26500D02*
X49500Y-26500D01*
X48250Y-26000D02*
X48750Y-26500D01*
G54D27*
X40000Y-56500D02*
X40750Y-56500D01*
X40750Y-56500D02*
X41500Y-55750D01*
X41500Y-55750D02*
X41500Y-48750D01*
X41500Y-48750D02*
X42750Y-47500D01*
X42750Y-47500D02*
X43500Y-47500D01*
X34750Y-25000D02*
X35500Y-25750D01*
X40500Y-27250D02*
X49500Y-27250D01*
X49500Y-27250D02*
X49750Y-27250D01*
X50000Y-27500D02*
X49750Y-27250D01*
X33250Y-22395D02*
X33622Y-22023D01*
X33250Y-23500D02*
X34750Y-25000D01*
X33250Y-22395D02*
X33250Y-23500D01*
X39500Y-26250D02*
X40500Y-27250D01*
X39000Y-25750D02*
X39500Y-26250D01*
X35500Y-25750D02*
X39000Y-25750D01*
X55000Y-31500D02*
X52250Y-31500D01*
X50750Y-27500D02*
X50000Y-27500D01*
X51500Y-28250D02*
X50750Y-27500D01*
X51500Y-30750D02*
X51500Y-28250D01*
X52250Y-31500D02*
X51500Y-30750D01*
G54D10*
G36*
X35128Y-26100D02*
X33915Y-26100D01*
X33282Y-25467D01*
X33153Y-25380D01*
X33127Y-25375D01*
X33000Y-25350D01*
X32635Y-25350D01*
X32635Y-23874D01*
X32538Y-23640D01*
X32398Y-23499D01*
X32538Y-23360D01*
X32634Y-23126D01*
X32635Y-22874D01*
X32538Y-22640D01*
X32360Y-22461D01*
X32126Y-22365D01*
X31874Y-22364D01*
X31640Y-22461D01*
X31461Y-22639D01*
X31365Y-22873D01*
X31364Y-23125D01*
X31461Y-23359D01*
X31601Y-23500D01*
X31461Y-23639D01*
X31365Y-23873D01*
X31364Y-24125D01*
X31461Y-24359D01*
X31639Y-24538D01*
X31873Y-24634D01*
X32125Y-24635D01*
X32359Y-24538D01*
X32538Y-24360D01*
X32634Y-24126D01*
X32635Y-23874D01*
X32635Y-25350D01*
X31750Y-25350D01*
X31596Y-25380D01*
X31553Y-25409D01*
X31467Y-25467D01*
X29834Y-27100D01*
X26684Y-27100D01*
X26685Y-26864D01*
X26581Y-26612D01*
X26388Y-26419D01*
X26136Y-26315D01*
X25864Y-26314D01*
X25612Y-26418D01*
X25419Y-26611D01*
X25315Y-26863D01*
X25314Y-27135D01*
X25418Y-27387D01*
X25531Y-27500D01*
X25419Y-27611D01*
X25315Y-27863D01*
X25314Y-28135D01*
X25418Y-28387D01*
X25531Y-28500D01*
X25419Y-28611D01*
X25315Y-28863D01*
X25314Y-29135D01*
X25418Y-29387D01*
X25611Y-29580D01*
X25863Y-29684D01*
X26135Y-29685D01*
X26387Y-29581D01*
X26580Y-29388D01*
X26684Y-29136D01*
X26685Y-28864D01*
X26581Y-28612D01*
X26468Y-28499D01*
X26568Y-28400D01*
X27619Y-28400D01*
X27600Y-28500D01*
X27600Y-28502D01*
X27461Y-28639D01*
X27365Y-28873D01*
X27364Y-29125D01*
X27461Y-29359D01*
X27639Y-29538D01*
X27873Y-29634D01*
X28125Y-29635D01*
X28359Y-29538D01*
X28500Y-29398D01*
X28639Y-29538D01*
X28873Y-29634D01*
X29125Y-29635D01*
X29359Y-29538D01*
X29538Y-29360D01*
X29634Y-29126D01*
X29635Y-28874D01*
X29538Y-28640D01*
X29360Y-28461D01*
X29210Y-28400D01*
X31000Y-28400D01*
X31000Y-28399D01*
X31127Y-28374D01*
X31153Y-28369D01*
X31153Y-28369D01*
X31282Y-28282D01*
X31350Y-28215D01*
X31350Y-28334D01*
X28467Y-31217D01*
X28380Y-31346D01*
X28375Y-31372D01*
X28350Y-31500D01*
X28350Y-34834D01*
X27467Y-35717D01*
X27380Y-35846D01*
X27375Y-35872D01*
X27350Y-36000D01*
X27350Y-36903D01*
X27136Y-36815D01*
X26864Y-36814D01*
X26612Y-36918D01*
X26499Y-37031D01*
X26388Y-36919D01*
X26136Y-36815D01*
X25864Y-36814D01*
X25612Y-36918D01*
X25499Y-37031D01*
X25388Y-36919D01*
X25136Y-36815D01*
X25120Y-36815D01*
X25120Y-35185D01*
X25135Y-35185D01*
X25387Y-35081D01*
X25458Y-35010D01*
X25541Y-35010D01*
X25611Y-35080D01*
X25863Y-35184D01*
X26135Y-35185D01*
X26387Y-35081D01*
X26458Y-35010D01*
X26541Y-35010D01*
X26611Y-35080D01*
X26863Y-35184D01*
X27135Y-35185D01*
X27387Y-35081D01*
X27580Y-34888D01*
X27584Y-34877D01*
X27610Y-34860D01*
X28110Y-34360D01*
X28221Y-34195D01*
X28221Y-34195D01*
X28260Y-34000D01*
X28260Y-32000D01*
X28260Y-31750D01*
X28260Y-31250D01*
X28259Y-31249D01*
X28221Y-31054D01*
X28221Y-31054D01*
X28184Y-30999D01*
X28110Y-30889D01*
X28110Y-30889D01*
X27685Y-30463D01*
X27685Y-30364D01*
X27581Y-30112D01*
X27388Y-29919D01*
X27136Y-29815D01*
X26864Y-29814D01*
X26612Y-29918D01*
X26419Y-30111D01*
X26315Y-30363D01*
X26314Y-30635D01*
X26418Y-30887D01*
X26611Y-31080D01*
X26863Y-31184D01*
X26963Y-31184D01*
X27240Y-31461D01*
X27240Y-31750D01*
X27240Y-31814D01*
X26603Y-31814D01*
X26499Y-31857D01*
X26396Y-31815D01*
X26253Y-31814D01*
X25603Y-31814D01*
X25499Y-31857D01*
X25396Y-31815D01*
X25253Y-31814D01*
X25120Y-31814D01*
X25120Y-22260D01*
X25342Y-22482D01*
X25768Y-22659D01*
X26229Y-22660D01*
X26656Y-22483D01*
X26982Y-22157D01*
X27159Y-21731D01*
X27160Y-21270D01*
X26983Y-20843D01*
X26760Y-20620D01*
X27416Y-20620D01*
X27315Y-20863D01*
X27314Y-21135D01*
X27418Y-21387D01*
X27600Y-21568D01*
X27600Y-23431D01*
X27431Y-23600D01*
X26683Y-23600D01*
X26630Y-23471D01*
X26529Y-23369D01*
X26396Y-23315D01*
X26253Y-23314D01*
X25603Y-23314D01*
X25471Y-23369D01*
X25369Y-23470D01*
X25315Y-23603D01*
X25314Y-23746D01*
X25314Y-24396D01*
X25369Y-24528D01*
X25435Y-24595D01*
X25419Y-24611D01*
X25315Y-24863D01*
X25314Y-25135D01*
X25418Y-25387D01*
X25611Y-25580D01*
X25863Y-25684D01*
X26135Y-25685D01*
X26387Y-25581D01*
X26580Y-25388D01*
X26684Y-25136D01*
X26685Y-24864D01*
X26581Y-24612D01*
X26563Y-24595D01*
X26630Y-24529D01*
X26683Y-24400D01*
X27431Y-24400D01*
X27531Y-24500D01*
X27419Y-24611D01*
X27315Y-24863D01*
X27314Y-25135D01*
X27418Y-25387D01*
X27566Y-25535D01*
X27461Y-25639D01*
X27365Y-25873D01*
X27364Y-26125D01*
X27461Y-26359D01*
X27639Y-26538D01*
X27873Y-26634D01*
X28125Y-26635D01*
X28359Y-26538D01*
X28498Y-26400D01*
X28502Y-26400D01*
X28639Y-26538D01*
X28873Y-26634D01*
X29125Y-26635D01*
X29359Y-26538D01*
X29500Y-26398D01*
X29639Y-26538D01*
X29873Y-26634D01*
X30125Y-26635D01*
X30359Y-26538D01*
X30538Y-26360D01*
X30634Y-26126D01*
X30635Y-25874D01*
X30538Y-25640D01*
X30360Y-25461D01*
X30126Y-25365D01*
X29930Y-25364D01*
X29900Y-25334D01*
X29900Y-24684D01*
X30135Y-24685D01*
X30387Y-24581D01*
X30580Y-24388D01*
X30684Y-24136D01*
X30685Y-23864D01*
X30581Y-23612D01*
X30400Y-23431D01*
X30400Y-21568D01*
X30580Y-21388D01*
X30684Y-21136D01*
X30685Y-20864D01*
X30584Y-20620D01*
X31380Y-20620D01*
X31380Y-22120D01*
X32832Y-22120D01*
X32778Y-22200D01*
X32740Y-22395D01*
X32740Y-23500D01*
X32778Y-23695D01*
X32889Y-23860D01*
X34389Y-25360D01*
X34389Y-25360D01*
X34389Y-25360D01*
X35128Y-26100D01*
X35128Y-26100D01*
G37*
G54D28*
X35128Y-26100D02*
X33915Y-26100D01*
X33282Y-25467D01*
X33153Y-25380D01*
X33127Y-25375D01*
X33000Y-25350D01*
X32635Y-25350D01*
X32635Y-23874D01*
X32538Y-23640D01*
X32398Y-23499D01*
X32538Y-23360D01*
X32634Y-23126D01*
X32635Y-22874D01*
X32538Y-22640D01*
X32360Y-22461D01*
X32126Y-22365D01*
X31874Y-22364D01*
X31640Y-22461D01*
X31461Y-22639D01*
X31365Y-22873D01*
X31364Y-23125D01*
X31461Y-23359D01*
X31601Y-23500D01*
X31461Y-23639D01*
X31365Y-23873D01*
X31364Y-24125D01*
X31461Y-24359D01*
X31639Y-24538D01*
X31873Y-24634D01*
X32125Y-24635D01*
X32359Y-24538D01*
X32538Y-24360D01*
X32634Y-24126D01*
X32635Y-23874D01*
X32635Y-25350D01*
X31750Y-25350D01*
X31596Y-25380D01*
X31553Y-25409D01*
X31467Y-25467D01*
X29834Y-27100D01*
X26684Y-27100D01*
X26685Y-26864D01*
X26581Y-26612D01*
X26388Y-26419D01*
X26136Y-26315D01*
X25864Y-26314D01*
X25612Y-26418D01*
X25419Y-26611D01*
X25315Y-26863D01*
X25314Y-27135D01*
X25418Y-27387D01*
X25531Y-27500D01*
X25419Y-27611D01*
X25315Y-27863D01*
X25314Y-28135D01*
X25418Y-28387D01*
X25531Y-28500D01*
X25419Y-28611D01*
X25315Y-28863D01*
X25314Y-29135D01*
X25418Y-29387D01*
X25611Y-29580D01*
X25863Y-29684D01*
X26135Y-29685D01*
X26387Y-29581D01*
X26580Y-29388D01*
X26684Y-29136D01*
X26685Y-28864D01*
X26581Y-28612D01*
X26468Y-28499D01*
X26568Y-28400D01*
X27619Y-28400D01*
X27600Y-28500D01*
X27600Y-28502D01*
X27461Y-28639D01*
X27365Y-28873D01*
X27364Y-29125D01*
X27461Y-29359D01*
X27639Y-29538D01*
X27873Y-29634D01*
X28125Y-29635D01*
X28359Y-29538D01*
X28500Y-29398D01*
X28639Y-29538D01*
X28873Y-29634D01*
X29125Y-29635D01*
X29359Y-29538D01*
X29538Y-29360D01*
X29634Y-29126D01*
X29635Y-28874D01*
X29538Y-28640D01*
X29360Y-28461D01*
X29210Y-28400D01*
X31000Y-28400D01*
X31000Y-28399D01*
X31127Y-28374D01*
X31153Y-28369D01*
X31153Y-28369D01*
X31282Y-28282D01*
X31350Y-28215D01*
X31350Y-28334D01*
X28467Y-31217D01*
X28380Y-31346D01*
X28375Y-31372D01*
X28350Y-31500D01*
X28350Y-34834D01*
X27467Y-35717D01*
X27380Y-35846D01*
X27375Y-35872D01*
X27350Y-36000D01*
X27350Y-36903D01*
X27136Y-36815D01*
X26864Y-36814D01*
X26612Y-36918D01*
X26499Y-37031D01*
X26388Y-36919D01*
X26136Y-36815D01*
X25864Y-36814D01*
X25612Y-36918D01*
X25499Y-37031D01*
X25388Y-36919D01*
X25136Y-36815D01*
X25120Y-36815D01*
X25120Y-35185D01*
X25135Y-35185D01*
X25387Y-35081D01*
X25458Y-35010D01*
X25541Y-35010D01*
X25611Y-35080D01*
X25863Y-35184D01*
X26135Y-35185D01*
X26387Y-35081D01*
X26458Y-35010D01*
X26541Y-35010D01*
X26611Y-35080D01*
X26863Y-35184D01*
X27135Y-35185D01*
X27387Y-35081D01*
X27580Y-34888D01*
X27584Y-34877D01*
X27610Y-34860D01*
X28110Y-34360D01*
X28221Y-34195D01*
X28221Y-34195D01*
X28260Y-34000D01*
X28260Y-32000D01*
X28260Y-31750D01*
X28260Y-31250D01*
X28259Y-31249D01*
X28221Y-31054D01*
X28221Y-31054D01*
X28184Y-30999D01*
X28110Y-30889D01*
X28110Y-30889D01*
X27685Y-30463D01*
X27685Y-30364D01*
X27581Y-30112D01*
X27388Y-29919D01*
X27136Y-29815D01*
X26864Y-29814D01*
X26612Y-29918D01*
X26419Y-30111D01*
X26315Y-30363D01*
X26314Y-30635D01*
X26418Y-30887D01*
X26611Y-31080D01*
X26863Y-31184D01*
X26963Y-31184D01*
X27240Y-31461D01*
X27240Y-31750D01*
X27240Y-31814D01*
X26603Y-31814D01*
X26499Y-31857D01*
X26396Y-31815D01*
X26253Y-31814D01*
X25603Y-31814D01*
X25499Y-31857D01*
X25396Y-31815D01*
X25253Y-31814D01*
X25120Y-31814D01*
X25120Y-22260D01*
X25342Y-22482D01*
X25768Y-22659D01*
X26229Y-22660D01*
X26656Y-22483D01*
X26982Y-22157D01*
X27159Y-21731D01*
X27160Y-21270D01*
X26983Y-20843D01*
X26760Y-20620D01*
X27416Y-20620D01*
X27315Y-20863D01*
X27314Y-21135D01*
X27418Y-21387D01*
X27600Y-21568D01*
X27600Y-23431D01*
X27431Y-23600D01*
X26683Y-23600D01*
X26630Y-23471D01*
X26529Y-23369D01*
X26396Y-23315D01*
X26253Y-23314D01*
X25603Y-23314D01*
X25471Y-23369D01*
X25369Y-23470D01*
X25315Y-23603D01*
X25314Y-23746D01*
X25314Y-24396D01*
X25369Y-24528D01*
X25435Y-24595D01*
X25419Y-24611D01*
X25315Y-24863D01*
X25314Y-25135D01*
X25418Y-25387D01*
X25611Y-25580D01*
X25863Y-25684D01*
X26135Y-25685D01*
X26387Y-25581D01*
X26580Y-25388D01*
X26684Y-25136D01*
X26685Y-24864D01*
X26581Y-24612D01*
X26563Y-24595D01*
X26630Y-24529D01*
X26683Y-24400D01*
X27431Y-24400D01*
X27531Y-24500D01*
X27419Y-24611D01*
X27315Y-24863D01*
X27314Y-25135D01*
X27418Y-25387D01*
X27566Y-25535D01*
X27461Y-25639D01*
X27365Y-25873D01*
X27364Y-26125D01*
X27461Y-26359D01*
X27639Y-26538D01*
X27873Y-26634D01*
X28125Y-26635D01*
X28359Y-26538D01*
X28498Y-26400D01*
X28502Y-26400D01*
X28639Y-26538D01*
X28873Y-26634D01*
X29125Y-26635D01*
X29359Y-26538D01*
X29500Y-26398D01*
X29639Y-26538D01*
X29873Y-26634D01*
X30125Y-26635D01*
X30359Y-26538D01*
X30538Y-26360D01*
X30634Y-26126D01*
X30635Y-25874D01*
X30538Y-25640D01*
X30360Y-25461D01*
X30126Y-25365D01*
X29930Y-25364D01*
X29900Y-25334D01*
X29900Y-24684D01*
X30135Y-24685D01*
X30387Y-24581D01*
X30580Y-24388D01*
X30684Y-24136D01*
X30685Y-23864D01*
X30581Y-23612D01*
X30400Y-23431D01*
X30400Y-21568D01*
X30580Y-21388D01*
X30684Y-21136D01*
X30685Y-20864D01*
X30584Y-20620D01*
X31380Y-20620D01*
X31380Y-22120D01*
X32832Y-22120D01*
X32778Y-22200D01*
X32740Y-22395D01*
X32740Y-23500D01*
X32778Y-23695D01*
X32889Y-23860D01*
X34389Y-25360D01*
X34389Y-25360D01*
X34389Y-25360D01*
X35128Y-26100D01*
G54D10*
G36*
X38101Y-33000D02*
X37961Y-33139D01*
X37865Y-33373D01*
X37864Y-33625D01*
X37961Y-33859D01*
X38091Y-33990D01*
X36250Y-33990D01*
X36054Y-34028D01*
X35889Y-34139D01*
X35889Y-34139D01*
X35889Y-34139D01*
X34038Y-35990D01*
X32907Y-35990D01*
X33038Y-35860D01*
X33134Y-35626D01*
X33135Y-35374D01*
X33038Y-35140D01*
X32898Y-34999D01*
X33038Y-34860D01*
X33134Y-34626D01*
X33135Y-34374D01*
X33038Y-34140D01*
X32898Y-33999D01*
X33038Y-33860D01*
X33134Y-33626D01*
X33135Y-33374D01*
X33038Y-33140D01*
X32898Y-32999D01*
X33038Y-32860D01*
X33134Y-32626D01*
X33135Y-32374D01*
X33038Y-32140D01*
X32898Y-31999D01*
X33038Y-31860D01*
X33134Y-31626D01*
X33135Y-31374D01*
X33038Y-31140D01*
X32898Y-30999D01*
X33038Y-30860D01*
X33134Y-30626D01*
X33135Y-30374D01*
X33038Y-30140D01*
X32898Y-29999D01*
X33038Y-29860D01*
X33134Y-29626D01*
X33135Y-29374D01*
X33038Y-29140D01*
X32898Y-28999D01*
X33038Y-28860D01*
X33134Y-28626D01*
X33135Y-28374D01*
X33038Y-28140D01*
X32898Y-27999D01*
X33038Y-27860D01*
X33134Y-27626D01*
X33135Y-27374D01*
X33038Y-27140D01*
X32978Y-27080D01*
X32978Y-27080D01*
X33080Y-26979D01*
X33134Y-26846D01*
X33135Y-26703D01*
X33135Y-26700D01*
X34217Y-27782D01*
X34217Y-27782D01*
X34303Y-27840D01*
X34346Y-27869D01*
X34346Y-27869D01*
X34500Y-27900D01*
X38002Y-27900D01*
X38101Y-28000D01*
X37961Y-28139D01*
X37865Y-28373D01*
X37864Y-28625D01*
X37961Y-28859D01*
X38101Y-29000D01*
X37961Y-29139D01*
X37865Y-29373D01*
X37864Y-29625D01*
X37961Y-29859D01*
X38101Y-30000D01*
X37961Y-30139D01*
X37865Y-30373D01*
X37864Y-30625D01*
X37961Y-30859D01*
X38101Y-31000D01*
X37961Y-31139D01*
X37865Y-31373D01*
X37864Y-31625D01*
X37961Y-31859D01*
X38101Y-32000D01*
X37961Y-32139D01*
X37865Y-32373D01*
X37864Y-32625D01*
X37961Y-32859D01*
X38101Y-33000D01*
X38101Y-33000D01*
G37*
G54D28*
X38101Y-33000D02*
X37961Y-33139D01*
X37865Y-33373D01*
X37864Y-33625D01*
X37961Y-33859D01*
X38091Y-33990D01*
X36250Y-33990D01*
X36054Y-34028D01*
X35889Y-34139D01*
X35889Y-34139D01*
X35889Y-34139D01*
X34038Y-35990D01*
X32907Y-35990D01*
X33038Y-35860D01*
X33134Y-35626D01*
X33135Y-35374D01*
X33038Y-35140D01*
X32898Y-34999D01*
X33038Y-34860D01*
X33134Y-34626D01*
X33135Y-34374D01*
X33038Y-34140D01*
X32898Y-33999D01*
X33038Y-33860D01*
X33134Y-33626D01*
X33135Y-33374D01*
X33038Y-33140D01*
X32898Y-32999D01*
X33038Y-32860D01*
X33134Y-32626D01*
X33135Y-32374D01*
X33038Y-32140D01*
X32898Y-31999D01*
X33038Y-31860D01*
X33134Y-31626D01*
X33135Y-31374D01*
X33038Y-31140D01*
X32898Y-30999D01*
X33038Y-30860D01*
X33134Y-30626D01*
X33135Y-30374D01*
X33038Y-30140D01*
X32898Y-29999D01*
X33038Y-29860D01*
X33134Y-29626D01*
X33135Y-29374D01*
X33038Y-29140D01*
X32898Y-28999D01*
X33038Y-28860D01*
X33134Y-28626D01*
X33135Y-28374D01*
X33038Y-28140D01*
X32898Y-27999D01*
X33038Y-27860D01*
X33134Y-27626D01*
X33135Y-27374D01*
X33038Y-27140D01*
X32978Y-27080D01*
X32978Y-27080D01*
X33080Y-26979D01*
X33134Y-26846D01*
X33135Y-26703D01*
X33135Y-26700D01*
X34217Y-27782D01*
X34217Y-27782D01*
X34303Y-27840D01*
X34346Y-27869D01*
X34346Y-27869D01*
X34500Y-27900D01*
X38002Y-27900D01*
X38101Y-28000D01*
X37961Y-28139D01*
X37865Y-28373D01*
X37864Y-28625D01*
X37961Y-28859D01*
X38101Y-29000D01*
X37961Y-29139D01*
X37865Y-29373D01*
X37864Y-29625D01*
X37961Y-29859D01*
X38101Y-30000D01*
X37961Y-30139D01*
X37865Y-30373D01*
X37864Y-30625D01*
X37961Y-30859D01*
X38101Y-31000D01*
X37961Y-31139D01*
X37865Y-31373D01*
X37864Y-31625D01*
X37961Y-31859D01*
X38101Y-32000D01*
X37961Y-32139D01*
X37865Y-32373D01*
X37864Y-32625D01*
X37961Y-32859D01*
X38101Y-33000D01*
G54D10*
G36*
X39101Y-24000D02*
X38961Y-24139D01*
X38865Y-24373D01*
X38864Y-24625D01*
X38912Y-24740D01*
X36211Y-24740D01*
X35728Y-24257D01*
X35703Y-24197D01*
X35553Y-24046D01*
X35356Y-23965D01*
X35144Y-23964D01*
X34947Y-24046D01*
X34796Y-24196D01*
X34758Y-24287D01*
X33760Y-23288D01*
X33760Y-22777D01*
X33993Y-22777D01*
X34114Y-22727D01*
X34234Y-22777D01*
X34248Y-22777D01*
X34323Y-22889D01*
X35217Y-23782D01*
X35217Y-23782D01*
X35303Y-23840D01*
X35346Y-23869D01*
X35346Y-23869D01*
X35499Y-23899D01*
X35500Y-23900D01*
X39002Y-23900D01*
X39101Y-24000D01*
X39101Y-24000D01*
G37*
G54D28*
X39101Y-24000D02*
X38961Y-24139D01*
X38865Y-24373D01*
X38864Y-24625D01*
X38912Y-24740D01*
X36211Y-24740D01*
X35728Y-24257D01*
X35703Y-24197D01*
X35553Y-24046D01*
X35356Y-23965D01*
X35144Y-23964D01*
X34947Y-24046D01*
X34796Y-24196D01*
X34758Y-24287D01*
X33760Y-23288D01*
X33760Y-22777D01*
X33993Y-22777D01*
X34114Y-22727D01*
X34234Y-22777D01*
X34248Y-22777D01*
X34323Y-22889D01*
X35217Y-23782D01*
X35217Y-23782D01*
X35303Y-23840D01*
X35346Y-23869D01*
X35346Y-23869D01*
X35499Y-23899D01*
X35500Y-23900D01*
X39002Y-23900D01*
X39101Y-24000D01*
G54D10*
G36*
X40514Y-33919D02*
X38834Y-35600D01*
X37750Y-35600D01*
X37622Y-35625D01*
X37596Y-35630D01*
X37467Y-35717D01*
X35084Y-38100D01*
X32997Y-38100D01*
X32860Y-37961D01*
X32626Y-37865D01*
X32374Y-37864D01*
X32140Y-37961D01*
X31961Y-38139D01*
X31865Y-38373D01*
X31864Y-38625D01*
X31961Y-38859D01*
X32101Y-39000D01*
X31961Y-39139D01*
X31865Y-39373D01*
X31864Y-39625D01*
X31961Y-39859D01*
X32101Y-40000D01*
X32001Y-40100D01*
X31750Y-40100D01*
X31596Y-40130D01*
X31553Y-40159D01*
X31467Y-40217D01*
X30150Y-41534D01*
X30150Y-38165D01*
X31865Y-36450D01*
X31864Y-36625D01*
X31961Y-36859D01*
X32139Y-37038D01*
X32373Y-37134D01*
X32625Y-37135D01*
X32859Y-37038D01*
X32887Y-37010D01*
X34250Y-37010D01*
X34445Y-36971D01*
X34445Y-36971D01*
X34610Y-36860D01*
X36461Y-35010D01*
X38111Y-35010D01*
X38139Y-35038D01*
X38373Y-35134D01*
X38625Y-35135D01*
X38859Y-35038D01*
X39038Y-34860D01*
X39134Y-34626D01*
X39134Y-34586D01*
X40367Y-33353D01*
X40360Y-33372D01*
X40359Y-33626D01*
X40457Y-33862D01*
X40514Y-33919D01*
X40514Y-33919D01*
G37*
G54D28*
X40514Y-33919D02*
X38834Y-35600D01*
X37750Y-35600D01*
X37622Y-35625D01*
X37596Y-35630D01*
X37467Y-35717D01*
X35084Y-38100D01*
X32997Y-38100D01*
X32860Y-37961D01*
X32626Y-37865D01*
X32374Y-37864D01*
X32140Y-37961D01*
X31961Y-38139D01*
X31865Y-38373D01*
X31864Y-38625D01*
X31961Y-38859D01*
X32101Y-39000D01*
X31961Y-39139D01*
X31865Y-39373D01*
X31864Y-39625D01*
X31961Y-39859D01*
X32101Y-40000D01*
X32001Y-40100D01*
X31750Y-40100D01*
X31596Y-40130D01*
X31553Y-40159D01*
X31467Y-40217D01*
X30150Y-41534D01*
X30150Y-38165D01*
X31865Y-36450D01*
X31864Y-36625D01*
X31961Y-36859D01*
X32139Y-37038D01*
X32373Y-37134D01*
X32625Y-37135D01*
X32859Y-37038D01*
X32887Y-37010D01*
X34250Y-37010D01*
X34445Y-36971D01*
X34445Y-36971D01*
X34610Y-36860D01*
X36461Y-35010D01*
X38111Y-35010D01*
X38139Y-35038D01*
X38373Y-35134D01*
X38625Y-35135D01*
X38859Y-35038D01*
X39038Y-34860D01*
X39134Y-34626D01*
X39134Y-34586D01*
X40367Y-33353D01*
X40360Y-33372D01*
X40359Y-33626D01*
X40457Y-33862D01*
X40514Y-33919D01*
G54D10*
G36*
X44542Y-37608D02*
X44500Y-37600D01*
X42915Y-37600D01*
X42782Y-37467D01*
X42682Y-37400D01*
X44334Y-37400D01*
X44542Y-37608D01*
X44542Y-37608D01*
G37*
G54D28*
X44542Y-37608D02*
X44500Y-37600D01*
X42915Y-37600D01*
X42782Y-37467D01*
X42682Y-37400D01*
X44334Y-37400D01*
X44542Y-37608D01*
G54D10*
G36*
X45531Y-41000D02*
X45419Y-41111D01*
X45315Y-41363D01*
X45314Y-41619D01*
X45084Y-41850D01*
X43165Y-41850D01*
X42900Y-41584D01*
X42900Y-41134D01*
X43125Y-41135D01*
X43359Y-41038D01*
X43500Y-40898D01*
X43639Y-41038D01*
X43873Y-41134D01*
X44125Y-41135D01*
X44359Y-41038D01*
X44538Y-40860D01*
X44634Y-40626D01*
X44635Y-40374D01*
X44538Y-40140D01*
X44360Y-39961D01*
X44126Y-39865D01*
X43874Y-39864D01*
X43640Y-39961D01*
X43499Y-40101D01*
X43360Y-39961D01*
X43126Y-39865D01*
X42900Y-39864D01*
X42900Y-39750D01*
X42874Y-39622D01*
X42869Y-39596D01*
X42869Y-39596D01*
X42782Y-39467D01*
X42782Y-39467D01*
X42392Y-39076D01*
X42580Y-38888D01*
X42590Y-38865D01*
X42596Y-38869D01*
X42596Y-38869D01*
X42750Y-38900D01*
X43834Y-38900D01*
X45315Y-40380D01*
X45314Y-40635D01*
X45418Y-40887D01*
X45531Y-41000D01*
X45531Y-41000D01*
G37*
G54D28*
X45531Y-41000D02*
X45419Y-41111D01*
X45315Y-41363D01*
X45314Y-41619D01*
X45084Y-41850D01*
X43165Y-41850D01*
X42900Y-41584D01*
X42900Y-41134D01*
X43125Y-41135D01*
X43359Y-41038D01*
X43500Y-40898D01*
X43639Y-41038D01*
X43873Y-41134D01*
X44125Y-41135D01*
X44359Y-41038D01*
X44538Y-40860D01*
X44634Y-40626D01*
X44635Y-40374D01*
X44538Y-40140D01*
X44360Y-39961D01*
X44126Y-39865D01*
X43874Y-39864D01*
X43640Y-39961D01*
X43499Y-40101D01*
X43360Y-39961D01*
X43126Y-39865D01*
X42900Y-39864D01*
X42900Y-39750D01*
X42874Y-39622D01*
X42869Y-39596D01*
X42869Y-39596D01*
X42782Y-39467D01*
X42782Y-39467D01*
X42392Y-39076D01*
X42580Y-38888D01*
X42590Y-38865D01*
X42596Y-38869D01*
X42596Y-38869D01*
X42750Y-38900D01*
X43834Y-38900D01*
X45315Y-40380D01*
X45314Y-40635D01*
X45418Y-40887D01*
X45531Y-41000D01*
G54D10*
G36*
X48490Y-37021D02*
X48388Y-36919D01*
X48136Y-36815D01*
X47864Y-36814D01*
X47612Y-36918D01*
X47541Y-36990D01*
X47458Y-36990D01*
X47388Y-36919D01*
X47136Y-36815D01*
X46864Y-36814D01*
X46612Y-36918D01*
X46541Y-36990D01*
X46458Y-36990D01*
X46388Y-36919D01*
X46136Y-36815D01*
X45880Y-36814D01*
X45282Y-36217D01*
X45153Y-36130D01*
X45127Y-36125D01*
X45000Y-36100D01*
X43356Y-36100D01*
X43352Y-36095D01*
X43387Y-36081D01*
X43580Y-35888D01*
X43684Y-35636D01*
X43685Y-35364D01*
X43581Y-35112D01*
X43388Y-34919D01*
X43136Y-34815D01*
X42864Y-34814D01*
X42612Y-34918D01*
X42431Y-35100D01*
X41505Y-35100D01*
X41363Y-34957D01*
X41127Y-34860D01*
X40873Y-34859D01*
X40637Y-34957D01*
X40457Y-35136D01*
X40360Y-35372D01*
X40359Y-35626D01*
X40457Y-35862D01*
X40600Y-36005D01*
X40600Y-36084D01*
X40084Y-36600D01*
X39134Y-36600D01*
X39135Y-36374D01*
X39134Y-36373D01*
X39153Y-36369D01*
X39153Y-36369D01*
X39282Y-36282D01*
X41282Y-34282D01*
X41282Y-34282D01*
X41369Y-34153D01*
X41369Y-34153D01*
X41369Y-34153D01*
X41398Y-34006D01*
X41505Y-33900D01*
X42431Y-33900D01*
X42611Y-34080D01*
X42863Y-34184D01*
X43135Y-34185D01*
X43387Y-34081D01*
X43580Y-33888D01*
X43684Y-33636D01*
X43685Y-33364D01*
X43581Y-33112D01*
X43388Y-32919D01*
X43136Y-32815D01*
X42864Y-32814D01*
X42612Y-32918D01*
X42431Y-33100D01*
X41505Y-33100D01*
X41363Y-32957D01*
X41127Y-32860D01*
X40873Y-32859D01*
X40852Y-32868D01*
X41110Y-32610D01*
X41360Y-32360D01*
X41360Y-32360D01*
X41434Y-32250D01*
X41471Y-32195D01*
X41471Y-32195D01*
X41509Y-32000D01*
X41510Y-32000D01*
X41510Y-31888D01*
X41538Y-31860D01*
X41634Y-31626D01*
X41635Y-31374D01*
X41538Y-31140D01*
X41360Y-30961D01*
X41126Y-30865D01*
X40874Y-30864D01*
X40640Y-30961D01*
X40461Y-31139D01*
X40365Y-31373D01*
X40364Y-31625D01*
X40449Y-31829D01*
X40389Y-31889D01*
X39900Y-32378D01*
X39900Y-31165D01*
X40415Y-30650D01*
X42584Y-30650D01*
X44350Y-32415D01*
X44350Y-34250D01*
X44375Y-34377D01*
X44380Y-34403D01*
X44467Y-34532D01*
X45314Y-35380D01*
X45314Y-35896D01*
X45369Y-36028D01*
X45470Y-36130D01*
X45603Y-36184D01*
X45746Y-36185D01*
X46396Y-36185D01*
X46500Y-36142D01*
X46603Y-36184D01*
X46746Y-36185D01*
X47396Y-36185D01*
X47500Y-36142D01*
X47603Y-36184D01*
X47746Y-36185D01*
X48396Y-36185D01*
X48490Y-36146D01*
X48490Y-37021D01*
X48490Y-37021D01*
G37*
G54D28*
X48490Y-37021D02*
X48388Y-36919D01*
X48136Y-36815D01*
X47864Y-36814D01*
X47612Y-36918D01*
X47541Y-36990D01*
X47458Y-36990D01*
X47388Y-36919D01*
X47136Y-36815D01*
X46864Y-36814D01*
X46612Y-36918D01*
X46541Y-36990D01*
X46458Y-36990D01*
X46388Y-36919D01*
X46136Y-36815D01*
X45880Y-36814D01*
X45282Y-36217D01*
X45153Y-36130D01*
X45127Y-36125D01*
X45000Y-36100D01*
X43356Y-36100D01*
X43352Y-36095D01*
X43387Y-36081D01*
X43580Y-35888D01*
X43684Y-35636D01*
X43685Y-35364D01*
X43581Y-35112D01*
X43388Y-34919D01*
X43136Y-34815D01*
X42864Y-34814D01*
X42612Y-34918D01*
X42431Y-35100D01*
X41505Y-35100D01*
X41363Y-34957D01*
X41127Y-34860D01*
X40873Y-34859D01*
X40637Y-34957D01*
X40457Y-35136D01*
X40360Y-35372D01*
X40359Y-35626D01*
X40457Y-35862D01*
X40600Y-36005D01*
X40600Y-36084D01*
X40084Y-36600D01*
X39134Y-36600D01*
X39135Y-36374D01*
X39134Y-36373D01*
X39153Y-36369D01*
X39153Y-36369D01*
X39282Y-36282D01*
X41282Y-34282D01*
X41282Y-34282D01*
X41369Y-34153D01*
X41369Y-34153D01*
X41369Y-34153D01*
X41398Y-34006D01*
X41505Y-33900D01*
X42431Y-33900D01*
X42611Y-34080D01*
X42863Y-34184D01*
X43135Y-34185D01*
X43387Y-34081D01*
X43580Y-33888D01*
X43684Y-33636D01*
X43685Y-33364D01*
X43581Y-33112D01*
X43388Y-32919D01*
X43136Y-32815D01*
X42864Y-32814D01*
X42612Y-32918D01*
X42431Y-33100D01*
X41505Y-33100D01*
X41363Y-32957D01*
X41127Y-32860D01*
X40873Y-32859D01*
X40852Y-32868D01*
X41110Y-32610D01*
X41360Y-32360D01*
X41360Y-32360D01*
X41434Y-32250D01*
X41471Y-32195D01*
X41471Y-32195D01*
X41509Y-32000D01*
X41510Y-32000D01*
X41510Y-31888D01*
X41538Y-31860D01*
X41634Y-31626D01*
X41635Y-31374D01*
X41538Y-31140D01*
X41360Y-30961D01*
X41126Y-30865D01*
X40874Y-30864D01*
X40640Y-30961D01*
X40461Y-31139D01*
X40365Y-31373D01*
X40364Y-31625D01*
X40449Y-31829D01*
X40389Y-31889D01*
X39900Y-32378D01*
X39900Y-31165D01*
X40415Y-30650D01*
X42584Y-30650D01*
X44350Y-32415D01*
X44350Y-34250D01*
X44375Y-34377D01*
X44380Y-34403D01*
X44467Y-34532D01*
X45314Y-35380D01*
X45314Y-35896D01*
X45369Y-36028D01*
X45470Y-36130D01*
X45603Y-36184D01*
X45746Y-36185D01*
X46396Y-36185D01*
X46500Y-36142D01*
X46603Y-36184D01*
X46746Y-36185D01*
X47396Y-36185D01*
X47500Y-36142D01*
X47603Y-36184D01*
X47746Y-36185D01*
X48396Y-36185D01*
X48490Y-36146D01*
X48490Y-37021D01*
G54D10*
G36*
X48850Y-48903D02*
X48636Y-48815D01*
X48364Y-48814D01*
X48112Y-48918D01*
X48041Y-48990D01*
X47685Y-48990D01*
X47685Y-46364D01*
X47581Y-46112D01*
X47388Y-45919D01*
X47136Y-45815D01*
X46864Y-45814D01*
X46612Y-45918D01*
X46419Y-46111D01*
X46315Y-46363D01*
X46314Y-46635D01*
X46418Y-46887D01*
X46611Y-47080D01*
X46863Y-47184D01*
X47135Y-47185D01*
X47387Y-47081D01*
X47580Y-46888D01*
X47684Y-46636D01*
X47685Y-46364D01*
X47685Y-48990D01*
X46681Y-48990D01*
X46709Y-48921D01*
X46710Y-48778D01*
X46710Y-48078D01*
X46655Y-47946D01*
X46554Y-47844D01*
X46421Y-47790D01*
X46278Y-47789D01*
X45578Y-47789D01*
X45446Y-47844D01*
X45344Y-47945D01*
X45290Y-48078D01*
X45289Y-48221D01*
X45289Y-48921D01*
X45318Y-48990D01*
X43458Y-48990D01*
X43388Y-48919D01*
X43136Y-48815D01*
X42864Y-48814D01*
X42612Y-48918D01*
X42419Y-49111D01*
X42315Y-49363D01*
X42314Y-49635D01*
X42418Y-49887D01*
X42531Y-50000D01*
X42419Y-50111D01*
X42315Y-50363D01*
X42314Y-50635D01*
X42418Y-50887D01*
X42531Y-51000D01*
X42419Y-51111D01*
X42315Y-51363D01*
X42314Y-51635D01*
X42418Y-51887D01*
X42611Y-52080D01*
X42863Y-52184D01*
X43135Y-52185D01*
X43367Y-52089D01*
X44139Y-52860D01*
X44304Y-52971D01*
X44304Y-52971D01*
X44311Y-52972D01*
X44344Y-53053D01*
X44445Y-53155D01*
X44578Y-53209D01*
X44721Y-53210D01*
X45421Y-53210D01*
X45553Y-53155D01*
X45604Y-53104D01*
X45858Y-53209D01*
X46140Y-53210D01*
X46401Y-53102D01*
X46494Y-53010D01*
X47788Y-53010D01*
X48490Y-53711D01*
X48490Y-53818D01*
X48421Y-53790D01*
X48278Y-53789D01*
X47578Y-53789D01*
X47446Y-53844D01*
X47395Y-53895D01*
X47141Y-53790D01*
X46859Y-53789D01*
X46598Y-53897D01*
X46505Y-53990D01*
X44000Y-53990D01*
X43458Y-53990D01*
X43388Y-53919D01*
X43136Y-53815D01*
X42864Y-53814D01*
X42612Y-53918D01*
X42419Y-54111D01*
X42315Y-54363D01*
X42314Y-54635D01*
X42418Y-54887D01*
X42531Y-55000D01*
X42419Y-55111D01*
X42315Y-55363D01*
X42314Y-55635D01*
X42418Y-55887D01*
X42531Y-56000D01*
X42419Y-56111D01*
X42315Y-56363D01*
X42314Y-56635D01*
X42418Y-56887D01*
X42611Y-57080D01*
X42863Y-57184D01*
X43135Y-57185D01*
X43387Y-57081D01*
X43580Y-56888D01*
X43684Y-56636D01*
X43685Y-56364D01*
X43581Y-56112D01*
X43468Y-55999D01*
X43580Y-55888D01*
X43684Y-55636D01*
X43685Y-55364D01*
X43581Y-55112D01*
X43478Y-55010D01*
X43788Y-55010D01*
X44490Y-55711D01*
X44490Y-56541D01*
X44419Y-56611D01*
X44315Y-56863D01*
X44314Y-57135D01*
X44415Y-57380D01*
X38583Y-57380D01*
X38684Y-57136D01*
X38685Y-56864D01*
X38581Y-56612D01*
X38510Y-56541D01*
X38510Y-55711D01*
X39211Y-55010D01*
X39521Y-55010D01*
X39419Y-55111D01*
X39315Y-55363D01*
X39314Y-55635D01*
X39418Y-55887D01*
X39531Y-56000D01*
X39419Y-56111D01*
X39315Y-56363D01*
X39314Y-56635D01*
X39418Y-56887D01*
X39611Y-57080D01*
X39863Y-57184D01*
X40135Y-57185D01*
X40387Y-57081D01*
X40458Y-57010D01*
X40750Y-57010D01*
X40945Y-56971D01*
X40945Y-56971D01*
X41110Y-56860D01*
X41860Y-56110D01*
X41860Y-56110D01*
X41934Y-56000D01*
X41971Y-55945D01*
X41971Y-55945D01*
X42009Y-55750D01*
X42010Y-55750D01*
X42010Y-48961D01*
X42906Y-48065D01*
X42970Y-48130D01*
X43103Y-48184D01*
X43246Y-48185D01*
X43896Y-48185D01*
X44028Y-48130D01*
X44130Y-48029D01*
X44184Y-47896D01*
X44185Y-47753D01*
X44185Y-47103D01*
X44130Y-46971D01*
X44029Y-46869D01*
X43896Y-46815D01*
X43753Y-46814D01*
X43103Y-46814D01*
X42971Y-46869D01*
X42869Y-46970D01*
X42862Y-46990D01*
X42750Y-46990D01*
X42554Y-47028D01*
X42389Y-47139D01*
X41139Y-48389D01*
X41028Y-48554D01*
X40990Y-48750D01*
X40990Y-55538D01*
X40538Y-55990D01*
X40478Y-55990D01*
X40580Y-55888D01*
X40684Y-55636D01*
X40685Y-55364D01*
X40581Y-55112D01*
X40468Y-54999D01*
X40580Y-54888D01*
X40684Y-54636D01*
X40685Y-54364D01*
X40581Y-54112D01*
X40388Y-53919D01*
X40136Y-53815D01*
X39864Y-53814D01*
X39612Y-53918D01*
X39541Y-53990D01*
X39000Y-53990D01*
X36494Y-53990D01*
X36402Y-53898D01*
X36141Y-53790D01*
X35859Y-53789D01*
X35604Y-53895D01*
X35554Y-53844D01*
X35421Y-53790D01*
X35278Y-53789D01*
X34578Y-53789D01*
X34510Y-53818D01*
X34510Y-53711D01*
X35211Y-53010D01*
X36505Y-53010D01*
X36597Y-53101D01*
X36858Y-53209D01*
X37140Y-53210D01*
X37395Y-53104D01*
X37445Y-53155D01*
X37578Y-53209D01*
X37721Y-53210D01*
X38421Y-53210D01*
X38553Y-53155D01*
X38655Y-53054D01*
X38688Y-52972D01*
X38695Y-52971D01*
X38695Y-52971D01*
X38860Y-52860D01*
X39632Y-52089D01*
X39863Y-52184D01*
X40135Y-52185D01*
X40387Y-52081D01*
X40580Y-51888D01*
X40684Y-51636D01*
X40685Y-51364D01*
X40581Y-51112D01*
X40468Y-50999D01*
X40580Y-50888D01*
X40684Y-50636D01*
X40685Y-50364D01*
X40581Y-50112D01*
X40563Y-50095D01*
X40630Y-50029D01*
X40684Y-49896D01*
X40685Y-49753D01*
X40685Y-49103D01*
X40630Y-48971D01*
X40529Y-48869D01*
X40396Y-48815D01*
X40253Y-48814D01*
X39603Y-48814D01*
X39471Y-48869D01*
X39369Y-48970D01*
X39315Y-49103D01*
X39314Y-49246D01*
X39314Y-49896D01*
X39369Y-50028D01*
X39435Y-50095D01*
X39419Y-50111D01*
X39315Y-50363D01*
X39314Y-50635D01*
X39418Y-50887D01*
X39521Y-50990D01*
X39500Y-50990D01*
X39304Y-51028D01*
X39139Y-51139D01*
X38685Y-51593D01*
X38685Y-47364D01*
X38581Y-47112D01*
X38388Y-46919D01*
X38136Y-46815D01*
X37864Y-46814D01*
X37612Y-46918D01*
X37419Y-47111D01*
X37315Y-47363D01*
X37314Y-47635D01*
X37378Y-47790D01*
X37278Y-47789D01*
X36578Y-47789D01*
X36446Y-47844D01*
X36344Y-47945D01*
X36290Y-48078D01*
X36289Y-48221D01*
X36289Y-48921D01*
X36344Y-49053D01*
X36445Y-49155D01*
X36578Y-49209D01*
X36721Y-49210D01*
X37421Y-49210D01*
X37553Y-49155D01*
X37655Y-49054D01*
X37709Y-48921D01*
X37710Y-48778D01*
X37710Y-48121D01*
X37863Y-48184D01*
X38135Y-48185D01*
X38387Y-48081D01*
X38580Y-47888D01*
X38684Y-47636D01*
X38685Y-47364D01*
X38685Y-51593D01*
X38469Y-51809D01*
X38421Y-51790D01*
X38278Y-51789D01*
X37578Y-51789D01*
X37446Y-51844D01*
X37395Y-51895D01*
X37141Y-51790D01*
X36859Y-51789D01*
X36710Y-51851D01*
X36710Y-50778D01*
X36710Y-50078D01*
X36655Y-49946D01*
X36554Y-49844D01*
X36421Y-49790D01*
X36278Y-49789D01*
X35578Y-49789D01*
X35446Y-49844D01*
X35344Y-49945D01*
X35290Y-50078D01*
X35289Y-50221D01*
X35289Y-50921D01*
X35344Y-51053D01*
X35445Y-51155D01*
X35578Y-51209D01*
X35721Y-51210D01*
X36421Y-51210D01*
X36553Y-51155D01*
X36655Y-51054D01*
X36709Y-50921D01*
X36710Y-50778D01*
X36710Y-51851D01*
X36598Y-51897D01*
X36505Y-51990D01*
X35000Y-51990D01*
X34804Y-52028D01*
X34639Y-52139D01*
X33639Y-53139D01*
X33528Y-53304D01*
X33490Y-53500D01*
X33490Y-55000D01*
X33528Y-55195D01*
X33639Y-55360D01*
X35314Y-57036D01*
X35314Y-57380D01*
X32120Y-57380D01*
X32120Y-53684D01*
X32246Y-53685D01*
X32896Y-53685D01*
X33028Y-53630D01*
X33130Y-53529D01*
X33184Y-53396D01*
X33185Y-53253D01*
X33185Y-52603D01*
X33130Y-52471D01*
X33064Y-52404D01*
X33080Y-52388D01*
X33184Y-52136D01*
X33185Y-51864D01*
X33081Y-51612D01*
X32968Y-51499D01*
X33080Y-51388D01*
X33184Y-51136D01*
X33185Y-50864D01*
X33081Y-50612D01*
X33063Y-50595D01*
X33130Y-50529D01*
X33184Y-50396D01*
X33185Y-50253D01*
X33185Y-49603D01*
X33130Y-49471D01*
X33064Y-49404D01*
X33080Y-49388D01*
X33184Y-49136D01*
X33185Y-48864D01*
X33081Y-48612D01*
X32968Y-48499D01*
X33080Y-48388D01*
X33184Y-48136D01*
X33185Y-47864D01*
X33081Y-47612D01*
X32888Y-47419D01*
X32636Y-47315D01*
X32364Y-47314D01*
X32112Y-47418D01*
X31919Y-47611D01*
X31815Y-47863D01*
X31814Y-48135D01*
X31918Y-48387D01*
X32031Y-48500D01*
X31919Y-48611D01*
X31815Y-48863D01*
X31814Y-49135D01*
X31918Y-49387D01*
X31936Y-49404D01*
X31869Y-49470D01*
X31815Y-49603D01*
X31814Y-49746D01*
X31814Y-50396D01*
X31869Y-50528D01*
X31935Y-50595D01*
X31919Y-50611D01*
X31815Y-50863D01*
X31814Y-51135D01*
X31918Y-51387D01*
X32031Y-51500D01*
X31919Y-51611D01*
X31815Y-51863D01*
X31814Y-52135D01*
X31918Y-52387D01*
X31936Y-52404D01*
X31869Y-52470D01*
X31815Y-52603D01*
X31814Y-52746D01*
X31814Y-53380D01*
X29435Y-53380D01*
X31282Y-51532D01*
X31282Y-51532D01*
X31340Y-51446D01*
X31369Y-51403D01*
X31369Y-51403D01*
X31399Y-51250D01*
X31400Y-51250D01*
X31400Y-46750D01*
X31400Y-44915D01*
X31865Y-44450D01*
X31864Y-44625D01*
X31961Y-44859D01*
X32101Y-45000D01*
X31961Y-45139D01*
X31865Y-45373D01*
X31864Y-45625D01*
X31961Y-45859D01*
X32139Y-46038D01*
X32373Y-46134D01*
X32625Y-46135D01*
X32859Y-46038D01*
X33038Y-45860D01*
X33134Y-45626D01*
X33135Y-45374D01*
X33038Y-45140D01*
X32898Y-44999D01*
X33038Y-44860D01*
X33134Y-44626D01*
X33135Y-44400D01*
X33250Y-44400D01*
X33250Y-44399D01*
X33377Y-44374D01*
X33403Y-44369D01*
X33403Y-44369D01*
X33532Y-44282D01*
X35915Y-41900D01*
X38002Y-41900D01*
X38101Y-42000D01*
X37961Y-42139D01*
X37865Y-42373D01*
X37864Y-42625D01*
X37961Y-42859D01*
X38101Y-43000D01*
X37961Y-43139D01*
X37865Y-43373D01*
X37864Y-43625D01*
X37961Y-43859D01*
X38101Y-44000D01*
X37961Y-44139D01*
X37865Y-44373D01*
X37864Y-44625D01*
X37961Y-44859D01*
X38101Y-45000D01*
X37961Y-45139D01*
X37865Y-45373D01*
X37864Y-45625D01*
X37961Y-45859D01*
X38139Y-46038D01*
X38373Y-46134D01*
X38625Y-46135D01*
X38859Y-46038D01*
X39038Y-45860D01*
X39134Y-45626D01*
X39135Y-45374D01*
X39038Y-45140D01*
X38898Y-44999D01*
X39038Y-44860D01*
X39134Y-44626D01*
X39135Y-44374D01*
X39038Y-44140D01*
X38898Y-43999D01*
X39038Y-43860D01*
X39134Y-43626D01*
X39135Y-43374D01*
X39038Y-43140D01*
X38898Y-42999D01*
X39038Y-42860D01*
X39134Y-42626D01*
X39135Y-42374D01*
X39038Y-42140D01*
X38898Y-41999D01*
X39038Y-41860D01*
X39134Y-41626D01*
X39135Y-41374D01*
X39038Y-41140D01*
X38898Y-40999D01*
X39038Y-40860D01*
X39134Y-40626D01*
X39135Y-40374D01*
X39038Y-40140D01*
X38898Y-39999D01*
X39038Y-39860D01*
X39096Y-39719D01*
X40314Y-38500D01*
X40314Y-38635D01*
X40418Y-38887D01*
X40611Y-39080D01*
X40863Y-39184D01*
X41135Y-39185D01*
X41301Y-39116D01*
X41999Y-39814D01*
X41864Y-39814D01*
X41612Y-39918D01*
X41499Y-40031D01*
X41388Y-39919D01*
X41136Y-39815D01*
X40864Y-39814D01*
X40612Y-39918D01*
X40419Y-40111D01*
X40315Y-40363D01*
X40314Y-40635D01*
X40418Y-40887D01*
X40611Y-41080D01*
X40863Y-41184D01*
X41119Y-41185D01*
X41782Y-41848D01*
X41612Y-41918D01*
X41499Y-42031D01*
X41388Y-41919D01*
X41136Y-41815D01*
X40864Y-41814D01*
X40612Y-41918D01*
X40419Y-42111D01*
X40315Y-42363D01*
X40314Y-42635D01*
X40418Y-42887D01*
X40611Y-43080D01*
X40863Y-43184D01*
X40869Y-43184D01*
X41217Y-43532D01*
X41217Y-43532D01*
X41303Y-43590D01*
X41346Y-43619D01*
X41346Y-43619D01*
X41500Y-43650D01*
X45320Y-43650D01*
X45418Y-43887D01*
X45436Y-43904D01*
X45369Y-43970D01*
X45315Y-44103D01*
X45314Y-44246D01*
X45314Y-44619D01*
X45084Y-44850D01*
X44542Y-44850D01*
X44634Y-44626D01*
X44635Y-44374D01*
X44538Y-44140D01*
X44360Y-43961D01*
X44126Y-43865D01*
X43874Y-43864D01*
X43640Y-43961D01*
X43499Y-44101D01*
X43360Y-43961D01*
X43126Y-43865D01*
X42874Y-43864D01*
X42640Y-43961D01*
X42535Y-44066D01*
X42388Y-43919D01*
X42136Y-43815D01*
X41864Y-43814D01*
X41612Y-43918D01*
X41499Y-44031D01*
X41388Y-43919D01*
X41136Y-43815D01*
X40864Y-43814D01*
X40612Y-43918D01*
X40419Y-44111D01*
X40315Y-44363D01*
X40314Y-44635D01*
X40418Y-44887D01*
X40611Y-45080D01*
X40863Y-45184D01*
X41119Y-45185D01*
X41467Y-45532D01*
X41467Y-45532D01*
X41553Y-45590D01*
X41596Y-45619D01*
X41596Y-45619D01*
X41749Y-45649D01*
X41750Y-45650D01*
X45250Y-45650D01*
X45250Y-45649D01*
X45377Y-45624D01*
X45403Y-45619D01*
X45403Y-45619D01*
X45532Y-45532D01*
X45880Y-45185D01*
X46396Y-45185D01*
X46500Y-45142D01*
X46603Y-45184D01*
X46746Y-45185D01*
X47396Y-45185D01*
X47500Y-45142D01*
X47603Y-45184D01*
X47746Y-45185D01*
X48350Y-45185D01*
X48350Y-46000D01*
X48350Y-47500D01*
X48375Y-47627D01*
X48380Y-47653D01*
X48467Y-47782D01*
X48850Y-48165D01*
X48850Y-48903D01*
X48850Y-48903D01*
G37*
G54D28*
X48850Y-48903D02*
X48636Y-48815D01*
X48364Y-48814D01*
X48112Y-48918D01*
X48041Y-48990D01*
X47685Y-48990D01*
X47685Y-46364D01*
X47581Y-46112D01*
X47388Y-45919D01*
X47136Y-45815D01*
X46864Y-45814D01*
X46612Y-45918D01*
X46419Y-46111D01*
X46315Y-46363D01*
X46314Y-46635D01*
X46418Y-46887D01*
X46611Y-47080D01*
X46863Y-47184D01*
X47135Y-47185D01*
X47387Y-47081D01*
X47580Y-46888D01*
X47684Y-46636D01*
X47685Y-46364D01*
X47685Y-48990D01*
X46681Y-48990D01*
X46709Y-48921D01*
X46710Y-48778D01*
X46710Y-48078D01*
X46655Y-47946D01*
X46554Y-47844D01*
X46421Y-47790D01*
X46278Y-47789D01*
X45578Y-47789D01*
X45446Y-47844D01*
X45344Y-47945D01*
X45290Y-48078D01*
X45289Y-48221D01*
X45289Y-48921D01*
X45318Y-48990D01*
X43458Y-48990D01*
X43388Y-48919D01*
X43136Y-48815D01*
X42864Y-48814D01*
X42612Y-48918D01*
X42419Y-49111D01*
X42315Y-49363D01*
X42314Y-49635D01*
X42418Y-49887D01*
X42531Y-50000D01*
X42419Y-50111D01*
X42315Y-50363D01*
X42314Y-50635D01*
X42418Y-50887D01*
X42531Y-51000D01*
X42419Y-51111D01*
X42315Y-51363D01*
X42314Y-51635D01*
X42418Y-51887D01*
X42611Y-52080D01*
X42863Y-52184D01*
X43135Y-52185D01*
X43367Y-52089D01*
X44139Y-52860D01*
X44304Y-52971D01*
X44304Y-52971D01*
X44311Y-52972D01*
X44344Y-53053D01*
X44445Y-53155D01*
X44578Y-53209D01*
X44721Y-53210D01*
X45421Y-53210D01*
X45553Y-53155D01*
X45604Y-53104D01*
X45858Y-53209D01*
X46140Y-53210D01*
X46401Y-53102D01*
X46494Y-53010D01*
X47788Y-53010D01*
X48490Y-53711D01*
X48490Y-53818D01*
X48421Y-53790D01*
X48278Y-53789D01*
X47578Y-53789D01*
X47446Y-53844D01*
X47395Y-53895D01*
X47141Y-53790D01*
X46859Y-53789D01*
X46598Y-53897D01*
X46505Y-53990D01*
X44000Y-53990D01*
X43458Y-53990D01*
X43388Y-53919D01*
X43136Y-53815D01*
X42864Y-53814D01*
X42612Y-53918D01*
X42419Y-54111D01*
X42315Y-54363D01*
X42314Y-54635D01*
X42418Y-54887D01*
X42531Y-55000D01*
X42419Y-55111D01*
X42315Y-55363D01*
X42314Y-55635D01*
X42418Y-55887D01*
X42531Y-56000D01*
X42419Y-56111D01*
X42315Y-56363D01*
X42314Y-56635D01*
X42418Y-56887D01*
X42611Y-57080D01*
X42863Y-57184D01*
X43135Y-57185D01*
X43387Y-57081D01*
X43580Y-56888D01*
X43684Y-56636D01*
X43685Y-56364D01*
X43581Y-56112D01*
X43468Y-55999D01*
X43580Y-55888D01*
X43684Y-55636D01*
X43685Y-55364D01*
X43581Y-55112D01*
X43478Y-55010D01*
X43788Y-55010D01*
X44490Y-55711D01*
X44490Y-56541D01*
X44419Y-56611D01*
X44315Y-56863D01*
X44314Y-57135D01*
X44415Y-57380D01*
X38583Y-57380D01*
X38684Y-57136D01*
X38685Y-56864D01*
X38581Y-56612D01*
X38510Y-56541D01*
X38510Y-55711D01*
X39211Y-55010D01*
X39521Y-55010D01*
X39419Y-55111D01*
X39315Y-55363D01*
X39314Y-55635D01*
X39418Y-55887D01*
X39531Y-56000D01*
X39419Y-56111D01*
X39315Y-56363D01*
X39314Y-56635D01*
X39418Y-56887D01*
X39611Y-57080D01*
X39863Y-57184D01*
X40135Y-57185D01*
X40387Y-57081D01*
X40458Y-57010D01*
X40750Y-57010D01*
X40945Y-56971D01*
X40945Y-56971D01*
X41110Y-56860D01*
X41860Y-56110D01*
X41860Y-56110D01*
X41934Y-56000D01*
X41971Y-55945D01*
X41971Y-55945D01*
X42009Y-55750D01*
X42010Y-55750D01*
X42010Y-48961D01*
X42906Y-48065D01*
X42970Y-48130D01*
X43103Y-48184D01*
X43246Y-48185D01*
X43896Y-48185D01*
X44028Y-48130D01*
X44130Y-48029D01*
X44184Y-47896D01*
X44185Y-47753D01*
X44185Y-47103D01*
X44130Y-46971D01*
X44029Y-46869D01*
X43896Y-46815D01*
X43753Y-46814D01*
X43103Y-46814D01*
X42971Y-46869D01*
X42869Y-46970D01*
X42862Y-46990D01*
X42750Y-46990D01*
X42554Y-47028D01*
X42389Y-47139D01*
X41139Y-48389D01*
X41028Y-48554D01*
X40990Y-48750D01*
X40990Y-55538D01*
X40538Y-55990D01*
X40478Y-55990D01*
X40580Y-55888D01*
X40684Y-55636D01*
X40685Y-55364D01*
X40581Y-55112D01*
X40468Y-54999D01*
X40580Y-54888D01*
X40684Y-54636D01*
X40685Y-54364D01*
X40581Y-54112D01*
X40388Y-53919D01*
X40136Y-53815D01*
X39864Y-53814D01*
X39612Y-53918D01*
X39541Y-53990D01*
X39000Y-53990D01*
X36494Y-53990D01*
X36402Y-53898D01*
X36141Y-53790D01*
X35859Y-53789D01*
X35604Y-53895D01*
X35554Y-53844D01*
X35421Y-53790D01*
X35278Y-53789D01*
X34578Y-53789D01*
X34510Y-53818D01*
X34510Y-53711D01*
X35211Y-53010D01*
X36505Y-53010D01*
X36597Y-53101D01*
X36858Y-53209D01*
X37140Y-53210D01*
X37395Y-53104D01*
X37445Y-53155D01*
X37578Y-53209D01*
X37721Y-53210D01*
X38421Y-53210D01*
X38553Y-53155D01*
X38655Y-53054D01*
X38688Y-52972D01*
X38695Y-52971D01*
X38695Y-52971D01*
X38860Y-52860D01*
X39632Y-52089D01*
X39863Y-52184D01*
X40135Y-52185D01*
X40387Y-52081D01*
X40580Y-51888D01*
X40684Y-51636D01*
X40685Y-51364D01*
X40581Y-51112D01*
X40468Y-50999D01*
X40580Y-50888D01*
X40684Y-50636D01*
X40685Y-50364D01*
X40581Y-50112D01*
X40563Y-50095D01*
X40630Y-50029D01*
X40684Y-49896D01*
X40685Y-49753D01*
X40685Y-49103D01*
X40630Y-48971D01*
X40529Y-48869D01*
X40396Y-48815D01*
X40253Y-48814D01*
X39603Y-48814D01*
X39471Y-48869D01*
X39369Y-48970D01*
X39315Y-49103D01*
X39314Y-49246D01*
X39314Y-49896D01*
X39369Y-50028D01*
X39435Y-50095D01*
X39419Y-50111D01*
X39315Y-50363D01*
X39314Y-50635D01*
X39418Y-50887D01*
X39521Y-50990D01*
X39500Y-50990D01*
X39304Y-51028D01*
X39139Y-51139D01*
X38685Y-51593D01*
X38685Y-47364D01*
X38581Y-47112D01*
X38388Y-46919D01*
X38136Y-46815D01*
X37864Y-46814D01*
X37612Y-46918D01*
X37419Y-47111D01*
X37315Y-47363D01*
X37314Y-47635D01*
X37378Y-47790D01*
X37278Y-47789D01*
X36578Y-47789D01*
X36446Y-47844D01*
X36344Y-47945D01*
X36290Y-48078D01*
X36289Y-48221D01*
X36289Y-48921D01*
X36344Y-49053D01*
X36445Y-49155D01*
X36578Y-49209D01*
X36721Y-49210D01*
X37421Y-49210D01*
X37553Y-49155D01*
X37655Y-49054D01*
X37709Y-48921D01*
X37710Y-48778D01*
X37710Y-48121D01*
X37863Y-48184D01*
X38135Y-48185D01*
X38387Y-48081D01*
X38580Y-47888D01*
X38684Y-47636D01*
X38685Y-47364D01*
X38685Y-51593D01*
X38469Y-51809D01*
X38421Y-51790D01*
X38278Y-51789D01*
X37578Y-51789D01*
X37446Y-51844D01*
X37395Y-51895D01*
X37141Y-51790D01*
X36859Y-51789D01*
X36710Y-51851D01*
X36710Y-50778D01*
X36710Y-50078D01*
X36655Y-49946D01*
X36554Y-49844D01*
X36421Y-49790D01*
X36278Y-49789D01*
X35578Y-49789D01*
X35446Y-49844D01*
X35344Y-49945D01*
X35290Y-50078D01*
X35289Y-50221D01*
X35289Y-50921D01*
X35344Y-51053D01*
X35445Y-51155D01*
X35578Y-51209D01*
X35721Y-51210D01*
X36421Y-51210D01*
X36553Y-51155D01*
X36655Y-51054D01*
X36709Y-50921D01*
X36710Y-50778D01*
X36710Y-51851D01*
X36598Y-51897D01*
X36505Y-51990D01*
X35000Y-51990D01*
X34804Y-52028D01*
X34639Y-52139D01*
X33639Y-53139D01*
X33528Y-53304D01*
X33490Y-53500D01*
X33490Y-55000D01*
X33528Y-55195D01*
X33639Y-55360D01*
X35314Y-57036D01*
X35314Y-57380D01*
X32120Y-57380D01*
X32120Y-53684D01*
X32246Y-53685D01*
X32896Y-53685D01*
X33028Y-53630D01*
X33130Y-53529D01*
X33184Y-53396D01*
X33185Y-53253D01*
X33185Y-52603D01*
X33130Y-52471D01*
X33064Y-52404D01*
X33080Y-52388D01*
X33184Y-52136D01*
X33185Y-51864D01*
X33081Y-51612D01*
X32968Y-51499D01*
X33080Y-51388D01*
X33184Y-51136D01*
X33185Y-50864D01*
X33081Y-50612D01*
X33063Y-50595D01*
X33130Y-50529D01*
X33184Y-50396D01*
X33185Y-50253D01*
X33185Y-49603D01*
X33130Y-49471D01*
X33064Y-49404D01*
X33080Y-49388D01*
X33184Y-49136D01*
X33185Y-48864D01*
X33081Y-48612D01*
X32968Y-48499D01*
X33080Y-48388D01*
X33184Y-48136D01*
X33185Y-47864D01*
X33081Y-47612D01*
X32888Y-47419D01*
X32636Y-47315D01*
X32364Y-47314D01*
X32112Y-47418D01*
X31919Y-47611D01*
X31815Y-47863D01*
X31814Y-48135D01*
X31918Y-48387D01*
X32031Y-48500D01*
X31919Y-48611D01*
X31815Y-48863D01*
X31814Y-49135D01*
X31918Y-49387D01*
X31936Y-49404D01*
X31869Y-49470D01*
X31815Y-49603D01*
X31814Y-49746D01*
X31814Y-50396D01*
X31869Y-50528D01*
X31935Y-50595D01*
X31919Y-50611D01*
X31815Y-50863D01*
X31814Y-51135D01*
X31918Y-51387D01*
X32031Y-51500D01*
X31919Y-51611D01*
X31815Y-51863D01*
X31814Y-52135D01*
X31918Y-52387D01*
X31936Y-52404D01*
X31869Y-52470D01*
X31815Y-52603D01*
X31814Y-52746D01*
X31814Y-53380D01*
X29435Y-53380D01*
X31282Y-51532D01*
X31282Y-51532D01*
X31340Y-51446D01*
X31369Y-51403D01*
X31369Y-51403D01*
X31399Y-51250D01*
X31400Y-51250D01*
X31400Y-46750D01*
X31400Y-44915D01*
X31865Y-44450D01*
X31864Y-44625D01*
X31961Y-44859D01*
X32101Y-45000D01*
X31961Y-45139D01*
X31865Y-45373D01*
X31864Y-45625D01*
X31961Y-45859D01*
X32139Y-46038D01*
X32373Y-46134D01*
X32625Y-46135D01*
X32859Y-46038D01*
X33038Y-45860D01*
X33134Y-45626D01*
X33135Y-45374D01*
X33038Y-45140D01*
X32898Y-44999D01*
X33038Y-44860D01*
X33134Y-44626D01*
X33135Y-44400D01*
X33250Y-44400D01*
X33250Y-44399D01*
X33377Y-44374D01*
X33403Y-44369D01*
X33403Y-44369D01*
X33532Y-44282D01*
X35915Y-41900D01*
X38002Y-41900D01*
X38101Y-42000D01*
X37961Y-42139D01*
X37865Y-42373D01*
X37864Y-42625D01*
X37961Y-42859D01*
X38101Y-43000D01*
X37961Y-43139D01*
X37865Y-43373D01*
X37864Y-43625D01*
X37961Y-43859D01*
X38101Y-44000D01*
X37961Y-44139D01*
X37865Y-44373D01*
X37864Y-44625D01*
X37961Y-44859D01*
X38101Y-45000D01*
X37961Y-45139D01*
X37865Y-45373D01*
X37864Y-45625D01*
X37961Y-45859D01*
X38139Y-46038D01*
X38373Y-46134D01*
X38625Y-46135D01*
X38859Y-46038D01*
X39038Y-45860D01*
X39134Y-45626D01*
X39135Y-45374D01*
X39038Y-45140D01*
X38898Y-44999D01*
X39038Y-44860D01*
X39134Y-44626D01*
X39135Y-44374D01*
X39038Y-44140D01*
X38898Y-43999D01*
X39038Y-43860D01*
X39134Y-43626D01*
X39135Y-43374D01*
X39038Y-43140D01*
X38898Y-42999D01*
X39038Y-42860D01*
X39134Y-42626D01*
X39135Y-42374D01*
X39038Y-42140D01*
X38898Y-41999D01*
X39038Y-41860D01*
X39134Y-41626D01*
X39135Y-41374D01*
X39038Y-41140D01*
X38898Y-40999D01*
X39038Y-40860D01*
X39134Y-40626D01*
X39135Y-40374D01*
X39038Y-40140D01*
X38898Y-39999D01*
X39038Y-39860D01*
X39096Y-39719D01*
X40314Y-38500D01*
X40314Y-38635D01*
X40418Y-38887D01*
X40611Y-39080D01*
X40863Y-39184D01*
X41135Y-39185D01*
X41301Y-39116D01*
X41999Y-39814D01*
X41864Y-39814D01*
X41612Y-39918D01*
X41499Y-40031D01*
X41388Y-39919D01*
X41136Y-39815D01*
X40864Y-39814D01*
X40612Y-39918D01*
X40419Y-40111D01*
X40315Y-40363D01*
X40314Y-40635D01*
X40418Y-40887D01*
X40611Y-41080D01*
X40863Y-41184D01*
X41119Y-41185D01*
X41782Y-41848D01*
X41612Y-41918D01*
X41499Y-42031D01*
X41388Y-41919D01*
X41136Y-41815D01*
X40864Y-41814D01*
X40612Y-41918D01*
X40419Y-42111D01*
X40315Y-42363D01*
X40314Y-42635D01*
X40418Y-42887D01*
X40611Y-43080D01*
X40863Y-43184D01*
X40869Y-43184D01*
X41217Y-43532D01*
X41217Y-43532D01*
X41303Y-43590D01*
X41346Y-43619D01*
X41346Y-43619D01*
X41500Y-43650D01*
X45320Y-43650D01*
X45418Y-43887D01*
X45436Y-43904D01*
X45369Y-43970D01*
X45315Y-44103D01*
X45314Y-44246D01*
X45314Y-44619D01*
X45084Y-44850D01*
X44542Y-44850D01*
X44634Y-44626D01*
X44635Y-44374D01*
X44538Y-44140D01*
X44360Y-43961D01*
X44126Y-43865D01*
X43874Y-43864D01*
X43640Y-43961D01*
X43499Y-44101D01*
X43360Y-43961D01*
X43126Y-43865D01*
X42874Y-43864D01*
X42640Y-43961D01*
X42535Y-44066D01*
X42388Y-43919D01*
X42136Y-43815D01*
X41864Y-43814D01*
X41612Y-43918D01*
X41499Y-44031D01*
X41388Y-43919D01*
X41136Y-43815D01*
X40864Y-43814D01*
X40612Y-43918D01*
X40419Y-44111D01*
X40315Y-44363D01*
X40314Y-44635D01*
X40418Y-44887D01*
X40611Y-45080D01*
X40863Y-45184D01*
X41119Y-45185D01*
X41467Y-45532D01*
X41467Y-45532D01*
X41553Y-45590D01*
X41596Y-45619D01*
X41596Y-45619D01*
X41749Y-45649D01*
X41750Y-45650D01*
X45250Y-45650D01*
X45250Y-45649D01*
X45377Y-45624D01*
X45403Y-45619D01*
X45403Y-45619D01*
X45532Y-45532D01*
X45880Y-45185D01*
X46396Y-45185D01*
X46500Y-45142D01*
X46603Y-45184D01*
X46746Y-45185D01*
X47396Y-45185D01*
X47500Y-45142D01*
X47603Y-45184D01*
X47746Y-45185D01*
X48350Y-45185D01*
X48350Y-46000D01*
X48350Y-47500D01*
X48375Y-47627D01*
X48380Y-47653D01*
X48467Y-47782D01*
X48850Y-48165D01*
X48850Y-48903D01*
G54D10*
G36*
X54100Y-48815D02*
X53864Y-48814D01*
X53612Y-48918D01*
X53499Y-49031D01*
X53388Y-48919D01*
X53136Y-48815D01*
X52864Y-48814D01*
X52612Y-48918D01*
X52499Y-49031D01*
X52388Y-48919D01*
X52136Y-48815D01*
X51864Y-48814D01*
X51612Y-48918D01*
X51595Y-48936D01*
X51529Y-48869D01*
X51396Y-48815D01*
X51253Y-48814D01*
X50786Y-48814D01*
X50510Y-48538D01*
X50510Y-48069D01*
X50520Y-48080D01*
X50653Y-48134D01*
X50796Y-48135D01*
X51346Y-48135D01*
X51478Y-48080D01*
X51580Y-47979D01*
X51580Y-47978D01*
X51639Y-48038D01*
X51873Y-48134D01*
X52125Y-48135D01*
X52359Y-48038D01*
X52500Y-47898D01*
X52639Y-48038D01*
X52873Y-48134D01*
X53125Y-48135D01*
X53359Y-48038D01*
X53500Y-47898D01*
X53639Y-48038D01*
X53873Y-48134D01*
X54100Y-48135D01*
X54100Y-48815D01*
X54100Y-48815D01*
G37*
G54D28*
X54100Y-48815D02*
X53864Y-48814D01*
X53612Y-48918D01*
X53499Y-49031D01*
X53388Y-48919D01*
X53136Y-48815D01*
X52864Y-48814D01*
X52612Y-48918D01*
X52499Y-49031D01*
X52388Y-48919D01*
X52136Y-48815D01*
X51864Y-48814D01*
X51612Y-48918D01*
X51595Y-48936D01*
X51529Y-48869D01*
X51396Y-48815D01*
X51253Y-48814D01*
X50786Y-48814D01*
X50510Y-48538D01*
X50510Y-48069D01*
X50520Y-48080D01*
X50653Y-48134D01*
X50796Y-48135D01*
X51346Y-48135D01*
X51478Y-48080D01*
X51580Y-47979D01*
X51580Y-47978D01*
X51639Y-48038D01*
X51873Y-48134D01*
X52125Y-48135D01*
X52359Y-48038D01*
X52500Y-47898D01*
X52639Y-48038D01*
X52873Y-48134D01*
X53125Y-48135D01*
X53359Y-48038D01*
X53500Y-47898D01*
X53639Y-48038D01*
X53873Y-48134D01*
X54100Y-48135D01*
X54100Y-48815D01*
G54D10*
G36*
X59100Y-48815D02*
X58864Y-48814D01*
X58612Y-48918D01*
X58499Y-49031D01*
X58388Y-48919D01*
X58136Y-48815D01*
X57864Y-48814D01*
X57612Y-48918D01*
X57499Y-49031D01*
X57388Y-48919D01*
X57136Y-48815D01*
X56864Y-48814D01*
X56612Y-48918D01*
X56499Y-49031D01*
X56388Y-48919D01*
X56136Y-48815D01*
X55864Y-48814D01*
X55612Y-48918D01*
X55499Y-49031D01*
X55388Y-48919D01*
X55136Y-48815D01*
X54900Y-48814D01*
X54900Y-48165D01*
X54930Y-48134D01*
X55125Y-48135D01*
X55359Y-48038D01*
X55500Y-47898D01*
X55639Y-48038D01*
X55873Y-48134D01*
X56125Y-48135D01*
X56359Y-48038D01*
X56500Y-47898D01*
X56639Y-48038D01*
X56873Y-48134D01*
X57125Y-48135D01*
X57359Y-48038D01*
X57500Y-47898D01*
X57639Y-48038D01*
X57873Y-48134D01*
X58125Y-48135D01*
X58359Y-48038D01*
X58500Y-47898D01*
X58639Y-48038D01*
X58873Y-48134D01*
X59100Y-48135D01*
X59100Y-48815D01*
X59100Y-48815D01*
G37*
G54D28*
X59100Y-48815D02*
X58864Y-48814D01*
X58612Y-48918D01*
X58499Y-49031D01*
X58388Y-48919D01*
X58136Y-48815D01*
X57864Y-48814D01*
X57612Y-48918D01*
X57499Y-49031D01*
X57388Y-48919D01*
X57136Y-48815D01*
X56864Y-48814D01*
X56612Y-48918D01*
X56499Y-49031D01*
X56388Y-48919D01*
X56136Y-48815D01*
X55864Y-48814D01*
X55612Y-48918D01*
X55499Y-49031D01*
X55388Y-48919D01*
X55136Y-48815D01*
X54900Y-48814D01*
X54900Y-48165D01*
X54930Y-48134D01*
X55125Y-48135D01*
X55359Y-48038D01*
X55500Y-47898D01*
X55639Y-48038D01*
X55873Y-48134D01*
X56125Y-48135D01*
X56359Y-48038D01*
X56500Y-47898D01*
X56639Y-48038D01*
X56873Y-48134D01*
X57125Y-48135D01*
X57359Y-48038D01*
X57500Y-47898D01*
X57639Y-48038D01*
X57873Y-48134D01*
X58125Y-48135D01*
X58359Y-48038D01*
X58500Y-47898D01*
X58639Y-48038D01*
X58873Y-48134D01*
X59100Y-48135D01*
X59100Y-48815D01*
G54D10*
G36*
X61880Y-34814D02*
X61864Y-34814D01*
X61612Y-34918D01*
X61499Y-35031D01*
X61388Y-34919D01*
X61136Y-34815D01*
X60864Y-34814D01*
X60612Y-34918D01*
X60499Y-35031D01*
X60388Y-34919D01*
X60136Y-34815D01*
X59864Y-34814D01*
X59612Y-34918D01*
X59499Y-35031D01*
X59388Y-34919D01*
X59136Y-34815D01*
X58864Y-34814D01*
X58612Y-34918D01*
X58499Y-35031D01*
X58388Y-34919D01*
X58136Y-34815D01*
X57864Y-34814D01*
X57612Y-34918D01*
X57499Y-35031D01*
X57388Y-34919D01*
X57136Y-34815D01*
X56864Y-34814D01*
X56612Y-34918D01*
X56499Y-35031D01*
X56388Y-34919D01*
X56136Y-34815D01*
X55864Y-34814D01*
X55612Y-34918D01*
X55499Y-35031D01*
X55388Y-34919D01*
X55136Y-34815D01*
X54864Y-34814D01*
X54612Y-34918D01*
X54499Y-35031D01*
X54388Y-34919D01*
X54136Y-34815D01*
X53864Y-34814D01*
X53612Y-34918D01*
X53499Y-35031D01*
X53388Y-34919D01*
X53136Y-34815D01*
X52864Y-34814D01*
X52612Y-34918D01*
X52499Y-35031D01*
X52388Y-34919D01*
X52136Y-34815D01*
X51864Y-34814D01*
X51612Y-34918D01*
X51499Y-35031D01*
X51388Y-34919D01*
X51136Y-34815D01*
X50906Y-34814D01*
X51321Y-34400D01*
X53000Y-34400D01*
X54431Y-34400D01*
X54611Y-34580D01*
X54863Y-34684D01*
X55135Y-34685D01*
X55387Y-34581D01*
X55500Y-34468D01*
X55611Y-34580D01*
X55863Y-34684D01*
X56135Y-34685D01*
X56387Y-34581D01*
X56535Y-34433D01*
X56639Y-34538D01*
X56873Y-34634D01*
X57125Y-34635D01*
X57359Y-34538D01*
X57538Y-34360D01*
X57634Y-34126D01*
X57635Y-33874D01*
X57538Y-33640D01*
X57360Y-33461D01*
X57126Y-33365D01*
X56874Y-33364D01*
X56640Y-33461D01*
X56535Y-33566D01*
X56388Y-33419D01*
X56136Y-33315D01*
X55864Y-33314D01*
X55612Y-33418D01*
X55499Y-33531D01*
X55388Y-33419D01*
X55136Y-33315D01*
X54864Y-33314D01*
X54612Y-33418D01*
X54431Y-33600D01*
X53000Y-33600D01*
X52121Y-33600D01*
X52711Y-33010D01*
X52750Y-33010D01*
X59505Y-33010D01*
X59597Y-33101D01*
X59858Y-33209D01*
X60140Y-33210D01*
X60401Y-33102D01*
X60601Y-32902D01*
X60709Y-32641D01*
X60710Y-32359D01*
X60604Y-32104D01*
X60655Y-32054D01*
X60709Y-31921D01*
X60710Y-31778D01*
X60710Y-31078D01*
X60655Y-30946D01*
X60554Y-30844D01*
X60421Y-30790D01*
X60278Y-30789D01*
X59578Y-30789D01*
X59446Y-30844D01*
X59344Y-30945D01*
X59290Y-31078D01*
X59289Y-31221D01*
X59289Y-31921D01*
X59318Y-31990D01*
X58069Y-31990D01*
X58080Y-31979D01*
X58134Y-31846D01*
X58135Y-31703D01*
X58135Y-31153D01*
X58080Y-31021D01*
X57979Y-30919D01*
X57846Y-30865D01*
X57703Y-30864D01*
X57430Y-30864D01*
X57282Y-30717D01*
X57153Y-30630D01*
X57127Y-30625D01*
X57000Y-30600D01*
X54415Y-30600D01*
X54150Y-30334D01*
X54150Y-29356D01*
X54203Y-29303D01*
X54284Y-29106D01*
X54285Y-28894D01*
X54203Y-28697D01*
X54053Y-28546D01*
X53856Y-28465D01*
X53644Y-28464D01*
X53447Y-28546D01*
X53296Y-28696D01*
X53215Y-28893D01*
X53214Y-29105D01*
X53296Y-29302D01*
X53350Y-29356D01*
X53350Y-30500D01*
X53375Y-30627D01*
X53380Y-30653D01*
X53467Y-30782D01*
X53674Y-30990D01*
X52461Y-30990D01*
X52010Y-30538D01*
X52010Y-28250D01*
X52009Y-28249D01*
X51987Y-28136D01*
X52103Y-28184D01*
X52246Y-28185D01*
X52896Y-28185D01*
X53028Y-28130D01*
X53130Y-28029D01*
X53137Y-28010D01*
X54361Y-28010D01*
X54369Y-28028D01*
X54470Y-28130D01*
X54603Y-28184D01*
X54746Y-28185D01*
X55396Y-28185D01*
X55528Y-28130D01*
X55630Y-28029D01*
X55684Y-27896D01*
X55685Y-27753D01*
X55685Y-27286D01*
X55711Y-27260D01*
X56814Y-27260D01*
X56814Y-27896D01*
X56869Y-28028D01*
X56970Y-28130D01*
X57103Y-28184D01*
X57246Y-28185D01*
X57896Y-28185D01*
X58028Y-28130D01*
X58130Y-28029D01*
X58184Y-27896D01*
X58185Y-27753D01*
X58185Y-27406D01*
X58639Y-27860D01*
X58639Y-27860D01*
X58749Y-27934D01*
X58804Y-27971D01*
X58804Y-27971D01*
X58999Y-28009D01*
X59000Y-28010D01*
X59505Y-28010D01*
X59597Y-28101D01*
X59858Y-28209D01*
X60140Y-28210D01*
X60401Y-28102D01*
X60601Y-27902D01*
X60709Y-27641D01*
X60710Y-27359D01*
X60710Y-25359D01*
X60602Y-25098D01*
X60402Y-24898D01*
X60141Y-24790D01*
X59859Y-24789D01*
X59598Y-24897D01*
X59398Y-25097D01*
X59290Y-25358D01*
X59289Y-25640D01*
X59397Y-25901D01*
X59597Y-26101D01*
X59858Y-26209D01*
X60140Y-26210D01*
X60401Y-26102D01*
X60601Y-25902D01*
X60709Y-25641D01*
X60710Y-25359D01*
X60710Y-27359D01*
X60602Y-27098D01*
X60402Y-26898D01*
X60141Y-26790D01*
X59859Y-26789D01*
X59598Y-26897D01*
X59505Y-26990D01*
X59211Y-26990D01*
X59210Y-26988D01*
X59210Y-25778D01*
X59210Y-25078D01*
X59155Y-24946D01*
X59054Y-24844D01*
X58921Y-24790D01*
X58778Y-24789D01*
X58078Y-24789D01*
X57998Y-24823D01*
X58048Y-24701D01*
X58049Y-24558D01*
X58049Y-23180D01*
X57994Y-23048D01*
X57893Y-22946D01*
X57760Y-22892D01*
X57617Y-22891D01*
X56239Y-22891D01*
X56107Y-22946D01*
X56005Y-23047D01*
X55951Y-23180D01*
X55950Y-23323D01*
X55950Y-24701D01*
X56005Y-24833D01*
X56106Y-24935D01*
X56239Y-24989D01*
X56382Y-24990D01*
X57760Y-24990D01*
X57840Y-24956D01*
X57790Y-25078D01*
X57789Y-25221D01*
X57789Y-25921D01*
X57844Y-26053D01*
X57945Y-26155D01*
X58078Y-26209D01*
X58221Y-26210D01*
X58921Y-26210D01*
X59053Y-26155D01*
X59155Y-26054D01*
X59209Y-25921D01*
X59210Y-25778D01*
X59210Y-26988D01*
X58610Y-26389D01*
X58445Y-26278D01*
X58250Y-26240D01*
X55500Y-26240D01*
X55304Y-26278D01*
X55210Y-26342D01*
X55210Y-25359D01*
X55102Y-25098D01*
X54902Y-24898D01*
X54641Y-24790D01*
X54635Y-24790D01*
X54635Y-22374D01*
X54538Y-22140D01*
X54398Y-21999D01*
X54538Y-21860D01*
X54634Y-21626D01*
X54635Y-21374D01*
X54538Y-21140D01*
X54360Y-20961D01*
X54126Y-20865D01*
X53874Y-20864D01*
X53640Y-20961D01*
X53461Y-21139D01*
X53365Y-21373D01*
X53364Y-21625D01*
X53461Y-21859D01*
X53601Y-22000D01*
X53461Y-22139D01*
X53365Y-22373D01*
X53364Y-22625D01*
X53461Y-22859D01*
X53639Y-23038D01*
X53873Y-23134D01*
X54125Y-23135D01*
X54359Y-23038D01*
X54538Y-22860D01*
X54634Y-22626D01*
X54635Y-22374D01*
X54635Y-24790D01*
X54359Y-24789D01*
X54098Y-24897D01*
X53898Y-25097D01*
X53790Y-25358D01*
X53789Y-25640D01*
X53897Y-25901D01*
X54097Y-26101D01*
X54358Y-26209D01*
X54640Y-26210D01*
X54901Y-26102D01*
X55101Y-25902D01*
X55209Y-25641D01*
X55210Y-25359D01*
X55210Y-26342D01*
X55139Y-26389D01*
X54713Y-26814D01*
X54603Y-26814D01*
X54471Y-26869D01*
X54369Y-26970D01*
X54362Y-26990D01*
X53185Y-26990D01*
X53185Y-26253D01*
X53185Y-25603D01*
X53130Y-25471D01*
X53029Y-25369D01*
X52896Y-25315D01*
X52753Y-25314D01*
X52103Y-25314D01*
X51971Y-25369D01*
X51869Y-25470D01*
X51815Y-25603D01*
X51814Y-25746D01*
X51814Y-26396D01*
X51869Y-26528D01*
X51970Y-26630D01*
X52103Y-26684D01*
X52246Y-26685D01*
X52896Y-26685D01*
X53028Y-26630D01*
X53130Y-26529D01*
X53184Y-26396D01*
X53185Y-26253D01*
X53185Y-26990D01*
X53138Y-26990D01*
X53130Y-26971D01*
X53029Y-26869D01*
X52896Y-26815D01*
X52753Y-26814D01*
X52103Y-26814D01*
X52055Y-26834D01*
X50685Y-25463D01*
X50685Y-25103D01*
X50630Y-24971D01*
X50529Y-24869D01*
X50396Y-24815D01*
X50253Y-24814D01*
X49603Y-24814D01*
X49471Y-24869D01*
X49369Y-24970D01*
X49315Y-25103D01*
X49314Y-25246D01*
X49314Y-25896D01*
X49369Y-26028D01*
X49435Y-26095D01*
X49431Y-26100D01*
X48915Y-26100D01*
X48532Y-25717D01*
X48403Y-25630D01*
X48377Y-25625D01*
X48250Y-25600D01*
X47564Y-25600D01*
X47565Y-25503D01*
X47565Y-24653D01*
X47510Y-24521D01*
X47409Y-24419D01*
X47361Y-24400D01*
X48500Y-24400D01*
X48500Y-24399D01*
X48627Y-24374D01*
X48653Y-24369D01*
X48653Y-24369D01*
X48782Y-24282D01*
X48875Y-24189D01*
X49136Y-24190D01*
X49390Y-24085D01*
X49500Y-23975D01*
X49608Y-24084D01*
X49862Y-24189D01*
X50136Y-24190D01*
X50390Y-24085D01*
X50584Y-23891D01*
X50689Y-23637D01*
X50690Y-23363D01*
X50585Y-23109D01*
X50391Y-22915D01*
X50137Y-22810D01*
X49863Y-22809D01*
X49609Y-22914D01*
X49499Y-23024D01*
X49391Y-22915D01*
X49137Y-22810D01*
X48863Y-22809D01*
X48609Y-22914D01*
X48415Y-23108D01*
X48310Y-23362D01*
X48309Y-23600D01*
X47361Y-23600D01*
X47408Y-23580D01*
X47510Y-23479D01*
X47564Y-23346D01*
X47565Y-23203D01*
X47565Y-22353D01*
X47525Y-22256D01*
X47525Y-22125D01*
X47525Y-21880D01*
X47534Y-21856D01*
X47535Y-21650D01*
X48315Y-21650D01*
X48414Y-21890D01*
X48608Y-22084D01*
X48862Y-22189D01*
X49136Y-22190D01*
X49390Y-22085D01*
X49500Y-21975D01*
X49608Y-22084D01*
X49862Y-22189D01*
X50136Y-22190D01*
X50390Y-22085D01*
X50538Y-21936D01*
X50601Y-22000D01*
X50461Y-22139D01*
X50365Y-22373D01*
X50364Y-22625D01*
X50461Y-22859D01*
X50639Y-23038D01*
X50873Y-23134D01*
X51125Y-23135D01*
X51359Y-23038D01*
X51538Y-22860D01*
X51634Y-22626D01*
X51635Y-22374D01*
X51538Y-22140D01*
X51398Y-21999D01*
X51538Y-21860D01*
X51634Y-21626D01*
X51635Y-21374D01*
X51538Y-21140D01*
X51360Y-20961D01*
X51126Y-20865D01*
X50874Y-20864D01*
X50640Y-20961D01*
X50538Y-21063D01*
X50391Y-20915D01*
X50137Y-20810D01*
X49863Y-20809D01*
X49609Y-20914D01*
X49499Y-21024D01*
X49391Y-20915D01*
X49137Y-20810D01*
X48863Y-20809D01*
X48760Y-20852D01*
X48760Y-20852D01*
X48750Y-20850D01*
X46000Y-20850D01*
X45846Y-20880D01*
X45803Y-20909D01*
X45717Y-20967D01*
X45342Y-21342D01*
X45255Y-21471D01*
X45250Y-21497D01*
X45225Y-21625D01*
X45225Y-22064D01*
X45223Y-22064D01*
X45091Y-22119D01*
X44989Y-22220D01*
X44935Y-22353D01*
X44934Y-22496D01*
X44934Y-23036D01*
X44860Y-22961D01*
X44626Y-22865D01*
X44374Y-22864D01*
X44140Y-22961D01*
X43961Y-23139D01*
X43865Y-23373D01*
X43864Y-23625D01*
X43961Y-23859D01*
X44101Y-24000D01*
X43961Y-24139D01*
X43865Y-24373D01*
X43864Y-24625D01*
X43961Y-24859D01*
X44139Y-25038D01*
X44373Y-25134D01*
X44625Y-25135D01*
X44859Y-25038D01*
X44934Y-24963D01*
X44934Y-25646D01*
X44989Y-25778D01*
X45090Y-25880D01*
X45223Y-25934D01*
X45225Y-25934D01*
X45225Y-26125D01*
X45250Y-26252D01*
X45255Y-26278D01*
X45342Y-26407D01*
X45592Y-26657D01*
X45653Y-26719D01*
X45653Y-26719D01*
X45662Y-26740D01*
X42535Y-26740D01*
X42535Y-26644D01*
X42453Y-26447D01*
X42303Y-26296D01*
X42106Y-26215D01*
X41894Y-26214D01*
X41833Y-26240D01*
X41211Y-26240D01*
X40610Y-25639D01*
X40610Y-25639D01*
X40610Y-25639D01*
X39934Y-24963D01*
X40000Y-24898D01*
X40139Y-25038D01*
X40373Y-25134D01*
X40625Y-25135D01*
X40859Y-25038D01*
X41000Y-24898D01*
X41139Y-25038D01*
X41373Y-25134D01*
X41625Y-25135D01*
X41859Y-25038D01*
X41998Y-24900D01*
X42084Y-24900D01*
X42615Y-25430D01*
X42614Y-25625D01*
X42711Y-25859D01*
X42889Y-26038D01*
X43123Y-26134D01*
X43375Y-26135D01*
X43609Y-26038D01*
X43788Y-25860D01*
X43884Y-25626D01*
X43885Y-25374D01*
X43788Y-25140D01*
X43610Y-24961D01*
X43376Y-24865D01*
X43180Y-24864D01*
X42532Y-24217D01*
X42403Y-24130D01*
X42377Y-24125D01*
X42250Y-24100D01*
X41997Y-24100D01*
X41898Y-23999D01*
X41998Y-23900D01*
X42250Y-23900D01*
X42250Y-23899D01*
X42377Y-23874D01*
X42403Y-23869D01*
X42403Y-23869D01*
X42532Y-23782D01*
X43180Y-23134D01*
X43375Y-23135D01*
X43609Y-23038D01*
X43788Y-22860D01*
X43884Y-22626D01*
X43885Y-22374D01*
X43788Y-22140D01*
X43610Y-21961D01*
X43376Y-21865D01*
X43124Y-21864D01*
X42890Y-21961D01*
X42711Y-22139D01*
X42615Y-22373D01*
X42614Y-22569D01*
X42084Y-23100D01*
X41997Y-23100D01*
X41860Y-22961D01*
X41626Y-22865D01*
X41374Y-22864D01*
X41140Y-22961D01*
X40999Y-23101D01*
X40978Y-23080D01*
X40978Y-23080D01*
X41080Y-22979D01*
X41134Y-22846D01*
X41135Y-22703D01*
X41135Y-22153D01*
X41080Y-22021D01*
X40979Y-21919D01*
X40846Y-21865D01*
X40703Y-21864D01*
X40153Y-21864D01*
X40021Y-21919D01*
X40000Y-21940D01*
X39979Y-21919D01*
X39846Y-21865D01*
X39703Y-21864D01*
X39153Y-21864D01*
X39021Y-21919D01*
X38919Y-22020D01*
X38865Y-22153D01*
X38864Y-22296D01*
X38864Y-22600D01*
X36007Y-22600D01*
X36053Y-22489D01*
X36053Y-22346D01*
X36053Y-22120D01*
X38620Y-22120D01*
X38620Y-20620D01*
X60239Y-20620D01*
X60017Y-20842D01*
X59840Y-21268D01*
X59839Y-21729D01*
X60016Y-22156D01*
X60342Y-22482D01*
X60768Y-22659D01*
X61229Y-22660D01*
X61656Y-22483D01*
X61880Y-22260D01*
X61880Y-34814D01*
X61880Y-34814D01*
G37*
G54D28*
X61880Y-34814D02*
X61864Y-34814D01*
X61612Y-34918D01*
X61499Y-35031D01*
X61388Y-34919D01*
X61136Y-34815D01*
X60864Y-34814D01*
X60612Y-34918D01*
X60499Y-35031D01*
X60388Y-34919D01*
X60136Y-34815D01*
X59864Y-34814D01*
X59612Y-34918D01*
X59499Y-35031D01*
X59388Y-34919D01*
X59136Y-34815D01*
X58864Y-34814D01*
X58612Y-34918D01*
X58499Y-35031D01*
X58388Y-34919D01*
X58136Y-34815D01*
X57864Y-34814D01*
X57612Y-34918D01*
X57499Y-35031D01*
X57388Y-34919D01*
X57136Y-34815D01*
X56864Y-34814D01*
X56612Y-34918D01*
X56499Y-35031D01*
X56388Y-34919D01*
X56136Y-34815D01*
X55864Y-34814D01*
X55612Y-34918D01*
X55499Y-35031D01*
X55388Y-34919D01*
X55136Y-34815D01*
X54864Y-34814D01*
X54612Y-34918D01*
X54499Y-35031D01*
X54388Y-34919D01*
X54136Y-34815D01*
X53864Y-34814D01*
X53612Y-34918D01*
X53499Y-35031D01*
X53388Y-34919D01*
X53136Y-34815D01*
X52864Y-34814D01*
X52612Y-34918D01*
X52499Y-35031D01*
X52388Y-34919D01*
X52136Y-34815D01*
X51864Y-34814D01*
X51612Y-34918D01*
X51499Y-35031D01*
X51388Y-34919D01*
X51136Y-34815D01*
X50906Y-34814D01*
X51321Y-34400D01*
X53000Y-34400D01*
X54431Y-34400D01*
X54611Y-34580D01*
X54863Y-34684D01*
X55135Y-34685D01*
X55387Y-34581D01*
X55500Y-34468D01*
X55611Y-34580D01*
X55863Y-34684D01*
X56135Y-34685D01*
X56387Y-34581D01*
X56535Y-34433D01*
X56639Y-34538D01*
X56873Y-34634D01*
X57125Y-34635D01*
X57359Y-34538D01*
X57538Y-34360D01*
X57634Y-34126D01*
X57635Y-33874D01*
X57538Y-33640D01*
X57360Y-33461D01*
X57126Y-33365D01*
X56874Y-33364D01*
X56640Y-33461D01*
X56535Y-33566D01*
X56388Y-33419D01*
X56136Y-33315D01*
X55864Y-33314D01*
X55612Y-33418D01*
X55499Y-33531D01*
X55388Y-33419D01*
X55136Y-33315D01*
X54864Y-33314D01*
X54612Y-33418D01*
X54431Y-33600D01*
X53000Y-33600D01*
X52121Y-33600D01*
X52711Y-33010D01*
X52750Y-33010D01*
X59505Y-33010D01*
X59597Y-33101D01*
X59858Y-33209D01*
X60140Y-33210D01*
X60401Y-33102D01*
X60601Y-32902D01*
X60709Y-32641D01*
X60710Y-32359D01*
X60604Y-32104D01*
X60655Y-32054D01*
X60709Y-31921D01*
X60710Y-31778D01*
X60710Y-31078D01*
X60655Y-30946D01*
X60554Y-30844D01*
X60421Y-30790D01*
X60278Y-30789D01*
X59578Y-30789D01*
X59446Y-30844D01*
X59344Y-30945D01*
X59290Y-31078D01*
X59289Y-31221D01*
X59289Y-31921D01*
X59318Y-31990D01*
X58069Y-31990D01*
X58080Y-31979D01*
X58134Y-31846D01*
X58135Y-31703D01*
X58135Y-31153D01*
X58080Y-31021D01*
X57979Y-30919D01*
X57846Y-30865D01*
X57703Y-30864D01*
X57430Y-30864D01*
X57282Y-30717D01*
X57153Y-30630D01*
X57127Y-30625D01*
X57000Y-30600D01*
X54415Y-30600D01*
X54150Y-30334D01*
X54150Y-29356D01*
X54203Y-29303D01*
X54284Y-29106D01*
X54285Y-28894D01*
X54203Y-28697D01*
X54053Y-28546D01*
X53856Y-28465D01*
X53644Y-28464D01*
X53447Y-28546D01*
X53296Y-28696D01*
X53215Y-28893D01*
X53214Y-29105D01*
X53296Y-29302D01*
X53350Y-29356D01*
X53350Y-30500D01*
X53375Y-30627D01*
X53380Y-30653D01*
X53467Y-30782D01*
X53674Y-30990D01*
X52461Y-30990D01*
X52010Y-30538D01*
X52010Y-28250D01*
X52009Y-28249D01*
X51987Y-28136D01*
X52103Y-28184D01*
X52246Y-28185D01*
X52896Y-28185D01*
X53028Y-28130D01*
X53130Y-28029D01*
X53137Y-28010D01*
X54361Y-28010D01*
X54369Y-28028D01*
X54470Y-28130D01*
X54603Y-28184D01*
X54746Y-28185D01*
X55396Y-28185D01*
X55528Y-28130D01*
X55630Y-28029D01*
X55684Y-27896D01*
X55685Y-27753D01*
X55685Y-27286D01*
X55711Y-27260D01*
X56814Y-27260D01*
X56814Y-27896D01*
X56869Y-28028D01*
X56970Y-28130D01*
X57103Y-28184D01*
X57246Y-28185D01*
X57896Y-28185D01*
X58028Y-28130D01*
X58130Y-28029D01*
X58184Y-27896D01*
X58185Y-27753D01*
X58185Y-27406D01*
X58639Y-27860D01*
X58639Y-27860D01*
X58749Y-27934D01*
X58804Y-27971D01*
X58804Y-27971D01*
X58999Y-28009D01*
X59000Y-28010D01*
X59505Y-28010D01*
X59597Y-28101D01*
X59858Y-28209D01*
X60140Y-28210D01*
X60401Y-28102D01*
X60601Y-27902D01*
X60709Y-27641D01*
X60710Y-27359D01*
X60710Y-25359D01*
X60602Y-25098D01*
X60402Y-24898D01*
X60141Y-24790D01*
X59859Y-24789D01*
X59598Y-24897D01*
X59398Y-25097D01*
X59290Y-25358D01*
X59289Y-25640D01*
X59397Y-25901D01*
X59597Y-26101D01*
X59858Y-26209D01*
X60140Y-26210D01*
X60401Y-26102D01*
X60601Y-25902D01*
X60709Y-25641D01*
X60710Y-25359D01*
X60710Y-27359D01*
X60602Y-27098D01*
X60402Y-26898D01*
X60141Y-26790D01*
X59859Y-26789D01*
X59598Y-26897D01*
X59505Y-26990D01*
X59211Y-26990D01*
X59210Y-26988D01*
X59210Y-25778D01*
X59210Y-25078D01*
X59155Y-24946D01*
X59054Y-24844D01*
X58921Y-24790D01*
X58778Y-24789D01*
X58078Y-24789D01*
X57998Y-24823D01*
X58048Y-24701D01*
X58049Y-24558D01*
X58049Y-23180D01*
X57994Y-23048D01*
X57893Y-22946D01*
X57760Y-22892D01*
X57617Y-22891D01*
X56239Y-22891D01*
X56107Y-22946D01*
X56005Y-23047D01*
X55951Y-23180D01*
X55950Y-23323D01*
X55950Y-24701D01*
X56005Y-24833D01*
X56106Y-24935D01*
X56239Y-24989D01*
X56382Y-24990D01*
X57760Y-24990D01*
X57840Y-24956D01*
X57790Y-25078D01*
X57789Y-25221D01*
X57789Y-25921D01*
X57844Y-26053D01*
X57945Y-26155D01*
X58078Y-26209D01*
X58221Y-26210D01*
X58921Y-26210D01*
X59053Y-26155D01*
X59155Y-26054D01*
X59209Y-25921D01*
X59210Y-25778D01*
X59210Y-26988D01*
X58610Y-26389D01*
X58445Y-26278D01*
X58250Y-26240D01*
X55500Y-26240D01*
X55304Y-26278D01*
X55210Y-26342D01*
X55210Y-25359D01*
X55102Y-25098D01*
X54902Y-24898D01*
X54641Y-24790D01*
X54635Y-24790D01*
X54635Y-22374D01*
X54538Y-22140D01*
X54398Y-21999D01*
X54538Y-21860D01*
X54634Y-21626D01*
X54635Y-21374D01*
X54538Y-21140D01*
X54360Y-20961D01*
X54126Y-20865D01*
X53874Y-20864D01*
X53640Y-20961D01*
X53461Y-21139D01*
X53365Y-21373D01*
X53364Y-21625D01*
X53461Y-21859D01*
X53601Y-22000D01*
X53461Y-22139D01*
X53365Y-22373D01*
X53364Y-22625D01*
X53461Y-22859D01*
X53639Y-23038D01*
X53873Y-23134D01*
X54125Y-23135D01*
X54359Y-23038D01*
X54538Y-22860D01*
X54634Y-22626D01*
X54635Y-22374D01*
X54635Y-24790D01*
X54359Y-24789D01*
X54098Y-24897D01*
X53898Y-25097D01*
X53790Y-25358D01*
X53789Y-25640D01*
X53897Y-25901D01*
X54097Y-26101D01*
X54358Y-26209D01*
X54640Y-26210D01*
X54901Y-26102D01*
X55101Y-25902D01*
X55209Y-25641D01*
X55210Y-25359D01*
X55210Y-26342D01*
X55139Y-26389D01*
X54713Y-26814D01*
X54603Y-26814D01*
X54471Y-26869D01*
X54369Y-26970D01*
X54362Y-26990D01*
X53185Y-26990D01*
X53185Y-26253D01*
X53185Y-25603D01*
X53130Y-25471D01*
X53029Y-25369D01*
X52896Y-25315D01*
X52753Y-25314D01*
X52103Y-25314D01*
X51971Y-25369D01*
X51869Y-25470D01*
X51815Y-25603D01*
X51814Y-25746D01*
X51814Y-26396D01*
X51869Y-26528D01*
X51970Y-26630D01*
X52103Y-26684D01*
X52246Y-26685D01*
X52896Y-26685D01*
X53028Y-26630D01*
X53130Y-26529D01*
X53184Y-26396D01*
X53185Y-26253D01*
X53185Y-26990D01*
X53138Y-26990D01*
X53130Y-26971D01*
X53029Y-26869D01*
X52896Y-26815D01*
X52753Y-26814D01*
X52103Y-26814D01*
X52055Y-26834D01*
X50685Y-25463D01*
X50685Y-25103D01*
X50630Y-24971D01*
X50529Y-24869D01*
X50396Y-24815D01*
X50253Y-24814D01*
X49603Y-24814D01*
X49471Y-24869D01*
X49369Y-24970D01*
X49315Y-25103D01*
X49314Y-25246D01*
X49314Y-25896D01*
X49369Y-26028D01*
X49435Y-26095D01*
X49431Y-26100D01*
X48915Y-26100D01*
X48532Y-25717D01*
X48403Y-25630D01*
X48377Y-25625D01*
X48250Y-25600D01*
X47564Y-25600D01*
X47565Y-25503D01*
X47565Y-24653D01*
X47510Y-24521D01*
X47409Y-24419D01*
X47361Y-24400D01*
X48500Y-24400D01*
X48500Y-24399D01*
X48627Y-24374D01*
X48653Y-24369D01*
X48653Y-24369D01*
X48782Y-24282D01*
X48875Y-24189D01*
X49136Y-24190D01*
X49390Y-24085D01*
X49500Y-23975D01*
X49608Y-24084D01*
X49862Y-24189D01*
X50136Y-24190D01*
X50390Y-24085D01*
X50584Y-23891D01*
X50689Y-23637D01*
X50690Y-23363D01*
X50585Y-23109D01*
X50391Y-22915D01*
X50137Y-22810D01*
X49863Y-22809D01*
X49609Y-22914D01*
X49499Y-23024D01*
X49391Y-22915D01*
X49137Y-22810D01*
X48863Y-22809D01*
X48609Y-22914D01*
X48415Y-23108D01*
X48310Y-23362D01*
X48309Y-23600D01*
X47361Y-23600D01*
X47408Y-23580D01*
X47510Y-23479D01*
X47564Y-23346D01*
X47565Y-23203D01*
X47565Y-22353D01*
X47525Y-22256D01*
X47525Y-22125D01*
X47525Y-21880D01*
X47534Y-21856D01*
X47535Y-21650D01*
X48315Y-21650D01*
X48414Y-21890D01*
X48608Y-22084D01*
X48862Y-22189D01*
X49136Y-22190D01*
X49390Y-22085D01*
X49500Y-21975D01*
X49608Y-22084D01*
X49862Y-22189D01*
X50136Y-22190D01*
X50390Y-22085D01*
X50538Y-21936D01*
X50601Y-22000D01*
X50461Y-22139D01*
X50365Y-22373D01*
X50364Y-22625D01*
X50461Y-22859D01*
X50639Y-23038D01*
X50873Y-23134D01*
X51125Y-23135D01*
X51359Y-23038D01*
X51538Y-22860D01*
X51634Y-22626D01*
X51635Y-22374D01*
X51538Y-22140D01*
X51398Y-21999D01*
X51538Y-21860D01*
X51634Y-21626D01*
X51635Y-21374D01*
X51538Y-21140D01*
X51360Y-20961D01*
X51126Y-20865D01*
X50874Y-20864D01*
X50640Y-20961D01*
X50538Y-21063D01*
X50391Y-20915D01*
X50137Y-20810D01*
X49863Y-20809D01*
X49609Y-20914D01*
X49499Y-21024D01*
X49391Y-20915D01*
X49137Y-20810D01*
X48863Y-20809D01*
X48760Y-20852D01*
X48760Y-20852D01*
X48750Y-20850D01*
X46000Y-20850D01*
X45846Y-20880D01*
X45803Y-20909D01*
X45717Y-20967D01*
X45342Y-21342D01*
X45255Y-21471D01*
X45250Y-21497D01*
X45225Y-21625D01*
X45225Y-22064D01*
X45223Y-22064D01*
X45091Y-22119D01*
X44989Y-22220D01*
X44935Y-22353D01*
X44934Y-22496D01*
X44934Y-23036D01*
X44860Y-22961D01*
X44626Y-22865D01*
X44374Y-22864D01*
X44140Y-22961D01*
X43961Y-23139D01*
X43865Y-23373D01*
X43864Y-23625D01*
X43961Y-23859D01*
X44101Y-24000D01*
X43961Y-24139D01*
X43865Y-24373D01*
X43864Y-24625D01*
X43961Y-24859D01*
X44139Y-25038D01*
X44373Y-25134D01*
X44625Y-25135D01*
X44859Y-25038D01*
X44934Y-24963D01*
X44934Y-25646D01*
X44989Y-25778D01*
X45090Y-25880D01*
X45223Y-25934D01*
X45225Y-25934D01*
X45225Y-26125D01*
X45250Y-26252D01*
X45255Y-26278D01*
X45342Y-26407D01*
X45592Y-26657D01*
X45653Y-26719D01*
X45653Y-26719D01*
X45662Y-26740D01*
X42535Y-26740D01*
X42535Y-26644D01*
X42453Y-26447D01*
X42303Y-26296D01*
X42106Y-26215D01*
X41894Y-26214D01*
X41833Y-26240D01*
X41211Y-26240D01*
X40610Y-25639D01*
X40610Y-25639D01*
X40610Y-25639D01*
X39934Y-24963D01*
X40000Y-24898D01*
X40139Y-25038D01*
X40373Y-25134D01*
X40625Y-25135D01*
X40859Y-25038D01*
X41000Y-24898D01*
X41139Y-25038D01*
X41373Y-25134D01*
X41625Y-25135D01*
X41859Y-25038D01*
X41998Y-24900D01*
X42084Y-24900D01*
X42615Y-25430D01*
X42614Y-25625D01*
X42711Y-25859D01*
X42889Y-26038D01*
X43123Y-26134D01*
X43375Y-26135D01*
X43609Y-26038D01*
X43788Y-25860D01*
X43884Y-25626D01*
X43885Y-25374D01*
X43788Y-25140D01*
X43610Y-24961D01*
X43376Y-24865D01*
X43180Y-24864D01*
X42532Y-24217D01*
X42403Y-24130D01*
X42377Y-24125D01*
X42250Y-24100D01*
X41997Y-24100D01*
X41898Y-23999D01*
X41998Y-23900D01*
X42250Y-23900D01*
X42250Y-23899D01*
X42377Y-23874D01*
X42403Y-23869D01*
X42403Y-23869D01*
X42532Y-23782D01*
X43180Y-23134D01*
X43375Y-23135D01*
X43609Y-23038D01*
X43788Y-22860D01*
X43884Y-22626D01*
X43885Y-22374D01*
X43788Y-22140D01*
X43610Y-21961D01*
X43376Y-21865D01*
X43124Y-21864D01*
X42890Y-21961D01*
X42711Y-22139D01*
X42615Y-22373D01*
X42614Y-22569D01*
X42084Y-23100D01*
X41997Y-23100D01*
X41860Y-22961D01*
X41626Y-22865D01*
X41374Y-22864D01*
X41140Y-22961D01*
X40999Y-23101D01*
X40978Y-23080D01*
X40978Y-23080D01*
X41080Y-22979D01*
X41134Y-22846D01*
X41135Y-22703D01*
X41135Y-22153D01*
X41080Y-22021D01*
X40979Y-21919D01*
X40846Y-21865D01*
X40703Y-21864D01*
X40153Y-21864D01*
X40021Y-21919D01*
X40000Y-21940D01*
X39979Y-21919D01*
X39846Y-21865D01*
X39703Y-21864D01*
X39153Y-21864D01*
X39021Y-21919D01*
X38919Y-22020D01*
X38865Y-22153D01*
X38864Y-22296D01*
X38864Y-22600D01*
X36007Y-22600D01*
X36053Y-22489D01*
X36053Y-22346D01*
X36053Y-22120D01*
X38620Y-22120D01*
X38620Y-20620D01*
X60239Y-20620D01*
X60017Y-20842D01*
X59840Y-21268D01*
X59839Y-21729D01*
X60016Y-22156D01*
X60342Y-22482D01*
X60768Y-22659D01*
X61229Y-22660D01*
X61656Y-22483D01*
X61880Y-22260D01*
X61880Y-34814D01*
G54D10*
G36*
X61880Y-48814D02*
X61864Y-48814D01*
X61612Y-48918D01*
X61499Y-49031D01*
X61388Y-48919D01*
X61136Y-48815D01*
X60864Y-48814D01*
X60612Y-48918D01*
X60499Y-49031D01*
X60388Y-48919D01*
X60136Y-48815D01*
X59900Y-48814D01*
X59900Y-48165D01*
X59930Y-48134D01*
X60125Y-48135D01*
X60359Y-48038D01*
X60500Y-47898D01*
X60639Y-48038D01*
X60873Y-48134D01*
X61125Y-48135D01*
X61359Y-48038D01*
X61500Y-47898D01*
X61639Y-48038D01*
X61873Y-48134D01*
X61880Y-48134D01*
X61880Y-48814D01*
X61880Y-48814D01*
G37*
G54D28*
X61880Y-48814D02*
X61864Y-48814D01*
X61612Y-48918D01*
X61499Y-49031D01*
X61388Y-48919D01*
X61136Y-48815D01*
X60864Y-48814D01*
X60612Y-48918D01*
X60499Y-49031D01*
X60388Y-48919D01*
X60136Y-48815D01*
X59900Y-48814D01*
X59900Y-48165D01*
X59930Y-48134D01*
X60125Y-48135D01*
X60359Y-48038D01*
X60500Y-47898D01*
X60639Y-48038D01*
X60873Y-48134D01*
X61125Y-48135D01*
X61359Y-48038D01*
X61500Y-47898D01*
X61639Y-48038D01*
X61873Y-48134D01*
X61880Y-48134D01*
X61880Y-48814D01*
G54D10*
G36*
X61880Y-55739D02*
X61657Y-55517D01*
X61231Y-55340D01*
X60770Y-55339D01*
X60343Y-55516D01*
X60017Y-55842D01*
X59840Y-56268D01*
X59839Y-56729D01*
X60016Y-57156D01*
X60239Y-57380D01*
X59185Y-57380D01*
X59185Y-54864D01*
X59081Y-54612D01*
X58888Y-54419D01*
X58636Y-54315D01*
X58364Y-54314D01*
X58185Y-54388D01*
X58185Y-52364D01*
X58081Y-52112D01*
X57888Y-51919D01*
X57636Y-51815D01*
X57364Y-51814D01*
X57112Y-51918D01*
X56919Y-52111D01*
X56815Y-52363D01*
X56814Y-52635D01*
X56918Y-52887D01*
X57111Y-53080D01*
X57363Y-53184D01*
X57635Y-53185D01*
X57887Y-53081D01*
X58080Y-52888D01*
X58184Y-52636D01*
X58185Y-52364D01*
X58185Y-54388D01*
X58112Y-54418D01*
X57919Y-54611D01*
X57815Y-54863D01*
X57814Y-55135D01*
X57918Y-55387D01*
X58111Y-55580D01*
X58363Y-55684D01*
X58635Y-55685D01*
X58887Y-55581D01*
X59080Y-55388D01*
X59184Y-55136D01*
X59185Y-54864D01*
X59185Y-57380D01*
X56185Y-57380D01*
X56185Y-54864D01*
X56081Y-54612D01*
X55888Y-54419D01*
X55636Y-54315D01*
X55364Y-54314D01*
X55112Y-54418D01*
X54919Y-54611D01*
X54815Y-54863D01*
X54814Y-55135D01*
X54918Y-55387D01*
X55111Y-55580D01*
X55363Y-55684D01*
X55635Y-55685D01*
X55887Y-55581D01*
X56080Y-55388D01*
X56184Y-55136D01*
X56185Y-54864D01*
X56185Y-57380D01*
X54185Y-57380D01*
X54185Y-54864D01*
X54081Y-54612D01*
X53888Y-54419D01*
X53636Y-54315D01*
X53364Y-54314D01*
X53185Y-54388D01*
X53185Y-52364D01*
X53081Y-52112D01*
X52888Y-51919D01*
X52636Y-51815D01*
X52364Y-51814D01*
X52112Y-51918D01*
X51919Y-52111D01*
X51815Y-52363D01*
X51814Y-52635D01*
X51918Y-52887D01*
X52111Y-53080D01*
X52363Y-53184D01*
X52635Y-53185D01*
X52887Y-53081D01*
X53080Y-52888D01*
X53184Y-52636D01*
X53185Y-52364D01*
X53185Y-54388D01*
X53112Y-54418D01*
X52919Y-54611D01*
X52815Y-54863D01*
X52814Y-55135D01*
X52918Y-55387D01*
X53111Y-55580D01*
X53363Y-55684D01*
X53635Y-55685D01*
X53887Y-55581D01*
X54080Y-55388D01*
X54184Y-55136D01*
X54185Y-54864D01*
X54185Y-57380D01*
X51185Y-57380D01*
X51185Y-54864D01*
X51081Y-54612D01*
X50888Y-54419D01*
X50636Y-54315D01*
X50364Y-54314D01*
X50112Y-54418D01*
X49919Y-54611D01*
X49815Y-54863D01*
X49814Y-55135D01*
X49918Y-55387D01*
X50111Y-55580D01*
X50363Y-55684D01*
X50635Y-55685D01*
X50887Y-55581D01*
X51080Y-55388D01*
X51184Y-55136D01*
X51185Y-54864D01*
X51185Y-57380D01*
X47684Y-57380D01*
X47685Y-57253D01*
X47685Y-57036D01*
X49360Y-55360D01*
X49360Y-55360D01*
X49360Y-55360D01*
X49471Y-55195D01*
X49471Y-55195D01*
X49509Y-55000D01*
X49510Y-55000D01*
X49510Y-53500D01*
X49471Y-53304D01*
X49471Y-53304D01*
X49360Y-53139D01*
X48360Y-52139D01*
X48195Y-52028D01*
X48000Y-51990D01*
X46494Y-51990D01*
X46402Y-51898D01*
X46141Y-51790D01*
X45859Y-51789D01*
X45604Y-51895D01*
X45554Y-51844D01*
X45421Y-51790D01*
X45278Y-51789D01*
X44578Y-51789D01*
X44530Y-51809D01*
X43860Y-51139D01*
X43695Y-51028D01*
X43500Y-50990D01*
X43478Y-50990D01*
X43580Y-50888D01*
X43684Y-50636D01*
X43685Y-50364D01*
X43581Y-50112D01*
X43478Y-50010D01*
X46318Y-50010D01*
X46290Y-50078D01*
X46289Y-50221D01*
X46289Y-50921D01*
X46344Y-51053D01*
X46445Y-51155D01*
X46578Y-51209D01*
X46721Y-51210D01*
X47421Y-51210D01*
X47553Y-51155D01*
X47655Y-51054D01*
X47709Y-50921D01*
X47710Y-50778D01*
X47710Y-50078D01*
X47681Y-50010D01*
X48041Y-50010D01*
X48111Y-50080D01*
X48363Y-50184D01*
X48635Y-50185D01*
X48850Y-50096D01*
X48850Y-52250D01*
X48875Y-52377D01*
X48880Y-52403D01*
X48967Y-52532D01*
X49815Y-53380D01*
X49814Y-53635D01*
X49918Y-53887D01*
X50111Y-54080D01*
X50363Y-54184D01*
X50635Y-54185D01*
X50887Y-54081D01*
X51080Y-53888D01*
X51184Y-53636D01*
X51185Y-53364D01*
X51081Y-53112D01*
X50888Y-52919D01*
X50636Y-52815D01*
X50380Y-52814D01*
X49650Y-52084D01*
X49650Y-51715D01*
X49714Y-51780D01*
X49714Y-51855D01*
X49796Y-52052D01*
X49946Y-52203D01*
X50143Y-52284D01*
X50355Y-52285D01*
X50552Y-52203D01*
X50703Y-52053D01*
X50784Y-51856D01*
X50785Y-51644D01*
X50703Y-51447D01*
X50553Y-51296D01*
X50356Y-51215D01*
X50280Y-51215D01*
X49900Y-50834D01*
X49900Y-49371D01*
X50314Y-49786D01*
X50314Y-49896D01*
X50369Y-50028D01*
X50470Y-50130D01*
X50603Y-50184D01*
X50746Y-50185D01*
X51396Y-50185D01*
X51528Y-50130D01*
X51595Y-50064D01*
X51611Y-50080D01*
X51863Y-50184D01*
X52135Y-50185D01*
X52387Y-50081D01*
X52500Y-49968D01*
X52611Y-50080D01*
X52863Y-50184D01*
X53135Y-50185D01*
X53387Y-50081D01*
X53500Y-49968D01*
X53611Y-50080D01*
X53863Y-50184D01*
X54100Y-50185D01*
X54100Y-51931D01*
X53919Y-52111D01*
X53815Y-52363D01*
X53814Y-52635D01*
X53918Y-52887D01*
X54031Y-53000D01*
X53919Y-53111D01*
X53815Y-53363D01*
X53814Y-53635D01*
X53918Y-53887D01*
X54111Y-54080D01*
X54363Y-54184D01*
X54635Y-54185D01*
X54887Y-54081D01*
X55000Y-53968D01*
X55111Y-54080D01*
X55363Y-54184D01*
X55635Y-54185D01*
X55887Y-54081D01*
X56080Y-53888D01*
X56184Y-53636D01*
X56185Y-53364D01*
X56081Y-53112D01*
X55888Y-52919D01*
X55636Y-52815D01*
X55364Y-52814D01*
X55112Y-52918D01*
X54999Y-53031D01*
X54968Y-52999D01*
X55080Y-52888D01*
X55184Y-52636D01*
X55185Y-52364D01*
X55081Y-52112D01*
X54900Y-51931D01*
X54900Y-50184D01*
X55135Y-50185D01*
X55387Y-50081D01*
X55500Y-49968D01*
X55611Y-50080D01*
X55863Y-50184D01*
X56135Y-50185D01*
X56387Y-50081D01*
X56500Y-49968D01*
X56611Y-50080D01*
X56863Y-50184D01*
X57135Y-50185D01*
X57387Y-50081D01*
X57500Y-49968D01*
X57611Y-50080D01*
X57863Y-50184D01*
X58135Y-50185D01*
X58387Y-50081D01*
X58500Y-49968D01*
X58611Y-50080D01*
X58863Y-50184D01*
X59100Y-50185D01*
X59100Y-51931D01*
X58919Y-52111D01*
X58815Y-52363D01*
X58814Y-52635D01*
X58918Y-52887D01*
X59031Y-53000D01*
X58919Y-53111D01*
X58815Y-53363D01*
X58814Y-53635D01*
X58918Y-53887D01*
X59111Y-54080D01*
X59363Y-54184D01*
X59635Y-54185D01*
X59887Y-54081D01*
X60080Y-53888D01*
X60184Y-53636D01*
X60185Y-53364D01*
X60081Y-53112D01*
X59968Y-52999D01*
X60080Y-52888D01*
X60184Y-52636D01*
X60185Y-52364D01*
X60081Y-52112D01*
X59900Y-51931D01*
X59900Y-50184D01*
X60135Y-50185D01*
X60387Y-50081D01*
X60500Y-49968D01*
X60611Y-50080D01*
X60863Y-50184D01*
X61135Y-50185D01*
X61387Y-50081D01*
X61500Y-49968D01*
X61611Y-50080D01*
X61863Y-50184D01*
X61880Y-50184D01*
X61880Y-55739D01*
X61880Y-55739D01*
G37*
G54D28*
X61880Y-55739D02*
X61657Y-55517D01*
X61231Y-55340D01*
X60770Y-55339D01*
X60343Y-55516D01*
X60017Y-55842D01*
X59840Y-56268D01*
X59839Y-56729D01*
X60016Y-57156D01*
X60239Y-57380D01*
X59185Y-57380D01*
X59185Y-54864D01*
X59081Y-54612D01*
X58888Y-54419D01*
X58636Y-54315D01*
X58364Y-54314D01*
X58185Y-54388D01*
X58185Y-52364D01*
X58081Y-52112D01*
X57888Y-51919D01*
X57636Y-51815D01*
X57364Y-51814D01*
X57112Y-51918D01*
X56919Y-52111D01*
X56815Y-52363D01*
X56814Y-52635D01*
X56918Y-52887D01*
X57111Y-53080D01*
X57363Y-53184D01*
X57635Y-53185D01*
X57887Y-53081D01*
X58080Y-52888D01*
X58184Y-52636D01*
X58185Y-52364D01*
X58185Y-54388D01*
X58112Y-54418D01*
X57919Y-54611D01*
X57815Y-54863D01*
X57814Y-55135D01*
X57918Y-55387D01*
X58111Y-55580D01*
X58363Y-55684D01*
X58635Y-55685D01*
X58887Y-55581D01*
X59080Y-55388D01*
X59184Y-55136D01*
X59185Y-54864D01*
X59185Y-57380D01*
X56185Y-57380D01*
X56185Y-54864D01*
X56081Y-54612D01*
X55888Y-54419D01*
X55636Y-54315D01*
X55364Y-54314D01*
X55112Y-54418D01*
X54919Y-54611D01*
X54815Y-54863D01*
X54814Y-55135D01*
X54918Y-55387D01*
X55111Y-55580D01*
X55363Y-55684D01*
X55635Y-55685D01*
X55887Y-55581D01*
X56080Y-55388D01*
X56184Y-55136D01*
X56185Y-54864D01*
X56185Y-57380D01*
X54185Y-57380D01*
X54185Y-54864D01*
X54081Y-54612D01*
X53888Y-54419D01*
X53636Y-54315D01*
X53364Y-54314D01*
X53185Y-54388D01*
X53185Y-52364D01*
X53081Y-52112D01*
X52888Y-51919D01*
X52636Y-51815D01*
X52364Y-51814D01*
X52112Y-51918D01*
X51919Y-52111D01*
X51815Y-52363D01*
X51814Y-52635D01*
X51918Y-52887D01*
X52111Y-53080D01*
X52363Y-53184D01*
X52635Y-53185D01*
X52887Y-53081D01*
X53080Y-52888D01*
X53184Y-52636D01*
X53185Y-52364D01*
X53185Y-54388D01*
X53112Y-54418D01*
X52919Y-54611D01*
X52815Y-54863D01*
X52814Y-55135D01*
X52918Y-55387D01*
X53111Y-55580D01*
X53363Y-55684D01*
X53635Y-55685D01*
X53887Y-55581D01*
X54080Y-55388D01*
X54184Y-55136D01*
X54185Y-54864D01*
X54185Y-57380D01*
X51185Y-57380D01*
X51185Y-54864D01*
X51081Y-54612D01*
X50888Y-54419D01*
X50636Y-54315D01*
X50364Y-54314D01*
X50112Y-54418D01*
X49919Y-54611D01*
X49815Y-54863D01*
X49814Y-55135D01*
X49918Y-55387D01*
X50111Y-55580D01*
X50363Y-55684D01*
X50635Y-55685D01*
X50887Y-55581D01*
X51080Y-55388D01*
X51184Y-55136D01*
X51185Y-54864D01*
X51185Y-57380D01*
X47684Y-57380D01*
X47685Y-57253D01*
X47685Y-57036D01*
X49360Y-55360D01*
X49360Y-55360D01*
X49360Y-55360D01*
X49471Y-55195D01*
X49471Y-55195D01*
X49509Y-55000D01*
X49510Y-55000D01*
X49510Y-53500D01*
X49471Y-53304D01*
X49471Y-53304D01*
X49360Y-53139D01*
X48360Y-52139D01*
X48195Y-52028D01*
X48000Y-51990D01*
X46494Y-51990D01*
X46402Y-51898D01*
X46141Y-51790D01*
X45859Y-51789D01*
X45604Y-51895D01*
X45554Y-51844D01*
X45421Y-51790D01*
X45278Y-51789D01*
X44578Y-51789D01*
X44530Y-51809D01*
X43860Y-51139D01*
X43695Y-51028D01*
X43500Y-50990D01*
X43478Y-50990D01*
X43580Y-50888D01*
X43684Y-50636D01*
X43685Y-50364D01*
X43581Y-50112D01*
X43478Y-50010D01*
X46318Y-50010D01*
X46290Y-50078D01*
X46289Y-50221D01*
X46289Y-50921D01*
X46344Y-51053D01*
X46445Y-51155D01*
X46578Y-51209D01*
X46721Y-51210D01*
X47421Y-51210D01*
X47553Y-51155D01*
X47655Y-51054D01*
X47709Y-50921D01*
X47710Y-50778D01*
X47710Y-50078D01*
X47681Y-50010D01*
X48041Y-50010D01*
X48111Y-50080D01*
X48363Y-50184D01*
X48635Y-50185D01*
X48850Y-50096D01*
X48850Y-52250D01*
X48875Y-52377D01*
X48880Y-52403D01*
X48967Y-52532D01*
X49815Y-53380D01*
X49814Y-53635D01*
X49918Y-53887D01*
X50111Y-54080D01*
X50363Y-54184D01*
X50635Y-54185D01*
X50887Y-54081D01*
X51080Y-53888D01*
X51184Y-53636D01*
X51185Y-53364D01*
X51081Y-53112D01*
X50888Y-52919D01*
X50636Y-52815D01*
X50380Y-52814D01*
X49650Y-52084D01*
X49650Y-51715D01*
X49714Y-51780D01*
X49714Y-51855D01*
X49796Y-52052D01*
X49946Y-52203D01*
X50143Y-52284D01*
X50355Y-52285D01*
X50552Y-52203D01*
X50703Y-52053D01*
X50784Y-51856D01*
X50785Y-51644D01*
X50703Y-51447D01*
X50553Y-51296D01*
X50356Y-51215D01*
X50280Y-51215D01*
X49900Y-50834D01*
X49900Y-49371D01*
X50314Y-49786D01*
X50314Y-49896D01*
X50369Y-50028D01*
X50470Y-50130D01*
X50603Y-50184D01*
X50746Y-50185D01*
X51396Y-50185D01*
X51528Y-50130D01*
X51595Y-50064D01*
X51611Y-50080D01*
X51863Y-50184D01*
X52135Y-50185D01*
X52387Y-50081D01*
X52500Y-49968D01*
X52611Y-50080D01*
X52863Y-50184D01*
X53135Y-50185D01*
X53387Y-50081D01*
X53500Y-49968D01*
X53611Y-50080D01*
X53863Y-50184D01*
X54100Y-50185D01*
X54100Y-51931D01*
X53919Y-52111D01*
X53815Y-52363D01*
X53814Y-52635D01*
X53918Y-52887D01*
X54031Y-53000D01*
X53919Y-53111D01*
X53815Y-53363D01*
X53814Y-53635D01*
X53918Y-53887D01*
X54111Y-54080D01*
X54363Y-54184D01*
X54635Y-54185D01*
X54887Y-54081D01*
X55000Y-53968D01*
X55111Y-54080D01*
X55363Y-54184D01*
X55635Y-54185D01*
X55887Y-54081D01*
X56080Y-53888D01*
X56184Y-53636D01*
X56185Y-53364D01*
X56081Y-53112D01*
X55888Y-52919D01*
X55636Y-52815D01*
X55364Y-52814D01*
X55112Y-52918D01*
X54999Y-53031D01*
X54968Y-52999D01*
X55080Y-52888D01*
X55184Y-52636D01*
X55185Y-52364D01*
X55081Y-52112D01*
X54900Y-51931D01*
X54900Y-50184D01*
X55135Y-50185D01*
X55387Y-50081D01*
X55500Y-49968D01*
X55611Y-50080D01*
X55863Y-50184D01*
X56135Y-50185D01*
X56387Y-50081D01*
X56500Y-49968D01*
X56611Y-50080D01*
X56863Y-50184D01*
X57135Y-50185D01*
X57387Y-50081D01*
X57500Y-49968D01*
X57611Y-50080D01*
X57863Y-50184D01*
X58135Y-50185D01*
X58387Y-50081D01*
X58500Y-49968D01*
X58611Y-50080D01*
X58863Y-50184D01*
X59100Y-50185D01*
X59100Y-51931D01*
X58919Y-52111D01*
X58815Y-52363D01*
X58814Y-52635D01*
X58918Y-52887D01*
X59031Y-53000D01*
X58919Y-53111D01*
X58815Y-53363D01*
X58814Y-53635D01*
X58918Y-53887D01*
X59111Y-54080D01*
X59363Y-54184D01*
X59635Y-54185D01*
X59887Y-54081D01*
X60080Y-53888D01*
X60184Y-53636D01*
X60185Y-53364D01*
X60081Y-53112D01*
X59968Y-52999D01*
X60080Y-52888D01*
X60184Y-52636D01*
X60185Y-52364D01*
X60081Y-52112D01*
X59900Y-51931D01*
X59900Y-50184D01*
X60135Y-50185D01*
X60387Y-50081D01*
X60500Y-49968D01*
X60611Y-50080D01*
X60863Y-50184D01*
X61135Y-50185D01*
X61387Y-50081D01*
X61500Y-49968D01*
X61611Y-50080D01*
X61863Y-50184D01*
X61880Y-50184D01*
X61880Y-55739D01*
M02*
