G04 (created by PCBNEW (2013-07-07 BZR 4022)-stable) date Sat 19 Apr 2014 12:32:06 SAST*
%MOIN*%
G04 Gerber Fmt 3.4, Leading zero omitted, Abs format*
%FSLAX34Y34*%
G01*
G70*
G90*
G04 APERTURE LIST*
%ADD10C,0.00590551*%
%ADD11C,0.0001*%
%ADD12C,0.065*%
%ADD13R,0.065X0.065*%
%ADD14C,0.056*%
%ADD15R,0.1378X0.1378*%
%ADD16C,0.07*%
%ADD17R,0.07X0.07*%
%ADD18C,0.16*%
%ADD19R,0.055X0.055*%
%ADD20C,0.055*%
%ADD21R,0.06X0.0787402*%
%ADD22C,0.145669*%
%ADD23C,0.0511811*%
%ADD24C,0.066*%
%ADD25C,0.035*%
%ADD26C,0.008*%
%ADD27C,0.03*%
%ADD28C,0.024*%
G04 APERTURE END LIST*
G54D10*
G54D11*
G36*
X30943Y-57768D02*
X30923Y-57757D01*
X30876Y-57728D01*
X30811Y-57685D01*
X30733Y-57633D01*
X30655Y-57581D01*
X30591Y-57538D01*
X30546Y-57509D01*
X30527Y-57498D01*
X30517Y-57502D01*
X30480Y-57520D01*
X30426Y-57548D01*
X30395Y-57564D01*
X30346Y-57585D01*
X30321Y-57590D01*
X30317Y-57583D01*
X30299Y-57545D01*
X30271Y-57481D01*
X30234Y-57395D01*
X30191Y-57295D01*
X30146Y-57188D01*
X30100Y-57078D01*
X30056Y-56973D01*
X30018Y-56879D01*
X29987Y-56802D01*
X29967Y-56749D01*
X29959Y-56726D01*
X29961Y-56721D01*
X29986Y-56697D01*
X30029Y-56665D01*
X30122Y-56589D01*
X30214Y-56474D01*
X30270Y-56344D01*
X30289Y-56199D01*
X30273Y-56065D01*
X30220Y-55936D01*
X30130Y-55820D01*
X30021Y-55733D01*
X29893Y-55679D01*
X29750Y-55661D01*
X29613Y-55677D01*
X29481Y-55729D01*
X29365Y-55817D01*
X29316Y-55874D01*
X29248Y-55991D01*
X29210Y-56117D01*
X29206Y-56149D01*
X29211Y-56287D01*
X29252Y-56420D01*
X29325Y-56539D01*
X29427Y-56636D01*
X29439Y-56645D01*
X29486Y-56680D01*
X29518Y-56704D01*
X29542Y-56724D01*
X29366Y-57148D01*
X29338Y-57215D01*
X29290Y-57331D01*
X29247Y-57431D01*
X29214Y-57510D01*
X29190Y-57563D01*
X29180Y-57585D01*
X29179Y-57586D01*
X29163Y-57589D01*
X29131Y-57577D01*
X29072Y-57548D01*
X29033Y-57528D01*
X28988Y-57506D01*
X28967Y-57498D01*
X28950Y-57508D01*
X28907Y-57536D01*
X28844Y-57578D01*
X28768Y-57629D01*
X28696Y-57678D01*
X28630Y-57722D01*
X28581Y-57753D01*
X28558Y-57766D01*
X28554Y-57766D01*
X28533Y-57754D01*
X28495Y-57722D01*
X28437Y-57668D01*
X28356Y-57587D01*
X28343Y-57575D01*
X28276Y-57506D01*
X28222Y-57449D01*
X28185Y-57408D01*
X28172Y-57390D01*
X28172Y-57390D01*
X28184Y-57367D01*
X28214Y-57319D01*
X28258Y-57251D01*
X28312Y-57173D01*
X28452Y-56969D01*
X28375Y-56776D01*
X28352Y-56717D01*
X28322Y-56646D01*
X28299Y-56595D01*
X28288Y-56573D01*
X28267Y-56565D01*
X28214Y-56553D01*
X28138Y-56537D01*
X28047Y-56520D01*
X27960Y-56504D01*
X27882Y-56489D01*
X27825Y-56478D01*
X27800Y-56473D01*
X27794Y-56469D01*
X27788Y-56457D01*
X27785Y-56430D01*
X27783Y-56383D01*
X27782Y-56308D01*
X27782Y-56199D01*
X27782Y-56187D01*
X27783Y-56084D01*
X27785Y-56001D01*
X27788Y-55947D01*
X27791Y-55926D01*
X27792Y-55926D01*
X27816Y-55920D01*
X27871Y-55908D01*
X27950Y-55893D01*
X28043Y-55875D01*
X28049Y-55874D01*
X28142Y-55856D01*
X28220Y-55840D01*
X28275Y-55827D01*
X28298Y-55820D01*
X28303Y-55813D01*
X28321Y-55777D01*
X28348Y-55719D01*
X28379Y-55649D01*
X28409Y-55576D01*
X28436Y-55510D01*
X28453Y-55461D01*
X28459Y-55439D01*
X28458Y-55438D01*
X28444Y-55416D01*
X28412Y-55368D01*
X28367Y-55301D01*
X28313Y-55221D01*
X28309Y-55215D01*
X28255Y-55137D01*
X28212Y-55070D01*
X28183Y-55023D01*
X28172Y-55001D01*
X28172Y-55000D01*
X28190Y-54976D01*
X28230Y-54932D01*
X28287Y-54872D01*
X28356Y-54802D01*
X28378Y-54781D01*
X28455Y-54706D01*
X28508Y-54657D01*
X28541Y-54631D01*
X28557Y-54625D01*
X28557Y-54626D01*
X28581Y-54640D01*
X28631Y-54672D01*
X28698Y-54718D01*
X28778Y-54772D01*
X28784Y-54776D01*
X28862Y-54830D01*
X28928Y-54874D01*
X28974Y-54905D01*
X28995Y-54917D01*
X28998Y-54917D01*
X29030Y-54908D01*
X29086Y-54888D01*
X29155Y-54861D01*
X29228Y-54832D01*
X29294Y-54804D01*
X29344Y-54782D01*
X29367Y-54768D01*
X29368Y-54767D01*
X29376Y-54739D01*
X29390Y-54680D01*
X29406Y-54599D01*
X29425Y-54503D01*
X29428Y-54487D01*
X29445Y-54393D01*
X29460Y-54316D01*
X29471Y-54262D01*
X29477Y-54240D01*
X29490Y-54237D01*
X29536Y-54234D01*
X29606Y-54232D01*
X29691Y-54231D01*
X29780Y-54232D01*
X29867Y-54234D01*
X29941Y-54236D01*
X29994Y-54240D01*
X30016Y-54244D01*
X30017Y-54246D01*
X30025Y-54275D01*
X30038Y-54334D01*
X30055Y-54415D01*
X30073Y-54512D01*
X30077Y-54529D01*
X30094Y-54622D01*
X30110Y-54699D01*
X30121Y-54752D01*
X30127Y-54773D01*
X30136Y-54777D01*
X30174Y-54794D01*
X30237Y-54820D01*
X30315Y-54851D01*
X30495Y-54924D01*
X30716Y-54773D01*
X30736Y-54759D01*
X30816Y-54705D01*
X30881Y-54662D01*
X30926Y-54632D01*
X30945Y-54622D01*
X30947Y-54622D01*
X30969Y-54642D01*
X31012Y-54683D01*
X31072Y-54741D01*
X31142Y-54810D01*
X31193Y-54862D01*
X31254Y-54924D01*
X31293Y-54965D01*
X31314Y-54992D01*
X31321Y-55008D01*
X31319Y-55019D01*
X31305Y-55042D01*
X31273Y-55090D01*
X31227Y-55157D01*
X31173Y-55235D01*
X31129Y-55301D01*
X31081Y-55375D01*
X31050Y-55428D01*
X31039Y-55454D01*
X31042Y-55464D01*
X31057Y-55508D01*
X31084Y-55573D01*
X31117Y-55651D01*
X31194Y-55826D01*
X31308Y-55848D01*
X31378Y-55861D01*
X31475Y-55880D01*
X31568Y-55898D01*
X31713Y-55926D01*
X31718Y-56459D01*
X31696Y-56469D01*
X31674Y-56475D01*
X31620Y-56487D01*
X31544Y-56502D01*
X31453Y-56519D01*
X31376Y-56533D01*
X31298Y-56548D01*
X31242Y-56559D01*
X31218Y-56564D01*
X31211Y-56573D01*
X31192Y-56610D01*
X31164Y-56670D01*
X31133Y-56742D01*
X31102Y-56817D01*
X31075Y-56886D01*
X31056Y-56938D01*
X31048Y-56965D01*
X31059Y-56986D01*
X31088Y-57032D01*
X31131Y-57097D01*
X31184Y-57174D01*
X31237Y-57251D01*
X31282Y-57317D01*
X31313Y-57365D01*
X31326Y-57387D01*
X31319Y-57401D01*
X31288Y-57439D01*
X31230Y-57499D01*
X31143Y-57585D01*
X31129Y-57599D01*
X31060Y-57665D01*
X31002Y-57719D01*
X30961Y-57755D01*
X30943Y-57768D01*
X30943Y-57768D01*
G37*
G54D12*
X50500Y-55000D03*
X50500Y-57000D03*
X53500Y-57000D03*
X53500Y-55000D03*
X55500Y-55000D03*
X55500Y-57000D03*
X58500Y-57000D03*
X58500Y-55000D03*
X30000Y-21000D03*
X28000Y-21000D03*
X28000Y-24000D03*
X30000Y-24000D03*
G54D13*
X26000Y-24000D03*
G54D12*
X26000Y-25000D03*
X26000Y-26000D03*
X26000Y-27000D03*
X26000Y-28000D03*
X26000Y-29000D03*
G54D13*
X50000Y-34500D03*
G54D12*
X50000Y-33500D03*
X50000Y-32500D03*
X50000Y-31500D03*
X50000Y-30500D03*
G54D13*
X34500Y-47000D03*
G54D12*
X33500Y-47000D03*
X32500Y-47000D03*
G54D13*
X45500Y-47000D03*
G54D12*
X44500Y-47000D03*
X43500Y-47000D03*
G54D13*
X44500Y-57000D03*
G54D12*
X43500Y-57000D03*
X42500Y-57000D03*
G54D13*
X33500Y-57000D03*
G54D12*
X34500Y-57000D03*
X35500Y-57000D03*
G54D13*
X48000Y-25500D03*
G54D12*
X48000Y-26500D03*
X48000Y-27500D03*
X54500Y-53500D03*
X50500Y-53500D03*
X59500Y-53500D03*
X55500Y-53500D03*
X40000Y-44500D03*
X41000Y-44500D03*
X55000Y-30500D03*
X56000Y-30500D03*
X40000Y-38500D03*
X41000Y-38500D03*
X40000Y-40500D03*
X41000Y-40500D03*
X40000Y-42500D03*
X41000Y-42500D03*
G54D14*
X40000Y-35500D03*
X40000Y-33500D03*
G54D13*
X37500Y-49500D03*
G54D12*
X37500Y-50500D03*
X37500Y-51500D03*
X37500Y-52500D03*
X37500Y-53500D03*
X37500Y-54500D03*
X37500Y-55500D03*
X37500Y-56500D03*
X40500Y-56500D03*
X40500Y-55500D03*
X40500Y-54500D03*
X40500Y-53500D03*
X40500Y-52500D03*
X40500Y-51500D03*
X40500Y-50500D03*
X40500Y-49500D03*
X40000Y-32000D03*
X42000Y-32000D03*
X31250Y-47000D03*
X31250Y-49000D03*
X28000Y-25000D03*
X30000Y-25000D03*
X48000Y-50200D03*
X48000Y-52200D03*
X30500Y-36500D03*
X30500Y-34500D03*
X57500Y-51500D03*
X55500Y-51500D03*
X52500Y-51500D03*
X50500Y-51500D03*
X51500Y-30500D03*
X53500Y-30500D03*
G54D13*
X48000Y-48000D03*
G54D12*
X48000Y-49000D03*
G54D13*
X30750Y-51500D03*
G54D12*
X30750Y-50500D03*
G54D13*
X50000Y-26000D03*
G54D12*
X50000Y-25000D03*
G54D13*
X57500Y-27500D03*
G54D12*
X57500Y-28500D03*
G54D13*
X50000Y-27500D03*
G54D12*
X50000Y-28500D03*
G54D13*
X55000Y-27500D03*
G54D12*
X55000Y-28500D03*
G54D13*
X52500Y-27500D03*
G54D12*
X52500Y-28500D03*
X43000Y-33500D03*
X42000Y-33500D03*
X43000Y-35500D03*
X42000Y-35500D03*
G54D15*
X57000Y-23941D03*
X57000Y-21579D03*
X55150Y-22760D03*
G54D12*
X26000Y-54500D03*
X26000Y-53500D03*
X26000Y-52500D03*
X26000Y-51500D03*
X26000Y-50500D03*
X26000Y-49500D03*
X26000Y-48500D03*
G54D13*
X26000Y-47500D03*
X26000Y-47500D03*
G54D12*
X26000Y-48500D03*
X26000Y-49500D03*
X26000Y-50500D03*
X26000Y-51500D03*
X26000Y-52500D03*
X26000Y-53500D03*
X26000Y-54500D03*
X27000Y-54500D03*
X27000Y-53500D03*
X27000Y-52500D03*
X27000Y-51500D03*
X27000Y-50500D03*
X27000Y-49500D03*
X27000Y-48500D03*
G54D13*
X27000Y-47500D03*
X25000Y-47500D03*
X27000Y-47500D03*
G54D12*
X25000Y-48500D03*
X27000Y-48500D03*
X25000Y-49500D03*
X27000Y-49500D03*
X25000Y-50500D03*
X27000Y-50500D03*
X25000Y-51500D03*
X27000Y-51500D03*
X25000Y-52500D03*
X27000Y-52500D03*
X25000Y-53500D03*
X27000Y-53500D03*
X25000Y-54500D03*
X27000Y-54500D03*
G54D13*
X51000Y-48500D03*
G54D12*
X52000Y-48500D03*
X53000Y-48500D03*
X54000Y-48500D03*
X55000Y-48500D03*
X56000Y-48500D03*
X57000Y-48500D03*
X58000Y-48500D03*
X59000Y-48500D03*
X60000Y-48500D03*
X61000Y-48500D03*
X62000Y-48500D03*
G54D13*
X51000Y-49500D03*
G54D12*
X52000Y-49500D03*
X53000Y-49500D03*
X54000Y-49500D03*
X55000Y-49500D03*
X56000Y-49500D03*
X57000Y-49500D03*
X58000Y-49500D03*
X59000Y-49500D03*
X60000Y-49500D03*
X61000Y-49500D03*
X62000Y-49500D03*
X47000Y-28500D03*
X47000Y-29500D03*
X47000Y-30500D03*
X47000Y-31500D03*
X47000Y-32500D03*
X47000Y-33500D03*
X47000Y-34500D03*
G54D13*
X47000Y-35500D03*
X47000Y-35500D03*
G54D12*
X47000Y-34500D03*
X47000Y-33500D03*
X47000Y-32500D03*
X47000Y-31500D03*
X47000Y-30500D03*
X47000Y-29500D03*
X47000Y-28500D03*
X46000Y-28500D03*
X46000Y-29500D03*
X46000Y-30500D03*
X46000Y-31500D03*
X46000Y-32500D03*
X46000Y-33500D03*
X46000Y-34500D03*
G54D13*
X46000Y-35500D03*
X48000Y-35500D03*
X46000Y-35500D03*
G54D12*
X48000Y-34500D03*
X46000Y-34500D03*
X48000Y-33500D03*
X46000Y-33500D03*
X48000Y-32500D03*
X46000Y-32500D03*
X48000Y-31500D03*
X46000Y-31500D03*
X48000Y-30500D03*
X46000Y-30500D03*
X48000Y-29500D03*
X46000Y-29500D03*
X48000Y-28500D03*
X46000Y-28500D03*
X47000Y-37500D03*
X47000Y-38500D03*
X47000Y-39500D03*
X47000Y-40500D03*
X47000Y-41500D03*
X47000Y-42500D03*
X47000Y-43500D03*
G54D13*
X47000Y-44500D03*
X47000Y-44500D03*
G54D12*
X47000Y-43500D03*
X47000Y-42500D03*
X47000Y-41500D03*
X47000Y-40500D03*
X47000Y-39500D03*
X47000Y-38500D03*
X47000Y-37500D03*
X46000Y-37500D03*
X46000Y-38500D03*
X46000Y-39500D03*
X46000Y-40500D03*
X46000Y-41500D03*
X46000Y-42500D03*
X46000Y-43500D03*
G54D13*
X46000Y-44500D03*
X48000Y-44500D03*
X46000Y-44500D03*
G54D12*
X48000Y-43500D03*
X46000Y-43500D03*
X48000Y-42500D03*
X46000Y-42500D03*
X48000Y-41500D03*
X46000Y-41500D03*
X48000Y-40500D03*
X46000Y-40500D03*
X48000Y-39500D03*
X46000Y-39500D03*
X48000Y-38500D03*
X46000Y-38500D03*
X48000Y-37500D03*
X46000Y-37500D03*
G54D13*
X26000Y-32500D03*
G54D12*
X26000Y-33500D03*
X26000Y-34500D03*
X26000Y-35500D03*
X26000Y-36500D03*
X26000Y-37500D03*
X27000Y-37500D03*
X27000Y-36500D03*
X27000Y-35500D03*
X27000Y-34500D03*
X27000Y-33500D03*
G54D13*
X27000Y-32500D03*
X25000Y-32500D03*
X27000Y-32500D03*
G54D12*
X25000Y-33500D03*
X27000Y-33500D03*
X25000Y-34500D03*
X27000Y-34500D03*
X25000Y-35500D03*
X27000Y-35500D03*
X25000Y-36500D03*
X27000Y-36500D03*
X25000Y-37500D03*
X27000Y-37500D03*
G54D13*
X26000Y-39500D03*
G54D12*
X26000Y-40500D03*
X26000Y-41500D03*
X26000Y-42500D03*
X26000Y-43500D03*
X26000Y-44500D03*
X27000Y-44500D03*
X27000Y-43500D03*
X27000Y-42500D03*
X27000Y-41500D03*
X27000Y-40500D03*
G54D13*
X27000Y-39500D03*
X25000Y-39500D03*
X27000Y-39500D03*
G54D12*
X25000Y-40500D03*
X27000Y-40500D03*
X25000Y-41500D03*
X27000Y-41500D03*
X25000Y-42500D03*
X27000Y-42500D03*
X25000Y-43500D03*
X27000Y-43500D03*
X25000Y-44500D03*
X27000Y-44500D03*
G54D16*
X60000Y-25500D03*
G54D17*
X60000Y-26500D03*
G54D16*
X60000Y-27500D03*
X35500Y-48500D03*
G54D17*
X35500Y-52500D03*
G54D16*
X45500Y-50500D03*
G54D17*
X45500Y-54500D03*
G54D16*
X42500Y-48500D03*
G54D17*
X42500Y-52500D03*
G54D16*
X44500Y-54500D03*
G54D17*
X44500Y-50500D03*
G54D16*
X43500Y-52500D03*
G54D17*
X43500Y-48500D03*
G54D16*
X32500Y-50500D03*
G54D17*
X32500Y-54500D03*
G54D16*
X33500Y-54500D03*
G54D17*
X33500Y-50500D03*
G54D16*
X34500Y-52500D03*
G54D17*
X34500Y-48500D03*
G54D16*
X54000Y-25500D03*
G54D17*
X58000Y-25500D03*
G54D13*
X43000Y-34500D03*
G54D18*
X26000Y-21500D03*
X61000Y-21500D03*
X26000Y-56500D03*
X61000Y-56500D03*
G54D19*
X31500Y-25500D03*
G54D20*
X31500Y-26500D03*
X31500Y-27500D03*
X31500Y-28500D03*
X31500Y-29500D03*
X31500Y-30500D03*
X31500Y-31500D03*
X31500Y-32500D03*
X31500Y-33500D03*
X31500Y-34500D03*
X31500Y-35500D03*
X31500Y-36500D03*
X31500Y-37500D03*
X31500Y-38500D03*
X31500Y-39500D03*
X31500Y-40500D03*
X31500Y-41500D03*
X31500Y-42500D03*
X31500Y-43500D03*
X31500Y-44500D03*
X37500Y-44500D03*
X37500Y-43500D03*
X37500Y-42500D03*
X37500Y-41500D03*
X37500Y-40500D03*
X37500Y-39500D03*
X37500Y-38500D03*
X37500Y-37500D03*
X37500Y-36500D03*
X37500Y-35500D03*
X37500Y-34500D03*
X37500Y-33500D03*
X37500Y-32500D03*
X37500Y-31500D03*
X37500Y-30500D03*
X37500Y-29500D03*
X37500Y-28500D03*
X37500Y-27500D03*
X37500Y-26500D03*
X37500Y-25500D03*
G54D21*
X34122Y-22023D03*
X35106Y-22023D03*
X35893Y-22023D03*
X36877Y-22023D03*
G54D22*
X37803Y-21000D03*
X33196Y-21000D03*
G54D23*
X36385Y-21000D03*
X34614Y-21000D03*
G54D20*
X42000Y-44500D03*
X42000Y-41500D03*
X43000Y-40500D03*
X43000Y-37500D03*
X42000Y-40500D03*
X42000Y-37500D03*
X43000Y-44500D03*
X43000Y-41500D03*
X29000Y-26000D03*
X29000Y-29000D03*
X30000Y-29000D03*
X30000Y-26000D03*
X28000Y-26000D03*
X28000Y-29000D03*
X57000Y-30500D03*
X60000Y-30500D03*
G54D19*
X41000Y-22500D03*
G54D20*
X41000Y-23500D03*
X41000Y-24500D03*
G54D19*
X40000Y-22500D03*
G54D20*
X40000Y-23500D03*
X40000Y-24500D03*
X53000Y-23500D03*
X50000Y-23500D03*
X53000Y-21500D03*
X50000Y-21500D03*
G54D24*
X49000Y-21500D03*
X48000Y-21500D03*
X49000Y-23500D03*
X48000Y-23500D03*
G54D20*
X43500Y-21500D03*
X45500Y-21500D03*
G54D12*
X57000Y-46500D03*
X57000Y-45500D03*
X57000Y-44500D03*
X57000Y-43500D03*
X57000Y-42500D03*
X57000Y-41500D03*
X57000Y-40500D03*
X57000Y-39500D03*
X57000Y-38500D03*
X57000Y-37500D03*
X57000Y-36500D03*
X57000Y-35500D03*
X58000Y-46500D03*
X58000Y-45500D03*
X58000Y-44500D03*
X58000Y-43500D03*
X58000Y-42500D03*
X58000Y-41500D03*
X58000Y-40500D03*
X58000Y-39500D03*
X58000Y-38500D03*
X58000Y-37500D03*
X58000Y-36500D03*
X58000Y-35500D03*
X62000Y-46500D03*
X62000Y-45500D03*
X62000Y-44500D03*
X62000Y-43500D03*
X62000Y-42500D03*
X62000Y-41500D03*
X62000Y-40500D03*
X62000Y-39500D03*
X62000Y-38500D03*
X62000Y-37500D03*
X62000Y-36500D03*
X62000Y-35500D03*
X59000Y-46500D03*
X59000Y-45500D03*
X59000Y-44500D03*
X59000Y-43500D03*
X59000Y-42500D03*
X59000Y-41500D03*
X59000Y-40500D03*
X59000Y-39500D03*
X59000Y-38500D03*
X59000Y-37500D03*
X59000Y-36500D03*
X59000Y-35500D03*
X60000Y-46500D03*
X60000Y-45500D03*
X60000Y-44500D03*
X60000Y-43500D03*
X60000Y-42500D03*
X60000Y-41500D03*
X60000Y-40500D03*
X60000Y-39500D03*
X60000Y-38500D03*
X60000Y-37500D03*
X60000Y-36500D03*
X60000Y-35500D03*
X61000Y-46500D03*
X61000Y-45500D03*
X61000Y-44500D03*
X61000Y-43500D03*
X61000Y-42500D03*
X61000Y-41500D03*
X61000Y-40500D03*
X61000Y-39500D03*
X61000Y-38500D03*
X61000Y-37500D03*
X61000Y-36500D03*
X61000Y-35500D03*
X51000Y-46500D03*
X51000Y-45500D03*
X51000Y-44500D03*
X51000Y-43500D03*
X51000Y-42500D03*
X51000Y-41500D03*
X51000Y-40500D03*
X51000Y-39500D03*
X51000Y-38500D03*
X51000Y-37500D03*
X51000Y-36500D03*
X51000Y-35500D03*
X52000Y-46500D03*
X52000Y-45500D03*
X52000Y-44500D03*
X52000Y-43500D03*
X52000Y-42500D03*
X52000Y-41500D03*
X52000Y-40500D03*
X52000Y-39500D03*
X52000Y-38500D03*
X52000Y-37500D03*
X52000Y-36500D03*
X52000Y-35500D03*
X56000Y-46500D03*
X56000Y-45500D03*
X56000Y-44500D03*
X56000Y-43500D03*
X56000Y-42500D03*
X56000Y-41500D03*
X56000Y-40500D03*
X56000Y-39500D03*
X56000Y-38500D03*
X56000Y-37500D03*
X56000Y-36500D03*
X56000Y-35500D03*
X54000Y-46500D03*
X54000Y-45500D03*
X54000Y-44500D03*
X54000Y-43500D03*
X54000Y-42500D03*
X54000Y-41500D03*
X54000Y-40500D03*
X54000Y-39500D03*
X54000Y-38500D03*
X54000Y-37500D03*
X54000Y-36500D03*
X54000Y-35500D03*
X55000Y-46500D03*
X55000Y-45500D03*
X55000Y-44500D03*
X55000Y-43500D03*
X55000Y-42500D03*
X55000Y-41500D03*
X55000Y-40500D03*
X55000Y-39500D03*
X55000Y-38500D03*
X55000Y-37500D03*
X55000Y-36500D03*
X55000Y-35500D03*
X53000Y-46500D03*
X53000Y-45500D03*
X53000Y-44500D03*
X53000Y-43500D03*
X53000Y-42500D03*
X53000Y-41500D03*
X53000Y-40500D03*
X53000Y-39500D03*
X53000Y-38500D03*
X53000Y-37500D03*
X53000Y-36500D03*
X53000Y-35500D03*
G54D25*
X43500Y-25000D03*
X46750Y-23500D03*
X28000Y-50000D03*
X28000Y-42000D03*
X29750Y-45000D03*
X29750Y-38750D03*
X30250Y-44750D03*
X30250Y-38750D03*
X41250Y-25500D03*
X42500Y-23750D03*
X30750Y-46000D03*
X42500Y-23000D03*
X40500Y-26000D03*
X30000Y-47250D03*
X40500Y-46500D03*
X44000Y-43000D03*
X46500Y-24750D03*
X43000Y-27750D03*
X48750Y-24750D03*
X44500Y-25250D03*
X34000Y-40000D03*
X47500Y-36500D03*
X28500Y-29750D03*
X27250Y-28250D03*
X32000Y-48000D03*
X45500Y-26500D03*
G54D26*
X45000Y-23500D02*
X46500Y-23500D01*
X43500Y-25000D02*
X45000Y-23500D01*
X46500Y-23500D02*
X46750Y-23500D01*
X28000Y-42000D02*
X28000Y-50000D01*
X29750Y-45000D02*
X29750Y-38750D01*
X30250Y-38750D02*
X30250Y-44750D01*
X42500Y-24500D02*
X42500Y-23750D01*
X41250Y-25500D02*
X41500Y-25500D01*
X41500Y-25500D02*
X42500Y-24500D01*
X32000Y-46000D02*
X37500Y-40500D01*
X30750Y-46000D02*
X32000Y-46000D01*
X41500Y-24000D02*
X42500Y-23000D01*
X40750Y-24000D02*
X41500Y-24000D01*
X40500Y-24250D02*
X40750Y-24000D01*
X40500Y-26000D02*
X40500Y-24250D01*
X36500Y-40500D02*
X37500Y-39500D01*
X36500Y-41000D02*
X36500Y-40500D01*
X32000Y-45500D02*
X36500Y-41000D01*
X31750Y-45500D02*
X32000Y-45500D01*
X30500Y-45500D02*
X31750Y-45500D01*
X30000Y-46000D02*
X30500Y-45500D01*
X30000Y-47250D02*
X30000Y-46000D01*
X40000Y-33500D02*
X42000Y-33500D01*
X40000Y-33500D02*
X40000Y-33500D01*
X33250Y-37500D02*
X31500Y-37500D01*
X35750Y-35000D02*
X33250Y-37500D01*
X38500Y-35000D02*
X35750Y-35000D01*
X40000Y-33500D02*
X38500Y-35000D01*
X40000Y-35500D02*
X42000Y-35500D01*
X31500Y-38500D02*
X33250Y-38500D01*
X39500Y-36000D02*
X40000Y-35500D01*
X35750Y-36000D02*
X39500Y-36000D01*
X33250Y-38500D02*
X35750Y-36000D01*
X47000Y-35500D02*
X48000Y-35500D01*
X46000Y-35500D02*
X47000Y-35500D01*
X47000Y-34500D02*
X48000Y-34500D01*
X46000Y-34500D02*
X47000Y-34500D01*
X47000Y-33500D02*
X48000Y-33500D01*
X46000Y-33500D02*
X47000Y-33500D01*
X47000Y-32500D02*
X46000Y-32500D01*
X48000Y-32500D02*
X47000Y-32500D01*
X47000Y-31500D02*
X48000Y-31500D01*
X46000Y-31500D02*
X47000Y-31500D01*
X47000Y-30500D02*
X46000Y-30500D01*
X48000Y-30500D02*
X47250Y-30500D01*
X47250Y-30500D02*
X47000Y-30500D01*
X36750Y-25750D02*
X33750Y-25750D01*
X33750Y-25750D02*
X31750Y-23750D01*
X36750Y-25750D02*
X37500Y-26500D01*
X26000Y-28000D02*
X27000Y-27000D01*
X27000Y-23500D02*
X27000Y-27000D01*
X27500Y-23000D02*
X27000Y-23500D01*
X31000Y-23000D02*
X27500Y-23000D01*
X31750Y-23750D02*
X31000Y-23000D01*
X47000Y-29500D02*
X48000Y-29500D01*
X46000Y-29500D02*
X47000Y-29500D01*
X32000Y-23250D02*
X34000Y-25250D01*
X26250Y-27000D02*
X26750Y-26500D01*
X26750Y-26500D02*
X26750Y-23250D01*
X26750Y-23250D02*
X27500Y-22500D01*
X27500Y-22500D02*
X31250Y-22500D01*
X31250Y-22500D02*
X32000Y-23250D01*
X26000Y-27000D02*
X26250Y-27000D01*
X37250Y-25250D02*
X37500Y-25500D01*
X34000Y-25250D02*
X37250Y-25250D01*
X47000Y-28500D02*
X48000Y-28500D01*
X46000Y-28500D02*
X47000Y-28500D01*
X50500Y-51500D02*
X49000Y-50000D01*
X49000Y-41500D02*
X48000Y-40500D01*
X49000Y-50000D02*
X49000Y-41500D01*
X50500Y-51500D02*
X50500Y-53500D01*
X50500Y-55000D02*
X50500Y-53500D01*
X50500Y-55000D02*
X53500Y-55000D01*
X48000Y-40500D02*
X47000Y-40500D01*
X47000Y-40500D02*
X46000Y-40500D01*
X48000Y-39500D02*
X48500Y-39500D01*
X54500Y-50500D02*
X55500Y-51500D01*
X50000Y-50500D02*
X54500Y-50500D01*
X49500Y-50000D02*
X50000Y-50500D01*
X49500Y-40500D02*
X49500Y-50000D01*
X48500Y-39500D02*
X49500Y-40500D01*
X55500Y-53500D02*
X55500Y-51500D01*
X55500Y-53500D02*
X55500Y-55000D01*
X55500Y-55000D02*
X58500Y-55000D01*
X47000Y-39500D02*
X48000Y-39500D01*
X46000Y-39500D02*
X47000Y-39500D01*
X48000Y-38500D02*
X47000Y-38500D01*
X47000Y-38500D02*
X46000Y-38500D01*
X46000Y-37500D02*
X47000Y-37500D01*
X47000Y-37500D02*
X48000Y-37500D01*
X28000Y-26000D02*
X28000Y-26750D01*
X26750Y-32250D02*
X27000Y-32500D01*
X26750Y-28000D02*
X26750Y-32250D01*
X28000Y-26750D02*
X26750Y-28000D01*
X25000Y-32500D02*
X26000Y-32500D01*
X26000Y-32500D02*
X27000Y-32500D01*
G54D27*
X45500Y-21500D02*
X46500Y-21500D01*
X47250Y-24000D02*
X46500Y-24750D01*
X47250Y-22250D02*
X47250Y-24000D01*
X46500Y-21500D02*
X47250Y-22250D01*
X42000Y-28750D02*
X42000Y-32000D01*
X42000Y-28750D02*
X43000Y-27750D01*
X46500Y-24750D02*
X47250Y-24750D01*
X48750Y-24750D02*
X47250Y-24750D01*
X36877Y-22023D02*
X36877Y-21925D01*
X36877Y-21925D02*
X37803Y-21000D01*
X45500Y-21500D02*
X44750Y-20750D01*
X44750Y-20750D02*
X38053Y-20750D01*
X38053Y-20750D02*
X37803Y-21000D01*
X60000Y-26500D02*
X59500Y-26500D01*
X58750Y-27250D02*
X58750Y-28500D01*
X59500Y-26500D02*
X58750Y-27250D01*
X60000Y-30500D02*
X60000Y-29750D01*
X60000Y-29750D02*
X58750Y-28500D01*
X58750Y-28500D02*
X57500Y-28500D01*
X53500Y-30500D02*
X54250Y-29750D01*
X56250Y-29750D02*
X57500Y-28500D01*
X56000Y-29750D02*
X56250Y-29750D01*
X54250Y-29750D02*
X56000Y-29750D01*
G54D26*
X60000Y-26500D02*
X60250Y-26500D01*
G54D27*
X60000Y-26500D02*
X60500Y-26500D01*
X58329Y-21579D02*
X57000Y-21579D01*
X61250Y-24500D02*
X58329Y-21579D01*
X61250Y-25750D02*
X61250Y-24500D01*
X60500Y-26500D02*
X61250Y-25750D01*
X55150Y-22760D02*
X55819Y-22760D01*
X55819Y-22760D02*
X57000Y-21579D01*
X50000Y-25000D02*
X52910Y-25000D01*
X52910Y-25000D02*
X55150Y-22760D01*
X38000Y-34500D02*
X39750Y-32750D01*
X37500Y-34500D02*
X38000Y-34500D01*
X41250Y-32750D02*
X42000Y-32000D01*
X39750Y-32750D02*
X41250Y-32750D01*
X42500Y-32000D02*
X42000Y-32000D01*
X43000Y-33500D02*
X43000Y-32500D01*
X43000Y-32500D02*
X42500Y-32000D01*
X44000Y-40500D02*
X44000Y-43000D01*
X44000Y-43000D02*
X44000Y-45000D01*
X39000Y-48000D02*
X39000Y-52500D01*
X41500Y-45500D02*
X40500Y-46500D01*
X40500Y-46500D02*
X39000Y-48000D01*
X43500Y-45500D02*
X41500Y-45500D01*
X44000Y-45000D02*
X43500Y-45500D01*
X43000Y-37500D02*
X44000Y-38500D01*
X44000Y-40500D02*
X43000Y-41500D01*
X44000Y-38500D02*
X44000Y-40500D01*
X43000Y-35500D02*
X43000Y-37500D01*
G54D26*
X30000Y-29000D02*
X30000Y-27000D01*
X30500Y-25500D02*
X30000Y-25000D01*
X30500Y-26500D02*
X30500Y-25500D01*
X30000Y-27000D02*
X30500Y-26500D01*
X30000Y-29250D02*
X30000Y-29000D01*
X29500Y-29750D02*
X30000Y-29250D01*
X28500Y-29750D02*
X29500Y-29750D01*
X43000Y-41500D02*
X43250Y-41500D01*
X42000Y-41500D02*
X43000Y-41500D01*
X42000Y-37500D02*
X43000Y-37500D01*
G54D27*
X43000Y-33500D02*
X43000Y-34500D01*
X43000Y-34500D02*
X43000Y-35500D01*
X31500Y-36500D02*
X33500Y-36500D01*
X35500Y-34500D02*
X37500Y-34500D01*
X33500Y-36500D02*
X35500Y-34500D01*
X31500Y-36500D02*
X30500Y-36500D01*
X25000Y-36500D02*
X26000Y-36500D01*
X26000Y-36500D02*
X27000Y-36500D01*
X27000Y-36500D02*
X30500Y-36500D01*
G54D26*
X55500Y-57000D02*
X55000Y-57000D01*
X55000Y-57000D02*
X53500Y-57000D01*
X48000Y-50200D02*
X49500Y-51700D01*
X49500Y-56000D02*
X50500Y-57000D01*
X49500Y-51700D02*
X49500Y-56000D01*
G54D27*
X45500Y-50500D02*
X45500Y-51000D01*
X44750Y-51750D02*
X41250Y-51750D01*
X45500Y-51000D02*
X44750Y-51750D01*
X42500Y-48500D02*
X42500Y-50500D01*
X42500Y-50500D02*
X41250Y-51750D01*
X41250Y-51750D02*
X40500Y-52500D01*
X40500Y-52500D02*
X40500Y-53500D01*
X37500Y-53500D02*
X37500Y-52500D01*
X36500Y-51500D02*
X33000Y-51500D01*
X32500Y-51000D02*
X33000Y-51500D01*
X32500Y-51000D02*
X32500Y-50500D01*
X35500Y-48500D02*
X35500Y-50500D01*
X35500Y-50500D02*
X36500Y-51500D01*
X36500Y-51500D02*
X37500Y-52500D01*
X37500Y-53500D02*
X40500Y-53500D01*
X37500Y-52500D02*
X39000Y-52500D01*
X39000Y-52500D02*
X40500Y-52500D01*
G54D26*
X53500Y-57000D02*
X50500Y-57000D01*
X58500Y-57000D02*
X55500Y-57000D01*
X27000Y-36500D02*
X30500Y-36500D01*
X27000Y-36500D02*
X27000Y-35500D01*
X26000Y-36500D02*
X27000Y-36500D01*
X26000Y-36500D02*
X26000Y-35500D01*
X25000Y-36500D02*
X25000Y-35500D01*
X26000Y-35500D02*
X27000Y-35500D01*
X25000Y-35500D02*
X26000Y-35500D01*
X41000Y-38500D02*
X42250Y-38500D01*
X43000Y-39250D02*
X43000Y-40500D01*
X42250Y-38500D02*
X43000Y-39250D01*
G54D27*
X56000Y-39500D02*
X56000Y-38500D01*
X56000Y-38500D02*
X56000Y-37500D01*
X56000Y-37500D02*
X56000Y-36500D01*
X56000Y-36500D02*
X56000Y-35500D01*
X56000Y-46500D02*
X56000Y-45500D01*
X56000Y-45500D02*
X56000Y-44500D01*
X56000Y-44500D02*
X56000Y-43500D01*
X56000Y-43500D02*
X56000Y-42500D01*
X57000Y-42500D02*
X57000Y-43500D01*
X57000Y-43500D02*
X57000Y-44500D01*
X57000Y-44500D02*
X57000Y-45500D01*
X57000Y-45500D02*
X57000Y-46500D01*
X57000Y-35500D02*
X57000Y-36500D01*
X57000Y-36500D02*
X57000Y-37500D01*
X57000Y-37500D02*
X57000Y-38500D01*
X57000Y-38500D02*
X57000Y-39500D01*
X62000Y-41500D02*
X61000Y-41500D01*
X61000Y-41500D02*
X60000Y-41500D01*
X60000Y-41500D02*
X59000Y-41500D01*
X59000Y-41500D02*
X58000Y-41500D01*
X58000Y-41500D02*
X57000Y-41500D01*
X57000Y-41500D02*
X56000Y-41500D01*
X56000Y-41500D02*
X55000Y-41500D01*
X55000Y-41500D02*
X54000Y-41500D01*
X54000Y-41500D02*
X53000Y-41500D01*
X53000Y-41500D02*
X52000Y-41500D01*
X52000Y-41500D02*
X51000Y-41500D01*
X55000Y-42500D02*
X55000Y-43500D01*
X55000Y-43500D02*
X55000Y-44500D01*
X55000Y-44500D02*
X55000Y-45500D01*
X55000Y-45500D02*
X55000Y-46500D01*
X51000Y-40500D02*
X52000Y-40500D01*
X52000Y-40500D02*
X53000Y-40500D01*
X53000Y-40500D02*
X54000Y-40500D01*
X54000Y-40500D02*
X55000Y-40500D01*
X55000Y-40500D02*
X56000Y-40500D01*
X56000Y-40500D02*
X57000Y-40500D01*
X57000Y-40500D02*
X58000Y-40500D01*
X58000Y-40500D02*
X59000Y-40500D01*
X59000Y-40500D02*
X60000Y-40500D01*
X60000Y-40500D02*
X61000Y-40500D01*
X61000Y-40500D02*
X62000Y-40500D01*
X54000Y-39500D02*
X54000Y-38500D01*
X54000Y-38500D02*
X54000Y-37500D01*
X54000Y-37500D02*
X54000Y-36500D01*
X54000Y-36500D02*
X54000Y-35500D01*
X55000Y-35500D02*
X55000Y-36500D01*
X55000Y-36500D02*
X55000Y-37500D01*
X55000Y-37500D02*
X55000Y-38500D01*
X55000Y-38500D02*
X55000Y-39500D01*
X59000Y-35500D02*
X59000Y-36500D01*
X59000Y-36500D02*
X59000Y-37500D01*
X59000Y-37500D02*
X59000Y-38500D01*
X59000Y-38500D02*
X59000Y-39500D01*
X60000Y-42500D02*
X60000Y-43500D01*
X60000Y-43500D02*
X60000Y-44500D01*
X60000Y-44500D02*
X60000Y-45500D01*
X60000Y-45500D02*
X60000Y-46500D01*
X60000Y-39500D02*
X60000Y-38500D01*
X60000Y-38500D02*
X60000Y-37500D01*
X60000Y-37500D02*
X60000Y-36500D01*
X60000Y-36500D02*
X60000Y-35500D01*
X61000Y-46500D02*
X61000Y-45500D01*
X61000Y-45500D02*
X61000Y-44500D01*
X61000Y-44500D02*
X61000Y-43500D01*
X61000Y-43500D02*
X61000Y-43000D01*
X61000Y-43000D02*
X61000Y-42500D01*
X58000Y-46500D02*
X58000Y-45500D01*
X58000Y-45500D02*
X58000Y-44500D01*
X58000Y-44500D02*
X58000Y-43500D01*
X58000Y-43500D02*
X58000Y-42500D01*
X58000Y-39500D02*
X58000Y-38500D01*
X58000Y-38500D02*
X58000Y-37500D01*
X58000Y-37500D02*
X58000Y-36500D01*
X58000Y-36500D02*
X58000Y-35500D01*
X59000Y-44500D02*
X59000Y-44000D01*
X59000Y-44000D02*
X59000Y-42500D01*
X59000Y-44500D02*
X59000Y-45500D01*
X59000Y-45500D02*
X59000Y-46500D01*
X52000Y-39500D02*
X52000Y-38500D01*
X52000Y-38500D02*
X52000Y-37500D01*
X52000Y-37500D02*
X52000Y-36500D01*
X52000Y-36500D02*
X52000Y-35500D01*
X53000Y-42500D02*
X53000Y-43500D01*
X53000Y-43500D02*
X53000Y-44500D01*
X53000Y-44500D02*
X53000Y-45500D01*
X53000Y-45500D02*
X53000Y-46500D01*
X53000Y-35500D02*
X53000Y-36500D01*
X53000Y-36500D02*
X53000Y-37500D01*
X53000Y-37500D02*
X53000Y-38500D01*
X53000Y-38500D02*
X53000Y-39500D01*
X54000Y-46500D02*
X54000Y-45000D01*
X54000Y-45000D02*
X54000Y-44500D01*
X54000Y-44500D02*
X54000Y-43500D01*
X54000Y-43500D02*
X54000Y-42500D01*
X51000Y-42500D02*
X51000Y-43500D01*
X51000Y-43500D02*
X51000Y-45000D01*
X51000Y-45000D02*
X51000Y-44500D01*
X51000Y-44500D02*
X51000Y-45500D01*
X51000Y-45500D02*
X51000Y-46500D01*
X51000Y-35500D02*
X51000Y-36500D01*
X51000Y-36500D02*
X51000Y-37500D01*
X51000Y-37500D02*
X51000Y-38500D01*
X51000Y-38500D02*
X51000Y-39500D01*
X52000Y-46500D02*
X52000Y-45500D01*
X52000Y-45500D02*
X52000Y-44500D01*
X52000Y-44500D02*
X52000Y-43500D01*
X52000Y-43500D02*
X52000Y-42500D01*
X61000Y-35500D02*
X61000Y-36500D01*
X61000Y-36500D02*
X61000Y-37500D01*
X61000Y-37500D02*
X61000Y-38500D01*
X61000Y-38500D02*
X61000Y-39500D01*
X62000Y-42500D02*
X62000Y-43500D01*
X62000Y-43500D02*
X62000Y-44500D01*
X62000Y-44500D02*
X62000Y-45500D01*
X62000Y-45500D02*
X62000Y-46500D01*
X62000Y-39500D02*
X62000Y-38500D01*
X62000Y-38500D02*
X62000Y-37500D01*
X62000Y-37500D02*
X62000Y-36500D01*
X62000Y-36500D02*
X62000Y-35500D01*
G54D26*
X56000Y-30500D02*
X57000Y-30500D01*
G54D27*
X54000Y-25500D02*
X54000Y-25000D01*
X55059Y-23941D02*
X57000Y-23941D01*
X54000Y-25000D02*
X55059Y-23941D01*
G54D26*
X33500Y-47000D02*
X33500Y-47500D01*
X37000Y-50000D02*
X37500Y-50500D01*
X37000Y-48250D02*
X37000Y-50000D01*
X36500Y-47750D02*
X37000Y-48250D01*
X33750Y-47750D02*
X36500Y-47750D01*
X33500Y-47500D02*
X33750Y-47750D01*
X34500Y-47000D02*
X36500Y-47000D01*
X37500Y-48000D02*
X37500Y-49500D01*
X36500Y-47000D02*
X37500Y-48000D01*
X40500Y-50500D02*
X41000Y-50000D01*
X43250Y-47000D02*
X43500Y-47000D01*
X43000Y-47250D02*
X43250Y-47000D01*
X41750Y-47250D02*
X43000Y-47250D01*
X41000Y-48000D02*
X41750Y-47250D01*
X41000Y-50000D02*
X41000Y-48000D01*
X44500Y-47000D02*
X44500Y-48500D01*
X45750Y-55500D02*
X40500Y-55500D01*
X46250Y-55000D02*
X45750Y-55500D01*
X46250Y-50250D02*
X46250Y-55000D01*
X44500Y-48500D02*
X46250Y-50250D01*
X32500Y-47000D02*
X32500Y-49250D01*
X32250Y-55500D02*
X37500Y-55500D01*
X31750Y-55000D02*
X32250Y-55500D01*
X31750Y-50000D02*
X31750Y-55000D01*
X32500Y-49250D02*
X31750Y-50000D01*
X40500Y-56500D02*
X41250Y-55750D01*
X45500Y-49000D02*
X45500Y-47000D01*
X46500Y-50000D02*
X45500Y-49000D01*
X46500Y-55250D02*
X46500Y-50000D01*
X46000Y-55750D02*
X46500Y-55250D01*
X41250Y-55750D02*
X46000Y-55750D01*
X35106Y-22023D02*
X35106Y-22606D01*
X36000Y-23500D02*
X40000Y-23500D01*
X35106Y-22606D02*
X36000Y-23500D01*
X35893Y-22023D02*
X35893Y-22393D01*
X40500Y-23000D02*
X41000Y-23500D01*
X36500Y-23000D02*
X40500Y-23000D01*
X35893Y-22393D02*
X36500Y-23000D01*
G54D27*
X39000Y-32000D02*
X39000Y-28500D01*
X40500Y-27000D02*
X46500Y-27000D01*
X39000Y-28500D02*
X40500Y-27000D01*
G54D26*
X53000Y-21500D02*
X53000Y-23500D01*
X48000Y-26500D02*
X48250Y-26500D01*
X52250Y-24250D02*
X53000Y-23500D01*
X49750Y-24250D02*
X52250Y-24250D01*
X49250Y-24750D02*
X49750Y-24250D01*
X49250Y-25500D02*
X49250Y-24750D01*
X48250Y-26500D02*
X49250Y-25500D01*
G54D27*
X48000Y-26500D02*
X49500Y-26500D01*
X49500Y-26500D02*
X50000Y-26000D01*
X40000Y-32000D02*
X39000Y-32000D01*
X39000Y-32000D02*
X38500Y-32500D01*
X37500Y-33500D02*
X38500Y-32500D01*
X35500Y-33500D02*
X37500Y-33500D01*
X33500Y-35500D02*
X35500Y-33500D01*
X45250Y-28500D02*
X45250Y-28250D01*
X45250Y-28250D02*
X46500Y-27000D01*
X45250Y-28500D02*
X45250Y-43500D01*
X45250Y-44750D02*
X45250Y-43500D01*
X46500Y-27000D02*
X47000Y-26500D01*
X47000Y-26500D02*
X48000Y-26500D01*
G54D26*
X27250Y-28250D02*
X27250Y-30000D01*
X28250Y-32250D02*
X30500Y-34500D01*
X28250Y-31000D02*
X28250Y-32250D01*
X27250Y-30000D02*
X28250Y-31000D01*
X27750Y-28250D02*
X29000Y-29000D01*
X27250Y-28250D02*
X27750Y-28250D01*
G54D27*
X31500Y-35500D02*
X32750Y-35500D01*
X32750Y-35500D02*
X33500Y-35500D01*
X30500Y-34500D02*
X31500Y-35500D01*
X30500Y-34500D02*
X26000Y-34500D01*
X26000Y-34500D02*
X25000Y-34500D01*
X40500Y-49500D02*
X40500Y-47750D01*
X45250Y-45750D02*
X45250Y-44750D01*
X44750Y-46250D02*
X45250Y-45750D01*
X43250Y-46250D02*
X44750Y-46250D01*
X42750Y-46750D02*
X43250Y-46250D01*
X41500Y-46750D02*
X42750Y-46750D01*
X40500Y-47750D02*
X41500Y-46750D01*
X46250Y-45750D02*
X46750Y-46250D01*
X45250Y-44750D02*
X46250Y-45750D01*
X48000Y-49000D02*
X47000Y-49000D01*
X46750Y-48750D02*
X47000Y-49000D01*
X46750Y-46250D02*
X46750Y-48750D01*
G54D26*
X26000Y-34500D02*
X25000Y-34500D01*
X27000Y-34500D02*
X26000Y-34500D01*
X30500Y-34500D02*
X27000Y-34500D01*
G54D27*
X57500Y-27500D02*
X56000Y-29000D01*
X52750Y-29250D02*
X51500Y-30500D01*
X55750Y-29250D02*
X52750Y-29250D01*
X56000Y-29000D02*
X55750Y-29250D01*
X50000Y-30500D02*
X51500Y-30500D01*
X57500Y-27500D02*
X57500Y-26000D01*
X57500Y-26000D02*
X58000Y-25500D01*
X58000Y-25500D02*
X60000Y-25500D01*
X29000Y-39500D02*
X27000Y-37500D01*
X29000Y-47000D02*
X29000Y-39500D01*
X30000Y-48000D02*
X29000Y-47000D01*
X31000Y-48000D02*
X30000Y-48000D01*
X32000Y-48000D02*
X31000Y-48000D01*
X25000Y-37500D02*
X26000Y-37500D01*
X26000Y-37500D02*
X27000Y-37500D01*
X34122Y-22023D02*
X34122Y-22872D01*
X40250Y-26500D02*
X45500Y-26500D01*
X37750Y-24000D02*
X40250Y-26500D01*
X35250Y-24000D02*
X37750Y-24000D01*
X34122Y-22872D02*
X35250Y-24000D01*
X48000Y-27500D02*
X50000Y-27500D01*
G54D26*
X34000Y-22129D02*
X33893Y-22023D01*
G54D10*
G36*
X32100Y-49084D02*
X31467Y-49717D01*
X31380Y-49846D01*
X31375Y-49872D01*
X31350Y-50000D01*
X31350Y-50940D01*
X31279Y-50869D01*
X31146Y-50815D01*
X31003Y-50814D01*
X30353Y-50814D01*
X30221Y-50869D01*
X30119Y-50970D01*
X30065Y-51103D01*
X30064Y-51246D01*
X30064Y-51896D01*
X30119Y-52028D01*
X30220Y-52130D01*
X30353Y-52184D01*
X30496Y-52185D01*
X31146Y-52185D01*
X31278Y-52130D01*
X31350Y-52059D01*
X31350Y-53380D01*
X27685Y-53380D01*
X27685Y-53364D01*
X27581Y-53112D01*
X27468Y-52999D01*
X27580Y-52888D01*
X27684Y-52636D01*
X27685Y-52364D01*
X27581Y-52112D01*
X27468Y-51999D01*
X27580Y-51888D01*
X27684Y-51636D01*
X27685Y-51364D01*
X27581Y-51112D01*
X27468Y-50999D01*
X27580Y-50888D01*
X27684Y-50636D01*
X27685Y-50441D01*
X27696Y-50453D01*
X27893Y-50534D01*
X28105Y-50535D01*
X28302Y-50453D01*
X28453Y-50303D01*
X28534Y-50106D01*
X28535Y-49894D01*
X28453Y-49697D01*
X28400Y-49643D01*
X28400Y-42356D01*
X28453Y-42303D01*
X28490Y-42215D01*
X28490Y-47000D01*
X28528Y-47195D01*
X28639Y-47360D01*
X29639Y-48360D01*
X29804Y-48471D01*
X29804Y-48471D01*
X30000Y-48510D01*
X31000Y-48510D01*
X31833Y-48510D01*
X31893Y-48534D01*
X32100Y-48535D01*
X32100Y-49084D01*
X32100Y-49084D01*
G37*
G54D28*
X32100Y-49084D02*
X31467Y-49717D01*
X31380Y-49846D01*
X31375Y-49872D01*
X31350Y-50000D01*
X31350Y-50940D01*
X31279Y-50869D01*
X31146Y-50815D01*
X31003Y-50814D01*
X30353Y-50814D01*
X30221Y-50869D01*
X30119Y-50970D01*
X30065Y-51103D01*
X30064Y-51246D01*
X30064Y-51896D01*
X30119Y-52028D01*
X30220Y-52130D01*
X30353Y-52184D01*
X30496Y-52185D01*
X31146Y-52185D01*
X31278Y-52130D01*
X31350Y-52059D01*
X31350Y-53380D01*
X27685Y-53380D01*
X27685Y-53364D01*
X27581Y-53112D01*
X27468Y-52999D01*
X27580Y-52888D01*
X27684Y-52636D01*
X27685Y-52364D01*
X27581Y-52112D01*
X27468Y-51999D01*
X27580Y-51888D01*
X27684Y-51636D01*
X27685Y-51364D01*
X27581Y-51112D01*
X27468Y-50999D01*
X27580Y-50888D01*
X27684Y-50636D01*
X27685Y-50441D01*
X27696Y-50453D01*
X27893Y-50534D01*
X28105Y-50535D01*
X28302Y-50453D01*
X28453Y-50303D01*
X28534Y-50106D01*
X28535Y-49894D01*
X28453Y-49697D01*
X28400Y-49643D01*
X28400Y-42356D01*
X28453Y-42303D01*
X28490Y-42215D01*
X28490Y-47000D01*
X28528Y-47195D01*
X28639Y-47360D01*
X29639Y-48360D01*
X29804Y-48471D01*
X29804Y-48471D01*
X30000Y-48510D01*
X31000Y-48510D01*
X31833Y-48510D01*
X31893Y-48534D01*
X32100Y-48535D01*
X32100Y-49084D01*
G54D10*
G36*
X37101Y-32000D02*
X36961Y-32139D01*
X36865Y-32373D01*
X36864Y-32625D01*
X36961Y-32859D01*
X37091Y-32990D01*
X35500Y-32990D01*
X35304Y-33028D01*
X35139Y-33139D01*
X35139Y-33139D01*
X35139Y-33139D01*
X33288Y-34990D01*
X32750Y-34990D01*
X31907Y-34990D01*
X32038Y-34860D01*
X32134Y-34626D01*
X32135Y-34374D01*
X32038Y-34140D01*
X31898Y-33999D01*
X32038Y-33860D01*
X32134Y-33626D01*
X32135Y-33374D01*
X32038Y-33140D01*
X31898Y-32999D01*
X32038Y-32860D01*
X32134Y-32626D01*
X32135Y-32374D01*
X32038Y-32140D01*
X31898Y-31999D01*
X32038Y-31860D01*
X32134Y-31626D01*
X32135Y-31374D01*
X32038Y-31140D01*
X31898Y-30999D01*
X32038Y-30860D01*
X32134Y-30626D01*
X32135Y-30374D01*
X32038Y-30140D01*
X31898Y-29999D01*
X32038Y-29860D01*
X32134Y-29626D01*
X32135Y-29374D01*
X32038Y-29140D01*
X31898Y-28999D01*
X32038Y-28860D01*
X32134Y-28626D01*
X32135Y-28374D01*
X32038Y-28140D01*
X31898Y-27999D01*
X32038Y-27860D01*
X32134Y-27626D01*
X32135Y-27374D01*
X32038Y-27140D01*
X31898Y-26999D01*
X32038Y-26860D01*
X32134Y-26626D01*
X32135Y-26374D01*
X32038Y-26140D01*
X31978Y-26080D01*
X31978Y-26080D01*
X32080Y-25979D01*
X32134Y-25846D01*
X32135Y-25703D01*
X32135Y-25153D01*
X32080Y-25021D01*
X31979Y-24919D01*
X31846Y-24865D01*
X31703Y-24864D01*
X31153Y-24864D01*
X31021Y-24919D01*
X30919Y-25020D01*
X30865Y-25153D01*
X30864Y-25296D01*
X30864Y-25846D01*
X30919Y-25978D01*
X31020Y-26080D01*
X31021Y-26080D01*
X30961Y-26139D01*
X30865Y-26373D01*
X30864Y-26625D01*
X30961Y-26859D01*
X31101Y-27000D01*
X30961Y-27139D01*
X30865Y-27373D01*
X30864Y-27625D01*
X30961Y-27859D01*
X31101Y-28000D01*
X30961Y-28139D01*
X30865Y-28373D01*
X30864Y-28625D01*
X30961Y-28859D01*
X31101Y-29000D01*
X30961Y-29139D01*
X30865Y-29373D01*
X30864Y-29625D01*
X30961Y-29859D01*
X31101Y-30000D01*
X30961Y-30139D01*
X30865Y-30373D01*
X30864Y-30625D01*
X30961Y-30859D01*
X31101Y-31000D01*
X30961Y-31139D01*
X30865Y-31373D01*
X30864Y-31625D01*
X30961Y-31859D01*
X31101Y-32000D01*
X30961Y-32139D01*
X30865Y-32373D01*
X30864Y-32625D01*
X30961Y-32859D01*
X31101Y-33000D01*
X30961Y-33139D01*
X30865Y-33373D01*
X30864Y-33625D01*
X30961Y-33859D01*
X31101Y-34000D01*
X31035Y-34066D01*
X30888Y-33919D01*
X30636Y-33815D01*
X30380Y-33814D01*
X28650Y-32084D01*
X28650Y-31000D01*
X28619Y-30846D01*
X28619Y-30846D01*
X28590Y-30803D01*
X28532Y-30717D01*
X28532Y-30717D01*
X27650Y-29834D01*
X27650Y-29542D01*
X27873Y-29634D01*
X28125Y-29635D01*
X28359Y-29538D01*
X28500Y-29398D01*
X28639Y-29538D01*
X28873Y-29634D01*
X29125Y-29635D01*
X29359Y-29538D01*
X29538Y-29360D01*
X29634Y-29126D01*
X29635Y-28874D01*
X29538Y-28640D01*
X29360Y-28461D01*
X29126Y-28365D01*
X28874Y-28364D01*
X28781Y-28403D01*
X27956Y-27907D01*
X27927Y-27897D01*
X27903Y-27880D01*
X27855Y-27870D01*
X27809Y-27854D01*
X27779Y-27855D01*
X27750Y-27850D01*
X27606Y-27850D01*
X27553Y-27796D01*
X27529Y-27786D01*
X28282Y-27032D01*
X28282Y-27032D01*
X28369Y-26903D01*
X28369Y-26903D01*
X28374Y-26877D01*
X28399Y-26750D01*
X28400Y-26750D01*
X28400Y-26497D01*
X28500Y-26398D01*
X28639Y-26538D01*
X28873Y-26634D01*
X29125Y-26635D01*
X29359Y-26538D01*
X29500Y-26398D01*
X29639Y-26538D01*
X29873Y-26634D01*
X30125Y-26635D01*
X30359Y-26538D01*
X30538Y-26360D01*
X30634Y-26126D01*
X30635Y-25874D01*
X30538Y-25640D01*
X30360Y-25461D01*
X30126Y-25365D01*
X29874Y-25364D01*
X29640Y-25461D01*
X29499Y-25601D01*
X29360Y-25461D01*
X29126Y-25365D01*
X28874Y-25364D01*
X28640Y-25461D01*
X28499Y-25601D01*
X28433Y-25535D01*
X28580Y-25388D01*
X28684Y-25136D01*
X28685Y-24864D01*
X28581Y-24612D01*
X28468Y-24499D01*
X28580Y-24388D01*
X28684Y-24136D01*
X28685Y-23864D01*
X28581Y-23612D01*
X28388Y-23419D01*
X28341Y-23400D01*
X29658Y-23400D01*
X29612Y-23418D01*
X29419Y-23611D01*
X29315Y-23863D01*
X29314Y-24135D01*
X29418Y-24387D01*
X29611Y-24580D01*
X29863Y-24684D01*
X30135Y-24685D01*
X30387Y-24581D01*
X30580Y-24388D01*
X30684Y-24136D01*
X30685Y-23864D01*
X30581Y-23612D01*
X30388Y-23419D01*
X30341Y-23400D01*
X30834Y-23400D01*
X31467Y-24032D01*
X31467Y-24032D01*
X31467Y-24032D01*
X33467Y-26032D01*
X33467Y-26032D01*
X33596Y-26119D01*
X33596Y-26119D01*
X33749Y-26149D01*
X33750Y-26150D01*
X36584Y-26150D01*
X36865Y-26430D01*
X36864Y-26625D01*
X36961Y-26859D01*
X37101Y-27000D01*
X36961Y-27139D01*
X36865Y-27373D01*
X36864Y-27625D01*
X36961Y-27859D01*
X37101Y-28000D01*
X36961Y-28139D01*
X36865Y-28373D01*
X36864Y-28625D01*
X36961Y-28859D01*
X37101Y-29000D01*
X36961Y-29139D01*
X36865Y-29373D01*
X36864Y-29625D01*
X36961Y-29859D01*
X37101Y-30000D01*
X36961Y-30139D01*
X36865Y-30373D01*
X36864Y-30625D01*
X36961Y-30859D01*
X37101Y-31000D01*
X36961Y-31139D01*
X36865Y-31373D01*
X36864Y-31625D01*
X36961Y-31859D01*
X37101Y-32000D01*
X37101Y-32000D01*
G37*
G54D28*
X37101Y-32000D02*
X36961Y-32139D01*
X36865Y-32373D01*
X36864Y-32625D01*
X36961Y-32859D01*
X37091Y-32990D01*
X35500Y-32990D01*
X35304Y-33028D01*
X35139Y-33139D01*
X35139Y-33139D01*
X35139Y-33139D01*
X33288Y-34990D01*
X32750Y-34990D01*
X31907Y-34990D01*
X32038Y-34860D01*
X32134Y-34626D01*
X32135Y-34374D01*
X32038Y-34140D01*
X31898Y-33999D01*
X32038Y-33860D01*
X32134Y-33626D01*
X32135Y-33374D01*
X32038Y-33140D01*
X31898Y-32999D01*
X32038Y-32860D01*
X32134Y-32626D01*
X32135Y-32374D01*
X32038Y-32140D01*
X31898Y-31999D01*
X32038Y-31860D01*
X32134Y-31626D01*
X32135Y-31374D01*
X32038Y-31140D01*
X31898Y-30999D01*
X32038Y-30860D01*
X32134Y-30626D01*
X32135Y-30374D01*
X32038Y-30140D01*
X31898Y-29999D01*
X32038Y-29860D01*
X32134Y-29626D01*
X32135Y-29374D01*
X32038Y-29140D01*
X31898Y-28999D01*
X32038Y-28860D01*
X32134Y-28626D01*
X32135Y-28374D01*
X32038Y-28140D01*
X31898Y-27999D01*
X32038Y-27860D01*
X32134Y-27626D01*
X32135Y-27374D01*
X32038Y-27140D01*
X31898Y-26999D01*
X32038Y-26860D01*
X32134Y-26626D01*
X32135Y-26374D01*
X32038Y-26140D01*
X31978Y-26080D01*
X31978Y-26080D01*
X32080Y-25979D01*
X32134Y-25846D01*
X32135Y-25703D01*
X32135Y-25153D01*
X32080Y-25021D01*
X31979Y-24919D01*
X31846Y-24865D01*
X31703Y-24864D01*
X31153Y-24864D01*
X31021Y-24919D01*
X30919Y-25020D01*
X30865Y-25153D01*
X30864Y-25296D01*
X30864Y-25846D01*
X30919Y-25978D01*
X31020Y-26080D01*
X31021Y-26080D01*
X30961Y-26139D01*
X30865Y-26373D01*
X30864Y-26625D01*
X30961Y-26859D01*
X31101Y-27000D01*
X30961Y-27139D01*
X30865Y-27373D01*
X30864Y-27625D01*
X30961Y-27859D01*
X31101Y-28000D01*
X30961Y-28139D01*
X30865Y-28373D01*
X30864Y-28625D01*
X30961Y-28859D01*
X31101Y-29000D01*
X30961Y-29139D01*
X30865Y-29373D01*
X30864Y-29625D01*
X30961Y-29859D01*
X31101Y-30000D01*
X30961Y-30139D01*
X30865Y-30373D01*
X30864Y-30625D01*
X30961Y-30859D01*
X31101Y-31000D01*
X30961Y-31139D01*
X30865Y-31373D01*
X30864Y-31625D01*
X30961Y-31859D01*
X31101Y-32000D01*
X30961Y-32139D01*
X30865Y-32373D01*
X30864Y-32625D01*
X30961Y-32859D01*
X31101Y-33000D01*
X30961Y-33139D01*
X30865Y-33373D01*
X30864Y-33625D01*
X30961Y-33859D01*
X31101Y-34000D01*
X31035Y-34066D01*
X30888Y-33919D01*
X30636Y-33815D01*
X30380Y-33814D01*
X28650Y-32084D01*
X28650Y-31000D01*
X28619Y-30846D01*
X28619Y-30846D01*
X28590Y-30803D01*
X28532Y-30717D01*
X28532Y-30717D01*
X27650Y-29834D01*
X27650Y-29542D01*
X27873Y-29634D01*
X28125Y-29635D01*
X28359Y-29538D01*
X28500Y-29398D01*
X28639Y-29538D01*
X28873Y-29634D01*
X29125Y-29635D01*
X29359Y-29538D01*
X29538Y-29360D01*
X29634Y-29126D01*
X29635Y-28874D01*
X29538Y-28640D01*
X29360Y-28461D01*
X29126Y-28365D01*
X28874Y-28364D01*
X28781Y-28403D01*
X27956Y-27907D01*
X27927Y-27897D01*
X27903Y-27880D01*
X27855Y-27870D01*
X27809Y-27854D01*
X27779Y-27855D01*
X27750Y-27850D01*
X27606Y-27850D01*
X27553Y-27796D01*
X27529Y-27786D01*
X28282Y-27032D01*
X28282Y-27032D01*
X28369Y-26903D01*
X28369Y-26903D01*
X28374Y-26877D01*
X28399Y-26750D01*
X28400Y-26750D01*
X28400Y-26497D01*
X28500Y-26398D01*
X28639Y-26538D01*
X28873Y-26634D01*
X29125Y-26635D01*
X29359Y-26538D01*
X29500Y-26398D01*
X29639Y-26538D01*
X29873Y-26634D01*
X30125Y-26635D01*
X30359Y-26538D01*
X30538Y-26360D01*
X30634Y-26126D01*
X30635Y-25874D01*
X30538Y-25640D01*
X30360Y-25461D01*
X30126Y-25365D01*
X29874Y-25364D01*
X29640Y-25461D01*
X29499Y-25601D01*
X29360Y-25461D01*
X29126Y-25365D01*
X28874Y-25364D01*
X28640Y-25461D01*
X28499Y-25601D01*
X28433Y-25535D01*
X28580Y-25388D01*
X28684Y-25136D01*
X28685Y-24864D01*
X28581Y-24612D01*
X28468Y-24499D01*
X28580Y-24388D01*
X28684Y-24136D01*
X28685Y-23864D01*
X28581Y-23612D01*
X28388Y-23419D01*
X28341Y-23400D01*
X29658Y-23400D01*
X29612Y-23418D01*
X29419Y-23611D01*
X29315Y-23863D01*
X29314Y-24135D01*
X29418Y-24387D01*
X29611Y-24580D01*
X29863Y-24684D01*
X30135Y-24685D01*
X30387Y-24581D01*
X30580Y-24388D01*
X30684Y-24136D01*
X30685Y-23864D01*
X30581Y-23612D01*
X30388Y-23419D01*
X30341Y-23400D01*
X30834Y-23400D01*
X31467Y-24032D01*
X31467Y-24032D01*
X31467Y-24032D01*
X33467Y-26032D01*
X33467Y-26032D01*
X33596Y-26119D01*
X33596Y-26119D01*
X33749Y-26149D01*
X33750Y-26150D01*
X36584Y-26150D01*
X36865Y-26430D01*
X36864Y-26625D01*
X36961Y-26859D01*
X37101Y-27000D01*
X36961Y-27139D01*
X36865Y-27373D01*
X36864Y-27625D01*
X36961Y-27859D01*
X37101Y-28000D01*
X36961Y-28139D01*
X36865Y-28373D01*
X36864Y-28625D01*
X36961Y-28859D01*
X37101Y-29000D01*
X36961Y-29139D01*
X36865Y-29373D01*
X36864Y-29625D01*
X36961Y-29859D01*
X37101Y-30000D01*
X36961Y-30139D01*
X36865Y-30373D01*
X36864Y-30625D01*
X36961Y-30859D01*
X37101Y-31000D01*
X36961Y-31139D01*
X36865Y-31373D01*
X36864Y-31625D01*
X36961Y-31859D01*
X37101Y-32000D01*
G54D10*
G36*
X37101Y-39000D02*
X36961Y-39139D01*
X36865Y-39373D01*
X36864Y-39569D01*
X36217Y-40217D01*
X36130Y-40346D01*
X36125Y-40372D01*
X36100Y-40500D01*
X36100Y-40834D01*
X31834Y-45100D01*
X31750Y-45100D01*
X31710Y-45100D01*
X31859Y-45038D01*
X32038Y-44860D01*
X32134Y-44626D01*
X32135Y-44374D01*
X32038Y-44140D01*
X31898Y-43999D01*
X32038Y-43860D01*
X32134Y-43626D01*
X32135Y-43374D01*
X32038Y-43140D01*
X31898Y-42999D01*
X32038Y-42860D01*
X32134Y-42626D01*
X32135Y-42374D01*
X32038Y-42140D01*
X31898Y-41999D01*
X32038Y-41860D01*
X32134Y-41626D01*
X32135Y-41374D01*
X32038Y-41140D01*
X31898Y-40999D01*
X32038Y-40860D01*
X32134Y-40626D01*
X32135Y-40374D01*
X32038Y-40140D01*
X31898Y-39999D01*
X32038Y-39860D01*
X32134Y-39626D01*
X32135Y-39374D01*
X32038Y-39140D01*
X31898Y-38999D01*
X31998Y-38900D01*
X33250Y-38900D01*
X33250Y-38899D01*
X33377Y-38874D01*
X33403Y-38869D01*
X33403Y-38869D01*
X33532Y-38782D01*
X35915Y-36400D01*
X36865Y-36400D01*
X36864Y-36625D01*
X36961Y-36859D01*
X37101Y-37000D01*
X36961Y-37139D01*
X36865Y-37373D01*
X36864Y-37625D01*
X36961Y-37859D01*
X37101Y-38000D01*
X36961Y-38139D01*
X36865Y-38373D01*
X36864Y-38625D01*
X36961Y-38859D01*
X37101Y-39000D01*
X37101Y-39000D01*
G37*
G54D28*
X37101Y-39000D02*
X36961Y-39139D01*
X36865Y-39373D01*
X36864Y-39569D01*
X36217Y-40217D01*
X36130Y-40346D01*
X36125Y-40372D01*
X36100Y-40500D01*
X36100Y-40834D01*
X31834Y-45100D01*
X31750Y-45100D01*
X31710Y-45100D01*
X31859Y-45038D01*
X32038Y-44860D01*
X32134Y-44626D01*
X32135Y-44374D01*
X32038Y-44140D01*
X31898Y-43999D01*
X32038Y-43860D01*
X32134Y-43626D01*
X32135Y-43374D01*
X32038Y-43140D01*
X31898Y-42999D01*
X32038Y-42860D01*
X32134Y-42626D01*
X32135Y-42374D01*
X32038Y-42140D01*
X31898Y-41999D01*
X32038Y-41860D01*
X32134Y-41626D01*
X32135Y-41374D01*
X32038Y-41140D01*
X31898Y-40999D01*
X32038Y-40860D01*
X32134Y-40626D01*
X32135Y-40374D01*
X32038Y-40140D01*
X31898Y-39999D01*
X32038Y-39860D01*
X32134Y-39626D01*
X32135Y-39374D01*
X32038Y-39140D01*
X31898Y-38999D01*
X31998Y-38900D01*
X33250Y-38900D01*
X33250Y-38899D01*
X33377Y-38874D01*
X33403Y-38869D01*
X33403Y-38869D01*
X33532Y-38782D01*
X35915Y-36400D01*
X36865Y-36400D01*
X36864Y-36625D01*
X36961Y-36859D01*
X37101Y-37000D01*
X36961Y-37139D01*
X36865Y-37373D01*
X36864Y-37625D01*
X36961Y-37859D01*
X37101Y-38000D01*
X36961Y-38139D01*
X36865Y-38373D01*
X36864Y-38625D01*
X36961Y-38859D01*
X37101Y-39000D01*
G54D10*
G36*
X39906Y-26872D02*
X38639Y-28139D01*
X38528Y-28304D01*
X38490Y-28500D01*
X38490Y-31788D01*
X38139Y-32139D01*
X38067Y-32211D01*
X38038Y-32140D01*
X37898Y-31999D01*
X38038Y-31860D01*
X38134Y-31626D01*
X38135Y-31374D01*
X38038Y-31140D01*
X37898Y-30999D01*
X38038Y-30860D01*
X38134Y-30626D01*
X38135Y-30374D01*
X38038Y-30140D01*
X37898Y-29999D01*
X38038Y-29860D01*
X38134Y-29626D01*
X38135Y-29374D01*
X38038Y-29140D01*
X37898Y-28999D01*
X38038Y-28860D01*
X38134Y-28626D01*
X38135Y-28374D01*
X38038Y-28140D01*
X37898Y-27999D01*
X38038Y-27860D01*
X38134Y-27626D01*
X38135Y-27374D01*
X38038Y-27140D01*
X37898Y-26999D01*
X38038Y-26860D01*
X38134Y-26626D01*
X38135Y-26374D01*
X38038Y-26140D01*
X37898Y-25999D01*
X38038Y-25860D01*
X38134Y-25626D01*
X38135Y-25374D01*
X38038Y-25140D01*
X37860Y-24961D01*
X37626Y-24865D01*
X37374Y-24864D01*
X37358Y-24871D01*
X37250Y-24850D01*
X34165Y-24850D01*
X32282Y-22967D01*
X32282Y-22967D01*
X32282Y-22967D01*
X31532Y-22217D01*
X31403Y-22130D01*
X31377Y-22125D01*
X31250Y-22100D01*
X27500Y-22100D01*
X27346Y-22130D01*
X27303Y-22159D01*
X27217Y-22217D01*
X26467Y-22967D01*
X26380Y-23096D01*
X26375Y-23122D01*
X26350Y-23250D01*
X26350Y-23315D01*
X26253Y-23314D01*
X25603Y-23314D01*
X25471Y-23369D01*
X25369Y-23470D01*
X25315Y-23603D01*
X25314Y-23746D01*
X25314Y-24396D01*
X25369Y-24528D01*
X25435Y-24595D01*
X25419Y-24611D01*
X25315Y-24863D01*
X25314Y-25135D01*
X25418Y-25387D01*
X25611Y-25580D01*
X25863Y-25684D01*
X26135Y-25685D01*
X26350Y-25596D01*
X26350Y-26334D01*
X26301Y-26383D01*
X26136Y-26315D01*
X25864Y-26314D01*
X25612Y-26418D01*
X25419Y-26611D01*
X25315Y-26863D01*
X25314Y-27135D01*
X25418Y-27387D01*
X25531Y-27500D01*
X25419Y-27611D01*
X25315Y-27863D01*
X25314Y-28135D01*
X25418Y-28387D01*
X25531Y-28500D01*
X25419Y-28611D01*
X25315Y-28863D01*
X25314Y-29135D01*
X25418Y-29387D01*
X25611Y-29580D01*
X25863Y-29684D01*
X26135Y-29685D01*
X26350Y-29596D01*
X26350Y-31815D01*
X26253Y-31814D01*
X25603Y-31814D01*
X25499Y-31857D01*
X25396Y-31815D01*
X25253Y-31814D01*
X25120Y-31814D01*
X25120Y-22260D01*
X25342Y-22482D01*
X25768Y-22659D01*
X26229Y-22660D01*
X26656Y-22483D01*
X26982Y-22157D01*
X27159Y-21731D01*
X27160Y-21270D01*
X26983Y-20843D01*
X26760Y-20620D01*
X27416Y-20620D01*
X27315Y-20863D01*
X27314Y-21135D01*
X27418Y-21387D01*
X27611Y-21580D01*
X27863Y-21684D01*
X28135Y-21685D01*
X28387Y-21581D01*
X28580Y-21388D01*
X28684Y-21136D01*
X28685Y-20864D01*
X28584Y-20620D01*
X29416Y-20620D01*
X29315Y-20863D01*
X29314Y-21135D01*
X29418Y-21387D01*
X29611Y-21580D01*
X29863Y-21684D01*
X30135Y-21685D01*
X30387Y-21581D01*
X30580Y-21388D01*
X30684Y-21136D01*
X30685Y-20864D01*
X30584Y-20620D01*
X31880Y-20620D01*
X31880Y-22120D01*
X33461Y-22120D01*
X33461Y-22488D01*
X33516Y-22620D01*
X33612Y-22716D01*
X33612Y-22872D01*
X33650Y-23067D01*
X33761Y-23232D01*
X34889Y-24360D01*
X34889Y-24360D01*
X34999Y-24434D01*
X35054Y-24471D01*
X35054Y-24471D01*
X35249Y-24509D01*
X35250Y-24510D01*
X37538Y-24510D01*
X39889Y-26860D01*
X39906Y-26872D01*
X39906Y-26872D01*
G37*
G54D28*
X39906Y-26872D02*
X38639Y-28139D01*
X38528Y-28304D01*
X38490Y-28500D01*
X38490Y-31788D01*
X38139Y-32139D01*
X38067Y-32211D01*
X38038Y-32140D01*
X37898Y-31999D01*
X38038Y-31860D01*
X38134Y-31626D01*
X38135Y-31374D01*
X38038Y-31140D01*
X37898Y-30999D01*
X38038Y-30860D01*
X38134Y-30626D01*
X38135Y-30374D01*
X38038Y-30140D01*
X37898Y-29999D01*
X38038Y-29860D01*
X38134Y-29626D01*
X38135Y-29374D01*
X38038Y-29140D01*
X37898Y-28999D01*
X38038Y-28860D01*
X38134Y-28626D01*
X38135Y-28374D01*
X38038Y-28140D01*
X37898Y-27999D01*
X38038Y-27860D01*
X38134Y-27626D01*
X38135Y-27374D01*
X38038Y-27140D01*
X37898Y-26999D01*
X38038Y-26860D01*
X38134Y-26626D01*
X38135Y-26374D01*
X38038Y-26140D01*
X37898Y-25999D01*
X38038Y-25860D01*
X38134Y-25626D01*
X38135Y-25374D01*
X38038Y-25140D01*
X37860Y-24961D01*
X37626Y-24865D01*
X37374Y-24864D01*
X37358Y-24871D01*
X37250Y-24850D01*
X34165Y-24850D01*
X32282Y-22967D01*
X32282Y-22967D01*
X32282Y-22967D01*
X31532Y-22217D01*
X31403Y-22130D01*
X31377Y-22125D01*
X31250Y-22100D01*
X27500Y-22100D01*
X27346Y-22130D01*
X27303Y-22159D01*
X27217Y-22217D01*
X26467Y-22967D01*
X26380Y-23096D01*
X26375Y-23122D01*
X26350Y-23250D01*
X26350Y-23315D01*
X26253Y-23314D01*
X25603Y-23314D01*
X25471Y-23369D01*
X25369Y-23470D01*
X25315Y-23603D01*
X25314Y-23746D01*
X25314Y-24396D01*
X25369Y-24528D01*
X25435Y-24595D01*
X25419Y-24611D01*
X25315Y-24863D01*
X25314Y-25135D01*
X25418Y-25387D01*
X25611Y-25580D01*
X25863Y-25684D01*
X26135Y-25685D01*
X26350Y-25596D01*
X26350Y-26334D01*
X26301Y-26383D01*
X26136Y-26315D01*
X25864Y-26314D01*
X25612Y-26418D01*
X25419Y-26611D01*
X25315Y-26863D01*
X25314Y-27135D01*
X25418Y-27387D01*
X25531Y-27500D01*
X25419Y-27611D01*
X25315Y-27863D01*
X25314Y-28135D01*
X25418Y-28387D01*
X25531Y-28500D01*
X25419Y-28611D01*
X25315Y-28863D01*
X25314Y-29135D01*
X25418Y-29387D01*
X25611Y-29580D01*
X25863Y-29684D01*
X26135Y-29685D01*
X26350Y-29596D01*
X26350Y-31815D01*
X26253Y-31814D01*
X25603Y-31814D01*
X25499Y-31857D01*
X25396Y-31815D01*
X25253Y-31814D01*
X25120Y-31814D01*
X25120Y-22260D01*
X25342Y-22482D01*
X25768Y-22659D01*
X26229Y-22660D01*
X26656Y-22483D01*
X26982Y-22157D01*
X27159Y-21731D01*
X27160Y-21270D01*
X26983Y-20843D01*
X26760Y-20620D01*
X27416Y-20620D01*
X27315Y-20863D01*
X27314Y-21135D01*
X27418Y-21387D01*
X27611Y-21580D01*
X27863Y-21684D01*
X28135Y-21685D01*
X28387Y-21581D01*
X28580Y-21388D01*
X28684Y-21136D01*
X28685Y-20864D01*
X28584Y-20620D01*
X29416Y-20620D01*
X29315Y-20863D01*
X29314Y-21135D01*
X29418Y-21387D01*
X29611Y-21580D01*
X29863Y-21684D01*
X30135Y-21685D01*
X30387Y-21581D01*
X30580Y-21388D01*
X30684Y-21136D01*
X30685Y-20864D01*
X30584Y-20620D01*
X31880Y-20620D01*
X31880Y-22120D01*
X33461Y-22120D01*
X33461Y-22488D01*
X33516Y-22620D01*
X33612Y-22716D01*
X33612Y-22872D01*
X33650Y-23067D01*
X33761Y-23232D01*
X34889Y-24360D01*
X34889Y-24360D01*
X34999Y-24434D01*
X35054Y-24471D01*
X35054Y-24471D01*
X35249Y-24509D01*
X35250Y-24510D01*
X37538Y-24510D01*
X39889Y-26860D01*
X39906Y-26872D01*
G54D10*
G36*
X48600Y-48658D02*
X48581Y-48612D01*
X48388Y-48419D01*
X48136Y-48315D01*
X47864Y-48314D01*
X47612Y-48418D01*
X47541Y-48490D01*
X47260Y-48490D01*
X47260Y-46250D01*
X47221Y-46054D01*
X47221Y-46054D01*
X47110Y-45889D01*
X46610Y-45389D01*
X46403Y-45182D01*
X46500Y-45142D01*
X46603Y-45184D01*
X46746Y-45185D01*
X47396Y-45185D01*
X47500Y-45142D01*
X47603Y-45184D01*
X47746Y-45185D01*
X48396Y-45185D01*
X48528Y-45130D01*
X48600Y-45059D01*
X48600Y-48658D01*
X48600Y-48658D01*
G37*
G54D28*
X48600Y-48658D02*
X48581Y-48612D01*
X48388Y-48419D01*
X48136Y-48315D01*
X47864Y-48314D01*
X47612Y-48418D01*
X47541Y-48490D01*
X47260Y-48490D01*
X47260Y-46250D01*
X47221Y-46054D01*
X47221Y-46054D01*
X47110Y-45889D01*
X46610Y-45389D01*
X46403Y-45182D01*
X46500Y-45142D01*
X46603Y-45184D01*
X46746Y-45185D01*
X47396Y-45185D01*
X47500Y-45142D01*
X47603Y-45184D01*
X47746Y-45185D01*
X48396Y-45185D01*
X48528Y-45130D01*
X48600Y-45059D01*
X48600Y-48658D01*
G54D10*
G36*
X61880Y-48814D02*
X61864Y-48814D01*
X61612Y-48918D01*
X61499Y-49031D01*
X61388Y-48919D01*
X61136Y-48815D01*
X60864Y-48814D01*
X60612Y-48918D01*
X60499Y-49031D01*
X60388Y-48919D01*
X60136Y-48815D01*
X59864Y-48814D01*
X59612Y-48918D01*
X59499Y-49031D01*
X59388Y-48919D01*
X59136Y-48815D01*
X58864Y-48814D01*
X58612Y-48918D01*
X58499Y-49031D01*
X58388Y-48919D01*
X58136Y-48815D01*
X57864Y-48814D01*
X57612Y-48918D01*
X57499Y-49031D01*
X57388Y-48919D01*
X57136Y-48815D01*
X56864Y-48814D01*
X56612Y-48918D01*
X56499Y-49031D01*
X56388Y-48919D01*
X56136Y-48815D01*
X55864Y-48814D01*
X55612Y-48918D01*
X55499Y-49031D01*
X55388Y-48919D01*
X55136Y-48815D01*
X54864Y-48814D01*
X54612Y-48918D01*
X54499Y-49031D01*
X54388Y-48919D01*
X54136Y-48815D01*
X53864Y-48814D01*
X53612Y-48918D01*
X53499Y-49031D01*
X53388Y-48919D01*
X53136Y-48815D01*
X52864Y-48814D01*
X52612Y-48918D01*
X52499Y-49031D01*
X52388Y-48919D01*
X52136Y-48815D01*
X51864Y-48814D01*
X51612Y-48918D01*
X51595Y-48936D01*
X51529Y-48869D01*
X51396Y-48815D01*
X51253Y-48814D01*
X50603Y-48814D01*
X50471Y-48869D01*
X50369Y-48970D01*
X50315Y-49103D01*
X50314Y-49246D01*
X50314Y-49896D01*
X50369Y-50028D01*
X50440Y-50100D01*
X50165Y-50100D01*
X49900Y-49834D01*
X49900Y-40500D01*
X49869Y-40346D01*
X49869Y-40346D01*
X49840Y-40303D01*
X49782Y-40217D01*
X49782Y-40217D01*
X48782Y-39217D01*
X48653Y-39130D01*
X48627Y-39125D01*
X48582Y-39116D01*
X48581Y-39112D01*
X48468Y-38999D01*
X48580Y-38888D01*
X48684Y-38636D01*
X48685Y-38364D01*
X48581Y-38112D01*
X48468Y-37999D01*
X48580Y-37888D01*
X48684Y-37636D01*
X48685Y-37364D01*
X48581Y-37112D01*
X48388Y-36919D01*
X48136Y-36815D01*
X47864Y-36814D01*
X47612Y-36918D01*
X47499Y-37031D01*
X47388Y-36919D01*
X47136Y-36815D01*
X46864Y-36814D01*
X46612Y-36918D01*
X46499Y-37031D01*
X46388Y-36919D01*
X46136Y-36815D01*
X45864Y-36814D01*
X45760Y-36857D01*
X45760Y-36185D01*
X46396Y-36185D01*
X46500Y-36142D01*
X46603Y-36184D01*
X46746Y-36185D01*
X47396Y-36185D01*
X47500Y-36142D01*
X47603Y-36184D01*
X47746Y-36185D01*
X48396Y-36185D01*
X48528Y-36130D01*
X48630Y-36029D01*
X48684Y-35896D01*
X48685Y-35753D01*
X48685Y-35103D01*
X48630Y-34971D01*
X48564Y-34904D01*
X48580Y-34888D01*
X48684Y-34636D01*
X48685Y-34364D01*
X48581Y-34112D01*
X48468Y-33999D01*
X48580Y-33888D01*
X48684Y-33636D01*
X48685Y-33364D01*
X48581Y-33112D01*
X48468Y-32999D01*
X48580Y-32888D01*
X48684Y-32636D01*
X48685Y-32364D01*
X48581Y-32112D01*
X48468Y-31999D01*
X48580Y-31888D01*
X48684Y-31636D01*
X48685Y-31364D01*
X48581Y-31112D01*
X48468Y-30999D01*
X48580Y-30888D01*
X48684Y-30636D01*
X48685Y-30364D01*
X48581Y-30112D01*
X48468Y-29999D01*
X48580Y-29888D01*
X48684Y-29636D01*
X48685Y-29364D01*
X48581Y-29112D01*
X48468Y-28999D01*
X48580Y-28888D01*
X48684Y-28636D01*
X48685Y-28364D01*
X48581Y-28112D01*
X48478Y-28010D01*
X49361Y-28010D01*
X49369Y-28028D01*
X49470Y-28130D01*
X49603Y-28184D01*
X49746Y-28185D01*
X50396Y-28185D01*
X50528Y-28130D01*
X50630Y-28029D01*
X50684Y-27896D01*
X50685Y-27753D01*
X50685Y-27103D01*
X50630Y-26971D01*
X50529Y-26869D01*
X50396Y-26815D01*
X50253Y-26814D01*
X49906Y-26814D01*
X50036Y-26685D01*
X50396Y-26685D01*
X50528Y-26630D01*
X50630Y-26529D01*
X50684Y-26396D01*
X50685Y-26253D01*
X50685Y-25603D01*
X50630Y-25471D01*
X50529Y-25369D01*
X50396Y-25315D01*
X50253Y-25314D01*
X49650Y-25314D01*
X49650Y-24915D01*
X49915Y-24650D01*
X52250Y-24650D01*
X52250Y-24649D01*
X52377Y-24624D01*
X52403Y-24619D01*
X52403Y-24619D01*
X52532Y-24532D01*
X52930Y-24134D01*
X53125Y-24135D01*
X53359Y-24038D01*
X53538Y-23860D01*
X53634Y-23626D01*
X53635Y-23374D01*
X53538Y-23140D01*
X53400Y-23001D01*
X53400Y-21997D01*
X53538Y-21860D01*
X53634Y-21626D01*
X53635Y-21374D01*
X53538Y-21140D01*
X53360Y-20961D01*
X53126Y-20865D01*
X52874Y-20864D01*
X52640Y-20961D01*
X52461Y-21139D01*
X52365Y-21373D01*
X52364Y-21625D01*
X52461Y-21859D01*
X52600Y-21998D01*
X52600Y-23002D01*
X52461Y-23139D01*
X52365Y-23373D01*
X52364Y-23569D01*
X52084Y-23850D01*
X50542Y-23850D01*
X50634Y-23626D01*
X50635Y-23374D01*
X50635Y-21374D01*
X50538Y-21140D01*
X50360Y-20961D01*
X50126Y-20865D01*
X49874Y-20864D01*
X49640Y-20961D01*
X49538Y-21063D01*
X49391Y-20915D01*
X49137Y-20810D01*
X48863Y-20809D01*
X48609Y-20914D01*
X48499Y-21024D01*
X48391Y-20915D01*
X48137Y-20810D01*
X47863Y-20809D01*
X47609Y-20914D01*
X47415Y-21108D01*
X47310Y-21362D01*
X47309Y-21636D01*
X47414Y-21890D01*
X47608Y-22084D01*
X47862Y-22189D01*
X48136Y-22190D01*
X48390Y-22085D01*
X48500Y-21975D01*
X48608Y-22084D01*
X48862Y-22189D01*
X49136Y-22190D01*
X49390Y-22085D01*
X49538Y-21936D01*
X49639Y-22038D01*
X49873Y-22134D01*
X50125Y-22135D01*
X50359Y-22038D01*
X50538Y-21860D01*
X50634Y-21626D01*
X50635Y-21374D01*
X50635Y-23374D01*
X50538Y-23140D01*
X50360Y-22961D01*
X50126Y-22865D01*
X49874Y-22864D01*
X49640Y-22961D01*
X49538Y-23063D01*
X49391Y-22915D01*
X49137Y-22810D01*
X48863Y-22809D01*
X48609Y-22914D01*
X48499Y-23024D01*
X48391Y-22915D01*
X48137Y-22810D01*
X47863Y-22809D01*
X47609Y-22914D01*
X47415Y-23108D01*
X47310Y-23362D01*
X47309Y-23636D01*
X47414Y-23890D01*
X47608Y-24084D01*
X47862Y-24189D01*
X48136Y-24190D01*
X48390Y-24085D01*
X48500Y-23975D01*
X48608Y-24084D01*
X48862Y-24189D01*
X49136Y-24190D01*
X49319Y-24114D01*
X48967Y-24467D01*
X48880Y-24596D01*
X48875Y-24622D01*
X48850Y-24750D01*
X48850Y-25334D01*
X48685Y-25499D01*
X48685Y-25103D01*
X48630Y-24971D01*
X48529Y-24869D01*
X48396Y-24815D01*
X48253Y-24814D01*
X47603Y-24814D01*
X47471Y-24869D01*
X47369Y-24970D01*
X47315Y-25103D01*
X47314Y-25246D01*
X47314Y-25896D01*
X47353Y-25990D01*
X47285Y-25990D01*
X47285Y-23394D01*
X47203Y-23197D01*
X47053Y-23046D01*
X46856Y-22965D01*
X46644Y-22964D01*
X46447Y-23046D01*
X46393Y-23100D01*
X45000Y-23100D01*
X44846Y-23130D01*
X44803Y-23159D01*
X44717Y-23217D01*
X44135Y-23799D01*
X44135Y-21374D01*
X44038Y-21140D01*
X43860Y-20961D01*
X43626Y-20865D01*
X43374Y-20864D01*
X43140Y-20961D01*
X42961Y-21139D01*
X42865Y-21373D01*
X42864Y-21625D01*
X42961Y-21859D01*
X43139Y-22038D01*
X43373Y-22134D01*
X43625Y-22135D01*
X43859Y-22038D01*
X44038Y-21860D01*
X44134Y-21626D01*
X44135Y-21374D01*
X44135Y-23799D01*
X43469Y-24464D01*
X43394Y-24464D01*
X43197Y-24546D01*
X43046Y-24696D01*
X42965Y-24893D01*
X42964Y-25105D01*
X43046Y-25302D01*
X43196Y-25453D01*
X43393Y-25534D01*
X43605Y-25535D01*
X43802Y-25453D01*
X43953Y-25303D01*
X44034Y-25106D01*
X44034Y-25030D01*
X45165Y-23900D01*
X46393Y-23900D01*
X46446Y-23953D01*
X46643Y-24034D01*
X46855Y-24035D01*
X47052Y-23953D01*
X47203Y-23803D01*
X47284Y-23606D01*
X47285Y-23394D01*
X47285Y-25990D01*
X47000Y-25990D01*
X46804Y-26028D01*
X46639Y-26139D01*
X46288Y-26490D01*
X46035Y-26490D01*
X46035Y-26394D01*
X45953Y-26197D01*
X45803Y-26046D01*
X45606Y-25965D01*
X45394Y-25964D01*
X45333Y-25990D01*
X41465Y-25990D01*
X41552Y-25953D01*
X41633Y-25873D01*
X41653Y-25869D01*
X41653Y-25869D01*
X41782Y-25782D01*
X42782Y-24782D01*
X42782Y-24782D01*
X42840Y-24696D01*
X42869Y-24653D01*
X42869Y-24653D01*
X42899Y-24500D01*
X42900Y-24500D01*
X42900Y-24106D01*
X42953Y-24053D01*
X43034Y-23856D01*
X43035Y-23644D01*
X42953Y-23447D01*
X42881Y-23375D01*
X42953Y-23303D01*
X43034Y-23106D01*
X43035Y-22894D01*
X42953Y-22697D01*
X42803Y-22546D01*
X42606Y-22465D01*
X42394Y-22464D01*
X42197Y-22546D01*
X42046Y-22696D01*
X41965Y-22893D01*
X41965Y-22969D01*
X41613Y-23321D01*
X41538Y-23140D01*
X41478Y-23080D01*
X41478Y-23080D01*
X41580Y-22979D01*
X41634Y-22846D01*
X41635Y-22703D01*
X41635Y-22153D01*
X41580Y-22021D01*
X41479Y-21919D01*
X41346Y-21865D01*
X41203Y-21864D01*
X40653Y-21864D01*
X40521Y-21919D01*
X40500Y-21940D01*
X40479Y-21919D01*
X40346Y-21865D01*
X40203Y-21864D01*
X39653Y-21864D01*
X39521Y-21919D01*
X39419Y-22020D01*
X39365Y-22153D01*
X39364Y-22296D01*
X39364Y-22600D01*
X36665Y-22600D01*
X36553Y-22487D01*
X36553Y-22346D01*
X36553Y-22120D01*
X39120Y-22120D01*
X39120Y-20620D01*
X60239Y-20620D01*
X60017Y-20842D01*
X59840Y-21268D01*
X59839Y-21729D01*
X60016Y-22156D01*
X60342Y-22482D01*
X60768Y-22659D01*
X61229Y-22660D01*
X61656Y-22483D01*
X61880Y-22260D01*
X61880Y-34814D01*
X61864Y-34814D01*
X61612Y-34918D01*
X61499Y-35031D01*
X61388Y-34919D01*
X61136Y-34815D01*
X60864Y-34814D01*
X60710Y-34878D01*
X60710Y-27359D01*
X60602Y-27098D01*
X60402Y-26898D01*
X60141Y-26790D01*
X59859Y-26789D01*
X59598Y-26897D01*
X59398Y-27097D01*
X59290Y-27358D01*
X59289Y-27640D01*
X59397Y-27901D01*
X59597Y-28101D01*
X59858Y-28209D01*
X60140Y-28210D01*
X60401Y-28102D01*
X60601Y-27902D01*
X60709Y-27641D01*
X60710Y-27359D01*
X60710Y-34878D01*
X60612Y-34918D01*
X60499Y-35031D01*
X60388Y-34919D01*
X60136Y-34815D01*
X59864Y-34814D01*
X59612Y-34918D01*
X59499Y-35031D01*
X59388Y-34919D01*
X59136Y-34815D01*
X58864Y-34814D01*
X58612Y-34918D01*
X58499Y-35031D01*
X58388Y-34919D01*
X58136Y-34815D01*
X57864Y-34814D01*
X57635Y-34909D01*
X57635Y-30374D01*
X57538Y-30140D01*
X57360Y-29961D01*
X57126Y-29865D01*
X56874Y-29864D01*
X56640Y-29961D01*
X56535Y-30066D01*
X56388Y-29919D01*
X56136Y-29815D01*
X55864Y-29814D01*
X55612Y-29918D01*
X55499Y-30031D01*
X55388Y-29919D01*
X55136Y-29815D01*
X54864Y-29814D01*
X54612Y-29918D01*
X54419Y-30111D01*
X54315Y-30363D01*
X54314Y-30635D01*
X54418Y-30887D01*
X54611Y-31080D01*
X54863Y-31184D01*
X55135Y-31185D01*
X55387Y-31081D01*
X55500Y-30968D01*
X55611Y-31080D01*
X55863Y-31184D01*
X56135Y-31185D01*
X56387Y-31081D01*
X56535Y-30933D01*
X56639Y-31038D01*
X56873Y-31134D01*
X57125Y-31135D01*
X57359Y-31038D01*
X57538Y-30860D01*
X57634Y-30626D01*
X57635Y-30374D01*
X57635Y-34909D01*
X57612Y-34918D01*
X57499Y-35031D01*
X57388Y-34919D01*
X57136Y-34815D01*
X56864Y-34814D01*
X56612Y-34918D01*
X56499Y-35031D01*
X56388Y-34919D01*
X56136Y-34815D01*
X55864Y-34814D01*
X55612Y-34918D01*
X55499Y-35031D01*
X55388Y-34919D01*
X55136Y-34815D01*
X54864Y-34814D01*
X54612Y-34918D01*
X54499Y-35031D01*
X54388Y-34919D01*
X54136Y-34815D01*
X53864Y-34814D01*
X53612Y-34918D01*
X53499Y-35031D01*
X53388Y-34919D01*
X53136Y-34815D01*
X52864Y-34814D01*
X52612Y-34918D01*
X52499Y-35031D01*
X52388Y-34919D01*
X52136Y-34815D01*
X51864Y-34814D01*
X51612Y-34918D01*
X51499Y-35031D01*
X51388Y-34919D01*
X51136Y-34815D01*
X50864Y-34814D01*
X50684Y-34889D01*
X50685Y-34753D01*
X50685Y-34103D01*
X50630Y-33971D01*
X50564Y-33904D01*
X50580Y-33888D01*
X50684Y-33636D01*
X50685Y-33364D01*
X50581Y-33112D01*
X50468Y-32999D01*
X50580Y-32888D01*
X50684Y-32636D01*
X50685Y-32364D01*
X50581Y-32112D01*
X50468Y-31999D01*
X50580Y-31888D01*
X50684Y-31636D01*
X50685Y-31364D01*
X50581Y-31112D01*
X50478Y-31010D01*
X51041Y-31010D01*
X51111Y-31080D01*
X51363Y-31184D01*
X51635Y-31185D01*
X51887Y-31081D01*
X52080Y-30888D01*
X52184Y-30636D01*
X52184Y-30536D01*
X52961Y-29760D01*
X55750Y-29760D01*
X55945Y-29721D01*
X55945Y-29721D01*
X56110Y-29610D01*
X56360Y-29360D01*
X56360Y-29360D01*
X56360Y-29360D01*
X57536Y-28185D01*
X57896Y-28185D01*
X58028Y-28130D01*
X58130Y-28029D01*
X58184Y-27896D01*
X58185Y-27753D01*
X58185Y-27103D01*
X58130Y-26971D01*
X58029Y-26869D01*
X58010Y-26862D01*
X58010Y-26211D01*
X58011Y-26210D01*
X58421Y-26210D01*
X58553Y-26155D01*
X58655Y-26054D01*
X58673Y-26010D01*
X59505Y-26010D01*
X59597Y-26101D01*
X59858Y-26209D01*
X60140Y-26210D01*
X60401Y-26102D01*
X60601Y-25902D01*
X60709Y-25641D01*
X60710Y-25359D01*
X60602Y-25098D01*
X60402Y-24898D01*
X60141Y-24790D01*
X59859Y-24789D01*
X59598Y-24897D01*
X59505Y-24990D01*
X58673Y-24990D01*
X58655Y-24946D01*
X58554Y-24844D01*
X58421Y-24790D01*
X58278Y-24789D01*
X58012Y-24789D01*
X58048Y-24701D01*
X58049Y-24558D01*
X58049Y-23180D01*
X57994Y-23048D01*
X57893Y-22946D01*
X57760Y-22892D01*
X57617Y-22891D01*
X56239Y-22891D01*
X56107Y-22946D01*
X56005Y-23047D01*
X55951Y-23180D01*
X55950Y-23323D01*
X55950Y-23431D01*
X55059Y-23431D01*
X54863Y-23469D01*
X54698Y-23580D01*
X53639Y-24639D01*
X53528Y-24804D01*
X53490Y-25000D01*
X53490Y-25005D01*
X53398Y-25097D01*
X53290Y-25358D01*
X53289Y-25640D01*
X53397Y-25901D01*
X53597Y-26101D01*
X53858Y-26209D01*
X54140Y-26210D01*
X54401Y-26102D01*
X54601Y-25902D01*
X54709Y-25641D01*
X54710Y-25359D01*
X54608Y-25112D01*
X55270Y-24451D01*
X55950Y-24451D01*
X55950Y-24701D01*
X56005Y-24833D01*
X56106Y-24935D01*
X56239Y-24989D01*
X56382Y-24990D01*
X57326Y-24990D01*
X57290Y-25078D01*
X57289Y-25221D01*
X57289Y-25488D01*
X57139Y-25639D01*
X57028Y-25804D01*
X56990Y-26000D01*
X56990Y-26861D01*
X56971Y-26869D01*
X56869Y-26970D01*
X56815Y-27103D01*
X56814Y-27246D01*
X56814Y-27463D01*
X55685Y-28593D01*
X55685Y-27753D01*
X55685Y-27103D01*
X55630Y-26971D01*
X55529Y-26869D01*
X55396Y-26815D01*
X55253Y-26814D01*
X54603Y-26814D01*
X54471Y-26869D01*
X54369Y-26970D01*
X54315Y-27103D01*
X54314Y-27246D01*
X54314Y-27896D01*
X54369Y-28028D01*
X54470Y-28130D01*
X54603Y-28184D01*
X54746Y-28185D01*
X55396Y-28185D01*
X55528Y-28130D01*
X55630Y-28029D01*
X55684Y-27896D01*
X55685Y-27753D01*
X55685Y-28593D01*
X55639Y-28639D01*
X55639Y-28639D01*
X55538Y-28740D01*
X53185Y-28740D01*
X53185Y-27753D01*
X53185Y-27103D01*
X53130Y-26971D01*
X53029Y-26869D01*
X52896Y-26815D01*
X52753Y-26814D01*
X52103Y-26814D01*
X51971Y-26869D01*
X51869Y-26970D01*
X51815Y-27103D01*
X51814Y-27246D01*
X51814Y-27896D01*
X51869Y-28028D01*
X51970Y-28130D01*
X52103Y-28184D01*
X52246Y-28185D01*
X52896Y-28185D01*
X53028Y-28130D01*
X53130Y-28029D01*
X53184Y-27896D01*
X53185Y-27753D01*
X53185Y-28740D01*
X52750Y-28740D01*
X52554Y-28778D01*
X52389Y-28889D01*
X51463Y-29814D01*
X51364Y-29814D01*
X51112Y-29918D01*
X51041Y-29990D01*
X50458Y-29990D01*
X50388Y-29919D01*
X50136Y-29815D01*
X49864Y-29814D01*
X49612Y-29918D01*
X49419Y-30111D01*
X49315Y-30363D01*
X49314Y-30635D01*
X49418Y-30887D01*
X49531Y-31000D01*
X49419Y-31111D01*
X49315Y-31363D01*
X49314Y-31635D01*
X49418Y-31887D01*
X49531Y-32000D01*
X49419Y-32111D01*
X49315Y-32363D01*
X49314Y-32635D01*
X49418Y-32887D01*
X49531Y-33000D01*
X49419Y-33111D01*
X49315Y-33363D01*
X49314Y-33635D01*
X49418Y-33887D01*
X49436Y-33904D01*
X49369Y-33970D01*
X49315Y-34103D01*
X49314Y-34246D01*
X49314Y-34896D01*
X49369Y-35028D01*
X49470Y-35130D01*
X49603Y-35184D01*
X49746Y-35185D01*
X50389Y-35185D01*
X50315Y-35363D01*
X50314Y-35635D01*
X50418Y-35887D01*
X50490Y-35958D01*
X50490Y-36041D01*
X50419Y-36111D01*
X50315Y-36363D01*
X50314Y-36635D01*
X50418Y-36887D01*
X50490Y-36958D01*
X50490Y-37041D01*
X50419Y-37111D01*
X50315Y-37363D01*
X50314Y-37635D01*
X50418Y-37887D01*
X50490Y-37958D01*
X50490Y-38041D01*
X50419Y-38111D01*
X50315Y-38363D01*
X50314Y-38635D01*
X50418Y-38887D01*
X50490Y-38958D01*
X50490Y-39041D01*
X50419Y-39111D01*
X50315Y-39363D01*
X50314Y-39635D01*
X50418Y-39887D01*
X50531Y-40000D01*
X50419Y-40111D01*
X50315Y-40363D01*
X50314Y-40635D01*
X50418Y-40887D01*
X50531Y-41000D01*
X50419Y-41111D01*
X50315Y-41363D01*
X50314Y-41635D01*
X50418Y-41887D01*
X50531Y-42000D01*
X50419Y-42111D01*
X50315Y-42363D01*
X50314Y-42635D01*
X50418Y-42887D01*
X50490Y-42958D01*
X50490Y-43041D01*
X50419Y-43111D01*
X50315Y-43363D01*
X50314Y-43635D01*
X50418Y-43887D01*
X50490Y-43958D01*
X50490Y-44041D01*
X50419Y-44111D01*
X50315Y-44363D01*
X50314Y-44635D01*
X50418Y-44887D01*
X50490Y-44958D01*
X50490Y-45000D01*
X50490Y-45041D01*
X50419Y-45111D01*
X50315Y-45363D01*
X50314Y-45635D01*
X50418Y-45887D01*
X50490Y-45958D01*
X50490Y-46041D01*
X50419Y-46111D01*
X50315Y-46363D01*
X50314Y-46635D01*
X50418Y-46887D01*
X50611Y-47080D01*
X50863Y-47184D01*
X51135Y-47185D01*
X51387Y-47081D01*
X51500Y-46968D01*
X51611Y-47080D01*
X51863Y-47184D01*
X52135Y-47185D01*
X52387Y-47081D01*
X52500Y-46968D01*
X52611Y-47080D01*
X52863Y-47184D01*
X53135Y-47185D01*
X53387Y-47081D01*
X53500Y-46968D01*
X53611Y-47080D01*
X53863Y-47184D01*
X54135Y-47185D01*
X54387Y-47081D01*
X54500Y-46968D01*
X54611Y-47080D01*
X54863Y-47184D01*
X55135Y-47185D01*
X55387Y-47081D01*
X55500Y-46968D01*
X55611Y-47080D01*
X55863Y-47184D01*
X56135Y-47185D01*
X56387Y-47081D01*
X56500Y-46968D01*
X56611Y-47080D01*
X56863Y-47184D01*
X57135Y-47185D01*
X57387Y-47081D01*
X57500Y-46968D01*
X57611Y-47080D01*
X57863Y-47184D01*
X58135Y-47185D01*
X58387Y-47081D01*
X58500Y-46968D01*
X58611Y-47080D01*
X58863Y-47184D01*
X59135Y-47185D01*
X59387Y-47081D01*
X59500Y-46968D01*
X59611Y-47080D01*
X59863Y-47184D01*
X60135Y-47185D01*
X60387Y-47081D01*
X60500Y-46968D01*
X60611Y-47080D01*
X60863Y-47184D01*
X61135Y-47185D01*
X61387Y-47081D01*
X61500Y-46968D01*
X61611Y-47080D01*
X61863Y-47184D01*
X61880Y-47184D01*
X61880Y-48814D01*
X61880Y-48814D01*
G37*
G54D28*
X61880Y-48814D02*
X61864Y-48814D01*
X61612Y-48918D01*
X61499Y-49031D01*
X61388Y-48919D01*
X61136Y-48815D01*
X60864Y-48814D01*
X60612Y-48918D01*
X60499Y-49031D01*
X60388Y-48919D01*
X60136Y-48815D01*
X59864Y-48814D01*
X59612Y-48918D01*
X59499Y-49031D01*
X59388Y-48919D01*
X59136Y-48815D01*
X58864Y-48814D01*
X58612Y-48918D01*
X58499Y-49031D01*
X58388Y-48919D01*
X58136Y-48815D01*
X57864Y-48814D01*
X57612Y-48918D01*
X57499Y-49031D01*
X57388Y-48919D01*
X57136Y-48815D01*
X56864Y-48814D01*
X56612Y-48918D01*
X56499Y-49031D01*
X56388Y-48919D01*
X56136Y-48815D01*
X55864Y-48814D01*
X55612Y-48918D01*
X55499Y-49031D01*
X55388Y-48919D01*
X55136Y-48815D01*
X54864Y-48814D01*
X54612Y-48918D01*
X54499Y-49031D01*
X54388Y-48919D01*
X54136Y-48815D01*
X53864Y-48814D01*
X53612Y-48918D01*
X53499Y-49031D01*
X53388Y-48919D01*
X53136Y-48815D01*
X52864Y-48814D01*
X52612Y-48918D01*
X52499Y-49031D01*
X52388Y-48919D01*
X52136Y-48815D01*
X51864Y-48814D01*
X51612Y-48918D01*
X51595Y-48936D01*
X51529Y-48869D01*
X51396Y-48815D01*
X51253Y-48814D01*
X50603Y-48814D01*
X50471Y-48869D01*
X50369Y-48970D01*
X50315Y-49103D01*
X50314Y-49246D01*
X50314Y-49896D01*
X50369Y-50028D01*
X50440Y-50100D01*
X50165Y-50100D01*
X49900Y-49834D01*
X49900Y-40500D01*
X49869Y-40346D01*
X49869Y-40346D01*
X49840Y-40303D01*
X49782Y-40217D01*
X49782Y-40217D01*
X48782Y-39217D01*
X48653Y-39130D01*
X48627Y-39125D01*
X48582Y-39116D01*
X48581Y-39112D01*
X48468Y-38999D01*
X48580Y-38888D01*
X48684Y-38636D01*
X48685Y-38364D01*
X48581Y-38112D01*
X48468Y-37999D01*
X48580Y-37888D01*
X48684Y-37636D01*
X48685Y-37364D01*
X48581Y-37112D01*
X48388Y-36919D01*
X48136Y-36815D01*
X47864Y-36814D01*
X47612Y-36918D01*
X47499Y-37031D01*
X47388Y-36919D01*
X47136Y-36815D01*
X46864Y-36814D01*
X46612Y-36918D01*
X46499Y-37031D01*
X46388Y-36919D01*
X46136Y-36815D01*
X45864Y-36814D01*
X45760Y-36857D01*
X45760Y-36185D01*
X46396Y-36185D01*
X46500Y-36142D01*
X46603Y-36184D01*
X46746Y-36185D01*
X47396Y-36185D01*
X47500Y-36142D01*
X47603Y-36184D01*
X47746Y-36185D01*
X48396Y-36185D01*
X48528Y-36130D01*
X48630Y-36029D01*
X48684Y-35896D01*
X48685Y-35753D01*
X48685Y-35103D01*
X48630Y-34971D01*
X48564Y-34904D01*
X48580Y-34888D01*
X48684Y-34636D01*
X48685Y-34364D01*
X48581Y-34112D01*
X48468Y-33999D01*
X48580Y-33888D01*
X48684Y-33636D01*
X48685Y-33364D01*
X48581Y-33112D01*
X48468Y-32999D01*
X48580Y-32888D01*
X48684Y-32636D01*
X48685Y-32364D01*
X48581Y-32112D01*
X48468Y-31999D01*
X48580Y-31888D01*
X48684Y-31636D01*
X48685Y-31364D01*
X48581Y-31112D01*
X48468Y-30999D01*
X48580Y-30888D01*
X48684Y-30636D01*
X48685Y-30364D01*
X48581Y-30112D01*
X48468Y-29999D01*
X48580Y-29888D01*
X48684Y-29636D01*
X48685Y-29364D01*
X48581Y-29112D01*
X48468Y-28999D01*
X48580Y-28888D01*
X48684Y-28636D01*
X48685Y-28364D01*
X48581Y-28112D01*
X48478Y-28010D01*
X49361Y-28010D01*
X49369Y-28028D01*
X49470Y-28130D01*
X49603Y-28184D01*
X49746Y-28185D01*
X50396Y-28185D01*
X50528Y-28130D01*
X50630Y-28029D01*
X50684Y-27896D01*
X50685Y-27753D01*
X50685Y-27103D01*
X50630Y-26971D01*
X50529Y-26869D01*
X50396Y-26815D01*
X50253Y-26814D01*
X49906Y-26814D01*
X50036Y-26685D01*
X50396Y-26685D01*
X50528Y-26630D01*
X50630Y-26529D01*
X50684Y-26396D01*
X50685Y-26253D01*
X50685Y-25603D01*
X50630Y-25471D01*
X50529Y-25369D01*
X50396Y-25315D01*
X50253Y-25314D01*
X49650Y-25314D01*
X49650Y-24915D01*
X49915Y-24650D01*
X52250Y-24650D01*
X52250Y-24649D01*
X52377Y-24624D01*
X52403Y-24619D01*
X52403Y-24619D01*
X52532Y-24532D01*
X52930Y-24134D01*
X53125Y-24135D01*
X53359Y-24038D01*
X53538Y-23860D01*
X53634Y-23626D01*
X53635Y-23374D01*
X53538Y-23140D01*
X53400Y-23001D01*
X53400Y-21997D01*
X53538Y-21860D01*
X53634Y-21626D01*
X53635Y-21374D01*
X53538Y-21140D01*
X53360Y-20961D01*
X53126Y-20865D01*
X52874Y-20864D01*
X52640Y-20961D01*
X52461Y-21139D01*
X52365Y-21373D01*
X52364Y-21625D01*
X52461Y-21859D01*
X52600Y-21998D01*
X52600Y-23002D01*
X52461Y-23139D01*
X52365Y-23373D01*
X52364Y-23569D01*
X52084Y-23850D01*
X50542Y-23850D01*
X50634Y-23626D01*
X50635Y-23374D01*
X50635Y-21374D01*
X50538Y-21140D01*
X50360Y-20961D01*
X50126Y-20865D01*
X49874Y-20864D01*
X49640Y-20961D01*
X49538Y-21063D01*
X49391Y-20915D01*
X49137Y-20810D01*
X48863Y-20809D01*
X48609Y-20914D01*
X48499Y-21024D01*
X48391Y-20915D01*
X48137Y-20810D01*
X47863Y-20809D01*
X47609Y-20914D01*
X47415Y-21108D01*
X47310Y-21362D01*
X47309Y-21636D01*
X47414Y-21890D01*
X47608Y-22084D01*
X47862Y-22189D01*
X48136Y-22190D01*
X48390Y-22085D01*
X48500Y-21975D01*
X48608Y-22084D01*
X48862Y-22189D01*
X49136Y-22190D01*
X49390Y-22085D01*
X49538Y-21936D01*
X49639Y-22038D01*
X49873Y-22134D01*
X50125Y-22135D01*
X50359Y-22038D01*
X50538Y-21860D01*
X50634Y-21626D01*
X50635Y-21374D01*
X50635Y-23374D01*
X50538Y-23140D01*
X50360Y-22961D01*
X50126Y-22865D01*
X49874Y-22864D01*
X49640Y-22961D01*
X49538Y-23063D01*
X49391Y-22915D01*
X49137Y-22810D01*
X48863Y-22809D01*
X48609Y-22914D01*
X48499Y-23024D01*
X48391Y-22915D01*
X48137Y-22810D01*
X47863Y-22809D01*
X47609Y-22914D01*
X47415Y-23108D01*
X47310Y-23362D01*
X47309Y-23636D01*
X47414Y-23890D01*
X47608Y-24084D01*
X47862Y-24189D01*
X48136Y-24190D01*
X48390Y-24085D01*
X48500Y-23975D01*
X48608Y-24084D01*
X48862Y-24189D01*
X49136Y-24190D01*
X49319Y-24114D01*
X48967Y-24467D01*
X48880Y-24596D01*
X48875Y-24622D01*
X48850Y-24750D01*
X48850Y-25334D01*
X48685Y-25499D01*
X48685Y-25103D01*
X48630Y-24971D01*
X48529Y-24869D01*
X48396Y-24815D01*
X48253Y-24814D01*
X47603Y-24814D01*
X47471Y-24869D01*
X47369Y-24970D01*
X47315Y-25103D01*
X47314Y-25246D01*
X47314Y-25896D01*
X47353Y-25990D01*
X47285Y-25990D01*
X47285Y-23394D01*
X47203Y-23197D01*
X47053Y-23046D01*
X46856Y-22965D01*
X46644Y-22964D01*
X46447Y-23046D01*
X46393Y-23100D01*
X45000Y-23100D01*
X44846Y-23130D01*
X44803Y-23159D01*
X44717Y-23217D01*
X44135Y-23799D01*
X44135Y-21374D01*
X44038Y-21140D01*
X43860Y-20961D01*
X43626Y-20865D01*
X43374Y-20864D01*
X43140Y-20961D01*
X42961Y-21139D01*
X42865Y-21373D01*
X42864Y-21625D01*
X42961Y-21859D01*
X43139Y-22038D01*
X43373Y-22134D01*
X43625Y-22135D01*
X43859Y-22038D01*
X44038Y-21860D01*
X44134Y-21626D01*
X44135Y-21374D01*
X44135Y-23799D01*
X43469Y-24464D01*
X43394Y-24464D01*
X43197Y-24546D01*
X43046Y-24696D01*
X42965Y-24893D01*
X42964Y-25105D01*
X43046Y-25302D01*
X43196Y-25453D01*
X43393Y-25534D01*
X43605Y-25535D01*
X43802Y-25453D01*
X43953Y-25303D01*
X44034Y-25106D01*
X44034Y-25030D01*
X45165Y-23900D01*
X46393Y-23900D01*
X46446Y-23953D01*
X46643Y-24034D01*
X46855Y-24035D01*
X47052Y-23953D01*
X47203Y-23803D01*
X47284Y-23606D01*
X47285Y-23394D01*
X47285Y-25990D01*
X47000Y-25990D01*
X46804Y-26028D01*
X46639Y-26139D01*
X46288Y-26490D01*
X46035Y-26490D01*
X46035Y-26394D01*
X45953Y-26197D01*
X45803Y-26046D01*
X45606Y-25965D01*
X45394Y-25964D01*
X45333Y-25990D01*
X41465Y-25990D01*
X41552Y-25953D01*
X41633Y-25873D01*
X41653Y-25869D01*
X41653Y-25869D01*
X41782Y-25782D01*
X42782Y-24782D01*
X42782Y-24782D01*
X42840Y-24696D01*
X42869Y-24653D01*
X42869Y-24653D01*
X42899Y-24500D01*
X42900Y-24500D01*
X42900Y-24106D01*
X42953Y-24053D01*
X43034Y-23856D01*
X43035Y-23644D01*
X42953Y-23447D01*
X42881Y-23375D01*
X42953Y-23303D01*
X43034Y-23106D01*
X43035Y-22894D01*
X42953Y-22697D01*
X42803Y-22546D01*
X42606Y-22465D01*
X42394Y-22464D01*
X42197Y-22546D01*
X42046Y-22696D01*
X41965Y-22893D01*
X41965Y-22969D01*
X41613Y-23321D01*
X41538Y-23140D01*
X41478Y-23080D01*
X41478Y-23080D01*
X41580Y-22979D01*
X41634Y-22846D01*
X41635Y-22703D01*
X41635Y-22153D01*
X41580Y-22021D01*
X41479Y-21919D01*
X41346Y-21865D01*
X41203Y-21864D01*
X40653Y-21864D01*
X40521Y-21919D01*
X40500Y-21940D01*
X40479Y-21919D01*
X40346Y-21865D01*
X40203Y-21864D01*
X39653Y-21864D01*
X39521Y-21919D01*
X39419Y-22020D01*
X39365Y-22153D01*
X39364Y-22296D01*
X39364Y-22600D01*
X36665Y-22600D01*
X36553Y-22487D01*
X36553Y-22346D01*
X36553Y-22120D01*
X39120Y-22120D01*
X39120Y-20620D01*
X60239Y-20620D01*
X60017Y-20842D01*
X59840Y-21268D01*
X59839Y-21729D01*
X60016Y-22156D01*
X60342Y-22482D01*
X60768Y-22659D01*
X61229Y-22660D01*
X61656Y-22483D01*
X61880Y-22260D01*
X61880Y-34814D01*
X61864Y-34814D01*
X61612Y-34918D01*
X61499Y-35031D01*
X61388Y-34919D01*
X61136Y-34815D01*
X60864Y-34814D01*
X60710Y-34878D01*
X60710Y-27359D01*
X60602Y-27098D01*
X60402Y-26898D01*
X60141Y-26790D01*
X59859Y-26789D01*
X59598Y-26897D01*
X59398Y-27097D01*
X59290Y-27358D01*
X59289Y-27640D01*
X59397Y-27901D01*
X59597Y-28101D01*
X59858Y-28209D01*
X60140Y-28210D01*
X60401Y-28102D01*
X60601Y-27902D01*
X60709Y-27641D01*
X60710Y-27359D01*
X60710Y-34878D01*
X60612Y-34918D01*
X60499Y-35031D01*
X60388Y-34919D01*
X60136Y-34815D01*
X59864Y-34814D01*
X59612Y-34918D01*
X59499Y-35031D01*
X59388Y-34919D01*
X59136Y-34815D01*
X58864Y-34814D01*
X58612Y-34918D01*
X58499Y-35031D01*
X58388Y-34919D01*
X58136Y-34815D01*
X57864Y-34814D01*
X57635Y-34909D01*
X57635Y-30374D01*
X57538Y-30140D01*
X57360Y-29961D01*
X57126Y-29865D01*
X56874Y-29864D01*
X56640Y-29961D01*
X56535Y-30066D01*
X56388Y-29919D01*
X56136Y-29815D01*
X55864Y-29814D01*
X55612Y-29918D01*
X55499Y-30031D01*
X55388Y-29919D01*
X55136Y-29815D01*
X54864Y-29814D01*
X54612Y-29918D01*
X54419Y-30111D01*
X54315Y-30363D01*
X54314Y-30635D01*
X54418Y-30887D01*
X54611Y-31080D01*
X54863Y-31184D01*
X55135Y-31185D01*
X55387Y-31081D01*
X55500Y-30968D01*
X55611Y-31080D01*
X55863Y-31184D01*
X56135Y-31185D01*
X56387Y-31081D01*
X56535Y-30933D01*
X56639Y-31038D01*
X56873Y-31134D01*
X57125Y-31135D01*
X57359Y-31038D01*
X57538Y-30860D01*
X57634Y-30626D01*
X57635Y-30374D01*
X57635Y-34909D01*
X57612Y-34918D01*
X57499Y-35031D01*
X57388Y-34919D01*
X57136Y-34815D01*
X56864Y-34814D01*
X56612Y-34918D01*
X56499Y-35031D01*
X56388Y-34919D01*
X56136Y-34815D01*
X55864Y-34814D01*
X55612Y-34918D01*
X55499Y-35031D01*
X55388Y-34919D01*
X55136Y-34815D01*
X54864Y-34814D01*
X54612Y-34918D01*
X54499Y-35031D01*
X54388Y-34919D01*
X54136Y-34815D01*
X53864Y-34814D01*
X53612Y-34918D01*
X53499Y-35031D01*
X53388Y-34919D01*
X53136Y-34815D01*
X52864Y-34814D01*
X52612Y-34918D01*
X52499Y-35031D01*
X52388Y-34919D01*
X52136Y-34815D01*
X51864Y-34814D01*
X51612Y-34918D01*
X51499Y-35031D01*
X51388Y-34919D01*
X51136Y-34815D01*
X50864Y-34814D01*
X50684Y-34889D01*
X50685Y-34753D01*
X50685Y-34103D01*
X50630Y-33971D01*
X50564Y-33904D01*
X50580Y-33888D01*
X50684Y-33636D01*
X50685Y-33364D01*
X50581Y-33112D01*
X50468Y-32999D01*
X50580Y-32888D01*
X50684Y-32636D01*
X50685Y-32364D01*
X50581Y-32112D01*
X50468Y-31999D01*
X50580Y-31888D01*
X50684Y-31636D01*
X50685Y-31364D01*
X50581Y-31112D01*
X50478Y-31010D01*
X51041Y-31010D01*
X51111Y-31080D01*
X51363Y-31184D01*
X51635Y-31185D01*
X51887Y-31081D01*
X52080Y-30888D01*
X52184Y-30636D01*
X52184Y-30536D01*
X52961Y-29760D01*
X55750Y-29760D01*
X55945Y-29721D01*
X55945Y-29721D01*
X56110Y-29610D01*
X56360Y-29360D01*
X56360Y-29360D01*
X56360Y-29360D01*
X57536Y-28185D01*
X57896Y-28185D01*
X58028Y-28130D01*
X58130Y-28029D01*
X58184Y-27896D01*
X58185Y-27753D01*
X58185Y-27103D01*
X58130Y-26971D01*
X58029Y-26869D01*
X58010Y-26862D01*
X58010Y-26211D01*
X58011Y-26210D01*
X58421Y-26210D01*
X58553Y-26155D01*
X58655Y-26054D01*
X58673Y-26010D01*
X59505Y-26010D01*
X59597Y-26101D01*
X59858Y-26209D01*
X60140Y-26210D01*
X60401Y-26102D01*
X60601Y-25902D01*
X60709Y-25641D01*
X60710Y-25359D01*
X60602Y-25098D01*
X60402Y-24898D01*
X60141Y-24790D01*
X59859Y-24789D01*
X59598Y-24897D01*
X59505Y-24990D01*
X58673Y-24990D01*
X58655Y-24946D01*
X58554Y-24844D01*
X58421Y-24790D01*
X58278Y-24789D01*
X58012Y-24789D01*
X58048Y-24701D01*
X58049Y-24558D01*
X58049Y-23180D01*
X57994Y-23048D01*
X57893Y-22946D01*
X57760Y-22892D01*
X57617Y-22891D01*
X56239Y-22891D01*
X56107Y-22946D01*
X56005Y-23047D01*
X55951Y-23180D01*
X55950Y-23323D01*
X55950Y-23431D01*
X55059Y-23431D01*
X54863Y-23469D01*
X54698Y-23580D01*
X53639Y-24639D01*
X53528Y-24804D01*
X53490Y-25000D01*
X53490Y-25005D01*
X53398Y-25097D01*
X53290Y-25358D01*
X53289Y-25640D01*
X53397Y-25901D01*
X53597Y-26101D01*
X53858Y-26209D01*
X54140Y-26210D01*
X54401Y-26102D01*
X54601Y-25902D01*
X54709Y-25641D01*
X54710Y-25359D01*
X54608Y-25112D01*
X55270Y-24451D01*
X55950Y-24451D01*
X55950Y-24701D01*
X56005Y-24833D01*
X56106Y-24935D01*
X56239Y-24989D01*
X56382Y-24990D01*
X57326Y-24990D01*
X57290Y-25078D01*
X57289Y-25221D01*
X57289Y-25488D01*
X57139Y-25639D01*
X57028Y-25804D01*
X56990Y-26000D01*
X56990Y-26861D01*
X56971Y-26869D01*
X56869Y-26970D01*
X56815Y-27103D01*
X56814Y-27246D01*
X56814Y-27463D01*
X55685Y-28593D01*
X55685Y-27753D01*
X55685Y-27103D01*
X55630Y-26971D01*
X55529Y-26869D01*
X55396Y-26815D01*
X55253Y-26814D01*
X54603Y-26814D01*
X54471Y-26869D01*
X54369Y-26970D01*
X54315Y-27103D01*
X54314Y-27246D01*
X54314Y-27896D01*
X54369Y-28028D01*
X54470Y-28130D01*
X54603Y-28184D01*
X54746Y-28185D01*
X55396Y-28185D01*
X55528Y-28130D01*
X55630Y-28029D01*
X55684Y-27896D01*
X55685Y-27753D01*
X55685Y-28593D01*
X55639Y-28639D01*
X55639Y-28639D01*
X55538Y-28740D01*
X53185Y-28740D01*
X53185Y-27753D01*
X53185Y-27103D01*
X53130Y-26971D01*
X53029Y-26869D01*
X52896Y-26815D01*
X52753Y-26814D01*
X52103Y-26814D01*
X51971Y-26869D01*
X51869Y-26970D01*
X51815Y-27103D01*
X51814Y-27246D01*
X51814Y-27896D01*
X51869Y-28028D01*
X51970Y-28130D01*
X52103Y-28184D01*
X52246Y-28185D01*
X52896Y-28185D01*
X53028Y-28130D01*
X53130Y-28029D01*
X53184Y-27896D01*
X53185Y-27753D01*
X53185Y-28740D01*
X52750Y-28740D01*
X52554Y-28778D01*
X52389Y-28889D01*
X51463Y-29814D01*
X51364Y-29814D01*
X51112Y-29918D01*
X51041Y-29990D01*
X50458Y-29990D01*
X50388Y-29919D01*
X50136Y-29815D01*
X49864Y-29814D01*
X49612Y-29918D01*
X49419Y-30111D01*
X49315Y-30363D01*
X49314Y-30635D01*
X49418Y-30887D01*
X49531Y-31000D01*
X49419Y-31111D01*
X49315Y-31363D01*
X49314Y-31635D01*
X49418Y-31887D01*
X49531Y-32000D01*
X49419Y-32111D01*
X49315Y-32363D01*
X49314Y-32635D01*
X49418Y-32887D01*
X49531Y-33000D01*
X49419Y-33111D01*
X49315Y-33363D01*
X49314Y-33635D01*
X49418Y-33887D01*
X49436Y-33904D01*
X49369Y-33970D01*
X49315Y-34103D01*
X49314Y-34246D01*
X49314Y-34896D01*
X49369Y-35028D01*
X49470Y-35130D01*
X49603Y-35184D01*
X49746Y-35185D01*
X50389Y-35185D01*
X50315Y-35363D01*
X50314Y-35635D01*
X50418Y-35887D01*
X50490Y-35958D01*
X50490Y-36041D01*
X50419Y-36111D01*
X50315Y-36363D01*
X50314Y-36635D01*
X50418Y-36887D01*
X50490Y-36958D01*
X50490Y-37041D01*
X50419Y-37111D01*
X50315Y-37363D01*
X50314Y-37635D01*
X50418Y-37887D01*
X50490Y-37958D01*
X50490Y-38041D01*
X50419Y-38111D01*
X50315Y-38363D01*
X50314Y-38635D01*
X50418Y-38887D01*
X50490Y-38958D01*
X50490Y-39041D01*
X50419Y-39111D01*
X50315Y-39363D01*
X50314Y-39635D01*
X50418Y-39887D01*
X50531Y-40000D01*
X50419Y-40111D01*
X50315Y-40363D01*
X50314Y-40635D01*
X50418Y-40887D01*
X50531Y-41000D01*
X50419Y-41111D01*
X50315Y-41363D01*
X50314Y-41635D01*
X50418Y-41887D01*
X50531Y-42000D01*
X50419Y-42111D01*
X50315Y-42363D01*
X50314Y-42635D01*
X50418Y-42887D01*
X50490Y-42958D01*
X50490Y-43041D01*
X50419Y-43111D01*
X50315Y-43363D01*
X50314Y-43635D01*
X50418Y-43887D01*
X50490Y-43958D01*
X50490Y-44041D01*
X50419Y-44111D01*
X50315Y-44363D01*
X50314Y-44635D01*
X50418Y-44887D01*
X50490Y-44958D01*
X50490Y-45000D01*
X50490Y-45041D01*
X50419Y-45111D01*
X50315Y-45363D01*
X50314Y-45635D01*
X50418Y-45887D01*
X50490Y-45958D01*
X50490Y-46041D01*
X50419Y-46111D01*
X50315Y-46363D01*
X50314Y-46635D01*
X50418Y-46887D01*
X50611Y-47080D01*
X50863Y-47184D01*
X51135Y-47185D01*
X51387Y-47081D01*
X51500Y-46968D01*
X51611Y-47080D01*
X51863Y-47184D01*
X52135Y-47185D01*
X52387Y-47081D01*
X52500Y-46968D01*
X52611Y-47080D01*
X52863Y-47184D01*
X53135Y-47185D01*
X53387Y-47081D01*
X53500Y-46968D01*
X53611Y-47080D01*
X53863Y-47184D01*
X54135Y-47185D01*
X54387Y-47081D01*
X54500Y-46968D01*
X54611Y-47080D01*
X54863Y-47184D01*
X55135Y-47185D01*
X55387Y-47081D01*
X55500Y-46968D01*
X55611Y-47080D01*
X55863Y-47184D01*
X56135Y-47185D01*
X56387Y-47081D01*
X56500Y-46968D01*
X56611Y-47080D01*
X56863Y-47184D01*
X57135Y-47185D01*
X57387Y-47081D01*
X57500Y-46968D01*
X57611Y-47080D01*
X57863Y-47184D01*
X58135Y-47185D01*
X58387Y-47081D01*
X58500Y-46968D01*
X58611Y-47080D01*
X58863Y-47184D01*
X59135Y-47185D01*
X59387Y-47081D01*
X59500Y-46968D01*
X59611Y-47080D01*
X59863Y-47184D01*
X60135Y-47185D01*
X60387Y-47081D01*
X60500Y-46968D01*
X60611Y-47080D01*
X60863Y-47184D01*
X61135Y-47185D01*
X61387Y-47081D01*
X61500Y-46968D01*
X61611Y-47080D01*
X61863Y-47184D01*
X61880Y-47184D01*
X61880Y-48814D01*
G54D10*
G36*
X61880Y-55739D02*
X61657Y-55517D01*
X61231Y-55340D01*
X60770Y-55339D01*
X60343Y-55516D01*
X60185Y-55674D01*
X60185Y-53364D01*
X60081Y-53112D01*
X59888Y-52919D01*
X59636Y-52815D01*
X59364Y-52814D01*
X59112Y-52918D01*
X58919Y-53111D01*
X58815Y-53363D01*
X58814Y-53635D01*
X58918Y-53887D01*
X59111Y-54080D01*
X59363Y-54184D01*
X59635Y-54185D01*
X59887Y-54081D01*
X60080Y-53888D01*
X60184Y-53636D01*
X60185Y-53364D01*
X60185Y-55674D01*
X60017Y-55842D01*
X59840Y-56268D01*
X59839Y-56729D01*
X60016Y-57156D01*
X60239Y-57380D01*
X48685Y-57380D01*
X48685Y-52064D01*
X48581Y-51812D01*
X48388Y-51619D01*
X48136Y-51515D01*
X47864Y-51514D01*
X47612Y-51618D01*
X47419Y-51811D01*
X47315Y-52063D01*
X47314Y-52335D01*
X47418Y-52587D01*
X47611Y-52780D01*
X47863Y-52884D01*
X48135Y-52885D01*
X48387Y-52781D01*
X48580Y-52588D01*
X48684Y-52336D01*
X48685Y-52064D01*
X48685Y-57380D01*
X45184Y-57380D01*
X45185Y-57253D01*
X45185Y-56603D01*
X45130Y-56471D01*
X45029Y-56369D01*
X44896Y-56315D01*
X44753Y-56314D01*
X44103Y-56314D01*
X43971Y-56369D01*
X43904Y-56435D01*
X43888Y-56419D01*
X43636Y-56315D01*
X43364Y-56314D01*
X43112Y-56418D01*
X42999Y-56531D01*
X42888Y-56419D01*
X42636Y-56315D01*
X42364Y-56314D01*
X42112Y-56418D01*
X41919Y-56611D01*
X41815Y-56863D01*
X41814Y-57135D01*
X41915Y-57380D01*
X36083Y-57380D01*
X36184Y-57136D01*
X36185Y-56864D01*
X36081Y-56612D01*
X35888Y-56419D01*
X35636Y-56315D01*
X35364Y-56314D01*
X35112Y-56418D01*
X34999Y-56531D01*
X34888Y-56419D01*
X34636Y-56315D01*
X34364Y-56314D01*
X34112Y-56418D01*
X34095Y-56436D01*
X34029Y-56369D01*
X33896Y-56315D01*
X33753Y-56314D01*
X33103Y-56314D01*
X32971Y-56369D01*
X32869Y-56470D01*
X32815Y-56603D01*
X32814Y-56746D01*
X32814Y-57380D01*
X32120Y-57380D01*
X32120Y-55874D01*
X32250Y-55900D01*
X36931Y-55900D01*
X37031Y-56000D01*
X36919Y-56111D01*
X36815Y-56363D01*
X36814Y-56635D01*
X36918Y-56887D01*
X37111Y-57080D01*
X37363Y-57184D01*
X37635Y-57185D01*
X37887Y-57081D01*
X38080Y-56888D01*
X38184Y-56636D01*
X38185Y-56364D01*
X38081Y-56112D01*
X37968Y-55999D01*
X38080Y-55888D01*
X38184Y-55636D01*
X38185Y-55364D01*
X38081Y-55112D01*
X37968Y-54999D01*
X38080Y-54888D01*
X38184Y-54636D01*
X38185Y-54364D01*
X38081Y-54112D01*
X37888Y-53919D01*
X37636Y-53815D01*
X37364Y-53814D01*
X37112Y-53918D01*
X36919Y-54111D01*
X36815Y-54363D01*
X36814Y-54635D01*
X36918Y-54887D01*
X37031Y-55000D01*
X36931Y-55100D01*
X36210Y-55100D01*
X36210Y-52778D01*
X36210Y-52078D01*
X36155Y-51946D01*
X36054Y-51844D01*
X35921Y-51790D01*
X35778Y-51789D01*
X35078Y-51789D01*
X34946Y-51844D01*
X34895Y-51895D01*
X34641Y-51790D01*
X34359Y-51789D01*
X34210Y-51851D01*
X34210Y-50778D01*
X34210Y-50078D01*
X34155Y-49946D01*
X34054Y-49844D01*
X33921Y-49790D01*
X33778Y-49789D01*
X33078Y-49789D01*
X32946Y-49844D01*
X32844Y-49945D01*
X32790Y-50078D01*
X32789Y-50221D01*
X32789Y-50921D01*
X32844Y-51053D01*
X32945Y-51155D01*
X33078Y-51209D01*
X33221Y-51210D01*
X33921Y-51210D01*
X34053Y-51155D01*
X34155Y-51054D01*
X34209Y-50921D01*
X34210Y-50778D01*
X34210Y-51851D01*
X34098Y-51897D01*
X33898Y-52097D01*
X33790Y-52358D01*
X33789Y-52640D01*
X33897Y-52901D01*
X34097Y-53101D01*
X34358Y-53209D01*
X34640Y-53210D01*
X34895Y-53104D01*
X34945Y-53155D01*
X35078Y-53209D01*
X35221Y-53210D01*
X35921Y-53210D01*
X36053Y-53155D01*
X36155Y-53054D01*
X36209Y-52921D01*
X36210Y-52778D01*
X36210Y-55100D01*
X33903Y-55100D01*
X34101Y-54902D01*
X34209Y-54641D01*
X34210Y-54359D01*
X34102Y-54098D01*
X33902Y-53898D01*
X33641Y-53790D01*
X33359Y-53789D01*
X33104Y-53895D01*
X33054Y-53844D01*
X32921Y-53790D01*
X32778Y-53789D01*
X32150Y-53789D01*
X32150Y-50165D01*
X32782Y-49532D01*
X32782Y-49532D01*
X32840Y-49446D01*
X32869Y-49403D01*
X32869Y-49403D01*
X32899Y-49250D01*
X32900Y-49250D01*
X32900Y-47568D01*
X33000Y-47468D01*
X33111Y-47580D01*
X33116Y-47582D01*
X33125Y-47627D01*
X33130Y-47653D01*
X33217Y-47782D01*
X33467Y-48032D01*
X33467Y-48032D01*
X33553Y-48090D01*
X33596Y-48119D01*
X33596Y-48119D01*
X33750Y-48150D01*
X33790Y-48150D01*
X33789Y-48221D01*
X33789Y-48921D01*
X33844Y-49053D01*
X33945Y-49155D01*
X34078Y-49209D01*
X34221Y-49210D01*
X34921Y-49210D01*
X35053Y-49155D01*
X35155Y-49054D01*
X35209Y-48921D01*
X35210Y-48778D01*
X35210Y-48150D01*
X36334Y-48150D01*
X36600Y-48415D01*
X36600Y-50000D01*
X36625Y-50127D01*
X36630Y-50153D01*
X36717Y-50282D01*
X36815Y-50380D01*
X36814Y-50635D01*
X36918Y-50887D01*
X37031Y-51000D01*
X36919Y-51111D01*
X36815Y-51363D01*
X36814Y-51635D01*
X36918Y-51887D01*
X37111Y-52080D01*
X37363Y-52184D01*
X37635Y-52185D01*
X37887Y-52081D01*
X38080Y-51888D01*
X38184Y-51636D01*
X38185Y-51364D01*
X38081Y-51112D01*
X37968Y-50999D01*
X38080Y-50888D01*
X38184Y-50636D01*
X38185Y-50364D01*
X38081Y-50112D01*
X38063Y-50095D01*
X38130Y-50029D01*
X38184Y-49896D01*
X38185Y-49753D01*
X38185Y-49103D01*
X38130Y-48971D01*
X38029Y-48869D01*
X37900Y-48816D01*
X37900Y-48000D01*
X37869Y-47846D01*
X37869Y-47846D01*
X37840Y-47803D01*
X37782Y-47717D01*
X37782Y-47717D01*
X36782Y-46717D01*
X36653Y-46630D01*
X36627Y-46625D01*
X36500Y-46600D01*
X35183Y-46600D01*
X35130Y-46471D01*
X35029Y-46369D01*
X34896Y-46315D01*
X34753Y-46314D01*
X34103Y-46314D01*
X33971Y-46369D01*
X33904Y-46435D01*
X33888Y-46419D01*
X33636Y-46315D01*
X33364Y-46314D01*
X33112Y-46418D01*
X32999Y-46531D01*
X32888Y-46419D01*
X32636Y-46315D01*
X32364Y-46314D01*
X32112Y-46418D01*
X31919Y-46611D01*
X31875Y-46718D01*
X31831Y-46612D01*
X31638Y-46419D01*
X31591Y-46400D01*
X32000Y-46400D01*
X32000Y-46399D01*
X32127Y-46374D01*
X32153Y-46369D01*
X32153Y-46369D01*
X32282Y-46282D01*
X36886Y-41678D01*
X36961Y-41859D01*
X37101Y-42000D01*
X36961Y-42139D01*
X36865Y-42373D01*
X36864Y-42625D01*
X36961Y-42859D01*
X37101Y-43000D01*
X36961Y-43139D01*
X36865Y-43373D01*
X36864Y-43625D01*
X36961Y-43859D01*
X37101Y-44000D01*
X36961Y-44139D01*
X36865Y-44373D01*
X36864Y-44625D01*
X36961Y-44859D01*
X37139Y-45038D01*
X37373Y-45134D01*
X37625Y-45135D01*
X37859Y-45038D01*
X38038Y-44860D01*
X38134Y-44626D01*
X38135Y-44374D01*
X38038Y-44140D01*
X37898Y-43999D01*
X38038Y-43860D01*
X38134Y-43626D01*
X38135Y-43374D01*
X38038Y-43140D01*
X37898Y-42999D01*
X38038Y-42860D01*
X38134Y-42626D01*
X38135Y-42374D01*
X38038Y-42140D01*
X37898Y-41999D01*
X38038Y-41860D01*
X38134Y-41626D01*
X38135Y-41374D01*
X38038Y-41140D01*
X37898Y-40999D01*
X38038Y-40860D01*
X38134Y-40626D01*
X38135Y-40374D01*
X38038Y-40140D01*
X37898Y-39999D01*
X38038Y-39860D01*
X38134Y-39626D01*
X38135Y-39374D01*
X38038Y-39140D01*
X37898Y-38999D01*
X38038Y-38860D01*
X38134Y-38626D01*
X38135Y-38374D01*
X38038Y-38140D01*
X37898Y-37999D01*
X38038Y-37860D01*
X38134Y-37626D01*
X38135Y-37374D01*
X38038Y-37140D01*
X37898Y-36999D01*
X38038Y-36860D01*
X38134Y-36626D01*
X38135Y-36400D01*
X39500Y-36400D01*
X39500Y-36399D01*
X39627Y-36374D01*
X39653Y-36369D01*
X39653Y-36369D01*
X39782Y-36282D01*
X39925Y-36139D01*
X40126Y-36140D01*
X40362Y-36042D01*
X40505Y-35900D01*
X41431Y-35900D01*
X41611Y-36080D01*
X41863Y-36184D01*
X42135Y-36185D01*
X42387Y-36081D01*
X42580Y-35888D01*
X42684Y-35636D01*
X42685Y-35364D01*
X42581Y-35112D01*
X42388Y-34919D01*
X42136Y-34815D01*
X41864Y-34814D01*
X41612Y-34918D01*
X41431Y-35100D01*
X40505Y-35100D01*
X40363Y-34957D01*
X40127Y-34860D01*
X39873Y-34859D01*
X39637Y-34957D01*
X39457Y-35136D01*
X39360Y-35372D01*
X39359Y-35574D01*
X39334Y-35600D01*
X38134Y-35600D01*
X38135Y-35400D01*
X38500Y-35400D01*
X38500Y-35399D01*
X38627Y-35374D01*
X38653Y-35369D01*
X38653Y-35369D01*
X38782Y-35282D01*
X39925Y-34139D01*
X40126Y-34140D01*
X40362Y-34042D01*
X40505Y-33900D01*
X41431Y-33900D01*
X41611Y-34080D01*
X41863Y-34184D01*
X42135Y-34185D01*
X42387Y-34081D01*
X42580Y-33888D01*
X42684Y-33636D01*
X42685Y-33364D01*
X42581Y-33112D01*
X42388Y-32919D01*
X42136Y-32815D01*
X41864Y-32814D01*
X41612Y-32918D01*
X41431Y-33100D01*
X40505Y-33100D01*
X40363Y-32957D01*
X40127Y-32860D01*
X39873Y-32859D01*
X39637Y-32957D01*
X39457Y-33136D01*
X39360Y-33372D01*
X39359Y-33574D01*
X38334Y-34600D01*
X35750Y-34600D01*
X35622Y-34625D01*
X35596Y-34630D01*
X35467Y-34717D01*
X33084Y-37100D01*
X31997Y-37100D01*
X31860Y-36961D01*
X31626Y-36865D01*
X31374Y-36864D01*
X31140Y-36961D01*
X30961Y-37139D01*
X30865Y-37373D01*
X30864Y-37625D01*
X30961Y-37859D01*
X31101Y-38000D01*
X30961Y-38139D01*
X30865Y-38373D01*
X30864Y-38625D01*
X30961Y-38859D01*
X31101Y-39000D01*
X30961Y-39139D01*
X30865Y-39373D01*
X30864Y-39625D01*
X30961Y-39859D01*
X31101Y-40000D01*
X30961Y-40139D01*
X30865Y-40373D01*
X30864Y-40625D01*
X30961Y-40859D01*
X31101Y-41000D01*
X30961Y-41139D01*
X30865Y-41373D01*
X30864Y-41625D01*
X30961Y-41859D01*
X31101Y-42000D01*
X30961Y-42139D01*
X30865Y-42373D01*
X30864Y-42625D01*
X30961Y-42859D01*
X31101Y-43000D01*
X30961Y-43139D01*
X30865Y-43373D01*
X30864Y-43625D01*
X30961Y-43859D01*
X31101Y-44000D01*
X30961Y-44139D01*
X30865Y-44373D01*
X30864Y-44625D01*
X30961Y-44859D01*
X31139Y-45038D01*
X31289Y-45100D01*
X30656Y-45100D01*
X30703Y-45053D01*
X30784Y-44856D01*
X30785Y-44644D01*
X30703Y-44447D01*
X30650Y-44393D01*
X30650Y-39106D01*
X30703Y-39053D01*
X30784Y-38856D01*
X30785Y-38644D01*
X30703Y-38447D01*
X30553Y-38296D01*
X30356Y-38215D01*
X30144Y-38214D01*
X29999Y-38274D01*
X29856Y-38215D01*
X29644Y-38214D01*
X29447Y-38296D01*
X29296Y-38446D01*
X29215Y-38643D01*
X29214Y-38855D01*
X29296Y-39052D01*
X29350Y-39106D01*
X29350Y-39128D01*
X27685Y-37463D01*
X27685Y-37364D01*
X27581Y-37112D01*
X27388Y-36919D01*
X27136Y-36815D01*
X26864Y-36814D01*
X26612Y-36918D01*
X26541Y-36990D01*
X26458Y-36990D01*
X26388Y-36919D01*
X26136Y-36815D01*
X25864Y-36814D01*
X25612Y-36918D01*
X25541Y-36990D01*
X25458Y-36990D01*
X25388Y-36919D01*
X25136Y-36815D01*
X25120Y-36815D01*
X25120Y-35185D01*
X25135Y-35185D01*
X25387Y-35081D01*
X25458Y-35010D01*
X25541Y-35010D01*
X25611Y-35080D01*
X25863Y-35184D01*
X26135Y-35185D01*
X26387Y-35081D01*
X26458Y-35010D01*
X26541Y-35010D01*
X26611Y-35080D01*
X26863Y-35184D01*
X27135Y-35185D01*
X27387Y-35081D01*
X27458Y-35010D01*
X30041Y-35010D01*
X30111Y-35080D01*
X30363Y-35184D01*
X30463Y-35184D01*
X30864Y-35586D01*
X30864Y-35625D01*
X30961Y-35859D01*
X31139Y-36038D01*
X31373Y-36134D01*
X31625Y-36135D01*
X31859Y-36038D01*
X31887Y-36010D01*
X32750Y-36010D01*
X33500Y-36010D01*
X33695Y-35971D01*
X33695Y-35971D01*
X33860Y-35860D01*
X35711Y-34010D01*
X37111Y-34010D01*
X37139Y-34038D01*
X37373Y-34134D01*
X37625Y-34135D01*
X37859Y-34038D01*
X38038Y-33860D01*
X38134Y-33626D01*
X38134Y-33586D01*
X38860Y-32860D01*
X39211Y-32510D01*
X39541Y-32510D01*
X39611Y-32580D01*
X39863Y-32684D01*
X40135Y-32685D01*
X40387Y-32581D01*
X40580Y-32388D01*
X40684Y-32136D01*
X40685Y-31864D01*
X40581Y-31612D01*
X40388Y-31419D01*
X40136Y-31315D01*
X39864Y-31314D01*
X39612Y-31418D01*
X39541Y-31490D01*
X39510Y-31490D01*
X39510Y-28711D01*
X40711Y-27510D01*
X45268Y-27510D01*
X44889Y-27889D01*
X44778Y-28054D01*
X44740Y-28250D01*
X44740Y-28500D01*
X44740Y-43500D01*
X44740Y-44750D01*
X44740Y-45538D01*
X44538Y-45740D01*
X43635Y-45740D01*
X43635Y-44374D01*
X43635Y-40374D01*
X43538Y-40140D01*
X43400Y-40001D01*
X43400Y-39250D01*
X43399Y-39249D01*
X43369Y-39096D01*
X43369Y-39096D01*
X43340Y-39053D01*
X43282Y-38967D01*
X43282Y-38967D01*
X42532Y-38217D01*
X42403Y-38130D01*
X42377Y-38125D01*
X42250Y-38100D01*
X41568Y-38100D01*
X41388Y-37919D01*
X41136Y-37815D01*
X40864Y-37814D01*
X40612Y-37918D01*
X40499Y-38031D01*
X40388Y-37919D01*
X40136Y-37815D01*
X39864Y-37814D01*
X39612Y-37918D01*
X39419Y-38111D01*
X39315Y-38363D01*
X39314Y-38635D01*
X39418Y-38887D01*
X39611Y-39080D01*
X39863Y-39184D01*
X40135Y-39185D01*
X40387Y-39081D01*
X40500Y-38968D01*
X40611Y-39080D01*
X40863Y-39184D01*
X41135Y-39185D01*
X41387Y-39081D01*
X41568Y-38900D01*
X42084Y-38900D01*
X42600Y-39415D01*
X42600Y-40002D01*
X42499Y-40101D01*
X42360Y-39961D01*
X42126Y-39865D01*
X41874Y-39864D01*
X41640Y-39961D01*
X41535Y-40066D01*
X41388Y-39919D01*
X41136Y-39815D01*
X40864Y-39814D01*
X40612Y-39918D01*
X40499Y-40031D01*
X40388Y-39919D01*
X40136Y-39815D01*
X39864Y-39814D01*
X39612Y-39918D01*
X39419Y-40111D01*
X39315Y-40363D01*
X39314Y-40635D01*
X39418Y-40887D01*
X39611Y-41080D01*
X39863Y-41184D01*
X40135Y-41185D01*
X40387Y-41081D01*
X40500Y-40968D01*
X40611Y-41080D01*
X40863Y-41184D01*
X41135Y-41185D01*
X41387Y-41081D01*
X41535Y-40933D01*
X41639Y-41038D01*
X41873Y-41134D01*
X42125Y-41135D01*
X42359Y-41038D01*
X42500Y-40898D01*
X42639Y-41038D01*
X42873Y-41134D01*
X43125Y-41135D01*
X43359Y-41038D01*
X43538Y-40860D01*
X43634Y-40626D01*
X43635Y-40374D01*
X43635Y-44374D01*
X43538Y-44140D01*
X43360Y-43961D01*
X43126Y-43865D01*
X42874Y-43864D01*
X42640Y-43961D01*
X42499Y-44101D01*
X42360Y-43961D01*
X42126Y-43865D01*
X41874Y-43864D01*
X41685Y-43943D01*
X41685Y-42364D01*
X41581Y-42112D01*
X41388Y-41919D01*
X41136Y-41815D01*
X40864Y-41814D01*
X40612Y-41918D01*
X40499Y-42031D01*
X40388Y-41919D01*
X40136Y-41815D01*
X39864Y-41814D01*
X39612Y-41918D01*
X39419Y-42111D01*
X39315Y-42363D01*
X39314Y-42635D01*
X39418Y-42887D01*
X39611Y-43080D01*
X39863Y-43184D01*
X40135Y-43185D01*
X40387Y-43081D01*
X40500Y-42968D01*
X40611Y-43080D01*
X40863Y-43184D01*
X41135Y-43185D01*
X41387Y-43081D01*
X41580Y-42888D01*
X41684Y-42636D01*
X41685Y-42364D01*
X41685Y-43943D01*
X41640Y-43961D01*
X41535Y-44066D01*
X41388Y-43919D01*
X41136Y-43815D01*
X40864Y-43814D01*
X40612Y-43918D01*
X40499Y-44031D01*
X40388Y-43919D01*
X40136Y-43815D01*
X39864Y-43814D01*
X39612Y-43918D01*
X39419Y-44111D01*
X39315Y-44363D01*
X39314Y-44635D01*
X39418Y-44887D01*
X39611Y-45080D01*
X39863Y-45184D01*
X40135Y-45185D01*
X40387Y-45081D01*
X40500Y-44968D01*
X40611Y-45080D01*
X40863Y-45184D01*
X41135Y-45185D01*
X41387Y-45081D01*
X41535Y-44933D01*
X41639Y-45038D01*
X41873Y-45134D01*
X42125Y-45135D01*
X42359Y-45038D01*
X42500Y-44898D01*
X42639Y-45038D01*
X42873Y-45134D01*
X43125Y-45135D01*
X43359Y-45038D01*
X43538Y-44860D01*
X43634Y-44626D01*
X43635Y-44374D01*
X43635Y-45740D01*
X43250Y-45740D01*
X43054Y-45778D01*
X42889Y-45889D01*
X42538Y-46240D01*
X41500Y-46240D01*
X41304Y-46278D01*
X41139Y-46389D01*
X40139Y-47389D01*
X40028Y-47554D01*
X39990Y-47750D01*
X39990Y-49041D01*
X39919Y-49111D01*
X39815Y-49363D01*
X39814Y-49635D01*
X39918Y-49887D01*
X40031Y-50000D01*
X39919Y-50111D01*
X39815Y-50363D01*
X39814Y-50635D01*
X39918Y-50887D01*
X40031Y-51000D01*
X39919Y-51111D01*
X39815Y-51363D01*
X39814Y-51635D01*
X39918Y-51887D01*
X40111Y-52080D01*
X40363Y-52184D01*
X40635Y-52185D01*
X40887Y-52081D01*
X41080Y-51888D01*
X41184Y-51636D01*
X41185Y-51364D01*
X41081Y-51112D01*
X40968Y-50999D01*
X41080Y-50888D01*
X41184Y-50636D01*
X41185Y-50380D01*
X41282Y-50282D01*
X41282Y-50282D01*
X41340Y-50196D01*
X41369Y-50153D01*
X41369Y-50153D01*
X41399Y-50000D01*
X41400Y-50000D01*
X41400Y-48165D01*
X41915Y-47650D01*
X43000Y-47650D01*
X43000Y-47649D01*
X43127Y-47624D01*
X43153Y-47619D01*
X43153Y-47619D01*
X43173Y-47606D01*
X43363Y-47684D01*
X43635Y-47685D01*
X43887Y-47581D01*
X44000Y-47468D01*
X44100Y-47568D01*
X44100Y-47890D01*
X44054Y-47844D01*
X43921Y-47790D01*
X43778Y-47789D01*
X43078Y-47789D01*
X42946Y-47844D01*
X42844Y-47945D01*
X42790Y-48078D01*
X42789Y-48221D01*
X42789Y-48921D01*
X42844Y-49053D01*
X42945Y-49155D01*
X43078Y-49209D01*
X43221Y-49210D01*
X43921Y-49210D01*
X44053Y-49155D01*
X44155Y-49054D01*
X44209Y-48921D01*
X44210Y-48778D01*
X44210Y-48772D01*
X44217Y-48782D01*
X45850Y-50415D01*
X45850Y-53790D01*
X45778Y-53789D01*
X45210Y-53789D01*
X45210Y-50778D01*
X45210Y-50078D01*
X45155Y-49946D01*
X45054Y-49844D01*
X44921Y-49790D01*
X44778Y-49789D01*
X44078Y-49789D01*
X43946Y-49844D01*
X43844Y-49945D01*
X43790Y-50078D01*
X43789Y-50221D01*
X43789Y-50921D01*
X43844Y-51053D01*
X43945Y-51155D01*
X44078Y-51209D01*
X44221Y-51210D01*
X44921Y-51210D01*
X45053Y-51155D01*
X45155Y-51054D01*
X45209Y-50921D01*
X45210Y-50778D01*
X45210Y-53789D01*
X45078Y-53789D01*
X44946Y-53844D01*
X44895Y-53895D01*
X44641Y-53790D01*
X44359Y-53789D01*
X44210Y-53851D01*
X44210Y-52359D01*
X44102Y-52098D01*
X43902Y-51898D01*
X43641Y-51790D01*
X43359Y-51789D01*
X43104Y-51895D01*
X43054Y-51844D01*
X42921Y-51790D01*
X42778Y-51789D01*
X42078Y-51789D01*
X41946Y-51844D01*
X41844Y-51945D01*
X41790Y-52078D01*
X41789Y-52221D01*
X41789Y-52921D01*
X41844Y-53053D01*
X41945Y-53155D01*
X42078Y-53209D01*
X42221Y-53210D01*
X42921Y-53210D01*
X43053Y-53155D01*
X43104Y-53104D01*
X43358Y-53209D01*
X43640Y-53210D01*
X43901Y-53102D01*
X44101Y-52902D01*
X44209Y-52641D01*
X44210Y-52359D01*
X44210Y-53851D01*
X44098Y-53897D01*
X43898Y-54097D01*
X43790Y-54358D01*
X43789Y-54640D01*
X43897Y-54901D01*
X44095Y-55100D01*
X41068Y-55100D01*
X40968Y-54999D01*
X41080Y-54888D01*
X41184Y-54636D01*
X41185Y-54364D01*
X41081Y-54112D01*
X40888Y-53919D01*
X40636Y-53815D01*
X40364Y-53814D01*
X40112Y-53918D01*
X39919Y-54111D01*
X39815Y-54363D01*
X39814Y-54635D01*
X39918Y-54887D01*
X40031Y-55000D01*
X39919Y-55111D01*
X39815Y-55363D01*
X39814Y-55635D01*
X39918Y-55887D01*
X40031Y-56000D01*
X39919Y-56111D01*
X39815Y-56363D01*
X39814Y-56635D01*
X39918Y-56887D01*
X40111Y-57080D01*
X40363Y-57184D01*
X40635Y-57185D01*
X40887Y-57081D01*
X41080Y-56888D01*
X41184Y-56636D01*
X41185Y-56380D01*
X41415Y-56150D01*
X46000Y-56150D01*
X46000Y-56149D01*
X46127Y-56124D01*
X46153Y-56119D01*
X46153Y-56119D01*
X46282Y-56032D01*
X46782Y-55532D01*
X46782Y-55532D01*
X46840Y-55446D01*
X46869Y-55403D01*
X46869Y-55403D01*
X46899Y-55250D01*
X46900Y-55250D01*
X46900Y-50000D01*
X46869Y-49846D01*
X46869Y-49846D01*
X46840Y-49803D01*
X46782Y-49717D01*
X46782Y-49717D01*
X45900Y-48834D01*
X45900Y-47683D01*
X46028Y-47630D01*
X46130Y-47529D01*
X46184Y-47396D01*
X46185Y-47253D01*
X46185Y-46603D01*
X46130Y-46471D01*
X46029Y-46369D01*
X45896Y-46315D01*
X45753Y-46314D01*
X45406Y-46314D01*
X45610Y-46110D01*
X45721Y-45945D01*
X45721Y-45945D01*
X45721Y-45942D01*
X45889Y-46110D01*
X46240Y-46461D01*
X46240Y-48750D01*
X46278Y-48945D01*
X46389Y-49110D01*
X46639Y-49360D01*
X46639Y-49360D01*
X46749Y-49434D01*
X46804Y-49471D01*
X46804Y-49471D01*
X47000Y-49510D01*
X47541Y-49510D01*
X47611Y-49580D01*
X47863Y-49684D01*
X48135Y-49685D01*
X48387Y-49581D01*
X48580Y-49388D01*
X48600Y-49341D01*
X48600Y-50000D01*
X48625Y-50127D01*
X48630Y-50153D01*
X48717Y-50282D01*
X49815Y-51380D01*
X49814Y-51635D01*
X49918Y-51887D01*
X50100Y-52068D01*
X50100Y-52931D01*
X49919Y-53111D01*
X49815Y-53363D01*
X49814Y-53635D01*
X49918Y-53887D01*
X50100Y-54068D01*
X50100Y-54431D01*
X49919Y-54611D01*
X49815Y-54863D01*
X49814Y-55135D01*
X49918Y-55387D01*
X50111Y-55580D01*
X50363Y-55684D01*
X50635Y-55685D01*
X50887Y-55581D01*
X51068Y-55400D01*
X52931Y-55400D01*
X53111Y-55580D01*
X53363Y-55684D01*
X53635Y-55685D01*
X53887Y-55581D01*
X54080Y-55388D01*
X54184Y-55136D01*
X54185Y-54864D01*
X54081Y-54612D01*
X53888Y-54419D01*
X53636Y-54315D01*
X53364Y-54314D01*
X53112Y-54418D01*
X52931Y-54600D01*
X51068Y-54600D01*
X50900Y-54431D01*
X50900Y-54068D01*
X51080Y-53888D01*
X51184Y-53636D01*
X51185Y-53364D01*
X51081Y-53112D01*
X50900Y-52931D01*
X50900Y-52068D01*
X51080Y-51888D01*
X51184Y-51636D01*
X51185Y-51364D01*
X51081Y-51112D01*
X50888Y-50919D01*
X50841Y-50900D01*
X52158Y-50900D01*
X52112Y-50918D01*
X51919Y-51111D01*
X51815Y-51363D01*
X51814Y-51635D01*
X51918Y-51887D01*
X52111Y-52080D01*
X52363Y-52184D01*
X52635Y-52185D01*
X52887Y-52081D01*
X53080Y-51888D01*
X53184Y-51636D01*
X53185Y-51364D01*
X53081Y-51112D01*
X52888Y-50919D01*
X52841Y-50900D01*
X54334Y-50900D01*
X54815Y-51380D01*
X54814Y-51635D01*
X54918Y-51887D01*
X55100Y-52068D01*
X55100Y-52931D01*
X54999Y-53031D01*
X54888Y-52919D01*
X54636Y-52815D01*
X54364Y-52814D01*
X54112Y-52918D01*
X53919Y-53111D01*
X53815Y-53363D01*
X53814Y-53635D01*
X53918Y-53887D01*
X54111Y-54080D01*
X54363Y-54184D01*
X54635Y-54185D01*
X54887Y-54081D01*
X55000Y-53968D01*
X55100Y-54068D01*
X55100Y-54431D01*
X54919Y-54611D01*
X54815Y-54863D01*
X54814Y-55135D01*
X54918Y-55387D01*
X55111Y-55580D01*
X55363Y-55684D01*
X55635Y-55685D01*
X55887Y-55581D01*
X56068Y-55400D01*
X57931Y-55400D01*
X58111Y-55580D01*
X58363Y-55684D01*
X58635Y-55685D01*
X58887Y-55581D01*
X59080Y-55388D01*
X59184Y-55136D01*
X59185Y-54864D01*
X59081Y-54612D01*
X58888Y-54419D01*
X58636Y-54315D01*
X58364Y-54314D01*
X58185Y-54388D01*
X58185Y-51364D01*
X58081Y-51112D01*
X57888Y-50919D01*
X57636Y-50815D01*
X57364Y-50814D01*
X57112Y-50918D01*
X56919Y-51111D01*
X56815Y-51363D01*
X56814Y-51635D01*
X56918Y-51887D01*
X57111Y-52080D01*
X57363Y-52184D01*
X57635Y-52185D01*
X57887Y-52081D01*
X58080Y-51888D01*
X58184Y-51636D01*
X58185Y-51364D01*
X58185Y-54388D01*
X58112Y-54418D01*
X57931Y-54600D01*
X56068Y-54600D01*
X55900Y-54431D01*
X55900Y-54068D01*
X56080Y-53888D01*
X56184Y-53636D01*
X56185Y-53364D01*
X56081Y-53112D01*
X55900Y-52931D01*
X55900Y-52068D01*
X56080Y-51888D01*
X56184Y-51636D01*
X56185Y-51364D01*
X56081Y-51112D01*
X55888Y-50919D01*
X55636Y-50815D01*
X55380Y-50814D01*
X54782Y-50217D01*
X54653Y-50130D01*
X54627Y-50125D01*
X54500Y-50100D01*
X54341Y-50100D01*
X54387Y-50081D01*
X54500Y-49968D01*
X54611Y-50080D01*
X54863Y-50184D01*
X55135Y-50185D01*
X55387Y-50081D01*
X55500Y-49968D01*
X55611Y-50080D01*
X55863Y-50184D01*
X56135Y-50185D01*
X56387Y-50081D01*
X56500Y-49968D01*
X56611Y-50080D01*
X56863Y-50184D01*
X57135Y-50185D01*
X57387Y-50081D01*
X57500Y-49968D01*
X57611Y-50080D01*
X57863Y-50184D01*
X58135Y-50185D01*
X58387Y-50081D01*
X58500Y-49968D01*
X58611Y-50080D01*
X58863Y-50184D01*
X59135Y-50185D01*
X59387Y-50081D01*
X59500Y-49968D01*
X59611Y-50080D01*
X59863Y-50184D01*
X60135Y-50185D01*
X60387Y-50081D01*
X60500Y-49968D01*
X60611Y-50080D01*
X60863Y-50184D01*
X61135Y-50185D01*
X61387Y-50081D01*
X61500Y-49968D01*
X61611Y-50080D01*
X61863Y-50184D01*
X61880Y-50184D01*
X61880Y-55739D01*
X61880Y-55739D01*
G37*
G54D28*
X61880Y-55739D02*
X61657Y-55517D01*
X61231Y-55340D01*
X60770Y-55339D01*
X60343Y-55516D01*
X60185Y-55674D01*
X60185Y-53364D01*
X60081Y-53112D01*
X59888Y-52919D01*
X59636Y-52815D01*
X59364Y-52814D01*
X59112Y-52918D01*
X58919Y-53111D01*
X58815Y-53363D01*
X58814Y-53635D01*
X58918Y-53887D01*
X59111Y-54080D01*
X59363Y-54184D01*
X59635Y-54185D01*
X59887Y-54081D01*
X60080Y-53888D01*
X60184Y-53636D01*
X60185Y-53364D01*
X60185Y-55674D01*
X60017Y-55842D01*
X59840Y-56268D01*
X59839Y-56729D01*
X60016Y-57156D01*
X60239Y-57380D01*
X48685Y-57380D01*
X48685Y-52064D01*
X48581Y-51812D01*
X48388Y-51619D01*
X48136Y-51515D01*
X47864Y-51514D01*
X47612Y-51618D01*
X47419Y-51811D01*
X47315Y-52063D01*
X47314Y-52335D01*
X47418Y-52587D01*
X47611Y-52780D01*
X47863Y-52884D01*
X48135Y-52885D01*
X48387Y-52781D01*
X48580Y-52588D01*
X48684Y-52336D01*
X48685Y-52064D01*
X48685Y-57380D01*
X45184Y-57380D01*
X45185Y-57253D01*
X45185Y-56603D01*
X45130Y-56471D01*
X45029Y-56369D01*
X44896Y-56315D01*
X44753Y-56314D01*
X44103Y-56314D01*
X43971Y-56369D01*
X43904Y-56435D01*
X43888Y-56419D01*
X43636Y-56315D01*
X43364Y-56314D01*
X43112Y-56418D01*
X42999Y-56531D01*
X42888Y-56419D01*
X42636Y-56315D01*
X42364Y-56314D01*
X42112Y-56418D01*
X41919Y-56611D01*
X41815Y-56863D01*
X41814Y-57135D01*
X41915Y-57380D01*
X36083Y-57380D01*
X36184Y-57136D01*
X36185Y-56864D01*
X36081Y-56612D01*
X35888Y-56419D01*
X35636Y-56315D01*
X35364Y-56314D01*
X35112Y-56418D01*
X34999Y-56531D01*
X34888Y-56419D01*
X34636Y-56315D01*
X34364Y-56314D01*
X34112Y-56418D01*
X34095Y-56436D01*
X34029Y-56369D01*
X33896Y-56315D01*
X33753Y-56314D01*
X33103Y-56314D01*
X32971Y-56369D01*
X32869Y-56470D01*
X32815Y-56603D01*
X32814Y-56746D01*
X32814Y-57380D01*
X32120Y-57380D01*
X32120Y-55874D01*
X32250Y-55900D01*
X36931Y-55900D01*
X37031Y-56000D01*
X36919Y-56111D01*
X36815Y-56363D01*
X36814Y-56635D01*
X36918Y-56887D01*
X37111Y-57080D01*
X37363Y-57184D01*
X37635Y-57185D01*
X37887Y-57081D01*
X38080Y-56888D01*
X38184Y-56636D01*
X38185Y-56364D01*
X38081Y-56112D01*
X37968Y-55999D01*
X38080Y-55888D01*
X38184Y-55636D01*
X38185Y-55364D01*
X38081Y-55112D01*
X37968Y-54999D01*
X38080Y-54888D01*
X38184Y-54636D01*
X38185Y-54364D01*
X38081Y-54112D01*
X37888Y-53919D01*
X37636Y-53815D01*
X37364Y-53814D01*
X37112Y-53918D01*
X36919Y-54111D01*
X36815Y-54363D01*
X36814Y-54635D01*
X36918Y-54887D01*
X37031Y-55000D01*
X36931Y-55100D01*
X36210Y-55100D01*
X36210Y-52778D01*
X36210Y-52078D01*
X36155Y-51946D01*
X36054Y-51844D01*
X35921Y-51790D01*
X35778Y-51789D01*
X35078Y-51789D01*
X34946Y-51844D01*
X34895Y-51895D01*
X34641Y-51790D01*
X34359Y-51789D01*
X34210Y-51851D01*
X34210Y-50778D01*
X34210Y-50078D01*
X34155Y-49946D01*
X34054Y-49844D01*
X33921Y-49790D01*
X33778Y-49789D01*
X33078Y-49789D01*
X32946Y-49844D01*
X32844Y-49945D01*
X32790Y-50078D01*
X32789Y-50221D01*
X32789Y-50921D01*
X32844Y-51053D01*
X32945Y-51155D01*
X33078Y-51209D01*
X33221Y-51210D01*
X33921Y-51210D01*
X34053Y-51155D01*
X34155Y-51054D01*
X34209Y-50921D01*
X34210Y-50778D01*
X34210Y-51851D01*
X34098Y-51897D01*
X33898Y-52097D01*
X33790Y-52358D01*
X33789Y-52640D01*
X33897Y-52901D01*
X34097Y-53101D01*
X34358Y-53209D01*
X34640Y-53210D01*
X34895Y-53104D01*
X34945Y-53155D01*
X35078Y-53209D01*
X35221Y-53210D01*
X35921Y-53210D01*
X36053Y-53155D01*
X36155Y-53054D01*
X36209Y-52921D01*
X36210Y-52778D01*
X36210Y-55100D01*
X33903Y-55100D01*
X34101Y-54902D01*
X34209Y-54641D01*
X34210Y-54359D01*
X34102Y-54098D01*
X33902Y-53898D01*
X33641Y-53790D01*
X33359Y-53789D01*
X33104Y-53895D01*
X33054Y-53844D01*
X32921Y-53790D01*
X32778Y-53789D01*
X32150Y-53789D01*
X32150Y-50165D01*
X32782Y-49532D01*
X32782Y-49532D01*
X32840Y-49446D01*
X32869Y-49403D01*
X32869Y-49403D01*
X32899Y-49250D01*
X32900Y-49250D01*
X32900Y-47568D01*
X33000Y-47468D01*
X33111Y-47580D01*
X33116Y-47582D01*
X33125Y-47627D01*
X33130Y-47653D01*
X33217Y-47782D01*
X33467Y-48032D01*
X33467Y-48032D01*
X33553Y-48090D01*
X33596Y-48119D01*
X33596Y-48119D01*
X33750Y-48150D01*
X33790Y-48150D01*
X33789Y-48221D01*
X33789Y-48921D01*
X33844Y-49053D01*
X33945Y-49155D01*
X34078Y-49209D01*
X34221Y-49210D01*
X34921Y-49210D01*
X35053Y-49155D01*
X35155Y-49054D01*
X35209Y-48921D01*
X35210Y-48778D01*
X35210Y-48150D01*
X36334Y-48150D01*
X36600Y-48415D01*
X36600Y-50000D01*
X36625Y-50127D01*
X36630Y-50153D01*
X36717Y-50282D01*
X36815Y-50380D01*
X36814Y-50635D01*
X36918Y-50887D01*
X37031Y-51000D01*
X36919Y-51111D01*
X36815Y-51363D01*
X36814Y-51635D01*
X36918Y-51887D01*
X37111Y-52080D01*
X37363Y-52184D01*
X37635Y-52185D01*
X37887Y-52081D01*
X38080Y-51888D01*
X38184Y-51636D01*
X38185Y-51364D01*
X38081Y-51112D01*
X37968Y-50999D01*
X38080Y-50888D01*
X38184Y-50636D01*
X38185Y-50364D01*
X38081Y-50112D01*
X38063Y-50095D01*
X38130Y-50029D01*
X38184Y-49896D01*
X38185Y-49753D01*
X38185Y-49103D01*
X38130Y-48971D01*
X38029Y-48869D01*
X37900Y-48816D01*
X37900Y-48000D01*
X37869Y-47846D01*
X37869Y-47846D01*
X37840Y-47803D01*
X37782Y-47717D01*
X37782Y-47717D01*
X36782Y-46717D01*
X36653Y-46630D01*
X36627Y-46625D01*
X36500Y-46600D01*
X35183Y-46600D01*
X35130Y-46471D01*
X35029Y-46369D01*
X34896Y-46315D01*
X34753Y-46314D01*
X34103Y-46314D01*
X33971Y-46369D01*
X33904Y-46435D01*
X33888Y-46419D01*
X33636Y-46315D01*
X33364Y-46314D01*
X33112Y-46418D01*
X32999Y-46531D01*
X32888Y-46419D01*
X32636Y-46315D01*
X32364Y-46314D01*
X32112Y-46418D01*
X31919Y-46611D01*
X31875Y-46718D01*
X31831Y-46612D01*
X31638Y-46419D01*
X31591Y-46400D01*
X32000Y-46400D01*
X32000Y-46399D01*
X32127Y-46374D01*
X32153Y-46369D01*
X32153Y-46369D01*
X32282Y-46282D01*
X36886Y-41678D01*
X36961Y-41859D01*
X37101Y-42000D01*
X36961Y-42139D01*
X36865Y-42373D01*
X36864Y-42625D01*
X36961Y-42859D01*
X37101Y-43000D01*
X36961Y-43139D01*
X36865Y-43373D01*
X36864Y-43625D01*
X36961Y-43859D01*
X37101Y-44000D01*
X36961Y-44139D01*
X36865Y-44373D01*
X36864Y-44625D01*
X36961Y-44859D01*
X37139Y-45038D01*
X37373Y-45134D01*
X37625Y-45135D01*
X37859Y-45038D01*
X38038Y-44860D01*
X38134Y-44626D01*
X38135Y-44374D01*
X38038Y-44140D01*
X37898Y-43999D01*
X38038Y-43860D01*
X38134Y-43626D01*
X38135Y-43374D01*
X38038Y-43140D01*
X37898Y-42999D01*
X38038Y-42860D01*
X38134Y-42626D01*
X38135Y-42374D01*
X38038Y-42140D01*
X37898Y-41999D01*
X38038Y-41860D01*
X38134Y-41626D01*
X38135Y-41374D01*
X38038Y-41140D01*
X37898Y-40999D01*
X38038Y-40860D01*
X38134Y-40626D01*
X38135Y-40374D01*
X38038Y-40140D01*
X37898Y-39999D01*
X38038Y-39860D01*
X38134Y-39626D01*
X38135Y-39374D01*
X38038Y-39140D01*
X37898Y-38999D01*
X38038Y-38860D01*
X38134Y-38626D01*
X38135Y-38374D01*
X38038Y-38140D01*
X37898Y-37999D01*
X38038Y-37860D01*
X38134Y-37626D01*
X38135Y-37374D01*
X38038Y-37140D01*
X37898Y-36999D01*
X38038Y-36860D01*
X38134Y-36626D01*
X38135Y-36400D01*
X39500Y-36400D01*
X39500Y-36399D01*
X39627Y-36374D01*
X39653Y-36369D01*
X39653Y-36369D01*
X39782Y-36282D01*
X39925Y-36139D01*
X40126Y-36140D01*
X40362Y-36042D01*
X40505Y-35900D01*
X41431Y-35900D01*
X41611Y-36080D01*
X41863Y-36184D01*
X42135Y-36185D01*
X42387Y-36081D01*
X42580Y-35888D01*
X42684Y-35636D01*
X42685Y-35364D01*
X42581Y-35112D01*
X42388Y-34919D01*
X42136Y-34815D01*
X41864Y-34814D01*
X41612Y-34918D01*
X41431Y-35100D01*
X40505Y-35100D01*
X40363Y-34957D01*
X40127Y-34860D01*
X39873Y-34859D01*
X39637Y-34957D01*
X39457Y-35136D01*
X39360Y-35372D01*
X39359Y-35574D01*
X39334Y-35600D01*
X38134Y-35600D01*
X38135Y-35400D01*
X38500Y-35400D01*
X38500Y-35399D01*
X38627Y-35374D01*
X38653Y-35369D01*
X38653Y-35369D01*
X38782Y-35282D01*
X39925Y-34139D01*
X40126Y-34140D01*
X40362Y-34042D01*
X40505Y-33900D01*
X41431Y-33900D01*
X41611Y-34080D01*
X41863Y-34184D01*
X42135Y-34185D01*
X42387Y-34081D01*
X42580Y-33888D01*
X42684Y-33636D01*
X42685Y-33364D01*
X42581Y-33112D01*
X42388Y-32919D01*
X42136Y-32815D01*
X41864Y-32814D01*
X41612Y-32918D01*
X41431Y-33100D01*
X40505Y-33100D01*
X40363Y-32957D01*
X40127Y-32860D01*
X39873Y-32859D01*
X39637Y-32957D01*
X39457Y-33136D01*
X39360Y-33372D01*
X39359Y-33574D01*
X38334Y-34600D01*
X35750Y-34600D01*
X35622Y-34625D01*
X35596Y-34630D01*
X35467Y-34717D01*
X33084Y-37100D01*
X31997Y-37100D01*
X31860Y-36961D01*
X31626Y-36865D01*
X31374Y-36864D01*
X31140Y-36961D01*
X30961Y-37139D01*
X30865Y-37373D01*
X30864Y-37625D01*
X30961Y-37859D01*
X31101Y-38000D01*
X30961Y-38139D01*
X30865Y-38373D01*
X30864Y-38625D01*
X30961Y-38859D01*
X31101Y-39000D01*
X30961Y-39139D01*
X30865Y-39373D01*
X30864Y-39625D01*
X30961Y-39859D01*
X31101Y-40000D01*
X30961Y-40139D01*
X30865Y-40373D01*
X30864Y-40625D01*
X30961Y-40859D01*
X31101Y-41000D01*
X30961Y-41139D01*
X30865Y-41373D01*
X30864Y-41625D01*
X30961Y-41859D01*
X31101Y-42000D01*
X30961Y-42139D01*
X30865Y-42373D01*
X30864Y-42625D01*
X30961Y-42859D01*
X31101Y-43000D01*
X30961Y-43139D01*
X30865Y-43373D01*
X30864Y-43625D01*
X30961Y-43859D01*
X31101Y-44000D01*
X30961Y-44139D01*
X30865Y-44373D01*
X30864Y-44625D01*
X30961Y-44859D01*
X31139Y-45038D01*
X31289Y-45100D01*
X30656Y-45100D01*
X30703Y-45053D01*
X30784Y-44856D01*
X30785Y-44644D01*
X30703Y-44447D01*
X30650Y-44393D01*
X30650Y-39106D01*
X30703Y-39053D01*
X30784Y-38856D01*
X30785Y-38644D01*
X30703Y-38447D01*
X30553Y-38296D01*
X30356Y-38215D01*
X30144Y-38214D01*
X29999Y-38274D01*
X29856Y-38215D01*
X29644Y-38214D01*
X29447Y-38296D01*
X29296Y-38446D01*
X29215Y-38643D01*
X29214Y-38855D01*
X29296Y-39052D01*
X29350Y-39106D01*
X29350Y-39128D01*
X27685Y-37463D01*
X27685Y-37364D01*
X27581Y-37112D01*
X27388Y-36919D01*
X27136Y-36815D01*
X26864Y-36814D01*
X26612Y-36918D01*
X26541Y-36990D01*
X26458Y-36990D01*
X26388Y-36919D01*
X26136Y-36815D01*
X25864Y-36814D01*
X25612Y-36918D01*
X25541Y-36990D01*
X25458Y-36990D01*
X25388Y-36919D01*
X25136Y-36815D01*
X25120Y-36815D01*
X25120Y-35185D01*
X25135Y-35185D01*
X25387Y-35081D01*
X25458Y-35010D01*
X25541Y-35010D01*
X25611Y-35080D01*
X25863Y-35184D01*
X26135Y-35185D01*
X26387Y-35081D01*
X26458Y-35010D01*
X26541Y-35010D01*
X26611Y-35080D01*
X26863Y-35184D01*
X27135Y-35185D01*
X27387Y-35081D01*
X27458Y-35010D01*
X30041Y-35010D01*
X30111Y-35080D01*
X30363Y-35184D01*
X30463Y-35184D01*
X30864Y-35586D01*
X30864Y-35625D01*
X30961Y-35859D01*
X31139Y-36038D01*
X31373Y-36134D01*
X31625Y-36135D01*
X31859Y-36038D01*
X31887Y-36010D01*
X32750Y-36010D01*
X33500Y-36010D01*
X33695Y-35971D01*
X33695Y-35971D01*
X33860Y-35860D01*
X35711Y-34010D01*
X37111Y-34010D01*
X37139Y-34038D01*
X37373Y-34134D01*
X37625Y-34135D01*
X37859Y-34038D01*
X38038Y-33860D01*
X38134Y-33626D01*
X38134Y-33586D01*
X38860Y-32860D01*
X39211Y-32510D01*
X39541Y-32510D01*
X39611Y-32580D01*
X39863Y-32684D01*
X40135Y-32685D01*
X40387Y-32581D01*
X40580Y-32388D01*
X40684Y-32136D01*
X40685Y-31864D01*
X40581Y-31612D01*
X40388Y-31419D01*
X40136Y-31315D01*
X39864Y-31314D01*
X39612Y-31418D01*
X39541Y-31490D01*
X39510Y-31490D01*
X39510Y-28711D01*
X40711Y-27510D01*
X45268Y-27510D01*
X44889Y-27889D01*
X44778Y-28054D01*
X44740Y-28250D01*
X44740Y-28500D01*
X44740Y-43500D01*
X44740Y-44750D01*
X44740Y-45538D01*
X44538Y-45740D01*
X43635Y-45740D01*
X43635Y-44374D01*
X43635Y-40374D01*
X43538Y-40140D01*
X43400Y-40001D01*
X43400Y-39250D01*
X43399Y-39249D01*
X43369Y-39096D01*
X43369Y-39096D01*
X43340Y-39053D01*
X43282Y-38967D01*
X43282Y-38967D01*
X42532Y-38217D01*
X42403Y-38130D01*
X42377Y-38125D01*
X42250Y-38100D01*
X41568Y-38100D01*
X41388Y-37919D01*
X41136Y-37815D01*
X40864Y-37814D01*
X40612Y-37918D01*
X40499Y-38031D01*
X40388Y-37919D01*
X40136Y-37815D01*
X39864Y-37814D01*
X39612Y-37918D01*
X39419Y-38111D01*
X39315Y-38363D01*
X39314Y-38635D01*
X39418Y-38887D01*
X39611Y-39080D01*
X39863Y-39184D01*
X40135Y-39185D01*
X40387Y-39081D01*
X40500Y-38968D01*
X40611Y-39080D01*
X40863Y-39184D01*
X41135Y-39185D01*
X41387Y-39081D01*
X41568Y-38900D01*
X42084Y-38900D01*
X42600Y-39415D01*
X42600Y-40002D01*
X42499Y-40101D01*
X42360Y-39961D01*
X42126Y-39865D01*
X41874Y-39864D01*
X41640Y-39961D01*
X41535Y-40066D01*
X41388Y-39919D01*
X41136Y-39815D01*
X40864Y-39814D01*
X40612Y-39918D01*
X40499Y-40031D01*
X40388Y-39919D01*
X40136Y-39815D01*
X39864Y-39814D01*
X39612Y-39918D01*
X39419Y-40111D01*
X39315Y-40363D01*
X39314Y-40635D01*
X39418Y-40887D01*
X39611Y-41080D01*
X39863Y-41184D01*
X40135Y-41185D01*
X40387Y-41081D01*
X40500Y-40968D01*
X40611Y-41080D01*
X40863Y-41184D01*
X41135Y-41185D01*
X41387Y-41081D01*
X41535Y-40933D01*
X41639Y-41038D01*
X41873Y-41134D01*
X42125Y-41135D01*
X42359Y-41038D01*
X42500Y-40898D01*
X42639Y-41038D01*
X42873Y-41134D01*
X43125Y-41135D01*
X43359Y-41038D01*
X43538Y-40860D01*
X43634Y-40626D01*
X43635Y-40374D01*
X43635Y-44374D01*
X43538Y-44140D01*
X43360Y-43961D01*
X43126Y-43865D01*
X42874Y-43864D01*
X42640Y-43961D01*
X42499Y-44101D01*
X42360Y-43961D01*
X42126Y-43865D01*
X41874Y-43864D01*
X41685Y-43943D01*
X41685Y-42364D01*
X41581Y-42112D01*
X41388Y-41919D01*
X41136Y-41815D01*
X40864Y-41814D01*
X40612Y-41918D01*
X40499Y-42031D01*
X40388Y-41919D01*
X40136Y-41815D01*
X39864Y-41814D01*
X39612Y-41918D01*
X39419Y-42111D01*
X39315Y-42363D01*
X39314Y-42635D01*
X39418Y-42887D01*
X39611Y-43080D01*
X39863Y-43184D01*
X40135Y-43185D01*
X40387Y-43081D01*
X40500Y-42968D01*
X40611Y-43080D01*
X40863Y-43184D01*
X41135Y-43185D01*
X41387Y-43081D01*
X41580Y-42888D01*
X41684Y-42636D01*
X41685Y-42364D01*
X41685Y-43943D01*
X41640Y-43961D01*
X41535Y-44066D01*
X41388Y-43919D01*
X41136Y-43815D01*
X40864Y-43814D01*
X40612Y-43918D01*
X40499Y-44031D01*
X40388Y-43919D01*
X40136Y-43815D01*
X39864Y-43814D01*
X39612Y-43918D01*
X39419Y-44111D01*
X39315Y-44363D01*
X39314Y-44635D01*
X39418Y-44887D01*
X39611Y-45080D01*
X39863Y-45184D01*
X40135Y-45185D01*
X40387Y-45081D01*
X40500Y-44968D01*
X40611Y-45080D01*
X40863Y-45184D01*
X41135Y-45185D01*
X41387Y-45081D01*
X41535Y-44933D01*
X41639Y-45038D01*
X41873Y-45134D01*
X42125Y-45135D01*
X42359Y-45038D01*
X42500Y-44898D01*
X42639Y-45038D01*
X42873Y-45134D01*
X43125Y-45135D01*
X43359Y-45038D01*
X43538Y-44860D01*
X43634Y-44626D01*
X43635Y-44374D01*
X43635Y-45740D01*
X43250Y-45740D01*
X43054Y-45778D01*
X42889Y-45889D01*
X42538Y-46240D01*
X41500Y-46240D01*
X41304Y-46278D01*
X41139Y-46389D01*
X40139Y-47389D01*
X40028Y-47554D01*
X39990Y-47750D01*
X39990Y-49041D01*
X39919Y-49111D01*
X39815Y-49363D01*
X39814Y-49635D01*
X39918Y-49887D01*
X40031Y-50000D01*
X39919Y-50111D01*
X39815Y-50363D01*
X39814Y-50635D01*
X39918Y-50887D01*
X40031Y-51000D01*
X39919Y-51111D01*
X39815Y-51363D01*
X39814Y-51635D01*
X39918Y-51887D01*
X40111Y-52080D01*
X40363Y-52184D01*
X40635Y-52185D01*
X40887Y-52081D01*
X41080Y-51888D01*
X41184Y-51636D01*
X41185Y-51364D01*
X41081Y-51112D01*
X40968Y-50999D01*
X41080Y-50888D01*
X41184Y-50636D01*
X41185Y-50380D01*
X41282Y-50282D01*
X41282Y-50282D01*
X41340Y-50196D01*
X41369Y-50153D01*
X41369Y-50153D01*
X41399Y-50000D01*
X41400Y-50000D01*
X41400Y-48165D01*
X41915Y-47650D01*
X43000Y-47650D01*
X43000Y-47649D01*
X43127Y-47624D01*
X43153Y-47619D01*
X43153Y-47619D01*
X43173Y-47606D01*
X43363Y-47684D01*
X43635Y-47685D01*
X43887Y-47581D01*
X44000Y-47468D01*
X44100Y-47568D01*
X44100Y-47890D01*
X44054Y-47844D01*
X43921Y-47790D01*
X43778Y-47789D01*
X43078Y-47789D01*
X42946Y-47844D01*
X42844Y-47945D01*
X42790Y-48078D01*
X42789Y-48221D01*
X42789Y-48921D01*
X42844Y-49053D01*
X42945Y-49155D01*
X43078Y-49209D01*
X43221Y-49210D01*
X43921Y-49210D01*
X44053Y-49155D01*
X44155Y-49054D01*
X44209Y-48921D01*
X44210Y-48778D01*
X44210Y-48772D01*
X44217Y-48782D01*
X45850Y-50415D01*
X45850Y-53790D01*
X45778Y-53789D01*
X45210Y-53789D01*
X45210Y-50778D01*
X45210Y-50078D01*
X45155Y-49946D01*
X45054Y-49844D01*
X44921Y-49790D01*
X44778Y-49789D01*
X44078Y-49789D01*
X43946Y-49844D01*
X43844Y-49945D01*
X43790Y-50078D01*
X43789Y-50221D01*
X43789Y-50921D01*
X43844Y-51053D01*
X43945Y-51155D01*
X44078Y-51209D01*
X44221Y-51210D01*
X44921Y-51210D01*
X45053Y-51155D01*
X45155Y-51054D01*
X45209Y-50921D01*
X45210Y-50778D01*
X45210Y-53789D01*
X45078Y-53789D01*
X44946Y-53844D01*
X44895Y-53895D01*
X44641Y-53790D01*
X44359Y-53789D01*
X44210Y-53851D01*
X44210Y-52359D01*
X44102Y-52098D01*
X43902Y-51898D01*
X43641Y-51790D01*
X43359Y-51789D01*
X43104Y-51895D01*
X43054Y-51844D01*
X42921Y-51790D01*
X42778Y-51789D01*
X42078Y-51789D01*
X41946Y-51844D01*
X41844Y-51945D01*
X41790Y-52078D01*
X41789Y-52221D01*
X41789Y-52921D01*
X41844Y-53053D01*
X41945Y-53155D01*
X42078Y-53209D01*
X42221Y-53210D01*
X42921Y-53210D01*
X43053Y-53155D01*
X43104Y-53104D01*
X43358Y-53209D01*
X43640Y-53210D01*
X43901Y-53102D01*
X44101Y-52902D01*
X44209Y-52641D01*
X44210Y-52359D01*
X44210Y-53851D01*
X44098Y-53897D01*
X43898Y-54097D01*
X43790Y-54358D01*
X43789Y-54640D01*
X43897Y-54901D01*
X44095Y-55100D01*
X41068Y-55100D01*
X40968Y-54999D01*
X41080Y-54888D01*
X41184Y-54636D01*
X41185Y-54364D01*
X41081Y-54112D01*
X40888Y-53919D01*
X40636Y-53815D01*
X40364Y-53814D01*
X40112Y-53918D01*
X39919Y-54111D01*
X39815Y-54363D01*
X39814Y-54635D01*
X39918Y-54887D01*
X40031Y-55000D01*
X39919Y-55111D01*
X39815Y-55363D01*
X39814Y-55635D01*
X39918Y-55887D01*
X40031Y-56000D01*
X39919Y-56111D01*
X39815Y-56363D01*
X39814Y-56635D01*
X39918Y-56887D01*
X40111Y-57080D01*
X40363Y-57184D01*
X40635Y-57185D01*
X40887Y-57081D01*
X41080Y-56888D01*
X41184Y-56636D01*
X41185Y-56380D01*
X41415Y-56150D01*
X46000Y-56150D01*
X46000Y-56149D01*
X46127Y-56124D01*
X46153Y-56119D01*
X46153Y-56119D01*
X46282Y-56032D01*
X46782Y-55532D01*
X46782Y-55532D01*
X46840Y-55446D01*
X46869Y-55403D01*
X46869Y-55403D01*
X46899Y-55250D01*
X46900Y-55250D01*
X46900Y-50000D01*
X46869Y-49846D01*
X46869Y-49846D01*
X46840Y-49803D01*
X46782Y-49717D01*
X46782Y-49717D01*
X45900Y-48834D01*
X45900Y-47683D01*
X46028Y-47630D01*
X46130Y-47529D01*
X46184Y-47396D01*
X46185Y-47253D01*
X46185Y-46603D01*
X46130Y-46471D01*
X46029Y-46369D01*
X45896Y-46315D01*
X45753Y-46314D01*
X45406Y-46314D01*
X45610Y-46110D01*
X45721Y-45945D01*
X45721Y-45945D01*
X45721Y-45942D01*
X45889Y-46110D01*
X46240Y-46461D01*
X46240Y-48750D01*
X46278Y-48945D01*
X46389Y-49110D01*
X46639Y-49360D01*
X46639Y-49360D01*
X46749Y-49434D01*
X46804Y-49471D01*
X46804Y-49471D01*
X47000Y-49510D01*
X47541Y-49510D01*
X47611Y-49580D01*
X47863Y-49684D01*
X48135Y-49685D01*
X48387Y-49581D01*
X48580Y-49388D01*
X48600Y-49341D01*
X48600Y-50000D01*
X48625Y-50127D01*
X48630Y-50153D01*
X48717Y-50282D01*
X49815Y-51380D01*
X49814Y-51635D01*
X49918Y-51887D01*
X50100Y-52068D01*
X50100Y-52931D01*
X49919Y-53111D01*
X49815Y-53363D01*
X49814Y-53635D01*
X49918Y-53887D01*
X50100Y-54068D01*
X50100Y-54431D01*
X49919Y-54611D01*
X49815Y-54863D01*
X49814Y-55135D01*
X49918Y-55387D01*
X50111Y-55580D01*
X50363Y-55684D01*
X50635Y-55685D01*
X50887Y-55581D01*
X51068Y-55400D01*
X52931Y-55400D01*
X53111Y-55580D01*
X53363Y-55684D01*
X53635Y-55685D01*
X53887Y-55581D01*
X54080Y-55388D01*
X54184Y-55136D01*
X54185Y-54864D01*
X54081Y-54612D01*
X53888Y-54419D01*
X53636Y-54315D01*
X53364Y-54314D01*
X53112Y-54418D01*
X52931Y-54600D01*
X51068Y-54600D01*
X50900Y-54431D01*
X50900Y-54068D01*
X51080Y-53888D01*
X51184Y-53636D01*
X51185Y-53364D01*
X51081Y-53112D01*
X50900Y-52931D01*
X50900Y-52068D01*
X51080Y-51888D01*
X51184Y-51636D01*
X51185Y-51364D01*
X51081Y-51112D01*
X50888Y-50919D01*
X50841Y-50900D01*
X52158Y-50900D01*
X52112Y-50918D01*
X51919Y-51111D01*
X51815Y-51363D01*
X51814Y-51635D01*
X51918Y-51887D01*
X52111Y-52080D01*
X52363Y-52184D01*
X52635Y-52185D01*
X52887Y-52081D01*
X53080Y-51888D01*
X53184Y-51636D01*
X53185Y-51364D01*
X53081Y-51112D01*
X52888Y-50919D01*
X52841Y-50900D01*
X54334Y-50900D01*
X54815Y-51380D01*
X54814Y-51635D01*
X54918Y-51887D01*
X55100Y-52068D01*
X55100Y-52931D01*
X54999Y-53031D01*
X54888Y-52919D01*
X54636Y-52815D01*
X54364Y-52814D01*
X54112Y-52918D01*
X53919Y-53111D01*
X53815Y-53363D01*
X53814Y-53635D01*
X53918Y-53887D01*
X54111Y-54080D01*
X54363Y-54184D01*
X54635Y-54185D01*
X54887Y-54081D01*
X55000Y-53968D01*
X55100Y-54068D01*
X55100Y-54431D01*
X54919Y-54611D01*
X54815Y-54863D01*
X54814Y-55135D01*
X54918Y-55387D01*
X55111Y-55580D01*
X55363Y-55684D01*
X55635Y-55685D01*
X55887Y-55581D01*
X56068Y-55400D01*
X57931Y-55400D01*
X58111Y-55580D01*
X58363Y-55684D01*
X58635Y-55685D01*
X58887Y-55581D01*
X59080Y-55388D01*
X59184Y-55136D01*
X59185Y-54864D01*
X59081Y-54612D01*
X58888Y-54419D01*
X58636Y-54315D01*
X58364Y-54314D01*
X58185Y-54388D01*
X58185Y-51364D01*
X58081Y-51112D01*
X57888Y-50919D01*
X57636Y-50815D01*
X57364Y-50814D01*
X57112Y-50918D01*
X56919Y-51111D01*
X56815Y-51363D01*
X56814Y-51635D01*
X56918Y-51887D01*
X57111Y-52080D01*
X57363Y-52184D01*
X57635Y-52185D01*
X57887Y-52081D01*
X58080Y-51888D01*
X58184Y-51636D01*
X58185Y-51364D01*
X58185Y-54388D01*
X58112Y-54418D01*
X57931Y-54600D01*
X56068Y-54600D01*
X55900Y-54431D01*
X55900Y-54068D01*
X56080Y-53888D01*
X56184Y-53636D01*
X56185Y-53364D01*
X56081Y-53112D01*
X55900Y-52931D01*
X55900Y-52068D01*
X56080Y-51888D01*
X56184Y-51636D01*
X56185Y-51364D01*
X56081Y-51112D01*
X55888Y-50919D01*
X55636Y-50815D01*
X55380Y-50814D01*
X54782Y-50217D01*
X54653Y-50130D01*
X54627Y-50125D01*
X54500Y-50100D01*
X54341Y-50100D01*
X54387Y-50081D01*
X54500Y-49968D01*
X54611Y-50080D01*
X54863Y-50184D01*
X55135Y-50185D01*
X55387Y-50081D01*
X55500Y-49968D01*
X55611Y-50080D01*
X55863Y-50184D01*
X56135Y-50185D01*
X56387Y-50081D01*
X56500Y-49968D01*
X56611Y-50080D01*
X56863Y-50184D01*
X57135Y-50185D01*
X57387Y-50081D01*
X57500Y-49968D01*
X57611Y-50080D01*
X57863Y-50184D01*
X58135Y-50185D01*
X58387Y-50081D01*
X58500Y-49968D01*
X58611Y-50080D01*
X58863Y-50184D01*
X59135Y-50185D01*
X59387Y-50081D01*
X59500Y-49968D01*
X59611Y-50080D01*
X59863Y-50184D01*
X60135Y-50185D01*
X60387Y-50081D01*
X60500Y-49968D01*
X60611Y-50080D01*
X60863Y-50184D01*
X61135Y-50185D01*
X61387Y-50081D01*
X61500Y-49968D01*
X61611Y-50080D01*
X61863Y-50184D01*
X61880Y-50184D01*
X61880Y-55739D01*
M02*
