G04 (created by PCBNEW (2013-07-07 BZR 4022)-stable) date Sat 19 Apr 2014 15:11:25 SAST*
%MOIN*%
G04 Gerber Fmt 3.4, Leading zero omitted, Abs format*
%FSLAX34Y34*%
G01*
G70*
G90*
G04 APERTURE LIST*
%ADD10C,0.00590551*%
%ADD11C,0.065*%
%ADD12R,0.065X0.065*%
%ADD13C,0.056*%
%ADD14R,0.1378X0.1378*%
%ADD15C,0.07*%
%ADD16R,0.07X0.07*%
%ADD17C,0.16*%
%ADD18R,0.055X0.055*%
%ADD19C,0.055*%
%ADD20R,0.06X0.0787402*%
%ADD21C,0.145669*%
%ADD22C,0.0511811*%
%ADD23R,0.016X0.085*%
%ADD24C,0.066*%
%ADD25C,0.035*%
%ADD26C,0.008*%
%ADD27C,0.03*%
%ADD28C,0.024*%
G04 APERTURE END LIST*
G54D10*
G54D11*
X50500Y-55000D03*
X50500Y-57000D03*
X53500Y-57000D03*
X53500Y-55000D03*
X55500Y-55000D03*
X55500Y-57000D03*
X58500Y-57000D03*
X58500Y-55000D03*
X30000Y-21000D03*
X28000Y-21000D03*
X28000Y-24000D03*
X30000Y-24000D03*
G54D12*
X26000Y-24000D03*
G54D11*
X26000Y-25000D03*
X26000Y-26000D03*
X26000Y-27000D03*
X26000Y-28000D03*
X26000Y-29000D03*
G54D12*
X50000Y-34500D03*
G54D11*
X50000Y-33500D03*
X50000Y-32500D03*
X50000Y-31500D03*
X50000Y-30500D03*
G54D12*
X34500Y-47000D03*
G54D11*
X33500Y-47000D03*
X32500Y-47000D03*
G54D12*
X45500Y-47000D03*
G54D11*
X44500Y-47000D03*
X43500Y-47000D03*
G54D12*
X44500Y-57000D03*
G54D11*
X43500Y-57000D03*
X42500Y-57000D03*
G54D12*
X33500Y-57000D03*
G54D11*
X34500Y-57000D03*
X35500Y-57000D03*
G54D12*
X48000Y-25500D03*
G54D11*
X48000Y-26500D03*
X48000Y-27500D03*
X54500Y-53500D03*
X50500Y-53500D03*
X59500Y-53500D03*
X55500Y-53500D03*
X40000Y-44500D03*
X41000Y-44500D03*
X55000Y-30500D03*
X56000Y-30500D03*
X40000Y-38500D03*
X41000Y-38500D03*
X40000Y-40500D03*
X41000Y-40500D03*
X40000Y-42500D03*
X41000Y-42500D03*
G54D13*
X40000Y-35500D03*
X40000Y-33500D03*
G54D12*
X37500Y-49500D03*
G54D11*
X37500Y-50500D03*
X37500Y-51500D03*
X37500Y-52500D03*
X37500Y-53500D03*
X37500Y-54500D03*
X37500Y-55500D03*
X37500Y-56500D03*
X40500Y-56500D03*
X40500Y-55500D03*
X40500Y-54500D03*
X40500Y-53500D03*
X40500Y-52500D03*
X40500Y-51500D03*
X40500Y-50500D03*
X40500Y-49500D03*
X40000Y-32000D03*
X42000Y-32000D03*
X31250Y-47000D03*
X31250Y-49000D03*
X28000Y-25000D03*
X30000Y-25000D03*
X48000Y-50200D03*
X48000Y-52200D03*
X30500Y-36500D03*
X30500Y-34500D03*
X57500Y-51500D03*
X55500Y-51500D03*
X52500Y-51500D03*
X50500Y-51500D03*
X51500Y-30500D03*
X53500Y-30500D03*
G54D12*
X48000Y-48000D03*
G54D11*
X48000Y-49000D03*
G54D12*
X30750Y-51500D03*
G54D11*
X30750Y-50500D03*
G54D12*
X50000Y-26000D03*
G54D11*
X50000Y-25000D03*
G54D12*
X57500Y-27500D03*
G54D11*
X57500Y-28500D03*
G54D12*
X50000Y-27500D03*
G54D11*
X50000Y-28500D03*
G54D12*
X55000Y-27500D03*
G54D11*
X55000Y-28500D03*
G54D12*
X52500Y-27500D03*
G54D11*
X52500Y-28500D03*
X43000Y-33500D03*
X42000Y-33500D03*
X43000Y-35500D03*
X42000Y-35500D03*
G54D14*
X57000Y-23941D03*
X57000Y-21579D03*
X55150Y-22760D03*
G54D11*
X26000Y-54500D03*
X26000Y-53500D03*
X26000Y-52500D03*
X26000Y-51500D03*
X26000Y-50500D03*
X26000Y-49500D03*
X26000Y-48500D03*
G54D12*
X26000Y-47500D03*
X26000Y-47500D03*
G54D11*
X26000Y-48500D03*
X26000Y-49500D03*
X26000Y-50500D03*
X26000Y-51500D03*
X26000Y-52500D03*
X26000Y-53500D03*
X26000Y-54500D03*
X27000Y-54500D03*
X27000Y-53500D03*
X27000Y-52500D03*
X27000Y-51500D03*
X27000Y-50500D03*
X27000Y-49500D03*
X27000Y-48500D03*
G54D12*
X27000Y-47500D03*
X25000Y-47500D03*
X27000Y-47500D03*
G54D11*
X25000Y-48500D03*
X27000Y-48500D03*
X25000Y-49500D03*
X27000Y-49500D03*
X25000Y-50500D03*
X27000Y-50500D03*
X25000Y-51500D03*
X27000Y-51500D03*
X25000Y-52500D03*
X27000Y-52500D03*
X25000Y-53500D03*
X27000Y-53500D03*
X25000Y-54500D03*
X27000Y-54500D03*
G54D12*
X51000Y-48500D03*
G54D11*
X52000Y-48500D03*
X53000Y-48500D03*
X54000Y-48500D03*
X55000Y-48500D03*
X56000Y-48500D03*
X57000Y-48500D03*
X58000Y-48500D03*
X59000Y-48500D03*
X60000Y-48500D03*
X61000Y-48500D03*
X62000Y-48500D03*
G54D12*
X51000Y-49500D03*
G54D11*
X52000Y-49500D03*
X53000Y-49500D03*
X54000Y-49500D03*
X55000Y-49500D03*
X56000Y-49500D03*
X57000Y-49500D03*
X58000Y-49500D03*
X59000Y-49500D03*
X60000Y-49500D03*
X61000Y-49500D03*
X62000Y-49500D03*
X47000Y-28500D03*
X47000Y-29500D03*
X47000Y-30500D03*
X47000Y-31500D03*
X47000Y-32500D03*
X47000Y-33500D03*
X47000Y-34500D03*
G54D12*
X47000Y-35500D03*
X47000Y-35500D03*
G54D11*
X47000Y-34500D03*
X47000Y-33500D03*
X47000Y-32500D03*
X47000Y-31500D03*
X47000Y-30500D03*
X47000Y-29500D03*
X47000Y-28500D03*
X46000Y-28500D03*
X46000Y-29500D03*
X46000Y-30500D03*
X46000Y-31500D03*
X46000Y-32500D03*
X46000Y-33500D03*
X46000Y-34500D03*
G54D12*
X46000Y-35500D03*
X48000Y-35500D03*
X46000Y-35500D03*
G54D11*
X48000Y-34500D03*
X46000Y-34500D03*
X48000Y-33500D03*
X46000Y-33500D03*
X48000Y-32500D03*
X46000Y-32500D03*
X48000Y-31500D03*
X46000Y-31500D03*
X48000Y-30500D03*
X46000Y-30500D03*
X48000Y-29500D03*
X46000Y-29500D03*
X48000Y-28500D03*
X46000Y-28500D03*
X47000Y-37500D03*
X47000Y-38500D03*
X47000Y-39500D03*
X47000Y-40500D03*
X47000Y-41500D03*
X47000Y-42500D03*
X47000Y-43500D03*
G54D12*
X47000Y-44500D03*
X47000Y-44500D03*
G54D11*
X47000Y-43500D03*
X47000Y-42500D03*
X47000Y-41500D03*
X47000Y-40500D03*
X47000Y-39500D03*
X47000Y-38500D03*
X47000Y-37500D03*
X46000Y-37500D03*
X46000Y-38500D03*
X46000Y-39500D03*
X46000Y-40500D03*
X46000Y-41500D03*
X46000Y-42500D03*
X46000Y-43500D03*
G54D12*
X46000Y-44500D03*
X48000Y-44500D03*
X46000Y-44500D03*
G54D11*
X48000Y-43500D03*
X46000Y-43500D03*
X48000Y-42500D03*
X46000Y-42500D03*
X48000Y-41500D03*
X46000Y-41500D03*
X48000Y-40500D03*
X46000Y-40500D03*
X48000Y-39500D03*
X46000Y-39500D03*
X48000Y-38500D03*
X46000Y-38500D03*
X48000Y-37500D03*
X46000Y-37500D03*
G54D12*
X26000Y-32500D03*
G54D11*
X26000Y-33500D03*
X26000Y-34500D03*
X26000Y-35500D03*
X26000Y-36500D03*
X26000Y-37500D03*
X27000Y-37500D03*
X27000Y-36500D03*
X27000Y-35500D03*
X27000Y-34500D03*
X27000Y-33500D03*
G54D12*
X27000Y-32500D03*
X25000Y-32500D03*
X27000Y-32500D03*
G54D11*
X25000Y-33500D03*
X27000Y-33500D03*
X25000Y-34500D03*
X27000Y-34500D03*
X25000Y-35500D03*
X27000Y-35500D03*
X25000Y-36500D03*
X27000Y-36500D03*
X25000Y-37500D03*
X27000Y-37500D03*
G54D12*
X26000Y-39500D03*
G54D11*
X26000Y-40500D03*
X26000Y-41500D03*
X26000Y-42500D03*
X26000Y-43500D03*
X26000Y-44500D03*
X27000Y-44500D03*
X27000Y-43500D03*
X27000Y-42500D03*
X27000Y-41500D03*
X27000Y-40500D03*
G54D12*
X27000Y-39500D03*
X25000Y-39500D03*
X27000Y-39500D03*
G54D11*
X25000Y-40500D03*
X27000Y-40500D03*
X25000Y-41500D03*
X27000Y-41500D03*
X25000Y-42500D03*
X27000Y-42500D03*
X25000Y-43500D03*
X27000Y-43500D03*
X25000Y-44500D03*
X27000Y-44500D03*
G54D15*
X60000Y-25500D03*
G54D16*
X60000Y-26500D03*
G54D15*
X60000Y-27500D03*
X35500Y-48500D03*
G54D16*
X35500Y-52500D03*
G54D15*
X45500Y-50500D03*
G54D16*
X45500Y-54500D03*
G54D15*
X42500Y-48500D03*
G54D16*
X42500Y-52500D03*
G54D15*
X44500Y-54500D03*
G54D16*
X44500Y-50500D03*
G54D15*
X43500Y-52500D03*
G54D16*
X43500Y-48500D03*
G54D15*
X32500Y-50500D03*
G54D16*
X32500Y-54500D03*
G54D15*
X33500Y-54500D03*
G54D16*
X33500Y-50500D03*
G54D15*
X34500Y-52500D03*
G54D16*
X34500Y-48500D03*
G54D15*
X54000Y-25500D03*
G54D16*
X58000Y-25500D03*
G54D12*
X43000Y-34500D03*
G54D17*
X26000Y-21500D03*
X61000Y-21500D03*
X26000Y-56500D03*
X61000Y-56500D03*
G54D18*
X31500Y-25500D03*
G54D19*
X31500Y-26500D03*
X31500Y-27500D03*
X31500Y-28500D03*
X31500Y-29500D03*
X31500Y-30500D03*
X31500Y-31500D03*
X31500Y-32500D03*
X31500Y-33500D03*
X31500Y-34500D03*
X31500Y-35500D03*
X31500Y-36500D03*
X31500Y-37500D03*
X31500Y-38500D03*
X31500Y-39500D03*
X31500Y-40500D03*
X31500Y-41500D03*
X31500Y-42500D03*
X31500Y-43500D03*
X31500Y-44500D03*
X37500Y-44500D03*
X37500Y-43500D03*
X37500Y-42500D03*
X37500Y-41500D03*
X37500Y-40500D03*
X37500Y-39500D03*
X37500Y-38500D03*
X37500Y-37500D03*
X37500Y-36500D03*
X37500Y-35500D03*
X37500Y-34500D03*
X37500Y-33500D03*
X37500Y-32500D03*
X37500Y-31500D03*
X37500Y-30500D03*
X37500Y-29500D03*
X37500Y-28500D03*
X37500Y-27500D03*
X37500Y-26500D03*
X37500Y-25500D03*
G54D20*
X33622Y-22023D03*
X34606Y-22023D03*
X35393Y-22023D03*
X36377Y-22023D03*
G54D21*
X37303Y-21000D03*
X32696Y-21000D03*
G54D22*
X35885Y-21000D03*
X34114Y-21000D03*
G54D19*
X42000Y-44500D03*
X42000Y-41500D03*
X43000Y-40500D03*
X43000Y-37500D03*
X42000Y-40500D03*
X42000Y-37500D03*
X43000Y-44500D03*
X43000Y-41500D03*
X29000Y-26000D03*
X29000Y-29000D03*
X30000Y-29000D03*
X30000Y-26000D03*
X28000Y-26000D03*
X28000Y-29000D03*
X57000Y-30500D03*
X60000Y-30500D03*
G54D23*
X46375Y-21850D03*
X46125Y-21850D03*
X45875Y-21850D03*
X45625Y-21850D03*
X47125Y-24150D03*
X47125Y-21850D03*
X46875Y-21850D03*
X46625Y-21850D03*
X45375Y-24150D03*
X45625Y-24150D03*
X45875Y-24150D03*
X46125Y-24150D03*
X46375Y-24150D03*
X46625Y-24150D03*
X45375Y-21850D03*
X46875Y-24150D03*
G54D18*
X40500Y-22500D03*
G54D19*
X40500Y-23500D03*
X40500Y-24500D03*
G54D18*
X39500Y-22500D03*
G54D19*
X39500Y-23500D03*
X39500Y-24500D03*
X54000Y-22500D03*
X51000Y-22500D03*
X54000Y-21500D03*
X51000Y-21500D03*
G54D24*
X50000Y-21500D03*
X49000Y-21500D03*
X50000Y-23500D03*
X49000Y-23500D03*
G54D19*
X46250Y-25500D03*
X44250Y-25500D03*
G54D11*
X57000Y-46500D03*
X57000Y-45500D03*
X57000Y-44500D03*
X57000Y-43500D03*
X57000Y-42500D03*
X57000Y-41500D03*
X57000Y-40500D03*
X57000Y-39500D03*
X57000Y-38500D03*
X57000Y-37500D03*
X57000Y-36500D03*
X57000Y-35500D03*
X58000Y-46500D03*
X58000Y-45500D03*
X58000Y-44500D03*
X58000Y-43500D03*
X58000Y-42500D03*
X58000Y-41500D03*
X58000Y-40500D03*
X58000Y-39500D03*
X58000Y-38500D03*
X58000Y-37500D03*
X58000Y-36500D03*
X58000Y-35500D03*
X62000Y-46500D03*
X62000Y-45500D03*
X62000Y-44500D03*
X62000Y-43500D03*
X62000Y-42500D03*
X62000Y-41500D03*
X62000Y-40500D03*
X62000Y-39500D03*
X62000Y-38500D03*
X62000Y-37500D03*
X62000Y-36500D03*
X62000Y-35500D03*
X59000Y-46500D03*
X59000Y-45500D03*
X59000Y-44500D03*
X59000Y-43500D03*
X59000Y-42500D03*
X59000Y-41500D03*
X59000Y-40500D03*
X59000Y-39500D03*
X59000Y-38500D03*
X59000Y-37500D03*
X59000Y-36500D03*
X59000Y-35500D03*
X60000Y-46500D03*
X60000Y-45500D03*
X60000Y-44500D03*
X60000Y-43500D03*
X60000Y-42500D03*
X60000Y-41500D03*
X60000Y-40500D03*
X60000Y-39500D03*
X60000Y-38500D03*
X60000Y-37500D03*
X60000Y-36500D03*
X60000Y-35500D03*
X61000Y-46500D03*
X61000Y-45500D03*
X61000Y-44500D03*
X61000Y-43500D03*
X61000Y-42500D03*
X61000Y-41500D03*
X61000Y-40500D03*
X61000Y-39500D03*
X61000Y-38500D03*
X61000Y-37500D03*
X61000Y-36500D03*
X61000Y-35500D03*
X51000Y-46500D03*
X51000Y-45500D03*
X51000Y-44500D03*
X51000Y-43500D03*
X51000Y-42500D03*
X51000Y-41500D03*
X51000Y-40500D03*
X51000Y-39500D03*
X51000Y-38500D03*
X51000Y-37500D03*
X51000Y-36500D03*
X51000Y-35500D03*
X52000Y-46500D03*
X52000Y-45500D03*
X52000Y-44500D03*
X52000Y-43500D03*
X52000Y-42500D03*
X52000Y-41500D03*
X52000Y-40500D03*
X52000Y-39500D03*
X52000Y-38500D03*
X52000Y-37500D03*
X52000Y-36500D03*
X52000Y-35500D03*
X56000Y-46500D03*
X56000Y-45500D03*
X56000Y-44500D03*
X56000Y-43500D03*
X56000Y-42500D03*
X56000Y-41500D03*
X56000Y-40500D03*
X56000Y-39500D03*
X56000Y-38500D03*
X56000Y-37500D03*
X56000Y-36500D03*
X56000Y-35500D03*
X54000Y-46500D03*
X54000Y-45500D03*
X54000Y-44500D03*
X54000Y-43500D03*
X54000Y-42500D03*
X54000Y-41500D03*
X54000Y-40500D03*
X54000Y-39500D03*
X54000Y-38500D03*
X54000Y-37500D03*
X54000Y-36500D03*
X54000Y-35500D03*
X55000Y-46500D03*
X55000Y-45500D03*
X55000Y-44500D03*
X55000Y-43500D03*
X55000Y-42500D03*
X55000Y-41500D03*
X55000Y-40500D03*
X55000Y-39500D03*
X55000Y-38500D03*
X55000Y-37500D03*
X55000Y-36500D03*
X55000Y-35500D03*
X53000Y-46500D03*
X53000Y-45500D03*
X53000Y-44500D03*
X53000Y-43500D03*
X53000Y-42500D03*
X53000Y-41500D03*
X53000Y-40500D03*
X53000Y-39500D03*
X53000Y-38500D03*
X53000Y-37500D03*
X53000Y-36500D03*
X53000Y-35500D03*
G54D19*
X41500Y-22500D03*
X44500Y-22500D03*
X41500Y-23500D03*
X44500Y-23500D03*
X43250Y-24500D03*
X44250Y-24500D03*
X43250Y-21500D03*
X44250Y-21500D03*
G54D25*
X45750Y-20750D03*
X28000Y-50000D03*
X28000Y-42000D03*
X29750Y-45000D03*
X29750Y-38750D03*
X30250Y-44750D03*
X30250Y-38750D03*
X43250Y-23000D03*
X41750Y-24500D03*
X30750Y-46000D03*
X41250Y-25500D03*
X46750Y-21000D03*
X30000Y-47250D03*
X47750Y-21750D03*
X43000Y-27750D03*
X34500Y-23250D03*
X46250Y-21000D03*
X40500Y-46500D03*
X44000Y-43000D03*
X34000Y-40000D03*
X47500Y-36500D03*
X28500Y-29750D03*
X53250Y-25500D03*
X27250Y-28250D03*
X32000Y-48000D03*
X45500Y-26500D03*
G54D26*
X44000Y-49000D02*
X44000Y-49000D01*
X32000Y-41500D02*
X32000Y-41250D01*
X29500Y-29500D02*
X27750Y-31250D01*
X29500Y-28500D02*
X29500Y-29500D01*
X31500Y-26500D02*
X29500Y-28500D01*
X27750Y-38750D02*
X27000Y-39500D01*
X27750Y-31250D02*
X27750Y-38750D01*
X27000Y-39500D02*
X26000Y-39500D01*
X26000Y-39500D02*
X25000Y-39500D01*
X27000Y-40500D02*
X28000Y-39500D01*
X26000Y-40500D02*
X27000Y-40500D01*
X25000Y-40500D02*
X26000Y-40500D01*
X30500Y-28500D02*
X31500Y-27500D01*
X30500Y-29500D02*
X30500Y-28500D01*
X28000Y-32000D02*
X30500Y-29500D01*
X28000Y-39500D02*
X28000Y-32000D01*
X31500Y-28500D02*
X30750Y-29250D01*
X28250Y-40250D02*
X27000Y-41500D01*
X28250Y-32250D02*
X28250Y-40250D01*
X30750Y-29750D02*
X28250Y-32250D01*
X30750Y-29250D02*
X30750Y-29750D01*
X26000Y-41500D02*
X27000Y-41500D01*
X26000Y-41500D02*
X25000Y-41500D01*
X27000Y-42500D02*
X28500Y-41000D01*
X28500Y-32500D02*
X31500Y-29500D01*
X28500Y-41000D02*
X28500Y-32500D01*
X26000Y-42500D02*
X27000Y-42500D01*
X25000Y-42500D02*
X26000Y-42500D01*
X27000Y-43500D02*
X27250Y-43500D01*
X30500Y-31500D02*
X31500Y-31500D01*
X29000Y-33000D02*
X30500Y-31500D01*
X29000Y-41750D02*
X29000Y-33000D01*
X27250Y-43500D02*
X29000Y-41750D01*
X27000Y-43500D02*
X27000Y-43500D01*
X27000Y-43500D02*
X26000Y-43500D01*
X26000Y-43500D02*
X25000Y-43500D01*
X31500Y-32500D02*
X30000Y-32500D01*
X28000Y-44500D02*
X27000Y-44500D01*
X29250Y-43250D02*
X28000Y-44500D01*
X29250Y-33250D02*
X29250Y-43250D01*
X30000Y-32500D02*
X29250Y-33250D01*
X26000Y-44500D02*
X27000Y-44500D01*
X25000Y-44500D02*
X26000Y-44500D01*
X46625Y-24150D02*
X46625Y-23375D01*
X48250Y-22250D02*
X49000Y-21500D01*
X47750Y-22250D02*
X48250Y-22250D01*
X46625Y-23375D02*
X47750Y-22250D01*
X45625Y-21850D02*
X45625Y-20875D01*
X45625Y-20875D02*
X45750Y-20750D01*
G54D27*
X25000Y-47500D02*
X26000Y-47500D01*
X26000Y-47500D02*
X27000Y-47500D01*
G54D26*
X31500Y-39500D02*
X31250Y-39500D01*
X28000Y-46500D02*
X27000Y-47500D01*
X28000Y-45000D02*
X28000Y-46500D01*
X29500Y-43500D02*
X28000Y-45000D01*
X29500Y-41250D02*
X29500Y-43500D01*
X31250Y-39500D02*
X29500Y-41250D01*
G54D27*
X25000Y-48500D02*
X26000Y-48500D01*
X26000Y-48500D02*
X27000Y-48500D01*
G54D26*
X27000Y-48500D02*
X28250Y-47250D01*
X30750Y-40500D02*
X31500Y-40500D01*
X29750Y-41500D02*
X30750Y-40500D01*
X29750Y-43750D02*
X29750Y-41500D01*
X28250Y-45250D02*
X29750Y-43750D01*
X28250Y-47250D02*
X28250Y-45250D01*
G54D27*
X25000Y-49500D02*
X26000Y-49500D01*
X26000Y-49500D02*
X27000Y-49500D01*
G54D26*
X31500Y-41500D02*
X30500Y-41500D01*
X28500Y-48000D02*
X27000Y-49500D01*
X28500Y-45500D02*
X28500Y-48000D01*
X30000Y-44000D02*
X28500Y-45500D01*
X30000Y-42000D02*
X30000Y-44000D01*
X30500Y-41500D02*
X30000Y-42000D01*
G54D27*
X25000Y-50500D02*
X26000Y-50500D01*
X26000Y-50500D02*
X27000Y-50500D01*
G54D26*
X31500Y-30500D02*
X31000Y-30500D01*
X27500Y-50500D02*
X27000Y-50500D01*
X28000Y-50000D02*
X27500Y-50500D01*
X28750Y-41250D02*
X28000Y-42000D01*
X28750Y-32750D02*
X28750Y-41250D01*
X31000Y-30500D02*
X28750Y-32750D01*
G54D27*
X25000Y-51500D02*
X26000Y-51500D01*
X26000Y-51500D02*
X27000Y-51500D01*
G54D26*
X29750Y-38750D02*
X29750Y-38000D01*
X31500Y-33500D02*
X30000Y-33500D01*
X30000Y-33500D02*
X29500Y-34000D01*
X29500Y-34000D02*
X29500Y-37750D01*
X29750Y-38000D02*
X29500Y-37750D01*
X29000Y-45750D02*
X29750Y-45000D01*
X28250Y-51500D02*
X27000Y-51500D01*
X29000Y-50750D02*
X29000Y-46250D01*
X28250Y-51500D02*
X29000Y-50750D01*
X29000Y-46250D02*
X29000Y-45750D01*
G54D27*
X25000Y-52500D02*
X26000Y-52500D01*
X26000Y-52500D02*
X27000Y-52500D01*
G54D26*
X29750Y-37000D02*
X29750Y-37500D01*
X31000Y-34000D02*
X30000Y-34000D01*
X30000Y-34000D02*
X29750Y-34250D01*
X29750Y-34250D02*
X29750Y-37000D01*
X31000Y-34000D02*
X31500Y-34500D01*
X30250Y-38000D02*
X30250Y-38750D01*
X29750Y-37500D02*
X30250Y-38000D01*
X29250Y-46500D02*
X29750Y-46000D01*
X27000Y-52500D02*
X28250Y-52500D01*
X28500Y-52500D02*
X29250Y-51750D01*
X28250Y-52500D02*
X28500Y-52500D01*
X29250Y-51750D02*
X29250Y-46500D01*
X30250Y-45500D02*
X29750Y-46000D01*
X30250Y-44750D02*
X30250Y-45500D01*
X43250Y-23000D02*
X45750Y-23000D01*
X45750Y-23000D02*
X46375Y-22375D01*
X46375Y-21850D02*
X46375Y-22375D01*
X35750Y-25000D02*
X35750Y-24750D01*
X36750Y-40500D02*
X35750Y-39500D01*
X35750Y-39500D02*
X35750Y-25000D01*
X36750Y-40500D02*
X37500Y-40500D01*
X38000Y-24500D02*
X38250Y-24750D01*
X36000Y-24500D02*
X38000Y-24500D01*
X35750Y-24750D02*
X36000Y-24500D01*
X38750Y-25250D02*
X38250Y-24750D01*
X41000Y-25250D02*
X38750Y-25250D01*
X41750Y-24500D02*
X41000Y-25250D01*
G54D27*
X25000Y-53500D02*
X26000Y-53500D01*
X26000Y-53500D02*
X27000Y-53500D01*
G54D26*
X28000Y-53500D02*
X29500Y-52000D01*
X29500Y-52000D02*
X29500Y-47250D01*
X29500Y-47250D02*
X30750Y-46000D01*
X27000Y-53500D02*
X28000Y-53500D01*
X47125Y-21850D02*
X47125Y-21375D01*
X37000Y-39500D02*
X36000Y-38500D01*
X36000Y-38500D02*
X36000Y-25000D01*
X37000Y-39500D02*
X37500Y-39500D01*
X37750Y-24750D02*
X38250Y-25250D01*
X37500Y-24750D02*
X37750Y-24750D01*
X36250Y-24750D02*
X37500Y-24750D01*
X36000Y-25000D02*
X36250Y-24750D01*
X38500Y-25500D02*
X38250Y-25250D01*
X41250Y-25500D02*
X38500Y-25500D01*
X47125Y-21375D02*
X46750Y-21000D01*
G54D27*
X25000Y-54500D02*
X26000Y-54500D01*
X26000Y-54500D02*
X27000Y-54500D01*
G54D26*
X27500Y-54500D02*
X30000Y-52000D01*
X30000Y-52000D02*
X30000Y-47250D01*
X27000Y-54500D02*
X27500Y-54500D01*
X37250Y-24250D02*
X38250Y-24250D01*
X35750Y-24250D02*
X37250Y-24250D01*
X35500Y-24500D02*
X35750Y-24250D01*
X35750Y-40750D02*
X35500Y-40500D01*
X36500Y-41500D02*
X35750Y-40750D01*
X37500Y-41500D02*
X36500Y-41500D01*
X35500Y-40500D02*
X35500Y-24750D01*
X35500Y-24750D02*
X35500Y-24500D01*
X40000Y-25000D02*
X40500Y-24500D01*
X39000Y-25000D02*
X40000Y-25000D01*
X38250Y-24250D02*
X39000Y-25000D01*
X35500Y-24000D02*
X39000Y-24000D01*
X35250Y-24250D02*
X35250Y-40250D01*
X37500Y-42500D02*
X36000Y-42500D01*
X35250Y-41750D02*
X36000Y-42500D01*
X35250Y-40250D02*
X35250Y-41750D01*
X35500Y-24000D02*
X35250Y-24250D01*
X39000Y-24000D02*
X39500Y-24500D01*
X45000Y-34500D02*
X44500Y-34000D01*
X46000Y-35500D02*
X45000Y-34500D01*
X39750Y-30250D02*
X37500Y-32500D01*
X43000Y-30250D02*
X39750Y-30250D01*
X44500Y-31750D02*
X43000Y-30250D01*
X44500Y-34000D02*
X44500Y-31750D01*
X44750Y-32500D02*
X44750Y-33250D01*
X39000Y-30000D02*
X43250Y-30000D01*
X43250Y-30000D02*
X44750Y-31500D01*
X44750Y-31500D02*
X44750Y-32500D01*
X37500Y-31500D02*
X39000Y-30000D01*
X44750Y-33250D02*
X46000Y-34500D01*
X46000Y-33500D02*
X45750Y-33500D01*
X38250Y-29750D02*
X37500Y-30500D01*
X43500Y-29750D02*
X38250Y-29750D01*
X45000Y-31250D02*
X43500Y-29750D01*
X45000Y-32750D02*
X45000Y-31250D01*
X45750Y-33500D02*
X45000Y-32750D01*
X37500Y-29500D02*
X43750Y-29500D01*
X45250Y-31750D02*
X46000Y-32500D01*
X45250Y-31000D02*
X45250Y-31750D01*
X43750Y-29500D02*
X45250Y-31000D01*
X46000Y-31500D02*
X46000Y-31250D01*
X39000Y-28500D02*
X37500Y-28500D01*
X39750Y-29250D02*
X39000Y-28500D01*
X44000Y-29250D02*
X39750Y-29250D01*
X46000Y-31250D02*
X44000Y-29250D01*
X37500Y-27500D02*
X38500Y-27500D01*
X44500Y-29000D02*
X46000Y-30500D01*
X40000Y-29000D02*
X44500Y-29000D01*
X38500Y-27500D02*
X40000Y-29000D01*
X46000Y-29500D02*
X45750Y-29500D01*
X38000Y-26500D02*
X37500Y-26500D01*
X40250Y-28750D02*
X38000Y-26500D01*
X45000Y-28750D02*
X40250Y-28750D01*
X45750Y-29500D02*
X45000Y-28750D01*
X37500Y-25500D02*
X40500Y-28500D01*
X40500Y-28500D02*
X46000Y-28500D01*
X40000Y-44500D02*
X38750Y-45750D01*
X46000Y-44500D02*
X45500Y-44500D01*
X33750Y-45750D02*
X31500Y-43500D01*
X44250Y-45750D02*
X38750Y-45750D01*
X38750Y-45750D02*
X33750Y-45750D01*
X45500Y-44500D02*
X44250Y-45750D01*
X46000Y-44500D02*
X47000Y-44500D01*
X47000Y-44500D02*
X48000Y-44500D01*
X31500Y-44500D02*
X31000Y-44000D01*
X40000Y-43250D02*
X40000Y-42500D01*
X37750Y-45500D02*
X40000Y-43250D01*
X34750Y-45500D02*
X37750Y-45500D01*
X32250Y-43000D02*
X34750Y-45500D01*
X31250Y-43000D02*
X32250Y-43000D01*
X31000Y-43250D02*
X31250Y-43000D01*
X31000Y-44000D02*
X31000Y-43250D01*
X40000Y-42500D02*
X40500Y-42000D01*
X44500Y-42000D02*
X46000Y-43500D01*
X40500Y-42000D02*
X44500Y-42000D01*
X46000Y-43500D02*
X47000Y-43500D01*
X48000Y-43500D02*
X47000Y-43500D01*
X40000Y-40500D02*
X40750Y-39750D01*
X45750Y-42500D02*
X46000Y-42500D01*
X45250Y-42000D02*
X45750Y-42500D01*
X45250Y-41500D02*
X45250Y-42000D01*
X43500Y-39750D02*
X45250Y-41500D01*
X40750Y-39750D02*
X43500Y-39750D01*
X37500Y-44500D02*
X38750Y-43250D01*
X39500Y-40500D02*
X40000Y-40500D01*
X38750Y-41250D02*
X39500Y-40500D01*
X38750Y-43250D02*
X38750Y-41250D01*
X40000Y-40500D02*
X40100Y-40500D01*
X47000Y-42500D02*
X48000Y-42500D01*
X46000Y-42500D02*
X47000Y-42500D01*
X40000Y-38500D02*
X41000Y-39500D01*
X44000Y-39500D02*
X46000Y-41500D01*
X41000Y-39500D02*
X44000Y-39500D01*
X38400Y-42600D02*
X38400Y-39100D01*
X37500Y-43500D02*
X38400Y-42600D01*
X39000Y-38500D02*
X40000Y-38500D01*
X38400Y-39100D02*
X39000Y-38500D01*
X47000Y-41500D02*
X46000Y-41500D01*
X48000Y-41500D02*
X47000Y-41500D01*
X37500Y-38500D02*
X38250Y-38500D01*
X39000Y-37750D02*
X41250Y-37750D01*
X38250Y-38500D02*
X39000Y-37750D01*
X43750Y-38250D02*
X46000Y-40500D01*
X41750Y-38250D02*
X43750Y-38250D01*
X41250Y-37750D02*
X41750Y-38250D01*
X37500Y-37500D02*
X38500Y-37500D01*
X45250Y-38750D02*
X46000Y-39500D01*
X45250Y-38250D02*
X45250Y-38750D01*
X44000Y-37000D02*
X45250Y-38250D01*
X39000Y-37000D02*
X44000Y-37000D01*
X38500Y-37500D02*
X39000Y-37000D01*
X44250Y-36750D02*
X46000Y-38500D01*
X40250Y-36750D02*
X44250Y-36750D01*
X40000Y-36500D02*
X40250Y-36750D01*
X37500Y-36500D02*
X40000Y-36500D01*
X37500Y-35500D02*
X39250Y-35500D01*
X45000Y-36500D02*
X46000Y-37500D01*
X40250Y-36500D02*
X45000Y-36500D01*
X39250Y-35500D02*
X40250Y-36500D01*
X41500Y-22500D02*
X42250Y-22500D01*
X42250Y-22500D02*
X43250Y-21500D01*
X41500Y-23500D02*
X42250Y-23500D01*
X42250Y-23500D02*
X43250Y-24500D01*
X45875Y-24150D02*
X45875Y-23625D01*
X46625Y-22875D02*
X46625Y-21850D01*
X45875Y-23625D02*
X46625Y-22875D01*
X45625Y-24150D02*
X45625Y-24875D01*
X45625Y-24875D02*
X46000Y-25250D01*
X45875Y-24150D02*
X45875Y-25125D01*
X45875Y-25125D02*
X46000Y-25250D01*
X46000Y-25250D02*
X46250Y-25500D01*
X31500Y-42500D02*
X31250Y-42500D01*
X31250Y-45750D02*
X31250Y-47000D01*
X30750Y-45250D02*
X31250Y-45750D01*
X30750Y-43000D02*
X30750Y-45250D01*
X31250Y-42500D02*
X30750Y-43000D01*
X31500Y-25500D02*
X28000Y-29000D01*
X28000Y-24000D02*
X28000Y-21000D01*
X26000Y-24000D02*
X28000Y-24000D01*
X28000Y-25000D02*
X28000Y-24000D01*
X28000Y-26000D02*
X28000Y-25000D01*
X29000Y-26000D02*
X28000Y-26000D01*
G54D27*
X44250Y-26500D02*
X44250Y-25500D01*
X43000Y-27750D02*
X44250Y-26500D01*
G54D26*
X47750Y-21000D02*
X47750Y-21750D01*
X47250Y-20500D02*
X47750Y-21000D01*
X46750Y-20500D02*
X47250Y-20500D01*
X46500Y-20750D02*
X46750Y-20500D01*
X46250Y-21000D02*
X46500Y-20750D01*
X49750Y-25000D02*
X50000Y-25000D01*
X48750Y-26000D02*
X49750Y-25000D01*
X47250Y-26000D02*
X48750Y-26000D01*
X47000Y-25750D02*
X47250Y-26000D01*
X47000Y-25250D02*
X47000Y-25750D01*
X46500Y-24750D02*
X47000Y-25250D01*
X46375Y-24625D02*
X46500Y-24750D01*
X46375Y-24150D02*
X46375Y-24625D01*
G54D27*
X31750Y-23250D02*
X34500Y-23250D01*
X30000Y-25000D02*
X31750Y-23250D01*
X31750Y-23250D02*
X32750Y-22250D01*
X32750Y-21053D02*
X32696Y-21000D01*
X32750Y-22250D02*
X32750Y-21053D01*
G54D26*
X46125Y-21850D02*
X46125Y-21125D01*
X46125Y-21125D02*
X46250Y-21000D01*
G54D27*
X50000Y-25000D02*
X50750Y-25000D01*
X50750Y-25000D02*
X51250Y-25500D01*
X51250Y-25500D02*
X51250Y-27750D01*
X51250Y-27750D02*
X52000Y-28500D01*
X55000Y-28500D02*
X57500Y-28500D01*
X52500Y-28500D02*
X55000Y-28500D01*
X50000Y-28500D02*
X52000Y-28500D01*
X52000Y-28500D02*
X52500Y-28500D01*
X48000Y-48000D02*
X50500Y-48000D01*
X50500Y-48000D02*
X51000Y-48500D01*
X51000Y-48500D02*
X53000Y-48500D01*
X53000Y-48500D02*
X54000Y-48500D01*
X54000Y-48500D02*
X55000Y-48500D01*
X55000Y-48500D02*
X56000Y-48500D01*
X56000Y-48500D02*
X57000Y-48500D01*
X57000Y-48500D02*
X58000Y-48500D01*
X58000Y-48500D02*
X59000Y-48500D01*
X59000Y-48500D02*
X60000Y-48500D01*
X60000Y-48500D02*
X61000Y-48500D01*
X61000Y-48500D02*
X62000Y-48500D01*
X31500Y-36500D02*
X32500Y-36500D01*
X34000Y-38000D02*
X34000Y-40000D01*
X32500Y-36500D02*
X34000Y-38000D01*
X43000Y-35500D02*
X44500Y-35500D01*
X45500Y-36500D02*
X47500Y-36500D01*
X44500Y-35500D02*
X45500Y-36500D01*
G54D26*
X30750Y-50500D02*
X30750Y-49500D01*
X30750Y-49500D02*
X31250Y-49000D01*
X26000Y-26000D02*
X26750Y-26750D01*
X27500Y-29750D02*
X28500Y-29750D01*
X26750Y-29000D02*
X27500Y-29750D01*
X26750Y-26750D02*
X26750Y-29000D01*
G54D27*
X32500Y-50500D02*
X30750Y-50500D01*
X45500Y-50500D02*
X47700Y-50500D01*
X47700Y-50500D02*
X48000Y-50200D01*
X45500Y-50500D02*
X45500Y-49750D01*
X47250Y-48000D02*
X48000Y-48000D01*
X45500Y-49750D02*
X47250Y-48000D01*
G54D26*
X32500Y-50500D02*
X32250Y-50500D01*
X41000Y-40500D02*
X42000Y-40500D01*
X41000Y-42500D02*
X42250Y-42500D01*
X43000Y-43250D02*
X43000Y-44500D01*
X42250Y-42500D02*
X43000Y-43250D01*
X41000Y-44500D02*
X42000Y-44500D01*
G54D27*
X48000Y-25500D02*
X48000Y-24750D01*
X48500Y-24250D02*
X49500Y-24250D01*
X48000Y-24750D02*
X48500Y-24250D01*
X49250Y-24250D02*
X49500Y-24250D01*
X49500Y-24250D02*
X51500Y-24250D01*
X51500Y-24250D02*
X52500Y-25250D01*
X52500Y-25250D02*
X52500Y-27500D01*
X55000Y-27500D02*
X52500Y-27500D01*
X60000Y-27500D02*
X58750Y-27500D01*
X55750Y-26750D02*
X55000Y-27500D01*
X58000Y-26750D02*
X55750Y-26750D01*
X58750Y-27500D02*
X58000Y-26750D01*
X42500Y-57000D02*
X42500Y-55500D01*
X42500Y-55500D02*
X41500Y-54500D01*
X44500Y-54500D02*
X45500Y-54500D01*
X40500Y-54500D02*
X41500Y-54500D01*
X41500Y-54500D02*
X44500Y-54500D01*
X44500Y-57000D02*
X44500Y-57000D01*
X45500Y-52500D02*
X43500Y-52500D01*
X46500Y-53500D02*
X45500Y-52500D01*
X46500Y-55000D02*
X46500Y-53500D01*
X44500Y-57000D02*
X46500Y-55000D01*
X43500Y-57000D02*
X44500Y-57000D01*
X43500Y-52500D02*
X42500Y-52500D01*
X40500Y-51500D02*
X41000Y-51500D01*
X42000Y-52500D02*
X42500Y-52500D01*
X41000Y-51500D02*
X42000Y-52500D01*
X33500Y-57000D02*
X34500Y-57000D01*
X34500Y-52500D02*
X32500Y-52500D01*
X33500Y-57000D02*
X33500Y-57000D01*
X31500Y-55000D02*
X33500Y-57000D01*
X31500Y-53500D02*
X31500Y-55000D01*
X32500Y-52500D02*
X31500Y-53500D01*
X35500Y-52500D02*
X34500Y-52500D01*
X37500Y-51500D02*
X37000Y-51500D01*
X36000Y-52500D02*
X35500Y-52500D01*
X37000Y-51500D02*
X36000Y-52500D01*
X35500Y-57000D02*
X35500Y-55500D01*
X35500Y-55500D02*
X36500Y-54500D01*
X33500Y-54500D02*
X36500Y-54500D01*
X36500Y-54500D02*
X37500Y-54500D01*
X32500Y-54500D02*
X33500Y-54500D01*
G54D26*
X35393Y-22023D02*
X35393Y-22393D01*
X40000Y-23000D02*
X40500Y-23500D01*
X36000Y-23000D02*
X40000Y-23000D01*
X35393Y-22393D02*
X36000Y-23000D01*
X30000Y-26000D02*
X29250Y-25250D01*
X29250Y-24750D02*
X30000Y-24000D01*
X29250Y-25250D02*
X29250Y-24750D01*
X30000Y-21000D02*
X30000Y-24000D01*
X39500Y-23500D02*
X35500Y-23500D01*
X34606Y-22606D02*
X34606Y-22023D01*
X35500Y-23500D02*
X34606Y-22606D01*
X44500Y-23500D02*
X45000Y-23500D01*
X45375Y-23875D02*
X45375Y-24150D01*
X45000Y-23500D02*
X45375Y-23875D01*
X44500Y-22500D02*
X45000Y-22500D01*
X45375Y-22125D02*
X45375Y-21850D01*
X45000Y-22500D02*
X45375Y-22125D01*
X47000Y-26500D02*
X48000Y-26500D01*
X46750Y-26250D02*
X47000Y-26500D01*
X46750Y-25250D02*
X46750Y-26250D01*
X46125Y-24625D02*
X46750Y-25250D01*
X46125Y-24150D02*
X46125Y-24625D01*
X54000Y-24750D02*
X54000Y-22500D01*
X53250Y-25500D02*
X54000Y-24750D01*
X48000Y-26500D02*
X48500Y-26500D01*
X54250Y-29750D02*
X55000Y-30500D01*
X49750Y-29750D02*
X54250Y-29750D01*
X49250Y-29250D02*
X49750Y-29750D01*
X49250Y-27250D02*
X49250Y-29250D01*
X48500Y-26500D02*
X49250Y-27250D01*
X53500Y-51000D02*
X53500Y-50000D01*
X53500Y-50000D02*
X53000Y-49500D01*
G54D27*
X62000Y-49500D02*
X61000Y-49500D01*
X61000Y-49500D02*
X60000Y-49500D01*
X60000Y-49500D02*
X59000Y-49500D01*
X59000Y-49500D02*
X58000Y-49500D01*
X58000Y-49500D02*
X57000Y-49500D01*
X57000Y-49500D02*
X56000Y-49500D01*
X56000Y-49500D02*
X55000Y-49500D01*
X55000Y-49500D02*
X54000Y-49500D01*
X54000Y-49500D02*
X53000Y-49500D01*
X53000Y-49500D02*
X52000Y-49500D01*
X52000Y-49500D02*
X51000Y-49500D01*
X51000Y-49500D02*
X50500Y-49500D01*
X50500Y-49500D02*
X49000Y-49500D01*
X49000Y-49500D02*
X48500Y-49000D01*
X48500Y-49000D02*
X48000Y-49000D01*
G54D26*
X26000Y-25000D02*
X26250Y-25000D01*
X27250Y-26000D02*
X27250Y-28250D01*
X26250Y-25000D02*
X27250Y-26000D01*
G54D27*
X48000Y-52200D02*
X48000Y-51500D01*
G54D26*
X52500Y-51500D02*
X53000Y-51500D01*
X53000Y-51500D02*
X53500Y-51000D01*
X57500Y-51500D02*
X57500Y-52000D01*
X57500Y-52000D02*
X57000Y-52500D01*
X59500Y-53500D02*
X59000Y-53500D01*
X55000Y-52500D02*
X53500Y-51000D01*
X58000Y-52500D02*
X57000Y-52500D01*
X57000Y-52500D02*
X55000Y-52500D01*
X59000Y-53500D02*
X58000Y-52500D01*
X54500Y-53500D02*
X53500Y-52500D01*
X53500Y-52500D02*
X53500Y-51000D01*
G54D27*
X49500Y-44000D02*
X49500Y-35000D01*
X49500Y-44750D02*
X47750Y-46500D01*
X46500Y-47750D02*
X47750Y-46500D01*
X49500Y-44000D02*
X49500Y-44750D01*
X49500Y-35000D02*
X50000Y-34500D01*
X34500Y-48500D02*
X32500Y-48500D01*
X32500Y-48500D02*
X32000Y-48000D01*
X30750Y-51500D02*
X33000Y-51500D01*
X33500Y-51000D02*
X33500Y-50500D01*
X33000Y-51500D02*
X33500Y-51000D01*
X50000Y-30500D02*
X50000Y-31500D01*
X50000Y-31500D02*
X50000Y-32500D01*
X50000Y-32500D02*
X50000Y-33500D01*
X50000Y-33500D02*
X50000Y-34500D01*
X44500Y-50500D02*
X44500Y-49750D01*
X44500Y-49750D02*
X46500Y-47750D01*
X43500Y-48500D02*
X43500Y-48250D01*
X43500Y-48250D02*
X44000Y-47750D01*
X40500Y-47500D02*
X42500Y-47500D01*
X42750Y-47750D02*
X44000Y-47750D01*
X44000Y-47750D02*
X46500Y-47750D01*
X42500Y-47500D02*
X42750Y-47750D01*
X40500Y-47500D02*
X35500Y-47500D01*
X35500Y-47500D02*
X34500Y-48500D01*
X37500Y-56500D02*
X38000Y-56500D01*
X39000Y-49000D02*
X40500Y-47500D01*
X39000Y-55500D02*
X39000Y-49000D01*
X38000Y-56500D02*
X39000Y-55500D01*
X33500Y-50500D02*
X33500Y-49500D01*
X33500Y-49500D02*
X34500Y-48500D01*
X45500Y-26500D02*
X46500Y-27500D01*
X48000Y-27500D02*
X46500Y-27500D01*
G54D26*
X33893Y-22106D02*
X33893Y-22023D01*
G54D10*
G36*
X27350Y-36903D02*
X27136Y-36815D01*
X26864Y-36814D01*
X26612Y-36918D01*
X26499Y-37031D01*
X26388Y-36919D01*
X26136Y-36815D01*
X25864Y-36814D01*
X25612Y-36918D01*
X25499Y-37031D01*
X25388Y-36919D01*
X25136Y-36815D01*
X25120Y-36815D01*
X25120Y-35185D01*
X25135Y-35185D01*
X25387Y-35081D01*
X25500Y-34968D01*
X25611Y-35080D01*
X25863Y-35184D01*
X26135Y-35185D01*
X26387Y-35081D01*
X26500Y-34968D01*
X26611Y-35080D01*
X26863Y-35184D01*
X27135Y-35185D01*
X27350Y-35096D01*
X27350Y-36903D01*
X27350Y-36903D01*
G37*
G54D28*
X27350Y-36903D02*
X27136Y-36815D01*
X26864Y-36814D01*
X26612Y-36918D01*
X26499Y-37031D01*
X26388Y-36919D01*
X26136Y-36815D01*
X25864Y-36814D01*
X25612Y-36918D01*
X25499Y-37031D01*
X25388Y-36919D01*
X25136Y-36815D01*
X25120Y-36815D01*
X25120Y-35185D01*
X25135Y-35185D01*
X25387Y-35081D01*
X25500Y-34968D01*
X25611Y-35080D01*
X25863Y-35184D01*
X26135Y-35185D01*
X26387Y-35081D01*
X26500Y-34968D01*
X26611Y-35080D01*
X26863Y-35184D01*
X27135Y-35185D01*
X27350Y-35096D01*
X27350Y-36903D01*
G54D10*
G36*
X28821Y-29613D02*
X27467Y-30967D01*
X27380Y-31096D01*
X27375Y-31122D01*
X27350Y-31250D01*
X27350Y-31815D01*
X27253Y-31814D01*
X26685Y-31814D01*
X26685Y-28864D01*
X26581Y-28612D01*
X26468Y-28499D01*
X26580Y-28388D01*
X26684Y-28136D01*
X26685Y-27864D01*
X26581Y-27612D01*
X26468Y-27499D01*
X26580Y-27388D01*
X26684Y-27136D01*
X26685Y-26864D01*
X26581Y-26612D01*
X26388Y-26419D01*
X26136Y-26315D01*
X25864Y-26314D01*
X25612Y-26418D01*
X25419Y-26611D01*
X25315Y-26863D01*
X25314Y-27135D01*
X25418Y-27387D01*
X25531Y-27500D01*
X25419Y-27611D01*
X25315Y-27863D01*
X25314Y-28135D01*
X25418Y-28387D01*
X25531Y-28500D01*
X25419Y-28611D01*
X25315Y-28863D01*
X25314Y-29135D01*
X25418Y-29387D01*
X25611Y-29580D01*
X25863Y-29684D01*
X26135Y-29685D01*
X26387Y-29581D01*
X26580Y-29388D01*
X26684Y-29136D01*
X26685Y-28864D01*
X26685Y-31814D01*
X26603Y-31814D01*
X26499Y-31857D01*
X26396Y-31815D01*
X26253Y-31814D01*
X25603Y-31814D01*
X25499Y-31857D01*
X25396Y-31815D01*
X25253Y-31814D01*
X25120Y-31814D01*
X25120Y-22260D01*
X25342Y-22482D01*
X25768Y-22659D01*
X26229Y-22660D01*
X26656Y-22483D01*
X26982Y-22157D01*
X27159Y-21731D01*
X27160Y-21270D01*
X26983Y-20843D01*
X26760Y-20620D01*
X27416Y-20620D01*
X27315Y-20863D01*
X27314Y-21135D01*
X27418Y-21387D01*
X27600Y-21568D01*
X27600Y-23431D01*
X27431Y-23600D01*
X26683Y-23600D01*
X26630Y-23471D01*
X26529Y-23369D01*
X26396Y-23315D01*
X26253Y-23314D01*
X25603Y-23314D01*
X25471Y-23369D01*
X25369Y-23470D01*
X25315Y-23603D01*
X25314Y-23746D01*
X25314Y-24396D01*
X25369Y-24528D01*
X25435Y-24595D01*
X25419Y-24611D01*
X25315Y-24863D01*
X25314Y-25135D01*
X25418Y-25387D01*
X25611Y-25580D01*
X25863Y-25684D01*
X26135Y-25685D01*
X26301Y-25616D01*
X26850Y-26165D01*
X26850Y-27893D01*
X26796Y-27946D01*
X26715Y-28143D01*
X26714Y-28355D01*
X26796Y-28552D01*
X26946Y-28703D01*
X27143Y-28784D01*
X27355Y-28785D01*
X27411Y-28762D01*
X27365Y-28873D01*
X27364Y-29125D01*
X27461Y-29359D01*
X27639Y-29538D01*
X27873Y-29634D01*
X28125Y-29635D01*
X28359Y-29538D01*
X28500Y-29398D01*
X28639Y-29538D01*
X28821Y-29613D01*
X28821Y-29613D01*
G37*
G54D28*
X28821Y-29613D02*
X27467Y-30967D01*
X27380Y-31096D01*
X27375Y-31122D01*
X27350Y-31250D01*
X27350Y-31815D01*
X27253Y-31814D01*
X26685Y-31814D01*
X26685Y-28864D01*
X26581Y-28612D01*
X26468Y-28499D01*
X26580Y-28388D01*
X26684Y-28136D01*
X26685Y-27864D01*
X26581Y-27612D01*
X26468Y-27499D01*
X26580Y-27388D01*
X26684Y-27136D01*
X26685Y-26864D01*
X26581Y-26612D01*
X26388Y-26419D01*
X26136Y-26315D01*
X25864Y-26314D01*
X25612Y-26418D01*
X25419Y-26611D01*
X25315Y-26863D01*
X25314Y-27135D01*
X25418Y-27387D01*
X25531Y-27500D01*
X25419Y-27611D01*
X25315Y-27863D01*
X25314Y-28135D01*
X25418Y-28387D01*
X25531Y-28500D01*
X25419Y-28611D01*
X25315Y-28863D01*
X25314Y-29135D01*
X25418Y-29387D01*
X25611Y-29580D01*
X25863Y-29684D01*
X26135Y-29685D01*
X26387Y-29581D01*
X26580Y-29388D01*
X26684Y-29136D01*
X26685Y-28864D01*
X26685Y-31814D01*
X26603Y-31814D01*
X26499Y-31857D01*
X26396Y-31815D01*
X26253Y-31814D01*
X25603Y-31814D01*
X25499Y-31857D01*
X25396Y-31815D01*
X25253Y-31814D01*
X25120Y-31814D01*
X25120Y-22260D01*
X25342Y-22482D01*
X25768Y-22659D01*
X26229Y-22660D01*
X26656Y-22483D01*
X26982Y-22157D01*
X27159Y-21731D01*
X27160Y-21270D01*
X26983Y-20843D01*
X26760Y-20620D01*
X27416Y-20620D01*
X27315Y-20863D01*
X27314Y-21135D01*
X27418Y-21387D01*
X27600Y-21568D01*
X27600Y-23431D01*
X27431Y-23600D01*
X26683Y-23600D01*
X26630Y-23471D01*
X26529Y-23369D01*
X26396Y-23315D01*
X26253Y-23314D01*
X25603Y-23314D01*
X25471Y-23369D01*
X25369Y-23470D01*
X25315Y-23603D01*
X25314Y-23746D01*
X25314Y-24396D01*
X25369Y-24528D01*
X25435Y-24595D01*
X25419Y-24611D01*
X25315Y-24863D01*
X25314Y-25135D01*
X25418Y-25387D01*
X25611Y-25580D01*
X25863Y-25684D01*
X26135Y-25685D01*
X26301Y-25616D01*
X26850Y-26165D01*
X26850Y-27893D01*
X26796Y-27946D01*
X26715Y-28143D01*
X26714Y-28355D01*
X26796Y-28552D01*
X26946Y-28703D01*
X27143Y-28784D01*
X27355Y-28785D01*
X27411Y-28762D01*
X27365Y-28873D01*
X27364Y-29125D01*
X27461Y-29359D01*
X27639Y-29538D01*
X27873Y-29634D01*
X28125Y-29635D01*
X28359Y-29538D01*
X28500Y-29398D01*
X28639Y-29538D01*
X28821Y-29613D01*
G54D10*
G36*
X30108Y-28457D02*
X30100Y-28500D01*
X30100Y-29334D01*
X29891Y-29542D01*
X29899Y-29500D01*
X29900Y-29500D01*
X29900Y-28665D01*
X30108Y-28457D01*
X30108Y-28457D01*
G37*
G54D28*
X30108Y-28457D02*
X30100Y-28500D01*
X30100Y-29334D01*
X29891Y-29542D01*
X29899Y-29500D01*
X29900Y-29500D01*
X29900Y-28665D01*
X30108Y-28457D01*
G54D10*
G36*
X33268Y-49010D02*
X33139Y-49139D01*
X33028Y-49304D01*
X32990Y-49500D01*
X32990Y-49826D01*
X32946Y-49844D01*
X32844Y-49945D01*
X32790Y-50078D01*
X32789Y-50221D01*
X32789Y-50921D01*
X32809Y-50969D01*
X32788Y-50990D01*
X31388Y-50990D01*
X31380Y-50971D01*
X31279Y-50869D01*
X31146Y-50815D01*
X31003Y-50814D01*
X30400Y-50814D01*
X30400Y-47606D01*
X30453Y-47553D01*
X30534Y-47356D01*
X30535Y-47144D01*
X30453Y-46947D01*
X30411Y-46904D01*
X30645Y-46670D01*
X30565Y-46863D01*
X30564Y-47135D01*
X30668Y-47387D01*
X30861Y-47580D01*
X31113Y-47684D01*
X31385Y-47685D01*
X31637Y-47581D01*
X31830Y-47388D01*
X31874Y-47281D01*
X31918Y-47387D01*
X31996Y-47464D01*
X31894Y-47464D01*
X31697Y-47546D01*
X31546Y-47696D01*
X31465Y-47893D01*
X31464Y-48105D01*
X31546Y-48302D01*
X31696Y-48453D01*
X31757Y-48478D01*
X32139Y-48860D01*
X32304Y-48971D01*
X32304Y-48971D01*
X32500Y-49010D01*
X33268Y-49010D01*
X33268Y-49010D01*
G37*
G54D28*
X33268Y-49010D02*
X33139Y-49139D01*
X33028Y-49304D01*
X32990Y-49500D01*
X32990Y-49826D01*
X32946Y-49844D01*
X32844Y-49945D01*
X32790Y-50078D01*
X32789Y-50221D01*
X32789Y-50921D01*
X32809Y-50969D01*
X32788Y-50990D01*
X31388Y-50990D01*
X31380Y-50971D01*
X31279Y-50869D01*
X31146Y-50815D01*
X31003Y-50814D01*
X30400Y-50814D01*
X30400Y-47606D01*
X30453Y-47553D01*
X30534Y-47356D01*
X30535Y-47144D01*
X30453Y-46947D01*
X30411Y-46904D01*
X30645Y-46670D01*
X30565Y-46863D01*
X30564Y-47135D01*
X30668Y-47387D01*
X30861Y-47580D01*
X31113Y-47684D01*
X31385Y-47685D01*
X31637Y-47581D01*
X31830Y-47388D01*
X31874Y-47281D01*
X31918Y-47387D01*
X31996Y-47464D01*
X31894Y-47464D01*
X31697Y-47546D01*
X31546Y-47696D01*
X31465Y-47893D01*
X31464Y-48105D01*
X31546Y-48302D01*
X31696Y-48453D01*
X31757Y-48478D01*
X32139Y-48860D01*
X32304Y-48971D01*
X32304Y-48971D01*
X32500Y-49010D01*
X33268Y-49010D01*
G54D10*
G36*
X37289Y-45100D02*
X34915Y-45100D01*
X32532Y-42717D01*
X32403Y-42630D01*
X32377Y-42625D01*
X32250Y-42600D01*
X32134Y-42600D01*
X32135Y-42374D01*
X32038Y-42140D01*
X31898Y-41999D01*
X31998Y-41899D01*
X32000Y-41900D01*
X32153Y-41869D01*
X32282Y-41782D01*
X32369Y-41653D01*
X32400Y-41500D01*
X32400Y-41250D01*
X32369Y-41096D01*
X32282Y-40967D01*
X32153Y-40880D01*
X32039Y-40857D01*
X32134Y-40626D01*
X32135Y-40374D01*
X32038Y-40140D01*
X31898Y-39999D01*
X32038Y-39860D01*
X32134Y-39626D01*
X32135Y-39374D01*
X32038Y-39140D01*
X31898Y-38999D01*
X32038Y-38860D01*
X32134Y-38626D01*
X32135Y-38374D01*
X32038Y-38140D01*
X31898Y-37999D01*
X32038Y-37860D01*
X32134Y-37626D01*
X32135Y-37374D01*
X32038Y-37140D01*
X31860Y-36961D01*
X31626Y-36865D01*
X31374Y-36864D01*
X31140Y-36961D01*
X30961Y-37139D01*
X30865Y-37373D01*
X30864Y-37625D01*
X30961Y-37859D01*
X31101Y-38000D01*
X30961Y-38139D01*
X30865Y-38373D01*
X30864Y-38625D01*
X30961Y-38859D01*
X31101Y-39000D01*
X30961Y-39139D01*
X30903Y-39280D01*
X29650Y-40534D01*
X29650Y-39284D01*
X29855Y-39285D01*
X30000Y-39225D01*
X30143Y-39284D01*
X30355Y-39285D01*
X30552Y-39203D01*
X30703Y-39053D01*
X30784Y-38856D01*
X30785Y-38644D01*
X30703Y-38447D01*
X30650Y-38393D01*
X30650Y-38000D01*
X30619Y-37846D01*
X30619Y-37846D01*
X30590Y-37803D01*
X30532Y-37717D01*
X30532Y-37717D01*
X30150Y-37334D01*
X30150Y-37000D01*
X30150Y-35096D01*
X30363Y-35184D01*
X30635Y-35185D01*
X30887Y-35081D01*
X31035Y-34933D01*
X31101Y-35000D01*
X30961Y-35139D01*
X30865Y-35373D01*
X30864Y-35625D01*
X30961Y-35859D01*
X31139Y-36038D01*
X31373Y-36134D01*
X31625Y-36135D01*
X31859Y-36038D01*
X32038Y-35860D01*
X32134Y-35626D01*
X32135Y-35374D01*
X32038Y-35140D01*
X31898Y-34999D01*
X32038Y-34860D01*
X32134Y-34626D01*
X32135Y-34374D01*
X32038Y-34140D01*
X31898Y-33999D01*
X32038Y-33860D01*
X32134Y-33626D01*
X32135Y-33374D01*
X32038Y-33140D01*
X31898Y-32999D01*
X32038Y-32860D01*
X32134Y-32626D01*
X32135Y-32374D01*
X32038Y-32140D01*
X31898Y-31999D01*
X32038Y-31860D01*
X32134Y-31626D01*
X32135Y-31374D01*
X32038Y-31140D01*
X31898Y-30999D01*
X32038Y-30860D01*
X32134Y-30626D01*
X32135Y-30374D01*
X32038Y-30140D01*
X31898Y-29999D01*
X32038Y-29860D01*
X32134Y-29626D01*
X32135Y-29374D01*
X32038Y-29140D01*
X31898Y-28999D01*
X32038Y-28860D01*
X32134Y-28626D01*
X32135Y-28374D01*
X32038Y-28140D01*
X31898Y-27999D01*
X32038Y-27860D01*
X32134Y-27626D01*
X32135Y-27374D01*
X32038Y-27140D01*
X31898Y-26999D01*
X32038Y-26860D01*
X32134Y-26626D01*
X32135Y-26374D01*
X32038Y-26140D01*
X31978Y-26080D01*
X31978Y-26080D01*
X32080Y-25979D01*
X32134Y-25846D01*
X32135Y-25703D01*
X32135Y-25153D01*
X32080Y-25021D01*
X31979Y-24919D01*
X31846Y-24865D01*
X31703Y-24864D01*
X31153Y-24864D01*
X31021Y-24919D01*
X30919Y-25020D01*
X30865Y-25153D01*
X30864Y-25296D01*
X30864Y-25569D01*
X30613Y-25821D01*
X30538Y-25640D01*
X30360Y-25461D01*
X30126Y-25365D01*
X29930Y-25364D01*
X29650Y-25084D01*
X29650Y-24915D01*
X29880Y-24684D01*
X30135Y-24685D01*
X30387Y-24581D01*
X30580Y-24388D01*
X30684Y-24136D01*
X30685Y-23864D01*
X30581Y-23612D01*
X30400Y-23431D01*
X30400Y-21568D01*
X30580Y-21388D01*
X30684Y-21136D01*
X30685Y-20864D01*
X30584Y-20620D01*
X31380Y-20620D01*
X31380Y-22120D01*
X32961Y-22120D01*
X32961Y-22488D01*
X33016Y-22620D01*
X33117Y-22722D01*
X33250Y-22777D01*
X33393Y-22777D01*
X33993Y-22777D01*
X34114Y-22727D01*
X34234Y-22777D01*
X34248Y-22777D01*
X34323Y-22889D01*
X35184Y-23750D01*
X34967Y-23967D01*
X34880Y-24096D01*
X34875Y-24122D01*
X34850Y-24250D01*
X34850Y-40250D01*
X34850Y-41750D01*
X34875Y-41877D01*
X34880Y-41903D01*
X34967Y-42032D01*
X35717Y-42782D01*
X35717Y-42782D01*
X35803Y-42840D01*
X35846Y-42869D01*
X35846Y-42869D01*
X35999Y-42899D01*
X36000Y-42900D01*
X37002Y-42900D01*
X37101Y-43000D01*
X36961Y-43139D01*
X36865Y-43373D01*
X36864Y-43625D01*
X36961Y-43859D01*
X37101Y-44000D01*
X36961Y-44139D01*
X36865Y-44373D01*
X36864Y-44625D01*
X36961Y-44859D01*
X37139Y-45038D01*
X37289Y-45100D01*
X37289Y-45100D01*
G37*
G54D28*
X37289Y-45100D02*
X34915Y-45100D01*
X32532Y-42717D01*
X32403Y-42630D01*
X32377Y-42625D01*
X32250Y-42600D01*
X32134Y-42600D01*
X32135Y-42374D01*
X32038Y-42140D01*
X31898Y-41999D01*
X31998Y-41899D01*
X32000Y-41900D01*
X32153Y-41869D01*
X32282Y-41782D01*
X32369Y-41653D01*
X32400Y-41500D01*
X32400Y-41250D01*
X32369Y-41096D01*
X32282Y-40967D01*
X32153Y-40880D01*
X32039Y-40857D01*
X32134Y-40626D01*
X32135Y-40374D01*
X32038Y-40140D01*
X31898Y-39999D01*
X32038Y-39860D01*
X32134Y-39626D01*
X32135Y-39374D01*
X32038Y-39140D01*
X31898Y-38999D01*
X32038Y-38860D01*
X32134Y-38626D01*
X32135Y-38374D01*
X32038Y-38140D01*
X31898Y-37999D01*
X32038Y-37860D01*
X32134Y-37626D01*
X32135Y-37374D01*
X32038Y-37140D01*
X31860Y-36961D01*
X31626Y-36865D01*
X31374Y-36864D01*
X31140Y-36961D01*
X30961Y-37139D01*
X30865Y-37373D01*
X30864Y-37625D01*
X30961Y-37859D01*
X31101Y-38000D01*
X30961Y-38139D01*
X30865Y-38373D01*
X30864Y-38625D01*
X30961Y-38859D01*
X31101Y-39000D01*
X30961Y-39139D01*
X30903Y-39280D01*
X29650Y-40534D01*
X29650Y-39284D01*
X29855Y-39285D01*
X30000Y-39225D01*
X30143Y-39284D01*
X30355Y-39285D01*
X30552Y-39203D01*
X30703Y-39053D01*
X30784Y-38856D01*
X30785Y-38644D01*
X30703Y-38447D01*
X30650Y-38393D01*
X30650Y-38000D01*
X30619Y-37846D01*
X30619Y-37846D01*
X30590Y-37803D01*
X30532Y-37717D01*
X30532Y-37717D01*
X30150Y-37334D01*
X30150Y-37000D01*
X30150Y-35096D01*
X30363Y-35184D01*
X30635Y-35185D01*
X30887Y-35081D01*
X31035Y-34933D01*
X31101Y-35000D01*
X30961Y-35139D01*
X30865Y-35373D01*
X30864Y-35625D01*
X30961Y-35859D01*
X31139Y-36038D01*
X31373Y-36134D01*
X31625Y-36135D01*
X31859Y-36038D01*
X32038Y-35860D01*
X32134Y-35626D01*
X32135Y-35374D01*
X32038Y-35140D01*
X31898Y-34999D01*
X32038Y-34860D01*
X32134Y-34626D01*
X32135Y-34374D01*
X32038Y-34140D01*
X31898Y-33999D01*
X32038Y-33860D01*
X32134Y-33626D01*
X32135Y-33374D01*
X32038Y-33140D01*
X31898Y-32999D01*
X32038Y-32860D01*
X32134Y-32626D01*
X32135Y-32374D01*
X32038Y-32140D01*
X31898Y-31999D01*
X32038Y-31860D01*
X32134Y-31626D01*
X32135Y-31374D01*
X32038Y-31140D01*
X31898Y-30999D01*
X32038Y-30860D01*
X32134Y-30626D01*
X32135Y-30374D01*
X32038Y-30140D01*
X31898Y-29999D01*
X32038Y-29860D01*
X32134Y-29626D01*
X32135Y-29374D01*
X32038Y-29140D01*
X31898Y-28999D01*
X32038Y-28860D01*
X32134Y-28626D01*
X32135Y-28374D01*
X32038Y-28140D01*
X31898Y-27999D01*
X32038Y-27860D01*
X32134Y-27626D01*
X32135Y-27374D01*
X32038Y-27140D01*
X31898Y-26999D01*
X32038Y-26860D01*
X32134Y-26626D01*
X32135Y-26374D01*
X32038Y-26140D01*
X31978Y-26080D01*
X31978Y-26080D01*
X32080Y-25979D01*
X32134Y-25846D01*
X32135Y-25703D01*
X32135Y-25153D01*
X32080Y-25021D01*
X31979Y-24919D01*
X31846Y-24865D01*
X31703Y-24864D01*
X31153Y-24864D01*
X31021Y-24919D01*
X30919Y-25020D01*
X30865Y-25153D01*
X30864Y-25296D01*
X30864Y-25569D01*
X30613Y-25821D01*
X30538Y-25640D01*
X30360Y-25461D01*
X30126Y-25365D01*
X29930Y-25364D01*
X29650Y-25084D01*
X29650Y-24915D01*
X29880Y-24684D01*
X30135Y-24685D01*
X30387Y-24581D01*
X30580Y-24388D01*
X30684Y-24136D01*
X30685Y-23864D01*
X30581Y-23612D01*
X30400Y-23431D01*
X30400Y-21568D01*
X30580Y-21388D01*
X30684Y-21136D01*
X30685Y-20864D01*
X30584Y-20620D01*
X31380Y-20620D01*
X31380Y-22120D01*
X32961Y-22120D01*
X32961Y-22488D01*
X33016Y-22620D01*
X33117Y-22722D01*
X33250Y-22777D01*
X33393Y-22777D01*
X33993Y-22777D01*
X34114Y-22727D01*
X34234Y-22777D01*
X34248Y-22777D01*
X34323Y-22889D01*
X35184Y-23750D01*
X34967Y-23967D01*
X34880Y-24096D01*
X34875Y-24122D01*
X34850Y-24250D01*
X34850Y-40250D01*
X34850Y-41750D01*
X34875Y-41877D01*
X34880Y-41903D01*
X34967Y-42032D01*
X35717Y-42782D01*
X35717Y-42782D01*
X35803Y-42840D01*
X35846Y-42869D01*
X35846Y-42869D01*
X35999Y-42899D01*
X36000Y-42900D01*
X37002Y-42900D01*
X37101Y-43000D01*
X36961Y-43139D01*
X36865Y-43373D01*
X36864Y-43625D01*
X36961Y-43859D01*
X37101Y-44000D01*
X36961Y-44139D01*
X36865Y-44373D01*
X36864Y-44625D01*
X36961Y-44859D01*
X37139Y-45038D01*
X37289Y-45100D01*
G54D10*
G36*
X39268Y-48010D02*
X38639Y-48639D01*
X38528Y-48804D01*
X38490Y-49000D01*
X38490Y-55288D01*
X38184Y-55593D01*
X38185Y-55364D01*
X38081Y-55112D01*
X37968Y-54999D01*
X38080Y-54888D01*
X38184Y-54636D01*
X38185Y-54364D01*
X38081Y-54112D01*
X37888Y-53919D01*
X37636Y-53815D01*
X37364Y-53814D01*
X37112Y-53918D01*
X37041Y-53990D01*
X36500Y-53990D01*
X33994Y-53990D01*
X33902Y-53898D01*
X33641Y-53790D01*
X33359Y-53789D01*
X33104Y-53895D01*
X33054Y-53844D01*
X32921Y-53790D01*
X32778Y-53789D01*
X32120Y-53789D01*
X32120Y-53601D01*
X32711Y-53010D01*
X34005Y-53010D01*
X34097Y-53101D01*
X34358Y-53209D01*
X34640Y-53210D01*
X34895Y-53104D01*
X34945Y-53155D01*
X35078Y-53209D01*
X35221Y-53210D01*
X35921Y-53210D01*
X36053Y-53155D01*
X36155Y-53054D01*
X36188Y-52972D01*
X36195Y-52971D01*
X36195Y-52971D01*
X36360Y-52860D01*
X37132Y-52089D01*
X37363Y-52184D01*
X37635Y-52185D01*
X37887Y-52081D01*
X38080Y-51888D01*
X38184Y-51636D01*
X38185Y-51364D01*
X38081Y-51112D01*
X37968Y-50999D01*
X38080Y-50888D01*
X38184Y-50636D01*
X38185Y-50364D01*
X38081Y-50112D01*
X38063Y-50095D01*
X38130Y-50029D01*
X38184Y-49896D01*
X38185Y-49753D01*
X38185Y-49103D01*
X38130Y-48971D01*
X38029Y-48869D01*
X37896Y-48815D01*
X37753Y-48814D01*
X37103Y-48814D01*
X36971Y-48869D01*
X36869Y-48970D01*
X36815Y-49103D01*
X36814Y-49246D01*
X36814Y-49896D01*
X36869Y-50028D01*
X36935Y-50095D01*
X36919Y-50111D01*
X36815Y-50363D01*
X36814Y-50635D01*
X36918Y-50887D01*
X37021Y-50990D01*
X37000Y-50990D01*
X36804Y-51028D01*
X36639Y-51139D01*
X35969Y-51809D01*
X35921Y-51790D01*
X35778Y-51789D01*
X35078Y-51789D01*
X34946Y-51844D01*
X34895Y-51895D01*
X34641Y-51790D01*
X34359Y-51789D01*
X34098Y-51897D01*
X34005Y-51990D01*
X33100Y-51990D01*
X33195Y-51971D01*
X33195Y-51971D01*
X33360Y-51860D01*
X33860Y-51360D01*
X33971Y-51195D01*
X33971Y-51195D01*
X33972Y-51188D01*
X33972Y-51188D01*
X34053Y-51155D01*
X34155Y-51054D01*
X34209Y-50921D01*
X34210Y-50778D01*
X34210Y-50078D01*
X34155Y-49946D01*
X34054Y-49844D01*
X34010Y-49826D01*
X34010Y-49711D01*
X34511Y-49210D01*
X34921Y-49210D01*
X35053Y-49155D01*
X35155Y-49054D01*
X35209Y-48921D01*
X35210Y-48778D01*
X35210Y-48511D01*
X35711Y-48010D01*
X39268Y-48010D01*
X39268Y-48010D01*
G37*
G54D28*
X39268Y-48010D02*
X38639Y-48639D01*
X38528Y-48804D01*
X38490Y-49000D01*
X38490Y-55288D01*
X38184Y-55593D01*
X38185Y-55364D01*
X38081Y-55112D01*
X37968Y-54999D01*
X38080Y-54888D01*
X38184Y-54636D01*
X38185Y-54364D01*
X38081Y-54112D01*
X37888Y-53919D01*
X37636Y-53815D01*
X37364Y-53814D01*
X37112Y-53918D01*
X37041Y-53990D01*
X36500Y-53990D01*
X33994Y-53990D01*
X33902Y-53898D01*
X33641Y-53790D01*
X33359Y-53789D01*
X33104Y-53895D01*
X33054Y-53844D01*
X32921Y-53790D01*
X32778Y-53789D01*
X32120Y-53789D01*
X32120Y-53601D01*
X32711Y-53010D01*
X34005Y-53010D01*
X34097Y-53101D01*
X34358Y-53209D01*
X34640Y-53210D01*
X34895Y-53104D01*
X34945Y-53155D01*
X35078Y-53209D01*
X35221Y-53210D01*
X35921Y-53210D01*
X36053Y-53155D01*
X36155Y-53054D01*
X36188Y-52972D01*
X36195Y-52971D01*
X36195Y-52971D01*
X36360Y-52860D01*
X37132Y-52089D01*
X37363Y-52184D01*
X37635Y-52185D01*
X37887Y-52081D01*
X38080Y-51888D01*
X38184Y-51636D01*
X38185Y-51364D01*
X38081Y-51112D01*
X37968Y-50999D01*
X38080Y-50888D01*
X38184Y-50636D01*
X38185Y-50364D01*
X38081Y-50112D01*
X38063Y-50095D01*
X38130Y-50029D01*
X38184Y-49896D01*
X38185Y-49753D01*
X38185Y-49103D01*
X38130Y-48971D01*
X38029Y-48869D01*
X37896Y-48815D01*
X37753Y-48814D01*
X37103Y-48814D01*
X36971Y-48869D01*
X36869Y-48970D01*
X36815Y-49103D01*
X36814Y-49246D01*
X36814Y-49896D01*
X36869Y-50028D01*
X36935Y-50095D01*
X36919Y-50111D01*
X36815Y-50363D01*
X36814Y-50635D01*
X36918Y-50887D01*
X37021Y-50990D01*
X37000Y-50990D01*
X36804Y-51028D01*
X36639Y-51139D01*
X35969Y-51809D01*
X35921Y-51790D01*
X35778Y-51789D01*
X35078Y-51789D01*
X34946Y-51844D01*
X34895Y-51895D01*
X34641Y-51790D01*
X34359Y-51789D01*
X34098Y-51897D01*
X34005Y-51990D01*
X33100Y-51990D01*
X33195Y-51971D01*
X33195Y-51971D01*
X33360Y-51860D01*
X33860Y-51360D01*
X33971Y-51195D01*
X33971Y-51195D01*
X33972Y-51188D01*
X33972Y-51188D01*
X34053Y-51155D01*
X34155Y-51054D01*
X34209Y-50921D01*
X34210Y-50778D01*
X34210Y-50078D01*
X34155Y-49946D01*
X34054Y-49844D01*
X34010Y-49826D01*
X34010Y-49711D01*
X34511Y-49210D01*
X34921Y-49210D01*
X35053Y-49155D01*
X35155Y-49054D01*
X35209Y-48921D01*
X35210Y-48778D01*
X35210Y-48511D01*
X35711Y-48010D01*
X39268Y-48010D01*
G54D10*
G36*
X44850Y-41784D02*
X44782Y-41717D01*
X44653Y-41630D01*
X44627Y-41625D01*
X44500Y-41600D01*
X40500Y-41600D01*
X40346Y-41630D01*
X40303Y-41659D01*
X40217Y-41717D01*
X40119Y-41815D01*
X39864Y-41814D01*
X39612Y-41918D01*
X39419Y-42111D01*
X39315Y-42363D01*
X39314Y-42635D01*
X39418Y-42887D01*
X39600Y-43068D01*
X39600Y-43084D01*
X38134Y-44549D01*
X38135Y-44430D01*
X39032Y-43532D01*
X39032Y-43532D01*
X39119Y-43403D01*
X39119Y-43403D01*
X39124Y-43377D01*
X39149Y-43250D01*
X39150Y-43250D01*
X39150Y-41415D01*
X39548Y-41017D01*
X39611Y-41080D01*
X39863Y-41184D01*
X40135Y-41185D01*
X40387Y-41081D01*
X40500Y-40968D01*
X40611Y-41080D01*
X40863Y-41184D01*
X41135Y-41185D01*
X41387Y-41081D01*
X41535Y-40933D01*
X41639Y-41038D01*
X41873Y-41134D01*
X42125Y-41135D01*
X42359Y-41038D01*
X42500Y-40898D01*
X42639Y-41038D01*
X42873Y-41134D01*
X43125Y-41135D01*
X43359Y-41038D01*
X43538Y-40860D01*
X43634Y-40626D01*
X43635Y-40450D01*
X44850Y-41665D01*
X44850Y-41784D01*
X44850Y-41784D01*
G37*
G54D28*
X44850Y-41784D02*
X44782Y-41717D01*
X44653Y-41630D01*
X44627Y-41625D01*
X44500Y-41600D01*
X40500Y-41600D01*
X40346Y-41630D01*
X40303Y-41659D01*
X40217Y-41717D01*
X40119Y-41815D01*
X39864Y-41814D01*
X39612Y-41918D01*
X39419Y-42111D01*
X39315Y-42363D01*
X39314Y-42635D01*
X39418Y-42887D01*
X39600Y-43068D01*
X39600Y-43084D01*
X38134Y-44549D01*
X38135Y-44430D01*
X39032Y-43532D01*
X39032Y-43532D01*
X39119Y-43403D01*
X39119Y-43403D01*
X39124Y-43377D01*
X39149Y-43250D01*
X39150Y-43250D01*
X39150Y-41415D01*
X39548Y-41017D01*
X39611Y-41080D01*
X39863Y-41184D01*
X40135Y-41185D01*
X40387Y-41081D01*
X40500Y-40968D01*
X40611Y-41080D01*
X40863Y-41184D01*
X41135Y-41185D01*
X41387Y-41081D01*
X41535Y-40933D01*
X41639Y-41038D01*
X41873Y-41134D01*
X42125Y-41135D01*
X42359Y-41038D01*
X42500Y-40898D01*
X42639Y-41038D01*
X42873Y-41134D01*
X43125Y-41135D01*
X43359Y-41038D01*
X43538Y-40860D01*
X43634Y-40626D01*
X43635Y-40450D01*
X44850Y-41665D01*
X44850Y-41784D01*
G54D10*
G36*
X44858Y-38792D02*
X44032Y-37967D01*
X43903Y-37880D01*
X43877Y-37875D01*
X43750Y-37850D01*
X41915Y-37850D01*
X41532Y-37467D01*
X41432Y-37400D01*
X43834Y-37400D01*
X44850Y-38415D01*
X44850Y-38750D01*
X44858Y-38792D01*
X44858Y-38792D01*
G37*
G54D28*
X44858Y-38792D02*
X44032Y-37967D01*
X43903Y-37880D01*
X43877Y-37875D01*
X43750Y-37850D01*
X41915Y-37850D01*
X41532Y-37467D01*
X41432Y-37400D01*
X43834Y-37400D01*
X44850Y-38415D01*
X44850Y-38750D01*
X44858Y-38792D01*
G54D10*
G36*
X45436Y-43904D02*
X45369Y-43970D01*
X45315Y-44103D01*
X45315Y-44151D01*
X45217Y-44217D01*
X44084Y-45350D01*
X39715Y-45350D01*
X39880Y-45184D01*
X40135Y-45185D01*
X40387Y-45081D01*
X40500Y-44968D01*
X40611Y-45080D01*
X40863Y-45184D01*
X41135Y-45185D01*
X41387Y-45081D01*
X41535Y-44933D01*
X41639Y-45038D01*
X41873Y-45134D01*
X42125Y-45135D01*
X42359Y-45038D01*
X42500Y-44898D01*
X42639Y-45038D01*
X42873Y-45134D01*
X43125Y-45135D01*
X43359Y-45038D01*
X43538Y-44860D01*
X43634Y-44626D01*
X43635Y-44374D01*
X43538Y-44140D01*
X43400Y-44001D01*
X43400Y-43250D01*
X43399Y-43249D01*
X43369Y-43096D01*
X43369Y-43096D01*
X43340Y-43053D01*
X43282Y-42967D01*
X43282Y-42967D01*
X42715Y-42400D01*
X44334Y-42400D01*
X45315Y-43380D01*
X45314Y-43635D01*
X45418Y-43887D01*
X45436Y-43904D01*
X45436Y-43904D01*
G37*
G54D28*
X45436Y-43904D02*
X45369Y-43970D01*
X45315Y-44103D01*
X45315Y-44151D01*
X45217Y-44217D01*
X44084Y-45350D01*
X39715Y-45350D01*
X39880Y-45184D01*
X40135Y-45185D01*
X40387Y-45081D01*
X40500Y-44968D01*
X40611Y-45080D01*
X40863Y-45184D01*
X41135Y-45185D01*
X41387Y-45081D01*
X41535Y-44933D01*
X41639Y-45038D01*
X41873Y-45134D01*
X42125Y-45135D01*
X42359Y-45038D01*
X42500Y-44898D01*
X42639Y-45038D01*
X42873Y-45134D01*
X43125Y-45135D01*
X43359Y-45038D01*
X43538Y-44860D01*
X43634Y-44626D01*
X43635Y-44374D01*
X43538Y-44140D01*
X43400Y-44001D01*
X43400Y-43250D01*
X43399Y-43249D01*
X43369Y-43096D01*
X43369Y-43096D01*
X43340Y-43053D01*
X43282Y-42967D01*
X43282Y-42967D01*
X42715Y-42400D01*
X44334Y-42400D01*
X45315Y-43380D01*
X45314Y-43635D01*
X45418Y-43887D01*
X45436Y-43904D01*
G54D10*
G36*
X47490Y-24861D02*
X47471Y-24869D01*
X47369Y-24970D01*
X47315Y-25103D01*
X47314Y-25246D01*
X47314Y-25896D01*
X47369Y-26028D01*
X47435Y-26095D01*
X47431Y-26100D01*
X47165Y-26100D01*
X47150Y-26084D01*
X47150Y-25250D01*
X47124Y-25122D01*
X47119Y-25096D01*
X47119Y-25096D01*
X47032Y-24967D01*
X47032Y-24967D01*
X47000Y-24935D01*
X47026Y-24935D01*
X47026Y-24934D01*
X47116Y-24935D01*
X47276Y-24935D01*
X47408Y-24880D01*
X47490Y-24799D01*
X47490Y-24861D01*
X47490Y-24861D01*
G37*
G54D28*
X47490Y-24861D02*
X47471Y-24869D01*
X47369Y-24970D01*
X47315Y-25103D01*
X47314Y-25246D01*
X47314Y-25896D01*
X47369Y-26028D01*
X47435Y-26095D01*
X47431Y-26100D01*
X47165Y-26100D01*
X47150Y-26084D01*
X47150Y-25250D01*
X47124Y-25122D01*
X47119Y-25096D01*
X47119Y-25096D01*
X47032Y-24967D01*
X47032Y-24967D01*
X47000Y-24935D01*
X47026Y-24935D01*
X47026Y-24934D01*
X47116Y-24935D01*
X47276Y-24935D01*
X47408Y-24880D01*
X47490Y-24799D01*
X47490Y-24861D01*
G54D10*
G36*
X47521Y-26990D02*
X46711Y-26990D01*
X45978Y-26257D01*
X45953Y-26197D01*
X45803Y-26046D01*
X45606Y-25965D01*
X45394Y-25964D01*
X45197Y-26046D01*
X45046Y-26196D01*
X44965Y-26393D01*
X44964Y-26605D01*
X45046Y-26802D01*
X45196Y-26953D01*
X45257Y-26978D01*
X46093Y-27815D01*
X45864Y-27814D01*
X45612Y-27918D01*
X45431Y-28100D01*
X40665Y-28100D01*
X38457Y-25891D01*
X38500Y-25900D01*
X40893Y-25900D01*
X40946Y-25953D01*
X41143Y-26034D01*
X41355Y-26035D01*
X41552Y-25953D01*
X41703Y-25803D01*
X41784Y-25606D01*
X41785Y-25394D01*
X41703Y-25197D01*
X41661Y-25154D01*
X41780Y-25035D01*
X41855Y-25035D01*
X42052Y-24953D01*
X42203Y-24803D01*
X42284Y-24606D01*
X42285Y-24394D01*
X42203Y-24197D01*
X42053Y-24046D01*
X41910Y-23987D01*
X41998Y-23900D01*
X42084Y-23900D01*
X42615Y-24430D01*
X42614Y-24625D01*
X42711Y-24859D01*
X42889Y-25038D01*
X43123Y-25134D01*
X43375Y-25135D01*
X43609Y-25038D01*
X43788Y-24860D01*
X43884Y-24626D01*
X43885Y-24374D01*
X43788Y-24140D01*
X43610Y-23961D01*
X43376Y-23865D01*
X43180Y-23864D01*
X42532Y-23217D01*
X42403Y-23130D01*
X42377Y-23125D01*
X42250Y-23100D01*
X41997Y-23100D01*
X41898Y-22999D01*
X41998Y-22900D01*
X42250Y-22900D01*
X42250Y-22899D01*
X42377Y-22874D01*
X42403Y-22869D01*
X42403Y-22869D01*
X42532Y-22782D01*
X43180Y-22134D01*
X43375Y-22135D01*
X43609Y-22038D01*
X43788Y-21860D01*
X43884Y-21626D01*
X43885Y-21374D01*
X43788Y-21140D01*
X43610Y-20961D01*
X43376Y-20865D01*
X43124Y-20864D01*
X42890Y-20961D01*
X42711Y-21139D01*
X42615Y-21373D01*
X42614Y-21569D01*
X42084Y-22100D01*
X41997Y-22100D01*
X41860Y-21961D01*
X41626Y-21865D01*
X41374Y-21864D01*
X41140Y-21961D01*
X41080Y-22021D01*
X41080Y-22021D01*
X40979Y-21919D01*
X40846Y-21865D01*
X40703Y-21864D01*
X40153Y-21864D01*
X40021Y-21919D01*
X40000Y-21940D01*
X39979Y-21919D01*
X39846Y-21865D01*
X39703Y-21864D01*
X39153Y-21864D01*
X39021Y-21919D01*
X38919Y-22020D01*
X38865Y-22153D01*
X38864Y-22296D01*
X38864Y-22600D01*
X36165Y-22600D01*
X36053Y-22487D01*
X36053Y-22346D01*
X36053Y-22120D01*
X38620Y-22120D01*
X38620Y-20620D01*
X45224Y-20620D01*
X45215Y-20643D01*
X45214Y-20855D01*
X45225Y-20880D01*
X45225Y-21064D01*
X45223Y-21064D01*
X45091Y-21119D01*
X44989Y-21220D01*
X44935Y-21353D01*
X44934Y-21496D01*
X44934Y-21999D01*
X44916Y-22018D01*
X44860Y-21961D01*
X44626Y-21865D01*
X44374Y-21864D01*
X44140Y-21961D01*
X43961Y-22139D01*
X43865Y-22373D01*
X43864Y-22600D01*
X43606Y-22600D01*
X43553Y-22546D01*
X43356Y-22465D01*
X43144Y-22464D01*
X42947Y-22546D01*
X42796Y-22696D01*
X42715Y-22893D01*
X42714Y-23105D01*
X42796Y-23302D01*
X42946Y-23453D01*
X43143Y-23534D01*
X43355Y-23535D01*
X43552Y-23453D01*
X43606Y-23400D01*
X43865Y-23400D01*
X43864Y-23625D01*
X43961Y-23859D01*
X44139Y-24038D01*
X44373Y-24134D01*
X44625Y-24135D01*
X44859Y-24038D01*
X44916Y-23981D01*
X44934Y-24000D01*
X44934Y-24646D01*
X44989Y-24778D01*
X45090Y-24880D01*
X45223Y-24934D01*
X45236Y-24934D01*
X45250Y-25002D01*
X45255Y-25028D01*
X45342Y-25157D01*
X45592Y-25407D01*
X45615Y-25430D01*
X45615Y-25430D01*
X45614Y-25625D01*
X45711Y-25859D01*
X45889Y-26038D01*
X46123Y-26134D01*
X46350Y-26135D01*
X46350Y-26250D01*
X46375Y-26377D01*
X46380Y-26403D01*
X46467Y-26532D01*
X46717Y-26782D01*
X46717Y-26782D01*
X46803Y-26840D01*
X46846Y-26869D01*
X46846Y-26869D01*
X47000Y-26900D01*
X47431Y-26900D01*
X47521Y-26990D01*
X47521Y-26990D01*
G37*
G54D28*
X47521Y-26990D02*
X46711Y-26990D01*
X45978Y-26257D01*
X45953Y-26197D01*
X45803Y-26046D01*
X45606Y-25965D01*
X45394Y-25964D01*
X45197Y-26046D01*
X45046Y-26196D01*
X44965Y-26393D01*
X44964Y-26605D01*
X45046Y-26802D01*
X45196Y-26953D01*
X45257Y-26978D01*
X46093Y-27815D01*
X45864Y-27814D01*
X45612Y-27918D01*
X45431Y-28100D01*
X40665Y-28100D01*
X38457Y-25891D01*
X38500Y-25900D01*
X40893Y-25900D01*
X40946Y-25953D01*
X41143Y-26034D01*
X41355Y-26035D01*
X41552Y-25953D01*
X41703Y-25803D01*
X41784Y-25606D01*
X41785Y-25394D01*
X41703Y-25197D01*
X41661Y-25154D01*
X41780Y-25035D01*
X41855Y-25035D01*
X42052Y-24953D01*
X42203Y-24803D01*
X42284Y-24606D01*
X42285Y-24394D01*
X42203Y-24197D01*
X42053Y-24046D01*
X41910Y-23987D01*
X41998Y-23900D01*
X42084Y-23900D01*
X42615Y-24430D01*
X42614Y-24625D01*
X42711Y-24859D01*
X42889Y-25038D01*
X43123Y-25134D01*
X43375Y-25135D01*
X43609Y-25038D01*
X43788Y-24860D01*
X43884Y-24626D01*
X43885Y-24374D01*
X43788Y-24140D01*
X43610Y-23961D01*
X43376Y-23865D01*
X43180Y-23864D01*
X42532Y-23217D01*
X42403Y-23130D01*
X42377Y-23125D01*
X42250Y-23100D01*
X41997Y-23100D01*
X41898Y-22999D01*
X41998Y-22900D01*
X42250Y-22900D01*
X42250Y-22899D01*
X42377Y-22874D01*
X42403Y-22869D01*
X42403Y-22869D01*
X42532Y-22782D01*
X43180Y-22134D01*
X43375Y-22135D01*
X43609Y-22038D01*
X43788Y-21860D01*
X43884Y-21626D01*
X43885Y-21374D01*
X43788Y-21140D01*
X43610Y-20961D01*
X43376Y-20865D01*
X43124Y-20864D01*
X42890Y-20961D01*
X42711Y-21139D01*
X42615Y-21373D01*
X42614Y-21569D01*
X42084Y-22100D01*
X41997Y-22100D01*
X41860Y-21961D01*
X41626Y-21865D01*
X41374Y-21864D01*
X41140Y-21961D01*
X41080Y-22021D01*
X41080Y-22021D01*
X40979Y-21919D01*
X40846Y-21865D01*
X40703Y-21864D01*
X40153Y-21864D01*
X40021Y-21919D01*
X40000Y-21940D01*
X39979Y-21919D01*
X39846Y-21865D01*
X39703Y-21864D01*
X39153Y-21864D01*
X39021Y-21919D01*
X38919Y-22020D01*
X38865Y-22153D01*
X38864Y-22296D01*
X38864Y-22600D01*
X36165Y-22600D01*
X36053Y-22487D01*
X36053Y-22346D01*
X36053Y-22120D01*
X38620Y-22120D01*
X38620Y-20620D01*
X45224Y-20620D01*
X45215Y-20643D01*
X45214Y-20855D01*
X45225Y-20880D01*
X45225Y-21064D01*
X45223Y-21064D01*
X45091Y-21119D01*
X44989Y-21220D01*
X44935Y-21353D01*
X44934Y-21496D01*
X44934Y-21999D01*
X44916Y-22018D01*
X44860Y-21961D01*
X44626Y-21865D01*
X44374Y-21864D01*
X44140Y-21961D01*
X43961Y-22139D01*
X43865Y-22373D01*
X43864Y-22600D01*
X43606Y-22600D01*
X43553Y-22546D01*
X43356Y-22465D01*
X43144Y-22464D01*
X42947Y-22546D01*
X42796Y-22696D01*
X42715Y-22893D01*
X42714Y-23105D01*
X42796Y-23302D01*
X42946Y-23453D01*
X43143Y-23534D01*
X43355Y-23535D01*
X43552Y-23453D01*
X43606Y-23400D01*
X43865Y-23400D01*
X43864Y-23625D01*
X43961Y-23859D01*
X44139Y-24038D01*
X44373Y-24134D01*
X44625Y-24135D01*
X44859Y-24038D01*
X44916Y-23981D01*
X44934Y-24000D01*
X44934Y-24646D01*
X44989Y-24778D01*
X45090Y-24880D01*
X45223Y-24934D01*
X45236Y-24934D01*
X45250Y-25002D01*
X45255Y-25028D01*
X45342Y-25157D01*
X45592Y-25407D01*
X45615Y-25430D01*
X45615Y-25430D01*
X45614Y-25625D01*
X45711Y-25859D01*
X45889Y-26038D01*
X46123Y-26134D01*
X46350Y-26135D01*
X46350Y-26250D01*
X46375Y-26377D01*
X46380Y-26403D01*
X46467Y-26532D01*
X46717Y-26782D01*
X46717Y-26782D01*
X46803Y-26840D01*
X46846Y-26869D01*
X46846Y-26869D01*
X47000Y-26900D01*
X47431Y-26900D01*
X47521Y-26990D01*
G54D10*
G36*
X48343Y-45185D02*
X47389Y-46139D01*
X46288Y-47240D01*
X46185Y-47240D01*
X46185Y-46603D01*
X46130Y-46471D01*
X46029Y-46369D01*
X45896Y-46315D01*
X45753Y-46314D01*
X45103Y-46314D01*
X44971Y-46369D01*
X44904Y-46435D01*
X44888Y-46419D01*
X44636Y-46315D01*
X44364Y-46314D01*
X44112Y-46418D01*
X43999Y-46531D01*
X43888Y-46419D01*
X43636Y-46315D01*
X43364Y-46314D01*
X43112Y-46418D01*
X42919Y-46611D01*
X42815Y-46863D01*
X42814Y-47108D01*
X42695Y-47028D01*
X42500Y-46990D01*
X40500Y-46990D01*
X35500Y-46990D01*
X35304Y-47028D01*
X35185Y-47108D01*
X35185Y-46603D01*
X35130Y-46471D01*
X35029Y-46369D01*
X34896Y-46315D01*
X34753Y-46314D01*
X34103Y-46314D01*
X33971Y-46369D01*
X33904Y-46435D01*
X33888Y-46419D01*
X33636Y-46315D01*
X33364Y-46314D01*
X33112Y-46418D01*
X32999Y-46531D01*
X32888Y-46419D01*
X32636Y-46315D01*
X32364Y-46314D01*
X32112Y-46418D01*
X31919Y-46611D01*
X31875Y-46718D01*
X31831Y-46612D01*
X31650Y-46431D01*
X31650Y-45750D01*
X31619Y-45596D01*
X31619Y-45596D01*
X31590Y-45553D01*
X31532Y-45467D01*
X31532Y-45467D01*
X31150Y-45084D01*
X31150Y-45042D01*
X31373Y-45134D01*
X31625Y-45135D01*
X31859Y-45038D01*
X32038Y-44860D01*
X32113Y-44678D01*
X33467Y-46032D01*
X33467Y-46032D01*
X33553Y-46090D01*
X33596Y-46119D01*
X33596Y-46119D01*
X33750Y-46150D01*
X38750Y-46150D01*
X44250Y-46150D01*
X44250Y-46149D01*
X44377Y-46124D01*
X44403Y-46119D01*
X44403Y-46119D01*
X44532Y-46032D01*
X45453Y-45112D01*
X45470Y-45130D01*
X45603Y-45184D01*
X45746Y-45185D01*
X46396Y-45185D01*
X46500Y-45142D01*
X46603Y-45184D01*
X46746Y-45185D01*
X47396Y-45185D01*
X47500Y-45142D01*
X47603Y-45184D01*
X47746Y-45185D01*
X48343Y-45185D01*
X48343Y-45185D01*
G37*
G54D28*
X48343Y-45185D02*
X47389Y-46139D01*
X46288Y-47240D01*
X46185Y-47240D01*
X46185Y-46603D01*
X46130Y-46471D01*
X46029Y-46369D01*
X45896Y-46315D01*
X45753Y-46314D01*
X45103Y-46314D01*
X44971Y-46369D01*
X44904Y-46435D01*
X44888Y-46419D01*
X44636Y-46315D01*
X44364Y-46314D01*
X44112Y-46418D01*
X43999Y-46531D01*
X43888Y-46419D01*
X43636Y-46315D01*
X43364Y-46314D01*
X43112Y-46418D01*
X42919Y-46611D01*
X42815Y-46863D01*
X42814Y-47108D01*
X42695Y-47028D01*
X42500Y-46990D01*
X40500Y-46990D01*
X35500Y-46990D01*
X35304Y-47028D01*
X35185Y-47108D01*
X35185Y-46603D01*
X35130Y-46471D01*
X35029Y-46369D01*
X34896Y-46315D01*
X34753Y-46314D01*
X34103Y-46314D01*
X33971Y-46369D01*
X33904Y-46435D01*
X33888Y-46419D01*
X33636Y-46315D01*
X33364Y-46314D01*
X33112Y-46418D01*
X32999Y-46531D01*
X32888Y-46419D01*
X32636Y-46315D01*
X32364Y-46314D01*
X32112Y-46418D01*
X31919Y-46611D01*
X31875Y-46718D01*
X31831Y-46612D01*
X31650Y-46431D01*
X31650Y-45750D01*
X31619Y-45596D01*
X31619Y-45596D01*
X31590Y-45553D01*
X31532Y-45467D01*
X31532Y-45467D01*
X31150Y-45084D01*
X31150Y-45042D01*
X31373Y-45134D01*
X31625Y-45135D01*
X31859Y-45038D01*
X32038Y-44860D01*
X32113Y-44678D01*
X33467Y-46032D01*
X33467Y-46032D01*
X33553Y-46090D01*
X33596Y-46119D01*
X33596Y-46119D01*
X33750Y-46150D01*
X38750Y-46150D01*
X44250Y-46150D01*
X44250Y-46149D01*
X44377Y-46124D01*
X44403Y-46119D01*
X44403Y-46119D01*
X44532Y-46032D01*
X45453Y-45112D01*
X45470Y-45130D01*
X45603Y-45184D01*
X45746Y-45185D01*
X46396Y-45185D01*
X46500Y-45142D01*
X46603Y-45184D01*
X46746Y-45185D01*
X47396Y-45185D01*
X47500Y-45142D01*
X47603Y-45184D01*
X47746Y-45185D01*
X48343Y-45185D01*
G54D10*
G36*
X49490Y-33041D02*
X49419Y-33111D01*
X49315Y-33363D01*
X49314Y-33635D01*
X49418Y-33887D01*
X49436Y-33904D01*
X49369Y-33970D01*
X49315Y-34103D01*
X49314Y-34246D01*
X49314Y-34463D01*
X49139Y-34639D01*
X49028Y-34804D01*
X48990Y-35000D01*
X48990Y-44000D01*
X48990Y-44538D01*
X48684Y-44843D01*
X48685Y-44753D01*
X48685Y-44103D01*
X48630Y-43971D01*
X48564Y-43904D01*
X48580Y-43888D01*
X48684Y-43636D01*
X48685Y-43364D01*
X48581Y-43112D01*
X48468Y-42999D01*
X48580Y-42888D01*
X48684Y-42636D01*
X48685Y-42364D01*
X48581Y-42112D01*
X48468Y-41999D01*
X48580Y-41888D01*
X48684Y-41636D01*
X48685Y-41364D01*
X48581Y-41112D01*
X48468Y-40999D01*
X48580Y-40888D01*
X48684Y-40636D01*
X48685Y-40364D01*
X48581Y-40112D01*
X48468Y-39999D01*
X48580Y-39888D01*
X48684Y-39636D01*
X48685Y-39364D01*
X48581Y-39112D01*
X48468Y-38999D01*
X48580Y-38888D01*
X48684Y-38636D01*
X48685Y-38364D01*
X48581Y-38112D01*
X48468Y-37999D01*
X48580Y-37888D01*
X48684Y-37636D01*
X48685Y-37364D01*
X48581Y-37112D01*
X48388Y-36919D01*
X48136Y-36815D01*
X47864Y-36814D01*
X47612Y-36918D01*
X47499Y-37031D01*
X47388Y-36919D01*
X47136Y-36815D01*
X46864Y-36814D01*
X46612Y-36918D01*
X46499Y-37031D01*
X46388Y-36919D01*
X46136Y-36815D01*
X45880Y-36814D01*
X45282Y-36217D01*
X45153Y-36130D01*
X45127Y-36125D01*
X45000Y-36100D01*
X42341Y-36100D01*
X42387Y-36081D01*
X42580Y-35888D01*
X42684Y-35636D01*
X42685Y-35364D01*
X42685Y-33364D01*
X42581Y-33112D01*
X42388Y-32919D01*
X42136Y-32815D01*
X41864Y-32814D01*
X41612Y-32918D01*
X41419Y-33111D01*
X41315Y-33363D01*
X41314Y-33635D01*
X41418Y-33887D01*
X41611Y-34080D01*
X41863Y-34184D01*
X42135Y-34185D01*
X42387Y-34081D01*
X42580Y-33888D01*
X42684Y-33636D01*
X42685Y-33364D01*
X42685Y-35364D01*
X42581Y-35112D01*
X42388Y-34919D01*
X42136Y-34815D01*
X41864Y-34814D01*
X41612Y-34918D01*
X41419Y-35111D01*
X41315Y-35363D01*
X41314Y-35635D01*
X41418Y-35887D01*
X41611Y-36080D01*
X41658Y-36100D01*
X40685Y-36100D01*
X40685Y-31864D01*
X40581Y-31612D01*
X40388Y-31419D01*
X40136Y-31315D01*
X39864Y-31314D01*
X39612Y-31418D01*
X39419Y-31611D01*
X39315Y-31863D01*
X39314Y-32135D01*
X39418Y-32387D01*
X39611Y-32580D01*
X39863Y-32684D01*
X40135Y-32685D01*
X40387Y-32581D01*
X40580Y-32388D01*
X40684Y-32136D01*
X40685Y-31864D01*
X40685Y-36100D01*
X40415Y-36100D01*
X40359Y-36043D01*
X40362Y-36042D01*
X40542Y-35863D01*
X40639Y-35627D01*
X40640Y-35373D01*
X40640Y-33373D01*
X40542Y-33137D01*
X40363Y-32957D01*
X40127Y-32860D01*
X39873Y-32859D01*
X39637Y-32957D01*
X39457Y-33136D01*
X39360Y-33372D01*
X39359Y-33626D01*
X39457Y-33862D01*
X39636Y-34042D01*
X39872Y-34139D01*
X40126Y-34140D01*
X40362Y-34042D01*
X40542Y-33863D01*
X40639Y-33627D01*
X40640Y-33373D01*
X40640Y-35373D01*
X40542Y-35137D01*
X40363Y-34957D01*
X40127Y-34860D01*
X39873Y-34859D01*
X39637Y-34957D01*
X39457Y-35136D01*
X39448Y-35160D01*
X39403Y-35130D01*
X39377Y-35125D01*
X39250Y-35100D01*
X37997Y-35100D01*
X37860Y-34961D01*
X37626Y-34865D01*
X37374Y-34864D01*
X37140Y-34961D01*
X36961Y-35139D01*
X36865Y-35373D01*
X36864Y-35625D01*
X36961Y-35859D01*
X37101Y-36000D01*
X36961Y-36139D01*
X36865Y-36373D01*
X36864Y-36625D01*
X36961Y-36859D01*
X37101Y-37000D01*
X36961Y-37139D01*
X36865Y-37373D01*
X36864Y-37625D01*
X36961Y-37859D01*
X37101Y-38000D01*
X36961Y-38139D01*
X36865Y-38373D01*
X36864Y-38625D01*
X36961Y-38859D01*
X37101Y-39000D01*
X37083Y-39018D01*
X36400Y-38334D01*
X36400Y-25165D01*
X36415Y-25150D01*
X36957Y-25150D01*
X36865Y-25373D01*
X36864Y-25625D01*
X36961Y-25859D01*
X37101Y-26000D01*
X36961Y-26139D01*
X36865Y-26373D01*
X36864Y-26625D01*
X36961Y-26859D01*
X37101Y-27000D01*
X36961Y-27139D01*
X36865Y-27373D01*
X36864Y-27625D01*
X36961Y-27859D01*
X37101Y-28000D01*
X36961Y-28139D01*
X36865Y-28373D01*
X36864Y-28625D01*
X36961Y-28859D01*
X37101Y-29000D01*
X36961Y-29139D01*
X36865Y-29373D01*
X36864Y-29625D01*
X36961Y-29859D01*
X37101Y-30000D01*
X36961Y-30139D01*
X36865Y-30373D01*
X36864Y-30625D01*
X36961Y-30859D01*
X37101Y-31000D01*
X36961Y-31139D01*
X36865Y-31373D01*
X36864Y-31625D01*
X36961Y-31859D01*
X37101Y-32000D01*
X36961Y-32139D01*
X36865Y-32373D01*
X36864Y-32625D01*
X36961Y-32859D01*
X37101Y-33000D01*
X36961Y-33139D01*
X36865Y-33373D01*
X36864Y-33625D01*
X36961Y-33859D01*
X37139Y-34038D01*
X37373Y-34134D01*
X37625Y-34135D01*
X37859Y-34038D01*
X38038Y-33860D01*
X38134Y-33626D01*
X38135Y-33374D01*
X38038Y-33140D01*
X37898Y-32999D01*
X38038Y-32860D01*
X38134Y-32626D01*
X38135Y-32430D01*
X39915Y-30650D01*
X42834Y-30650D01*
X44100Y-31915D01*
X44100Y-34000D01*
X44125Y-34127D01*
X44130Y-34153D01*
X44217Y-34282D01*
X44717Y-34782D01*
X44717Y-34782D01*
X44717Y-34782D01*
X45314Y-35380D01*
X45314Y-35896D01*
X45369Y-36028D01*
X45470Y-36130D01*
X45603Y-36184D01*
X45746Y-36185D01*
X46396Y-36185D01*
X46500Y-36142D01*
X46603Y-36184D01*
X46746Y-36185D01*
X47396Y-36185D01*
X47500Y-36142D01*
X47603Y-36184D01*
X47746Y-36185D01*
X48396Y-36185D01*
X48528Y-36130D01*
X48630Y-36029D01*
X48684Y-35896D01*
X48685Y-35753D01*
X48685Y-35103D01*
X48630Y-34971D01*
X48564Y-34904D01*
X48580Y-34888D01*
X48684Y-34636D01*
X48685Y-34364D01*
X48581Y-34112D01*
X48468Y-33999D01*
X48580Y-33888D01*
X48684Y-33636D01*
X48685Y-33364D01*
X48581Y-33112D01*
X48468Y-32999D01*
X48580Y-32888D01*
X48684Y-32636D01*
X48685Y-32364D01*
X48581Y-32112D01*
X48468Y-31999D01*
X48580Y-31888D01*
X48684Y-31636D01*
X48685Y-31364D01*
X48581Y-31112D01*
X48468Y-30999D01*
X48580Y-30888D01*
X48684Y-30636D01*
X48685Y-30364D01*
X48581Y-30112D01*
X48468Y-29999D01*
X48580Y-29888D01*
X48684Y-29636D01*
X48685Y-29364D01*
X48581Y-29112D01*
X48468Y-28999D01*
X48580Y-28888D01*
X48684Y-28636D01*
X48685Y-28364D01*
X48581Y-28112D01*
X48468Y-27999D01*
X48580Y-27888D01*
X48684Y-27636D01*
X48685Y-27364D01*
X48605Y-27170D01*
X48850Y-27415D01*
X48850Y-29250D01*
X48875Y-29377D01*
X48880Y-29403D01*
X48967Y-29532D01*
X49467Y-30032D01*
X49467Y-30032D01*
X49485Y-30045D01*
X49419Y-30111D01*
X49315Y-30363D01*
X49314Y-30635D01*
X49418Y-30887D01*
X49490Y-30958D01*
X49490Y-31041D01*
X49419Y-31111D01*
X49315Y-31363D01*
X49314Y-31635D01*
X49418Y-31887D01*
X49490Y-31958D01*
X49490Y-32041D01*
X49419Y-32111D01*
X49315Y-32363D01*
X49314Y-32635D01*
X49418Y-32887D01*
X49490Y-32958D01*
X49490Y-33041D01*
X49490Y-33041D01*
G37*
G54D28*
X49490Y-33041D02*
X49419Y-33111D01*
X49315Y-33363D01*
X49314Y-33635D01*
X49418Y-33887D01*
X49436Y-33904D01*
X49369Y-33970D01*
X49315Y-34103D01*
X49314Y-34246D01*
X49314Y-34463D01*
X49139Y-34639D01*
X49028Y-34804D01*
X48990Y-35000D01*
X48990Y-44000D01*
X48990Y-44538D01*
X48684Y-44843D01*
X48685Y-44753D01*
X48685Y-44103D01*
X48630Y-43971D01*
X48564Y-43904D01*
X48580Y-43888D01*
X48684Y-43636D01*
X48685Y-43364D01*
X48581Y-43112D01*
X48468Y-42999D01*
X48580Y-42888D01*
X48684Y-42636D01*
X48685Y-42364D01*
X48581Y-42112D01*
X48468Y-41999D01*
X48580Y-41888D01*
X48684Y-41636D01*
X48685Y-41364D01*
X48581Y-41112D01*
X48468Y-40999D01*
X48580Y-40888D01*
X48684Y-40636D01*
X48685Y-40364D01*
X48581Y-40112D01*
X48468Y-39999D01*
X48580Y-39888D01*
X48684Y-39636D01*
X48685Y-39364D01*
X48581Y-39112D01*
X48468Y-38999D01*
X48580Y-38888D01*
X48684Y-38636D01*
X48685Y-38364D01*
X48581Y-38112D01*
X48468Y-37999D01*
X48580Y-37888D01*
X48684Y-37636D01*
X48685Y-37364D01*
X48581Y-37112D01*
X48388Y-36919D01*
X48136Y-36815D01*
X47864Y-36814D01*
X47612Y-36918D01*
X47499Y-37031D01*
X47388Y-36919D01*
X47136Y-36815D01*
X46864Y-36814D01*
X46612Y-36918D01*
X46499Y-37031D01*
X46388Y-36919D01*
X46136Y-36815D01*
X45880Y-36814D01*
X45282Y-36217D01*
X45153Y-36130D01*
X45127Y-36125D01*
X45000Y-36100D01*
X42341Y-36100D01*
X42387Y-36081D01*
X42580Y-35888D01*
X42684Y-35636D01*
X42685Y-35364D01*
X42685Y-33364D01*
X42581Y-33112D01*
X42388Y-32919D01*
X42136Y-32815D01*
X41864Y-32814D01*
X41612Y-32918D01*
X41419Y-33111D01*
X41315Y-33363D01*
X41314Y-33635D01*
X41418Y-33887D01*
X41611Y-34080D01*
X41863Y-34184D01*
X42135Y-34185D01*
X42387Y-34081D01*
X42580Y-33888D01*
X42684Y-33636D01*
X42685Y-33364D01*
X42685Y-35364D01*
X42581Y-35112D01*
X42388Y-34919D01*
X42136Y-34815D01*
X41864Y-34814D01*
X41612Y-34918D01*
X41419Y-35111D01*
X41315Y-35363D01*
X41314Y-35635D01*
X41418Y-35887D01*
X41611Y-36080D01*
X41658Y-36100D01*
X40685Y-36100D01*
X40685Y-31864D01*
X40581Y-31612D01*
X40388Y-31419D01*
X40136Y-31315D01*
X39864Y-31314D01*
X39612Y-31418D01*
X39419Y-31611D01*
X39315Y-31863D01*
X39314Y-32135D01*
X39418Y-32387D01*
X39611Y-32580D01*
X39863Y-32684D01*
X40135Y-32685D01*
X40387Y-32581D01*
X40580Y-32388D01*
X40684Y-32136D01*
X40685Y-31864D01*
X40685Y-36100D01*
X40415Y-36100D01*
X40359Y-36043D01*
X40362Y-36042D01*
X40542Y-35863D01*
X40639Y-35627D01*
X40640Y-35373D01*
X40640Y-33373D01*
X40542Y-33137D01*
X40363Y-32957D01*
X40127Y-32860D01*
X39873Y-32859D01*
X39637Y-32957D01*
X39457Y-33136D01*
X39360Y-33372D01*
X39359Y-33626D01*
X39457Y-33862D01*
X39636Y-34042D01*
X39872Y-34139D01*
X40126Y-34140D01*
X40362Y-34042D01*
X40542Y-33863D01*
X40639Y-33627D01*
X40640Y-33373D01*
X40640Y-35373D01*
X40542Y-35137D01*
X40363Y-34957D01*
X40127Y-34860D01*
X39873Y-34859D01*
X39637Y-34957D01*
X39457Y-35136D01*
X39448Y-35160D01*
X39403Y-35130D01*
X39377Y-35125D01*
X39250Y-35100D01*
X37997Y-35100D01*
X37860Y-34961D01*
X37626Y-34865D01*
X37374Y-34864D01*
X37140Y-34961D01*
X36961Y-35139D01*
X36865Y-35373D01*
X36864Y-35625D01*
X36961Y-35859D01*
X37101Y-36000D01*
X36961Y-36139D01*
X36865Y-36373D01*
X36864Y-36625D01*
X36961Y-36859D01*
X37101Y-37000D01*
X36961Y-37139D01*
X36865Y-37373D01*
X36864Y-37625D01*
X36961Y-37859D01*
X37101Y-38000D01*
X36961Y-38139D01*
X36865Y-38373D01*
X36864Y-38625D01*
X36961Y-38859D01*
X37101Y-39000D01*
X37083Y-39018D01*
X36400Y-38334D01*
X36400Y-25165D01*
X36415Y-25150D01*
X36957Y-25150D01*
X36865Y-25373D01*
X36864Y-25625D01*
X36961Y-25859D01*
X37101Y-26000D01*
X36961Y-26139D01*
X36865Y-26373D01*
X36864Y-26625D01*
X36961Y-26859D01*
X37101Y-27000D01*
X36961Y-27139D01*
X36865Y-27373D01*
X36864Y-27625D01*
X36961Y-27859D01*
X37101Y-28000D01*
X36961Y-28139D01*
X36865Y-28373D01*
X36864Y-28625D01*
X36961Y-28859D01*
X37101Y-29000D01*
X36961Y-29139D01*
X36865Y-29373D01*
X36864Y-29625D01*
X36961Y-29859D01*
X37101Y-30000D01*
X36961Y-30139D01*
X36865Y-30373D01*
X36864Y-30625D01*
X36961Y-30859D01*
X37101Y-31000D01*
X36961Y-31139D01*
X36865Y-31373D01*
X36864Y-31625D01*
X36961Y-31859D01*
X37101Y-32000D01*
X36961Y-32139D01*
X36865Y-32373D01*
X36864Y-32625D01*
X36961Y-32859D01*
X37101Y-33000D01*
X36961Y-33139D01*
X36865Y-33373D01*
X36864Y-33625D01*
X36961Y-33859D01*
X37139Y-34038D01*
X37373Y-34134D01*
X37625Y-34135D01*
X37859Y-34038D01*
X38038Y-33860D01*
X38134Y-33626D01*
X38135Y-33374D01*
X38038Y-33140D01*
X37898Y-32999D01*
X38038Y-32860D01*
X38134Y-32626D01*
X38135Y-32430D01*
X39915Y-30650D01*
X42834Y-30650D01*
X44100Y-31915D01*
X44100Y-34000D01*
X44125Y-34127D01*
X44130Y-34153D01*
X44217Y-34282D01*
X44717Y-34782D01*
X44717Y-34782D01*
X44717Y-34782D01*
X45314Y-35380D01*
X45314Y-35896D01*
X45369Y-36028D01*
X45470Y-36130D01*
X45603Y-36184D01*
X45746Y-36185D01*
X46396Y-36185D01*
X46500Y-36142D01*
X46603Y-36184D01*
X46746Y-36185D01*
X47396Y-36185D01*
X47500Y-36142D01*
X47603Y-36184D01*
X47746Y-36185D01*
X48396Y-36185D01*
X48528Y-36130D01*
X48630Y-36029D01*
X48684Y-35896D01*
X48685Y-35753D01*
X48685Y-35103D01*
X48630Y-34971D01*
X48564Y-34904D01*
X48580Y-34888D01*
X48684Y-34636D01*
X48685Y-34364D01*
X48581Y-34112D01*
X48468Y-33999D01*
X48580Y-33888D01*
X48684Y-33636D01*
X48685Y-33364D01*
X48581Y-33112D01*
X48468Y-32999D01*
X48580Y-32888D01*
X48684Y-32636D01*
X48685Y-32364D01*
X48581Y-32112D01*
X48468Y-31999D01*
X48580Y-31888D01*
X48684Y-31636D01*
X48685Y-31364D01*
X48581Y-31112D01*
X48468Y-30999D01*
X48580Y-30888D01*
X48684Y-30636D01*
X48685Y-30364D01*
X48581Y-30112D01*
X48468Y-29999D01*
X48580Y-29888D01*
X48684Y-29636D01*
X48685Y-29364D01*
X48581Y-29112D01*
X48468Y-28999D01*
X48580Y-28888D01*
X48684Y-28636D01*
X48685Y-28364D01*
X48581Y-28112D01*
X48468Y-27999D01*
X48580Y-27888D01*
X48684Y-27636D01*
X48685Y-27364D01*
X48605Y-27170D01*
X48850Y-27415D01*
X48850Y-29250D01*
X48875Y-29377D01*
X48880Y-29403D01*
X48967Y-29532D01*
X49467Y-30032D01*
X49467Y-30032D01*
X49485Y-30045D01*
X49419Y-30111D01*
X49315Y-30363D01*
X49314Y-30635D01*
X49418Y-30887D01*
X49490Y-30958D01*
X49490Y-31041D01*
X49419Y-31111D01*
X49315Y-31363D01*
X49314Y-31635D01*
X49418Y-31887D01*
X49490Y-31958D01*
X49490Y-32041D01*
X49419Y-32111D01*
X49315Y-32363D01*
X49314Y-32635D01*
X49418Y-32887D01*
X49490Y-32958D01*
X49490Y-33041D01*
G54D10*
G36*
X61880Y-34814D02*
X61864Y-34814D01*
X61612Y-34918D01*
X61499Y-35031D01*
X61388Y-34919D01*
X61136Y-34815D01*
X60864Y-34814D01*
X60612Y-34918D01*
X60499Y-35031D01*
X60388Y-34919D01*
X60136Y-34815D01*
X59864Y-34814D01*
X59612Y-34918D01*
X59499Y-35031D01*
X59388Y-34919D01*
X59136Y-34815D01*
X58864Y-34814D01*
X58612Y-34918D01*
X58499Y-35031D01*
X58388Y-34919D01*
X58136Y-34815D01*
X57864Y-34814D01*
X57612Y-34918D01*
X57499Y-35031D01*
X57388Y-34919D01*
X57136Y-34815D01*
X56864Y-34814D01*
X56612Y-34918D01*
X56499Y-35031D01*
X56388Y-34919D01*
X56136Y-34815D01*
X55864Y-34814D01*
X55612Y-34918D01*
X55499Y-35031D01*
X55388Y-34919D01*
X55136Y-34815D01*
X54864Y-34814D01*
X54612Y-34918D01*
X54499Y-35031D01*
X54388Y-34919D01*
X54136Y-34815D01*
X53864Y-34814D01*
X53612Y-34918D01*
X53499Y-35031D01*
X53388Y-34919D01*
X53136Y-34815D01*
X52864Y-34814D01*
X52612Y-34918D01*
X52499Y-35031D01*
X52388Y-34919D01*
X52136Y-34815D01*
X51864Y-34814D01*
X51612Y-34918D01*
X51499Y-35031D01*
X51388Y-34919D01*
X51136Y-34815D01*
X50864Y-34814D01*
X50684Y-34889D01*
X50685Y-34753D01*
X50685Y-34103D01*
X50630Y-33971D01*
X50564Y-33904D01*
X50580Y-33888D01*
X50684Y-33636D01*
X50685Y-33364D01*
X50581Y-33112D01*
X50510Y-33041D01*
X50510Y-32958D01*
X50580Y-32888D01*
X50684Y-32636D01*
X50685Y-32364D01*
X50581Y-32112D01*
X50510Y-32041D01*
X50510Y-31958D01*
X50580Y-31888D01*
X50684Y-31636D01*
X50685Y-31364D01*
X50581Y-31112D01*
X50510Y-31041D01*
X50510Y-30958D01*
X50580Y-30888D01*
X50684Y-30636D01*
X50685Y-30364D01*
X50596Y-30150D01*
X50903Y-30150D01*
X50815Y-30363D01*
X50814Y-30635D01*
X50918Y-30887D01*
X51111Y-31080D01*
X51363Y-31184D01*
X51635Y-31185D01*
X51887Y-31081D01*
X52080Y-30888D01*
X52184Y-30636D01*
X52185Y-30364D01*
X52096Y-30150D01*
X54084Y-30150D01*
X54315Y-30380D01*
X54314Y-30635D01*
X54418Y-30887D01*
X54611Y-31080D01*
X54863Y-31184D01*
X55135Y-31185D01*
X55387Y-31081D01*
X55500Y-30968D01*
X55611Y-31080D01*
X55863Y-31184D01*
X56135Y-31185D01*
X56387Y-31081D01*
X56535Y-30933D01*
X56639Y-31038D01*
X56873Y-31134D01*
X57125Y-31135D01*
X57359Y-31038D01*
X57538Y-30860D01*
X57634Y-30626D01*
X57635Y-30374D01*
X57538Y-30140D01*
X57360Y-29961D01*
X57126Y-29865D01*
X56874Y-29864D01*
X56640Y-29961D01*
X56535Y-30066D01*
X56388Y-29919D01*
X56136Y-29815D01*
X55864Y-29814D01*
X55612Y-29918D01*
X55499Y-30031D01*
X55388Y-29919D01*
X55136Y-29815D01*
X54880Y-29814D01*
X54532Y-29467D01*
X54403Y-29380D01*
X54377Y-29375D01*
X54250Y-29350D01*
X49915Y-29350D01*
X49650Y-29084D01*
X49650Y-28184D01*
X49746Y-28185D01*
X50396Y-28185D01*
X50528Y-28130D01*
X50630Y-28029D01*
X50684Y-27896D01*
X50685Y-27753D01*
X50685Y-27103D01*
X50685Y-26253D01*
X50685Y-25603D01*
X50630Y-25471D01*
X50529Y-25369D01*
X50396Y-25315D01*
X50253Y-25314D01*
X49603Y-25314D01*
X49471Y-25369D01*
X49369Y-25470D01*
X49315Y-25603D01*
X49314Y-25746D01*
X49314Y-26396D01*
X49369Y-26528D01*
X49470Y-26630D01*
X49603Y-26684D01*
X49746Y-26685D01*
X50396Y-26685D01*
X50528Y-26630D01*
X50630Y-26529D01*
X50684Y-26396D01*
X50685Y-26253D01*
X50685Y-27103D01*
X50630Y-26971D01*
X50529Y-26869D01*
X50396Y-26815D01*
X50253Y-26814D01*
X49603Y-26814D01*
X49471Y-26869D01*
X49453Y-26887D01*
X48782Y-26217D01*
X48653Y-26130D01*
X48627Y-26125D01*
X48582Y-26116D01*
X48581Y-26112D01*
X48563Y-26095D01*
X48630Y-26029D01*
X48684Y-25896D01*
X48685Y-25753D01*
X48685Y-25103D01*
X48630Y-24971D01*
X48565Y-24906D01*
X48711Y-24760D01*
X49250Y-24760D01*
X49500Y-24760D01*
X51288Y-24760D01*
X51990Y-25461D01*
X51990Y-26861D01*
X51971Y-26869D01*
X51869Y-26970D01*
X51815Y-27103D01*
X51814Y-27246D01*
X51814Y-27896D01*
X51869Y-28028D01*
X51970Y-28130D01*
X52103Y-28184D01*
X52246Y-28185D01*
X52896Y-28185D01*
X53028Y-28130D01*
X53130Y-28029D01*
X53137Y-28010D01*
X54361Y-28010D01*
X54369Y-28028D01*
X54470Y-28130D01*
X54603Y-28184D01*
X54746Y-28185D01*
X55396Y-28185D01*
X55528Y-28130D01*
X55630Y-28029D01*
X55684Y-27896D01*
X55685Y-27753D01*
X55685Y-27536D01*
X55961Y-27260D01*
X56814Y-27260D01*
X56814Y-27896D01*
X56869Y-28028D01*
X56970Y-28130D01*
X57103Y-28184D01*
X57246Y-28185D01*
X57896Y-28185D01*
X58028Y-28130D01*
X58130Y-28029D01*
X58184Y-27896D01*
X58185Y-27753D01*
X58185Y-27656D01*
X58389Y-27860D01*
X58389Y-27860D01*
X58499Y-27934D01*
X58554Y-27971D01*
X58554Y-27971D01*
X58749Y-28009D01*
X58750Y-28010D01*
X59505Y-28010D01*
X59597Y-28101D01*
X59858Y-28209D01*
X60140Y-28210D01*
X60401Y-28102D01*
X60601Y-27902D01*
X60709Y-27641D01*
X60710Y-27359D01*
X60710Y-25359D01*
X60602Y-25098D01*
X60402Y-24898D01*
X60141Y-24790D01*
X59859Y-24789D01*
X59598Y-24897D01*
X59398Y-25097D01*
X59290Y-25358D01*
X59289Y-25640D01*
X59397Y-25901D01*
X59597Y-26101D01*
X59858Y-26209D01*
X60140Y-26210D01*
X60401Y-26102D01*
X60601Y-25902D01*
X60709Y-25641D01*
X60710Y-25359D01*
X60710Y-27359D01*
X60602Y-27098D01*
X60402Y-26898D01*
X60141Y-26790D01*
X59859Y-26789D01*
X59598Y-26897D01*
X59505Y-26990D01*
X58961Y-26990D01*
X58710Y-26738D01*
X58710Y-25778D01*
X58710Y-25078D01*
X58655Y-24946D01*
X58554Y-24844D01*
X58421Y-24790D01*
X58278Y-24789D01*
X58012Y-24789D01*
X58048Y-24701D01*
X58049Y-24558D01*
X58049Y-23180D01*
X57994Y-23048D01*
X57893Y-22946D01*
X57760Y-22892D01*
X57617Y-22891D01*
X56239Y-22891D01*
X56107Y-22946D01*
X56005Y-23047D01*
X55951Y-23180D01*
X55950Y-23323D01*
X55950Y-24701D01*
X56005Y-24833D01*
X56106Y-24935D01*
X56239Y-24989D01*
X56382Y-24990D01*
X57326Y-24990D01*
X57290Y-25078D01*
X57289Y-25221D01*
X57289Y-25921D01*
X57344Y-26053D01*
X57445Y-26155D01*
X57578Y-26209D01*
X57721Y-26210D01*
X58421Y-26210D01*
X58553Y-26155D01*
X58655Y-26054D01*
X58709Y-25921D01*
X58710Y-25778D01*
X58710Y-26738D01*
X58360Y-26389D01*
X58195Y-26278D01*
X58000Y-26240D01*
X55750Y-26240D01*
X55554Y-26278D01*
X55499Y-26315D01*
X55389Y-26389D01*
X54963Y-26814D01*
X54603Y-26814D01*
X54471Y-26869D01*
X54369Y-26970D01*
X54362Y-26990D01*
X53138Y-26990D01*
X53130Y-26971D01*
X53029Y-26869D01*
X53010Y-26862D01*
X53010Y-25979D01*
X53143Y-26034D01*
X53355Y-26035D01*
X53479Y-25983D01*
X53597Y-26101D01*
X53858Y-26209D01*
X54140Y-26210D01*
X54401Y-26102D01*
X54601Y-25902D01*
X54709Y-25641D01*
X54710Y-25359D01*
X54602Y-25098D01*
X54402Y-24898D01*
X54372Y-24886D01*
X54399Y-24750D01*
X54400Y-24750D01*
X54400Y-22997D01*
X54538Y-22860D01*
X54634Y-22626D01*
X54635Y-22374D01*
X54538Y-22140D01*
X54398Y-21999D01*
X54538Y-21860D01*
X54634Y-21626D01*
X54635Y-21374D01*
X54538Y-21140D01*
X54360Y-20961D01*
X54126Y-20865D01*
X53874Y-20864D01*
X53640Y-20961D01*
X53461Y-21139D01*
X53365Y-21373D01*
X53364Y-21625D01*
X53461Y-21859D01*
X53601Y-22000D01*
X53461Y-22139D01*
X53365Y-22373D01*
X53364Y-22625D01*
X53461Y-22859D01*
X53600Y-22998D01*
X53600Y-24584D01*
X53219Y-24964D01*
X53144Y-24964D01*
X52961Y-25040D01*
X52961Y-25040D01*
X52860Y-24889D01*
X51860Y-23889D01*
X51695Y-23778D01*
X51500Y-23740D01*
X50647Y-23740D01*
X50689Y-23637D01*
X50690Y-23363D01*
X50585Y-23109D01*
X50391Y-22915D01*
X50137Y-22810D01*
X49863Y-22809D01*
X49609Y-22914D01*
X49499Y-23024D01*
X49391Y-22915D01*
X49137Y-22810D01*
X48863Y-22809D01*
X48609Y-22914D01*
X48415Y-23108D01*
X48310Y-23362D01*
X48309Y-23636D01*
X48363Y-23767D01*
X48304Y-23778D01*
X48139Y-23889D01*
X47639Y-24389D01*
X47565Y-24500D01*
X47565Y-23653D01*
X47510Y-23521D01*
X47409Y-23419D01*
X47276Y-23365D01*
X47200Y-23364D01*
X47915Y-22650D01*
X48250Y-22650D01*
X48250Y-22649D01*
X48377Y-22624D01*
X48403Y-22619D01*
X48403Y-22619D01*
X48532Y-22532D01*
X48875Y-22189D01*
X49136Y-22190D01*
X49390Y-22085D01*
X49500Y-21975D01*
X49608Y-22084D01*
X49862Y-22189D01*
X50136Y-22190D01*
X50390Y-22085D01*
X50538Y-21936D01*
X50601Y-22000D01*
X50461Y-22139D01*
X50365Y-22373D01*
X50364Y-22625D01*
X50461Y-22859D01*
X50639Y-23038D01*
X50873Y-23134D01*
X51125Y-23135D01*
X51359Y-23038D01*
X51538Y-22860D01*
X51634Y-22626D01*
X51635Y-22374D01*
X51538Y-22140D01*
X51398Y-21999D01*
X51538Y-21860D01*
X51634Y-21626D01*
X51635Y-21374D01*
X51538Y-21140D01*
X51360Y-20961D01*
X51126Y-20865D01*
X50874Y-20864D01*
X50640Y-20961D01*
X50538Y-21063D01*
X50391Y-20915D01*
X50137Y-20810D01*
X49863Y-20809D01*
X49609Y-20914D01*
X49499Y-21024D01*
X49391Y-20915D01*
X49137Y-20810D01*
X48863Y-20809D01*
X48609Y-20914D01*
X48415Y-21108D01*
X48310Y-21362D01*
X48309Y-21624D01*
X48084Y-21850D01*
X47750Y-21850D01*
X47596Y-21880D01*
X47565Y-21901D01*
X47565Y-21353D01*
X47510Y-21221D01*
X47461Y-21172D01*
X47407Y-21092D01*
X47407Y-21092D01*
X47285Y-20969D01*
X47285Y-20894D01*
X47203Y-20697D01*
X47126Y-20620D01*
X60239Y-20620D01*
X60017Y-20842D01*
X59840Y-21268D01*
X59839Y-21729D01*
X60016Y-22156D01*
X60342Y-22482D01*
X60768Y-22659D01*
X61229Y-22660D01*
X61656Y-22483D01*
X61880Y-22260D01*
X61880Y-34814D01*
X61880Y-34814D01*
G37*
G54D28*
X61880Y-34814D02*
X61864Y-34814D01*
X61612Y-34918D01*
X61499Y-35031D01*
X61388Y-34919D01*
X61136Y-34815D01*
X60864Y-34814D01*
X60612Y-34918D01*
X60499Y-35031D01*
X60388Y-34919D01*
X60136Y-34815D01*
X59864Y-34814D01*
X59612Y-34918D01*
X59499Y-35031D01*
X59388Y-34919D01*
X59136Y-34815D01*
X58864Y-34814D01*
X58612Y-34918D01*
X58499Y-35031D01*
X58388Y-34919D01*
X58136Y-34815D01*
X57864Y-34814D01*
X57612Y-34918D01*
X57499Y-35031D01*
X57388Y-34919D01*
X57136Y-34815D01*
X56864Y-34814D01*
X56612Y-34918D01*
X56499Y-35031D01*
X56388Y-34919D01*
X56136Y-34815D01*
X55864Y-34814D01*
X55612Y-34918D01*
X55499Y-35031D01*
X55388Y-34919D01*
X55136Y-34815D01*
X54864Y-34814D01*
X54612Y-34918D01*
X54499Y-35031D01*
X54388Y-34919D01*
X54136Y-34815D01*
X53864Y-34814D01*
X53612Y-34918D01*
X53499Y-35031D01*
X53388Y-34919D01*
X53136Y-34815D01*
X52864Y-34814D01*
X52612Y-34918D01*
X52499Y-35031D01*
X52388Y-34919D01*
X52136Y-34815D01*
X51864Y-34814D01*
X51612Y-34918D01*
X51499Y-35031D01*
X51388Y-34919D01*
X51136Y-34815D01*
X50864Y-34814D01*
X50684Y-34889D01*
X50685Y-34753D01*
X50685Y-34103D01*
X50630Y-33971D01*
X50564Y-33904D01*
X50580Y-33888D01*
X50684Y-33636D01*
X50685Y-33364D01*
X50581Y-33112D01*
X50510Y-33041D01*
X50510Y-32958D01*
X50580Y-32888D01*
X50684Y-32636D01*
X50685Y-32364D01*
X50581Y-32112D01*
X50510Y-32041D01*
X50510Y-31958D01*
X50580Y-31888D01*
X50684Y-31636D01*
X50685Y-31364D01*
X50581Y-31112D01*
X50510Y-31041D01*
X50510Y-30958D01*
X50580Y-30888D01*
X50684Y-30636D01*
X50685Y-30364D01*
X50596Y-30150D01*
X50903Y-30150D01*
X50815Y-30363D01*
X50814Y-30635D01*
X50918Y-30887D01*
X51111Y-31080D01*
X51363Y-31184D01*
X51635Y-31185D01*
X51887Y-31081D01*
X52080Y-30888D01*
X52184Y-30636D01*
X52185Y-30364D01*
X52096Y-30150D01*
X54084Y-30150D01*
X54315Y-30380D01*
X54314Y-30635D01*
X54418Y-30887D01*
X54611Y-31080D01*
X54863Y-31184D01*
X55135Y-31185D01*
X55387Y-31081D01*
X55500Y-30968D01*
X55611Y-31080D01*
X55863Y-31184D01*
X56135Y-31185D01*
X56387Y-31081D01*
X56535Y-30933D01*
X56639Y-31038D01*
X56873Y-31134D01*
X57125Y-31135D01*
X57359Y-31038D01*
X57538Y-30860D01*
X57634Y-30626D01*
X57635Y-30374D01*
X57538Y-30140D01*
X57360Y-29961D01*
X57126Y-29865D01*
X56874Y-29864D01*
X56640Y-29961D01*
X56535Y-30066D01*
X56388Y-29919D01*
X56136Y-29815D01*
X55864Y-29814D01*
X55612Y-29918D01*
X55499Y-30031D01*
X55388Y-29919D01*
X55136Y-29815D01*
X54880Y-29814D01*
X54532Y-29467D01*
X54403Y-29380D01*
X54377Y-29375D01*
X54250Y-29350D01*
X49915Y-29350D01*
X49650Y-29084D01*
X49650Y-28184D01*
X49746Y-28185D01*
X50396Y-28185D01*
X50528Y-28130D01*
X50630Y-28029D01*
X50684Y-27896D01*
X50685Y-27753D01*
X50685Y-27103D01*
X50685Y-26253D01*
X50685Y-25603D01*
X50630Y-25471D01*
X50529Y-25369D01*
X50396Y-25315D01*
X50253Y-25314D01*
X49603Y-25314D01*
X49471Y-25369D01*
X49369Y-25470D01*
X49315Y-25603D01*
X49314Y-25746D01*
X49314Y-26396D01*
X49369Y-26528D01*
X49470Y-26630D01*
X49603Y-26684D01*
X49746Y-26685D01*
X50396Y-26685D01*
X50528Y-26630D01*
X50630Y-26529D01*
X50684Y-26396D01*
X50685Y-26253D01*
X50685Y-27103D01*
X50630Y-26971D01*
X50529Y-26869D01*
X50396Y-26815D01*
X50253Y-26814D01*
X49603Y-26814D01*
X49471Y-26869D01*
X49453Y-26887D01*
X48782Y-26217D01*
X48653Y-26130D01*
X48627Y-26125D01*
X48582Y-26116D01*
X48581Y-26112D01*
X48563Y-26095D01*
X48630Y-26029D01*
X48684Y-25896D01*
X48685Y-25753D01*
X48685Y-25103D01*
X48630Y-24971D01*
X48565Y-24906D01*
X48711Y-24760D01*
X49250Y-24760D01*
X49500Y-24760D01*
X51288Y-24760D01*
X51990Y-25461D01*
X51990Y-26861D01*
X51971Y-26869D01*
X51869Y-26970D01*
X51815Y-27103D01*
X51814Y-27246D01*
X51814Y-27896D01*
X51869Y-28028D01*
X51970Y-28130D01*
X52103Y-28184D01*
X52246Y-28185D01*
X52896Y-28185D01*
X53028Y-28130D01*
X53130Y-28029D01*
X53137Y-28010D01*
X54361Y-28010D01*
X54369Y-28028D01*
X54470Y-28130D01*
X54603Y-28184D01*
X54746Y-28185D01*
X55396Y-28185D01*
X55528Y-28130D01*
X55630Y-28029D01*
X55684Y-27896D01*
X55685Y-27753D01*
X55685Y-27536D01*
X55961Y-27260D01*
X56814Y-27260D01*
X56814Y-27896D01*
X56869Y-28028D01*
X56970Y-28130D01*
X57103Y-28184D01*
X57246Y-28185D01*
X57896Y-28185D01*
X58028Y-28130D01*
X58130Y-28029D01*
X58184Y-27896D01*
X58185Y-27753D01*
X58185Y-27656D01*
X58389Y-27860D01*
X58389Y-27860D01*
X58499Y-27934D01*
X58554Y-27971D01*
X58554Y-27971D01*
X58749Y-28009D01*
X58750Y-28010D01*
X59505Y-28010D01*
X59597Y-28101D01*
X59858Y-28209D01*
X60140Y-28210D01*
X60401Y-28102D01*
X60601Y-27902D01*
X60709Y-27641D01*
X60710Y-27359D01*
X60710Y-25359D01*
X60602Y-25098D01*
X60402Y-24898D01*
X60141Y-24790D01*
X59859Y-24789D01*
X59598Y-24897D01*
X59398Y-25097D01*
X59290Y-25358D01*
X59289Y-25640D01*
X59397Y-25901D01*
X59597Y-26101D01*
X59858Y-26209D01*
X60140Y-26210D01*
X60401Y-26102D01*
X60601Y-25902D01*
X60709Y-25641D01*
X60710Y-25359D01*
X60710Y-27359D01*
X60602Y-27098D01*
X60402Y-26898D01*
X60141Y-26790D01*
X59859Y-26789D01*
X59598Y-26897D01*
X59505Y-26990D01*
X58961Y-26990D01*
X58710Y-26738D01*
X58710Y-25778D01*
X58710Y-25078D01*
X58655Y-24946D01*
X58554Y-24844D01*
X58421Y-24790D01*
X58278Y-24789D01*
X58012Y-24789D01*
X58048Y-24701D01*
X58049Y-24558D01*
X58049Y-23180D01*
X57994Y-23048D01*
X57893Y-22946D01*
X57760Y-22892D01*
X57617Y-22891D01*
X56239Y-22891D01*
X56107Y-22946D01*
X56005Y-23047D01*
X55951Y-23180D01*
X55950Y-23323D01*
X55950Y-24701D01*
X56005Y-24833D01*
X56106Y-24935D01*
X56239Y-24989D01*
X56382Y-24990D01*
X57326Y-24990D01*
X57290Y-25078D01*
X57289Y-25221D01*
X57289Y-25921D01*
X57344Y-26053D01*
X57445Y-26155D01*
X57578Y-26209D01*
X57721Y-26210D01*
X58421Y-26210D01*
X58553Y-26155D01*
X58655Y-26054D01*
X58709Y-25921D01*
X58710Y-25778D01*
X58710Y-26738D01*
X58360Y-26389D01*
X58195Y-26278D01*
X58000Y-26240D01*
X55750Y-26240D01*
X55554Y-26278D01*
X55499Y-26315D01*
X55389Y-26389D01*
X54963Y-26814D01*
X54603Y-26814D01*
X54471Y-26869D01*
X54369Y-26970D01*
X54362Y-26990D01*
X53138Y-26990D01*
X53130Y-26971D01*
X53029Y-26869D01*
X53010Y-26862D01*
X53010Y-25979D01*
X53143Y-26034D01*
X53355Y-26035D01*
X53479Y-25983D01*
X53597Y-26101D01*
X53858Y-26209D01*
X54140Y-26210D01*
X54401Y-26102D01*
X54601Y-25902D01*
X54709Y-25641D01*
X54710Y-25359D01*
X54602Y-25098D01*
X54402Y-24898D01*
X54372Y-24886D01*
X54399Y-24750D01*
X54400Y-24750D01*
X54400Y-22997D01*
X54538Y-22860D01*
X54634Y-22626D01*
X54635Y-22374D01*
X54538Y-22140D01*
X54398Y-21999D01*
X54538Y-21860D01*
X54634Y-21626D01*
X54635Y-21374D01*
X54538Y-21140D01*
X54360Y-20961D01*
X54126Y-20865D01*
X53874Y-20864D01*
X53640Y-20961D01*
X53461Y-21139D01*
X53365Y-21373D01*
X53364Y-21625D01*
X53461Y-21859D01*
X53601Y-22000D01*
X53461Y-22139D01*
X53365Y-22373D01*
X53364Y-22625D01*
X53461Y-22859D01*
X53600Y-22998D01*
X53600Y-24584D01*
X53219Y-24964D01*
X53144Y-24964D01*
X52961Y-25040D01*
X52961Y-25040D01*
X52860Y-24889D01*
X51860Y-23889D01*
X51695Y-23778D01*
X51500Y-23740D01*
X50647Y-23740D01*
X50689Y-23637D01*
X50690Y-23363D01*
X50585Y-23109D01*
X50391Y-22915D01*
X50137Y-22810D01*
X49863Y-22809D01*
X49609Y-22914D01*
X49499Y-23024D01*
X49391Y-22915D01*
X49137Y-22810D01*
X48863Y-22809D01*
X48609Y-22914D01*
X48415Y-23108D01*
X48310Y-23362D01*
X48309Y-23636D01*
X48363Y-23767D01*
X48304Y-23778D01*
X48139Y-23889D01*
X47639Y-24389D01*
X47565Y-24500D01*
X47565Y-23653D01*
X47510Y-23521D01*
X47409Y-23419D01*
X47276Y-23365D01*
X47200Y-23364D01*
X47915Y-22650D01*
X48250Y-22650D01*
X48250Y-22649D01*
X48377Y-22624D01*
X48403Y-22619D01*
X48403Y-22619D01*
X48532Y-22532D01*
X48875Y-22189D01*
X49136Y-22190D01*
X49390Y-22085D01*
X49500Y-21975D01*
X49608Y-22084D01*
X49862Y-22189D01*
X50136Y-22190D01*
X50390Y-22085D01*
X50538Y-21936D01*
X50601Y-22000D01*
X50461Y-22139D01*
X50365Y-22373D01*
X50364Y-22625D01*
X50461Y-22859D01*
X50639Y-23038D01*
X50873Y-23134D01*
X51125Y-23135D01*
X51359Y-23038D01*
X51538Y-22860D01*
X51634Y-22626D01*
X51635Y-22374D01*
X51538Y-22140D01*
X51398Y-21999D01*
X51538Y-21860D01*
X51634Y-21626D01*
X51635Y-21374D01*
X51538Y-21140D01*
X51360Y-20961D01*
X51126Y-20865D01*
X50874Y-20864D01*
X50640Y-20961D01*
X50538Y-21063D01*
X50391Y-20915D01*
X50137Y-20810D01*
X49863Y-20809D01*
X49609Y-20914D01*
X49499Y-21024D01*
X49391Y-20915D01*
X49137Y-20810D01*
X48863Y-20809D01*
X48609Y-20914D01*
X48415Y-21108D01*
X48310Y-21362D01*
X48309Y-21624D01*
X48084Y-21850D01*
X47750Y-21850D01*
X47596Y-21880D01*
X47565Y-21901D01*
X47565Y-21353D01*
X47510Y-21221D01*
X47461Y-21172D01*
X47407Y-21092D01*
X47407Y-21092D01*
X47285Y-20969D01*
X47285Y-20894D01*
X47203Y-20697D01*
X47126Y-20620D01*
X60239Y-20620D01*
X60017Y-20842D01*
X59840Y-21268D01*
X59839Y-21729D01*
X60016Y-22156D01*
X60342Y-22482D01*
X60768Y-22659D01*
X61229Y-22660D01*
X61656Y-22483D01*
X61880Y-22260D01*
X61880Y-34814D01*
G54D10*
G36*
X61880Y-55739D02*
X61657Y-55517D01*
X61231Y-55340D01*
X60770Y-55339D01*
X60343Y-55516D01*
X60017Y-55842D01*
X59840Y-56268D01*
X59839Y-56729D01*
X60016Y-57156D01*
X60239Y-57380D01*
X59185Y-57380D01*
X59185Y-54864D01*
X59081Y-54612D01*
X58888Y-54419D01*
X58636Y-54315D01*
X58364Y-54314D01*
X58112Y-54418D01*
X57919Y-54611D01*
X57815Y-54863D01*
X57814Y-55135D01*
X57918Y-55387D01*
X58111Y-55580D01*
X58363Y-55684D01*
X58635Y-55685D01*
X58887Y-55581D01*
X59080Y-55388D01*
X59184Y-55136D01*
X59185Y-54864D01*
X59185Y-57380D01*
X56185Y-57380D01*
X56185Y-54864D01*
X56081Y-54612D01*
X55888Y-54419D01*
X55636Y-54315D01*
X55364Y-54314D01*
X55112Y-54418D01*
X54919Y-54611D01*
X54815Y-54863D01*
X54814Y-55135D01*
X54918Y-55387D01*
X55111Y-55580D01*
X55363Y-55684D01*
X55635Y-55685D01*
X55887Y-55581D01*
X56080Y-55388D01*
X56184Y-55136D01*
X56185Y-54864D01*
X56185Y-57380D01*
X54185Y-57380D01*
X54185Y-54864D01*
X54081Y-54612D01*
X53888Y-54419D01*
X53636Y-54315D01*
X53364Y-54314D01*
X53112Y-54418D01*
X52919Y-54611D01*
X52815Y-54863D01*
X52814Y-55135D01*
X52918Y-55387D01*
X53111Y-55580D01*
X53363Y-55684D01*
X53635Y-55685D01*
X53887Y-55581D01*
X54080Y-55388D01*
X54184Y-55136D01*
X54185Y-54864D01*
X54185Y-57380D01*
X51185Y-57380D01*
X51185Y-54864D01*
X51185Y-53364D01*
X51185Y-51364D01*
X51081Y-51112D01*
X50888Y-50919D01*
X50636Y-50815D01*
X50364Y-50814D01*
X50112Y-50918D01*
X49919Y-51111D01*
X49815Y-51363D01*
X49814Y-51635D01*
X49918Y-51887D01*
X50111Y-52080D01*
X50363Y-52184D01*
X50635Y-52185D01*
X50887Y-52081D01*
X51080Y-51888D01*
X51184Y-51636D01*
X51185Y-51364D01*
X51185Y-53364D01*
X51081Y-53112D01*
X50888Y-52919D01*
X50636Y-52815D01*
X50364Y-52814D01*
X50112Y-52918D01*
X49919Y-53111D01*
X49815Y-53363D01*
X49814Y-53635D01*
X49918Y-53887D01*
X50111Y-54080D01*
X50363Y-54184D01*
X50635Y-54185D01*
X50887Y-54081D01*
X51080Y-53888D01*
X51184Y-53636D01*
X51185Y-53364D01*
X51185Y-54864D01*
X51081Y-54612D01*
X50888Y-54419D01*
X50636Y-54315D01*
X50364Y-54314D01*
X50112Y-54418D01*
X49919Y-54611D01*
X49815Y-54863D01*
X49814Y-55135D01*
X49918Y-55387D01*
X50111Y-55580D01*
X50363Y-55684D01*
X50635Y-55685D01*
X50887Y-55581D01*
X51080Y-55388D01*
X51184Y-55136D01*
X51185Y-54864D01*
X51185Y-57380D01*
X48685Y-57380D01*
X48685Y-52064D01*
X48581Y-51812D01*
X48510Y-51741D01*
X48510Y-51500D01*
X48471Y-51304D01*
X48360Y-51139D01*
X48195Y-51028D01*
X48000Y-50990D01*
X47804Y-51028D01*
X47639Y-51139D01*
X47528Y-51304D01*
X47490Y-51500D01*
X47490Y-51741D01*
X47419Y-51811D01*
X47315Y-52063D01*
X47314Y-52335D01*
X47418Y-52587D01*
X47611Y-52780D01*
X47863Y-52884D01*
X48135Y-52885D01*
X48387Y-52781D01*
X48580Y-52588D01*
X48684Y-52336D01*
X48685Y-52064D01*
X48685Y-57380D01*
X45184Y-57380D01*
X45185Y-57253D01*
X45185Y-57036D01*
X46860Y-55360D01*
X46860Y-55360D01*
X46860Y-55360D01*
X46971Y-55195D01*
X46971Y-55195D01*
X47009Y-55000D01*
X47010Y-55000D01*
X47010Y-53500D01*
X46971Y-53304D01*
X46971Y-53304D01*
X46860Y-53139D01*
X45860Y-52139D01*
X45695Y-52028D01*
X45500Y-51990D01*
X43994Y-51990D01*
X43902Y-51898D01*
X43641Y-51790D01*
X43359Y-51789D01*
X43104Y-51895D01*
X43054Y-51844D01*
X42921Y-51790D01*
X42778Y-51789D01*
X42078Y-51789D01*
X42030Y-51809D01*
X41360Y-51139D01*
X41195Y-51028D01*
X41000Y-50990D01*
X40978Y-50990D01*
X41080Y-50888D01*
X41184Y-50636D01*
X41185Y-50364D01*
X41081Y-50112D01*
X40968Y-49999D01*
X41080Y-49888D01*
X41184Y-49636D01*
X41185Y-49364D01*
X41081Y-49112D01*
X40888Y-48919D01*
X40636Y-48815D01*
X40364Y-48814D01*
X40112Y-48918D01*
X39919Y-49111D01*
X39815Y-49363D01*
X39814Y-49635D01*
X39918Y-49887D01*
X40031Y-50000D01*
X39919Y-50111D01*
X39815Y-50363D01*
X39814Y-50635D01*
X39918Y-50887D01*
X40031Y-51000D01*
X39919Y-51111D01*
X39815Y-51363D01*
X39814Y-51635D01*
X39918Y-51887D01*
X40111Y-52080D01*
X40363Y-52184D01*
X40635Y-52185D01*
X40867Y-52089D01*
X41639Y-52860D01*
X41804Y-52971D01*
X41804Y-52971D01*
X41811Y-52972D01*
X41844Y-53053D01*
X41945Y-53155D01*
X42078Y-53209D01*
X42221Y-53210D01*
X42921Y-53210D01*
X43053Y-53155D01*
X43104Y-53104D01*
X43358Y-53209D01*
X43640Y-53210D01*
X43901Y-53102D01*
X43994Y-53010D01*
X45288Y-53010D01*
X45990Y-53711D01*
X45990Y-53818D01*
X45921Y-53790D01*
X45778Y-53789D01*
X45078Y-53789D01*
X44946Y-53844D01*
X44895Y-53895D01*
X44641Y-53790D01*
X44359Y-53789D01*
X44098Y-53897D01*
X44005Y-53990D01*
X41500Y-53990D01*
X40958Y-53990D01*
X40888Y-53919D01*
X40636Y-53815D01*
X40364Y-53814D01*
X40112Y-53918D01*
X39919Y-54111D01*
X39815Y-54363D01*
X39814Y-54635D01*
X39918Y-54887D01*
X40031Y-55000D01*
X39919Y-55111D01*
X39815Y-55363D01*
X39814Y-55635D01*
X39918Y-55887D01*
X40031Y-56000D01*
X39919Y-56111D01*
X39815Y-56363D01*
X39814Y-56635D01*
X39918Y-56887D01*
X40111Y-57080D01*
X40363Y-57184D01*
X40635Y-57185D01*
X40887Y-57081D01*
X41080Y-56888D01*
X41184Y-56636D01*
X41185Y-56364D01*
X41081Y-56112D01*
X40968Y-55999D01*
X41080Y-55888D01*
X41184Y-55636D01*
X41185Y-55364D01*
X41081Y-55112D01*
X40978Y-55010D01*
X41288Y-55010D01*
X41990Y-55711D01*
X41990Y-56541D01*
X41919Y-56611D01*
X41815Y-56863D01*
X41814Y-57135D01*
X41915Y-57380D01*
X36083Y-57380D01*
X36184Y-57136D01*
X36185Y-56864D01*
X36081Y-56612D01*
X36010Y-56541D01*
X36010Y-55711D01*
X36711Y-55010D01*
X37021Y-55010D01*
X36919Y-55111D01*
X36815Y-55363D01*
X36814Y-55635D01*
X36918Y-55887D01*
X37031Y-56000D01*
X36919Y-56111D01*
X36815Y-56363D01*
X36814Y-56635D01*
X36918Y-56887D01*
X37111Y-57080D01*
X37363Y-57184D01*
X37635Y-57185D01*
X37887Y-57081D01*
X37958Y-57010D01*
X38000Y-57010D01*
X38195Y-56971D01*
X38195Y-56971D01*
X38360Y-56860D01*
X39360Y-55860D01*
X39471Y-55695D01*
X39471Y-55695D01*
X39510Y-55500D01*
X39510Y-49211D01*
X40711Y-48010D01*
X42288Y-48010D01*
X42389Y-48110D01*
X42389Y-48110D01*
X42499Y-48184D01*
X42554Y-48221D01*
X42554Y-48221D01*
X42750Y-48260D01*
X42789Y-48260D01*
X42789Y-48921D01*
X42844Y-49053D01*
X42945Y-49155D01*
X43078Y-49209D01*
X43221Y-49210D01*
X43668Y-49210D01*
X43717Y-49282D01*
X43846Y-49369D01*
X44000Y-49400D01*
X44153Y-49369D01*
X44171Y-49357D01*
X44139Y-49389D01*
X44028Y-49554D01*
X43990Y-49750D01*
X43990Y-49826D01*
X43946Y-49844D01*
X43844Y-49945D01*
X43790Y-50078D01*
X43789Y-50221D01*
X43789Y-50921D01*
X43844Y-51053D01*
X43945Y-51155D01*
X44078Y-51209D01*
X44221Y-51210D01*
X44921Y-51210D01*
X45053Y-51155D01*
X45155Y-51054D01*
X45209Y-50921D01*
X45210Y-50778D01*
X45210Y-50078D01*
X45155Y-49946D01*
X45090Y-49881D01*
X46860Y-48110D01*
X46860Y-48110D01*
X46860Y-48110D01*
X48110Y-46860D01*
X49860Y-45110D01*
X49971Y-44945D01*
X49971Y-44945D01*
X50010Y-44750D01*
X50010Y-44000D01*
X50010Y-35211D01*
X50036Y-35185D01*
X50389Y-35185D01*
X50315Y-35363D01*
X50314Y-35635D01*
X50418Y-35887D01*
X50531Y-36000D01*
X50419Y-36111D01*
X50315Y-36363D01*
X50314Y-36635D01*
X50418Y-36887D01*
X50531Y-37000D01*
X50419Y-37111D01*
X50315Y-37363D01*
X50314Y-37635D01*
X50418Y-37887D01*
X50531Y-38000D01*
X50419Y-38111D01*
X50315Y-38363D01*
X50314Y-38635D01*
X50418Y-38887D01*
X50531Y-39000D01*
X50419Y-39111D01*
X50315Y-39363D01*
X50314Y-39635D01*
X50418Y-39887D01*
X50531Y-40000D01*
X50419Y-40111D01*
X50315Y-40363D01*
X50314Y-40635D01*
X50418Y-40887D01*
X50531Y-41000D01*
X50419Y-41111D01*
X50315Y-41363D01*
X50314Y-41635D01*
X50418Y-41887D01*
X50531Y-42000D01*
X50419Y-42111D01*
X50315Y-42363D01*
X50314Y-42635D01*
X50418Y-42887D01*
X50531Y-43000D01*
X50419Y-43111D01*
X50315Y-43363D01*
X50314Y-43635D01*
X50418Y-43887D01*
X50531Y-44000D01*
X50419Y-44111D01*
X50315Y-44363D01*
X50314Y-44635D01*
X50418Y-44887D01*
X50531Y-45000D01*
X50419Y-45111D01*
X50315Y-45363D01*
X50314Y-45635D01*
X50418Y-45887D01*
X50531Y-46000D01*
X50419Y-46111D01*
X50315Y-46363D01*
X50314Y-46635D01*
X50418Y-46887D01*
X50611Y-47080D01*
X50863Y-47184D01*
X51135Y-47185D01*
X51387Y-47081D01*
X51500Y-46968D01*
X51611Y-47080D01*
X51863Y-47184D01*
X52135Y-47185D01*
X52387Y-47081D01*
X52500Y-46968D01*
X52611Y-47080D01*
X52863Y-47184D01*
X53135Y-47185D01*
X53387Y-47081D01*
X53500Y-46968D01*
X53611Y-47080D01*
X53863Y-47184D01*
X54135Y-47185D01*
X54387Y-47081D01*
X54500Y-46968D01*
X54611Y-47080D01*
X54863Y-47184D01*
X55135Y-47185D01*
X55387Y-47081D01*
X55500Y-46968D01*
X55611Y-47080D01*
X55863Y-47184D01*
X56135Y-47185D01*
X56387Y-47081D01*
X56500Y-46968D01*
X56611Y-47080D01*
X56863Y-47184D01*
X57135Y-47185D01*
X57387Y-47081D01*
X57500Y-46968D01*
X57611Y-47080D01*
X57863Y-47184D01*
X58135Y-47185D01*
X58387Y-47081D01*
X58500Y-46968D01*
X58611Y-47080D01*
X58863Y-47184D01*
X59135Y-47185D01*
X59387Y-47081D01*
X59500Y-46968D01*
X59611Y-47080D01*
X59863Y-47184D01*
X60135Y-47185D01*
X60387Y-47081D01*
X60500Y-46968D01*
X60611Y-47080D01*
X60863Y-47184D01*
X61135Y-47185D01*
X61387Y-47081D01*
X61500Y-46968D01*
X61611Y-47080D01*
X61863Y-47184D01*
X61880Y-47184D01*
X61880Y-48814D01*
X61864Y-48814D01*
X61612Y-48918D01*
X61541Y-48990D01*
X61458Y-48990D01*
X61388Y-48919D01*
X61136Y-48815D01*
X60864Y-48814D01*
X60612Y-48918D01*
X60541Y-48990D01*
X60458Y-48990D01*
X60388Y-48919D01*
X60136Y-48815D01*
X59864Y-48814D01*
X59612Y-48918D01*
X59541Y-48990D01*
X59458Y-48990D01*
X59388Y-48919D01*
X59136Y-48815D01*
X58864Y-48814D01*
X58612Y-48918D01*
X58541Y-48990D01*
X58458Y-48990D01*
X58388Y-48919D01*
X58136Y-48815D01*
X57864Y-48814D01*
X57612Y-48918D01*
X57541Y-48990D01*
X57458Y-48990D01*
X57388Y-48919D01*
X57136Y-48815D01*
X56864Y-48814D01*
X56612Y-48918D01*
X56541Y-48990D01*
X56458Y-48990D01*
X56388Y-48919D01*
X56136Y-48815D01*
X55864Y-48814D01*
X55612Y-48918D01*
X55541Y-48990D01*
X55458Y-48990D01*
X55388Y-48919D01*
X55136Y-48815D01*
X54864Y-48814D01*
X54612Y-48918D01*
X54541Y-48990D01*
X54458Y-48990D01*
X54388Y-48919D01*
X54136Y-48815D01*
X53864Y-48814D01*
X53612Y-48918D01*
X53541Y-48990D01*
X53458Y-48990D01*
X53388Y-48919D01*
X53136Y-48815D01*
X52864Y-48814D01*
X52612Y-48918D01*
X52541Y-48990D01*
X52458Y-48990D01*
X52388Y-48919D01*
X52136Y-48815D01*
X51864Y-48814D01*
X51612Y-48918D01*
X51595Y-48936D01*
X51529Y-48869D01*
X51396Y-48815D01*
X51253Y-48814D01*
X50603Y-48814D01*
X50471Y-48869D01*
X50369Y-48970D01*
X50362Y-48990D01*
X49211Y-48990D01*
X48860Y-48639D01*
X48695Y-48528D01*
X48500Y-48490D01*
X48458Y-48490D01*
X48388Y-48419D01*
X48136Y-48315D01*
X47864Y-48314D01*
X47612Y-48418D01*
X47419Y-48611D01*
X47315Y-48863D01*
X47314Y-49135D01*
X47418Y-49387D01*
X47611Y-49580D01*
X47863Y-49684D01*
X48135Y-49685D01*
X48367Y-49589D01*
X48639Y-49860D01*
X48804Y-49971D01*
X48804Y-49971D01*
X49000Y-50010D01*
X50361Y-50010D01*
X50369Y-50028D01*
X50470Y-50130D01*
X50603Y-50184D01*
X50746Y-50185D01*
X51396Y-50185D01*
X51528Y-50130D01*
X51595Y-50064D01*
X51611Y-50080D01*
X51863Y-50184D01*
X52135Y-50185D01*
X52387Y-50081D01*
X52458Y-50010D01*
X52541Y-50010D01*
X52611Y-50080D01*
X52863Y-50184D01*
X53100Y-50185D01*
X53100Y-50834D01*
X52951Y-50982D01*
X52888Y-50919D01*
X52636Y-50815D01*
X52364Y-50814D01*
X52112Y-50918D01*
X51919Y-51111D01*
X51815Y-51363D01*
X51814Y-51635D01*
X51918Y-51887D01*
X52111Y-52080D01*
X52363Y-52184D01*
X52635Y-52185D01*
X52887Y-52081D01*
X53080Y-51888D01*
X53082Y-51883D01*
X53100Y-51880D01*
X53100Y-52500D01*
X53125Y-52627D01*
X53130Y-52653D01*
X53217Y-52782D01*
X53815Y-53380D01*
X53814Y-53635D01*
X53918Y-53887D01*
X54111Y-54080D01*
X54363Y-54184D01*
X54635Y-54185D01*
X54887Y-54081D01*
X55000Y-53968D01*
X55111Y-54080D01*
X55363Y-54184D01*
X55635Y-54185D01*
X55887Y-54081D01*
X56080Y-53888D01*
X56184Y-53636D01*
X56185Y-53364D01*
X56081Y-53112D01*
X55888Y-52919D01*
X55841Y-52900D01*
X57000Y-52900D01*
X57834Y-52900D01*
X58717Y-53782D01*
X58717Y-53782D01*
X58803Y-53840D01*
X58846Y-53869D01*
X58846Y-53869D01*
X58917Y-53883D01*
X58918Y-53887D01*
X59111Y-54080D01*
X59363Y-54184D01*
X59635Y-54185D01*
X59887Y-54081D01*
X60080Y-53888D01*
X60184Y-53636D01*
X60185Y-53364D01*
X60081Y-53112D01*
X59888Y-52919D01*
X59636Y-52815D01*
X59364Y-52814D01*
X59112Y-52918D01*
X59048Y-52982D01*
X58282Y-52217D01*
X58153Y-52130D01*
X58127Y-52125D01*
X58000Y-52100D01*
X57880Y-52100D01*
X57883Y-52082D01*
X57887Y-52081D01*
X58080Y-51888D01*
X58184Y-51636D01*
X58185Y-51364D01*
X58081Y-51112D01*
X57888Y-50919D01*
X57636Y-50815D01*
X57364Y-50814D01*
X57112Y-50918D01*
X56919Y-51111D01*
X56815Y-51363D01*
X56814Y-51635D01*
X56918Y-51887D01*
X56982Y-51951D01*
X56834Y-52100D01*
X55841Y-52100D01*
X55887Y-52081D01*
X56080Y-51888D01*
X56184Y-51636D01*
X56185Y-51364D01*
X56081Y-51112D01*
X55888Y-50919D01*
X55636Y-50815D01*
X55364Y-50814D01*
X55112Y-50918D01*
X54919Y-51111D01*
X54815Y-51363D01*
X54814Y-51635D01*
X54894Y-51829D01*
X53900Y-50834D01*
X53900Y-50184D01*
X54135Y-50185D01*
X54387Y-50081D01*
X54458Y-50010D01*
X54541Y-50010D01*
X54611Y-50080D01*
X54863Y-50184D01*
X55135Y-50185D01*
X55387Y-50081D01*
X55458Y-50010D01*
X55541Y-50010D01*
X55611Y-50080D01*
X55863Y-50184D01*
X56135Y-50185D01*
X56387Y-50081D01*
X56458Y-50010D01*
X56541Y-50010D01*
X56611Y-50080D01*
X56863Y-50184D01*
X57135Y-50185D01*
X57387Y-50081D01*
X57458Y-50010D01*
X57541Y-50010D01*
X57611Y-50080D01*
X57863Y-50184D01*
X58135Y-50185D01*
X58387Y-50081D01*
X58458Y-50010D01*
X58541Y-50010D01*
X58611Y-50080D01*
X58863Y-50184D01*
X59135Y-50185D01*
X59387Y-50081D01*
X59458Y-50010D01*
X59541Y-50010D01*
X59611Y-50080D01*
X59863Y-50184D01*
X60135Y-50185D01*
X60387Y-50081D01*
X60458Y-50010D01*
X60541Y-50010D01*
X60611Y-50080D01*
X60863Y-50184D01*
X61135Y-50185D01*
X61387Y-50081D01*
X61458Y-50010D01*
X61541Y-50010D01*
X61611Y-50080D01*
X61863Y-50184D01*
X61880Y-50184D01*
X61880Y-55739D01*
X61880Y-55739D01*
G37*
G54D28*
X61880Y-55739D02*
X61657Y-55517D01*
X61231Y-55340D01*
X60770Y-55339D01*
X60343Y-55516D01*
X60017Y-55842D01*
X59840Y-56268D01*
X59839Y-56729D01*
X60016Y-57156D01*
X60239Y-57380D01*
X59185Y-57380D01*
X59185Y-54864D01*
X59081Y-54612D01*
X58888Y-54419D01*
X58636Y-54315D01*
X58364Y-54314D01*
X58112Y-54418D01*
X57919Y-54611D01*
X57815Y-54863D01*
X57814Y-55135D01*
X57918Y-55387D01*
X58111Y-55580D01*
X58363Y-55684D01*
X58635Y-55685D01*
X58887Y-55581D01*
X59080Y-55388D01*
X59184Y-55136D01*
X59185Y-54864D01*
X59185Y-57380D01*
X56185Y-57380D01*
X56185Y-54864D01*
X56081Y-54612D01*
X55888Y-54419D01*
X55636Y-54315D01*
X55364Y-54314D01*
X55112Y-54418D01*
X54919Y-54611D01*
X54815Y-54863D01*
X54814Y-55135D01*
X54918Y-55387D01*
X55111Y-55580D01*
X55363Y-55684D01*
X55635Y-55685D01*
X55887Y-55581D01*
X56080Y-55388D01*
X56184Y-55136D01*
X56185Y-54864D01*
X56185Y-57380D01*
X54185Y-57380D01*
X54185Y-54864D01*
X54081Y-54612D01*
X53888Y-54419D01*
X53636Y-54315D01*
X53364Y-54314D01*
X53112Y-54418D01*
X52919Y-54611D01*
X52815Y-54863D01*
X52814Y-55135D01*
X52918Y-55387D01*
X53111Y-55580D01*
X53363Y-55684D01*
X53635Y-55685D01*
X53887Y-55581D01*
X54080Y-55388D01*
X54184Y-55136D01*
X54185Y-54864D01*
X54185Y-57380D01*
X51185Y-57380D01*
X51185Y-54864D01*
X51185Y-53364D01*
X51185Y-51364D01*
X51081Y-51112D01*
X50888Y-50919D01*
X50636Y-50815D01*
X50364Y-50814D01*
X50112Y-50918D01*
X49919Y-51111D01*
X49815Y-51363D01*
X49814Y-51635D01*
X49918Y-51887D01*
X50111Y-52080D01*
X50363Y-52184D01*
X50635Y-52185D01*
X50887Y-52081D01*
X51080Y-51888D01*
X51184Y-51636D01*
X51185Y-51364D01*
X51185Y-53364D01*
X51081Y-53112D01*
X50888Y-52919D01*
X50636Y-52815D01*
X50364Y-52814D01*
X50112Y-52918D01*
X49919Y-53111D01*
X49815Y-53363D01*
X49814Y-53635D01*
X49918Y-53887D01*
X50111Y-54080D01*
X50363Y-54184D01*
X50635Y-54185D01*
X50887Y-54081D01*
X51080Y-53888D01*
X51184Y-53636D01*
X51185Y-53364D01*
X51185Y-54864D01*
X51081Y-54612D01*
X50888Y-54419D01*
X50636Y-54315D01*
X50364Y-54314D01*
X50112Y-54418D01*
X49919Y-54611D01*
X49815Y-54863D01*
X49814Y-55135D01*
X49918Y-55387D01*
X50111Y-55580D01*
X50363Y-55684D01*
X50635Y-55685D01*
X50887Y-55581D01*
X51080Y-55388D01*
X51184Y-55136D01*
X51185Y-54864D01*
X51185Y-57380D01*
X48685Y-57380D01*
X48685Y-52064D01*
X48581Y-51812D01*
X48510Y-51741D01*
X48510Y-51500D01*
X48471Y-51304D01*
X48360Y-51139D01*
X48195Y-51028D01*
X48000Y-50990D01*
X47804Y-51028D01*
X47639Y-51139D01*
X47528Y-51304D01*
X47490Y-51500D01*
X47490Y-51741D01*
X47419Y-51811D01*
X47315Y-52063D01*
X47314Y-52335D01*
X47418Y-52587D01*
X47611Y-52780D01*
X47863Y-52884D01*
X48135Y-52885D01*
X48387Y-52781D01*
X48580Y-52588D01*
X48684Y-52336D01*
X48685Y-52064D01*
X48685Y-57380D01*
X45184Y-57380D01*
X45185Y-57253D01*
X45185Y-57036D01*
X46860Y-55360D01*
X46860Y-55360D01*
X46860Y-55360D01*
X46971Y-55195D01*
X46971Y-55195D01*
X47009Y-55000D01*
X47010Y-55000D01*
X47010Y-53500D01*
X46971Y-53304D01*
X46971Y-53304D01*
X46860Y-53139D01*
X45860Y-52139D01*
X45695Y-52028D01*
X45500Y-51990D01*
X43994Y-51990D01*
X43902Y-51898D01*
X43641Y-51790D01*
X43359Y-51789D01*
X43104Y-51895D01*
X43054Y-51844D01*
X42921Y-51790D01*
X42778Y-51789D01*
X42078Y-51789D01*
X42030Y-51809D01*
X41360Y-51139D01*
X41195Y-51028D01*
X41000Y-50990D01*
X40978Y-50990D01*
X41080Y-50888D01*
X41184Y-50636D01*
X41185Y-50364D01*
X41081Y-50112D01*
X40968Y-49999D01*
X41080Y-49888D01*
X41184Y-49636D01*
X41185Y-49364D01*
X41081Y-49112D01*
X40888Y-48919D01*
X40636Y-48815D01*
X40364Y-48814D01*
X40112Y-48918D01*
X39919Y-49111D01*
X39815Y-49363D01*
X39814Y-49635D01*
X39918Y-49887D01*
X40031Y-50000D01*
X39919Y-50111D01*
X39815Y-50363D01*
X39814Y-50635D01*
X39918Y-50887D01*
X40031Y-51000D01*
X39919Y-51111D01*
X39815Y-51363D01*
X39814Y-51635D01*
X39918Y-51887D01*
X40111Y-52080D01*
X40363Y-52184D01*
X40635Y-52185D01*
X40867Y-52089D01*
X41639Y-52860D01*
X41804Y-52971D01*
X41804Y-52971D01*
X41811Y-52972D01*
X41844Y-53053D01*
X41945Y-53155D01*
X42078Y-53209D01*
X42221Y-53210D01*
X42921Y-53210D01*
X43053Y-53155D01*
X43104Y-53104D01*
X43358Y-53209D01*
X43640Y-53210D01*
X43901Y-53102D01*
X43994Y-53010D01*
X45288Y-53010D01*
X45990Y-53711D01*
X45990Y-53818D01*
X45921Y-53790D01*
X45778Y-53789D01*
X45078Y-53789D01*
X44946Y-53844D01*
X44895Y-53895D01*
X44641Y-53790D01*
X44359Y-53789D01*
X44098Y-53897D01*
X44005Y-53990D01*
X41500Y-53990D01*
X40958Y-53990D01*
X40888Y-53919D01*
X40636Y-53815D01*
X40364Y-53814D01*
X40112Y-53918D01*
X39919Y-54111D01*
X39815Y-54363D01*
X39814Y-54635D01*
X39918Y-54887D01*
X40031Y-55000D01*
X39919Y-55111D01*
X39815Y-55363D01*
X39814Y-55635D01*
X39918Y-55887D01*
X40031Y-56000D01*
X39919Y-56111D01*
X39815Y-56363D01*
X39814Y-56635D01*
X39918Y-56887D01*
X40111Y-57080D01*
X40363Y-57184D01*
X40635Y-57185D01*
X40887Y-57081D01*
X41080Y-56888D01*
X41184Y-56636D01*
X41185Y-56364D01*
X41081Y-56112D01*
X40968Y-55999D01*
X41080Y-55888D01*
X41184Y-55636D01*
X41185Y-55364D01*
X41081Y-55112D01*
X40978Y-55010D01*
X41288Y-55010D01*
X41990Y-55711D01*
X41990Y-56541D01*
X41919Y-56611D01*
X41815Y-56863D01*
X41814Y-57135D01*
X41915Y-57380D01*
X36083Y-57380D01*
X36184Y-57136D01*
X36185Y-56864D01*
X36081Y-56612D01*
X36010Y-56541D01*
X36010Y-55711D01*
X36711Y-55010D01*
X37021Y-55010D01*
X36919Y-55111D01*
X36815Y-55363D01*
X36814Y-55635D01*
X36918Y-55887D01*
X37031Y-56000D01*
X36919Y-56111D01*
X36815Y-56363D01*
X36814Y-56635D01*
X36918Y-56887D01*
X37111Y-57080D01*
X37363Y-57184D01*
X37635Y-57185D01*
X37887Y-57081D01*
X37958Y-57010D01*
X38000Y-57010D01*
X38195Y-56971D01*
X38195Y-56971D01*
X38360Y-56860D01*
X39360Y-55860D01*
X39471Y-55695D01*
X39471Y-55695D01*
X39510Y-55500D01*
X39510Y-49211D01*
X40711Y-48010D01*
X42288Y-48010D01*
X42389Y-48110D01*
X42389Y-48110D01*
X42499Y-48184D01*
X42554Y-48221D01*
X42554Y-48221D01*
X42750Y-48260D01*
X42789Y-48260D01*
X42789Y-48921D01*
X42844Y-49053D01*
X42945Y-49155D01*
X43078Y-49209D01*
X43221Y-49210D01*
X43668Y-49210D01*
X43717Y-49282D01*
X43846Y-49369D01*
X44000Y-49400D01*
X44153Y-49369D01*
X44171Y-49357D01*
X44139Y-49389D01*
X44028Y-49554D01*
X43990Y-49750D01*
X43990Y-49826D01*
X43946Y-49844D01*
X43844Y-49945D01*
X43790Y-50078D01*
X43789Y-50221D01*
X43789Y-50921D01*
X43844Y-51053D01*
X43945Y-51155D01*
X44078Y-51209D01*
X44221Y-51210D01*
X44921Y-51210D01*
X45053Y-51155D01*
X45155Y-51054D01*
X45209Y-50921D01*
X45210Y-50778D01*
X45210Y-50078D01*
X45155Y-49946D01*
X45090Y-49881D01*
X46860Y-48110D01*
X46860Y-48110D01*
X46860Y-48110D01*
X48110Y-46860D01*
X49860Y-45110D01*
X49971Y-44945D01*
X49971Y-44945D01*
X50010Y-44750D01*
X50010Y-44000D01*
X50010Y-35211D01*
X50036Y-35185D01*
X50389Y-35185D01*
X50315Y-35363D01*
X50314Y-35635D01*
X50418Y-35887D01*
X50531Y-36000D01*
X50419Y-36111D01*
X50315Y-36363D01*
X50314Y-36635D01*
X50418Y-36887D01*
X50531Y-37000D01*
X50419Y-37111D01*
X50315Y-37363D01*
X50314Y-37635D01*
X50418Y-37887D01*
X50531Y-38000D01*
X50419Y-38111D01*
X50315Y-38363D01*
X50314Y-38635D01*
X50418Y-38887D01*
X50531Y-39000D01*
X50419Y-39111D01*
X50315Y-39363D01*
X50314Y-39635D01*
X50418Y-39887D01*
X50531Y-40000D01*
X50419Y-40111D01*
X50315Y-40363D01*
X50314Y-40635D01*
X50418Y-40887D01*
X50531Y-41000D01*
X50419Y-41111D01*
X50315Y-41363D01*
X50314Y-41635D01*
X50418Y-41887D01*
X50531Y-42000D01*
X50419Y-42111D01*
X50315Y-42363D01*
X50314Y-42635D01*
X50418Y-42887D01*
X50531Y-43000D01*
X50419Y-43111D01*
X50315Y-43363D01*
X50314Y-43635D01*
X50418Y-43887D01*
X50531Y-44000D01*
X50419Y-44111D01*
X50315Y-44363D01*
X50314Y-44635D01*
X50418Y-44887D01*
X50531Y-45000D01*
X50419Y-45111D01*
X50315Y-45363D01*
X50314Y-45635D01*
X50418Y-45887D01*
X50531Y-46000D01*
X50419Y-46111D01*
X50315Y-46363D01*
X50314Y-46635D01*
X50418Y-46887D01*
X50611Y-47080D01*
X50863Y-47184D01*
X51135Y-47185D01*
X51387Y-47081D01*
X51500Y-46968D01*
X51611Y-47080D01*
X51863Y-47184D01*
X52135Y-47185D01*
X52387Y-47081D01*
X52500Y-46968D01*
X52611Y-47080D01*
X52863Y-47184D01*
X53135Y-47185D01*
X53387Y-47081D01*
X53500Y-46968D01*
X53611Y-47080D01*
X53863Y-47184D01*
X54135Y-47185D01*
X54387Y-47081D01*
X54500Y-46968D01*
X54611Y-47080D01*
X54863Y-47184D01*
X55135Y-47185D01*
X55387Y-47081D01*
X55500Y-46968D01*
X55611Y-47080D01*
X55863Y-47184D01*
X56135Y-47185D01*
X56387Y-47081D01*
X56500Y-46968D01*
X56611Y-47080D01*
X56863Y-47184D01*
X57135Y-47185D01*
X57387Y-47081D01*
X57500Y-46968D01*
X57611Y-47080D01*
X57863Y-47184D01*
X58135Y-47185D01*
X58387Y-47081D01*
X58500Y-46968D01*
X58611Y-47080D01*
X58863Y-47184D01*
X59135Y-47185D01*
X59387Y-47081D01*
X59500Y-46968D01*
X59611Y-47080D01*
X59863Y-47184D01*
X60135Y-47185D01*
X60387Y-47081D01*
X60500Y-46968D01*
X60611Y-47080D01*
X60863Y-47184D01*
X61135Y-47185D01*
X61387Y-47081D01*
X61500Y-46968D01*
X61611Y-47080D01*
X61863Y-47184D01*
X61880Y-47184D01*
X61880Y-48814D01*
X61864Y-48814D01*
X61612Y-48918D01*
X61541Y-48990D01*
X61458Y-48990D01*
X61388Y-48919D01*
X61136Y-48815D01*
X60864Y-48814D01*
X60612Y-48918D01*
X60541Y-48990D01*
X60458Y-48990D01*
X60388Y-48919D01*
X60136Y-48815D01*
X59864Y-48814D01*
X59612Y-48918D01*
X59541Y-48990D01*
X59458Y-48990D01*
X59388Y-48919D01*
X59136Y-48815D01*
X58864Y-48814D01*
X58612Y-48918D01*
X58541Y-48990D01*
X58458Y-48990D01*
X58388Y-48919D01*
X58136Y-48815D01*
X57864Y-48814D01*
X57612Y-48918D01*
X57541Y-48990D01*
X57458Y-48990D01*
X57388Y-48919D01*
X57136Y-48815D01*
X56864Y-48814D01*
X56612Y-48918D01*
X56541Y-48990D01*
X56458Y-48990D01*
X56388Y-48919D01*
X56136Y-48815D01*
X55864Y-48814D01*
X55612Y-48918D01*
X55541Y-48990D01*
X55458Y-48990D01*
X55388Y-48919D01*
X55136Y-48815D01*
X54864Y-48814D01*
X54612Y-48918D01*
X54541Y-48990D01*
X54458Y-48990D01*
X54388Y-48919D01*
X54136Y-48815D01*
X53864Y-48814D01*
X53612Y-48918D01*
X53541Y-48990D01*
X53458Y-48990D01*
X53388Y-48919D01*
X53136Y-48815D01*
X52864Y-48814D01*
X52612Y-48918D01*
X52541Y-48990D01*
X52458Y-48990D01*
X52388Y-48919D01*
X52136Y-48815D01*
X51864Y-48814D01*
X51612Y-48918D01*
X51595Y-48936D01*
X51529Y-48869D01*
X51396Y-48815D01*
X51253Y-48814D01*
X50603Y-48814D01*
X50471Y-48869D01*
X50369Y-48970D01*
X50362Y-48990D01*
X49211Y-48990D01*
X48860Y-48639D01*
X48695Y-48528D01*
X48500Y-48490D01*
X48458Y-48490D01*
X48388Y-48419D01*
X48136Y-48315D01*
X47864Y-48314D01*
X47612Y-48418D01*
X47419Y-48611D01*
X47315Y-48863D01*
X47314Y-49135D01*
X47418Y-49387D01*
X47611Y-49580D01*
X47863Y-49684D01*
X48135Y-49685D01*
X48367Y-49589D01*
X48639Y-49860D01*
X48804Y-49971D01*
X48804Y-49971D01*
X49000Y-50010D01*
X50361Y-50010D01*
X50369Y-50028D01*
X50470Y-50130D01*
X50603Y-50184D01*
X50746Y-50185D01*
X51396Y-50185D01*
X51528Y-50130D01*
X51595Y-50064D01*
X51611Y-50080D01*
X51863Y-50184D01*
X52135Y-50185D01*
X52387Y-50081D01*
X52458Y-50010D01*
X52541Y-50010D01*
X52611Y-50080D01*
X52863Y-50184D01*
X53100Y-50185D01*
X53100Y-50834D01*
X52951Y-50982D01*
X52888Y-50919D01*
X52636Y-50815D01*
X52364Y-50814D01*
X52112Y-50918D01*
X51919Y-51111D01*
X51815Y-51363D01*
X51814Y-51635D01*
X51918Y-51887D01*
X52111Y-52080D01*
X52363Y-52184D01*
X52635Y-52185D01*
X52887Y-52081D01*
X53080Y-51888D01*
X53082Y-51883D01*
X53100Y-51880D01*
X53100Y-52500D01*
X53125Y-52627D01*
X53130Y-52653D01*
X53217Y-52782D01*
X53815Y-53380D01*
X53814Y-53635D01*
X53918Y-53887D01*
X54111Y-54080D01*
X54363Y-54184D01*
X54635Y-54185D01*
X54887Y-54081D01*
X55000Y-53968D01*
X55111Y-54080D01*
X55363Y-54184D01*
X55635Y-54185D01*
X55887Y-54081D01*
X56080Y-53888D01*
X56184Y-53636D01*
X56185Y-53364D01*
X56081Y-53112D01*
X55888Y-52919D01*
X55841Y-52900D01*
X57000Y-52900D01*
X57834Y-52900D01*
X58717Y-53782D01*
X58717Y-53782D01*
X58803Y-53840D01*
X58846Y-53869D01*
X58846Y-53869D01*
X58917Y-53883D01*
X58918Y-53887D01*
X59111Y-54080D01*
X59363Y-54184D01*
X59635Y-54185D01*
X59887Y-54081D01*
X60080Y-53888D01*
X60184Y-53636D01*
X60185Y-53364D01*
X60081Y-53112D01*
X59888Y-52919D01*
X59636Y-52815D01*
X59364Y-52814D01*
X59112Y-52918D01*
X59048Y-52982D01*
X58282Y-52217D01*
X58153Y-52130D01*
X58127Y-52125D01*
X58000Y-52100D01*
X57880Y-52100D01*
X57883Y-52082D01*
X57887Y-52081D01*
X58080Y-51888D01*
X58184Y-51636D01*
X58185Y-51364D01*
X58081Y-51112D01*
X57888Y-50919D01*
X57636Y-50815D01*
X57364Y-50814D01*
X57112Y-50918D01*
X56919Y-51111D01*
X56815Y-51363D01*
X56814Y-51635D01*
X56918Y-51887D01*
X56982Y-51951D01*
X56834Y-52100D01*
X55841Y-52100D01*
X55887Y-52081D01*
X56080Y-51888D01*
X56184Y-51636D01*
X56185Y-51364D01*
X56081Y-51112D01*
X55888Y-50919D01*
X55636Y-50815D01*
X55364Y-50814D01*
X55112Y-50918D01*
X54919Y-51111D01*
X54815Y-51363D01*
X54814Y-51635D01*
X54894Y-51829D01*
X53900Y-50834D01*
X53900Y-50184D01*
X54135Y-50185D01*
X54387Y-50081D01*
X54458Y-50010D01*
X54541Y-50010D01*
X54611Y-50080D01*
X54863Y-50184D01*
X55135Y-50185D01*
X55387Y-50081D01*
X55458Y-50010D01*
X55541Y-50010D01*
X55611Y-50080D01*
X55863Y-50184D01*
X56135Y-50185D01*
X56387Y-50081D01*
X56458Y-50010D01*
X56541Y-50010D01*
X56611Y-50080D01*
X56863Y-50184D01*
X57135Y-50185D01*
X57387Y-50081D01*
X57458Y-50010D01*
X57541Y-50010D01*
X57611Y-50080D01*
X57863Y-50184D01*
X58135Y-50185D01*
X58387Y-50081D01*
X58458Y-50010D01*
X58541Y-50010D01*
X58611Y-50080D01*
X58863Y-50184D01*
X59135Y-50185D01*
X59387Y-50081D01*
X59458Y-50010D01*
X59541Y-50010D01*
X59611Y-50080D01*
X59863Y-50184D01*
X60135Y-50185D01*
X60387Y-50081D01*
X60458Y-50010D01*
X60541Y-50010D01*
X60611Y-50080D01*
X60863Y-50184D01*
X61135Y-50185D01*
X61387Y-50081D01*
X61458Y-50010D01*
X61541Y-50010D01*
X61611Y-50080D01*
X61863Y-50184D01*
X61880Y-50184D01*
X61880Y-55739D01*
M02*
