M48
;DRILL file {Pcbnew (2013-07-07 BZR 4022)-stable} date Sun 20 Apr 2014 15:26:37 SAST
;FORMAT={-:-/ absolute / inch / decimal}
FMAT,2
INCH,TZ
T1C0.025
T2C0.030
T3C0.032
T4C0.040
T5C0.045
T6C0.047
T7C0.098
T8C0.118
T9C0.120
%
G90
G05
M72
T1
X2.8Y-4.275
X2.85Y-4.575
X2.9Y-4.625
X2.925Y-5.2
X3.15Y-4.7
X3.35Y-2.5
X3.425Y-3.175
X3.425Y-3.75
X3.5Y-4.4
X3.525Y-2.45
X4.2Y-2.675
X4.2Y-2.775
X4.3Y-3.65
X4.6Y-2.2
X4.65Y-2.175
X4.7Y-2.175
X4.9Y-2.95
X5.025Y-5.175
X5.1Y-3.15
X5.375Y-2.9
X9.5Y-1.5
X9.775Y-4.275
X9.85Y-5.65
X9.85Y-6.45
X9.9Y-4.425
X10.025Y-5.325
X10.025Y-5.95
X10.05Y-6.175
X10.075Y-5.325
X10.075Y-5.925
X10.125Y-5.35
X10.125Y-6.05
X10.175Y-1.725
X10.225Y-1.625
X10.25Y-6.25
X10.35Y-1.95
X10.375Y-1.475
X10.6Y-1.825
X10.625Y-1.25
X10.675Y-1.275
X10.725Y-1.275
X10.8Y-2.825
X10.825Y-1.35
X11.1Y-6.1
X11.45Y-5.75
X11.85Y-6.05
X12.05Y-6.05
T2
X4.1Y-3.35
X4.1Y-3.55
T3
X2.8Y-2.6
X2.8Y-2.9
X2.9Y-2.6
X2.9Y-2.9
X3.Y-2.6
X3.Y-2.9
X3.2Y-2.3
X3.2Y-2.4
X3.25Y-2.65
X3.25Y-2.75
X3.25Y-2.85
X3.25Y-2.95
X3.25Y-3.05
X3.25Y-3.15
X3.25Y-3.25
X3.25Y-3.35
X3.25Y-3.45
X3.25Y-3.55
X3.25Y-3.65
X3.25Y-3.75
X3.25Y-3.85
X3.25Y-3.95
X3.25Y-4.05
X3.25Y-4.15
X3.25Y-4.25
X3.25Y-4.35
X3.25Y-4.45
X3.25Y-4.55
X3.4Y-2.3
X3.5Y-2.4
X3.85Y-2.65
X3.85Y-2.75
X3.85Y-2.85
X3.85Y-2.95
X3.85Y-3.05
X3.85Y-3.15
X3.85Y-3.25
X3.85Y-3.35
X3.85Y-3.45
X3.85Y-3.55
X3.85Y-3.65
X3.85Y-3.75
X3.85Y-3.85
X3.85Y-3.95
X3.85Y-4.05
X3.85Y-4.15
X3.85Y-4.25
X3.85Y-4.35
X3.85Y-4.45
X3.85Y-4.55
X3.95Y-2.25
X3.95Y-2.35
X3.95Y-2.45
X4.05Y-2.25
X4.05Y-2.35
X4.05Y-2.45
X4.1Y-3.15
X4.15Y-2.35
X4.15Y-2.45
X4.3Y-3.15
X4.3Y-3.75
X4.3Y-4.05
X4.3Y-4.15
X4.3Y-4.45
X4.325Y-2.25
X4.325Y-2.55
X4.4Y-3.75
X4.4Y-4.05
X4.4Y-4.15
X4.4Y-4.45
X4.425Y-2.25
X4.425Y-2.55
X4.425Y-2.65
X4.45Y-2.35
X4.45Y-2.45
X4.625Y-2.65
X4.9Y-2.15
X4.9Y-2.35
X5.Y-2.15
X5.Y-2.35
X5.1Y-2.15
X5.1Y-2.25
X5.1Y-4.75
X5.2Y-4.75
X5.3Y-4.75
X5.4Y-2.15
X5.4Y-2.25
X5.4Y-4.75
X5.5Y-4.75
X5.6Y-4.75
X5.7Y-3.4
X5.7Y-4.75
X5.75Y-3.05
X5.75Y-3.15
X5.8Y-4.75
X5.9Y-4.75
X6.Y-3.4
X6.Y-4.75
X6.1Y-4.75
X6.2Y-4.75
T4
X2.5Y-3.25
X2.5Y-3.35
X2.5Y-3.45
X2.5Y-3.55
X2.5Y-3.65
X2.5Y-3.75
X2.5Y-3.95
X2.5Y-4.05
X2.5Y-4.15
X2.5Y-4.25
X2.5Y-4.35
X2.5Y-4.45
X2.5Y-4.75
X2.5Y-4.85
X2.5Y-4.95
X2.5Y-5.05
X2.5Y-5.15
X2.5Y-5.25
X2.5Y-5.35
X2.5Y-5.45
X2.6Y-2.4
X2.6Y-2.5
X2.6Y-2.6
X2.6Y-2.7
X2.6Y-2.8
X2.6Y-2.9
X2.6Y-3.25
X2.6Y-3.35
X2.6Y-3.45
X2.6Y-3.55
X2.6Y-3.65
X2.6Y-3.75
X2.6Y-3.95
X2.6Y-4.05
X2.6Y-4.15
X2.6Y-4.25
X2.6Y-4.35
X2.6Y-4.45
X2.6Y-4.75
X2.6Y-4.75
X2.6Y-4.85
X2.6Y-4.85
X2.6Y-4.95
X2.6Y-4.95
X2.6Y-5.05
X2.6Y-5.05
X2.6Y-5.15
X2.6Y-5.15
X2.6Y-5.25
X2.6Y-5.25
X2.6Y-5.35
X2.6Y-5.35
X2.6Y-5.45
X2.6Y-5.45
X2.7Y-3.05
X2.7Y-3.25
X2.7Y-3.25
X2.7Y-3.35
X2.7Y-3.35
X2.7Y-3.45
X2.7Y-3.45
X2.7Y-3.55
X2.7Y-3.55
X2.7Y-3.65
X2.7Y-3.65
X2.7Y-3.75
X2.7Y-3.75
X2.7Y-3.95
X2.7Y-3.95
X2.7Y-4.05
X2.7Y-4.05
X2.7Y-4.15
X2.7Y-4.15
X2.7Y-4.25
X2.7Y-4.25
X2.7Y-4.35
X2.7Y-4.35
X2.7Y-4.45
X2.7Y-4.45
X2.7Y-4.75
X2.7Y-4.75
X2.7Y-4.85
X2.7Y-4.85
X2.7Y-4.95
X2.7Y-4.95
X2.7Y-5.05
X2.7Y-5.05
X2.7Y-5.15
X2.7Y-5.15
X2.7Y-5.25
X2.7Y-5.25
X2.7Y-5.35
X2.7Y-5.35
X2.7Y-5.45
X2.7Y-5.45
X2.8Y-2.1
X2.8Y-2.4
X2.8Y-2.5
X2.9Y-3.05
X3.Y-2.1
X3.Y-2.4
X3.Y-2.5
X3.15Y-3.55
X3.15Y-3.75
X3.25Y-4.8
X3.25Y-4.9
X3.25Y-5.
X3.25Y-5.1
X3.25Y-5.2
X3.25Y-5.3
X3.3622Y-2.2024
X3.4606Y-2.2024
X3.5Y-5.05
X3.5Y-5.45
X3.5394Y-2.2024
X3.6Y-4.75
X3.6Y-5.05
X3.6Y-5.45
X3.6Y-5.7
X3.6378Y-2.2024
X3.7Y-4.85
X3.7Y-5.25
X3.7Y-5.7
X3.8Y-4.75
X3.8Y-4.85
X3.8Y-5.25
X3.8Y-5.7
X4.Y-4.95
X4.Y-5.05
X4.Y-5.15
X4.Y-5.25
X4.Y-5.35
X4.Y-5.45
X4.Y-5.55
X4.Y-5.65
X4.1Y-3.85
X4.1Y-4.05
X4.1Y-4.25
X4.1Y-4.45
X4.2Y-3.85
X4.2Y-4.05
X4.2Y-4.25
X4.2Y-4.45
X4.3Y-3.35
X4.3Y-3.55
X4.3Y-4.95
X4.3Y-5.05
X4.3Y-5.15
X4.3Y-5.25
X4.3Y-5.35
X4.3Y-5.45
X4.3Y-5.55
X4.3Y-5.65
X4.35Y-4.65
X4.35Y-4.75
X4.4Y-3.35
X4.4Y-3.45
X4.4Y-3.55
X4.5Y-4.85
X4.5Y-5.25
X4.5Y-5.7
X4.6Y-2.85
X4.6Y-2.85
X4.6Y-2.95
X4.6Y-2.95
X4.6Y-3.05
X4.6Y-3.05
X4.6Y-3.15
X4.6Y-3.15
X4.6Y-3.25
X4.6Y-3.25
X4.6Y-3.35
X4.6Y-3.35
X4.6Y-3.45
X4.6Y-3.45
X4.6Y-3.55
X4.6Y-3.55
X4.6Y-3.75
X4.6Y-3.75
X4.6Y-3.85
X4.6Y-3.85
X4.6Y-3.95
X4.6Y-3.95
X4.6Y-4.05
X4.6Y-4.05
X4.6Y-4.15
X4.6Y-4.15
X4.6Y-4.25
X4.6Y-4.25
X4.6Y-4.35
X4.6Y-4.35
X4.6Y-4.45
X4.6Y-4.45
X4.6Y-4.85
X4.6Y-5.25
X4.6Y-5.7
X4.7Y-2.85
X4.7Y-2.85
X4.7Y-2.95
X4.7Y-2.95
X4.7Y-3.05
X4.7Y-3.05
X4.7Y-3.15
X4.7Y-3.15
X4.7Y-3.25
X4.7Y-3.25
X4.7Y-3.35
X4.7Y-3.35
X4.7Y-3.45
X4.7Y-3.45
X4.7Y-3.55
X4.7Y-3.55
X4.7Y-3.75
X4.7Y-3.75
X4.7Y-3.85
X4.7Y-3.85
X4.7Y-3.95
X4.7Y-3.95
X4.7Y-4.05
X4.7Y-4.05
X4.7Y-4.15
X4.7Y-4.15
X4.7Y-4.25
X4.7Y-4.25
X4.7Y-4.35
X4.7Y-4.35
X4.7Y-4.45
X4.7Y-4.45
X4.7Y-4.65
X4.7Y-4.85
X4.7Y-5.05
X4.7Y-5.45
X4.7Y-5.7
X4.8Y-2.85
X4.8Y-2.95
X4.8Y-3.05
X4.8Y-3.15
X4.8Y-3.25
X4.8Y-3.35
X4.8Y-3.45
X4.8Y-3.55
X4.8Y-3.75
X4.8Y-3.85
X4.8Y-3.95
X4.8Y-4.05
X4.8Y-4.15
X4.8Y-4.25
X4.8Y-4.35
X4.8Y-4.45
X4.8Y-5.05
X4.8Y-5.45
X4.85Y-4.85
X4.85Y-4.95
X5.Y-2.55
X5.Y-2.65
X5.Y-2.75
X5.Y-2.95
X5.Y-3.05
X5.Y-3.15
X5.Y-3.25
X5.Y-3.35
X5.05Y-5.35
X5.05Y-5.5
X5.05Y-5.7
X5.1Y-3.55
X5.1Y-3.65
X5.1Y-3.75
X5.1Y-3.85
X5.1Y-3.95
X5.1Y-4.05
X5.1Y-4.15
X5.1Y-4.25
X5.1Y-4.35
X5.1Y-4.45
X5.1Y-4.55
X5.1Y-4.65
X5.1Y-4.85
X5.1Y-4.95
X5.2Y-3.55
X5.2Y-3.65
X5.2Y-3.75
X5.2Y-3.85
X5.2Y-3.95
X5.2Y-4.05
X5.2Y-4.15
X5.2Y-4.25
X5.2Y-4.35
X5.2Y-4.45
X5.2Y-4.55
X5.2Y-4.65
X5.2Y-4.85
X5.2Y-4.95
X5.25Y-2.5
X5.25Y-2.6
X5.25Y-2.75
X5.25Y-2.85
X5.25Y-5.25
X5.3Y-3.55
X5.3Y-3.65
X5.3Y-3.75
X5.3Y-3.85
X5.3Y-3.95
X5.3Y-4.05
X5.3Y-4.15
X5.3Y-4.25
X5.3Y-4.35
X5.3Y-4.45
X5.3Y-4.55
X5.3Y-4.65
X5.3Y-4.85
X5.3Y-4.95
X5.35Y-5.5
X5.35Y-5.7
X5.4Y-3.55
X5.4Y-3.65
X5.4Y-3.75
X5.4Y-3.85
X5.4Y-3.95
X5.4Y-4.05
X5.4Y-4.15
X5.4Y-4.25
X5.4Y-4.35
X5.4Y-4.45
X5.4Y-4.55
X5.4Y-4.65
X5.4Y-4.85
X5.4Y-4.95
X5.45Y-2.55
X5.45Y-5.25
X5.45Y-5.35
X5.5Y-2.75
X5.5Y-2.85
X5.5Y-3.05
X5.5Y-3.15
X5.5Y-3.4
X5.5Y-3.55
X5.5Y-3.65
X5.5Y-3.75
X5.5Y-3.85
X5.5Y-3.95
X5.5Y-4.05
X5.5Y-4.15
X5.5Y-4.25
X5.5Y-4.35
X5.5Y-4.45
X5.5Y-4.55
X5.5Y-4.65
X5.5Y-4.85
X5.5Y-4.95
X5.55Y-5.35
X5.55Y-5.5
X5.55Y-5.7
X5.6Y-3.4
X5.6Y-3.55
X5.6Y-3.65
X5.6Y-3.75
X5.6Y-3.85
X5.6Y-3.95
X5.6Y-4.05
X5.6Y-4.15
X5.6Y-4.25
X5.6Y-4.35
X5.6Y-4.45
X5.6Y-4.55
X5.6Y-4.65
X5.6Y-4.85
X5.6Y-4.95
X5.7Y-3.55
X5.7Y-3.65
X5.7Y-3.75
X5.7Y-3.85
X5.7Y-3.95
X5.7Y-4.05
X5.7Y-4.15
X5.7Y-4.25
X5.7Y-4.35
X5.7Y-4.45
X5.7Y-4.55
X5.7Y-4.65
X5.7Y-4.85
X5.7Y-4.95
X5.75Y-2.75
X5.75Y-2.85
X5.75Y-5.25
X5.8Y-3.55
X5.8Y-3.65
X5.8Y-3.75
X5.8Y-3.85
X5.8Y-3.95
X5.8Y-4.05
X5.8Y-4.15
X5.8Y-4.25
X5.8Y-4.35
X5.8Y-4.45
X5.8Y-4.55
X5.8Y-4.65
X5.8Y-4.85
X5.8Y-4.95
X5.85Y-2.55
X5.85Y-5.5
X5.85Y-5.7
X5.9Y-3.55
X5.9Y-3.65
X5.9Y-3.75
X5.9Y-3.85
X5.9Y-3.95
X5.9Y-4.05
X5.9Y-4.15
X5.9Y-4.25
X5.9Y-4.35
X5.9Y-4.45
X5.9Y-4.55
X5.9Y-4.65
X5.9Y-4.85
X5.9Y-4.95
X5.95Y-5.25
X5.95Y-5.35
X6.Y-3.55
X6.Y-3.65
X6.Y-3.75
X6.Y-3.85
X6.Y-3.95
X6.Y-4.05
X6.Y-4.15
X6.Y-4.25
X6.Y-4.35
X6.Y-4.45
X6.Y-4.55
X6.Y-4.65
X6.Y-4.85
X6.Y-4.95
X6.1Y-3.55
X6.1Y-3.65
X6.1Y-3.75
X6.1Y-3.85
X6.1Y-3.95
X6.1Y-4.05
X6.1Y-4.15
X6.1Y-4.25
X6.1Y-4.35
X6.1Y-4.45
X6.1Y-4.55
X6.1Y-4.65
X6.1Y-4.85
X6.1Y-4.95
X6.2Y-3.55
X6.2Y-3.65
X6.2Y-3.75
X6.2Y-3.85
X6.2Y-3.95
X6.2Y-4.05
X6.2Y-4.15
X6.2Y-4.25
X6.2Y-4.35
X6.2Y-4.45
X6.2Y-4.55
X6.2Y-4.65
X6.2Y-4.85
X6.2Y-4.95
T5
X6.Y-2.55
X6.Y-2.65
X6.Y-2.75
X6.Y-3.05
X6.Y-3.15
X6.Y-3.25
T6
X3.4114Y-2.1
X3.5886Y-2.1
T7
X3.2697Y-2.1
X3.7303Y-2.1
T8
X5.515Y-2.276
X5.7Y-2.1579
X5.7Y-2.3941
T9
X2.6Y-2.15
X2.6Y-5.65
X6.1Y-2.15
X6.1Y-5.65
T0
M30
