G04 (created by PCBNEW (2013-07-07 BZR 4022)-stable) date 2/12/2014 8:02:26 PM*
%MOIN*%
G04 Gerber Fmt 3.4, Leading zero omitted, Abs format*
%FSLAX34Y34*%
G01*
G70*
G90*
G04 APERTURE LIST*
%ADD10C,0.00590551*%
%ADD11C,0.065*%
%ADD12R,0.065X0.065*%
%ADD13C,0.056*%
%ADD14R,0.1378X0.1378*%
%ADD15C,0.07*%
%ADD16R,0.07X0.07*%
%ADD17C,0.16*%
%ADD18R,0.06X0.0787402*%
%ADD19C,0.145669*%
%ADD20C,0.0511811*%
%ADD21C,0.035*%
%ADD22C,0.008*%
%ADD23C,0.03*%
%ADD24C,0.024*%
G04 APERTURE END LIST*
G54D10*
G54D11*
X50500Y-55000D03*
X50500Y-57000D03*
X53500Y-57000D03*
X53500Y-55000D03*
X55500Y-55000D03*
X55500Y-57000D03*
X58500Y-57000D03*
X58500Y-55000D03*
X26000Y-26500D03*
X28000Y-26500D03*
X28000Y-23500D03*
X26000Y-23500D03*
G54D12*
X38500Y-24500D03*
G54D11*
X38500Y-25500D03*
X38500Y-26500D03*
X38500Y-27500D03*
X38500Y-28500D03*
X38500Y-29500D03*
G54D12*
X49500Y-31500D03*
G54D11*
X49500Y-30500D03*
X49500Y-29500D03*
X49500Y-28500D03*
X49500Y-27500D03*
G54D12*
X34500Y-47000D03*
G54D11*
X33500Y-47000D03*
X32500Y-47000D03*
G54D12*
X45500Y-47000D03*
G54D11*
X44500Y-47000D03*
X43500Y-47000D03*
G54D12*
X44500Y-57000D03*
G54D11*
X43500Y-57000D03*
X42500Y-57000D03*
G54D12*
X33500Y-57000D03*
G54D11*
X34500Y-57000D03*
X35500Y-57000D03*
G54D12*
X48000Y-25500D03*
G54D11*
X48000Y-26500D03*
X48000Y-27500D03*
X44000Y-43500D03*
X44000Y-39500D03*
X38000Y-43500D03*
X38000Y-39500D03*
X54500Y-53500D03*
X50500Y-53500D03*
X59500Y-53500D03*
X55500Y-53500D03*
X30000Y-31500D03*
X30000Y-27500D03*
X26000Y-31500D03*
X26000Y-27500D03*
X28000Y-31500D03*
X28000Y-27500D03*
X57500Y-26000D03*
X61500Y-26000D03*
X40000Y-43500D03*
X40000Y-39500D03*
X42000Y-43500D03*
X42000Y-39500D03*
X44000Y-45500D03*
X44000Y-44500D03*
X55500Y-26000D03*
X56500Y-26000D03*
X38000Y-45500D03*
X38000Y-44500D03*
X40000Y-45500D03*
X40000Y-44500D03*
X42000Y-45500D03*
X42000Y-44500D03*
G54D13*
X37500Y-36500D03*
X37500Y-34500D03*
G54D12*
X32000Y-25500D03*
G54D11*
X32000Y-26500D03*
X32000Y-27500D03*
X32000Y-28500D03*
X32000Y-29500D03*
X32000Y-30500D03*
X32000Y-31500D03*
X32000Y-32500D03*
X32000Y-33500D03*
X32000Y-34500D03*
X32000Y-35500D03*
X32000Y-36500D03*
X32000Y-37500D03*
X32000Y-38500D03*
X32000Y-39500D03*
X32000Y-40500D03*
X32000Y-41500D03*
X32000Y-42500D03*
X32000Y-43500D03*
X32000Y-44500D03*
X35000Y-44500D03*
X35000Y-43500D03*
X35000Y-42500D03*
X35000Y-41500D03*
X35000Y-40500D03*
X35000Y-39500D03*
X35000Y-38500D03*
X35000Y-37500D03*
X35000Y-36500D03*
X35000Y-35500D03*
X35000Y-34500D03*
X35000Y-33500D03*
X35000Y-32500D03*
X35000Y-31500D03*
X35000Y-30500D03*
X35000Y-29500D03*
X35000Y-28500D03*
X35000Y-27500D03*
X35000Y-26500D03*
X35000Y-25500D03*
G54D12*
X37500Y-49500D03*
G54D11*
X37500Y-50500D03*
X37500Y-51500D03*
X37500Y-52500D03*
X37500Y-53500D03*
X37500Y-54500D03*
X37500Y-55500D03*
X37500Y-56500D03*
X40500Y-56500D03*
X40500Y-55500D03*
X40500Y-54500D03*
X40500Y-53500D03*
X40500Y-52500D03*
X40500Y-51500D03*
X40500Y-50500D03*
X40500Y-49500D03*
X36500Y-30500D03*
X36500Y-32500D03*
X31000Y-42500D03*
X31000Y-44500D03*
X30000Y-26500D03*
X30000Y-24500D03*
X48000Y-50200D03*
X48000Y-52200D03*
X30500Y-36500D03*
X30500Y-34500D03*
X57500Y-51500D03*
X55500Y-51500D03*
X52500Y-51500D03*
X50500Y-51500D03*
X56500Y-21500D03*
X56500Y-23500D03*
G54D12*
X48000Y-47750D03*
G54D11*
X48000Y-48750D03*
G54D12*
X30750Y-51500D03*
G54D11*
X30750Y-50500D03*
G54D12*
X48000Y-24000D03*
G54D11*
X48000Y-23000D03*
G54D12*
X52000Y-21500D03*
G54D11*
X52000Y-22500D03*
G54D12*
X46000Y-24000D03*
G54D11*
X46000Y-23000D03*
G54D12*
X52000Y-24500D03*
G54D11*
X52000Y-23500D03*
G54D12*
X54500Y-24500D03*
G54D11*
X54500Y-23500D03*
X40000Y-33500D03*
X40000Y-34500D03*
X40000Y-37500D03*
X40000Y-36500D03*
G54D14*
X42250Y-23691D03*
X42250Y-21329D03*
X40400Y-22510D03*
G54D11*
X26000Y-54500D03*
X26000Y-53500D03*
X26000Y-52500D03*
X26000Y-51500D03*
X26000Y-50500D03*
X26000Y-49500D03*
X26000Y-48500D03*
G54D12*
X26000Y-47500D03*
X26000Y-47500D03*
G54D11*
X26000Y-48500D03*
X26000Y-49500D03*
X26000Y-50500D03*
X26000Y-51500D03*
X26000Y-52500D03*
X26000Y-53500D03*
X26000Y-54500D03*
X27000Y-54500D03*
X27000Y-53500D03*
X27000Y-52500D03*
X27000Y-51500D03*
X27000Y-50500D03*
X27000Y-49500D03*
X27000Y-48500D03*
G54D12*
X27000Y-47500D03*
X25000Y-47500D03*
X27000Y-47500D03*
G54D11*
X25000Y-48500D03*
X27000Y-48500D03*
X25000Y-49500D03*
X27000Y-49500D03*
X25000Y-50500D03*
X27000Y-50500D03*
X25000Y-51500D03*
X27000Y-51500D03*
X25000Y-52500D03*
X27000Y-52500D03*
X25000Y-53500D03*
X27000Y-53500D03*
X25000Y-54500D03*
X27000Y-54500D03*
X56500Y-46500D03*
X56500Y-45500D03*
X56500Y-44500D03*
X56500Y-43500D03*
X56500Y-42500D03*
X56500Y-41500D03*
X56500Y-40500D03*
X56500Y-39500D03*
X56500Y-38500D03*
X56500Y-37500D03*
X56500Y-36500D03*
X56500Y-35500D03*
X56500Y-34500D03*
X56500Y-33500D03*
X56500Y-32500D03*
X56500Y-31500D03*
X56500Y-30500D03*
X56500Y-29500D03*
X56500Y-28500D03*
X56500Y-27500D03*
X57500Y-46500D03*
X57500Y-45500D03*
X57500Y-44500D03*
X57500Y-43500D03*
X57500Y-42500D03*
X57500Y-41500D03*
X57500Y-40500D03*
X57500Y-39500D03*
X57500Y-38500D03*
X57500Y-37500D03*
X57500Y-36500D03*
X57500Y-35500D03*
X57500Y-34500D03*
X57500Y-33500D03*
X57500Y-32500D03*
X57500Y-31500D03*
X57500Y-30500D03*
X57500Y-29500D03*
X57500Y-28500D03*
X57500Y-27500D03*
X61500Y-46500D03*
X61500Y-45500D03*
X61500Y-44500D03*
X61500Y-43500D03*
X61500Y-42500D03*
X61500Y-41500D03*
X61500Y-40500D03*
X61500Y-39500D03*
X61500Y-38500D03*
X61500Y-37500D03*
X61500Y-36500D03*
X61500Y-35500D03*
X61500Y-34500D03*
X61500Y-33500D03*
X61500Y-32500D03*
X61500Y-31500D03*
X61500Y-30500D03*
X61500Y-29500D03*
X61500Y-28500D03*
X61500Y-27500D03*
X58500Y-46500D03*
X58500Y-45500D03*
X58500Y-44500D03*
X58500Y-43500D03*
X58500Y-42500D03*
X58500Y-41500D03*
X58500Y-40500D03*
X58500Y-39500D03*
X58500Y-38500D03*
X58500Y-37500D03*
X58500Y-36500D03*
X58500Y-35500D03*
X58500Y-34500D03*
X58500Y-33500D03*
X58500Y-32500D03*
X58500Y-31500D03*
X58500Y-30500D03*
X58500Y-29500D03*
X58500Y-28500D03*
X58500Y-27500D03*
X59500Y-46500D03*
X59500Y-45500D03*
X59500Y-44500D03*
X59500Y-43500D03*
X59500Y-42500D03*
X59500Y-41500D03*
X59500Y-40500D03*
X59500Y-39500D03*
X59500Y-38500D03*
X59500Y-37500D03*
X59500Y-36500D03*
X59500Y-35500D03*
X59500Y-34500D03*
X59500Y-33500D03*
X59500Y-32500D03*
X59500Y-31500D03*
X59500Y-30500D03*
X59500Y-29500D03*
X59500Y-28500D03*
X59500Y-27500D03*
X60500Y-46500D03*
X60500Y-45500D03*
X60500Y-44500D03*
X60500Y-43500D03*
X60500Y-42500D03*
X60500Y-41500D03*
X60500Y-40500D03*
X60500Y-39500D03*
X60500Y-38500D03*
X60500Y-37500D03*
X60500Y-36500D03*
X60500Y-35500D03*
X60500Y-34500D03*
X60500Y-33500D03*
X60500Y-32500D03*
X60500Y-31500D03*
X60500Y-30500D03*
X60500Y-29500D03*
X60500Y-28500D03*
X60500Y-27500D03*
G54D12*
X50500Y-48000D03*
G54D11*
X51500Y-48000D03*
X52500Y-48000D03*
X53500Y-48000D03*
X54500Y-48000D03*
X55500Y-48000D03*
X56500Y-48000D03*
X57500Y-48000D03*
X58500Y-48000D03*
X59500Y-48000D03*
X60500Y-48000D03*
X61500Y-48000D03*
X50500Y-46500D03*
X50500Y-45500D03*
X50500Y-44500D03*
X50500Y-43500D03*
X50500Y-42500D03*
X50500Y-41500D03*
X50500Y-40500D03*
X50500Y-39500D03*
X50500Y-38500D03*
X50500Y-37500D03*
X50500Y-36500D03*
X50500Y-35500D03*
X50500Y-34500D03*
X50500Y-33500D03*
X50500Y-32500D03*
X50500Y-31500D03*
X50500Y-30500D03*
X50500Y-29500D03*
X50500Y-28500D03*
X50500Y-27500D03*
X51500Y-46500D03*
X51500Y-45500D03*
X51500Y-44500D03*
X51500Y-43500D03*
X51500Y-42500D03*
X51500Y-41500D03*
X51500Y-40500D03*
X51500Y-39500D03*
X51500Y-38500D03*
X51500Y-37500D03*
X51500Y-36500D03*
X51500Y-35500D03*
X51500Y-34500D03*
X51500Y-33500D03*
X51500Y-32500D03*
X51500Y-31500D03*
X51500Y-30500D03*
X51500Y-29500D03*
X51500Y-28500D03*
X51500Y-27500D03*
X55500Y-46500D03*
X55500Y-45500D03*
X55500Y-44500D03*
X55500Y-43500D03*
X55500Y-42500D03*
X55500Y-41500D03*
X55500Y-40500D03*
X55500Y-39500D03*
X55500Y-38500D03*
X55500Y-37500D03*
X55500Y-36500D03*
X55500Y-35500D03*
X55500Y-34500D03*
X55500Y-33500D03*
X55500Y-32500D03*
X55500Y-31500D03*
X55500Y-30500D03*
X55500Y-29500D03*
X55500Y-28500D03*
X55500Y-27500D03*
X53500Y-46500D03*
X53500Y-45500D03*
X53500Y-44500D03*
X53500Y-43500D03*
X53500Y-42500D03*
X53500Y-41500D03*
X53500Y-40500D03*
X53500Y-39500D03*
X53500Y-38500D03*
X53500Y-37500D03*
X53500Y-36500D03*
X53500Y-35500D03*
X53500Y-34500D03*
X53500Y-33500D03*
X53500Y-32500D03*
X53500Y-31500D03*
X53500Y-30500D03*
X53500Y-29500D03*
X53500Y-28500D03*
X53500Y-27500D03*
X54500Y-46500D03*
X54500Y-45500D03*
X54500Y-44500D03*
X54500Y-43500D03*
X54500Y-42500D03*
X54500Y-41500D03*
X54500Y-40500D03*
X54500Y-39500D03*
X54500Y-38500D03*
X54500Y-37500D03*
X54500Y-36500D03*
X54500Y-35500D03*
X54500Y-34500D03*
X54500Y-33500D03*
X54500Y-32500D03*
X54500Y-31500D03*
X54500Y-30500D03*
X54500Y-29500D03*
X54500Y-28500D03*
X54500Y-27500D03*
G54D12*
X50500Y-49000D03*
G54D11*
X51500Y-49000D03*
X52500Y-49000D03*
X53500Y-49000D03*
X54500Y-49000D03*
X55500Y-49000D03*
X56500Y-49000D03*
X57500Y-49000D03*
X58500Y-49000D03*
X59500Y-49000D03*
X60500Y-49000D03*
X61500Y-49000D03*
X47000Y-29000D03*
X47000Y-30000D03*
X47000Y-31000D03*
X47000Y-32000D03*
X47000Y-33000D03*
X47000Y-34000D03*
X47000Y-35000D03*
G54D12*
X47000Y-36000D03*
X47000Y-36000D03*
G54D11*
X47000Y-35000D03*
X47000Y-34000D03*
X47000Y-33000D03*
X47000Y-32000D03*
X47000Y-31000D03*
X47000Y-30000D03*
X47000Y-29000D03*
X46000Y-29000D03*
X46000Y-30000D03*
X46000Y-31000D03*
X46000Y-32000D03*
X46000Y-33000D03*
X46000Y-34000D03*
X46000Y-35000D03*
G54D12*
X46000Y-36000D03*
X48000Y-36000D03*
X46000Y-36000D03*
G54D11*
X48000Y-35000D03*
X46000Y-35000D03*
X48000Y-34000D03*
X46000Y-34000D03*
X48000Y-33000D03*
X46000Y-33000D03*
X48000Y-32000D03*
X46000Y-32000D03*
X48000Y-31000D03*
X46000Y-31000D03*
X48000Y-30000D03*
X46000Y-30000D03*
X48000Y-29000D03*
X46000Y-29000D03*
X47000Y-37500D03*
X47000Y-38500D03*
X47000Y-39500D03*
X47000Y-40500D03*
X47000Y-41500D03*
X47000Y-42500D03*
X47000Y-43500D03*
G54D12*
X47000Y-44500D03*
X47000Y-44500D03*
G54D11*
X47000Y-43500D03*
X47000Y-42500D03*
X47000Y-41500D03*
X47000Y-40500D03*
X47000Y-39500D03*
X47000Y-38500D03*
X47000Y-37500D03*
X46000Y-37500D03*
X46000Y-38500D03*
X46000Y-39500D03*
X46000Y-40500D03*
X46000Y-41500D03*
X46000Y-42500D03*
X46000Y-43500D03*
G54D12*
X46000Y-44500D03*
X48000Y-44500D03*
X46000Y-44500D03*
G54D11*
X48000Y-43500D03*
X46000Y-43500D03*
X48000Y-42500D03*
X46000Y-42500D03*
X48000Y-41500D03*
X46000Y-41500D03*
X48000Y-40500D03*
X46000Y-40500D03*
X48000Y-39500D03*
X46000Y-39500D03*
X48000Y-38500D03*
X46000Y-38500D03*
X48000Y-37500D03*
X46000Y-37500D03*
G54D12*
X26000Y-32500D03*
G54D11*
X26000Y-33500D03*
X26000Y-34500D03*
X26000Y-35500D03*
X26000Y-36500D03*
X26000Y-37500D03*
X27000Y-37500D03*
X27000Y-36500D03*
X27000Y-35500D03*
X27000Y-34500D03*
X27000Y-33500D03*
G54D12*
X27000Y-32500D03*
X25000Y-32500D03*
X27000Y-32500D03*
G54D11*
X25000Y-33500D03*
X27000Y-33500D03*
X25000Y-34500D03*
X27000Y-34500D03*
X25000Y-35500D03*
X27000Y-35500D03*
X25000Y-36500D03*
X27000Y-36500D03*
X25000Y-37500D03*
X27000Y-37500D03*
G54D12*
X26000Y-39500D03*
G54D11*
X26000Y-40500D03*
X26000Y-41500D03*
X26000Y-42500D03*
X26000Y-43500D03*
X26000Y-44500D03*
X27000Y-44500D03*
X27000Y-43500D03*
X27000Y-42500D03*
X27000Y-41500D03*
X27000Y-40500D03*
G54D12*
X27000Y-39500D03*
X25000Y-39500D03*
X27000Y-39500D03*
G54D11*
X25000Y-40500D03*
X27000Y-40500D03*
X25000Y-41500D03*
X27000Y-41500D03*
X25000Y-42500D03*
X27000Y-42500D03*
X25000Y-43500D03*
X27000Y-43500D03*
X25000Y-44500D03*
X27000Y-44500D03*
X52500Y-46500D03*
X52500Y-45500D03*
X52500Y-44500D03*
X52500Y-43500D03*
X52500Y-42500D03*
X52500Y-41500D03*
X52500Y-40500D03*
X52500Y-39500D03*
X52500Y-38500D03*
X52500Y-37500D03*
X52500Y-36500D03*
X52500Y-35500D03*
X52500Y-34500D03*
X52500Y-33500D03*
X52500Y-32500D03*
X52500Y-31500D03*
X52500Y-30500D03*
X52500Y-29500D03*
X52500Y-28500D03*
X52500Y-27500D03*
G54D15*
X58500Y-21500D03*
G54D16*
X58500Y-22500D03*
G54D15*
X58500Y-23500D03*
X35500Y-48500D03*
G54D16*
X35500Y-52500D03*
G54D15*
X45500Y-50500D03*
G54D16*
X45500Y-54500D03*
G54D15*
X42500Y-48500D03*
G54D16*
X42500Y-52500D03*
G54D15*
X44500Y-54500D03*
G54D16*
X44500Y-50500D03*
G54D15*
X43500Y-52500D03*
G54D16*
X43500Y-48500D03*
G54D15*
X32500Y-50500D03*
G54D16*
X32500Y-54500D03*
G54D15*
X33500Y-54500D03*
G54D16*
X33500Y-50500D03*
G54D15*
X34500Y-52500D03*
G54D16*
X34500Y-48500D03*
G54D15*
X46000Y-21500D03*
G54D16*
X50000Y-21500D03*
G54D17*
X26000Y-21500D03*
X26000Y-56500D03*
X61000Y-56500D03*
X61000Y-21500D03*
G54D18*
X34877Y-22023D03*
X33893Y-22023D03*
X33106Y-22023D03*
X32122Y-22023D03*
G54D19*
X35803Y-21000D03*
X31196Y-21000D03*
G54D20*
X34385Y-21000D03*
X32614Y-21000D03*
G54D12*
X37000Y-39000D03*
G54D21*
X28000Y-42750D03*
X30500Y-40750D03*
X29750Y-38500D03*
X30250Y-38500D03*
X31000Y-40750D03*
X30250Y-46500D03*
X30250Y-47250D03*
X34250Y-23000D03*
X41250Y-29500D03*
X29000Y-27750D03*
X34500Y-23500D03*
X37000Y-25000D03*
X39500Y-24500D03*
X31500Y-48500D03*
G54D22*
X44000Y-49000D02*
X44000Y-49000D01*
X32000Y-26500D02*
X31750Y-26500D01*
X27750Y-38750D02*
X27000Y-39500D01*
X27750Y-32500D02*
X27750Y-38750D01*
X28500Y-31750D02*
X27750Y-32500D01*
X28500Y-29750D02*
X28500Y-31750D01*
X31750Y-26500D02*
X28500Y-29750D01*
X27000Y-39500D02*
X26000Y-39500D01*
X26000Y-39500D02*
X25000Y-39500D01*
X27000Y-40500D02*
X27500Y-40500D01*
X31250Y-27500D02*
X32000Y-27500D01*
X28750Y-30000D02*
X31250Y-27500D01*
X28750Y-31750D02*
X28750Y-30000D01*
X28000Y-32500D02*
X28750Y-31750D01*
X28000Y-40000D02*
X28000Y-32500D01*
X27500Y-40500D02*
X28000Y-40000D01*
X26000Y-40500D02*
X27000Y-40500D01*
X25000Y-40500D02*
X26000Y-40500D01*
X32000Y-28500D02*
X31250Y-28500D01*
X27500Y-41500D02*
X27000Y-41500D01*
X28250Y-40750D02*
X27500Y-41500D01*
X28250Y-32500D02*
X28250Y-40750D01*
X29000Y-31750D02*
X28250Y-32500D01*
X29000Y-30250D02*
X29000Y-31750D01*
X30750Y-28500D02*
X29000Y-30250D01*
X31250Y-28500D02*
X30750Y-28500D01*
X26000Y-41500D02*
X27000Y-41500D01*
X26000Y-41500D02*
X25000Y-41500D01*
X27000Y-42500D02*
X27500Y-42500D01*
X30250Y-29500D02*
X32000Y-29500D01*
X29250Y-30500D02*
X30250Y-29500D01*
X29250Y-31750D02*
X29250Y-30500D01*
X28500Y-32500D02*
X29250Y-31750D01*
X28500Y-41500D02*
X28500Y-32500D01*
X27500Y-42500D02*
X28500Y-41500D01*
X26000Y-42500D02*
X27000Y-42500D01*
X25000Y-42500D02*
X26000Y-42500D01*
X32000Y-31500D02*
X31000Y-31500D01*
X28000Y-43500D02*
X27000Y-43500D01*
X29000Y-42500D02*
X28000Y-43500D01*
X29000Y-33500D02*
X29000Y-42500D01*
X31000Y-31500D02*
X29000Y-33500D01*
X27000Y-43500D02*
X26000Y-43500D01*
X26000Y-43500D02*
X25000Y-43500D01*
X27000Y-44500D02*
X27500Y-44500D01*
X30500Y-32500D02*
X32000Y-32500D01*
X29250Y-33750D02*
X30500Y-32500D01*
X29250Y-42750D02*
X29250Y-33750D01*
X27500Y-44500D02*
X29250Y-42750D01*
X26000Y-44500D02*
X27000Y-44500D01*
X25000Y-44500D02*
X26000Y-44500D01*
X26000Y-47500D02*
X27000Y-47500D01*
X25000Y-47500D02*
X26000Y-47500D01*
X32000Y-39500D02*
X30000Y-39500D01*
X30000Y-39500D02*
X29500Y-40000D01*
X29500Y-40000D02*
X29500Y-43000D01*
X29500Y-43000D02*
X28000Y-44500D01*
X28000Y-44500D02*
X28000Y-47000D01*
X28000Y-47000D02*
X27500Y-47500D01*
X27500Y-47500D02*
X27000Y-47500D01*
X27000Y-48500D02*
X27500Y-48500D01*
X31250Y-39750D02*
X32000Y-40500D01*
X30250Y-39750D02*
X31250Y-39750D01*
X29750Y-40250D02*
X30250Y-39750D01*
X29750Y-43250D02*
X29750Y-40250D01*
X28250Y-44750D02*
X29750Y-43250D01*
X28250Y-47750D02*
X28250Y-44750D01*
X27500Y-48500D02*
X28250Y-47750D01*
X26000Y-48500D02*
X27000Y-48500D01*
X25000Y-48500D02*
X26000Y-48500D01*
X26000Y-49500D02*
X27000Y-49500D01*
X25000Y-49500D02*
X26000Y-49500D01*
X32000Y-41500D02*
X32000Y-41250D01*
X32000Y-41250D02*
X31500Y-40750D01*
X31500Y-40750D02*
X30750Y-40000D01*
X30750Y-40000D02*
X30500Y-40000D01*
X30500Y-40000D02*
X30000Y-40500D01*
X30000Y-40500D02*
X30000Y-43500D01*
X30000Y-43500D02*
X28500Y-45000D01*
X28500Y-45000D02*
X28500Y-48500D01*
X28500Y-48500D02*
X27500Y-49500D01*
X27500Y-49500D02*
X27000Y-49500D01*
X32000Y-30500D02*
X30000Y-30500D01*
X28750Y-42000D02*
X28000Y-42750D01*
X28750Y-32500D02*
X28750Y-42000D01*
X29500Y-31750D02*
X28750Y-32500D01*
X29500Y-31000D02*
X29500Y-31750D01*
X30000Y-30500D02*
X29500Y-31000D01*
X32000Y-33500D02*
X30250Y-33500D01*
X27500Y-51500D02*
X27000Y-51500D01*
X28750Y-50250D02*
X27500Y-51500D01*
X28750Y-45250D02*
X28750Y-50250D01*
X30250Y-43750D02*
X28750Y-45250D01*
X30250Y-41000D02*
X30250Y-43750D01*
X30500Y-40750D02*
X30250Y-41000D01*
X29500Y-38250D02*
X29750Y-38500D01*
X29500Y-34250D02*
X29500Y-38250D01*
X30250Y-33500D02*
X29500Y-34250D01*
X25000Y-51500D02*
X26000Y-51500D01*
X26000Y-51500D02*
X27000Y-51500D01*
X27000Y-52500D02*
X27500Y-52500D01*
X31500Y-34000D02*
X32000Y-34500D01*
X30250Y-34000D02*
X31500Y-34000D01*
X29750Y-34500D02*
X30250Y-34000D01*
X29750Y-38000D02*
X29750Y-34500D01*
X30250Y-38500D02*
X29750Y-38000D01*
X30500Y-41250D02*
X31000Y-40750D01*
X30500Y-43750D02*
X30500Y-41250D01*
X29000Y-45250D02*
X30500Y-43750D01*
X29000Y-51000D02*
X29000Y-45250D01*
X27500Y-52500D02*
X29000Y-51000D01*
X26000Y-52500D02*
X25000Y-52500D01*
X27000Y-52500D02*
X26000Y-52500D01*
X27000Y-53500D02*
X27500Y-53500D01*
X29500Y-47250D02*
X30250Y-46500D01*
X29500Y-51500D02*
X29500Y-47250D01*
X27500Y-53500D02*
X29500Y-51500D01*
X26000Y-53500D02*
X27000Y-53500D01*
X25000Y-53500D02*
X26000Y-53500D01*
X25000Y-54500D02*
X26000Y-54500D01*
X26000Y-54500D02*
X27000Y-54500D01*
X27250Y-54500D02*
X27000Y-54500D01*
X30250Y-51500D02*
X27250Y-54500D01*
X30250Y-47250D02*
X30250Y-51500D01*
X46000Y-36000D02*
X44500Y-34500D01*
X35500Y-33000D02*
X35000Y-32500D01*
X37000Y-33000D02*
X35500Y-33000D01*
X37750Y-32250D02*
X37000Y-33000D01*
X43750Y-32250D02*
X37750Y-32250D01*
X44500Y-33000D02*
X43750Y-32250D01*
X44500Y-34500D02*
X44500Y-33000D01*
X35000Y-31500D02*
X36250Y-31500D01*
X44750Y-33750D02*
X46000Y-35000D01*
X44750Y-32750D02*
X44750Y-33750D01*
X44000Y-32000D02*
X44750Y-32750D01*
X36750Y-32000D02*
X44000Y-32000D01*
X36250Y-31500D02*
X36750Y-32000D01*
X46000Y-34000D02*
X45000Y-33000D01*
X35750Y-30500D02*
X35000Y-30500D01*
X37000Y-31750D02*
X35750Y-30500D01*
X44500Y-31750D02*
X37000Y-31750D01*
X45000Y-32250D02*
X44500Y-31750D01*
X45000Y-33000D02*
X45000Y-32250D01*
X35000Y-29500D02*
X36500Y-29500D01*
X36500Y-29500D02*
X37250Y-30250D01*
X37250Y-30250D02*
X37250Y-30500D01*
X37250Y-30500D02*
X38250Y-31500D01*
X38250Y-31500D02*
X45000Y-31500D01*
X45000Y-31500D02*
X45250Y-31750D01*
X45250Y-31750D02*
X45250Y-32250D01*
X45250Y-32250D02*
X46000Y-33000D01*
X35000Y-28500D02*
X36750Y-28500D01*
X37500Y-29250D02*
X36750Y-28500D01*
X37500Y-30500D02*
X37500Y-29250D01*
X38250Y-31250D02*
X37500Y-30500D01*
X45250Y-31250D02*
X38250Y-31250D01*
X45250Y-31250D02*
X46000Y-32000D01*
X35000Y-27500D02*
X36500Y-27500D01*
X36500Y-27500D02*
X37750Y-28750D01*
X37750Y-28750D02*
X37750Y-30250D01*
X37750Y-30250D02*
X38500Y-31000D01*
X38500Y-31000D02*
X46000Y-31000D01*
X35000Y-26500D02*
X36500Y-26500D01*
X36500Y-26500D02*
X38500Y-28500D01*
X38500Y-28500D02*
X44500Y-28500D01*
X44500Y-28500D02*
X46000Y-30000D01*
X35000Y-25500D02*
X36500Y-25500D01*
X36500Y-25500D02*
X38500Y-27500D01*
X38500Y-27500D02*
X44500Y-27500D01*
X44500Y-27500D02*
X46000Y-29000D01*
X46000Y-44500D02*
X47000Y-44500D01*
X47000Y-44500D02*
X48000Y-44500D01*
X44000Y-45500D02*
X43500Y-46000D01*
X34750Y-46250D02*
X32000Y-43500D01*
X36250Y-46250D02*
X34750Y-46250D01*
X43250Y-46250D02*
X36250Y-46250D01*
X43500Y-46000D02*
X43250Y-46250D01*
X44000Y-45500D02*
X45000Y-45500D01*
X45000Y-45500D02*
X46000Y-44500D01*
X46000Y-43500D02*
X47000Y-43500D01*
X48000Y-43500D02*
X47000Y-43500D01*
X42000Y-45500D02*
X42750Y-45500D01*
X44500Y-45000D02*
X46000Y-43500D01*
X43250Y-45000D02*
X44500Y-45000D01*
X42750Y-45500D02*
X43250Y-45000D01*
X40000Y-45500D02*
X40500Y-45500D01*
X41750Y-42500D02*
X46000Y-42500D01*
X41000Y-43250D02*
X41750Y-42500D01*
X41000Y-45000D02*
X41000Y-43250D01*
X40500Y-45500D02*
X41000Y-45000D01*
X47000Y-42500D02*
X48000Y-42500D01*
X46000Y-42500D02*
X47000Y-42500D01*
X40000Y-45500D02*
X39500Y-46000D01*
X35000Y-45250D02*
X35000Y-44500D01*
X35750Y-46000D02*
X35000Y-45250D01*
X36500Y-46000D02*
X35750Y-46000D01*
X39500Y-46000D02*
X36500Y-46000D01*
X38000Y-45500D02*
X38500Y-45500D01*
X40250Y-41500D02*
X46000Y-41500D01*
X39000Y-42750D02*
X40250Y-41500D01*
X39000Y-45000D02*
X39000Y-42750D01*
X38500Y-45500D02*
X39000Y-45000D01*
X47000Y-41500D02*
X46000Y-41500D01*
X48000Y-41500D02*
X47000Y-41500D01*
X35000Y-43500D02*
X35500Y-44000D01*
X35500Y-44000D02*
X35500Y-45250D01*
X35500Y-45250D02*
X35750Y-45500D01*
X35750Y-45500D02*
X38000Y-45500D01*
X35000Y-38500D02*
X44500Y-38500D01*
X45250Y-39750D02*
X46000Y-40500D01*
X45250Y-39250D02*
X45250Y-39750D01*
X44500Y-38500D02*
X45250Y-39250D01*
X35000Y-37500D02*
X35250Y-37500D01*
X45000Y-38500D02*
X46000Y-39500D01*
X45000Y-37500D02*
X45000Y-38500D01*
X43500Y-36000D02*
X45000Y-37500D01*
X36750Y-36000D02*
X43500Y-36000D01*
X35250Y-37500D02*
X36750Y-36000D01*
X35000Y-36500D02*
X35500Y-36500D01*
X45250Y-37750D02*
X46000Y-38500D01*
X45250Y-37250D02*
X45250Y-37750D01*
X43750Y-35750D02*
X45250Y-37250D01*
X36250Y-35750D02*
X43750Y-35750D01*
X35500Y-36500D02*
X36250Y-35750D01*
X35000Y-35500D02*
X44000Y-35500D01*
X44000Y-35500D02*
X46000Y-37500D01*
X33500Y-33000D02*
X33500Y-23750D01*
X33500Y-33000D02*
X33500Y-40750D01*
X33500Y-40750D02*
X34250Y-41500D01*
X35000Y-41500D02*
X34250Y-41500D01*
X33500Y-23750D02*
X34250Y-23000D01*
X33250Y-23500D02*
X33250Y-23250D01*
X34250Y-42500D02*
X33250Y-41500D01*
X33250Y-41500D02*
X33250Y-23500D01*
X35000Y-42500D02*
X34250Y-42500D01*
X33893Y-22606D02*
X33893Y-22023D01*
X33250Y-23250D02*
X33893Y-22606D01*
X33893Y-22106D02*
X33893Y-22023D01*
X28000Y-26500D02*
X30000Y-26500D01*
G54D23*
X42250Y-21329D02*
X41581Y-21329D01*
X41581Y-21329D02*
X40400Y-22510D01*
X46000Y-23000D02*
X44329Y-21329D01*
X44329Y-21329D02*
X42250Y-21329D01*
X27000Y-30500D02*
X29000Y-28500D01*
X29000Y-28500D02*
X29000Y-27750D01*
X30000Y-24500D02*
X28250Y-24500D01*
X28250Y-24500D02*
X27000Y-25750D01*
X27000Y-25750D02*
X27000Y-30500D01*
X27000Y-30500D02*
X26000Y-31500D01*
X32122Y-22023D02*
X31476Y-22023D01*
X31476Y-22023D02*
X30000Y-23500D01*
X30000Y-23500D02*
X30000Y-24500D01*
X34000Y-24000D02*
X34500Y-23500D01*
X34000Y-32500D02*
X34000Y-24000D01*
G54D22*
X26000Y-31500D02*
X27000Y-30500D01*
X27000Y-25750D02*
X28250Y-24500D01*
X27000Y-30500D02*
X27000Y-25750D01*
G54D23*
X48000Y-23000D02*
X46000Y-23000D01*
X48000Y-48000D02*
X50500Y-48000D01*
X50500Y-48000D02*
X51500Y-48000D01*
X51500Y-48000D02*
X52500Y-48000D01*
X52500Y-48000D02*
X53500Y-48000D01*
X53500Y-48000D02*
X54500Y-48000D01*
X54500Y-48000D02*
X55500Y-48000D01*
X55500Y-48000D02*
X56500Y-48000D01*
X56500Y-48000D02*
X57500Y-48000D01*
X57500Y-48000D02*
X58500Y-48000D01*
X58500Y-48000D02*
X59500Y-48000D01*
X59500Y-48000D02*
X60500Y-48000D01*
X60500Y-48000D02*
X61500Y-48000D01*
X32500Y-50500D02*
X30750Y-50500D01*
G54D22*
X30000Y-24000D02*
X30000Y-23500D01*
X30000Y-24500D02*
X30000Y-24000D01*
X30000Y-23500D02*
X31476Y-22023D01*
X38500Y-26500D02*
X37000Y-25000D01*
G54D23*
X45500Y-50500D02*
X47700Y-50500D01*
X47700Y-50500D02*
X48000Y-50200D01*
X45500Y-50500D02*
X45500Y-49750D01*
X47250Y-48000D02*
X48000Y-48000D01*
X45500Y-49750D02*
X47250Y-48000D01*
G54D22*
X32500Y-50500D02*
X32250Y-50500D01*
X31000Y-49250D02*
X31000Y-44500D01*
X32250Y-50500D02*
X31000Y-49250D01*
G54D23*
X39500Y-24500D02*
X39500Y-25500D01*
X39500Y-25500D02*
X39500Y-26000D01*
X39500Y-26000D02*
X39000Y-26500D01*
X39000Y-26500D02*
X38500Y-26500D01*
G54D22*
X61500Y-48000D02*
X60500Y-48000D01*
X60500Y-48000D02*
X59500Y-48000D01*
X59500Y-48000D02*
X58500Y-48000D01*
X58500Y-48000D02*
X57500Y-48000D01*
X57500Y-48000D02*
X56500Y-48000D01*
X40000Y-43500D02*
X40000Y-44500D01*
X42000Y-43500D02*
X42000Y-44500D01*
X44000Y-44500D02*
X44000Y-43500D01*
X38000Y-43500D02*
X38000Y-44500D01*
X58500Y-32500D02*
X58500Y-33500D01*
X58500Y-33500D02*
X58500Y-34500D01*
X58500Y-34500D02*
X58500Y-35500D01*
X58500Y-35500D02*
X58500Y-36500D01*
X58500Y-27500D02*
X58500Y-28500D01*
X58500Y-28500D02*
X58500Y-29500D01*
X58500Y-29500D02*
X58500Y-30500D01*
X58500Y-30500D02*
X58500Y-31500D01*
X58500Y-41500D02*
X58500Y-40500D01*
X58500Y-40500D02*
X58500Y-39500D01*
X58500Y-39500D02*
X58500Y-38500D01*
X58500Y-38500D02*
X58500Y-37500D01*
X53500Y-42500D02*
X53500Y-43500D01*
X53500Y-43500D02*
X53500Y-44500D01*
X53500Y-44500D02*
X53500Y-45500D01*
X53500Y-45500D02*
X53500Y-46500D01*
X53500Y-37500D02*
X53500Y-38500D01*
X53500Y-38500D02*
X53500Y-39500D01*
X53500Y-39500D02*
X53500Y-40500D01*
X53500Y-40500D02*
X53500Y-41500D01*
X53500Y-32500D02*
X53500Y-33500D01*
X53500Y-33500D02*
X53500Y-34500D01*
X53500Y-34500D02*
X53500Y-35500D01*
X53500Y-35500D02*
X53500Y-36500D01*
X61500Y-36500D02*
X61500Y-35500D01*
X61500Y-35500D02*
X61500Y-34500D01*
X61500Y-34500D02*
X61500Y-33500D01*
X61500Y-33500D02*
X61500Y-32500D01*
X61500Y-31500D02*
X61500Y-30500D01*
X61500Y-30500D02*
X61500Y-29500D01*
X61500Y-29500D02*
X61500Y-28500D01*
X61500Y-28500D02*
X61500Y-27500D01*
X52500Y-46500D02*
X52500Y-45500D01*
X52500Y-45500D02*
X52500Y-44500D01*
X52500Y-44500D02*
X52500Y-43500D01*
X52500Y-43500D02*
X52500Y-42500D01*
X52500Y-41500D02*
X52500Y-40500D01*
X52500Y-40500D02*
X52500Y-39500D01*
X52500Y-39500D02*
X52500Y-38500D01*
X52500Y-38500D02*
X52500Y-37500D01*
X52500Y-32500D02*
X52500Y-33500D01*
X52500Y-36500D02*
X52500Y-35500D01*
X52500Y-35500D02*
X52500Y-34500D01*
X52500Y-34500D02*
X52500Y-33500D01*
X52500Y-27500D02*
X52500Y-28500D01*
X52500Y-28500D02*
X52500Y-29500D01*
X52500Y-29500D02*
X52500Y-30500D01*
X52500Y-30500D02*
X52500Y-31500D01*
X58500Y-42500D02*
X58500Y-43500D01*
X58500Y-43500D02*
X58500Y-44500D01*
X58500Y-44500D02*
X58500Y-45500D01*
X58500Y-45500D02*
X58500Y-46500D01*
X54500Y-32500D02*
X54500Y-33500D01*
X54500Y-36500D02*
X54500Y-35500D01*
X54500Y-35500D02*
X54500Y-34500D01*
X54500Y-34500D02*
X54500Y-33500D01*
X54500Y-27500D02*
X54500Y-28500D01*
X54500Y-28500D02*
X54500Y-29500D01*
X54500Y-29500D02*
X54500Y-30500D01*
X54500Y-30500D02*
X54500Y-31500D01*
X60500Y-46500D02*
X60500Y-45500D01*
X60500Y-45500D02*
X60500Y-44500D01*
X60500Y-44500D02*
X60500Y-43500D01*
X60500Y-43500D02*
X60500Y-42500D01*
X60500Y-37500D02*
X60500Y-38500D01*
X60500Y-38500D02*
X60500Y-39500D01*
X60500Y-39500D02*
X60500Y-40500D01*
X60500Y-40500D02*
X60500Y-41500D01*
X60500Y-32500D02*
X60500Y-33500D01*
X60500Y-33500D02*
X60500Y-34500D01*
X60500Y-34500D02*
X60500Y-35500D01*
X60500Y-35500D02*
X60500Y-36500D01*
X53500Y-31500D02*
X53500Y-30500D01*
X53500Y-30500D02*
X53500Y-29500D01*
X53500Y-29500D02*
X53500Y-28500D01*
X53500Y-28500D02*
X53500Y-27500D01*
X59500Y-42500D02*
X59500Y-43500D01*
X59500Y-43500D02*
X59500Y-44500D01*
X59500Y-44500D02*
X59500Y-45500D01*
X59500Y-45500D02*
X59500Y-46500D01*
X59500Y-37500D02*
X59500Y-38500D01*
X59500Y-38500D02*
X59500Y-39500D01*
X59500Y-39500D02*
X59500Y-40500D01*
X59500Y-40500D02*
X59500Y-41500D01*
X59500Y-36500D02*
X59500Y-35500D01*
X59500Y-35500D02*
X59500Y-34500D01*
X59500Y-34500D02*
X59500Y-33500D01*
X59500Y-33500D02*
X59500Y-32500D01*
X59500Y-31500D02*
X59500Y-30500D01*
X59500Y-30500D02*
X59500Y-29500D01*
X59500Y-29500D02*
X59500Y-28500D01*
X59500Y-28500D02*
X59500Y-27500D01*
X54500Y-46500D02*
X54500Y-45500D01*
X54500Y-45500D02*
X54500Y-44500D01*
X54500Y-44500D02*
X54500Y-43500D01*
X54500Y-43500D02*
X54500Y-42500D01*
X54500Y-41500D02*
X54500Y-40500D01*
X54500Y-40500D02*
X54500Y-39500D01*
X54500Y-39500D02*
X54500Y-38500D01*
X54500Y-38500D02*
X54500Y-37500D01*
X50500Y-27500D02*
X50500Y-28500D01*
X50500Y-28500D02*
X50500Y-29500D01*
X50500Y-29500D02*
X50500Y-30500D01*
X50500Y-30500D02*
X50500Y-31500D01*
X51500Y-42500D02*
X51500Y-43500D01*
X51500Y-43500D02*
X51500Y-44500D01*
X51500Y-44500D02*
X51500Y-45500D01*
X51500Y-45500D02*
X51500Y-46500D01*
X51500Y-37500D02*
X51500Y-38500D01*
X51500Y-38500D02*
X51500Y-39500D01*
X51500Y-39500D02*
X51500Y-40500D01*
X51500Y-40500D02*
X51500Y-41500D01*
X60500Y-27500D02*
X60500Y-28500D01*
X60500Y-28500D02*
X60500Y-29500D01*
X60500Y-29500D02*
X60500Y-30500D01*
X60500Y-30500D02*
X60500Y-31500D01*
X51500Y-32500D02*
X51500Y-33500D01*
X51500Y-33500D02*
X51500Y-34500D01*
X51500Y-34500D02*
X51500Y-35500D01*
X51500Y-35500D02*
X51500Y-36500D01*
X51500Y-31500D02*
X51500Y-30500D01*
X51500Y-30500D02*
X51500Y-29500D01*
X51500Y-29500D02*
X51500Y-28500D01*
X51500Y-28500D02*
X51500Y-27500D01*
X56500Y-42500D02*
X56500Y-43500D01*
X56500Y-43500D02*
X56500Y-44500D01*
X56500Y-44500D02*
X56500Y-45500D01*
X56500Y-45500D02*
X56500Y-46500D01*
X50500Y-46500D02*
X50500Y-45500D01*
X50500Y-45500D02*
X50500Y-44500D01*
X50500Y-44500D02*
X50500Y-43500D01*
X50500Y-43500D02*
X50500Y-42500D01*
X50500Y-41500D02*
X50500Y-40500D01*
X50500Y-40500D02*
X50500Y-39500D01*
X50500Y-39500D02*
X50500Y-38500D01*
X50500Y-38500D02*
X50500Y-37500D01*
X50500Y-36500D02*
X50500Y-35500D01*
X50500Y-35500D02*
X50500Y-34500D01*
X50500Y-34500D02*
X50500Y-33500D01*
X50500Y-33500D02*
X50500Y-32500D01*
X55500Y-42500D02*
X55500Y-43500D01*
X55500Y-43500D02*
X55500Y-44500D01*
X55500Y-44500D02*
X55500Y-45500D01*
X55500Y-45500D02*
X55500Y-46500D01*
X55500Y-37500D02*
X55500Y-38500D01*
X55500Y-38500D02*
X55500Y-39500D01*
X55500Y-39500D02*
X55500Y-40500D01*
X55500Y-40500D02*
X55500Y-41500D01*
X55500Y-32500D02*
X55500Y-33500D01*
X55500Y-33500D02*
X55500Y-34500D01*
X55500Y-34500D02*
X55500Y-35500D01*
X55500Y-35500D02*
X55500Y-36500D01*
X55500Y-31500D02*
X55500Y-30500D01*
X55500Y-30500D02*
X55500Y-29500D01*
X55500Y-29500D02*
X55500Y-28500D01*
X55500Y-28500D02*
X55500Y-27500D01*
X61500Y-42500D02*
X61500Y-43500D01*
X61500Y-43500D02*
X61500Y-44500D01*
X61500Y-44500D02*
X61500Y-45500D01*
X61500Y-45500D02*
X61500Y-46500D01*
X61500Y-41500D02*
X61500Y-40500D01*
X61500Y-40500D02*
X61500Y-39500D01*
X61500Y-39500D02*
X61500Y-38500D01*
X61500Y-38500D02*
X61500Y-37500D01*
X56500Y-41500D02*
X56500Y-40500D01*
X56500Y-40500D02*
X56500Y-39500D01*
X56500Y-39500D02*
X56500Y-38500D01*
X56500Y-38500D02*
X56500Y-37500D01*
X56500Y-36500D02*
X56500Y-35500D01*
X56500Y-35500D02*
X56500Y-34500D01*
X56500Y-34500D02*
X56500Y-33500D01*
X56500Y-33500D02*
X56500Y-32500D01*
X56500Y-27500D02*
X56500Y-28500D01*
X56500Y-28500D02*
X56500Y-29500D01*
X56500Y-29500D02*
X56500Y-30500D01*
X56500Y-30500D02*
X56500Y-31500D01*
X57500Y-46500D02*
X57500Y-45500D01*
X57500Y-45500D02*
X57500Y-44500D01*
X57500Y-44500D02*
X57500Y-43500D01*
X57500Y-43500D02*
X57500Y-42500D01*
X57500Y-37500D02*
X57500Y-38500D01*
X57500Y-38500D02*
X57500Y-39500D01*
X57500Y-39500D02*
X57500Y-40500D01*
X57500Y-40500D02*
X57500Y-41500D01*
X57500Y-32500D02*
X57500Y-33500D01*
X57500Y-33500D02*
X57500Y-34500D01*
X57500Y-34500D02*
X57500Y-35500D01*
X57500Y-35500D02*
X57500Y-36500D01*
X57500Y-31500D02*
X57500Y-30500D01*
X57500Y-30500D02*
X57500Y-29500D01*
X57500Y-29500D02*
X57500Y-28500D01*
X57500Y-28500D02*
X57500Y-27500D01*
G54D23*
X42500Y-57000D02*
X42500Y-55500D01*
X42500Y-55500D02*
X41500Y-54500D01*
X44500Y-54500D02*
X45500Y-54500D01*
X40500Y-54500D02*
X41500Y-54500D01*
X41500Y-54500D02*
X44500Y-54500D01*
X44500Y-57000D02*
X44500Y-57000D01*
X45500Y-52500D02*
X43500Y-52500D01*
X46500Y-53500D02*
X45500Y-52500D01*
X46500Y-55000D02*
X46500Y-53500D01*
X44500Y-57000D02*
X46500Y-55000D01*
X43500Y-57000D02*
X44500Y-57000D01*
X43500Y-52500D02*
X42500Y-52500D01*
X40500Y-51500D02*
X41000Y-51500D01*
X42000Y-52500D02*
X42500Y-52500D01*
X41000Y-51500D02*
X42000Y-52500D01*
X33500Y-57000D02*
X34500Y-57000D01*
X34500Y-52500D02*
X32500Y-52500D01*
X33500Y-57000D02*
X33500Y-57000D01*
X31500Y-55000D02*
X33500Y-57000D01*
X31500Y-53500D02*
X31500Y-55000D01*
X32500Y-52500D02*
X31500Y-53500D01*
X35500Y-52500D02*
X34500Y-52500D01*
X37500Y-51500D02*
X37000Y-51500D01*
X36000Y-52500D02*
X35500Y-52500D01*
X37000Y-51500D02*
X36000Y-52500D01*
X35500Y-57000D02*
X35500Y-55500D01*
X35500Y-55500D02*
X36500Y-54500D01*
X33500Y-54500D02*
X36500Y-54500D01*
X36500Y-54500D02*
X37500Y-54500D01*
X32500Y-54500D02*
X33500Y-54500D01*
X50500Y-49000D02*
X48000Y-49000D01*
X50500Y-49000D02*
X51500Y-49000D01*
X51500Y-49000D02*
X52500Y-49000D01*
X52500Y-49000D02*
X53500Y-49000D01*
X53500Y-49000D02*
X54500Y-49000D01*
X54500Y-49000D02*
X55500Y-49000D01*
X55500Y-49000D02*
X56500Y-49000D01*
X56500Y-49000D02*
X57500Y-49000D01*
X57500Y-49000D02*
X58500Y-49000D01*
X58500Y-49000D02*
X59500Y-49000D01*
X59500Y-49000D02*
X60500Y-49000D01*
X60500Y-49000D02*
X61500Y-49000D01*
X48000Y-52200D02*
X48000Y-51500D01*
X48000Y-51500D02*
X50500Y-49000D01*
G54D22*
X52500Y-51500D02*
X53000Y-51500D01*
X53000Y-51500D02*
X53500Y-51000D01*
X57500Y-51500D02*
X57500Y-52000D01*
X57500Y-52000D02*
X57000Y-52500D01*
X59500Y-53500D02*
X59000Y-53500D01*
X55000Y-52500D02*
X53500Y-51000D01*
X58000Y-52500D02*
X57000Y-52500D01*
X57000Y-52500D02*
X55000Y-52500D01*
X59000Y-53500D02*
X58000Y-52500D01*
X54500Y-53500D02*
X53500Y-52500D01*
X53500Y-52500D02*
X53500Y-51000D01*
X53500Y-51000D02*
X53500Y-49000D01*
X51500Y-49000D02*
X52500Y-49000D01*
X52500Y-49000D02*
X53250Y-49000D01*
X53250Y-49000D02*
X53500Y-49000D01*
X53500Y-49000D02*
X54500Y-49000D01*
X54500Y-49000D02*
X55500Y-49000D01*
X55500Y-49000D02*
X56500Y-49000D01*
X56500Y-49000D02*
X57500Y-49000D01*
X57500Y-49000D02*
X58500Y-49000D01*
X58500Y-49000D02*
X59500Y-49000D01*
X59500Y-49000D02*
X60500Y-49000D01*
X60500Y-49000D02*
X61500Y-49000D01*
G54D23*
X49500Y-26500D02*
X49500Y-24000D01*
X49500Y-27500D02*
X49500Y-26500D01*
X49500Y-24000D02*
X52000Y-21500D01*
X30750Y-51500D02*
X33000Y-51500D01*
X33500Y-51000D02*
X33500Y-50500D01*
X33000Y-51500D02*
X33500Y-51000D01*
X31500Y-48500D02*
X34500Y-48500D01*
X49500Y-27500D02*
X49500Y-28500D01*
X49500Y-28500D02*
X49500Y-29500D01*
X49500Y-29500D02*
X49500Y-30500D01*
X49500Y-30500D02*
X49500Y-31500D01*
X49500Y-31500D02*
X49500Y-44000D01*
X49500Y-44000D02*
X49500Y-44750D01*
X46500Y-47750D02*
X47750Y-46500D01*
X49500Y-44750D02*
X47750Y-46500D01*
X44500Y-50500D02*
X44500Y-49750D01*
X44500Y-49750D02*
X46500Y-47750D01*
X43500Y-48500D02*
X43500Y-48250D01*
X43500Y-48250D02*
X44000Y-47750D01*
X40500Y-47500D02*
X42500Y-47500D01*
X42750Y-47750D02*
X44000Y-47750D01*
X44000Y-47750D02*
X46500Y-47750D01*
X42500Y-47500D02*
X42750Y-47750D01*
X40500Y-47500D02*
X35500Y-47500D01*
X35500Y-47500D02*
X34500Y-48500D01*
X37500Y-56500D02*
X38000Y-56500D01*
X39000Y-49000D02*
X40500Y-47500D01*
X39000Y-55500D02*
X39000Y-49000D01*
X38000Y-56500D02*
X39000Y-55500D01*
X33500Y-50500D02*
X33500Y-49500D01*
X33500Y-49500D02*
X34500Y-48500D01*
X38000Y-22500D02*
X38250Y-22500D01*
X34877Y-22023D02*
X35354Y-22500D01*
X38000Y-22500D02*
X35354Y-22500D01*
X44500Y-25000D02*
X45250Y-24250D01*
X40750Y-25000D02*
X44500Y-25000D01*
X38250Y-22500D02*
X40750Y-25000D01*
X45000Y-24500D02*
X45250Y-24250D01*
X45250Y-24250D02*
X45500Y-24000D01*
X45500Y-24000D02*
X46000Y-24000D01*
X45000Y-24500D02*
X48000Y-27500D01*
G54D10*
G36*
X27350Y-36930D02*
X27131Y-36840D01*
X26869Y-36839D01*
X26626Y-36940D01*
X26499Y-37066D01*
X26374Y-36940D01*
X26131Y-36840D01*
X25869Y-36839D01*
X25626Y-36940D01*
X25499Y-37066D01*
X25374Y-36940D01*
X25131Y-36840D01*
X25120Y-36840D01*
X25120Y-35160D01*
X25130Y-35160D01*
X25373Y-35059D01*
X25500Y-34933D01*
X25625Y-35059D01*
X25868Y-35159D01*
X26130Y-35160D01*
X26373Y-35059D01*
X26500Y-34933D01*
X26625Y-35059D01*
X26868Y-35159D01*
X27130Y-35160D01*
X27350Y-35069D01*
X27350Y-36930D01*
X27350Y-36930D01*
G37*
G54D24*
X27350Y-36930D02*
X27131Y-36840D01*
X26869Y-36839D01*
X26626Y-36940D01*
X26499Y-37066D01*
X26374Y-36940D01*
X26131Y-36840D01*
X25869Y-36839D01*
X25626Y-36940D01*
X25499Y-37066D01*
X25374Y-36940D01*
X25131Y-36840D01*
X25120Y-36840D01*
X25120Y-35160D01*
X25130Y-35160D01*
X25373Y-35059D01*
X25500Y-34933D01*
X25625Y-35059D01*
X25868Y-35159D01*
X26130Y-35160D01*
X26373Y-35059D01*
X26500Y-34933D01*
X26625Y-35059D01*
X26868Y-35159D01*
X27130Y-35160D01*
X27350Y-35069D01*
X27350Y-36930D01*
G54D10*
G36*
X34643Y-47635D02*
X34488Y-47789D01*
X34078Y-47789D01*
X33946Y-47844D01*
X33844Y-47945D01*
X33826Y-47990D01*
X31666Y-47990D01*
X31606Y-47965D01*
X31394Y-47964D01*
X31197Y-48046D01*
X31046Y-48196D01*
X30965Y-48393D01*
X30964Y-48605D01*
X31046Y-48802D01*
X31196Y-48953D01*
X31393Y-49034D01*
X31605Y-49035D01*
X31666Y-49010D01*
X33268Y-49010D01*
X33139Y-49139D01*
X33028Y-49304D01*
X32990Y-49500D01*
X32990Y-49826D01*
X32946Y-49844D01*
X32844Y-49945D01*
X32790Y-50078D01*
X32789Y-50221D01*
X32789Y-50921D01*
X32809Y-50969D01*
X32788Y-50990D01*
X31299Y-50990D01*
X31229Y-50919D01*
X31096Y-50865D01*
X30953Y-50864D01*
X30650Y-50864D01*
X30650Y-47606D01*
X30703Y-47553D01*
X30784Y-47356D01*
X30785Y-47144D01*
X30703Y-46947D01*
X30631Y-46875D01*
X30703Y-46803D01*
X30784Y-46606D01*
X30785Y-46394D01*
X30703Y-46197D01*
X30553Y-46046D01*
X30356Y-45965D01*
X30144Y-45964D01*
X29947Y-46046D01*
X29796Y-46196D01*
X29715Y-46393D01*
X29715Y-46469D01*
X29400Y-46784D01*
X29400Y-45415D01*
X30782Y-44032D01*
X30782Y-44032D01*
X30840Y-43946D01*
X30869Y-43903D01*
X30869Y-43903D01*
X30899Y-43750D01*
X30900Y-43750D01*
X30900Y-43134D01*
X31125Y-43135D01*
X31359Y-43038D01*
X31500Y-42898D01*
X31601Y-43000D01*
X31461Y-43139D01*
X31365Y-43373D01*
X31364Y-43625D01*
X31461Y-43859D01*
X31601Y-44000D01*
X31461Y-44139D01*
X31365Y-44373D01*
X31364Y-44625D01*
X31461Y-44859D01*
X31639Y-45038D01*
X31873Y-45134D01*
X32125Y-45135D01*
X32359Y-45038D01*
X32538Y-44860D01*
X32613Y-44678D01*
X34299Y-46364D01*
X34153Y-46364D01*
X34021Y-46419D01*
X33919Y-46520D01*
X33919Y-46521D01*
X33860Y-46461D01*
X33626Y-46365D01*
X33374Y-46364D01*
X33140Y-46461D01*
X32999Y-46601D01*
X32860Y-46461D01*
X32626Y-46365D01*
X32374Y-46364D01*
X32140Y-46461D01*
X31961Y-46639D01*
X31865Y-46873D01*
X31864Y-47125D01*
X31961Y-47359D01*
X32139Y-47538D01*
X32373Y-47634D01*
X32625Y-47635D01*
X32859Y-47538D01*
X33000Y-47398D01*
X33139Y-47538D01*
X33373Y-47634D01*
X33625Y-47635D01*
X33859Y-47538D01*
X33919Y-47478D01*
X33919Y-47478D01*
X34020Y-47580D01*
X34153Y-47634D01*
X34296Y-47635D01*
X34643Y-47635D01*
X34643Y-47635D01*
G37*
G54D24*
X34643Y-47635D02*
X34488Y-47789D01*
X34078Y-47789D01*
X33946Y-47844D01*
X33844Y-47945D01*
X33826Y-47990D01*
X31666Y-47990D01*
X31606Y-47965D01*
X31394Y-47964D01*
X31197Y-48046D01*
X31046Y-48196D01*
X30965Y-48393D01*
X30964Y-48605D01*
X31046Y-48802D01*
X31196Y-48953D01*
X31393Y-49034D01*
X31605Y-49035D01*
X31666Y-49010D01*
X33268Y-49010D01*
X33139Y-49139D01*
X33028Y-49304D01*
X32990Y-49500D01*
X32990Y-49826D01*
X32946Y-49844D01*
X32844Y-49945D01*
X32790Y-50078D01*
X32789Y-50221D01*
X32789Y-50921D01*
X32809Y-50969D01*
X32788Y-50990D01*
X31299Y-50990D01*
X31229Y-50919D01*
X31096Y-50865D01*
X30953Y-50864D01*
X30650Y-50864D01*
X30650Y-47606D01*
X30703Y-47553D01*
X30784Y-47356D01*
X30785Y-47144D01*
X30703Y-46947D01*
X30631Y-46875D01*
X30703Y-46803D01*
X30784Y-46606D01*
X30785Y-46394D01*
X30703Y-46197D01*
X30553Y-46046D01*
X30356Y-45965D01*
X30144Y-45964D01*
X29947Y-46046D01*
X29796Y-46196D01*
X29715Y-46393D01*
X29715Y-46469D01*
X29400Y-46784D01*
X29400Y-45415D01*
X30782Y-44032D01*
X30782Y-44032D01*
X30840Y-43946D01*
X30869Y-43903D01*
X30869Y-43903D01*
X30899Y-43750D01*
X30900Y-43750D01*
X30900Y-43134D01*
X31125Y-43135D01*
X31359Y-43038D01*
X31500Y-42898D01*
X31601Y-43000D01*
X31461Y-43139D01*
X31365Y-43373D01*
X31364Y-43625D01*
X31461Y-43859D01*
X31601Y-44000D01*
X31461Y-44139D01*
X31365Y-44373D01*
X31364Y-44625D01*
X31461Y-44859D01*
X31639Y-45038D01*
X31873Y-45134D01*
X32125Y-45135D01*
X32359Y-45038D01*
X32538Y-44860D01*
X32613Y-44678D01*
X34299Y-46364D01*
X34153Y-46364D01*
X34021Y-46419D01*
X33919Y-46520D01*
X33919Y-46521D01*
X33860Y-46461D01*
X33626Y-46365D01*
X33374Y-46364D01*
X33140Y-46461D01*
X32999Y-46601D01*
X32860Y-46461D01*
X32626Y-46365D01*
X32374Y-46364D01*
X32140Y-46461D01*
X31961Y-46639D01*
X31865Y-46873D01*
X31864Y-47125D01*
X31961Y-47359D01*
X32139Y-47538D01*
X32373Y-47634D01*
X32625Y-47635D01*
X32859Y-47538D01*
X33000Y-47398D01*
X33139Y-47538D01*
X33373Y-47634D01*
X33625Y-47635D01*
X33859Y-47538D01*
X33919Y-47478D01*
X33919Y-47478D01*
X34020Y-47580D01*
X34153Y-47634D01*
X34296Y-47635D01*
X34643Y-47635D01*
G54D10*
G36*
X35034Y-45850D02*
X34915Y-45850D01*
X32634Y-43569D01*
X32635Y-43374D01*
X32538Y-43140D01*
X32398Y-42999D01*
X32538Y-42860D01*
X32634Y-42626D01*
X32635Y-42374D01*
X32538Y-42140D01*
X32398Y-41999D01*
X32538Y-41860D01*
X32634Y-41626D01*
X32635Y-41374D01*
X32538Y-41140D01*
X32398Y-40999D01*
X32538Y-40860D01*
X32634Y-40626D01*
X32635Y-40374D01*
X32538Y-40140D01*
X32398Y-39999D01*
X32538Y-39860D01*
X32634Y-39626D01*
X32635Y-39374D01*
X32538Y-39140D01*
X32398Y-38999D01*
X32538Y-38860D01*
X32634Y-38626D01*
X32635Y-38374D01*
X32538Y-38140D01*
X32398Y-37999D01*
X32538Y-37860D01*
X32634Y-37626D01*
X32635Y-37374D01*
X32538Y-37140D01*
X32360Y-36961D01*
X32126Y-36865D01*
X31874Y-36864D01*
X31640Y-36961D01*
X31461Y-37139D01*
X31365Y-37373D01*
X31364Y-37625D01*
X31461Y-37859D01*
X31601Y-38000D01*
X31461Y-38139D01*
X31365Y-38373D01*
X31364Y-38625D01*
X31461Y-38859D01*
X31601Y-39000D01*
X31501Y-39100D01*
X30000Y-39100D01*
X29846Y-39130D01*
X29803Y-39159D01*
X29717Y-39217D01*
X29650Y-39284D01*
X29650Y-39034D01*
X29855Y-39035D01*
X30000Y-38975D01*
X30143Y-39034D01*
X30355Y-39035D01*
X30552Y-38953D01*
X30703Y-38803D01*
X30784Y-38606D01*
X30785Y-38394D01*
X30703Y-38197D01*
X30553Y-38046D01*
X30356Y-37965D01*
X30280Y-37965D01*
X30150Y-37834D01*
X30150Y-35042D01*
X30373Y-35134D01*
X30625Y-35135D01*
X30859Y-35038D01*
X31038Y-34860D01*
X31134Y-34626D01*
X31135Y-34400D01*
X31334Y-34400D01*
X31365Y-34430D01*
X31364Y-34625D01*
X31461Y-34859D01*
X31601Y-35000D01*
X31461Y-35139D01*
X31365Y-35373D01*
X31364Y-35625D01*
X31461Y-35859D01*
X31639Y-36038D01*
X31873Y-36134D01*
X32125Y-36135D01*
X32359Y-36038D01*
X32538Y-35860D01*
X32634Y-35626D01*
X32635Y-35374D01*
X32538Y-35140D01*
X32398Y-34999D01*
X32538Y-34860D01*
X32634Y-34626D01*
X32635Y-34374D01*
X32538Y-34140D01*
X32398Y-33999D01*
X32538Y-33860D01*
X32634Y-33626D01*
X32635Y-33374D01*
X32538Y-33140D01*
X32398Y-32999D01*
X32538Y-32860D01*
X32634Y-32626D01*
X32635Y-32374D01*
X32538Y-32140D01*
X32398Y-31999D01*
X32538Y-31860D01*
X32634Y-31626D01*
X32635Y-31374D01*
X32538Y-31140D01*
X32398Y-30999D01*
X32538Y-30860D01*
X32634Y-30626D01*
X32635Y-30374D01*
X32538Y-30140D01*
X32398Y-29999D01*
X32538Y-29860D01*
X32634Y-29626D01*
X32635Y-29374D01*
X32538Y-29140D01*
X32398Y-28999D01*
X32538Y-28860D01*
X32634Y-28626D01*
X32635Y-28374D01*
X32538Y-28140D01*
X32398Y-27999D01*
X32538Y-27860D01*
X32634Y-27626D01*
X32635Y-27374D01*
X32538Y-27140D01*
X32398Y-26999D01*
X32538Y-26860D01*
X32634Y-26626D01*
X32635Y-26374D01*
X32538Y-26140D01*
X32478Y-26080D01*
X32478Y-26080D01*
X32580Y-25979D01*
X32634Y-25846D01*
X32635Y-25703D01*
X32635Y-25153D01*
X32580Y-25021D01*
X32479Y-24919D01*
X32346Y-24865D01*
X32203Y-24864D01*
X31653Y-24864D01*
X31521Y-24919D01*
X31419Y-25020D01*
X31365Y-25153D01*
X31364Y-25296D01*
X31364Y-25846D01*
X31419Y-25978D01*
X31520Y-26080D01*
X31521Y-26080D01*
X31461Y-26139D01*
X31403Y-26280D01*
X30558Y-27125D01*
X30415Y-26982D01*
X30538Y-26860D01*
X30634Y-26626D01*
X30635Y-26374D01*
X30538Y-26140D01*
X30360Y-25961D01*
X30126Y-25865D01*
X29874Y-25864D01*
X29640Y-25961D01*
X29501Y-26100D01*
X28635Y-26100D01*
X28635Y-23374D01*
X28538Y-23140D01*
X28360Y-22961D01*
X28126Y-22865D01*
X27874Y-22864D01*
X27640Y-22961D01*
X27461Y-23139D01*
X27365Y-23373D01*
X27364Y-23625D01*
X27461Y-23859D01*
X27639Y-24038D01*
X27873Y-24134D01*
X28125Y-24135D01*
X28359Y-24038D01*
X28538Y-23860D01*
X28634Y-23626D01*
X28635Y-23374D01*
X28635Y-26100D01*
X28497Y-26100D01*
X28360Y-25961D01*
X28126Y-25865D01*
X27874Y-25864D01*
X27640Y-25961D01*
X27461Y-26139D01*
X27365Y-26373D01*
X27364Y-26625D01*
X27461Y-26859D01*
X27584Y-26982D01*
X27440Y-27125D01*
X27340Y-27368D01*
X27339Y-27630D01*
X27440Y-27873D01*
X27625Y-28059D01*
X27868Y-28159D01*
X28130Y-28160D01*
X28373Y-28059D01*
X28559Y-27874D01*
X28659Y-27631D01*
X28660Y-27369D01*
X28559Y-27126D01*
X28415Y-26982D01*
X28498Y-26900D01*
X29502Y-26900D01*
X29584Y-26982D01*
X29440Y-27125D01*
X29340Y-27368D01*
X29339Y-27630D01*
X29440Y-27873D01*
X29625Y-28058D01*
X28217Y-29467D01*
X28130Y-29596D01*
X28125Y-29622D01*
X28100Y-29750D01*
X28100Y-30840D01*
X27869Y-30839D01*
X27626Y-30940D01*
X27440Y-31125D01*
X27340Y-31368D01*
X27339Y-31630D01*
X27437Y-31867D01*
X27371Y-31840D01*
X27228Y-31839D01*
X26660Y-31839D01*
X26660Y-27369D01*
X26559Y-27126D01*
X26415Y-26982D01*
X26538Y-26860D01*
X26634Y-26626D01*
X26635Y-26374D01*
X26635Y-23374D01*
X26538Y-23140D01*
X26360Y-22961D01*
X26126Y-22865D01*
X25874Y-22864D01*
X25640Y-22961D01*
X25461Y-23139D01*
X25365Y-23373D01*
X25364Y-23625D01*
X25461Y-23859D01*
X25639Y-24038D01*
X25873Y-24134D01*
X26125Y-24135D01*
X26359Y-24038D01*
X26538Y-23860D01*
X26634Y-23626D01*
X26635Y-23374D01*
X26635Y-26374D01*
X26538Y-26140D01*
X26360Y-25961D01*
X26126Y-25865D01*
X25874Y-25864D01*
X25640Y-25961D01*
X25461Y-26139D01*
X25365Y-26373D01*
X25364Y-26625D01*
X25461Y-26859D01*
X25584Y-26982D01*
X25440Y-27125D01*
X25340Y-27368D01*
X25339Y-27630D01*
X25440Y-27873D01*
X25625Y-28059D01*
X25868Y-28159D01*
X26130Y-28160D01*
X26373Y-28059D01*
X26559Y-27874D01*
X26659Y-27631D01*
X26660Y-27369D01*
X26660Y-31839D01*
X26628Y-31839D01*
X26499Y-31893D01*
X26371Y-31840D01*
X26228Y-31839D01*
X25628Y-31839D01*
X25499Y-31893D01*
X25371Y-31840D01*
X25228Y-31839D01*
X25120Y-31839D01*
X25120Y-22260D01*
X25342Y-22482D01*
X25768Y-22659D01*
X26229Y-22660D01*
X26656Y-22483D01*
X26982Y-22157D01*
X27159Y-21731D01*
X27160Y-21270D01*
X26983Y-20843D01*
X26760Y-20620D01*
X29880Y-20620D01*
X29880Y-22120D01*
X32446Y-22120D01*
X32446Y-22488D01*
X32500Y-22620D01*
X32602Y-22722D01*
X32734Y-22777D01*
X32877Y-22777D01*
X33156Y-22777D01*
X32967Y-22967D01*
X32880Y-23096D01*
X32875Y-23122D01*
X32850Y-23250D01*
X32850Y-23500D01*
X32850Y-41500D01*
X32875Y-41627D01*
X32880Y-41653D01*
X32967Y-41782D01*
X33967Y-42782D01*
X33967Y-42782D01*
X34053Y-42840D01*
X34096Y-42869D01*
X34096Y-42869D01*
X34250Y-42900D01*
X34502Y-42900D01*
X34601Y-43000D01*
X34461Y-43139D01*
X34365Y-43373D01*
X34364Y-43625D01*
X34461Y-43859D01*
X34601Y-44000D01*
X34461Y-44139D01*
X34365Y-44373D01*
X34364Y-44625D01*
X34461Y-44859D01*
X34600Y-44998D01*
X34600Y-45250D01*
X34625Y-45377D01*
X34630Y-45403D01*
X34717Y-45532D01*
X35034Y-45850D01*
X35034Y-45850D01*
G37*
G54D24*
X35034Y-45850D02*
X34915Y-45850D01*
X32634Y-43569D01*
X32635Y-43374D01*
X32538Y-43140D01*
X32398Y-42999D01*
X32538Y-42860D01*
X32634Y-42626D01*
X32635Y-42374D01*
X32538Y-42140D01*
X32398Y-41999D01*
X32538Y-41860D01*
X32634Y-41626D01*
X32635Y-41374D01*
X32538Y-41140D01*
X32398Y-40999D01*
X32538Y-40860D01*
X32634Y-40626D01*
X32635Y-40374D01*
X32538Y-40140D01*
X32398Y-39999D01*
X32538Y-39860D01*
X32634Y-39626D01*
X32635Y-39374D01*
X32538Y-39140D01*
X32398Y-38999D01*
X32538Y-38860D01*
X32634Y-38626D01*
X32635Y-38374D01*
X32538Y-38140D01*
X32398Y-37999D01*
X32538Y-37860D01*
X32634Y-37626D01*
X32635Y-37374D01*
X32538Y-37140D01*
X32360Y-36961D01*
X32126Y-36865D01*
X31874Y-36864D01*
X31640Y-36961D01*
X31461Y-37139D01*
X31365Y-37373D01*
X31364Y-37625D01*
X31461Y-37859D01*
X31601Y-38000D01*
X31461Y-38139D01*
X31365Y-38373D01*
X31364Y-38625D01*
X31461Y-38859D01*
X31601Y-39000D01*
X31501Y-39100D01*
X30000Y-39100D01*
X29846Y-39130D01*
X29803Y-39159D01*
X29717Y-39217D01*
X29650Y-39284D01*
X29650Y-39034D01*
X29855Y-39035D01*
X30000Y-38975D01*
X30143Y-39034D01*
X30355Y-39035D01*
X30552Y-38953D01*
X30703Y-38803D01*
X30784Y-38606D01*
X30785Y-38394D01*
X30703Y-38197D01*
X30553Y-38046D01*
X30356Y-37965D01*
X30280Y-37965D01*
X30150Y-37834D01*
X30150Y-35042D01*
X30373Y-35134D01*
X30625Y-35135D01*
X30859Y-35038D01*
X31038Y-34860D01*
X31134Y-34626D01*
X31135Y-34400D01*
X31334Y-34400D01*
X31365Y-34430D01*
X31364Y-34625D01*
X31461Y-34859D01*
X31601Y-35000D01*
X31461Y-35139D01*
X31365Y-35373D01*
X31364Y-35625D01*
X31461Y-35859D01*
X31639Y-36038D01*
X31873Y-36134D01*
X32125Y-36135D01*
X32359Y-36038D01*
X32538Y-35860D01*
X32634Y-35626D01*
X32635Y-35374D01*
X32538Y-35140D01*
X32398Y-34999D01*
X32538Y-34860D01*
X32634Y-34626D01*
X32635Y-34374D01*
X32538Y-34140D01*
X32398Y-33999D01*
X32538Y-33860D01*
X32634Y-33626D01*
X32635Y-33374D01*
X32538Y-33140D01*
X32398Y-32999D01*
X32538Y-32860D01*
X32634Y-32626D01*
X32635Y-32374D01*
X32538Y-32140D01*
X32398Y-31999D01*
X32538Y-31860D01*
X32634Y-31626D01*
X32635Y-31374D01*
X32538Y-31140D01*
X32398Y-30999D01*
X32538Y-30860D01*
X32634Y-30626D01*
X32635Y-30374D01*
X32538Y-30140D01*
X32398Y-29999D01*
X32538Y-29860D01*
X32634Y-29626D01*
X32635Y-29374D01*
X32538Y-29140D01*
X32398Y-28999D01*
X32538Y-28860D01*
X32634Y-28626D01*
X32635Y-28374D01*
X32538Y-28140D01*
X32398Y-27999D01*
X32538Y-27860D01*
X32634Y-27626D01*
X32635Y-27374D01*
X32538Y-27140D01*
X32398Y-26999D01*
X32538Y-26860D01*
X32634Y-26626D01*
X32635Y-26374D01*
X32538Y-26140D01*
X32478Y-26080D01*
X32478Y-26080D01*
X32580Y-25979D01*
X32634Y-25846D01*
X32635Y-25703D01*
X32635Y-25153D01*
X32580Y-25021D01*
X32479Y-24919D01*
X32346Y-24865D01*
X32203Y-24864D01*
X31653Y-24864D01*
X31521Y-24919D01*
X31419Y-25020D01*
X31365Y-25153D01*
X31364Y-25296D01*
X31364Y-25846D01*
X31419Y-25978D01*
X31520Y-26080D01*
X31521Y-26080D01*
X31461Y-26139D01*
X31403Y-26280D01*
X30558Y-27125D01*
X30415Y-26982D01*
X30538Y-26860D01*
X30634Y-26626D01*
X30635Y-26374D01*
X30538Y-26140D01*
X30360Y-25961D01*
X30126Y-25865D01*
X29874Y-25864D01*
X29640Y-25961D01*
X29501Y-26100D01*
X28635Y-26100D01*
X28635Y-23374D01*
X28538Y-23140D01*
X28360Y-22961D01*
X28126Y-22865D01*
X27874Y-22864D01*
X27640Y-22961D01*
X27461Y-23139D01*
X27365Y-23373D01*
X27364Y-23625D01*
X27461Y-23859D01*
X27639Y-24038D01*
X27873Y-24134D01*
X28125Y-24135D01*
X28359Y-24038D01*
X28538Y-23860D01*
X28634Y-23626D01*
X28635Y-23374D01*
X28635Y-26100D01*
X28497Y-26100D01*
X28360Y-25961D01*
X28126Y-25865D01*
X27874Y-25864D01*
X27640Y-25961D01*
X27461Y-26139D01*
X27365Y-26373D01*
X27364Y-26625D01*
X27461Y-26859D01*
X27584Y-26982D01*
X27440Y-27125D01*
X27340Y-27368D01*
X27339Y-27630D01*
X27440Y-27873D01*
X27625Y-28059D01*
X27868Y-28159D01*
X28130Y-28160D01*
X28373Y-28059D01*
X28559Y-27874D01*
X28659Y-27631D01*
X28660Y-27369D01*
X28559Y-27126D01*
X28415Y-26982D01*
X28498Y-26900D01*
X29502Y-26900D01*
X29584Y-26982D01*
X29440Y-27125D01*
X29340Y-27368D01*
X29339Y-27630D01*
X29440Y-27873D01*
X29625Y-28058D01*
X28217Y-29467D01*
X28130Y-29596D01*
X28125Y-29622D01*
X28100Y-29750D01*
X28100Y-30840D01*
X27869Y-30839D01*
X27626Y-30940D01*
X27440Y-31125D01*
X27340Y-31368D01*
X27339Y-31630D01*
X27437Y-31867D01*
X27371Y-31840D01*
X27228Y-31839D01*
X26660Y-31839D01*
X26660Y-27369D01*
X26559Y-27126D01*
X26415Y-26982D01*
X26538Y-26860D01*
X26634Y-26626D01*
X26635Y-26374D01*
X26635Y-23374D01*
X26538Y-23140D01*
X26360Y-22961D01*
X26126Y-22865D01*
X25874Y-22864D01*
X25640Y-22961D01*
X25461Y-23139D01*
X25365Y-23373D01*
X25364Y-23625D01*
X25461Y-23859D01*
X25639Y-24038D01*
X25873Y-24134D01*
X26125Y-24135D01*
X26359Y-24038D01*
X26538Y-23860D01*
X26634Y-23626D01*
X26635Y-23374D01*
X26635Y-26374D01*
X26538Y-26140D01*
X26360Y-25961D01*
X26126Y-25865D01*
X25874Y-25864D01*
X25640Y-25961D01*
X25461Y-26139D01*
X25365Y-26373D01*
X25364Y-26625D01*
X25461Y-26859D01*
X25584Y-26982D01*
X25440Y-27125D01*
X25340Y-27368D01*
X25339Y-27630D01*
X25440Y-27873D01*
X25625Y-28059D01*
X25868Y-28159D01*
X26130Y-28160D01*
X26373Y-28059D01*
X26559Y-27874D01*
X26659Y-27631D01*
X26660Y-27369D01*
X26660Y-31839D01*
X26628Y-31839D01*
X26499Y-31893D01*
X26371Y-31840D01*
X26228Y-31839D01*
X25628Y-31839D01*
X25499Y-31893D01*
X25371Y-31840D01*
X25228Y-31839D01*
X25120Y-31839D01*
X25120Y-22260D01*
X25342Y-22482D01*
X25768Y-22659D01*
X26229Y-22660D01*
X26656Y-22483D01*
X26982Y-22157D01*
X27159Y-21731D01*
X27160Y-21270D01*
X26983Y-20843D01*
X26760Y-20620D01*
X29880Y-20620D01*
X29880Y-22120D01*
X32446Y-22120D01*
X32446Y-22488D01*
X32500Y-22620D01*
X32602Y-22722D01*
X32734Y-22777D01*
X32877Y-22777D01*
X33156Y-22777D01*
X32967Y-22967D01*
X32880Y-23096D01*
X32875Y-23122D01*
X32850Y-23250D01*
X32850Y-23500D01*
X32850Y-41500D01*
X32875Y-41627D01*
X32880Y-41653D01*
X32967Y-41782D01*
X33967Y-42782D01*
X33967Y-42782D01*
X34053Y-42840D01*
X34096Y-42869D01*
X34096Y-42869D01*
X34250Y-42900D01*
X34502Y-42900D01*
X34601Y-43000D01*
X34461Y-43139D01*
X34365Y-43373D01*
X34364Y-43625D01*
X34461Y-43859D01*
X34601Y-44000D01*
X34461Y-44139D01*
X34365Y-44373D01*
X34364Y-44625D01*
X34461Y-44859D01*
X34600Y-44998D01*
X34600Y-45250D01*
X34625Y-45377D01*
X34630Y-45403D01*
X34717Y-45532D01*
X35034Y-45850D01*
G54D10*
G36*
X37034Y-32400D02*
X36834Y-32600D01*
X35665Y-32600D01*
X35634Y-32569D01*
X35635Y-32374D01*
X35538Y-32140D01*
X35398Y-31999D01*
X35498Y-31900D01*
X36084Y-31900D01*
X36467Y-32282D01*
X36467Y-32282D01*
X36553Y-32340D01*
X36596Y-32369D01*
X36596Y-32369D01*
X36750Y-32400D01*
X37034Y-32400D01*
X37034Y-32400D01*
G37*
G54D24*
X37034Y-32400D02*
X36834Y-32600D01*
X35665Y-32600D01*
X35634Y-32569D01*
X35635Y-32374D01*
X35538Y-32140D01*
X35398Y-31999D01*
X35498Y-31900D01*
X36084Y-31900D01*
X36467Y-32282D01*
X36467Y-32282D01*
X36553Y-32340D01*
X36596Y-32369D01*
X36596Y-32369D01*
X36750Y-32400D01*
X37034Y-32400D01*
G54D10*
G36*
X39268Y-48010D02*
X38639Y-48639D01*
X38528Y-48804D01*
X38490Y-49000D01*
X38490Y-55288D01*
X38122Y-55655D01*
X38134Y-55626D01*
X38135Y-55374D01*
X38038Y-55140D01*
X37898Y-54999D01*
X38038Y-54860D01*
X38134Y-54626D01*
X38135Y-54374D01*
X38038Y-54140D01*
X37860Y-53961D01*
X37626Y-53865D01*
X37374Y-53864D01*
X37140Y-53961D01*
X37112Y-53990D01*
X36500Y-53990D01*
X33994Y-53990D01*
X33902Y-53898D01*
X33641Y-53790D01*
X33359Y-53789D01*
X33104Y-53895D01*
X33054Y-53844D01*
X32921Y-53790D01*
X32778Y-53789D01*
X32120Y-53789D01*
X32120Y-53601D01*
X32711Y-53010D01*
X34005Y-53010D01*
X34097Y-53101D01*
X34358Y-53209D01*
X34640Y-53210D01*
X34895Y-53104D01*
X34945Y-53155D01*
X35078Y-53209D01*
X35221Y-53210D01*
X35921Y-53210D01*
X36053Y-53155D01*
X36155Y-53054D01*
X36188Y-52972D01*
X36195Y-52971D01*
X36195Y-52971D01*
X36360Y-52860D01*
X37170Y-52050D01*
X37373Y-52134D01*
X37625Y-52135D01*
X37859Y-52038D01*
X38038Y-51860D01*
X38134Y-51626D01*
X38135Y-51374D01*
X38038Y-51140D01*
X37898Y-50999D01*
X38038Y-50860D01*
X38134Y-50626D01*
X38135Y-50374D01*
X38038Y-50140D01*
X37978Y-50080D01*
X37978Y-50080D01*
X38080Y-49979D01*
X38134Y-49846D01*
X38135Y-49703D01*
X38135Y-49153D01*
X38080Y-49021D01*
X37979Y-48919D01*
X37846Y-48865D01*
X37703Y-48864D01*
X37153Y-48864D01*
X37021Y-48919D01*
X36919Y-49020D01*
X36865Y-49153D01*
X36864Y-49296D01*
X36864Y-49846D01*
X36919Y-49978D01*
X37020Y-50080D01*
X37021Y-50080D01*
X36961Y-50139D01*
X36865Y-50373D01*
X36864Y-50625D01*
X36961Y-50859D01*
X37091Y-50990D01*
X37000Y-50990D01*
X36804Y-51028D01*
X36639Y-51139D01*
X35969Y-51809D01*
X35921Y-51790D01*
X35778Y-51789D01*
X35078Y-51789D01*
X34946Y-51844D01*
X34895Y-51895D01*
X34641Y-51790D01*
X34359Y-51789D01*
X34098Y-51897D01*
X34005Y-51990D01*
X33100Y-51990D01*
X33195Y-51971D01*
X33195Y-51971D01*
X33360Y-51860D01*
X33860Y-51360D01*
X33971Y-51195D01*
X33971Y-51195D01*
X33972Y-51188D01*
X33972Y-51188D01*
X34053Y-51155D01*
X34155Y-51054D01*
X34209Y-50921D01*
X34210Y-50778D01*
X34210Y-50078D01*
X34155Y-49946D01*
X34054Y-49844D01*
X34010Y-49826D01*
X34010Y-49711D01*
X34511Y-49210D01*
X34921Y-49210D01*
X35053Y-49155D01*
X35155Y-49054D01*
X35209Y-48921D01*
X35210Y-48778D01*
X35210Y-48511D01*
X35711Y-48010D01*
X39268Y-48010D01*
X39268Y-48010D01*
G37*
G54D24*
X39268Y-48010D02*
X38639Y-48639D01*
X38528Y-48804D01*
X38490Y-49000D01*
X38490Y-55288D01*
X38122Y-55655D01*
X38134Y-55626D01*
X38135Y-55374D01*
X38038Y-55140D01*
X37898Y-54999D01*
X38038Y-54860D01*
X38134Y-54626D01*
X38135Y-54374D01*
X38038Y-54140D01*
X37860Y-53961D01*
X37626Y-53865D01*
X37374Y-53864D01*
X37140Y-53961D01*
X37112Y-53990D01*
X36500Y-53990D01*
X33994Y-53990D01*
X33902Y-53898D01*
X33641Y-53790D01*
X33359Y-53789D01*
X33104Y-53895D01*
X33054Y-53844D01*
X32921Y-53790D01*
X32778Y-53789D01*
X32120Y-53789D01*
X32120Y-53601D01*
X32711Y-53010D01*
X34005Y-53010D01*
X34097Y-53101D01*
X34358Y-53209D01*
X34640Y-53210D01*
X34895Y-53104D01*
X34945Y-53155D01*
X35078Y-53209D01*
X35221Y-53210D01*
X35921Y-53210D01*
X36053Y-53155D01*
X36155Y-53054D01*
X36188Y-52972D01*
X36195Y-52971D01*
X36195Y-52971D01*
X36360Y-52860D01*
X37170Y-52050D01*
X37373Y-52134D01*
X37625Y-52135D01*
X37859Y-52038D01*
X38038Y-51860D01*
X38134Y-51626D01*
X38135Y-51374D01*
X38038Y-51140D01*
X37898Y-50999D01*
X38038Y-50860D01*
X38134Y-50626D01*
X38135Y-50374D01*
X38038Y-50140D01*
X37978Y-50080D01*
X37978Y-50080D01*
X38080Y-49979D01*
X38134Y-49846D01*
X38135Y-49703D01*
X38135Y-49153D01*
X38080Y-49021D01*
X37979Y-48919D01*
X37846Y-48865D01*
X37703Y-48864D01*
X37153Y-48864D01*
X37021Y-48919D01*
X36919Y-49020D01*
X36865Y-49153D01*
X36864Y-49296D01*
X36864Y-49846D01*
X36919Y-49978D01*
X37020Y-50080D01*
X37021Y-50080D01*
X36961Y-50139D01*
X36865Y-50373D01*
X36864Y-50625D01*
X36961Y-50859D01*
X37091Y-50990D01*
X37000Y-50990D01*
X36804Y-51028D01*
X36639Y-51139D01*
X35969Y-51809D01*
X35921Y-51790D01*
X35778Y-51789D01*
X35078Y-51789D01*
X34946Y-51844D01*
X34895Y-51895D01*
X34641Y-51790D01*
X34359Y-51789D01*
X34098Y-51897D01*
X34005Y-51990D01*
X33100Y-51990D01*
X33195Y-51971D01*
X33195Y-51971D01*
X33360Y-51860D01*
X33860Y-51360D01*
X33971Y-51195D01*
X33971Y-51195D01*
X33972Y-51188D01*
X33972Y-51188D01*
X34053Y-51155D01*
X34155Y-51054D01*
X34209Y-50921D01*
X34210Y-50778D01*
X34210Y-50078D01*
X34155Y-49946D01*
X34054Y-49844D01*
X34010Y-49826D01*
X34010Y-49711D01*
X34511Y-49210D01*
X34921Y-49210D01*
X35053Y-49155D01*
X35155Y-49054D01*
X35209Y-48921D01*
X35210Y-48778D01*
X35210Y-48511D01*
X35711Y-48010D01*
X39268Y-48010D01*
G54D10*
G36*
X44600Y-38119D02*
X44500Y-38100D01*
X35497Y-38100D01*
X35398Y-37999D01*
X35538Y-37860D01*
X35596Y-37719D01*
X36860Y-36455D01*
X36859Y-36626D01*
X36957Y-36862D01*
X37136Y-37042D01*
X37372Y-37139D01*
X37626Y-37140D01*
X37862Y-37042D01*
X38042Y-36863D01*
X38139Y-36627D01*
X38140Y-36400D01*
X39365Y-36400D01*
X39364Y-36625D01*
X39461Y-36859D01*
X39639Y-37038D01*
X39873Y-37134D01*
X40125Y-37135D01*
X40359Y-37038D01*
X40538Y-36860D01*
X40634Y-36626D01*
X40635Y-36400D01*
X43334Y-36400D01*
X44600Y-37665D01*
X44600Y-38119D01*
X44600Y-38119D01*
G37*
G54D24*
X44600Y-38119D02*
X44500Y-38100D01*
X35497Y-38100D01*
X35398Y-37999D01*
X35538Y-37860D01*
X35596Y-37719D01*
X36860Y-36455D01*
X36859Y-36626D01*
X36957Y-36862D01*
X37136Y-37042D01*
X37372Y-37139D01*
X37626Y-37140D01*
X37862Y-37042D01*
X38042Y-36863D01*
X38139Y-36627D01*
X38140Y-36400D01*
X39365Y-36400D01*
X39364Y-36625D01*
X39461Y-36859D01*
X39639Y-37038D01*
X39873Y-37134D01*
X40125Y-37135D01*
X40359Y-37038D01*
X40538Y-36860D01*
X40634Y-36626D01*
X40635Y-36400D01*
X43334Y-36400D01*
X44600Y-37665D01*
X44600Y-38119D01*
G54D10*
G36*
X45566Y-30500D02*
X45466Y-30600D01*
X38665Y-30600D01*
X38150Y-30084D01*
X38150Y-30042D01*
X38373Y-30134D01*
X38625Y-30135D01*
X38859Y-30038D01*
X39038Y-29860D01*
X39134Y-29626D01*
X39135Y-29374D01*
X39038Y-29140D01*
X38898Y-28999D01*
X38998Y-28900D01*
X44334Y-28900D01*
X45340Y-29905D01*
X45339Y-30130D01*
X45440Y-30373D01*
X45566Y-30500D01*
X45566Y-30500D01*
G37*
G54D24*
X45566Y-30500D02*
X45466Y-30600D01*
X38665Y-30600D01*
X38150Y-30084D01*
X38150Y-30042D01*
X38373Y-30134D01*
X38625Y-30135D01*
X38859Y-30038D01*
X39038Y-29860D01*
X39134Y-29626D01*
X39135Y-29374D01*
X39038Y-29140D01*
X38898Y-28999D01*
X38998Y-28900D01*
X44334Y-28900D01*
X45340Y-29905D01*
X45339Y-30130D01*
X45440Y-30373D01*
X45566Y-30500D01*
G54D10*
G36*
X45566Y-41000D02*
X45466Y-41100D01*
X40250Y-41100D01*
X40122Y-41125D01*
X40096Y-41130D01*
X39967Y-41217D01*
X38717Y-42467D01*
X38630Y-42596D01*
X38625Y-42622D01*
X38600Y-42750D01*
X38600Y-43223D01*
X38559Y-43126D01*
X38374Y-42940D01*
X38131Y-42840D01*
X37869Y-42839D01*
X37626Y-42940D01*
X37440Y-43125D01*
X37340Y-43368D01*
X37339Y-43630D01*
X37440Y-43873D01*
X37545Y-43978D01*
X37415Y-44108D01*
X37310Y-44362D01*
X37309Y-44636D01*
X37414Y-44890D01*
X37524Y-45000D01*
X37424Y-45100D01*
X35915Y-45100D01*
X35900Y-45084D01*
X35900Y-44000D01*
X35869Y-43846D01*
X35869Y-43846D01*
X35840Y-43803D01*
X35782Y-43717D01*
X35782Y-43717D01*
X35634Y-43569D01*
X35635Y-43374D01*
X35538Y-43140D01*
X35398Y-42999D01*
X35538Y-42860D01*
X35634Y-42626D01*
X35635Y-42374D01*
X35538Y-42140D01*
X35398Y-41999D01*
X35538Y-41860D01*
X35634Y-41626D01*
X35635Y-41374D01*
X35538Y-41140D01*
X35398Y-40999D01*
X35538Y-40860D01*
X35634Y-40626D01*
X35635Y-40374D01*
X35538Y-40140D01*
X35398Y-39999D01*
X35538Y-39860D01*
X35634Y-39626D01*
X35635Y-39374D01*
X35538Y-39140D01*
X35398Y-38999D01*
X35498Y-38900D01*
X44334Y-38900D01*
X44850Y-39415D01*
X44850Y-39750D01*
X44875Y-39877D01*
X44880Y-39903D01*
X44967Y-40032D01*
X45340Y-40405D01*
X45339Y-40630D01*
X45440Y-40873D01*
X45566Y-41000D01*
X45566Y-41000D01*
G37*
G54D24*
X45566Y-41000D02*
X45466Y-41100D01*
X40250Y-41100D01*
X40122Y-41125D01*
X40096Y-41130D01*
X39967Y-41217D01*
X38717Y-42467D01*
X38630Y-42596D01*
X38625Y-42622D01*
X38600Y-42750D01*
X38600Y-43223D01*
X38559Y-43126D01*
X38374Y-42940D01*
X38131Y-42840D01*
X37869Y-42839D01*
X37626Y-42940D01*
X37440Y-43125D01*
X37340Y-43368D01*
X37339Y-43630D01*
X37440Y-43873D01*
X37545Y-43978D01*
X37415Y-44108D01*
X37310Y-44362D01*
X37309Y-44636D01*
X37414Y-44890D01*
X37524Y-45000D01*
X37424Y-45100D01*
X35915Y-45100D01*
X35900Y-45084D01*
X35900Y-44000D01*
X35869Y-43846D01*
X35869Y-43846D01*
X35840Y-43803D01*
X35782Y-43717D01*
X35782Y-43717D01*
X35634Y-43569D01*
X35635Y-43374D01*
X35538Y-43140D01*
X35398Y-42999D01*
X35538Y-42860D01*
X35634Y-42626D01*
X35635Y-42374D01*
X35538Y-42140D01*
X35398Y-41999D01*
X35538Y-41860D01*
X35634Y-41626D01*
X35635Y-41374D01*
X35538Y-41140D01*
X35398Y-40999D01*
X35538Y-40860D01*
X35634Y-40626D01*
X35635Y-40374D01*
X35538Y-40140D01*
X35398Y-39999D01*
X35538Y-39860D01*
X35634Y-39626D01*
X35635Y-39374D01*
X35538Y-39140D01*
X35398Y-38999D01*
X35498Y-38900D01*
X44334Y-38900D01*
X44850Y-39415D01*
X44850Y-39750D01*
X44875Y-39877D01*
X44880Y-39903D01*
X44967Y-40032D01*
X45340Y-40405D01*
X45339Y-40630D01*
X45440Y-40873D01*
X45566Y-41000D01*
G54D10*
G36*
X61880Y-26981D02*
X61860Y-26961D01*
X61626Y-26865D01*
X61374Y-26864D01*
X61140Y-26961D01*
X60999Y-27101D01*
X60860Y-26961D01*
X60626Y-26865D01*
X60374Y-26864D01*
X60140Y-26961D01*
X59999Y-27101D01*
X59860Y-26961D01*
X59626Y-26865D01*
X59374Y-26864D01*
X59210Y-26932D01*
X59210Y-23359D01*
X59210Y-21359D01*
X59102Y-21098D01*
X58902Y-20898D01*
X58641Y-20790D01*
X58359Y-20789D01*
X58098Y-20897D01*
X57898Y-21097D01*
X57790Y-21358D01*
X57789Y-21640D01*
X57897Y-21901D01*
X58097Y-22101D01*
X58358Y-22209D01*
X58640Y-22210D01*
X58901Y-22102D01*
X59101Y-21902D01*
X59209Y-21641D01*
X59210Y-21359D01*
X59210Y-23359D01*
X59102Y-23098D01*
X58902Y-22898D01*
X58641Y-22790D01*
X58359Y-22789D01*
X58098Y-22897D01*
X57898Y-23097D01*
X57790Y-23358D01*
X57789Y-23640D01*
X57897Y-23901D01*
X58097Y-24101D01*
X58358Y-24209D01*
X58640Y-24210D01*
X58901Y-24102D01*
X59101Y-23902D01*
X59209Y-23641D01*
X59210Y-23359D01*
X59210Y-26932D01*
X59140Y-26961D01*
X58999Y-27101D01*
X58860Y-26961D01*
X58626Y-26865D01*
X58374Y-26864D01*
X58160Y-26953D01*
X58160Y-25869D01*
X58059Y-25626D01*
X57874Y-25440D01*
X57631Y-25340D01*
X57369Y-25339D01*
X57135Y-25436D01*
X57135Y-21374D01*
X57038Y-21140D01*
X56860Y-20961D01*
X56626Y-20865D01*
X56374Y-20864D01*
X56140Y-20961D01*
X55961Y-21139D01*
X55865Y-21373D01*
X55864Y-21625D01*
X55961Y-21859D01*
X56139Y-22038D01*
X56373Y-22134D01*
X56625Y-22135D01*
X56859Y-22038D01*
X57038Y-21860D01*
X57134Y-21626D01*
X57135Y-21374D01*
X57135Y-25436D01*
X57126Y-25440D01*
X57021Y-25545D01*
X56891Y-25415D01*
X56637Y-25310D01*
X56363Y-25309D01*
X56109Y-25414D01*
X55999Y-25524D01*
X55891Y-25415D01*
X55637Y-25310D01*
X55363Y-25309D01*
X55135Y-25404D01*
X55135Y-24703D01*
X55135Y-24153D01*
X55080Y-24021D01*
X54979Y-23919D01*
X54846Y-23865D01*
X54703Y-23864D01*
X54153Y-23864D01*
X54021Y-23919D01*
X53919Y-24020D01*
X53865Y-24153D01*
X53864Y-24296D01*
X53864Y-24846D01*
X53919Y-24978D01*
X54020Y-25080D01*
X54153Y-25134D01*
X54296Y-25135D01*
X54846Y-25135D01*
X54978Y-25080D01*
X55080Y-24979D01*
X55134Y-24846D01*
X55135Y-24703D01*
X55135Y-25404D01*
X55109Y-25414D01*
X54915Y-25608D01*
X54810Y-25862D01*
X54809Y-26136D01*
X54914Y-26390D01*
X55108Y-26584D01*
X55362Y-26689D01*
X55636Y-26690D01*
X55890Y-26585D01*
X56000Y-26475D01*
X56108Y-26584D01*
X56362Y-26689D01*
X56636Y-26690D01*
X56890Y-26585D01*
X57021Y-26454D01*
X57125Y-26559D01*
X57368Y-26659D01*
X57630Y-26660D01*
X57873Y-26559D01*
X58059Y-26374D01*
X58159Y-26131D01*
X58160Y-25869D01*
X58160Y-26953D01*
X58140Y-26961D01*
X57999Y-27101D01*
X57860Y-26961D01*
X57626Y-26865D01*
X57374Y-26864D01*
X57140Y-26961D01*
X56999Y-27101D01*
X56860Y-26961D01*
X56626Y-26865D01*
X56374Y-26864D01*
X56140Y-26961D01*
X55999Y-27101D01*
X55860Y-26961D01*
X55626Y-26865D01*
X55374Y-26864D01*
X55140Y-26961D01*
X54999Y-27101D01*
X54860Y-26961D01*
X54626Y-26865D01*
X54374Y-26864D01*
X54140Y-26961D01*
X53999Y-27101D01*
X53860Y-26961D01*
X53626Y-26865D01*
X53374Y-26864D01*
X53140Y-26961D01*
X52999Y-27101D01*
X52860Y-26961D01*
X52635Y-26868D01*
X52635Y-24703D01*
X52635Y-24153D01*
X52580Y-24021D01*
X52479Y-23919D01*
X52346Y-23865D01*
X52203Y-23864D01*
X51653Y-23864D01*
X51521Y-23919D01*
X51419Y-24020D01*
X51365Y-24153D01*
X51364Y-24296D01*
X51364Y-24846D01*
X51419Y-24978D01*
X51520Y-25080D01*
X51653Y-25134D01*
X51796Y-25135D01*
X52346Y-25135D01*
X52478Y-25080D01*
X52580Y-24979D01*
X52634Y-24846D01*
X52635Y-24703D01*
X52635Y-26868D01*
X52626Y-26865D01*
X52374Y-26864D01*
X52140Y-26961D01*
X51999Y-27101D01*
X51860Y-26961D01*
X51626Y-26865D01*
X51374Y-26864D01*
X51140Y-26961D01*
X50999Y-27101D01*
X50860Y-26961D01*
X50626Y-26865D01*
X50374Y-26864D01*
X50140Y-26961D01*
X50010Y-27091D01*
X50010Y-26500D01*
X50010Y-24211D01*
X52086Y-22135D01*
X52346Y-22135D01*
X52478Y-22080D01*
X52580Y-21979D01*
X52634Y-21846D01*
X52635Y-21703D01*
X52635Y-21153D01*
X52580Y-21021D01*
X52479Y-20919D01*
X52346Y-20865D01*
X52203Y-20864D01*
X51653Y-20864D01*
X51521Y-20919D01*
X51419Y-21020D01*
X51365Y-21153D01*
X51364Y-21296D01*
X51364Y-21413D01*
X50710Y-22068D01*
X50710Y-21778D01*
X50710Y-21078D01*
X50655Y-20946D01*
X50554Y-20844D01*
X50421Y-20790D01*
X50278Y-20789D01*
X49578Y-20789D01*
X49446Y-20844D01*
X49344Y-20945D01*
X49290Y-21078D01*
X49289Y-21221D01*
X49289Y-21921D01*
X49344Y-22053D01*
X49445Y-22155D01*
X49578Y-22209D01*
X49721Y-22210D01*
X50421Y-22210D01*
X50553Y-22155D01*
X50655Y-22054D01*
X50709Y-21921D01*
X50710Y-21778D01*
X50710Y-22068D01*
X49139Y-23639D01*
X49028Y-23804D01*
X48990Y-24000D01*
X48990Y-26500D01*
X48990Y-27111D01*
X48961Y-27139D01*
X48865Y-27373D01*
X48864Y-27625D01*
X48961Y-27859D01*
X48990Y-27887D01*
X48990Y-28111D01*
X48961Y-28139D01*
X48865Y-28373D01*
X48864Y-28625D01*
X48961Y-28859D01*
X48990Y-28887D01*
X48990Y-29111D01*
X48961Y-29139D01*
X48865Y-29373D01*
X48864Y-29625D01*
X48961Y-29859D01*
X48990Y-29887D01*
X48990Y-30111D01*
X48961Y-30139D01*
X48865Y-30373D01*
X48864Y-30625D01*
X48961Y-30859D01*
X48990Y-30887D01*
X48990Y-30950D01*
X48919Y-31020D01*
X48865Y-31153D01*
X48864Y-31296D01*
X48864Y-31846D01*
X48919Y-31978D01*
X48990Y-32049D01*
X48990Y-44000D01*
X48990Y-44538D01*
X48659Y-44868D01*
X48660Y-44728D01*
X48660Y-44128D01*
X48605Y-43996D01*
X48521Y-43912D01*
X48559Y-43874D01*
X48659Y-43631D01*
X48660Y-43369D01*
X48559Y-43126D01*
X48433Y-42999D01*
X48559Y-42874D01*
X48659Y-42631D01*
X48660Y-42369D01*
X48559Y-42126D01*
X48433Y-41999D01*
X48559Y-41874D01*
X48659Y-41631D01*
X48660Y-41369D01*
X48559Y-41126D01*
X48433Y-40999D01*
X48559Y-40874D01*
X48659Y-40631D01*
X48660Y-40369D01*
X48559Y-40126D01*
X48433Y-39999D01*
X48559Y-39874D01*
X48659Y-39631D01*
X48660Y-39369D01*
X48559Y-39126D01*
X48433Y-38999D01*
X48559Y-38874D01*
X48659Y-38631D01*
X48660Y-38369D01*
X48559Y-38126D01*
X48433Y-37999D01*
X48559Y-37874D01*
X48659Y-37631D01*
X48660Y-37369D01*
X48559Y-37126D01*
X48374Y-36940D01*
X48131Y-36840D01*
X47869Y-36839D01*
X47626Y-36940D01*
X47499Y-37066D01*
X47374Y-36940D01*
X47131Y-36840D01*
X46869Y-36839D01*
X46626Y-36940D01*
X46499Y-37066D01*
X46374Y-36940D01*
X46131Y-36840D01*
X45905Y-36839D01*
X45725Y-36660D01*
X45771Y-36660D01*
X46371Y-36660D01*
X46500Y-36606D01*
X46628Y-36659D01*
X46771Y-36660D01*
X47371Y-36660D01*
X47500Y-36606D01*
X47628Y-36659D01*
X47771Y-36660D01*
X48371Y-36660D01*
X48503Y-36605D01*
X48605Y-36504D01*
X48659Y-36371D01*
X48660Y-36228D01*
X48660Y-35628D01*
X48605Y-35496D01*
X48521Y-35412D01*
X48559Y-35374D01*
X48659Y-35131D01*
X48660Y-34869D01*
X48559Y-34626D01*
X48433Y-34499D01*
X48559Y-34374D01*
X48659Y-34131D01*
X48660Y-33869D01*
X48559Y-33626D01*
X48433Y-33499D01*
X48559Y-33374D01*
X48659Y-33131D01*
X48660Y-32869D01*
X48559Y-32626D01*
X48433Y-32499D01*
X48559Y-32374D01*
X48659Y-32131D01*
X48660Y-31869D01*
X48559Y-31626D01*
X48433Y-31499D01*
X48559Y-31374D01*
X48659Y-31131D01*
X48660Y-30869D01*
X48559Y-30626D01*
X48433Y-30499D01*
X48559Y-30374D01*
X48659Y-30131D01*
X48660Y-29869D01*
X48559Y-29626D01*
X48433Y-29499D01*
X48559Y-29374D01*
X48659Y-29131D01*
X48660Y-28869D01*
X48559Y-28626D01*
X48374Y-28440D01*
X48131Y-28340D01*
X47869Y-28339D01*
X47626Y-28440D01*
X47499Y-28566D01*
X47374Y-28440D01*
X47131Y-28340D01*
X46869Y-28339D01*
X46626Y-28440D01*
X46499Y-28566D01*
X46374Y-28440D01*
X46131Y-28340D01*
X45905Y-28339D01*
X44782Y-27217D01*
X44653Y-27130D01*
X44627Y-27125D01*
X44500Y-27100D01*
X38997Y-27100D01*
X38860Y-26961D01*
X38626Y-26865D01*
X38430Y-26864D01*
X36782Y-25217D01*
X36653Y-25130D01*
X36627Y-25125D01*
X36500Y-25100D01*
X35497Y-25100D01*
X35360Y-24961D01*
X35126Y-24865D01*
X34874Y-24864D01*
X34640Y-24961D01*
X34461Y-25139D01*
X34365Y-25373D01*
X34364Y-25625D01*
X34461Y-25859D01*
X34601Y-26000D01*
X34461Y-26139D01*
X34365Y-26373D01*
X34364Y-26625D01*
X34461Y-26859D01*
X34601Y-27000D01*
X34461Y-27139D01*
X34365Y-27373D01*
X34364Y-27625D01*
X34461Y-27859D01*
X34601Y-28000D01*
X34461Y-28139D01*
X34365Y-28373D01*
X34364Y-28625D01*
X34461Y-28859D01*
X34601Y-29000D01*
X34461Y-29139D01*
X34365Y-29373D01*
X34364Y-29625D01*
X34461Y-29859D01*
X34601Y-30000D01*
X34461Y-30139D01*
X34365Y-30373D01*
X34364Y-30625D01*
X34461Y-30859D01*
X34601Y-31000D01*
X34461Y-31139D01*
X34365Y-31373D01*
X34364Y-31625D01*
X34461Y-31859D01*
X34601Y-32000D01*
X34461Y-32139D01*
X34365Y-32373D01*
X34364Y-32625D01*
X34461Y-32859D01*
X34601Y-33000D01*
X34461Y-33139D01*
X34365Y-33373D01*
X34364Y-33625D01*
X34461Y-33859D01*
X34639Y-34038D01*
X34873Y-34134D01*
X35125Y-34135D01*
X35359Y-34038D01*
X35538Y-33860D01*
X35634Y-33626D01*
X35635Y-33400D01*
X37000Y-33400D01*
X37000Y-33399D01*
X37127Y-33374D01*
X37153Y-33369D01*
X37153Y-33369D01*
X37282Y-33282D01*
X37915Y-32650D01*
X43584Y-32650D01*
X44100Y-33165D01*
X44100Y-34500D01*
X44125Y-34627D01*
X44130Y-34653D01*
X44217Y-34782D01*
X45339Y-35905D01*
X45339Y-36274D01*
X44282Y-35217D01*
X44153Y-35130D01*
X44127Y-35125D01*
X44000Y-35100D01*
X40210Y-35100D01*
X40359Y-35038D01*
X40538Y-34860D01*
X40634Y-34626D01*
X40635Y-34374D01*
X40538Y-34140D01*
X40360Y-33961D01*
X40126Y-33865D01*
X39874Y-33864D01*
X39640Y-33961D01*
X39461Y-34139D01*
X39365Y-34373D01*
X39364Y-34625D01*
X39461Y-34859D01*
X39639Y-35038D01*
X39789Y-35100D01*
X37723Y-35100D01*
X37862Y-35042D01*
X38042Y-34863D01*
X38139Y-34627D01*
X38140Y-34373D01*
X38042Y-34137D01*
X37863Y-33957D01*
X37627Y-33860D01*
X37373Y-33859D01*
X37137Y-33957D01*
X36957Y-34136D01*
X36860Y-34372D01*
X36859Y-34626D01*
X36957Y-34862D01*
X37136Y-35042D01*
X37276Y-35100D01*
X35497Y-35100D01*
X35360Y-34961D01*
X35126Y-34865D01*
X34874Y-34864D01*
X34640Y-34961D01*
X34461Y-35139D01*
X34365Y-35373D01*
X34364Y-35625D01*
X34461Y-35859D01*
X34601Y-36000D01*
X34461Y-36139D01*
X34365Y-36373D01*
X34364Y-36625D01*
X34461Y-36859D01*
X34601Y-37000D01*
X34461Y-37139D01*
X34365Y-37373D01*
X34364Y-37625D01*
X34461Y-37859D01*
X34601Y-38000D01*
X34461Y-38139D01*
X34365Y-38373D01*
X34364Y-38625D01*
X34461Y-38859D01*
X34601Y-39000D01*
X34461Y-39139D01*
X34365Y-39373D01*
X34364Y-39625D01*
X34461Y-39859D01*
X34601Y-40000D01*
X34461Y-40139D01*
X34365Y-40373D01*
X34364Y-40625D01*
X34461Y-40859D01*
X34601Y-41000D01*
X34501Y-41100D01*
X34415Y-41100D01*
X33900Y-40584D01*
X33900Y-33000D01*
X33900Y-23915D01*
X34280Y-23535D01*
X34355Y-23535D01*
X34552Y-23453D01*
X34703Y-23303D01*
X34784Y-23106D01*
X34785Y-22894D01*
X34736Y-22777D01*
X34910Y-22777D01*
X34993Y-22860D01*
X35159Y-22971D01*
X35159Y-22971D01*
X35354Y-23010D01*
X38000Y-23010D01*
X38038Y-23010D01*
X38927Y-23898D01*
X38846Y-23865D01*
X38703Y-23864D01*
X38153Y-23864D01*
X38021Y-23919D01*
X37919Y-24020D01*
X37865Y-24153D01*
X37864Y-24296D01*
X37864Y-24846D01*
X37919Y-24978D01*
X38020Y-25080D01*
X38021Y-25080D01*
X37961Y-25139D01*
X37865Y-25373D01*
X37864Y-25625D01*
X37961Y-25859D01*
X38139Y-26038D01*
X38373Y-26134D01*
X38625Y-26135D01*
X38859Y-26038D01*
X39038Y-25860D01*
X39134Y-25626D01*
X39135Y-25374D01*
X39038Y-25140D01*
X38978Y-25080D01*
X38978Y-25080D01*
X39080Y-24979D01*
X39134Y-24846D01*
X39135Y-24703D01*
X39135Y-24153D01*
X39101Y-24072D01*
X40389Y-25360D01*
X40554Y-25471D01*
X40554Y-25471D01*
X40750Y-25510D01*
X44500Y-25510D01*
X44695Y-25471D01*
X44695Y-25471D01*
X44860Y-25360D01*
X45000Y-25221D01*
X47364Y-27586D01*
X47364Y-27625D01*
X47461Y-27859D01*
X47639Y-28038D01*
X47873Y-28134D01*
X48125Y-28135D01*
X48359Y-28038D01*
X48538Y-27860D01*
X48634Y-27626D01*
X48635Y-27374D01*
X48538Y-27140D01*
X48398Y-26999D01*
X48538Y-26860D01*
X48634Y-26626D01*
X48635Y-26374D01*
X48538Y-26140D01*
X48478Y-26080D01*
X48478Y-26080D01*
X48580Y-25979D01*
X48634Y-25846D01*
X48635Y-25703D01*
X48635Y-25153D01*
X48635Y-24203D01*
X48635Y-23653D01*
X48580Y-23521D01*
X48479Y-23419D01*
X48346Y-23365D01*
X48203Y-23364D01*
X47653Y-23364D01*
X47521Y-23419D01*
X47419Y-23520D01*
X47365Y-23653D01*
X47364Y-23796D01*
X47364Y-24346D01*
X47419Y-24478D01*
X47520Y-24580D01*
X47653Y-24634D01*
X47796Y-24635D01*
X48346Y-24635D01*
X48478Y-24580D01*
X48580Y-24479D01*
X48634Y-24346D01*
X48635Y-24203D01*
X48635Y-25153D01*
X48580Y-25021D01*
X48479Y-24919D01*
X48346Y-24865D01*
X48203Y-24864D01*
X47653Y-24864D01*
X47521Y-24919D01*
X47419Y-25020D01*
X47365Y-25153D01*
X47364Y-25296D01*
X47364Y-25846D01*
X47419Y-25978D01*
X47520Y-26080D01*
X47521Y-26080D01*
X47461Y-26139D01*
X47432Y-26211D01*
X46710Y-25488D01*
X46710Y-21359D01*
X46602Y-21098D01*
X46402Y-20898D01*
X46141Y-20790D01*
X45859Y-20789D01*
X45598Y-20897D01*
X45398Y-21097D01*
X45290Y-21358D01*
X45289Y-21640D01*
X45397Y-21901D01*
X45597Y-22101D01*
X45858Y-22209D01*
X46140Y-22210D01*
X46401Y-22102D01*
X46601Y-21902D01*
X46709Y-21641D01*
X46710Y-21359D01*
X46710Y-25488D01*
X45856Y-24635D01*
X46346Y-24635D01*
X46478Y-24580D01*
X46580Y-24479D01*
X46634Y-24346D01*
X46635Y-24203D01*
X46635Y-23653D01*
X46580Y-23521D01*
X46479Y-23419D01*
X46346Y-23365D01*
X46203Y-23364D01*
X45653Y-23364D01*
X45521Y-23419D01*
X45438Y-23502D01*
X45304Y-23528D01*
X45249Y-23565D01*
X45139Y-23639D01*
X44889Y-23889D01*
X44889Y-23889D01*
X44288Y-24490D01*
X43283Y-24490D01*
X43298Y-24451D01*
X43299Y-24308D01*
X43299Y-22930D01*
X43244Y-22798D01*
X43143Y-22696D01*
X43010Y-22642D01*
X42867Y-22641D01*
X41489Y-22641D01*
X41357Y-22696D01*
X41255Y-22797D01*
X41201Y-22930D01*
X41200Y-23073D01*
X41200Y-24451D01*
X41216Y-24490D01*
X40961Y-24490D01*
X38610Y-22139D01*
X38445Y-22028D01*
X38250Y-21990D01*
X38000Y-21990D01*
X37120Y-21990D01*
X37120Y-20620D01*
X60239Y-20620D01*
X60017Y-20842D01*
X59840Y-21268D01*
X59839Y-21729D01*
X60016Y-22156D01*
X60342Y-22482D01*
X60768Y-22659D01*
X61229Y-22660D01*
X61656Y-22483D01*
X61880Y-22260D01*
X61880Y-26981D01*
X61880Y-26981D01*
G37*
G54D24*
X61880Y-26981D02*
X61860Y-26961D01*
X61626Y-26865D01*
X61374Y-26864D01*
X61140Y-26961D01*
X60999Y-27101D01*
X60860Y-26961D01*
X60626Y-26865D01*
X60374Y-26864D01*
X60140Y-26961D01*
X59999Y-27101D01*
X59860Y-26961D01*
X59626Y-26865D01*
X59374Y-26864D01*
X59210Y-26932D01*
X59210Y-23359D01*
X59210Y-21359D01*
X59102Y-21098D01*
X58902Y-20898D01*
X58641Y-20790D01*
X58359Y-20789D01*
X58098Y-20897D01*
X57898Y-21097D01*
X57790Y-21358D01*
X57789Y-21640D01*
X57897Y-21901D01*
X58097Y-22101D01*
X58358Y-22209D01*
X58640Y-22210D01*
X58901Y-22102D01*
X59101Y-21902D01*
X59209Y-21641D01*
X59210Y-21359D01*
X59210Y-23359D01*
X59102Y-23098D01*
X58902Y-22898D01*
X58641Y-22790D01*
X58359Y-22789D01*
X58098Y-22897D01*
X57898Y-23097D01*
X57790Y-23358D01*
X57789Y-23640D01*
X57897Y-23901D01*
X58097Y-24101D01*
X58358Y-24209D01*
X58640Y-24210D01*
X58901Y-24102D01*
X59101Y-23902D01*
X59209Y-23641D01*
X59210Y-23359D01*
X59210Y-26932D01*
X59140Y-26961D01*
X58999Y-27101D01*
X58860Y-26961D01*
X58626Y-26865D01*
X58374Y-26864D01*
X58160Y-26953D01*
X58160Y-25869D01*
X58059Y-25626D01*
X57874Y-25440D01*
X57631Y-25340D01*
X57369Y-25339D01*
X57135Y-25436D01*
X57135Y-21374D01*
X57038Y-21140D01*
X56860Y-20961D01*
X56626Y-20865D01*
X56374Y-20864D01*
X56140Y-20961D01*
X55961Y-21139D01*
X55865Y-21373D01*
X55864Y-21625D01*
X55961Y-21859D01*
X56139Y-22038D01*
X56373Y-22134D01*
X56625Y-22135D01*
X56859Y-22038D01*
X57038Y-21860D01*
X57134Y-21626D01*
X57135Y-21374D01*
X57135Y-25436D01*
X57126Y-25440D01*
X57021Y-25545D01*
X56891Y-25415D01*
X56637Y-25310D01*
X56363Y-25309D01*
X56109Y-25414D01*
X55999Y-25524D01*
X55891Y-25415D01*
X55637Y-25310D01*
X55363Y-25309D01*
X55135Y-25404D01*
X55135Y-24703D01*
X55135Y-24153D01*
X55080Y-24021D01*
X54979Y-23919D01*
X54846Y-23865D01*
X54703Y-23864D01*
X54153Y-23864D01*
X54021Y-23919D01*
X53919Y-24020D01*
X53865Y-24153D01*
X53864Y-24296D01*
X53864Y-24846D01*
X53919Y-24978D01*
X54020Y-25080D01*
X54153Y-25134D01*
X54296Y-25135D01*
X54846Y-25135D01*
X54978Y-25080D01*
X55080Y-24979D01*
X55134Y-24846D01*
X55135Y-24703D01*
X55135Y-25404D01*
X55109Y-25414D01*
X54915Y-25608D01*
X54810Y-25862D01*
X54809Y-26136D01*
X54914Y-26390D01*
X55108Y-26584D01*
X55362Y-26689D01*
X55636Y-26690D01*
X55890Y-26585D01*
X56000Y-26475D01*
X56108Y-26584D01*
X56362Y-26689D01*
X56636Y-26690D01*
X56890Y-26585D01*
X57021Y-26454D01*
X57125Y-26559D01*
X57368Y-26659D01*
X57630Y-26660D01*
X57873Y-26559D01*
X58059Y-26374D01*
X58159Y-26131D01*
X58160Y-25869D01*
X58160Y-26953D01*
X58140Y-26961D01*
X57999Y-27101D01*
X57860Y-26961D01*
X57626Y-26865D01*
X57374Y-26864D01*
X57140Y-26961D01*
X56999Y-27101D01*
X56860Y-26961D01*
X56626Y-26865D01*
X56374Y-26864D01*
X56140Y-26961D01*
X55999Y-27101D01*
X55860Y-26961D01*
X55626Y-26865D01*
X55374Y-26864D01*
X55140Y-26961D01*
X54999Y-27101D01*
X54860Y-26961D01*
X54626Y-26865D01*
X54374Y-26864D01*
X54140Y-26961D01*
X53999Y-27101D01*
X53860Y-26961D01*
X53626Y-26865D01*
X53374Y-26864D01*
X53140Y-26961D01*
X52999Y-27101D01*
X52860Y-26961D01*
X52635Y-26868D01*
X52635Y-24703D01*
X52635Y-24153D01*
X52580Y-24021D01*
X52479Y-23919D01*
X52346Y-23865D01*
X52203Y-23864D01*
X51653Y-23864D01*
X51521Y-23919D01*
X51419Y-24020D01*
X51365Y-24153D01*
X51364Y-24296D01*
X51364Y-24846D01*
X51419Y-24978D01*
X51520Y-25080D01*
X51653Y-25134D01*
X51796Y-25135D01*
X52346Y-25135D01*
X52478Y-25080D01*
X52580Y-24979D01*
X52634Y-24846D01*
X52635Y-24703D01*
X52635Y-26868D01*
X52626Y-26865D01*
X52374Y-26864D01*
X52140Y-26961D01*
X51999Y-27101D01*
X51860Y-26961D01*
X51626Y-26865D01*
X51374Y-26864D01*
X51140Y-26961D01*
X50999Y-27101D01*
X50860Y-26961D01*
X50626Y-26865D01*
X50374Y-26864D01*
X50140Y-26961D01*
X50010Y-27091D01*
X50010Y-26500D01*
X50010Y-24211D01*
X52086Y-22135D01*
X52346Y-22135D01*
X52478Y-22080D01*
X52580Y-21979D01*
X52634Y-21846D01*
X52635Y-21703D01*
X52635Y-21153D01*
X52580Y-21021D01*
X52479Y-20919D01*
X52346Y-20865D01*
X52203Y-20864D01*
X51653Y-20864D01*
X51521Y-20919D01*
X51419Y-21020D01*
X51365Y-21153D01*
X51364Y-21296D01*
X51364Y-21413D01*
X50710Y-22068D01*
X50710Y-21778D01*
X50710Y-21078D01*
X50655Y-20946D01*
X50554Y-20844D01*
X50421Y-20790D01*
X50278Y-20789D01*
X49578Y-20789D01*
X49446Y-20844D01*
X49344Y-20945D01*
X49290Y-21078D01*
X49289Y-21221D01*
X49289Y-21921D01*
X49344Y-22053D01*
X49445Y-22155D01*
X49578Y-22209D01*
X49721Y-22210D01*
X50421Y-22210D01*
X50553Y-22155D01*
X50655Y-22054D01*
X50709Y-21921D01*
X50710Y-21778D01*
X50710Y-22068D01*
X49139Y-23639D01*
X49028Y-23804D01*
X48990Y-24000D01*
X48990Y-26500D01*
X48990Y-27111D01*
X48961Y-27139D01*
X48865Y-27373D01*
X48864Y-27625D01*
X48961Y-27859D01*
X48990Y-27887D01*
X48990Y-28111D01*
X48961Y-28139D01*
X48865Y-28373D01*
X48864Y-28625D01*
X48961Y-28859D01*
X48990Y-28887D01*
X48990Y-29111D01*
X48961Y-29139D01*
X48865Y-29373D01*
X48864Y-29625D01*
X48961Y-29859D01*
X48990Y-29887D01*
X48990Y-30111D01*
X48961Y-30139D01*
X48865Y-30373D01*
X48864Y-30625D01*
X48961Y-30859D01*
X48990Y-30887D01*
X48990Y-30950D01*
X48919Y-31020D01*
X48865Y-31153D01*
X48864Y-31296D01*
X48864Y-31846D01*
X48919Y-31978D01*
X48990Y-32049D01*
X48990Y-44000D01*
X48990Y-44538D01*
X48659Y-44868D01*
X48660Y-44728D01*
X48660Y-44128D01*
X48605Y-43996D01*
X48521Y-43912D01*
X48559Y-43874D01*
X48659Y-43631D01*
X48660Y-43369D01*
X48559Y-43126D01*
X48433Y-42999D01*
X48559Y-42874D01*
X48659Y-42631D01*
X48660Y-42369D01*
X48559Y-42126D01*
X48433Y-41999D01*
X48559Y-41874D01*
X48659Y-41631D01*
X48660Y-41369D01*
X48559Y-41126D01*
X48433Y-40999D01*
X48559Y-40874D01*
X48659Y-40631D01*
X48660Y-40369D01*
X48559Y-40126D01*
X48433Y-39999D01*
X48559Y-39874D01*
X48659Y-39631D01*
X48660Y-39369D01*
X48559Y-39126D01*
X48433Y-38999D01*
X48559Y-38874D01*
X48659Y-38631D01*
X48660Y-38369D01*
X48559Y-38126D01*
X48433Y-37999D01*
X48559Y-37874D01*
X48659Y-37631D01*
X48660Y-37369D01*
X48559Y-37126D01*
X48374Y-36940D01*
X48131Y-36840D01*
X47869Y-36839D01*
X47626Y-36940D01*
X47499Y-37066D01*
X47374Y-36940D01*
X47131Y-36840D01*
X46869Y-36839D01*
X46626Y-36940D01*
X46499Y-37066D01*
X46374Y-36940D01*
X46131Y-36840D01*
X45905Y-36839D01*
X45725Y-36660D01*
X45771Y-36660D01*
X46371Y-36660D01*
X46500Y-36606D01*
X46628Y-36659D01*
X46771Y-36660D01*
X47371Y-36660D01*
X47500Y-36606D01*
X47628Y-36659D01*
X47771Y-36660D01*
X48371Y-36660D01*
X48503Y-36605D01*
X48605Y-36504D01*
X48659Y-36371D01*
X48660Y-36228D01*
X48660Y-35628D01*
X48605Y-35496D01*
X48521Y-35412D01*
X48559Y-35374D01*
X48659Y-35131D01*
X48660Y-34869D01*
X48559Y-34626D01*
X48433Y-34499D01*
X48559Y-34374D01*
X48659Y-34131D01*
X48660Y-33869D01*
X48559Y-33626D01*
X48433Y-33499D01*
X48559Y-33374D01*
X48659Y-33131D01*
X48660Y-32869D01*
X48559Y-32626D01*
X48433Y-32499D01*
X48559Y-32374D01*
X48659Y-32131D01*
X48660Y-31869D01*
X48559Y-31626D01*
X48433Y-31499D01*
X48559Y-31374D01*
X48659Y-31131D01*
X48660Y-30869D01*
X48559Y-30626D01*
X48433Y-30499D01*
X48559Y-30374D01*
X48659Y-30131D01*
X48660Y-29869D01*
X48559Y-29626D01*
X48433Y-29499D01*
X48559Y-29374D01*
X48659Y-29131D01*
X48660Y-28869D01*
X48559Y-28626D01*
X48374Y-28440D01*
X48131Y-28340D01*
X47869Y-28339D01*
X47626Y-28440D01*
X47499Y-28566D01*
X47374Y-28440D01*
X47131Y-28340D01*
X46869Y-28339D01*
X46626Y-28440D01*
X46499Y-28566D01*
X46374Y-28440D01*
X46131Y-28340D01*
X45905Y-28339D01*
X44782Y-27217D01*
X44653Y-27130D01*
X44627Y-27125D01*
X44500Y-27100D01*
X38997Y-27100D01*
X38860Y-26961D01*
X38626Y-26865D01*
X38430Y-26864D01*
X36782Y-25217D01*
X36653Y-25130D01*
X36627Y-25125D01*
X36500Y-25100D01*
X35497Y-25100D01*
X35360Y-24961D01*
X35126Y-24865D01*
X34874Y-24864D01*
X34640Y-24961D01*
X34461Y-25139D01*
X34365Y-25373D01*
X34364Y-25625D01*
X34461Y-25859D01*
X34601Y-26000D01*
X34461Y-26139D01*
X34365Y-26373D01*
X34364Y-26625D01*
X34461Y-26859D01*
X34601Y-27000D01*
X34461Y-27139D01*
X34365Y-27373D01*
X34364Y-27625D01*
X34461Y-27859D01*
X34601Y-28000D01*
X34461Y-28139D01*
X34365Y-28373D01*
X34364Y-28625D01*
X34461Y-28859D01*
X34601Y-29000D01*
X34461Y-29139D01*
X34365Y-29373D01*
X34364Y-29625D01*
X34461Y-29859D01*
X34601Y-30000D01*
X34461Y-30139D01*
X34365Y-30373D01*
X34364Y-30625D01*
X34461Y-30859D01*
X34601Y-31000D01*
X34461Y-31139D01*
X34365Y-31373D01*
X34364Y-31625D01*
X34461Y-31859D01*
X34601Y-32000D01*
X34461Y-32139D01*
X34365Y-32373D01*
X34364Y-32625D01*
X34461Y-32859D01*
X34601Y-33000D01*
X34461Y-33139D01*
X34365Y-33373D01*
X34364Y-33625D01*
X34461Y-33859D01*
X34639Y-34038D01*
X34873Y-34134D01*
X35125Y-34135D01*
X35359Y-34038D01*
X35538Y-33860D01*
X35634Y-33626D01*
X35635Y-33400D01*
X37000Y-33400D01*
X37000Y-33399D01*
X37127Y-33374D01*
X37153Y-33369D01*
X37153Y-33369D01*
X37282Y-33282D01*
X37915Y-32650D01*
X43584Y-32650D01*
X44100Y-33165D01*
X44100Y-34500D01*
X44125Y-34627D01*
X44130Y-34653D01*
X44217Y-34782D01*
X45339Y-35905D01*
X45339Y-36274D01*
X44282Y-35217D01*
X44153Y-35130D01*
X44127Y-35125D01*
X44000Y-35100D01*
X40210Y-35100D01*
X40359Y-35038D01*
X40538Y-34860D01*
X40634Y-34626D01*
X40635Y-34374D01*
X40538Y-34140D01*
X40360Y-33961D01*
X40126Y-33865D01*
X39874Y-33864D01*
X39640Y-33961D01*
X39461Y-34139D01*
X39365Y-34373D01*
X39364Y-34625D01*
X39461Y-34859D01*
X39639Y-35038D01*
X39789Y-35100D01*
X37723Y-35100D01*
X37862Y-35042D01*
X38042Y-34863D01*
X38139Y-34627D01*
X38140Y-34373D01*
X38042Y-34137D01*
X37863Y-33957D01*
X37627Y-33860D01*
X37373Y-33859D01*
X37137Y-33957D01*
X36957Y-34136D01*
X36860Y-34372D01*
X36859Y-34626D01*
X36957Y-34862D01*
X37136Y-35042D01*
X37276Y-35100D01*
X35497Y-35100D01*
X35360Y-34961D01*
X35126Y-34865D01*
X34874Y-34864D01*
X34640Y-34961D01*
X34461Y-35139D01*
X34365Y-35373D01*
X34364Y-35625D01*
X34461Y-35859D01*
X34601Y-36000D01*
X34461Y-36139D01*
X34365Y-36373D01*
X34364Y-36625D01*
X34461Y-36859D01*
X34601Y-37000D01*
X34461Y-37139D01*
X34365Y-37373D01*
X34364Y-37625D01*
X34461Y-37859D01*
X34601Y-38000D01*
X34461Y-38139D01*
X34365Y-38373D01*
X34364Y-38625D01*
X34461Y-38859D01*
X34601Y-39000D01*
X34461Y-39139D01*
X34365Y-39373D01*
X34364Y-39625D01*
X34461Y-39859D01*
X34601Y-40000D01*
X34461Y-40139D01*
X34365Y-40373D01*
X34364Y-40625D01*
X34461Y-40859D01*
X34601Y-41000D01*
X34501Y-41100D01*
X34415Y-41100D01*
X33900Y-40584D01*
X33900Y-33000D01*
X33900Y-23915D01*
X34280Y-23535D01*
X34355Y-23535D01*
X34552Y-23453D01*
X34703Y-23303D01*
X34784Y-23106D01*
X34785Y-22894D01*
X34736Y-22777D01*
X34910Y-22777D01*
X34993Y-22860D01*
X35159Y-22971D01*
X35159Y-22971D01*
X35354Y-23010D01*
X38000Y-23010D01*
X38038Y-23010D01*
X38927Y-23898D01*
X38846Y-23865D01*
X38703Y-23864D01*
X38153Y-23864D01*
X38021Y-23919D01*
X37919Y-24020D01*
X37865Y-24153D01*
X37864Y-24296D01*
X37864Y-24846D01*
X37919Y-24978D01*
X38020Y-25080D01*
X38021Y-25080D01*
X37961Y-25139D01*
X37865Y-25373D01*
X37864Y-25625D01*
X37961Y-25859D01*
X38139Y-26038D01*
X38373Y-26134D01*
X38625Y-26135D01*
X38859Y-26038D01*
X39038Y-25860D01*
X39134Y-25626D01*
X39135Y-25374D01*
X39038Y-25140D01*
X38978Y-25080D01*
X38978Y-25080D01*
X39080Y-24979D01*
X39134Y-24846D01*
X39135Y-24703D01*
X39135Y-24153D01*
X39101Y-24072D01*
X40389Y-25360D01*
X40554Y-25471D01*
X40554Y-25471D01*
X40750Y-25510D01*
X44500Y-25510D01*
X44695Y-25471D01*
X44695Y-25471D01*
X44860Y-25360D01*
X45000Y-25221D01*
X47364Y-27586D01*
X47364Y-27625D01*
X47461Y-27859D01*
X47639Y-28038D01*
X47873Y-28134D01*
X48125Y-28135D01*
X48359Y-28038D01*
X48538Y-27860D01*
X48634Y-27626D01*
X48635Y-27374D01*
X48538Y-27140D01*
X48398Y-26999D01*
X48538Y-26860D01*
X48634Y-26626D01*
X48635Y-26374D01*
X48538Y-26140D01*
X48478Y-26080D01*
X48478Y-26080D01*
X48580Y-25979D01*
X48634Y-25846D01*
X48635Y-25703D01*
X48635Y-25153D01*
X48635Y-24203D01*
X48635Y-23653D01*
X48580Y-23521D01*
X48479Y-23419D01*
X48346Y-23365D01*
X48203Y-23364D01*
X47653Y-23364D01*
X47521Y-23419D01*
X47419Y-23520D01*
X47365Y-23653D01*
X47364Y-23796D01*
X47364Y-24346D01*
X47419Y-24478D01*
X47520Y-24580D01*
X47653Y-24634D01*
X47796Y-24635D01*
X48346Y-24635D01*
X48478Y-24580D01*
X48580Y-24479D01*
X48634Y-24346D01*
X48635Y-24203D01*
X48635Y-25153D01*
X48580Y-25021D01*
X48479Y-24919D01*
X48346Y-24865D01*
X48203Y-24864D01*
X47653Y-24864D01*
X47521Y-24919D01*
X47419Y-25020D01*
X47365Y-25153D01*
X47364Y-25296D01*
X47364Y-25846D01*
X47419Y-25978D01*
X47520Y-26080D01*
X47521Y-26080D01*
X47461Y-26139D01*
X47432Y-26211D01*
X46710Y-25488D01*
X46710Y-21359D01*
X46602Y-21098D01*
X46402Y-20898D01*
X46141Y-20790D01*
X45859Y-20789D01*
X45598Y-20897D01*
X45398Y-21097D01*
X45290Y-21358D01*
X45289Y-21640D01*
X45397Y-21901D01*
X45597Y-22101D01*
X45858Y-22209D01*
X46140Y-22210D01*
X46401Y-22102D01*
X46601Y-21902D01*
X46709Y-21641D01*
X46710Y-21359D01*
X46710Y-25488D01*
X45856Y-24635D01*
X46346Y-24635D01*
X46478Y-24580D01*
X46580Y-24479D01*
X46634Y-24346D01*
X46635Y-24203D01*
X46635Y-23653D01*
X46580Y-23521D01*
X46479Y-23419D01*
X46346Y-23365D01*
X46203Y-23364D01*
X45653Y-23364D01*
X45521Y-23419D01*
X45438Y-23502D01*
X45304Y-23528D01*
X45249Y-23565D01*
X45139Y-23639D01*
X44889Y-23889D01*
X44889Y-23889D01*
X44288Y-24490D01*
X43283Y-24490D01*
X43298Y-24451D01*
X43299Y-24308D01*
X43299Y-22930D01*
X43244Y-22798D01*
X43143Y-22696D01*
X43010Y-22642D01*
X42867Y-22641D01*
X41489Y-22641D01*
X41357Y-22696D01*
X41255Y-22797D01*
X41201Y-22930D01*
X41200Y-23073D01*
X41200Y-24451D01*
X41216Y-24490D01*
X40961Y-24490D01*
X38610Y-22139D01*
X38445Y-22028D01*
X38250Y-21990D01*
X38000Y-21990D01*
X37120Y-21990D01*
X37120Y-20620D01*
X60239Y-20620D01*
X60017Y-20842D01*
X59840Y-21268D01*
X59839Y-21729D01*
X60016Y-22156D01*
X60342Y-22482D01*
X60768Y-22659D01*
X61229Y-22660D01*
X61656Y-22483D01*
X61880Y-22260D01*
X61880Y-26981D01*
G54D10*
G36*
X61880Y-55739D02*
X61657Y-55517D01*
X61231Y-55340D01*
X60770Y-55339D01*
X60343Y-55516D01*
X60017Y-55842D01*
X59840Y-56268D01*
X59839Y-56729D01*
X60016Y-57156D01*
X60239Y-57380D01*
X59135Y-57380D01*
X59135Y-54874D01*
X59038Y-54640D01*
X58860Y-54461D01*
X58626Y-54365D01*
X58374Y-54364D01*
X58140Y-54461D01*
X57961Y-54639D01*
X57865Y-54873D01*
X57864Y-55125D01*
X57961Y-55359D01*
X58139Y-55538D01*
X58373Y-55634D01*
X58625Y-55635D01*
X58859Y-55538D01*
X59038Y-55360D01*
X59134Y-55126D01*
X59135Y-54874D01*
X59135Y-57380D01*
X56135Y-57380D01*
X56135Y-54874D01*
X56038Y-54640D01*
X55860Y-54461D01*
X55626Y-54365D01*
X55374Y-54364D01*
X55140Y-54461D01*
X54961Y-54639D01*
X54865Y-54873D01*
X54864Y-55125D01*
X54961Y-55359D01*
X55139Y-55538D01*
X55373Y-55634D01*
X55625Y-55635D01*
X55859Y-55538D01*
X56038Y-55360D01*
X56134Y-55126D01*
X56135Y-54874D01*
X56135Y-57380D01*
X54135Y-57380D01*
X54135Y-54874D01*
X54038Y-54640D01*
X53860Y-54461D01*
X53626Y-54365D01*
X53374Y-54364D01*
X53140Y-54461D01*
X52961Y-54639D01*
X52865Y-54873D01*
X52864Y-55125D01*
X52961Y-55359D01*
X53139Y-55538D01*
X53373Y-55634D01*
X53625Y-55635D01*
X53859Y-55538D01*
X54038Y-55360D01*
X54134Y-55126D01*
X54135Y-54874D01*
X54135Y-57380D01*
X51160Y-57380D01*
X51160Y-53369D01*
X51135Y-53308D01*
X51135Y-51374D01*
X51038Y-51140D01*
X50860Y-50961D01*
X50626Y-50865D01*
X50374Y-50864D01*
X50140Y-50961D01*
X49961Y-51139D01*
X49865Y-51373D01*
X49864Y-51625D01*
X49961Y-51859D01*
X50139Y-52038D01*
X50373Y-52134D01*
X50625Y-52135D01*
X50859Y-52038D01*
X51038Y-51860D01*
X51134Y-51626D01*
X51135Y-51374D01*
X51135Y-53308D01*
X51059Y-53126D01*
X50874Y-52940D01*
X50631Y-52840D01*
X50369Y-52839D01*
X50126Y-52940D01*
X49940Y-53125D01*
X49840Y-53368D01*
X49839Y-53630D01*
X49940Y-53873D01*
X50125Y-54059D01*
X50368Y-54159D01*
X50630Y-54160D01*
X50873Y-54059D01*
X51059Y-53874D01*
X51159Y-53631D01*
X51160Y-53369D01*
X51160Y-57380D01*
X51135Y-57380D01*
X51135Y-54874D01*
X51038Y-54640D01*
X50860Y-54461D01*
X50626Y-54365D01*
X50374Y-54364D01*
X50140Y-54461D01*
X49961Y-54639D01*
X49865Y-54873D01*
X49864Y-55125D01*
X49961Y-55359D01*
X50139Y-55538D01*
X50373Y-55634D01*
X50625Y-55635D01*
X50859Y-55538D01*
X51038Y-55360D01*
X51134Y-55126D01*
X51135Y-54874D01*
X51135Y-57380D01*
X45121Y-57380D01*
X45134Y-57346D01*
X45135Y-57203D01*
X45135Y-57086D01*
X46860Y-55360D01*
X46860Y-55360D01*
X46860Y-55360D01*
X46971Y-55195D01*
X46971Y-55195D01*
X47009Y-55000D01*
X47010Y-55000D01*
X47010Y-53500D01*
X46971Y-53304D01*
X46971Y-53304D01*
X46860Y-53139D01*
X45860Y-52139D01*
X45695Y-52028D01*
X45500Y-51990D01*
X43994Y-51990D01*
X43902Y-51898D01*
X43641Y-51790D01*
X43359Y-51789D01*
X43104Y-51895D01*
X43054Y-51844D01*
X42921Y-51790D01*
X42778Y-51789D01*
X42078Y-51789D01*
X42030Y-51809D01*
X41360Y-51139D01*
X41195Y-51028D01*
X41000Y-50990D01*
X40907Y-50990D01*
X41038Y-50860D01*
X41134Y-50626D01*
X41135Y-50374D01*
X41038Y-50140D01*
X40898Y-49999D01*
X41038Y-49860D01*
X41134Y-49626D01*
X41135Y-49374D01*
X41038Y-49140D01*
X40860Y-48961D01*
X40626Y-48865D01*
X40374Y-48864D01*
X40140Y-48961D01*
X39961Y-49139D01*
X39865Y-49373D01*
X39864Y-49625D01*
X39961Y-49859D01*
X40101Y-50000D01*
X39961Y-50139D01*
X39865Y-50373D01*
X39864Y-50625D01*
X39961Y-50859D01*
X40101Y-51000D01*
X39961Y-51139D01*
X39865Y-51373D01*
X39864Y-51625D01*
X39961Y-51859D01*
X40139Y-52038D01*
X40373Y-52134D01*
X40625Y-52135D01*
X40829Y-52050D01*
X41639Y-52860D01*
X41804Y-52971D01*
X41804Y-52971D01*
X41811Y-52972D01*
X41844Y-53053D01*
X41945Y-53155D01*
X42078Y-53209D01*
X42221Y-53210D01*
X42921Y-53210D01*
X43053Y-53155D01*
X43104Y-53104D01*
X43358Y-53209D01*
X43640Y-53210D01*
X43901Y-53102D01*
X43994Y-53010D01*
X45288Y-53010D01*
X45990Y-53711D01*
X45990Y-53818D01*
X45921Y-53790D01*
X45778Y-53789D01*
X45078Y-53789D01*
X44946Y-53844D01*
X44895Y-53895D01*
X44641Y-53790D01*
X44359Y-53789D01*
X44098Y-53897D01*
X44005Y-53990D01*
X41500Y-53990D01*
X40888Y-53990D01*
X40860Y-53961D01*
X40626Y-53865D01*
X40374Y-53864D01*
X40140Y-53961D01*
X39961Y-54139D01*
X39865Y-54373D01*
X39864Y-54625D01*
X39961Y-54859D01*
X40101Y-55000D01*
X39961Y-55139D01*
X39865Y-55373D01*
X39864Y-55625D01*
X39961Y-55859D01*
X40101Y-56000D01*
X39961Y-56139D01*
X39865Y-56373D01*
X39864Y-56625D01*
X39961Y-56859D01*
X40139Y-57038D01*
X40373Y-57134D01*
X40625Y-57135D01*
X40859Y-57038D01*
X41038Y-56860D01*
X41134Y-56626D01*
X41135Y-56374D01*
X41038Y-56140D01*
X40898Y-55999D01*
X41038Y-55860D01*
X41134Y-55626D01*
X41135Y-55374D01*
X41038Y-55140D01*
X40908Y-55010D01*
X41288Y-55010D01*
X41990Y-55711D01*
X41990Y-56611D01*
X41961Y-56639D01*
X41865Y-56873D01*
X41864Y-57125D01*
X41961Y-57359D01*
X41982Y-57380D01*
X36018Y-57380D01*
X36038Y-57360D01*
X36134Y-57126D01*
X36135Y-56874D01*
X36038Y-56640D01*
X36010Y-56612D01*
X36010Y-55711D01*
X36711Y-55010D01*
X37092Y-55010D01*
X36961Y-55139D01*
X36865Y-55373D01*
X36864Y-55625D01*
X36961Y-55859D01*
X37101Y-56000D01*
X36961Y-56139D01*
X36865Y-56373D01*
X36864Y-56625D01*
X36961Y-56859D01*
X37139Y-57038D01*
X37373Y-57134D01*
X37625Y-57135D01*
X37859Y-57038D01*
X37887Y-57010D01*
X38000Y-57010D01*
X38195Y-56971D01*
X38195Y-56971D01*
X38360Y-56860D01*
X39360Y-55860D01*
X39471Y-55695D01*
X39471Y-55695D01*
X39510Y-55500D01*
X39510Y-49211D01*
X40711Y-48010D01*
X42288Y-48010D01*
X42389Y-48110D01*
X42389Y-48110D01*
X42499Y-48184D01*
X42554Y-48221D01*
X42554Y-48221D01*
X42750Y-48260D01*
X42789Y-48260D01*
X42789Y-48921D01*
X42844Y-49053D01*
X42945Y-49155D01*
X43078Y-49209D01*
X43221Y-49210D01*
X43668Y-49210D01*
X43717Y-49282D01*
X43846Y-49369D01*
X44000Y-49400D01*
X44153Y-49369D01*
X44171Y-49357D01*
X44139Y-49389D01*
X44028Y-49554D01*
X43990Y-49750D01*
X43990Y-49826D01*
X43946Y-49844D01*
X43844Y-49945D01*
X43790Y-50078D01*
X43789Y-50221D01*
X43789Y-50921D01*
X43844Y-51053D01*
X43945Y-51155D01*
X44078Y-51209D01*
X44221Y-51210D01*
X44921Y-51210D01*
X45053Y-51155D01*
X45155Y-51054D01*
X45209Y-50921D01*
X45210Y-50778D01*
X45210Y-50078D01*
X45155Y-49946D01*
X45090Y-49881D01*
X46860Y-48110D01*
X46860Y-48110D01*
X46860Y-48110D01*
X48110Y-46860D01*
X49860Y-45110D01*
X49971Y-44945D01*
X49971Y-44945D01*
X49983Y-44881D01*
X50100Y-44998D01*
X50100Y-45002D01*
X49961Y-45139D01*
X49865Y-45373D01*
X49864Y-45625D01*
X49961Y-45859D01*
X50100Y-45998D01*
X50100Y-46002D01*
X49961Y-46139D01*
X49865Y-46373D01*
X49864Y-46625D01*
X49961Y-46859D01*
X50139Y-47038D01*
X50373Y-47134D01*
X50625Y-47135D01*
X50859Y-47038D01*
X51000Y-46898D01*
X51139Y-47038D01*
X51373Y-47134D01*
X51625Y-47135D01*
X51859Y-47038D01*
X52000Y-46898D01*
X52139Y-47038D01*
X52373Y-47134D01*
X52625Y-47135D01*
X52859Y-47038D01*
X53000Y-46898D01*
X53139Y-47038D01*
X53373Y-47134D01*
X53625Y-47135D01*
X53859Y-47038D01*
X54000Y-46898D01*
X54139Y-47038D01*
X54373Y-47134D01*
X54625Y-47135D01*
X54859Y-47038D01*
X55000Y-46898D01*
X55139Y-47038D01*
X55373Y-47134D01*
X55625Y-47135D01*
X55859Y-47038D01*
X56000Y-46898D01*
X56139Y-47038D01*
X56373Y-47134D01*
X56625Y-47135D01*
X56859Y-47038D01*
X57000Y-46898D01*
X57139Y-47038D01*
X57373Y-47134D01*
X57625Y-47135D01*
X57859Y-47038D01*
X58000Y-46898D01*
X58139Y-47038D01*
X58373Y-47134D01*
X58625Y-47135D01*
X58859Y-47038D01*
X59000Y-46898D01*
X59139Y-47038D01*
X59373Y-47134D01*
X59625Y-47135D01*
X59859Y-47038D01*
X60000Y-46898D01*
X60139Y-47038D01*
X60373Y-47134D01*
X60625Y-47135D01*
X60859Y-47038D01*
X61000Y-46898D01*
X61139Y-47038D01*
X61373Y-47134D01*
X61625Y-47135D01*
X61859Y-47038D01*
X61880Y-47017D01*
X61880Y-48481D01*
X61860Y-48461D01*
X61626Y-48365D01*
X61374Y-48364D01*
X61140Y-48461D01*
X61112Y-48490D01*
X60888Y-48490D01*
X60860Y-48461D01*
X60626Y-48365D01*
X60374Y-48364D01*
X60140Y-48461D01*
X60112Y-48490D01*
X59888Y-48490D01*
X59860Y-48461D01*
X59626Y-48365D01*
X59374Y-48364D01*
X59140Y-48461D01*
X59112Y-48490D01*
X58888Y-48490D01*
X58860Y-48461D01*
X58626Y-48365D01*
X58374Y-48364D01*
X58140Y-48461D01*
X58112Y-48490D01*
X57888Y-48490D01*
X57860Y-48461D01*
X57626Y-48365D01*
X57374Y-48364D01*
X57140Y-48461D01*
X57112Y-48490D01*
X56888Y-48490D01*
X56860Y-48461D01*
X56626Y-48365D01*
X56374Y-48364D01*
X56140Y-48461D01*
X56112Y-48490D01*
X55888Y-48490D01*
X55860Y-48461D01*
X55626Y-48365D01*
X55374Y-48364D01*
X55140Y-48461D01*
X55112Y-48490D01*
X54888Y-48490D01*
X54860Y-48461D01*
X54626Y-48365D01*
X54374Y-48364D01*
X54140Y-48461D01*
X54112Y-48490D01*
X53888Y-48490D01*
X53860Y-48461D01*
X53626Y-48365D01*
X53374Y-48364D01*
X53140Y-48461D01*
X53112Y-48490D01*
X52888Y-48490D01*
X52860Y-48461D01*
X52626Y-48365D01*
X52374Y-48364D01*
X52140Y-48461D01*
X52112Y-48490D01*
X51888Y-48490D01*
X51860Y-48461D01*
X51626Y-48365D01*
X51374Y-48364D01*
X51140Y-48461D01*
X51112Y-48490D01*
X51049Y-48490D01*
X50979Y-48419D01*
X50846Y-48365D01*
X50703Y-48364D01*
X50153Y-48364D01*
X50021Y-48419D01*
X49950Y-48490D01*
X48388Y-48490D01*
X48360Y-48461D01*
X48126Y-48365D01*
X47874Y-48364D01*
X47640Y-48461D01*
X47461Y-48639D01*
X47365Y-48873D01*
X47364Y-49125D01*
X47461Y-49359D01*
X47639Y-49538D01*
X47873Y-49634D01*
X48125Y-49635D01*
X48359Y-49538D01*
X48387Y-49510D01*
X49268Y-49510D01*
X47639Y-51139D01*
X47528Y-51304D01*
X47490Y-51500D01*
X47490Y-51811D01*
X47461Y-51839D01*
X47365Y-52073D01*
X47364Y-52325D01*
X47461Y-52559D01*
X47639Y-52738D01*
X47873Y-52834D01*
X48125Y-52835D01*
X48359Y-52738D01*
X48538Y-52560D01*
X48634Y-52326D01*
X48635Y-52074D01*
X48538Y-51840D01*
X48510Y-51812D01*
X48510Y-51711D01*
X50586Y-49635D01*
X50846Y-49635D01*
X50978Y-49580D01*
X51049Y-49510D01*
X51111Y-49510D01*
X51139Y-49538D01*
X51373Y-49634D01*
X51625Y-49635D01*
X51859Y-49538D01*
X51887Y-49510D01*
X52111Y-49510D01*
X52139Y-49538D01*
X52373Y-49634D01*
X52625Y-49635D01*
X52859Y-49538D01*
X52887Y-49510D01*
X53100Y-49510D01*
X53100Y-50834D01*
X52916Y-51018D01*
X52860Y-50961D01*
X52626Y-50865D01*
X52374Y-50864D01*
X52140Y-50961D01*
X51961Y-51139D01*
X51865Y-51373D01*
X51864Y-51625D01*
X51961Y-51859D01*
X52139Y-52038D01*
X52373Y-52134D01*
X52625Y-52135D01*
X52859Y-52038D01*
X52998Y-51900D01*
X53000Y-51900D01*
X53000Y-51899D01*
X53100Y-51880D01*
X53100Y-52500D01*
X53125Y-52627D01*
X53130Y-52653D01*
X53217Y-52782D01*
X53840Y-53405D01*
X53839Y-53630D01*
X53940Y-53873D01*
X54125Y-54059D01*
X54368Y-54159D01*
X54630Y-54160D01*
X54873Y-54059D01*
X55000Y-53933D01*
X55125Y-54059D01*
X55368Y-54159D01*
X55630Y-54160D01*
X55873Y-54059D01*
X56059Y-53874D01*
X56159Y-53631D01*
X56160Y-53369D01*
X56059Y-53126D01*
X55874Y-52940D01*
X55776Y-52900D01*
X57000Y-52900D01*
X57834Y-52900D01*
X58717Y-53782D01*
X58717Y-53782D01*
X58803Y-53840D01*
X58846Y-53869D01*
X58846Y-53869D01*
X58958Y-53891D01*
X59125Y-54059D01*
X59368Y-54159D01*
X59630Y-54160D01*
X59873Y-54059D01*
X60059Y-53874D01*
X60159Y-53631D01*
X60160Y-53369D01*
X60059Y-53126D01*
X59874Y-52940D01*
X59631Y-52840D01*
X59369Y-52839D01*
X59126Y-52940D01*
X59066Y-53000D01*
X58282Y-52217D01*
X58153Y-52130D01*
X58127Y-52125D01*
X58000Y-52100D01*
X57880Y-52100D01*
X57899Y-52000D01*
X57900Y-52000D01*
X57900Y-51997D01*
X58038Y-51860D01*
X58134Y-51626D01*
X58135Y-51374D01*
X58038Y-51140D01*
X57860Y-50961D01*
X57626Y-50865D01*
X57374Y-50864D01*
X57140Y-50961D01*
X56961Y-51139D01*
X56865Y-51373D01*
X56864Y-51625D01*
X56961Y-51859D01*
X57018Y-51916D01*
X56834Y-52100D01*
X55710Y-52100D01*
X55859Y-52038D01*
X56038Y-51860D01*
X56134Y-51626D01*
X56135Y-51374D01*
X56038Y-51140D01*
X55860Y-50961D01*
X55626Y-50865D01*
X55374Y-50864D01*
X55140Y-50961D01*
X54961Y-51139D01*
X54865Y-51373D01*
X54864Y-51625D01*
X54961Y-51859D01*
X55139Y-52038D01*
X55289Y-52100D01*
X55165Y-52100D01*
X53900Y-50834D01*
X53900Y-49510D01*
X54111Y-49510D01*
X54139Y-49538D01*
X54373Y-49634D01*
X54625Y-49635D01*
X54859Y-49538D01*
X54887Y-49510D01*
X55111Y-49510D01*
X55139Y-49538D01*
X55373Y-49634D01*
X55625Y-49635D01*
X55859Y-49538D01*
X55887Y-49510D01*
X56111Y-49510D01*
X56139Y-49538D01*
X56373Y-49634D01*
X56625Y-49635D01*
X56859Y-49538D01*
X56887Y-49510D01*
X57111Y-49510D01*
X57139Y-49538D01*
X57373Y-49634D01*
X57625Y-49635D01*
X57859Y-49538D01*
X57887Y-49510D01*
X58111Y-49510D01*
X58139Y-49538D01*
X58373Y-49634D01*
X58625Y-49635D01*
X58859Y-49538D01*
X58887Y-49510D01*
X59111Y-49510D01*
X59139Y-49538D01*
X59373Y-49634D01*
X59625Y-49635D01*
X59859Y-49538D01*
X59887Y-49510D01*
X60111Y-49510D01*
X60139Y-49538D01*
X60373Y-49634D01*
X60625Y-49635D01*
X60859Y-49538D01*
X60887Y-49510D01*
X61111Y-49510D01*
X61139Y-49538D01*
X61373Y-49634D01*
X61625Y-49635D01*
X61859Y-49538D01*
X61880Y-49517D01*
X61880Y-55739D01*
X61880Y-55739D01*
G37*
G54D24*
X61880Y-55739D02*
X61657Y-55517D01*
X61231Y-55340D01*
X60770Y-55339D01*
X60343Y-55516D01*
X60017Y-55842D01*
X59840Y-56268D01*
X59839Y-56729D01*
X60016Y-57156D01*
X60239Y-57380D01*
X59135Y-57380D01*
X59135Y-54874D01*
X59038Y-54640D01*
X58860Y-54461D01*
X58626Y-54365D01*
X58374Y-54364D01*
X58140Y-54461D01*
X57961Y-54639D01*
X57865Y-54873D01*
X57864Y-55125D01*
X57961Y-55359D01*
X58139Y-55538D01*
X58373Y-55634D01*
X58625Y-55635D01*
X58859Y-55538D01*
X59038Y-55360D01*
X59134Y-55126D01*
X59135Y-54874D01*
X59135Y-57380D01*
X56135Y-57380D01*
X56135Y-54874D01*
X56038Y-54640D01*
X55860Y-54461D01*
X55626Y-54365D01*
X55374Y-54364D01*
X55140Y-54461D01*
X54961Y-54639D01*
X54865Y-54873D01*
X54864Y-55125D01*
X54961Y-55359D01*
X55139Y-55538D01*
X55373Y-55634D01*
X55625Y-55635D01*
X55859Y-55538D01*
X56038Y-55360D01*
X56134Y-55126D01*
X56135Y-54874D01*
X56135Y-57380D01*
X54135Y-57380D01*
X54135Y-54874D01*
X54038Y-54640D01*
X53860Y-54461D01*
X53626Y-54365D01*
X53374Y-54364D01*
X53140Y-54461D01*
X52961Y-54639D01*
X52865Y-54873D01*
X52864Y-55125D01*
X52961Y-55359D01*
X53139Y-55538D01*
X53373Y-55634D01*
X53625Y-55635D01*
X53859Y-55538D01*
X54038Y-55360D01*
X54134Y-55126D01*
X54135Y-54874D01*
X54135Y-57380D01*
X51160Y-57380D01*
X51160Y-53369D01*
X51135Y-53308D01*
X51135Y-51374D01*
X51038Y-51140D01*
X50860Y-50961D01*
X50626Y-50865D01*
X50374Y-50864D01*
X50140Y-50961D01*
X49961Y-51139D01*
X49865Y-51373D01*
X49864Y-51625D01*
X49961Y-51859D01*
X50139Y-52038D01*
X50373Y-52134D01*
X50625Y-52135D01*
X50859Y-52038D01*
X51038Y-51860D01*
X51134Y-51626D01*
X51135Y-51374D01*
X51135Y-53308D01*
X51059Y-53126D01*
X50874Y-52940D01*
X50631Y-52840D01*
X50369Y-52839D01*
X50126Y-52940D01*
X49940Y-53125D01*
X49840Y-53368D01*
X49839Y-53630D01*
X49940Y-53873D01*
X50125Y-54059D01*
X50368Y-54159D01*
X50630Y-54160D01*
X50873Y-54059D01*
X51059Y-53874D01*
X51159Y-53631D01*
X51160Y-53369D01*
X51160Y-57380D01*
X51135Y-57380D01*
X51135Y-54874D01*
X51038Y-54640D01*
X50860Y-54461D01*
X50626Y-54365D01*
X50374Y-54364D01*
X50140Y-54461D01*
X49961Y-54639D01*
X49865Y-54873D01*
X49864Y-55125D01*
X49961Y-55359D01*
X50139Y-55538D01*
X50373Y-55634D01*
X50625Y-55635D01*
X50859Y-55538D01*
X51038Y-55360D01*
X51134Y-55126D01*
X51135Y-54874D01*
X51135Y-57380D01*
X45121Y-57380D01*
X45134Y-57346D01*
X45135Y-57203D01*
X45135Y-57086D01*
X46860Y-55360D01*
X46860Y-55360D01*
X46860Y-55360D01*
X46971Y-55195D01*
X46971Y-55195D01*
X47009Y-55000D01*
X47010Y-55000D01*
X47010Y-53500D01*
X46971Y-53304D01*
X46971Y-53304D01*
X46860Y-53139D01*
X45860Y-52139D01*
X45695Y-52028D01*
X45500Y-51990D01*
X43994Y-51990D01*
X43902Y-51898D01*
X43641Y-51790D01*
X43359Y-51789D01*
X43104Y-51895D01*
X43054Y-51844D01*
X42921Y-51790D01*
X42778Y-51789D01*
X42078Y-51789D01*
X42030Y-51809D01*
X41360Y-51139D01*
X41195Y-51028D01*
X41000Y-50990D01*
X40907Y-50990D01*
X41038Y-50860D01*
X41134Y-50626D01*
X41135Y-50374D01*
X41038Y-50140D01*
X40898Y-49999D01*
X41038Y-49860D01*
X41134Y-49626D01*
X41135Y-49374D01*
X41038Y-49140D01*
X40860Y-48961D01*
X40626Y-48865D01*
X40374Y-48864D01*
X40140Y-48961D01*
X39961Y-49139D01*
X39865Y-49373D01*
X39864Y-49625D01*
X39961Y-49859D01*
X40101Y-50000D01*
X39961Y-50139D01*
X39865Y-50373D01*
X39864Y-50625D01*
X39961Y-50859D01*
X40101Y-51000D01*
X39961Y-51139D01*
X39865Y-51373D01*
X39864Y-51625D01*
X39961Y-51859D01*
X40139Y-52038D01*
X40373Y-52134D01*
X40625Y-52135D01*
X40829Y-52050D01*
X41639Y-52860D01*
X41804Y-52971D01*
X41804Y-52971D01*
X41811Y-52972D01*
X41844Y-53053D01*
X41945Y-53155D01*
X42078Y-53209D01*
X42221Y-53210D01*
X42921Y-53210D01*
X43053Y-53155D01*
X43104Y-53104D01*
X43358Y-53209D01*
X43640Y-53210D01*
X43901Y-53102D01*
X43994Y-53010D01*
X45288Y-53010D01*
X45990Y-53711D01*
X45990Y-53818D01*
X45921Y-53790D01*
X45778Y-53789D01*
X45078Y-53789D01*
X44946Y-53844D01*
X44895Y-53895D01*
X44641Y-53790D01*
X44359Y-53789D01*
X44098Y-53897D01*
X44005Y-53990D01*
X41500Y-53990D01*
X40888Y-53990D01*
X40860Y-53961D01*
X40626Y-53865D01*
X40374Y-53864D01*
X40140Y-53961D01*
X39961Y-54139D01*
X39865Y-54373D01*
X39864Y-54625D01*
X39961Y-54859D01*
X40101Y-55000D01*
X39961Y-55139D01*
X39865Y-55373D01*
X39864Y-55625D01*
X39961Y-55859D01*
X40101Y-56000D01*
X39961Y-56139D01*
X39865Y-56373D01*
X39864Y-56625D01*
X39961Y-56859D01*
X40139Y-57038D01*
X40373Y-57134D01*
X40625Y-57135D01*
X40859Y-57038D01*
X41038Y-56860D01*
X41134Y-56626D01*
X41135Y-56374D01*
X41038Y-56140D01*
X40898Y-55999D01*
X41038Y-55860D01*
X41134Y-55626D01*
X41135Y-55374D01*
X41038Y-55140D01*
X40908Y-55010D01*
X41288Y-55010D01*
X41990Y-55711D01*
X41990Y-56611D01*
X41961Y-56639D01*
X41865Y-56873D01*
X41864Y-57125D01*
X41961Y-57359D01*
X41982Y-57380D01*
X36018Y-57380D01*
X36038Y-57360D01*
X36134Y-57126D01*
X36135Y-56874D01*
X36038Y-56640D01*
X36010Y-56612D01*
X36010Y-55711D01*
X36711Y-55010D01*
X37092Y-55010D01*
X36961Y-55139D01*
X36865Y-55373D01*
X36864Y-55625D01*
X36961Y-55859D01*
X37101Y-56000D01*
X36961Y-56139D01*
X36865Y-56373D01*
X36864Y-56625D01*
X36961Y-56859D01*
X37139Y-57038D01*
X37373Y-57134D01*
X37625Y-57135D01*
X37859Y-57038D01*
X37887Y-57010D01*
X38000Y-57010D01*
X38195Y-56971D01*
X38195Y-56971D01*
X38360Y-56860D01*
X39360Y-55860D01*
X39471Y-55695D01*
X39471Y-55695D01*
X39510Y-55500D01*
X39510Y-49211D01*
X40711Y-48010D01*
X42288Y-48010D01*
X42389Y-48110D01*
X42389Y-48110D01*
X42499Y-48184D01*
X42554Y-48221D01*
X42554Y-48221D01*
X42750Y-48260D01*
X42789Y-48260D01*
X42789Y-48921D01*
X42844Y-49053D01*
X42945Y-49155D01*
X43078Y-49209D01*
X43221Y-49210D01*
X43668Y-49210D01*
X43717Y-49282D01*
X43846Y-49369D01*
X44000Y-49400D01*
X44153Y-49369D01*
X44171Y-49357D01*
X44139Y-49389D01*
X44028Y-49554D01*
X43990Y-49750D01*
X43990Y-49826D01*
X43946Y-49844D01*
X43844Y-49945D01*
X43790Y-50078D01*
X43789Y-50221D01*
X43789Y-50921D01*
X43844Y-51053D01*
X43945Y-51155D01*
X44078Y-51209D01*
X44221Y-51210D01*
X44921Y-51210D01*
X45053Y-51155D01*
X45155Y-51054D01*
X45209Y-50921D01*
X45210Y-50778D01*
X45210Y-50078D01*
X45155Y-49946D01*
X45090Y-49881D01*
X46860Y-48110D01*
X46860Y-48110D01*
X46860Y-48110D01*
X48110Y-46860D01*
X49860Y-45110D01*
X49971Y-44945D01*
X49971Y-44945D01*
X49983Y-44881D01*
X50100Y-44998D01*
X50100Y-45002D01*
X49961Y-45139D01*
X49865Y-45373D01*
X49864Y-45625D01*
X49961Y-45859D01*
X50100Y-45998D01*
X50100Y-46002D01*
X49961Y-46139D01*
X49865Y-46373D01*
X49864Y-46625D01*
X49961Y-46859D01*
X50139Y-47038D01*
X50373Y-47134D01*
X50625Y-47135D01*
X50859Y-47038D01*
X51000Y-46898D01*
X51139Y-47038D01*
X51373Y-47134D01*
X51625Y-47135D01*
X51859Y-47038D01*
X52000Y-46898D01*
X52139Y-47038D01*
X52373Y-47134D01*
X52625Y-47135D01*
X52859Y-47038D01*
X53000Y-46898D01*
X53139Y-47038D01*
X53373Y-47134D01*
X53625Y-47135D01*
X53859Y-47038D01*
X54000Y-46898D01*
X54139Y-47038D01*
X54373Y-47134D01*
X54625Y-47135D01*
X54859Y-47038D01*
X55000Y-46898D01*
X55139Y-47038D01*
X55373Y-47134D01*
X55625Y-47135D01*
X55859Y-47038D01*
X56000Y-46898D01*
X56139Y-47038D01*
X56373Y-47134D01*
X56625Y-47135D01*
X56859Y-47038D01*
X57000Y-46898D01*
X57139Y-47038D01*
X57373Y-47134D01*
X57625Y-47135D01*
X57859Y-47038D01*
X58000Y-46898D01*
X58139Y-47038D01*
X58373Y-47134D01*
X58625Y-47135D01*
X58859Y-47038D01*
X59000Y-46898D01*
X59139Y-47038D01*
X59373Y-47134D01*
X59625Y-47135D01*
X59859Y-47038D01*
X60000Y-46898D01*
X60139Y-47038D01*
X60373Y-47134D01*
X60625Y-47135D01*
X60859Y-47038D01*
X61000Y-46898D01*
X61139Y-47038D01*
X61373Y-47134D01*
X61625Y-47135D01*
X61859Y-47038D01*
X61880Y-47017D01*
X61880Y-48481D01*
X61860Y-48461D01*
X61626Y-48365D01*
X61374Y-48364D01*
X61140Y-48461D01*
X61112Y-48490D01*
X60888Y-48490D01*
X60860Y-48461D01*
X60626Y-48365D01*
X60374Y-48364D01*
X60140Y-48461D01*
X60112Y-48490D01*
X59888Y-48490D01*
X59860Y-48461D01*
X59626Y-48365D01*
X59374Y-48364D01*
X59140Y-48461D01*
X59112Y-48490D01*
X58888Y-48490D01*
X58860Y-48461D01*
X58626Y-48365D01*
X58374Y-48364D01*
X58140Y-48461D01*
X58112Y-48490D01*
X57888Y-48490D01*
X57860Y-48461D01*
X57626Y-48365D01*
X57374Y-48364D01*
X57140Y-48461D01*
X57112Y-48490D01*
X56888Y-48490D01*
X56860Y-48461D01*
X56626Y-48365D01*
X56374Y-48364D01*
X56140Y-48461D01*
X56112Y-48490D01*
X55888Y-48490D01*
X55860Y-48461D01*
X55626Y-48365D01*
X55374Y-48364D01*
X55140Y-48461D01*
X55112Y-48490D01*
X54888Y-48490D01*
X54860Y-48461D01*
X54626Y-48365D01*
X54374Y-48364D01*
X54140Y-48461D01*
X54112Y-48490D01*
X53888Y-48490D01*
X53860Y-48461D01*
X53626Y-48365D01*
X53374Y-48364D01*
X53140Y-48461D01*
X53112Y-48490D01*
X52888Y-48490D01*
X52860Y-48461D01*
X52626Y-48365D01*
X52374Y-48364D01*
X52140Y-48461D01*
X52112Y-48490D01*
X51888Y-48490D01*
X51860Y-48461D01*
X51626Y-48365D01*
X51374Y-48364D01*
X51140Y-48461D01*
X51112Y-48490D01*
X51049Y-48490D01*
X50979Y-48419D01*
X50846Y-48365D01*
X50703Y-48364D01*
X50153Y-48364D01*
X50021Y-48419D01*
X49950Y-48490D01*
X48388Y-48490D01*
X48360Y-48461D01*
X48126Y-48365D01*
X47874Y-48364D01*
X47640Y-48461D01*
X47461Y-48639D01*
X47365Y-48873D01*
X47364Y-49125D01*
X47461Y-49359D01*
X47639Y-49538D01*
X47873Y-49634D01*
X48125Y-49635D01*
X48359Y-49538D01*
X48387Y-49510D01*
X49268Y-49510D01*
X47639Y-51139D01*
X47528Y-51304D01*
X47490Y-51500D01*
X47490Y-51811D01*
X47461Y-51839D01*
X47365Y-52073D01*
X47364Y-52325D01*
X47461Y-52559D01*
X47639Y-52738D01*
X47873Y-52834D01*
X48125Y-52835D01*
X48359Y-52738D01*
X48538Y-52560D01*
X48634Y-52326D01*
X48635Y-52074D01*
X48538Y-51840D01*
X48510Y-51812D01*
X48510Y-51711D01*
X50586Y-49635D01*
X50846Y-49635D01*
X50978Y-49580D01*
X51049Y-49510D01*
X51111Y-49510D01*
X51139Y-49538D01*
X51373Y-49634D01*
X51625Y-49635D01*
X51859Y-49538D01*
X51887Y-49510D01*
X52111Y-49510D01*
X52139Y-49538D01*
X52373Y-49634D01*
X52625Y-49635D01*
X52859Y-49538D01*
X52887Y-49510D01*
X53100Y-49510D01*
X53100Y-50834D01*
X52916Y-51018D01*
X52860Y-50961D01*
X52626Y-50865D01*
X52374Y-50864D01*
X52140Y-50961D01*
X51961Y-51139D01*
X51865Y-51373D01*
X51864Y-51625D01*
X51961Y-51859D01*
X52139Y-52038D01*
X52373Y-52134D01*
X52625Y-52135D01*
X52859Y-52038D01*
X52998Y-51900D01*
X53000Y-51900D01*
X53000Y-51899D01*
X53100Y-51880D01*
X53100Y-52500D01*
X53125Y-52627D01*
X53130Y-52653D01*
X53217Y-52782D01*
X53840Y-53405D01*
X53839Y-53630D01*
X53940Y-53873D01*
X54125Y-54059D01*
X54368Y-54159D01*
X54630Y-54160D01*
X54873Y-54059D01*
X55000Y-53933D01*
X55125Y-54059D01*
X55368Y-54159D01*
X55630Y-54160D01*
X55873Y-54059D01*
X56059Y-53874D01*
X56159Y-53631D01*
X56160Y-53369D01*
X56059Y-53126D01*
X55874Y-52940D01*
X55776Y-52900D01*
X57000Y-52900D01*
X57834Y-52900D01*
X58717Y-53782D01*
X58717Y-53782D01*
X58803Y-53840D01*
X58846Y-53869D01*
X58846Y-53869D01*
X58958Y-53891D01*
X59125Y-54059D01*
X59368Y-54159D01*
X59630Y-54160D01*
X59873Y-54059D01*
X60059Y-53874D01*
X60159Y-53631D01*
X60160Y-53369D01*
X60059Y-53126D01*
X59874Y-52940D01*
X59631Y-52840D01*
X59369Y-52839D01*
X59126Y-52940D01*
X59066Y-53000D01*
X58282Y-52217D01*
X58153Y-52130D01*
X58127Y-52125D01*
X58000Y-52100D01*
X57880Y-52100D01*
X57899Y-52000D01*
X57900Y-52000D01*
X57900Y-51997D01*
X58038Y-51860D01*
X58134Y-51626D01*
X58135Y-51374D01*
X58038Y-51140D01*
X57860Y-50961D01*
X57626Y-50865D01*
X57374Y-50864D01*
X57140Y-50961D01*
X56961Y-51139D01*
X56865Y-51373D01*
X56864Y-51625D01*
X56961Y-51859D01*
X57018Y-51916D01*
X56834Y-52100D01*
X55710Y-52100D01*
X55859Y-52038D01*
X56038Y-51860D01*
X56134Y-51626D01*
X56135Y-51374D01*
X56038Y-51140D01*
X55860Y-50961D01*
X55626Y-50865D01*
X55374Y-50864D01*
X55140Y-50961D01*
X54961Y-51139D01*
X54865Y-51373D01*
X54864Y-51625D01*
X54961Y-51859D01*
X55139Y-52038D01*
X55289Y-52100D01*
X55165Y-52100D01*
X53900Y-50834D01*
X53900Y-49510D01*
X54111Y-49510D01*
X54139Y-49538D01*
X54373Y-49634D01*
X54625Y-49635D01*
X54859Y-49538D01*
X54887Y-49510D01*
X55111Y-49510D01*
X55139Y-49538D01*
X55373Y-49634D01*
X55625Y-49635D01*
X55859Y-49538D01*
X55887Y-49510D01*
X56111Y-49510D01*
X56139Y-49538D01*
X56373Y-49634D01*
X56625Y-49635D01*
X56859Y-49538D01*
X56887Y-49510D01*
X57111Y-49510D01*
X57139Y-49538D01*
X57373Y-49634D01*
X57625Y-49635D01*
X57859Y-49538D01*
X57887Y-49510D01*
X58111Y-49510D01*
X58139Y-49538D01*
X58373Y-49634D01*
X58625Y-49635D01*
X58859Y-49538D01*
X58887Y-49510D01*
X59111Y-49510D01*
X59139Y-49538D01*
X59373Y-49634D01*
X59625Y-49635D01*
X59859Y-49538D01*
X59887Y-49510D01*
X60111Y-49510D01*
X60139Y-49538D01*
X60373Y-49634D01*
X60625Y-49635D01*
X60859Y-49538D01*
X60887Y-49510D01*
X61111Y-49510D01*
X61139Y-49538D01*
X61373Y-49634D01*
X61625Y-49635D01*
X61859Y-49538D01*
X61880Y-49517D01*
X61880Y-55739D01*
M02*
