G04 (created by PCBNEW (2013-07-07 BZR 4022)-stable) date 2/12/2014 8:02:26 PM*
%MOIN*%
G04 Gerber Fmt 3.4, Leading zero omitted, Abs format*
%FSLAX34Y34*%
G01*
G70*
G90*
G04 APERTURE LIST*
%ADD10C,0.00590551*%
%ADD11C,0.006*%
%ADD12C,0.012*%
%ADD13C,0.01*%
%ADD14C,0.0125*%
%ADD15C,0.015*%
%ADD16C,0.005*%
%ADD17C,0.0001*%
%ADD18C,0.008*%
%ADD19C,0.0075*%
G04 APERTURE END LIST*
G54D10*
G54D11*
X49107Y-26571D02*
X49207Y-26871D01*
X49307Y-26571D01*
X49407Y-26871D02*
X49407Y-26671D01*
X49407Y-26571D02*
X49392Y-26585D01*
X49407Y-26600D01*
X49421Y-26585D01*
X49407Y-26571D01*
X49407Y-26600D01*
X49550Y-26671D02*
X49550Y-26871D01*
X49550Y-26700D02*
X49564Y-26685D01*
X49592Y-26671D01*
X49635Y-26671D01*
X49664Y-26685D01*
X49678Y-26714D01*
X49678Y-26871D01*
X49585Y-48114D02*
X49571Y-48142D01*
X49571Y-48185D01*
X49585Y-48228D01*
X49614Y-48257D01*
X49642Y-48271D01*
X49700Y-48285D01*
X49742Y-48285D01*
X49800Y-48271D01*
X49828Y-48257D01*
X49857Y-48228D01*
X49871Y-48185D01*
X49871Y-48157D01*
X49857Y-48114D01*
X49842Y-48100D01*
X49742Y-48100D01*
X49742Y-48157D01*
X49671Y-47971D02*
X49871Y-47971D01*
X49700Y-47971D02*
X49685Y-47957D01*
X49671Y-47928D01*
X49671Y-47885D01*
X49685Y-47857D01*
X49714Y-47842D01*
X49871Y-47842D01*
X49871Y-47571D02*
X49571Y-47571D01*
X49857Y-47571D02*
X49871Y-47600D01*
X49871Y-47657D01*
X49857Y-47685D01*
X49842Y-47700D01*
X49814Y-47714D01*
X49728Y-47714D01*
X49700Y-47700D01*
X49685Y-47685D01*
X49671Y-47657D01*
X49671Y-47600D01*
X49685Y-47571D01*
X49571Y-49328D02*
X49571Y-49471D01*
X49714Y-49485D01*
X49700Y-49471D01*
X49685Y-49442D01*
X49685Y-49371D01*
X49700Y-49342D01*
X49714Y-49328D01*
X49742Y-49314D01*
X49814Y-49314D01*
X49842Y-49328D01*
X49857Y-49342D01*
X49871Y-49371D01*
X49871Y-49442D01*
X49857Y-49471D01*
X49842Y-49485D01*
X49571Y-49228D02*
X49871Y-49128D01*
X49571Y-49028D01*
X45321Y-46214D02*
X45421Y-46214D01*
X45464Y-46371D02*
X45321Y-46371D01*
X45321Y-46071D01*
X45464Y-46071D01*
X45592Y-46171D02*
X45592Y-46371D01*
X45592Y-46200D02*
X45607Y-46185D01*
X45635Y-46171D01*
X45678Y-46171D01*
X45707Y-46185D01*
X45721Y-46214D01*
X45721Y-46371D01*
X44321Y-46371D02*
X44321Y-46071D01*
X44392Y-46071D01*
X44435Y-46085D01*
X44464Y-46114D01*
X44478Y-46142D01*
X44492Y-46200D01*
X44492Y-46242D01*
X44478Y-46300D01*
X44464Y-46328D01*
X44435Y-46357D01*
X44392Y-46371D01*
X44321Y-46371D01*
X44778Y-46371D02*
X44607Y-46371D01*
X44692Y-46371D02*
X44692Y-46071D01*
X44664Y-46114D01*
X44635Y-46142D01*
X44607Y-46157D01*
X42321Y-47121D02*
X42321Y-46821D01*
X42392Y-46821D01*
X42435Y-46835D01*
X42464Y-46864D01*
X42478Y-46892D01*
X42492Y-46950D01*
X42492Y-46992D01*
X42478Y-47050D01*
X42464Y-47078D01*
X42435Y-47107D01*
X42392Y-47121D01*
X42321Y-47121D01*
X42607Y-46850D02*
X42621Y-46835D01*
X42650Y-46821D01*
X42721Y-46821D01*
X42750Y-46835D01*
X42764Y-46850D01*
X42778Y-46878D01*
X42778Y-46907D01*
X42764Y-46950D01*
X42592Y-47121D01*
X42778Y-47121D01*
X32621Y-46178D02*
X32321Y-46178D01*
X32321Y-46107D01*
X32335Y-46064D01*
X32364Y-46035D01*
X32392Y-46021D01*
X32450Y-46007D01*
X32492Y-46007D01*
X32550Y-46021D01*
X32578Y-46035D01*
X32607Y-46064D01*
X32621Y-46107D01*
X32621Y-46178D01*
X32350Y-45892D02*
X32335Y-45878D01*
X32321Y-45850D01*
X32321Y-45778D01*
X32335Y-45750D01*
X32350Y-45735D01*
X32378Y-45721D01*
X32407Y-45721D01*
X32450Y-45735D01*
X32621Y-45907D01*
X32621Y-45721D01*
X33621Y-46178D02*
X33321Y-46178D01*
X33321Y-46107D01*
X33335Y-46064D01*
X33364Y-46035D01*
X33392Y-46021D01*
X33450Y-46007D01*
X33492Y-46007D01*
X33550Y-46021D01*
X33578Y-46035D01*
X33607Y-46064D01*
X33621Y-46107D01*
X33621Y-46178D01*
X33621Y-45721D02*
X33621Y-45892D01*
X33621Y-45807D02*
X33321Y-45807D01*
X33364Y-45835D01*
X33392Y-45864D01*
X33407Y-45892D01*
X34714Y-46178D02*
X34714Y-46078D01*
X34871Y-46035D02*
X34871Y-46178D01*
X34571Y-46178D01*
X34571Y-46035D01*
X34671Y-45907D02*
X34871Y-45907D01*
X34700Y-45907D02*
X34685Y-45892D01*
X34671Y-45864D01*
X34671Y-45821D01*
X34685Y-45792D01*
X34714Y-45778D01*
X34871Y-45778D01*
X27785Y-54335D02*
X27757Y-54321D01*
X27714Y-54321D01*
X27671Y-54335D01*
X27642Y-54364D01*
X27628Y-54392D01*
X27614Y-54450D01*
X27614Y-54492D01*
X27628Y-54550D01*
X27642Y-54578D01*
X27671Y-54607D01*
X27714Y-54621D01*
X27742Y-54621D01*
X27785Y-54607D01*
X27800Y-54592D01*
X27800Y-54492D01*
X27742Y-54492D01*
X27928Y-54621D02*
X27928Y-54321D01*
X28042Y-54321D01*
X28071Y-54335D01*
X28085Y-54350D01*
X28100Y-54378D01*
X28100Y-54421D01*
X28085Y-54450D01*
X28071Y-54464D01*
X28042Y-54478D01*
X27928Y-54478D01*
X28200Y-54321D02*
X28400Y-54321D01*
X28271Y-54621D01*
X27785Y-53335D02*
X27757Y-53321D01*
X27714Y-53321D01*
X27671Y-53335D01*
X27642Y-53364D01*
X27628Y-53392D01*
X27614Y-53450D01*
X27614Y-53492D01*
X27628Y-53550D01*
X27642Y-53578D01*
X27671Y-53607D01*
X27714Y-53621D01*
X27742Y-53621D01*
X27785Y-53607D01*
X27800Y-53592D01*
X27800Y-53492D01*
X27742Y-53492D01*
X27928Y-53621D02*
X27928Y-53321D01*
X28042Y-53321D01*
X28071Y-53335D01*
X28085Y-53350D01*
X28100Y-53378D01*
X28100Y-53421D01*
X28085Y-53450D01*
X28071Y-53464D01*
X28042Y-53478D01*
X27928Y-53478D01*
X28357Y-53321D02*
X28300Y-53321D01*
X28271Y-53335D01*
X28257Y-53350D01*
X28228Y-53392D01*
X28214Y-53450D01*
X28214Y-53564D01*
X28228Y-53592D01*
X28242Y-53607D01*
X28271Y-53621D01*
X28328Y-53621D01*
X28357Y-53607D01*
X28371Y-53592D01*
X28385Y-53564D01*
X28385Y-53492D01*
X28371Y-53464D01*
X28357Y-53450D01*
X28328Y-53435D01*
X28271Y-53435D01*
X28242Y-53450D01*
X28228Y-53464D01*
X28214Y-53492D01*
X27785Y-52335D02*
X27757Y-52321D01*
X27714Y-52321D01*
X27671Y-52335D01*
X27642Y-52364D01*
X27628Y-52392D01*
X27614Y-52450D01*
X27614Y-52492D01*
X27628Y-52550D01*
X27642Y-52578D01*
X27671Y-52607D01*
X27714Y-52621D01*
X27742Y-52621D01*
X27785Y-52607D01*
X27800Y-52592D01*
X27800Y-52492D01*
X27742Y-52492D01*
X27928Y-52621D02*
X27928Y-52321D01*
X28042Y-52321D01*
X28071Y-52335D01*
X28085Y-52350D01*
X28100Y-52378D01*
X28100Y-52421D01*
X28085Y-52450D01*
X28071Y-52464D01*
X28042Y-52478D01*
X27928Y-52478D01*
X28371Y-52321D02*
X28228Y-52321D01*
X28214Y-52464D01*
X28228Y-52450D01*
X28257Y-52435D01*
X28328Y-52435D01*
X28357Y-52450D01*
X28371Y-52464D01*
X28385Y-52492D01*
X28385Y-52564D01*
X28371Y-52592D01*
X28357Y-52607D01*
X28328Y-52621D01*
X28257Y-52621D01*
X28228Y-52607D01*
X28214Y-52592D01*
X27785Y-51335D02*
X27757Y-51321D01*
X27714Y-51321D01*
X27671Y-51335D01*
X27642Y-51364D01*
X27628Y-51392D01*
X27614Y-51450D01*
X27614Y-51492D01*
X27628Y-51550D01*
X27642Y-51578D01*
X27671Y-51607D01*
X27714Y-51621D01*
X27742Y-51621D01*
X27785Y-51607D01*
X27800Y-51592D01*
X27800Y-51492D01*
X27742Y-51492D01*
X27928Y-51621D02*
X27928Y-51321D01*
X28042Y-51321D01*
X28071Y-51335D01*
X28085Y-51350D01*
X28100Y-51378D01*
X28100Y-51421D01*
X28085Y-51450D01*
X28071Y-51464D01*
X28042Y-51478D01*
X27928Y-51478D01*
X28357Y-51421D02*
X28357Y-51621D01*
X28285Y-51307D02*
X28214Y-51521D01*
X28400Y-51521D01*
X27785Y-50335D02*
X27757Y-50321D01*
X27714Y-50321D01*
X27671Y-50335D01*
X27642Y-50364D01*
X27628Y-50392D01*
X27614Y-50450D01*
X27614Y-50492D01*
X27628Y-50550D01*
X27642Y-50578D01*
X27671Y-50607D01*
X27714Y-50621D01*
X27742Y-50621D01*
X27785Y-50607D01*
X27800Y-50592D01*
X27800Y-50492D01*
X27742Y-50492D01*
X27928Y-50621D02*
X27928Y-50321D01*
X28042Y-50321D01*
X28071Y-50335D01*
X28085Y-50350D01*
X28100Y-50378D01*
X28100Y-50421D01*
X28085Y-50450D01*
X28071Y-50464D01*
X28042Y-50478D01*
X27928Y-50478D01*
X28200Y-50321D02*
X28385Y-50321D01*
X28285Y-50435D01*
X28328Y-50435D01*
X28357Y-50450D01*
X28371Y-50464D01*
X28385Y-50492D01*
X28385Y-50564D01*
X28371Y-50592D01*
X28357Y-50607D01*
X28328Y-50621D01*
X28242Y-50621D01*
X28214Y-50607D01*
X28200Y-50592D01*
X27785Y-49335D02*
X27757Y-49321D01*
X27714Y-49321D01*
X27671Y-49335D01*
X27642Y-49364D01*
X27628Y-49392D01*
X27614Y-49450D01*
X27614Y-49492D01*
X27628Y-49550D01*
X27642Y-49578D01*
X27671Y-49607D01*
X27714Y-49621D01*
X27742Y-49621D01*
X27785Y-49607D01*
X27800Y-49592D01*
X27800Y-49492D01*
X27742Y-49492D01*
X27928Y-49621D02*
X27928Y-49321D01*
X28042Y-49321D01*
X28071Y-49335D01*
X28085Y-49350D01*
X28100Y-49378D01*
X28100Y-49421D01*
X28085Y-49450D01*
X28071Y-49464D01*
X28042Y-49478D01*
X27928Y-49478D01*
X28214Y-49350D02*
X28228Y-49335D01*
X28257Y-49321D01*
X28328Y-49321D01*
X28357Y-49335D01*
X28371Y-49350D01*
X28385Y-49378D01*
X28385Y-49407D01*
X28371Y-49450D01*
X28200Y-49621D01*
X28385Y-49621D01*
X27785Y-48335D02*
X27757Y-48321D01*
X27714Y-48321D01*
X27671Y-48335D01*
X27642Y-48364D01*
X27628Y-48392D01*
X27614Y-48450D01*
X27614Y-48492D01*
X27628Y-48550D01*
X27642Y-48578D01*
X27671Y-48607D01*
X27714Y-48621D01*
X27742Y-48621D01*
X27785Y-48607D01*
X27800Y-48592D01*
X27800Y-48492D01*
X27742Y-48492D01*
X27928Y-48621D02*
X27928Y-48321D01*
X28042Y-48321D01*
X28071Y-48335D01*
X28085Y-48350D01*
X28100Y-48378D01*
X28100Y-48421D01*
X28085Y-48450D01*
X28071Y-48464D01*
X28042Y-48478D01*
X27928Y-48478D01*
X28385Y-48621D02*
X28214Y-48621D01*
X28300Y-48621D02*
X28300Y-48321D01*
X28271Y-48364D01*
X28242Y-48392D01*
X28214Y-48407D01*
X27785Y-47335D02*
X27757Y-47321D01*
X27714Y-47321D01*
X27671Y-47335D01*
X27642Y-47364D01*
X27628Y-47392D01*
X27614Y-47450D01*
X27614Y-47492D01*
X27628Y-47550D01*
X27642Y-47578D01*
X27671Y-47607D01*
X27714Y-47621D01*
X27742Y-47621D01*
X27785Y-47607D01*
X27800Y-47592D01*
X27800Y-47492D01*
X27742Y-47492D01*
X27928Y-47621D02*
X27928Y-47321D01*
X28042Y-47321D01*
X28071Y-47335D01*
X28085Y-47350D01*
X28100Y-47378D01*
X28100Y-47421D01*
X28085Y-47450D01*
X28071Y-47464D01*
X28042Y-47478D01*
X27928Y-47478D01*
X28285Y-47321D02*
X28314Y-47321D01*
X28342Y-47335D01*
X28357Y-47350D01*
X28371Y-47378D01*
X28385Y-47435D01*
X28385Y-47507D01*
X28371Y-47564D01*
X28357Y-47592D01*
X28342Y-47607D01*
X28314Y-47621D01*
X28285Y-47621D01*
X28257Y-47607D01*
X28242Y-47592D01*
X28228Y-47564D01*
X28214Y-47507D01*
X28214Y-47435D01*
X28228Y-47378D01*
X28242Y-47350D01*
X28257Y-47335D01*
X28285Y-47321D01*
X44607Y-37621D02*
X44507Y-37478D01*
X44435Y-37621D02*
X44435Y-37321D01*
X44550Y-37321D01*
X44578Y-37335D01*
X44592Y-37350D01*
X44607Y-37378D01*
X44607Y-37421D01*
X44592Y-37450D01*
X44578Y-37464D01*
X44550Y-37478D01*
X44435Y-37478D01*
X44735Y-37621D02*
X44735Y-37321D01*
X44807Y-37321D01*
X44850Y-37335D01*
X44878Y-37364D01*
X44892Y-37392D01*
X44907Y-37450D01*
X44907Y-37492D01*
X44892Y-37550D01*
X44878Y-37578D01*
X44850Y-37607D01*
X44807Y-37621D01*
X44735Y-37621D01*
X45007Y-37321D02*
X45207Y-37321D01*
X45078Y-37621D01*
X44607Y-38621D02*
X44507Y-38478D01*
X44435Y-38621D02*
X44435Y-38321D01*
X44550Y-38321D01*
X44578Y-38335D01*
X44592Y-38350D01*
X44607Y-38378D01*
X44607Y-38421D01*
X44592Y-38450D01*
X44578Y-38464D01*
X44550Y-38478D01*
X44435Y-38478D01*
X44735Y-38621D02*
X44735Y-38321D01*
X44807Y-38321D01*
X44850Y-38335D01*
X44878Y-38364D01*
X44892Y-38392D01*
X44907Y-38450D01*
X44907Y-38492D01*
X44892Y-38550D01*
X44878Y-38578D01*
X44850Y-38607D01*
X44807Y-38621D01*
X44735Y-38621D01*
X45164Y-38321D02*
X45107Y-38321D01*
X45078Y-38335D01*
X45064Y-38350D01*
X45035Y-38392D01*
X45021Y-38450D01*
X45021Y-38564D01*
X45035Y-38592D01*
X45050Y-38607D01*
X45078Y-38621D01*
X45135Y-38621D01*
X45164Y-38607D01*
X45178Y-38592D01*
X45192Y-38564D01*
X45192Y-38492D01*
X45178Y-38464D01*
X45164Y-38450D01*
X45135Y-38435D01*
X45078Y-38435D01*
X45050Y-38450D01*
X45035Y-38464D01*
X45021Y-38492D01*
X44607Y-39621D02*
X44507Y-39478D01*
X44435Y-39621D02*
X44435Y-39321D01*
X44550Y-39321D01*
X44578Y-39335D01*
X44592Y-39350D01*
X44607Y-39378D01*
X44607Y-39421D01*
X44592Y-39450D01*
X44578Y-39464D01*
X44550Y-39478D01*
X44435Y-39478D01*
X44735Y-39621D02*
X44735Y-39321D01*
X44807Y-39321D01*
X44850Y-39335D01*
X44878Y-39364D01*
X44892Y-39392D01*
X44907Y-39450D01*
X44907Y-39492D01*
X44892Y-39550D01*
X44878Y-39578D01*
X44850Y-39607D01*
X44807Y-39621D01*
X44735Y-39621D01*
X45178Y-39321D02*
X45035Y-39321D01*
X45021Y-39464D01*
X45035Y-39450D01*
X45064Y-39435D01*
X45135Y-39435D01*
X45164Y-39450D01*
X45178Y-39464D01*
X45192Y-39492D01*
X45192Y-39564D01*
X45178Y-39592D01*
X45164Y-39607D01*
X45135Y-39621D01*
X45064Y-39621D01*
X45035Y-39607D01*
X45021Y-39592D01*
X44607Y-40621D02*
X44507Y-40478D01*
X44435Y-40621D02*
X44435Y-40321D01*
X44550Y-40321D01*
X44578Y-40335D01*
X44592Y-40350D01*
X44607Y-40378D01*
X44607Y-40421D01*
X44592Y-40450D01*
X44578Y-40464D01*
X44550Y-40478D01*
X44435Y-40478D01*
X44735Y-40621D02*
X44735Y-40321D01*
X44807Y-40321D01*
X44850Y-40335D01*
X44878Y-40364D01*
X44892Y-40392D01*
X44907Y-40450D01*
X44907Y-40492D01*
X44892Y-40550D01*
X44878Y-40578D01*
X44850Y-40607D01*
X44807Y-40621D01*
X44735Y-40621D01*
X45164Y-40421D02*
X45164Y-40621D01*
X45092Y-40307D02*
X45021Y-40521D01*
X45207Y-40521D01*
X44607Y-41621D02*
X44507Y-41478D01*
X44435Y-41621D02*
X44435Y-41321D01*
X44550Y-41321D01*
X44578Y-41335D01*
X44592Y-41350D01*
X44607Y-41378D01*
X44607Y-41421D01*
X44592Y-41450D01*
X44578Y-41464D01*
X44550Y-41478D01*
X44435Y-41478D01*
X44735Y-41621D02*
X44735Y-41321D01*
X44807Y-41321D01*
X44850Y-41335D01*
X44878Y-41364D01*
X44892Y-41392D01*
X44907Y-41450D01*
X44907Y-41492D01*
X44892Y-41550D01*
X44878Y-41578D01*
X44850Y-41607D01*
X44807Y-41621D01*
X44735Y-41621D01*
X45007Y-41321D02*
X45192Y-41321D01*
X45092Y-41435D01*
X45135Y-41435D01*
X45164Y-41450D01*
X45178Y-41464D01*
X45192Y-41492D01*
X45192Y-41564D01*
X45178Y-41592D01*
X45164Y-41607D01*
X45135Y-41621D01*
X45050Y-41621D01*
X45021Y-41607D01*
X45007Y-41592D01*
X44607Y-42621D02*
X44507Y-42478D01*
X44435Y-42621D02*
X44435Y-42321D01*
X44550Y-42321D01*
X44578Y-42335D01*
X44592Y-42350D01*
X44607Y-42378D01*
X44607Y-42421D01*
X44592Y-42450D01*
X44578Y-42464D01*
X44550Y-42478D01*
X44435Y-42478D01*
X44735Y-42621D02*
X44735Y-42321D01*
X44807Y-42321D01*
X44850Y-42335D01*
X44878Y-42364D01*
X44892Y-42392D01*
X44907Y-42450D01*
X44907Y-42492D01*
X44892Y-42550D01*
X44878Y-42578D01*
X44850Y-42607D01*
X44807Y-42621D01*
X44735Y-42621D01*
X45021Y-42350D02*
X45035Y-42335D01*
X45064Y-42321D01*
X45135Y-42321D01*
X45164Y-42335D01*
X45178Y-42350D01*
X45192Y-42378D01*
X45192Y-42407D01*
X45178Y-42450D01*
X45007Y-42621D01*
X45192Y-42621D01*
X44607Y-43621D02*
X44507Y-43478D01*
X44435Y-43621D02*
X44435Y-43321D01*
X44550Y-43321D01*
X44578Y-43335D01*
X44592Y-43350D01*
X44607Y-43378D01*
X44607Y-43421D01*
X44592Y-43450D01*
X44578Y-43464D01*
X44550Y-43478D01*
X44435Y-43478D01*
X44735Y-43621D02*
X44735Y-43321D01*
X44807Y-43321D01*
X44850Y-43335D01*
X44878Y-43364D01*
X44892Y-43392D01*
X44907Y-43450D01*
X44907Y-43492D01*
X44892Y-43550D01*
X44878Y-43578D01*
X44850Y-43607D01*
X44807Y-43621D01*
X44735Y-43621D01*
X45192Y-43621D02*
X45021Y-43621D01*
X45107Y-43621D02*
X45107Y-43321D01*
X45078Y-43364D01*
X45050Y-43392D01*
X45021Y-43407D01*
X45607Y-45621D02*
X45507Y-45478D01*
X45435Y-45621D02*
X45435Y-45321D01*
X45550Y-45321D01*
X45578Y-45335D01*
X45592Y-45350D01*
X45607Y-45378D01*
X45607Y-45421D01*
X45592Y-45450D01*
X45578Y-45464D01*
X45550Y-45478D01*
X45435Y-45478D01*
X45735Y-45621D02*
X45735Y-45321D01*
X45807Y-45321D01*
X45850Y-45335D01*
X45878Y-45364D01*
X45892Y-45392D01*
X45907Y-45450D01*
X45907Y-45492D01*
X45892Y-45550D01*
X45878Y-45578D01*
X45850Y-45607D01*
X45807Y-45621D01*
X45735Y-45621D01*
X46092Y-45321D02*
X46121Y-45321D01*
X46150Y-45335D01*
X46164Y-45350D01*
X46178Y-45378D01*
X46192Y-45435D01*
X46192Y-45507D01*
X46178Y-45564D01*
X46164Y-45592D01*
X46150Y-45607D01*
X46121Y-45621D01*
X46092Y-45621D01*
X46064Y-45607D01*
X46050Y-45592D01*
X46035Y-45564D01*
X46021Y-45507D01*
X46021Y-45435D01*
X46035Y-45378D01*
X46050Y-45350D01*
X46064Y-45335D01*
X46092Y-45321D01*
X44607Y-29121D02*
X44507Y-28978D01*
X44435Y-29121D02*
X44435Y-28821D01*
X44550Y-28821D01*
X44578Y-28835D01*
X44592Y-28850D01*
X44607Y-28878D01*
X44607Y-28921D01*
X44592Y-28950D01*
X44578Y-28964D01*
X44550Y-28978D01*
X44435Y-28978D01*
X44835Y-28964D02*
X44878Y-28978D01*
X44892Y-28992D01*
X44907Y-29021D01*
X44907Y-29064D01*
X44892Y-29092D01*
X44878Y-29107D01*
X44850Y-29121D01*
X44735Y-29121D01*
X44735Y-28821D01*
X44835Y-28821D01*
X44864Y-28835D01*
X44878Y-28850D01*
X44892Y-28878D01*
X44892Y-28907D01*
X44878Y-28935D01*
X44864Y-28950D01*
X44835Y-28964D01*
X44735Y-28964D01*
X45007Y-28821D02*
X45207Y-28821D01*
X45078Y-29121D01*
X44607Y-30121D02*
X44507Y-29978D01*
X44435Y-30121D02*
X44435Y-29821D01*
X44550Y-29821D01*
X44578Y-29835D01*
X44592Y-29850D01*
X44607Y-29878D01*
X44607Y-29921D01*
X44592Y-29950D01*
X44578Y-29964D01*
X44550Y-29978D01*
X44435Y-29978D01*
X44835Y-29964D02*
X44878Y-29978D01*
X44892Y-29992D01*
X44907Y-30021D01*
X44907Y-30064D01*
X44892Y-30092D01*
X44878Y-30107D01*
X44850Y-30121D01*
X44735Y-30121D01*
X44735Y-29821D01*
X44835Y-29821D01*
X44864Y-29835D01*
X44878Y-29850D01*
X44892Y-29878D01*
X44892Y-29907D01*
X44878Y-29935D01*
X44864Y-29950D01*
X44835Y-29964D01*
X44735Y-29964D01*
X45164Y-29821D02*
X45107Y-29821D01*
X45078Y-29835D01*
X45064Y-29850D01*
X45035Y-29892D01*
X45021Y-29950D01*
X45021Y-30064D01*
X45035Y-30092D01*
X45050Y-30107D01*
X45078Y-30121D01*
X45135Y-30121D01*
X45164Y-30107D01*
X45178Y-30092D01*
X45192Y-30064D01*
X45192Y-29992D01*
X45178Y-29964D01*
X45164Y-29950D01*
X45135Y-29935D01*
X45078Y-29935D01*
X45050Y-29950D01*
X45035Y-29964D01*
X45021Y-29992D01*
X44607Y-31121D02*
X44507Y-30978D01*
X44435Y-31121D02*
X44435Y-30821D01*
X44550Y-30821D01*
X44578Y-30835D01*
X44592Y-30850D01*
X44607Y-30878D01*
X44607Y-30921D01*
X44592Y-30950D01*
X44578Y-30964D01*
X44550Y-30978D01*
X44435Y-30978D01*
X44835Y-30964D02*
X44878Y-30978D01*
X44892Y-30992D01*
X44907Y-31021D01*
X44907Y-31064D01*
X44892Y-31092D01*
X44878Y-31107D01*
X44850Y-31121D01*
X44735Y-31121D01*
X44735Y-30821D01*
X44835Y-30821D01*
X44864Y-30835D01*
X44878Y-30850D01*
X44892Y-30878D01*
X44892Y-30907D01*
X44878Y-30935D01*
X44864Y-30950D01*
X44835Y-30964D01*
X44735Y-30964D01*
X45178Y-30821D02*
X45035Y-30821D01*
X45021Y-30964D01*
X45035Y-30950D01*
X45064Y-30935D01*
X45135Y-30935D01*
X45164Y-30950D01*
X45178Y-30964D01*
X45192Y-30992D01*
X45192Y-31064D01*
X45178Y-31092D01*
X45164Y-31107D01*
X45135Y-31121D01*
X45064Y-31121D01*
X45035Y-31107D01*
X45021Y-31092D01*
X44607Y-32121D02*
X44507Y-31978D01*
X44435Y-32121D02*
X44435Y-31821D01*
X44550Y-31821D01*
X44578Y-31835D01*
X44592Y-31850D01*
X44607Y-31878D01*
X44607Y-31921D01*
X44592Y-31950D01*
X44578Y-31964D01*
X44550Y-31978D01*
X44435Y-31978D01*
X44835Y-31964D02*
X44878Y-31978D01*
X44892Y-31992D01*
X44907Y-32021D01*
X44907Y-32064D01*
X44892Y-32092D01*
X44878Y-32107D01*
X44850Y-32121D01*
X44735Y-32121D01*
X44735Y-31821D01*
X44835Y-31821D01*
X44864Y-31835D01*
X44878Y-31850D01*
X44892Y-31878D01*
X44892Y-31907D01*
X44878Y-31935D01*
X44864Y-31950D01*
X44835Y-31964D01*
X44735Y-31964D01*
X45164Y-31921D02*
X45164Y-32121D01*
X45092Y-31807D02*
X45021Y-32021D01*
X45207Y-32021D01*
X44607Y-33121D02*
X44507Y-32978D01*
X44435Y-33121D02*
X44435Y-32821D01*
X44550Y-32821D01*
X44578Y-32835D01*
X44592Y-32850D01*
X44607Y-32878D01*
X44607Y-32921D01*
X44592Y-32950D01*
X44578Y-32964D01*
X44550Y-32978D01*
X44435Y-32978D01*
X44835Y-32964D02*
X44878Y-32978D01*
X44892Y-32992D01*
X44907Y-33021D01*
X44907Y-33064D01*
X44892Y-33092D01*
X44878Y-33107D01*
X44850Y-33121D01*
X44735Y-33121D01*
X44735Y-32821D01*
X44835Y-32821D01*
X44864Y-32835D01*
X44878Y-32850D01*
X44892Y-32878D01*
X44892Y-32907D01*
X44878Y-32935D01*
X44864Y-32950D01*
X44835Y-32964D01*
X44735Y-32964D01*
X45007Y-32821D02*
X45192Y-32821D01*
X45092Y-32935D01*
X45135Y-32935D01*
X45164Y-32950D01*
X45178Y-32964D01*
X45192Y-32992D01*
X45192Y-33064D01*
X45178Y-33092D01*
X45164Y-33107D01*
X45135Y-33121D01*
X45050Y-33121D01*
X45021Y-33107D01*
X45007Y-33092D01*
X44607Y-34121D02*
X44507Y-33978D01*
X44435Y-34121D02*
X44435Y-33821D01*
X44550Y-33821D01*
X44578Y-33835D01*
X44592Y-33850D01*
X44607Y-33878D01*
X44607Y-33921D01*
X44592Y-33950D01*
X44578Y-33964D01*
X44550Y-33978D01*
X44435Y-33978D01*
X44835Y-33964D02*
X44878Y-33978D01*
X44892Y-33992D01*
X44907Y-34021D01*
X44907Y-34064D01*
X44892Y-34092D01*
X44878Y-34107D01*
X44850Y-34121D01*
X44735Y-34121D01*
X44735Y-33821D01*
X44835Y-33821D01*
X44864Y-33835D01*
X44878Y-33850D01*
X44892Y-33878D01*
X44892Y-33907D01*
X44878Y-33935D01*
X44864Y-33950D01*
X44835Y-33964D01*
X44735Y-33964D01*
X45021Y-33850D02*
X45035Y-33835D01*
X45064Y-33821D01*
X45135Y-33821D01*
X45164Y-33835D01*
X45178Y-33850D01*
X45192Y-33878D01*
X45192Y-33907D01*
X45178Y-33950D01*
X45007Y-34121D01*
X45192Y-34121D01*
X44607Y-35121D02*
X44507Y-34978D01*
X44435Y-35121D02*
X44435Y-34821D01*
X44550Y-34821D01*
X44578Y-34835D01*
X44592Y-34850D01*
X44607Y-34878D01*
X44607Y-34921D01*
X44592Y-34950D01*
X44578Y-34964D01*
X44550Y-34978D01*
X44435Y-34978D01*
X44835Y-34964D02*
X44878Y-34978D01*
X44892Y-34992D01*
X44907Y-35021D01*
X44907Y-35064D01*
X44892Y-35092D01*
X44878Y-35107D01*
X44850Y-35121D01*
X44735Y-35121D01*
X44735Y-34821D01*
X44835Y-34821D01*
X44864Y-34835D01*
X44878Y-34850D01*
X44892Y-34878D01*
X44892Y-34907D01*
X44878Y-34935D01*
X44864Y-34950D01*
X44835Y-34964D01*
X44735Y-34964D01*
X45192Y-35121D02*
X45021Y-35121D01*
X45107Y-35121D02*
X45107Y-34821D01*
X45078Y-34864D01*
X45050Y-34892D01*
X45021Y-34907D01*
X44607Y-36121D02*
X44507Y-35978D01*
X44435Y-36121D02*
X44435Y-35821D01*
X44550Y-35821D01*
X44578Y-35835D01*
X44592Y-35850D01*
X44607Y-35878D01*
X44607Y-35921D01*
X44592Y-35950D01*
X44578Y-35964D01*
X44550Y-35978D01*
X44435Y-35978D01*
X44835Y-35964D02*
X44878Y-35978D01*
X44892Y-35992D01*
X44907Y-36021D01*
X44907Y-36064D01*
X44892Y-36092D01*
X44878Y-36107D01*
X44850Y-36121D01*
X44735Y-36121D01*
X44735Y-35821D01*
X44835Y-35821D01*
X44864Y-35835D01*
X44878Y-35850D01*
X44892Y-35878D01*
X44892Y-35907D01*
X44878Y-35935D01*
X44864Y-35950D01*
X44835Y-35964D01*
X44735Y-35964D01*
X45092Y-35821D02*
X45121Y-35821D01*
X45150Y-35835D01*
X45164Y-35850D01*
X45178Y-35878D01*
X45192Y-35935D01*
X45192Y-36007D01*
X45178Y-36064D01*
X45164Y-36092D01*
X45150Y-36107D01*
X45121Y-36121D01*
X45092Y-36121D01*
X45064Y-36107D01*
X45050Y-36092D01*
X45035Y-36064D01*
X45021Y-36007D01*
X45021Y-35935D01*
X45035Y-35878D01*
X45050Y-35850D01*
X45064Y-35835D01*
X45092Y-35821D01*
X27992Y-32621D02*
X27892Y-32478D01*
X27821Y-32621D02*
X27821Y-32321D01*
X27935Y-32321D01*
X27964Y-32335D01*
X27978Y-32350D01*
X27992Y-32378D01*
X27992Y-32421D01*
X27978Y-32450D01*
X27964Y-32464D01*
X27935Y-32478D01*
X27821Y-32478D01*
X28121Y-32464D02*
X28221Y-32464D01*
X28264Y-32621D02*
X28121Y-32621D01*
X28121Y-32321D01*
X28264Y-32321D01*
X28378Y-32607D02*
X28421Y-32621D01*
X28492Y-32621D01*
X28521Y-32607D01*
X28535Y-32592D01*
X28550Y-32564D01*
X28550Y-32535D01*
X28535Y-32507D01*
X28521Y-32492D01*
X28492Y-32478D01*
X28435Y-32464D01*
X28407Y-32450D01*
X28392Y-32435D01*
X28378Y-32407D01*
X28378Y-32378D01*
X28392Y-32350D01*
X28407Y-32335D01*
X28435Y-32321D01*
X28507Y-32321D01*
X28550Y-32335D01*
X28678Y-32464D02*
X28778Y-32464D01*
X28821Y-32621D02*
X28678Y-32621D01*
X28678Y-32321D01*
X28821Y-32321D01*
X28907Y-32321D02*
X29078Y-32321D01*
X28992Y-32621D02*
X28992Y-32321D01*
X27750Y-32230D02*
X29107Y-32230D01*
X27964Y-34321D02*
X27821Y-34321D01*
X27807Y-34464D01*
X27821Y-34450D01*
X27850Y-34435D01*
X27921Y-34435D01*
X27950Y-34450D01*
X27964Y-34464D01*
X27978Y-34492D01*
X27978Y-34564D01*
X27964Y-34592D01*
X27950Y-34607D01*
X27921Y-34621D01*
X27850Y-34621D01*
X27821Y-34607D01*
X27807Y-34592D01*
X28078Y-34421D02*
X28150Y-34621D01*
X28221Y-34421D01*
X27978Y-35335D02*
X27950Y-35321D01*
X27907Y-35321D01*
X27864Y-35335D01*
X27835Y-35364D01*
X27821Y-35392D01*
X27807Y-35450D01*
X27807Y-35492D01*
X27821Y-35550D01*
X27835Y-35578D01*
X27864Y-35607D01*
X27907Y-35621D01*
X27935Y-35621D01*
X27978Y-35607D01*
X27992Y-35592D01*
X27992Y-35492D01*
X27935Y-35492D01*
X28121Y-35421D02*
X28121Y-35621D01*
X28121Y-35450D02*
X28135Y-35435D01*
X28164Y-35421D01*
X28207Y-35421D01*
X28235Y-35435D01*
X28250Y-35464D01*
X28250Y-35621D01*
X28521Y-35621D02*
X28521Y-35321D01*
X28521Y-35607D02*
X28492Y-35621D01*
X28435Y-35621D01*
X28407Y-35607D01*
X28392Y-35592D01*
X28378Y-35564D01*
X28378Y-35478D01*
X28392Y-35450D01*
X28407Y-35435D01*
X28435Y-35421D01*
X28492Y-35421D01*
X28521Y-35435D01*
X27978Y-36335D02*
X27950Y-36321D01*
X27907Y-36321D01*
X27864Y-36335D01*
X27835Y-36364D01*
X27821Y-36392D01*
X27807Y-36450D01*
X27807Y-36492D01*
X27821Y-36550D01*
X27835Y-36578D01*
X27864Y-36607D01*
X27907Y-36621D01*
X27935Y-36621D01*
X27978Y-36607D01*
X27992Y-36592D01*
X27992Y-36492D01*
X27935Y-36492D01*
X28121Y-36421D02*
X28121Y-36621D01*
X28121Y-36450D02*
X28135Y-36435D01*
X28164Y-36421D01*
X28207Y-36421D01*
X28235Y-36435D01*
X28250Y-36464D01*
X28250Y-36621D01*
X28521Y-36621D02*
X28521Y-36321D01*
X28521Y-36607D02*
X28492Y-36621D01*
X28435Y-36621D01*
X28407Y-36607D01*
X28392Y-36592D01*
X28378Y-36564D01*
X28378Y-36478D01*
X28392Y-36450D01*
X28407Y-36435D01*
X28435Y-36421D01*
X28492Y-36421D01*
X28521Y-36435D01*
X27778Y-37321D02*
X27878Y-37621D01*
X27978Y-37321D01*
X28078Y-37621D02*
X28078Y-37421D01*
X28078Y-37321D02*
X28064Y-37335D01*
X28078Y-37350D01*
X28092Y-37335D01*
X28078Y-37321D01*
X28078Y-37350D01*
X28221Y-37421D02*
X28221Y-37621D01*
X28221Y-37450D02*
X28235Y-37435D01*
X28264Y-37421D01*
X28307Y-37421D01*
X28335Y-37435D01*
X28350Y-37464D01*
X28350Y-37621D01*
X27628Y-39535D02*
X27771Y-39535D01*
X27600Y-39621D02*
X27700Y-39321D01*
X27800Y-39621D01*
X27900Y-39621D02*
X27900Y-39321D01*
X28071Y-39621D01*
X28071Y-39321D01*
X28271Y-39321D02*
X28300Y-39321D01*
X28328Y-39335D01*
X28342Y-39350D01*
X28357Y-39378D01*
X28371Y-39435D01*
X28371Y-39507D01*
X28357Y-39564D01*
X28342Y-39592D01*
X28328Y-39607D01*
X28300Y-39621D01*
X28271Y-39621D01*
X28242Y-39607D01*
X28228Y-39592D01*
X28214Y-39564D01*
X28200Y-39507D01*
X28200Y-39435D01*
X28214Y-39378D01*
X28228Y-39350D01*
X28242Y-39335D01*
X28271Y-39321D01*
X27628Y-40535D02*
X27771Y-40535D01*
X27600Y-40621D02*
X27700Y-40321D01*
X27800Y-40621D01*
X27900Y-40621D02*
X27900Y-40321D01*
X28071Y-40621D01*
X28071Y-40321D01*
X28371Y-40621D02*
X28200Y-40621D01*
X28285Y-40621D02*
X28285Y-40321D01*
X28257Y-40364D01*
X28228Y-40392D01*
X28200Y-40407D01*
X27628Y-41535D02*
X27771Y-41535D01*
X27600Y-41621D02*
X27700Y-41321D01*
X27800Y-41621D01*
X27900Y-41621D02*
X27900Y-41321D01*
X28071Y-41621D01*
X28071Y-41321D01*
X28200Y-41350D02*
X28214Y-41335D01*
X28242Y-41321D01*
X28314Y-41321D01*
X28342Y-41335D01*
X28357Y-41350D01*
X28371Y-41378D01*
X28371Y-41407D01*
X28357Y-41450D01*
X28185Y-41621D01*
X28371Y-41621D01*
X27628Y-42535D02*
X27771Y-42535D01*
X27600Y-42621D02*
X27700Y-42321D01*
X27800Y-42621D01*
X27900Y-42621D02*
X27900Y-42321D01*
X28071Y-42621D01*
X28071Y-42321D01*
X28185Y-42321D02*
X28371Y-42321D01*
X28271Y-42435D01*
X28314Y-42435D01*
X28342Y-42450D01*
X28357Y-42464D01*
X28371Y-42492D01*
X28371Y-42564D01*
X28357Y-42592D01*
X28342Y-42607D01*
X28314Y-42621D01*
X28228Y-42621D01*
X28200Y-42607D01*
X28185Y-42592D01*
X27628Y-43535D02*
X27771Y-43535D01*
X27600Y-43621D02*
X27700Y-43321D01*
X27800Y-43621D01*
X27900Y-43621D02*
X27900Y-43321D01*
X28071Y-43621D01*
X28071Y-43321D01*
X28342Y-43421D02*
X28342Y-43621D01*
X28271Y-43307D02*
X28200Y-43521D01*
X28385Y-43521D01*
X27628Y-44535D02*
X27771Y-44535D01*
X27600Y-44621D02*
X27700Y-44321D01*
X27800Y-44621D01*
X27900Y-44621D02*
X27900Y-44321D01*
X28071Y-44621D01*
X28071Y-44321D01*
X28357Y-44321D02*
X28214Y-44321D01*
X28200Y-44464D01*
X28214Y-44450D01*
X28242Y-44435D01*
X28314Y-44435D01*
X28342Y-44450D01*
X28357Y-44464D01*
X28371Y-44492D01*
X28371Y-44564D01*
X28357Y-44592D01*
X28342Y-44607D01*
X28314Y-44621D01*
X28242Y-44621D01*
X28214Y-44607D01*
X28200Y-44592D01*
G54D10*
X53000Y-56500D02*
X54000Y-56500D01*
X53000Y-56500D02*
X53000Y-57500D01*
X53000Y-54500D02*
X53000Y-55500D01*
X53000Y-55500D02*
X54000Y-55500D01*
X50000Y-55500D02*
X51000Y-55500D01*
X51000Y-55500D02*
X51000Y-54500D01*
X50000Y-56500D02*
X51000Y-56500D01*
X51000Y-56500D02*
X51000Y-57500D01*
X50000Y-57500D02*
X54000Y-57500D01*
X54000Y-57500D02*
X54000Y-54500D01*
X54000Y-54500D02*
X50000Y-54500D01*
X50000Y-54500D02*
X50000Y-57500D01*
X58000Y-56500D02*
X59000Y-56500D01*
X58000Y-56500D02*
X58000Y-57500D01*
X58000Y-54500D02*
X58000Y-55500D01*
X58000Y-55500D02*
X59000Y-55500D01*
X55000Y-55500D02*
X56000Y-55500D01*
X56000Y-55500D02*
X56000Y-54500D01*
X55000Y-56500D02*
X56000Y-56500D01*
X56000Y-56500D02*
X56000Y-57500D01*
X55000Y-57500D02*
X59000Y-57500D01*
X59000Y-57500D02*
X59000Y-54500D01*
X59000Y-54500D02*
X55000Y-54500D01*
X55000Y-54500D02*
X55000Y-57500D01*
X27500Y-24000D02*
X27500Y-23000D01*
X27500Y-24000D02*
X28500Y-24000D01*
X25500Y-24000D02*
X26500Y-24000D01*
X26500Y-24000D02*
X26500Y-23000D01*
X26500Y-27000D02*
X26500Y-26000D01*
X26500Y-26000D02*
X25500Y-26000D01*
X27500Y-27000D02*
X27500Y-26000D01*
X27500Y-26000D02*
X28500Y-26000D01*
X28500Y-27000D02*
X28500Y-23000D01*
X28500Y-23000D02*
X25500Y-23000D01*
X25500Y-23000D02*
X25500Y-27000D01*
X25500Y-27000D02*
X28500Y-27000D01*
G54D12*
X38000Y-24000D02*
X39000Y-24000D01*
X39000Y-24000D02*
X39000Y-30000D01*
X39000Y-30000D02*
X38000Y-30000D01*
X38000Y-30000D02*
X38000Y-24000D01*
X38000Y-25000D02*
X39000Y-25000D01*
X50000Y-32000D02*
X49000Y-32000D01*
X49000Y-32000D02*
X49000Y-27000D01*
X49000Y-27000D02*
X50000Y-27000D01*
X50000Y-27000D02*
X50000Y-32000D01*
X50000Y-31000D02*
X49000Y-31000D01*
X35000Y-46500D02*
X35000Y-47500D01*
X35000Y-47500D02*
X32000Y-47500D01*
X32000Y-47500D02*
X32000Y-46500D01*
X32000Y-46500D02*
X35000Y-46500D01*
X34000Y-47500D02*
X34000Y-46500D01*
X46000Y-46500D02*
X46000Y-47500D01*
X46000Y-47500D02*
X43000Y-47500D01*
X43000Y-47500D02*
X43000Y-46500D01*
X43000Y-46500D02*
X46000Y-46500D01*
X45000Y-47500D02*
X45000Y-46500D01*
X45000Y-56500D02*
X45000Y-57500D01*
X45000Y-57500D02*
X42000Y-57500D01*
X42000Y-57500D02*
X42000Y-56500D01*
X42000Y-56500D02*
X45000Y-56500D01*
X44000Y-57500D02*
X44000Y-56500D01*
X33000Y-57500D02*
X33000Y-56500D01*
X33000Y-56500D02*
X36000Y-56500D01*
X36000Y-56500D02*
X36000Y-57500D01*
X36000Y-57500D02*
X33000Y-57500D01*
X34000Y-56500D02*
X34000Y-57500D01*
X47500Y-25000D02*
X48500Y-25000D01*
X48500Y-25000D02*
X48500Y-28000D01*
X48500Y-28000D02*
X47500Y-28000D01*
X47500Y-28000D02*
X47500Y-25000D01*
X48500Y-26000D02*
X47500Y-26000D01*
X44000Y-43500D02*
X44000Y-43100D01*
X44000Y-43100D02*
X43600Y-43100D01*
X43600Y-43100D02*
X43600Y-39900D01*
X43600Y-39900D02*
X44400Y-39900D01*
X44400Y-39900D02*
X44400Y-43100D01*
X44400Y-43100D02*
X44000Y-43100D01*
X43800Y-43100D02*
X43600Y-42900D01*
X44000Y-39500D02*
X44000Y-39900D01*
X38000Y-43500D02*
X38000Y-43100D01*
X38000Y-43100D02*
X37600Y-43100D01*
X37600Y-43100D02*
X37600Y-39900D01*
X37600Y-39900D02*
X38400Y-39900D01*
X38400Y-39900D02*
X38400Y-43100D01*
X38400Y-43100D02*
X38000Y-43100D01*
X37800Y-43100D02*
X37600Y-42900D01*
X38000Y-39500D02*
X38000Y-39900D01*
X54500Y-53500D02*
X54100Y-53500D01*
X54100Y-53500D02*
X54100Y-53900D01*
X54100Y-53900D02*
X50900Y-53900D01*
X50900Y-53900D02*
X50900Y-53100D01*
X50900Y-53100D02*
X54100Y-53100D01*
X54100Y-53100D02*
X54100Y-53500D01*
X54100Y-53700D02*
X53900Y-53900D01*
X50500Y-53500D02*
X50900Y-53500D01*
X59500Y-53500D02*
X59100Y-53500D01*
X59100Y-53500D02*
X59100Y-53900D01*
X59100Y-53900D02*
X55900Y-53900D01*
X55900Y-53900D02*
X55900Y-53100D01*
X55900Y-53100D02*
X59100Y-53100D01*
X59100Y-53100D02*
X59100Y-53500D01*
X59100Y-53700D02*
X58900Y-53900D01*
X55500Y-53500D02*
X55900Y-53500D01*
X30000Y-31500D02*
X30000Y-31100D01*
X30000Y-31100D02*
X29600Y-31100D01*
X29600Y-31100D02*
X29600Y-27900D01*
X29600Y-27900D02*
X30400Y-27900D01*
X30400Y-27900D02*
X30400Y-31100D01*
X30400Y-31100D02*
X30000Y-31100D01*
X29800Y-31100D02*
X29600Y-30900D01*
X30000Y-27500D02*
X30000Y-27900D01*
X26000Y-31500D02*
X26000Y-31100D01*
X26000Y-31100D02*
X25600Y-31100D01*
X25600Y-31100D02*
X25600Y-27900D01*
X25600Y-27900D02*
X26400Y-27900D01*
X26400Y-27900D02*
X26400Y-31100D01*
X26400Y-31100D02*
X26000Y-31100D01*
X25800Y-31100D02*
X25600Y-30900D01*
X26000Y-27500D02*
X26000Y-27900D01*
X28000Y-31500D02*
X28000Y-31100D01*
X28000Y-31100D02*
X27600Y-31100D01*
X27600Y-31100D02*
X27600Y-27900D01*
X27600Y-27900D02*
X28400Y-27900D01*
X28400Y-27900D02*
X28400Y-31100D01*
X28400Y-31100D02*
X28000Y-31100D01*
X27800Y-31100D02*
X27600Y-30900D01*
X28000Y-27500D02*
X28000Y-27900D01*
X57500Y-26000D02*
X57900Y-26000D01*
X57900Y-26000D02*
X57900Y-25600D01*
X57900Y-25600D02*
X61100Y-25600D01*
X61100Y-25600D02*
X61100Y-26400D01*
X61100Y-26400D02*
X57900Y-26400D01*
X57900Y-26400D02*
X57900Y-26000D01*
X57900Y-25800D02*
X58100Y-25600D01*
X61500Y-26000D02*
X61100Y-26000D01*
X40000Y-43500D02*
X40000Y-43100D01*
X40000Y-43100D02*
X39600Y-43100D01*
X39600Y-43100D02*
X39600Y-39900D01*
X39600Y-39900D02*
X40400Y-39900D01*
X40400Y-39900D02*
X40400Y-43100D01*
X40400Y-43100D02*
X40000Y-43100D01*
X39800Y-43100D02*
X39600Y-42900D01*
X40000Y-39500D02*
X40000Y-39900D01*
X42000Y-43500D02*
X42000Y-43100D01*
X42000Y-43100D02*
X41600Y-43100D01*
X41600Y-43100D02*
X41600Y-39900D01*
X41600Y-39900D02*
X42400Y-39900D01*
X42400Y-39900D02*
X42400Y-43100D01*
X42400Y-43100D02*
X42000Y-43100D01*
X41800Y-43100D02*
X41600Y-42900D01*
X42000Y-39500D02*
X42000Y-39900D01*
G54D13*
X44500Y-44280D02*
X43500Y-44280D01*
G54D11*
X43615Y-45360D02*
G75*
G03X44000Y-45500I384J460D01*
G74*
G01*
X44000Y-45499D02*
G75*
G03X44397Y-45348I0J599D01*
G74*
G01*
X44000Y-44300D02*
G75*
G03X43610Y-44444I0J-599D01*
G74*
G01*
X44384Y-44439D02*
G75*
G03X44000Y-44300I-384J-460D01*
G74*
G01*
X43650Y-44412D02*
G75*
G03X43400Y-44900I349J-487D01*
G74*
G01*
X43400Y-44900D02*
G75*
G03X43639Y-45379I600J0D01*
G74*
G01*
X44599Y-44900D02*
G75*
G03X44368Y-44427I-599J0D01*
G74*
G01*
X44368Y-45373D02*
G75*
G03X44600Y-44900I-368J473D01*
G74*
G01*
X43750Y-44900D02*
G75*
G03X44000Y-45150I250J0D01*
G74*
G01*
X43600Y-44900D02*
G75*
G03X44000Y-45300I400J0D01*
G74*
G01*
X44250Y-44900D02*
G75*
G03X44000Y-44650I-250J0D01*
G74*
G01*
X44400Y-44900D02*
G75*
G03X44000Y-44500I-400J0D01*
G74*
G01*
G54D13*
X43486Y-44286D02*
G75*
G03X43200Y-44900I513J-613D01*
G74*
G01*
X43201Y-44900D02*
G75*
G03X43623Y-45604I799J0D01*
G74*
G01*
X44798Y-44898D02*
G75*
G03X44515Y-44289I-798J-1D01*
G74*
G01*
X44397Y-45594D02*
G75*
G03X44800Y-44900I-397J694D01*
G74*
G01*
X43620Y-45604D02*
G75*
G03X44000Y-45700I379J704D01*
G74*
G01*
X44000Y-45699D02*
G75*
G03X44418Y-45581I0J799D01*
G74*
G01*
X56720Y-26500D02*
X56720Y-25500D01*
G54D11*
X55639Y-25615D02*
G75*
G03X55500Y-26000I460J-384D01*
G74*
G01*
X55500Y-26000D02*
G75*
G03X55651Y-26397I599J0D01*
G74*
G01*
X56699Y-26000D02*
G75*
G03X56555Y-25610I-599J0D01*
G74*
G01*
X56560Y-26384D02*
G75*
G03X56700Y-26000I-460J384D01*
G74*
G01*
X56587Y-25650D02*
G75*
G03X56100Y-25400I-487J-349D01*
G74*
G01*
X56100Y-25400D02*
G75*
G03X55620Y-25639I0J-600D01*
G74*
G01*
X56100Y-26599D02*
G75*
G03X56572Y-26368I0J599D01*
G74*
G01*
X55626Y-26368D02*
G75*
G03X56100Y-26600I473J368D01*
G74*
G01*
X56100Y-25750D02*
G75*
G03X55850Y-26000I0J-250D01*
G74*
G01*
X56100Y-25600D02*
G75*
G03X55700Y-26000I0J-400D01*
G74*
G01*
X56100Y-26250D02*
G75*
G03X56350Y-26000I0J250D01*
G74*
G01*
X56100Y-26400D02*
G75*
G03X56500Y-26000I0J400D01*
G74*
G01*
G54D13*
X56713Y-25486D02*
G75*
G03X56100Y-25200I-613J-513D01*
G74*
G01*
X56100Y-25201D02*
G75*
G03X55395Y-25623I0J-799D01*
G74*
G01*
X56101Y-26798D02*
G75*
G03X56710Y-26515I-1J798D01*
G74*
G01*
X55405Y-26397D02*
G75*
G03X56100Y-26800I694J397D01*
G74*
G01*
X55395Y-25620D02*
G75*
G03X55300Y-26000I704J-379D01*
G74*
G01*
X55300Y-26000D02*
G75*
G03X55418Y-26418I799J0D01*
G74*
G01*
X38500Y-44280D02*
X37500Y-44280D01*
G54D11*
X37615Y-45360D02*
G75*
G03X38000Y-45500I384J460D01*
G74*
G01*
X38000Y-45499D02*
G75*
G03X38397Y-45348I0J599D01*
G74*
G01*
X38000Y-44300D02*
G75*
G03X37610Y-44444I0J-599D01*
G74*
G01*
X38384Y-44439D02*
G75*
G03X38000Y-44300I-384J-460D01*
G74*
G01*
X37650Y-44412D02*
G75*
G03X37400Y-44900I349J-487D01*
G74*
G01*
X37400Y-44900D02*
G75*
G03X37639Y-45379I600J0D01*
G74*
G01*
X38599Y-44900D02*
G75*
G03X38368Y-44427I-599J0D01*
G74*
G01*
X38368Y-45373D02*
G75*
G03X38600Y-44900I-368J473D01*
G74*
G01*
X37750Y-44900D02*
G75*
G03X38000Y-45150I250J0D01*
G74*
G01*
X37600Y-44900D02*
G75*
G03X38000Y-45300I400J0D01*
G74*
G01*
X38250Y-44900D02*
G75*
G03X38000Y-44650I-250J0D01*
G74*
G01*
X38400Y-44900D02*
G75*
G03X38000Y-44500I-400J0D01*
G74*
G01*
G54D13*
X37486Y-44286D02*
G75*
G03X37200Y-44900I513J-613D01*
G74*
G01*
X37201Y-44900D02*
G75*
G03X37623Y-45604I799J0D01*
G74*
G01*
X38798Y-44898D02*
G75*
G03X38515Y-44289I-798J-1D01*
G74*
G01*
X38397Y-45594D02*
G75*
G03X38800Y-44900I-397J694D01*
G74*
G01*
X37620Y-45604D02*
G75*
G03X38000Y-45700I379J704D01*
G74*
G01*
X38000Y-45699D02*
G75*
G03X38418Y-45581I0J799D01*
G74*
G01*
X40500Y-44280D02*
X39500Y-44280D01*
G54D11*
X39615Y-45360D02*
G75*
G03X40000Y-45500I384J460D01*
G74*
G01*
X40000Y-45499D02*
G75*
G03X40397Y-45348I0J599D01*
G74*
G01*
X40000Y-44300D02*
G75*
G03X39610Y-44444I0J-599D01*
G74*
G01*
X40384Y-44439D02*
G75*
G03X40000Y-44300I-384J-460D01*
G74*
G01*
X39650Y-44412D02*
G75*
G03X39400Y-44900I349J-487D01*
G74*
G01*
X39400Y-44900D02*
G75*
G03X39639Y-45379I600J0D01*
G74*
G01*
X40599Y-44900D02*
G75*
G03X40368Y-44427I-599J0D01*
G74*
G01*
X40368Y-45373D02*
G75*
G03X40600Y-44900I-368J473D01*
G74*
G01*
X39750Y-44900D02*
G75*
G03X40000Y-45150I250J0D01*
G74*
G01*
X39600Y-44900D02*
G75*
G03X40000Y-45300I400J0D01*
G74*
G01*
X40250Y-44900D02*
G75*
G03X40000Y-44650I-250J0D01*
G74*
G01*
X40400Y-44900D02*
G75*
G03X40000Y-44500I-400J0D01*
G74*
G01*
G54D13*
X39486Y-44286D02*
G75*
G03X39200Y-44900I513J-613D01*
G74*
G01*
X39201Y-44900D02*
G75*
G03X39623Y-45604I799J0D01*
G74*
G01*
X40798Y-44898D02*
G75*
G03X40515Y-44289I-798J-1D01*
G74*
G01*
X40397Y-45594D02*
G75*
G03X40800Y-44900I-397J694D01*
G74*
G01*
X39620Y-45604D02*
G75*
G03X40000Y-45700I379J704D01*
G74*
G01*
X40000Y-45699D02*
G75*
G03X40418Y-45581I0J799D01*
G74*
G01*
X42500Y-44280D02*
X41500Y-44280D01*
G54D11*
X41615Y-45360D02*
G75*
G03X42000Y-45500I384J460D01*
G74*
G01*
X42000Y-45499D02*
G75*
G03X42397Y-45348I0J599D01*
G74*
G01*
X42000Y-44300D02*
G75*
G03X41610Y-44444I0J-599D01*
G74*
G01*
X42384Y-44439D02*
G75*
G03X42000Y-44300I-384J-460D01*
G74*
G01*
X41650Y-44412D02*
G75*
G03X41400Y-44900I349J-487D01*
G74*
G01*
X41400Y-44900D02*
G75*
G03X41639Y-45379I600J0D01*
G74*
G01*
X42599Y-44900D02*
G75*
G03X42368Y-44427I-599J0D01*
G74*
G01*
X42368Y-45373D02*
G75*
G03X42600Y-44900I-368J473D01*
G74*
G01*
X41750Y-44900D02*
G75*
G03X42000Y-45150I250J0D01*
G74*
G01*
X41600Y-44900D02*
G75*
G03X42000Y-45300I400J0D01*
G74*
G01*
X42250Y-44900D02*
G75*
G03X42000Y-44650I-250J0D01*
G74*
G01*
X42400Y-44900D02*
G75*
G03X42000Y-44500I-400J0D01*
G74*
G01*
G54D13*
X41486Y-44286D02*
G75*
G03X41200Y-44900I513J-613D01*
G74*
G01*
X41201Y-44900D02*
G75*
G03X41623Y-45604I799J0D01*
G74*
G01*
X42798Y-44898D02*
G75*
G03X42515Y-44289I-798J-1D01*
G74*
G01*
X42397Y-45594D02*
G75*
G03X42800Y-44900I-397J694D01*
G74*
G01*
X41620Y-45604D02*
G75*
G03X42000Y-45700I379J704D01*
G74*
G01*
X42000Y-45699D02*
G75*
G03X42418Y-45581I0J799D01*
G74*
G01*
G54D14*
X38500Y-36750D02*
X38500Y-34250D01*
X36500Y-36750D02*
X36500Y-34250D01*
X37500Y-33250D02*
G75*
G03X36500Y-34250I0J-1000D01*
G74*
G01*
X38500Y-34250D02*
G75*
G03X37500Y-33250I-1000J0D01*
G74*
G01*
X36500Y-36750D02*
G75*
G03X37500Y-37750I1000J0D01*
G74*
G01*
X37500Y-37750D02*
G75*
G03X38500Y-36750I0J1000D01*
G74*
G01*
G54D10*
X33000Y-25000D02*
X33000Y-25500D01*
X33000Y-25500D02*
X34000Y-25500D01*
X34000Y-25500D02*
X34000Y-25000D01*
X35500Y-25000D02*
X35500Y-45000D01*
X35500Y-45000D02*
X31500Y-45000D01*
X31500Y-45000D02*
X31500Y-25000D01*
X31500Y-25000D02*
X35500Y-25000D01*
G54D15*
X39500Y-48500D02*
X39500Y-48500D01*
X39500Y-48500D02*
X39500Y-49000D01*
X39500Y-49000D02*
X38500Y-49000D01*
X38500Y-49000D02*
X38500Y-48500D01*
X40000Y-48500D02*
X40000Y-57500D01*
X40000Y-57500D02*
X38000Y-57500D01*
X38000Y-57500D02*
X38000Y-48500D01*
X38000Y-48500D02*
X40000Y-48500D01*
G54D12*
X36900Y-30100D02*
X36900Y-32900D01*
X36900Y-32900D02*
X36100Y-32900D01*
X36100Y-32900D02*
X36100Y-30100D01*
X36100Y-30100D02*
X36900Y-30100D01*
X36700Y-30100D02*
X36900Y-30300D01*
X31400Y-42100D02*
X31400Y-44900D01*
X31400Y-44900D02*
X30600Y-44900D01*
X30600Y-44900D02*
X30600Y-42100D01*
X30600Y-42100D02*
X31400Y-42100D01*
X31200Y-42100D02*
X31400Y-42300D01*
X29600Y-26900D02*
X29600Y-24100D01*
X29600Y-24100D02*
X30400Y-24100D01*
X30400Y-24100D02*
X30400Y-26900D01*
X30400Y-26900D02*
X29600Y-26900D01*
X29800Y-26900D02*
X29600Y-26700D01*
X48400Y-49800D02*
X48400Y-52600D01*
X48400Y-52600D02*
X47600Y-52600D01*
X47600Y-52600D02*
X47600Y-49800D01*
X47600Y-49800D02*
X48400Y-49800D01*
X48200Y-49800D02*
X48400Y-50000D01*
X30100Y-36900D02*
X30100Y-34100D01*
X30100Y-34100D02*
X30900Y-34100D01*
X30900Y-34100D02*
X30900Y-36900D01*
X30900Y-36900D02*
X30100Y-36900D01*
X30300Y-36900D02*
X30100Y-36700D01*
X57900Y-51900D02*
X55100Y-51900D01*
X55100Y-51900D02*
X55100Y-51100D01*
X55100Y-51100D02*
X57900Y-51100D01*
X57900Y-51100D02*
X57900Y-51900D01*
X57900Y-51700D02*
X57700Y-51900D01*
X52900Y-51900D02*
X50100Y-51900D01*
X50100Y-51900D02*
X50100Y-51100D01*
X50100Y-51100D02*
X52900Y-51100D01*
X52900Y-51100D02*
X52900Y-51900D01*
X52900Y-51700D02*
X52700Y-51900D01*
X56900Y-21100D02*
X56900Y-23900D01*
X56900Y-23900D02*
X56100Y-23900D01*
X56100Y-23900D02*
X56100Y-21100D01*
X56100Y-21100D02*
X56900Y-21100D01*
X56700Y-21100D02*
X56900Y-21300D01*
G54D16*
X49001Y-48250D02*
G75*
G03X49001Y-48250I-1001J0D01*
G74*
G01*
X31751Y-51000D02*
G75*
G03X31751Y-51000I-1001J0D01*
G74*
G01*
X49001Y-23500D02*
G75*
G03X49001Y-23500I-1001J0D01*
G74*
G01*
X53001Y-22000D02*
G75*
G03X53001Y-22000I-1001J0D01*
G74*
G01*
X47001Y-23500D02*
G75*
G03X47001Y-23500I-1001J0D01*
G74*
G01*
X53001Y-24000D02*
G75*
G03X53001Y-24000I-1001J0D01*
G74*
G01*
X55501Y-24000D02*
G75*
G03X55501Y-24000I-1001J0D01*
G74*
G01*
G54D12*
X40500Y-33020D02*
X40500Y-35000D01*
X40500Y-35000D02*
X39500Y-35000D01*
X39500Y-35000D02*
X39500Y-33000D01*
X39500Y-33000D02*
X40500Y-33000D01*
X40250Y-33000D02*
X40500Y-33250D01*
X39500Y-37980D02*
X39500Y-36000D01*
X39500Y-36000D02*
X40500Y-36000D01*
X40500Y-36000D02*
X40500Y-38000D01*
X40500Y-38000D02*
X39500Y-38000D01*
X39750Y-38000D02*
X39500Y-37750D01*
G54D15*
X44022Y-19675D02*
X40478Y-19675D01*
X44022Y-18297D02*
X40478Y-18297D01*
X40478Y-18297D02*
X40478Y-24006D01*
X40478Y-24006D02*
X44022Y-24006D01*
X44022Y-24006D02*
X44022Y-18297D01*
G54D11*
X24500Y-47000D02*
X24500Y-55000D01*
X24500Y-55000D02*
X27500Y-55000D01*
X27500Y-55000D02*
X27500Y-47000D01*
X27500Y-47000D02*
X24500Y-47000D01*
G54D12*
X50000Y-48500D02*
X50000Y-48500D01*
X50000Y-48500D02*
X50000Y-47500D01*
X50000Y-47500D02*
X60000Y-47500D01*
X60000Y-48500D02*
X50000Y-48500D01*
X51000Y-48500D02*
X51000Y-47500D01*
X60000Y-47500D02*
X61750Y-47500D01*
X61750Y-47500D02*
X62000Y-47500D01*
X62000Y-47500D02*
X62000Y-48500D01*
X62000Y-48500D02*
X60000Y-48500D01*
X50000Y-49500D02*
X50000Y-49500D01*
X50000Y-49500D02*
X50000Y-48500D01*
X50000Y-48500D02*
X60000Y-48500D01*
X60000Y-49500D02*
X50000Y-49500D01*
X51000Y-49500D02*
X51000Y-48500D01*
X60000Y-48500D02*
X61750Y-48500D01*
X61750Y-48500D02*
X62000Y-48500D01*
X62000Y-48500D02*
X62000Y-49500D01*
X62000Y-49500D02*
X60000Y-49500D01*
G54D11*
X48500Y-36500D02*
X48500Y-28500D01*
X48500Y-28500D02*
X45500Y-28500D01*
X45500Y-28500D02*
X45500Y-36500D01*
X45500Y-36500D02*
X48500Y-36500D01*
X48500Y-45000D02*
X48500Y-37000D01*
X48500Y-37000D02*
X45500Y-37000D01*
X45500Y-37000D02*
X45500Y-45000D01*
X45500Y-45000D02*
X48500Y-45000D01*
X27500Y-32000D02*
X27500Y-38000D01*
X27500Y-38000D02*
X24500Y-38000D01*
X24500Y-38000D02*
X24500Y-32000D01*
X27500Y-32000D02*
X24500Y-32000D01*
X27500Y-39000D02*
X27500Y-45000D01*
X27500Y-45000D02*
X24500Y-45000D01*
X24500Y-45000D02*
X24500Y-39000D01*
X27500Y-39000D02*
X24500Y-39000D01*
G54D13*
X59250Y-20750D02*
X59500Y-20750D01*
X59500Y-20750D02*
X59500Y-24250D01*
X59500Y-24250D02*
X59250Y-24250D01*
X57750Y-20750D02*
X59250Y-20750D01*
X59250Y-20750D02*
X59250Y-24250D01*
X59250Y-24250D02*
X57750Y-24250D01*
X57750Y-24250D02*
X57750Y-20750D01*
G54D12*
X36000Y-49000D02*
X36000Y-52000D01*
X36000Y-52000D02*
X35000Y-52000D01*
X35000Y-52000D02*
X35000Y-49000D01*
X35000Y-49000D02*
X36000Y-49000D01*
X36000Y-51750D02*
X35000Y-51750D01*
X35000Y-51500D02*
X36000Y-51500D01*
X35500Y-49000D02*
X35500Y-48500D01*
X35500Y-52000D02*
X35500Y-52500D01*
X46000Y-51000D02*
X46000Y-54000D01*
X46000Y-54000D02*
X45000Y-54000D01*
X45000Y-54000D02*
X45000Y-51000D01*
X45000Y-51000D02*
X46000Y-51000D01*
X46000Y-53750D02*
X45000Y-53750D01*
X45000Y-53500D02*
X46000Y-53500D01*
X45500Y-51000D02*
X45500Y-50500D01*
X45500Y-54000D02*
X45500Y-54500D01*
X43000Y-49000D02*
X43000Y-52000D01*
X43000Y-52000D02*
X42000Y-52000D01*
X42000Y-52000D02*
X42000Y-49000D01*
X42000Y-49000D02*
X43000Y-49000D01*
X43000Y-51750D02*
X42000Y-51750D01*
X42000Y-51500D02*
X43000Y-51500D01*
X42500Y-49000D02*
X42500Y-48500D01*
X42500Y-52000D02*
X42500Y-52500D01*
X44000Y-54000D02*
X44000Y-51000D01*
X44000Y-51000D02*
X45000Y-51000D01*
X45000Y-51000D02*
X45000Y-54000D01*
X45000Y-54000D02*
X44000Y-54000D01*
X44000Y-51250D02*
X45000Y-51250D01*
X45000Y-51500D02*
X44000Y-51500D01*
X44500Y-54000D02*
X44500Y-54500D01*
X44500Y-51000D02*
X44500Y-50500D01*
X43000Y-52000D02*
X43000Y-49000D01*
X43000Y-49000D02*
X44000Y-49000D01*
X44000Y-49000D02*
X44000Y-52000D01*
X44000Y-52000D02*
X43000Y-52000D01*
X43000Y-49250D02*
X44000Y-49250D01*
X44000Y-49500D02*
X43000Y-49500D01*
X43500Y-52000D02*
X43500Y-52500D01*
X43500Y-49000D02*
X43500Y-48500D01*
X33000Y-51000D02*
X33000Y-54000D01*
X33000Y-54000D02*
X32000Y-54000D01*
X32000Y-54000D02*
X32000Y-51000D01*
X32000Y-51000D02*
X33000Y-51000D01*
X33000Y-53750D02*
X32000Y-53750D01*
X32000Y-53500D02*
X33000Y-53500D01*
X32500Y-51000D02*
X32500Y-50500D01*
X32500Y-54000D02*
X32500Y-54500D01*
X33000Y-54000D02*
X33000Y-51000D01*
X33000Y-51000D02*
X34000Y-51000D01*
X34000Y-51000D02*
X34000Y-54000D01*
X34000Y-54000D02*
X33000Y-54000D01*
X33000Y-51250D02*
X34000Y-51250D01*
X34000Y-51500D02*
X33000Y-51500D01*
X33500Y-54000D02*
X33500Y-54500D01*
X33500Y-51000D02*
X33500Y-50500D01*
X34000Y-52000D02*
X34000Y-49000D01*
X34000Y-49000D02*
X35000Y-49000D01*
X35000Y-49000D02*
X35000Y-52000D01*
X35000Y-52000D02*
X34000Y-52000D01*
X34000Y-49250D02*
X35000Y-49250D01*
X35000Y-49500D02*
X34000Y-49500D01*
X34500Y-52000D02*
X34500Y-52500D01*
X34500Y-49000D02*
X34500Y-48500D01*
X46500Y-21000D02*
X49500Y-21000D01*
X49500Y-21000D02*
X49500Y-22000D01*
X49500Y-22000D02*
X46500Y-22000D01*
X46500Y-22000D02*
X46500Y-21000D01*
X49250Y-21000D02*
X49250Y-22000D01*
X49000Y-22000D02*
X49000Y-21000D01*
X46500Y-21500D02*
X46000Y-21500D01*
X49500Y-21500D02*
X50000Y-21500D01*
G54D15*
X26900Y-21500D02*
G75*
G03X26900Y-21500I-900J0D01*
G74*
G01*
X26900Y-56500D02*
G75*
G03X26900Y-56500I-900J0D01*
G74*
G01*
X61900Y-56500D02*
G75*
G03X61900Y-56500I-900J0D01*
G74*
G01*
X61900Y-21500D02*
G75*
G03X61900Y-21500I-900J0D01*
G74*
G01*
G54D17*
G36*
X28557Y-57768D02*
X28577Y-57757D01*
X28624Y-57728D01*
X28689Y-57685D01*
X28767Y-57633D01*
X28845Y-57581D01*
X28909Y-57538D01*
X28954Y-57509D01*
X28973Y-57498D01*
X28983Y-57502D01*
X29020Y-57520D01*
X29074Y-57548D01*
X29105Y-57564D01*
X29154Y-57585D01*
X29179Y-57590D01*
X29183Y-57583D01*
X29201Y-57545D01*
X29229Y-57481D01*
X29266Y-57395D01*
X29309Y-57295D01*
X29354Y-57188D01*
X29400Y-57078D01*
X29444Y-56973D01*
X29482Y-56879D01*
X29513Y-56802D01*
X29533Y-56749D01*
X29541Y-56726D01*
X29539Y-56721D01*
X29514Y-56697D01*
X29471Y-56665D01*
X29378Y-56589D01*
X29286Y-56474D01*
X29230Y-56344D01*
X29211Y-56199D01*
X29227Y-56065D01*
X29280Y-55936D01*
X29370Y-55820D01*
X29479Y-55733D01*
X29607Y-55679D01*
X29750Y-55661D01*
X29887Y-55677D01*
X30019Y-55729D01*
X30135Y-55817D01*
X30184Y-55874D01*
X30252Y-55991D01*
X30290Y-56117D01*
X30294Y-56149D01*
X30289Y-56287D01*
X30248Y-56420D01*
X30175Y-56539D01*
X30073Y-56636D01*
X30061Y-56645D01*
X30014Y-56680D01*
X29982Y-56704D01*
X29958Y-56724D01*
X30134Y-57148D01*
X30162Y-57215D01*
X30210Y-57331D01*
X30253Y-57431D01*
X30286Y-57510D01*
X30310Y-57563D01*
X30320Y-57585D01*
X30321Y-57586D01*
X30337Y-57589D01*
X30369Y-57577D01*
X30428Y-57548D01*
X30467Y-57528D01*
X30512Y-57506D01*
X30533Y-57498D01*
X30550Y-57508D01*
X30593Y-57536D01*
X30656Y-57578D01*
X30732Y-57629D01*
X30804Y-57678D01*
X30870Y-57722D01*
X30919Y-57753D01*
X30942Y-57766D01*
X30946Y-57766D01*
X30967Y-57754D01*
X31005Y-57722D01*
X31063Y-57668D01*
X31144Y-57587D01*
X31157Y-57575D01*
X31224Y-57506D01*
X31278Y-57449D01*
X31315Y-57408D01*
X31328Y-57390D01*
X31328Y-57390D01*
X31316Y-57367D01*
X31286Y-57319D01*
X31242Y-57251D01*
X31188Y-57173D01*
X31048Y-56969D01*
X31125Y-56776D01*
X31148Y-56717D01*
X31178Y-56646D01*
X31201Y-56595D01*
X31212Y-56573D01*
X31233Y-56565D01*
X31286Y-56553D01*
X31362Y-56537D01*
X31453Y-56520D01*
X31540Y-56504D01*
X31618Y-56489D01*
X31675Y-56478D01*
X31700Y-56473D01*
X31706Y-56469D01*
X31712Y-56457D01*
X31715Y-56430D01*
X31717Y-56383D01*
X31718Y-56308D01*
X31718Y-56199D01*
X31718Y-56187D01*
X31717Y-56084D01*
X31715Y-56001D01*
X31712Y-55947D01*
X31709Y-55926D01*
X31708Y-55926D01*
X31684Y-55920D01*
X31629Y-55908D01*
X31550Y-55893D01*
X31457Y-55875D01*
X31451Y-55874D01*
X31358Y-55856D01*
X31280Y-55840D01*
X31225Y-55827D01*
X31202Y-55820D01*
X31197Y-55813D01*
X31179Y-55777D01*
X31152Y-55719D01*
X31121Y-55649D01*
X31091Y-55576D01*
X31064Y-55510D01*
X31047Y-55461D01*
X31041Y-55439D01*
X31042Y-55438D01*
X31056Y-55416D01*
X31088Y-55368D01*
X31133Y-55301D01*
X31187Y-55221D01*
X31191Y-55215D01*
X31245Y-55137D01*
X31288Y-55070D01*
X31317Y-55023D01*
X31328Y-55001D01*
X31328Y-55000D01*
X31310Y-54976D01*
X31270Y-54932D01*
X31213Y-54872D01*
X31144Y-54802D01*
X31122Y-54781D01*
X31045Y-54706D01*
X30992Y-54657D01*
X30959Y-54631D01*
X30943Y-54625D01*
X30943Y-54626D01*
X30919Y-54640D01*
X30869Y-54672D01*
X30802Y-54718D01*
X30722Y-54772D01*
X30716Y-54776D01*
X30638Y-54830D01*
X30572Y-54874D01*
X30526Y-54905D01*
X30505Y-54917D01*
X30502Y-54917D01*
X30470Y-54908D01*
X30414Y-54888D01*
X30345Y-54861D01*
X30272Y-54832D01*
X30206Y-54804D01*
X30156Y-54782D01*
X30133Y-54768D01*
X30132Y-54767D01*
X30124Y-54739D01*
X30110Y-54680D01*
X30094Y-54599D01*
X30075Y-54503D01*
X30072Y-54487D01*
X30055Y-54393D01*
X30040Y-54316D01*
X30029Y-54262D01*
X30023Y-54240D01*
X30010Y-54237D01*
X29964Y-54234D01*
X29894Y-54232D01*
X29809Y-54231D01*
X29720Y-54232D01*
X29633Y-54234D01*
X29559Y-54236D01*
X29506Y-54240D01*
X29484Y-54244D01*
X29483Y-54246D01*
X29475Y-54275D01*
X29462Y-54334D01*
X29445Y-54415D01*
X29427Y-54512D01*
X29423Y-54529D01*
X29406Y-54622D01*
X29390Y-54699D01*
X29379Y-54752D01*
X29373Y-54773D01*
X29364Y-54777D01*
X29326Y-54794D01*
X29263Y-54820D01*
X29185Y-54851D01*
X29005Y-54924D01*
X28784Y-54773D01*
X28764Y-54759D01*
X28684Y-54705D01*
X28619Y-54662D01*
X28574Y-54632D01*
X28555Y-54622D01*
X28553Y-54622D01*
X28531Y-54642D01*
X28488Y-54683D01*
X28428Y-54741D01*
X28358Y-54810D01*
X28307Y-54862D01*
X28246Y-54924D01*
X28207Y-54965D01*
X28186Y-54992D01*
X28179Y-55008D01*
X28181Y-55019D01*
X28195Y-55042D01*
X28227Y-55090D01*
X28273Y-55157D01*
X28327Y-55235D01*
X28371Y-55301D01*
X28419Y-55375D01*
X28450Y-55428D01*
X28461Y-55454D01*
X28458Y-55464D01*
X28443Y-55508D01*
X28416Y-55573D01*
X28383Y-55651D01*
X28306Y-55826D01*
X28192Y-55848D01*
X28122Y-55861D01*
X28025Y-55880D01*
X27932Y-55898D01*
X27787Y-55926D01*
X27782Y-56459D01*
X27804Y-56469D01*
X27826Y-56475D01*
X27880Y-56487D01*
X27956Y-56502D01*
X28047Y-56519D01*
X28124Y-56533D01*
X28202Y-56548D01*
X28258Y-56559D01*
X28282Y-56564D01*
X28289Y-56573D01*
X28308Y-56610D01*
X28336Y-56670D01*
X28367Y-56742D01*
X28398Y-56817D01*
X28425Y-56886D01*
X28444Y-56938D01*
X28452Y-56965D01*
X28441Y-56986D01*
X28412Y-57032D01*
X28369Y-57097D01*
X28316Y-57174D01*
X28263Y-57251D01*
X28218Y-57317D01*
X28187Y-57365D01*
X28174Y-57387D01*
X28181Y-57401D01*
X28212Y-57439D01*
X28270Y-57499D01*
X28357Y-57585D01*
X28371Y-57599D01*
X28440Y-57665D01*
X28498Y-57719D01*
X28539Y-57755D01*
X28557Y-57768D01*
X28557Y-57768D01*
G37*
G54D11*
X37000Y-22500D02*
X30000Y-22500D01*
X30000Y-22500D02*
X30000Y-19500D01*
X30000Y-19500D02*
X37000Y-19500D01*
X37000Y-19500D02*
X37000Y-22500D01*
G54D14*
X36500Y-39500D02*
X37500Y-39500D01*
X36500Y-38500D02*
X37500Y-38500D01*
G54D12*
X36500Y-39500D02*
X36500Y-38500D01*
X37500Y-38500D02*
X37500Y-39500D01*
G54D11*
X49714Y-56507D02*
X49728Y-56464D01*
X49742Y-56450D01*
X49771Y-56435D01*
X49814Y-56435D01*
X49842Y-56450D01*
X49857Y-56464D01*
X49871Y-56492D01*
X49871Y-56607D01*
X49571Y-56607D01*
X49571Y-56507D01*
X49585Y-56478D01*
X49600Y-56464D01*
X49628Y-56450D01*
X49657Y-56450D01*
X49685Y-56464D01*
X49700Y-56478D01*
X49714Y-56507D01*
X49714Y-56607D01*
X49571Y-56307D02*
X49814Y-56307D01*
X49842Y-56292D01*
X49857Y-56278D01*
X49871Y-56250D01*
X49871Y-56192D01*
X49857Y-56164D01*
X49842Y-56150D01*
X49814Y-56135D01*
X49571Y-56135D01*
X49571Y-56035D02*
X49571Y-55864D01*
X49871Y-55949D02*
X49571Y-55949D01*
X49900Y-55835D02*
X49900Y-55607D01*
X49571Y-55478D02*
X49571Y-55450D01*
X49585Y-55421D01*
X49600Y-55407D01*
X49628Y-55392D01*
X49685Y-55378D01*
X49757Y-55378D01*
X49814Y-55392D01*
X49842Y-55407D01*
X49857Y-55421D01*
X49871Y-55450D01*
X49871Y-55478D01*
X49857Y-55507D01*
X49842Y-55521D01*
X49814Y-55535D01*
X49757Y-55550D01*
X49685Y-55550D01*
X49628Y-55535D01*
X49600Y-55521D01*
X49585Y-55507D01*
X49571Y-55478D01*
X54714Y-56507D02*
X54728Y-56464D01*
X54742Y-56450D01*
X54771Y-56435D01*
X54814Y-56435D01*
X54842Y-56450D01*
X54857Y-56464D01*
X54871Y-56492D01*
X54871Y-56607D01*
X54571Y-56607D01*
X54571Y-56507D01*
X54585Y-56478D01*
X54600Y-56464D01*
X54628Y-56450D01*
X54657Y-56450D01*
X54685Y-56464D01*
X54700Y-56478D01*
X54714Y-56507D01*
X54714Y-56607D01*
X54571Y-56307D02*
X54814Y-56307D01*
X54842Y-56292D01*
X54857Y-56278D01*
X54871Y-56250D01*
X54871Y-56192D01*
X54857Y-56164D01*
X54842Y-56150D01*
X54814Y-56135D01*
X54571Y-56135D01*
X54571Y-56035D02*
X54571Y-55864D01*
X54871Y-55949D02*
X54571Y-55949D01*
X54900Y-55835D02*
X54900Y-55607D01*
X54871Y-55378D02*
X54871Y-55550D01*
X54871Y-55464D02*
X54571Y-55464D01*
X54614Y-55492D01*
X54642Y-55521D01*
X54657Y-55550D01*
G54D10*
X25409Y-25674D02*
X25221Y-25806D01*
X25409Y-25899D02*
X25015Y-25899D01*
X25015Y-25749D01*
X25034Y-25712D01*
X25053Y-25693D01*
X25090Y-25674D01*
X25146Y-25674D01*
X25184Y-25693D01*
X25203Y-25712D01*
X25221Y-25749D01*
X25221Y-25899D01*
X25390Y-25356D02*
X25409Y-25393D01*
X25409Y-25468D01*
X25390Y-25506D01*
X25353Y-25524D01*
X25203Y-25524D01*
X25165Y-25506D01*
X25146Y-25468D01*
X25146Y-25393D01*
X25165Y-25356D01*
X25203Y-25337D01*
X25240Y-25337D01*
X25278Y-25524D01*
X25390Y-25187D02*
X25409Y-25149D01*
X25409Y-25074D01*
X25390Y-25037D01*
X25353Y-25018D01*
X25334Y-25018D01*
X25296Y-25037D01*
X25278Y-25074D01*
X25278Y-25131D01*
X25259Y-25168D01*
X25221Y-25187D01*
X25203Y-25187D01*
X25165Y-25168D01*
X25146Y-25131D01*
X25146Y-25074D01*
X25165Y-25037D01*
X25390Y-24700D02*
X25409Y-24737D01*
X25409Y-24812D01*
X25390Y-24850D01*
X25353Y-24868D01*
X25203Y-24868D01*
X25165Y-24850D01*
X25146Y-24812D01*
X25146Y-24737D01*
X25165Y-24700D01*
X25203Y-24681D01*
X25240Y-24681D01*
X25278Y-24868D01*
X25146Y-24568D02*
X25146Y-24418D01*
X25015Y-24512D02*
X25353Y-24512D01*
X25390Y-24493D01*
X25409Y-24456D01*
X25409Y-24418D01*
X25409Y-24081D02*
X25409Y-24306D01*
X25409Y-24193D02*
X25015Y-24193D01*
X25071Y-24231D01*
X25109Y-24268D01*
X25128Y-24306D01*
G54D11*
X39621Y-29835D02*
X39321Y-29835D01*
X39592Y-29521D02*
X39607Y-29535D01*
X39621Y-29578D01*
X39621Y-29607D01*
X39607Y-29649D01*
X39578Y-29678D01*
X39550Y-29692D01*
X39492Y-29707D01*
X39450Y-29707D01*
X39392Y-29692D01*
X39364Y-29678D01*
X39335Y-29649D01*
X39321Y-29607D01*
X39321Y-29578D01*
X39335Y-29535D01*
X39350Y-29521D01*
X39607Y-29407D02*
X39621Y-29364D01*
X39621Y-29292D01*
X39607Y-29264D01*
X39592Y-29249D01*
X39564Y-29235D01*
X39535Y-29235D01*
X39507Y-29249D01*
X39492Y-29264D01*
X39478Y-29292D01*
X39464Y-29349D01*
X39450Y-29378D01*
X39435Y-29392D01*
X39407Y-29407D01*
X39378Y-29407D01*
X39350Y-29392D01*
X39335Y-29378D01*
X39321Y-29349D01*
X39321Y-29278D01*
X39335Y-29235D01*
X39621Y-29107D02*
X39321Y-29107D01*
X39321Y-28992D01*
X39335Y-28964D01*
X39350Y-28950D01*
X39378Y-28935D01*
X39421Y-28935D01*
X39450Y-28950D01*
X39464Y-28964D01*
X39478Y-28992D01*
X39478Y-29107D01*
X39621Y-28650D02*
X39621Y-28821D01*
X39621Y-28735D02*
X39321Y-28735D01*
X39364Y-28764D01*
X39392Y-28792D01*
X39407Y-28821D01*
X32685Y-48121D02*
X32685Y-47821D01*
X32800Y-47821D01*
X32828Y-47835D01*
X32842Y-47850D01*
X32857Y-47878D01*
X32857Y-47921D01*
X32842Y-47950D01*
X32828Y-47964D01*
X32800Y-47978D01*
X32685Y-47978D01*
X32957Y-47821D02*
X33028Y-48121D01*
X33085Y-47907D01*
X33142Y-48121D01*
X33214Y-47821D01*
X33328Y-48121D02*
X33328Y-47821D01*
X33428Y-48035D01*
X33528Y-47821D01*
X33528Y-48121D01*
X33828Y-48121D02*
X33657Y-48121D01*
X33742Y-48121D02*
X33742Y-47821D01*
X33714Y-47864D01*
X33685Y-47892D01*
X33657Y-47907D01*
X44185Y-47871D02*
X44185Y-47571D01*
X44300Y-47571D01*
X44328Y-47585D01*
X44342Y-47600D01*
X44357Y-47628D01*
X44357Y-47671D01*
X44342Y-47700D01*
X44328Y-47714D01*
X44300Y-47728D01*
X44185Y-47728D01*
X44457Y-47571D02*
X44528Y-47871D01*
X44585Y-47657D01*
X44642Y-47871D01*
X44714Y-47571D01*
X44828Y-47871D02*
X44828Y-47571D01*
X44928Y-47785D01*
X45028Y-47571D01*
X45028Y-47871D01*
X45157Y-47600D02*
X45171Y-47585D01*
X45200Y-47571D01*
X45271Y-47571D01*
X45300Y-47585D01*
X45314Y-47600D01*
X45328Y-47628D01*
X45328Y-47657D01*
X45314Y-47700D01*
X45142Y-47871D01*
X45328Y-47871D01*
X45528Y-57121D02*
X45528Y-56821D01*
X45642Y-56821D01*
X45671Y-56835D01*
X45685Y-56850D01*
X45700Y-56878D01*
X45700Y-56921D01*
X45685Y-56950D01*
X45671Y-56964D01*
X45642Y-56978D01*
X45528Y-56978D01*
X45814Y-56850D02*
X45828Y-56835D01*
X45857Y-56821D01*
X45928Y-56821D01*
X45957Y-56835D01*
X45971Y-56850D01*
X45985Y-56878D01*
X45985Y-56907D01*
X45971Y-56950D01*
X45800Y-57121D01*
X45985Y-57121D01*
X36278Y-57121D02*
X36278Y-56821D01*
X36392Y-56821D01*
X36421Y-56835D01*
X36435Y-56850D01*
X36450Y-56878D01*
X36450Y-56921D01*
X36435Y-56950D01*
X36421Y-56964D01*
X36392Y-56978D01*
X36278Y-56978D01*
X36735Y-57121D02*
X36564Y-57121D01*
X36650Y-57121D02*
X36650Y-56821D01*
X36621Y-56864D01*
X36592Y-56892D01*
X36564Y-56907D01*
X47371Y-27564D02*
X47071Y-27564D01*
X47071Y-27450D01*
X47085Y-27421D01*
X47100Y-27407D01*
X47128Y-27392D01*
X47171Y-27392D01*
X47200Y-27407D01*
X47214Y-27421D01*
X47228Y-27450D01*
X47228Y-27564D01*
X47071Y-27207D02*
X47071Y-27150D01*
X47085Y-27121D01*
X47114Y-27092D01*
X47171Y-27078D01*
X47271Y-27078D01*
X47328Y-27092D01*
X47357Y-27121D01*
X47371Y-27150D01*
X47371Y-27207D01*
X47357Y-27235D01*
X47328Y-27264D01*
X47271Y-27278D01*
X47171Y-27278D01*
X47114Y-27264D01*
X47085Y-27235D01*
X47071Y-27207D01*
X47071Y-26978D02*
X47371Y-26907D01*
X47157Y-26849D01*
X47371Y-26792D01*
X47071Y-26721D01*
X47400Y-26678D02*
X47400Y-26450D01*
X47357Y-26392D02*
X47371Y-26350D01*
X47371Y-26278D01*
X47357Y-26250D01*
X47342Y-26235D01*
X47314Y-26221D01*
X47285Y-26221D01*
X47257Y-26235D01*
X47242Y-26250D01*
X47228Y-26278D01*
X47214Y-26335D01*
X47200Y-26364D01*
X47185Y-26378D01*
X47157Y-26392D01*
X47128Y-26392D01*
X47100Y-26378D01*
X47085Y-26364D01*
X47071Y-26335D01*
X47071Y-26264D01*
X47085Y-26221D01*
X47214Y-26092D02*
X47214Y-25992D01*
X47371Y-25950D02*
X47371Y-26092D01*
X47071Y-26092D01*
X47071Y-25950D01*
X47371Y-25678D02*
X47371Y-25821D01*
X47071Y-25821D01*
X47371Y-25421D02*
X47371Y-25592D01*
X47371Y-25507D02*
X47071Y-25507D01*
X47114Y-25535D01*
X47142Y-25564D01*
X47157Y-25592D01*
X43371Y-42800D02*
X43228Y-42900D01*
X43371Y-42971D02*
X43071Y-42971D01*
X43071Y-42857D01*
X43085Y-42828D01*
X43100Y-42814D01*
X43128Y-42800D01*
X43171Y-42800D01*
X43200Y-42814D01*
X43214Y-42828D01*
X43228Y-42857D01*
X43228Y-42971D01*
X43200Y-42628D02*
X43185Y-42657D01*
X43171Y-42671D01*
X43142Y-42685D01*
X43128Y-42685D01*
X43100Y-42671D01*
X43085Y-42657D01*
X43071Y-42628D01*
X43071Y-42571D01*
X43085Y-42542D01*
X43100Y-42528D01*
X43128Y-42514D01*
X43142Y-42514D01*
X43171Y-42528D01*
X43185Y-42542D01*
X43200Y-42571D01*
X43200Y-42628D01*
X43214Y-42657D01*
X43228Y-42671D01*
X43257Y-42685D01*
X43314Y-42685D01*
X43342Y-42671D01*
X43357Y-42657D01*
X43371Y-42628D01*
X43371Y-42571D01*
X43357Y-42542D01*
X43342Y-42528D01*
X43314Y-42514D01*
X43257Y-42514D01*
X43228Y-42528D01*
X43214Y-42542D01*
X43200Y-42571D01*
X43100Y-40621D02*
X43085Y-40607D01*
X43071Y-40578D01*
X43071Y-40507D01*
X43085Y-40478D01*
X43100Y-40464D01*
X43128Y-40450D01*
X43157Y-40450D01*
X43200Y-40464D01*
X43371Y-40635D01*
X43371Y-40450D01*
X43100Y-40335D02*
X43085Y-40321D01*
X43071Y-40292D01*
X43071Y-40221D01*
X43085Y-40192D01*
X43100Y-40178D01*
X43128Y-40164D01*
X43157Y-40164D01*
X43200Y-40178D01*
X43371Y-40350D01*
X43371Y-40164D01*
X43071Y-39978D02*
X43071Y-39950D01*
X43085Y-39921D01*
X43100Y-39907D01*
X43128Y-39892D01*
X43185Y-39878D01*
X43257Y-39878D01*
X43314Y-39892D01*
X43342Y-39907D01*
X43357Y-39921D01*
X43371Y-39950D01*
X43371Y-39978D01*
X43357Y-40007D01*
X43342Y-40021D01*
X43314Y-40035D01*
X43257Y-40050D01*
X43185Y-40050D01*
X43128Y-40035D01*
X43100Y-40021D01*
X43085Y-40007D01*
X43071Y-39978D01*
X37371Y-42800D02*
X37228Y-42900D01*
X37371Y-42971D02*
X37071Y-42971D01*
X37071Y-42857D01*
X37085Y-42828D01*
X37100Y-42814D01*
X37128Y-42800D01*
X37171Y-42800D01*
X37200Y-42814D01*
X37214Y-42828D01*
X37228Y-42857D01*
X37228Y-42971D01*
X37071Y-42528D02*
X37071Y-42671D01*
X37214Y-42685D01*
X37200Y-42671D01*
X37185Y-42642D01*
X37185Y-42571D01*
X37200Y-42542D01*
X37214Y-42528D01*
X37242Y-42514D01*
X37314Y-42514D01*
X37342Y-42528D01*
X37357Y-42542D01*
X37371Y-42571D01*
X37371Y-42642D01*
X37357Y-42671D01*
X37342Y-42685D01*
X37100Y-40621D02*
X37085Y-40607D01*
X37071Y-40578D01*
X37071Y-40507D01*
X37085Y-40478D01*
X37100Y-40464D01*
X37128Y-40450D01*
X37157Y-40450D01*
X37200Y-40464D01*
X37371Y-40635D01*
X37371Y-40450D01*
X37100Y-40335D02*
X37085Y-40321D01*
X37071Y-40292D01*
X37071Y-40221D01*
X37085Y-40192D01*
X37100Y-40178D01*
X37128Y-40164D01*
X37157Y-40164D01*
X37200Y-40178D01*
X37371Y-40350D01*
X37371Y-40164D01*
X37071Y-39978D02*
X37071Y-39950D01*
X37085Y-39921D01*
X37100Y-39907D01*
X37128Y-39892D01*
X37185Y-39878D01*
X37257Y-39878D01*
X37314Y-39892D01*
X37342Y-39907D01*
X37357Y-39921D01*
X37371Y-39950D01*
X37371Y-39978D01*
X37357Y-40007D01*
X37342Y-40021D01*
X37314Y-40035D01*
X37257Y-40050D01*
X37185Y-40050D01*
X37128Y-40035D01*
X37100Y-40021D01*
X37085Y-40007D01*
X37071Y-39978D01*
X51200Y-52871D02*
X51100Y-52728D01*
X51028Y-52871D02*
X51028Y-52571D01*
X51142Y-52571D01*
X51171Y-52585D01*
X51185Y-52600D01*
X51200Y-52628D01*
X51200Y-52671D01*
X51185Y-52700D01*
X51171Y-52714D01*
X51142Y-52728D01*
X51028Y-52728D01*
X51342Y-52871D02*
X51400Y-52871D01*
X51428Y-52857D01*
X51442Y-52842D01*
X51471Y-52800D01*
X51485Y-52742D01*
X51485Y-52628D01*
X51471Y-52600D01*
X51457Y-52585D01*
X51428Y-52571D01*
X51371Y-52571D01*
X51342Y-52585D01*
X51328Y-52600D01*
X51314Y-52628D01*
X51314Y-52700D01*
X51328Y-52728D01*
X51342Y-52742D01*
X51371Y-52757D01*
X51428Y-52757D01*
X51457Y-52742D01*
X51471Y-52728D01*
X51485Y-52700D01*
X53571Y-52871D02*
X53400Y-52871D01*
X53485Y-52871D02*
X53485Y-52571D01*
X53457Y-52614D01*
X53428Y-52642D01*
X53400Y-52657D01*
X53757Y-52571D02*
X53785Y-52571D01*
X53814Y-52585D01*
X53828Y-52600D01*
X53842Y-52628D01*
X53857Y-52685D01*
X53857Y-52757D01*
X53842Y-52814D01*
X53828Y-52842D01*
X53814Y-52857D01*
X53785Y-52871D01*
X53757Y-52871D01*
X53728Y-52857D01*
X53714Y-52842D01*
X53700Y-52814D01*
X53685Y-52757D01*
X53685Y-52685D01*
X53700Y-52628D01*
X53714Y-52600D01*
X53728Y-52585D01*
X53757Y-52571D01*
X53985Y-52871D02*
X53985Y-52571D01*
X54014Y-52757D02*
X54100Y-52871D01*
X54100Y-52671D02*
X53985Y-52785D01*
X56057Y-52871D02*
X55957Y-52728D01*
X55885Y-52871D02*
X55885Y-52571D01*
X56000Y-52571D01*
X56028Y-52585D01*
X56042Y-52600D01*
X56057Y-52628D01*
X56057Y-52671D01*
X56042Y-52700D01*
X56028Y-52714D01*
X56000Y-52728D01*
X55885Y-52728D01*
X56342Y-52871D02*
X56171Y-52871D01*
X56257Y-52871D02*
X56257Y-52571D01*
X56228Y-52614D01*
X56200Y-52642D01*
X56171Y-52657D01*
X56528Y-52571D02*
X56557Y-52571D01*
X56585Y-52585D01*
X56600Y-52600D01*
X56614Y-52628D01*
X56628Y-52685D01*
X56628Y-52757D01*
X56614Y-52814D01*
X56600Y-52842D01*
X56585Y-52857D01*
X56557Y-52871D01*
X56528Y-52871D01*
X56500Y-52857D01*
X56485Y-52842D01*
X56471Y-52814D01*
X56457Y-52757D01*
X56457Y-52685D01*
X56471Y-52628D01*
X56485Y-52600D01*
X56500Y-52585D01*
X56528Y-52571D01*
X58571Y-52871D02*
X58400Y-52871D01*
X58485Y-52871D02*
X58485Y-52571D01*
X58457Y-52614D01*
X58428Y-52642D01*
X58400Y-52657D01*
X58757Y-52571D02*
X58785Y-52571D01*
X58814Y-52585D01*
X58828Y-52600D01*
X58842Y-52628D01*
X58857Y-52685D01*
X58857Y-52757D01*
X58842Y-52814D01*
X58828Y-52842D01*
X58814Y-52857D01*
X58785Y-52871D01*
X58757Y-52871D01*
X58728Y-52857D01*
X58714Y-52842D01*
X58700Y-52814D01*
X58685Y-52757D01*
X58685Y-52685D01*
X58700Y-52628D01*
X58714Y-52600D01*
X58728Y-52585D01*
X58757Y-52571D01*
X58985Y-52871D02*
X58985Y-52571D01*
X59014Y-52757D02*
X59100Y-52871D01*
X59100Y-52671D02*
X58985Y-52785D01*
X29371Y-30800D02*
X29228Y-30900D01*
X29371Y-30971D02*
X29071Y-30971D01*
X29071Y-30857D01*
X29085Y-30828D01*
X29100Y-30814D01*
X29128Y-30800D01*
X29171Y-30800D01*
X29200Y-30814D01*
X29214Y-30828D01*
X29228Y-30857D01*
X29228Y-30971D01*
X29171Y-30542D02*
X29371Y-30542D01*
X29057Y-30614D02*
X29271Y-30685D01*
X29271Y-30500D01*
X29371Y-28428D02*
X29371Y-28599D01*
X29371Y-28514D02*
X29071Y-28514D01*
X29114Y-28542D01*
X29142Y-28571D01*
X29157Y-28599D01*
X29071Y-28242D02*
X29071Y-28214D01*
X29085Y-28185D01*
X29100Y-28171D01*
X29128Y-28157D01*
X29185Y-28142D01*
X29257Y-28142D01*
X29314Y-28157D01*
X29342Y-28171D01*
X29357Y-28185D01*
X29371Y-28214D01*
X29371Y-28242D01*
X29357Y-28271D01*
X29342Y-28285D01*
X29314Y-28299D01*
X29257Y-28314D01*
X29185Y-28314D01*
X29128Y-28299D01*
X29100Y-28285D01*
X29085Y-28271D01*
X29071Y-28242D01*
X29371Y-28014D02*
X29071Y-28014D01*
X29257Y-27985D02*
X29371Y-27900D01*
X29171Y-27900D02*
X29285Y-28014D01*
X25371Y-30800D02*
X25228Y-30900D01*
X25371Y-30971D02*
X25071Y-30971D01*
X25071Y-30857D01*
X25085Y-30828D01*
X25100Y-30814D01*
X25128Y-30800D01*
X25171Y-30800D01*
X25200Y-30814D01*
X25214Y-30828D01*
X25228Y-30857D01*
X25228Y-30971D01*
X25100Y-30685D02*
X25085Y-30671D01*
X25071Y-30642D01*
X25071Y-30571D01*
X25085Y-30542D01*
X25100Y-30528D01*
X25128Y-30514D01*
X25157Y-30514D01*
X25200Y-30528D01*
X25371Y-30700D01*
X25371Y-30514D01*
X25371Y-28285D02*
X25371Y-28457D01*
X25371Y-28371D02*
X25071Y-28371D01*
X25114Y-28399D01*
X25142Y-28428D01*
X25157Y-28457D01*
X25371Y-28157D02*
X25071Y-28157D01*
X25257Y-28128D02*
X25371Y-28042D01*
X25171Y-28042D02*
X25285Y-28157D01*
X27371Y-30800D02*
X27228Y-30900D01*
X27371Y-30971D02*
X27071Y-30971D01*
X27071Y-30857D01*
X27085Y-30828D01*
X27100Y-30814D01*
X27128Y-30800D01*
X27171Y-30800D01*
X27200Y-30814D01*
X27214Y-30828D01*
X27228Y-30857D01*
X27228Y-30971D01*
X27071Y-30700D02*
X27071Y-30514D01*
X27185Y-30614D01*
X27185Y-30571D01*
X27200Y-30542D01*
X27214Y-30528D01*
X27242Y-30514D01*
X27314Y-30514D01*
X27342Y-30528D01*
X27357Y-30542D01*
X27371Y-30571D01*
X27371Y-30657D01*
X27357Y-30685D01*
X27342Y-30700D01*
X27371Y-28285D02*
X27371Y-28457D01*
X27371Y-28371D02*
X27071Y-28371D01*
X27114Y-28399D01*
X27142Y-28428D01*
X27157Y-28457D01*
X27371Y-28157D02*
X27071Y-28157D01*
X27257Y-28128D02*
X27371Y-28042D01*
X27171Y-28042D02*
X27285Y-28157D01*
X58200Y-25371D02*
X58100Y-25228D01*
X58028Y-25371D02*
X58028Y-25071D01*
X58142Y-25071D01*
X58171Y-25085D01*
X58185Y-25100D01*
X58200Y-25128D01*
X58200Y-25171D01*
X58185Y-25200D01*
X58171Y-25214D01*
X58142Y-25228D01*
X58028Y-25228D01*
X58485Y-25371D02*
X58314Y-25371D01*
X58400Y-25371D02*
X58400Y-25071D01*
X58371Y-25114D01*
X58342Y-25142D01*
X58314Y-25157D01*
X60128Y-25100D02*
X60142Y-25085D01*
X60171Y-25071D01*
X60242Y-25071D01*
X60271Y-25085D01*
X60285Y-25100D01*
X60300Y-25128D01*
X60300Y-25157D01*
X60285Y-25200D01*
X60114Y-25371D01*
X60300Y-25371D01*
X60414Y-25100D02*
X60428Y-25085D01*
X60457Y-25071D01*
X60528Y-25071D01*
X60557Y-25085D01*
X60571Y-25100D01*
X60585Y-25128D01*
X60585Y-25157D01*
X60571Y-25200D01*
X60400Y-25371D01*
X60585Y-25371D01*
X60771Y-25071D02*
X60800Y-25071D01*
X60828Y-25085D01*
X60842Y-25100D01*
X60857Y-25128D01*
X60871Y-25185D01*
X60871Y-25257D01*
X60857Y-25314D01*
X60842Y-25342D01*
X60828Y-25357D01*
X60800Y-25371D01*
X60771Y-25371D01*
X60742Y-25357D01*
X60728Y-25342D01*
X60714Y-25314D01*
X60700Y-25257D01*
X60700Y-25185D01*
X60714Y-25128D01*
X60728Y-25100D01*
X60742Y-25085D01*
X60771Y-25071D01*
X39371Y-42800D02*
X39228Y-42900D01*
X39371Y-42971D02*
X39071Y-42971D01*
X39071Y-42857D01*
X39085Y-42828D01*
X39100Y-42814D01*
X39128Y-42800D01*
X39171Y-42800D01*
X39200Y-42814D01*
X39214Y-42828D01*
X39228Y-42857D01*
X39228Y-42971D01*
X39071Y-42542D02*
X39071Y-42600D01*
X39085Y-42628D01*
X39100Y-42642D01*
X39142Y-42671D01*
X39200Y-42685D01*
X39314Y-42685D01*
X39342Y-42671D01*
X39357Y-42657D01*
X39371Y-42628D01*
X39371Y-42571D01*
X39357Y-42542D01*
X39342Y-42528D01*
X39314Y-42514D01*
X39242Y-42514D01*
X39214Y-42528D01*
X39200Y-42542D01*
X39185Y-42571D01*
X39185Y-42628D01*
X39200Y-42657D01*
X39214Y-42671D01*
X39242Y-42685D01*
X39100Y-40621D02*
X39085Y-40607D01*
X39071Y-40578D01*
X39071Y-40507D01*
X39085Y-40478D01*
X39100Y-40464D01*
X39128Y-40450D01*
X39157Y-40450D01*
X39200Y-40464D01*
X39371Y-40635D01*
X39371Y-40450D01*
X39100Y-40335D02*
X39085Y-40321D01*
X39071Y-40292D01*
X39071Y-40221D01*
X39085Y-40192D01*
X39100Y-40178D01*
X39128Y-40164D01*
X39157Y-40164D01*
X39200Y-40178D01*
X39371Y-40350D01*
X39371Y-40164D01*
X39071Y-39978D02*
X39071Y-39950D01*
X39085Y-39921D01*
X39100Y-39907D01*
X39128Y-39892D01*
X39185Y-39878D01*
X39257Y-39878D01*
X39314Y-39892D01*
X39342Y-39907D01*
X39357Y-39921D01*
X39371Y-39950D01*
X39371Y-39978D01*
X39357Y-40007D01*
X39342Y-40021D01*
X39314Y-40035D01*
X39257Y-40050D01*
X39185Y-40050D01*
X39128Y-40035D01*
X39100Y-40021D01*
X39085Y-40007D01*
X39071Y-39978D01*
X41371Y-42800D02*
X41228Y-42900D01*
X41371Y-42971D02*
X41071Y-42971D01*
X41071Y-42857D01*
X41085Y-42828D01*
X41100Y-42814D01*
X41128Y-42800D01*
X41171Y-42800D01*
X41200Y-42814D01*
X41214Y-42828D01*
X41228Y-42857D01*
X41228Y-42971D01*
X41071Y-42700D02*
X41071Y-42500D01*
X41371Y-42628D01*
X41100Y-40621D02*
X41085Y-40607D01*
X41071Y-40578D01*
X41071Y-40507D01*
X41085Y-40478D01*
X41100Y-40464D01*
X41128Y-40450D01*
X41157Y-40450D01*
X41200Y-40464D01*
X41371Y-40635D01*
X41371Y-40450D01*
X41100Y-40335D02*
X41085Y-40321D01*
X41071Y-40292D01*
X41071Y-40221D01*
X41085Y-40192D01*
X41100Y-40178D01*
X41128Y-40164D01*
X41157Y-40164D01*
X41200Y-40178D01*
X41371Y-40350D01*
X41371Y-40164D01*
X41071Y-39978D02*
X41071Y-39950D01*
X41085Y-39921D01*
X41100Y-39907D01*
X41128Y-39892D01*
X41185Y-39878D01*
X41257Y-39878D01*
X41314Y-39892D01*
X41342Y-39907D01*
X41357Y-39921D01*
X41371Y-39950D01*
X41371Y-39978D01*
X41357Y-40007D01*
X41342Y-40021D01*
X41314Y-40035D01*
X41257Y-40050D01*
X41185Y-40050D01*
X41128Y-40035D01*
X41100Y-40021D01*
X41085Y-40007D01*
X41071Y-39978D01*
X42914Y-46371D02*
X42771Y-46371D01*
X42771Y-46071D01*
X43014Y-46214D02*
X43114Y-46214D01*
X43157Y-46371D02*
X43014Y-46371D01*
X43014Y-46071D01*
X43157Y-46071D01*
X43285Y-46371D02*
X43285Y-46071D01*
X43357Y-46071D01*
X43400Y-46085D01*
X43428Y-46114D01*
X43442Y-46142D01*
X43457Y-46200D01*
X43457Y-46242D01*
X43442Y-46300D01*
X43428Y-46328D01*
X43400Y-46357D01*
X43357Y-46371D01*
X43285Y-46371D01*
X43642Y-46071D02*
X43671Y-46071D01*
X43700Y-46085D01*
X43714Y-46100D01*
X43728Y-46128D01*
X43742Y-46185D01*
X43742Y-46257D01*
X43728Y-46314D01*
X43714Y-46342D01*
X43700Y-46357D01*
X43671Y-46371D01*
X43642Y-46371D01*
X43614Y-46357D01*
X43600Y-46342D01*
X43585Y-46314D01*
X43571Y-46257D01*
X43571Y-46185D01*
X43585Y-46128D01*
X43600Y-46100D01*
X43614Y-46085D01*
X43642Y-46071D01*
X52635Y-26121D02*
X52635Y-25821D01*
X52750Y-25821D01*
X52778Y-25835D01*
X52792Y-25850D01*
X52807Y-25878D01*
X52807Y-25921D01*
X52792Y-25950D01*
X52778Y-25964D01*
X52750Y-25978D01*
X52635Y-25978D01*
X52978Y-26121D02*
X52950Y-26107D01*
X52935Y-26092D01*
X52921Y-26064D01*
X52921Y-25978D01*
X52935Y-25950D01*
X52950Y-25935D01*
X52978Y-25921D01*
X53021Y-25921D01*
X53050Y-25935D01*
X53064Y-25950D01*
X53078Y-25978D01*
X53078Y-26064D01*
X53064Y-26092D01*
X53050Y-26107D01*
X53021Y-26121D01*
X52978Y-26121D01*
X53178Y-25921D02*
X53235Y-26121D01*
X53292Y-25978D01*
X53350Y-26121D01*
X53407Y-25921D01*
X53635Y-26107D02*
X53607Y-26121D01*
X53550Y-26121D01*
X53521Y-26107D01*
X53507Y-26078D01*
X53507Y-25964D01*
X53521Y-25935D01*
X53550Y-25921D01*
X53607Y-25921D01*
X53635Y-25935D01*
X53650Y-25964D01*
X53650Y-25992D01*
X53507Y-26021D01*
X53778Y-26121D02*
X53778Y-25921D01*
X53778Y-25978D02*
X53792Y-25950D01*
X53807Y-25935D01*
X53835Y-25921D01*
X53864Y-25921D01*
X53892Y-26150D02*
X54121Y-26150D01*
X54335Y-26121D02*
X54192Y-26121D01*
X54192Y-25821D01*
X54435Y-25964D02*
X54535Y-25964D01*
X54578Y-26121D02*
X54435Y-26121D01*
X54435Y-25821D01*
X54578Y-25821D01*
X54707Y-26121D02*
X54707Y-25821D01*
X54778Y-25821D01*
X54821Y-25835D01*
X54850Y-25864D01*
X54864Y-25892D01*
X54878Y-25950D01*
X54878Y-25992D01*
X54864Y-26050D01*
X54850Y-26078D01*
X54821Y-26107D01*
X54778Y-26121D01*
X54707Y-26121D01*
X37664Y-46371D02*
X37521Y-46371D01*
X37521Y-46071D01*
X37764Y-46214D02*
X37864Y-46214D01*
X37907Y-46371D02*
X37764Y-46371D01*
X37764Y-46071D01*
X37907Y-46071D01*
X38035Y-46371D02*
X38035Y-46071D01*
X38107Y-46071D01*
X38150Y-46085D01*
X38178Y-46114D01*
X38192Y-46142D01*
X38207Y-46200D01*
X38207Y-46242D01*
X38192Y-46300D01*
X38178Y-46328D01*
X38150Y-46357D01*
X38107Y-46371D01*
X38035Y-46371D01*
X38307Y-46071D02*
X38492Y-46071D01*
X38392Y-46185D01*
X38435Y-46185D01*
X38464Y-46200D01*
X38478Y-46214D01*
X38492Y-46242D01*
X38492Y-46314D01*
X38478Y-46342D01*
X38464Y-46357D01*
X38435Y-46371D01*
X38350Y-46371D01*
X38321Y-46357D01*
X38307Y-46342D01*
X39664Y-46371D02*
X39521Y-46371D01*
X39521Y-46071D01*
X39764Y-46214D02*
X39864Y-46214D01*
X39907Y-46371D02*
X39764Y-46371D01*
X39764Y-46071D01*
X39907Y-46071D01*
X40035Y-46371D02*
X40035Y-46071D01*
X40107Y-46071D01*
X40150Y-46085D01*
X40178Y-46114D01*
X40192Y-46142D01*
X40207Y-46200D01*
X40207Y-46242D01*
X40192Y-46300D01*
X40178Y-46328D01*
X40150Y-46357D01*
X40107Y-46371D01*
X40035Y-46371D01*
X40321Y-46100D02*
X40335Y-46085D01*
X40364Y-46071D01*
X40435Y-46071D01*
X40464Y-46085D01*
X40478Y-46100D01*
X40492Y-46128D01*
X40492Y-46157D01*
X40478Y-46200D01*
X40307Y-46371D01*
X40492Y-46371D01*
X41664Y-46371D02*
X41521Y-46371D01*
X41521Y-46071D01*
X41764Y-46214D02*
X41864Y-46214D01*
X41907Y-46371D02*
X41764Y-46371D01*
X41764Y-46071D01*
X41907Y-46071D01*
X42035Y-46371D02*
X42035Y-46071D01*
X42107Y-46071D01*
X42150Y-46085D01*
X42178Y-46114D01*
X42192Y-46142D01*
X42207Y-46200D01*
X42207Y-46242D01*
X42192Y-46300D01*
X42178Y-46328D01*
X42150Y-46357D01*
X42107Y-46371D01*
X42035Y-46371D01*
X42492Y-46371D02*
X42321Y-46371D01*
X42407Y-46371D02*
X42407Y-46071D01*
X42378Y-46114D01*
X42350Y-46142D01*
X42321Y-46157D01*
X36071Y-37742D02*
X36371Y-37542D01*
X36071Y-37542D02*
X36371Y-37742D01*
X36371Y-37271D02*
X36371Y-37442D01*
X36371Y-37357D02*
X36071Y-37357D01*
X36114Y-37385D01*
X36142Y-37414D01*
X36157Y-37442D01*
X36171Y-35142D02*
X36371Y-35142D01*
X36057Y-35214D02*
X36271Y-35285D01*
X36271Y-35100D01*
X36371Y-34985D02*
X36071Y-34985D01*
X36285Y-34885D01*
X36071Y-34785D01*
X36371Y-34785D01*
X36371Y-34642D02*
X36071Y-34642D01*
X36214Y-34642D02*
X36214Y-34471D01*
X36371Y-34471D02*
X36071Y-34471D01*
X36171Y-34357D02*
X36171Y-34200D01*
X36371Y-34357D01*
X36371Y-34200D01*
X36121Y-44785D02*
X35821Y-44785D01*
X35821Y-44671D01*
X35835Y-44642D01*
X35850Y-44628D01*
X35878Y-44614D01*
X35921Y-44614D01*
X35950Y-44628D01*
X35964Y-44642D01*
X35978Y-44671D01*
X35978Y-44785D01*
X36121Y-44485D02*
X35821Y-44485D01*
X36092Y-44171D02*
X36107Y-44185D01*
X36121Y-44228D01*
X36121Y-44257D01*
X36107Y-44299D01*
X36078Y-44328D01*
X36050Y-44342D01*
X35992Y-44357D01*
X35950Y-44357D01*
X35892Y-44342D01*
X35864Y-44328D01*
X35835Y-44299D01*
X35821Y-44257D01*
X35821Y-44228D01*
X35835Y-44185D01*
X35850Y-44171D01*
X36121Y-43885D02*
X36121Y-44057D01*
X36121Y-43971D02*
X35821Y-43971D01*
X35864Y-43999D01*
X35892Y-44028D01*
X35907Y-44057D01*
X35950Y-43714D02*
X35935Y-43742D01*
X35921Y-43757D01*
X35892Y-43771D01*
X35878Y-43771D01*
X35850Y-43757D01*
X35835Y-43742D01*
X35821Y-43714D01*
X35821Y-43657D01*
X35835Y-43628D01*
X35850Y-43614D01*
X35878Y-43600D01*
X35892Y-43600D01*
X35921Y-43614D01*
X35935Y-43628D01*
X35950Y-43657D01*
X35950Y-43714D01*
X35964Y-43742D01*
X35978Y-43757D01*
X36007Y-43771D01*
X36064Y-43771D01*
X36092Y-43757D01*
X36107Y-43742D01*
X36121Y-43714D01*
X36121Y-43657D01*
X36107Y-43628D01*
X36092Y-43614D01*
X36064Y-43600D01*
X36007Y-43600D01*
X35978Y-43614D01*
X35964Y-43628D01*
X35950Y-43657D01*
X35964Y-43371D02*
X35964Y-43471D01*
X36121Y-43471D02*
X35821Y-43471D01*
X35821Y-43328D01*
X35921Y-43085D02*
X36121Y-43085D01*
X35807Y-43157D02*
X36021Y-43228D01*
X36021Y-43042D01*
X35821Y-42785D02*
X35821Y-42928D01*
X35964Y-42942D01*
X35950Y-42928D01*
X35935Y-42900D01*
X35935Y-42828D01*
X35950Y-42800D01*
X35964Y-42785D01*
X35992Y-42771D01*
X36064Y-42771D01*
X36092Y-42785D01*
X36107Y-42800D01*
X36121Y-42828D01*
X36121Y-42900D01*
X36107Y-42928D01*
X36092Y-42942D01*
X35821Y-42500D02*
X35821Y-42642D01*
X35964Y-42657D01*
X35950Y-42642D01*
X35935Y-42614D01*
X35935Y-42542D01*
X35950Y-42514D01*
X35964Y-42500D01*
X35992Y-42485D01*
X36064Y-42485D01*
X36092Y-42500D01*
X36107Y-42514D01*
X36121Y-42542D01*
X36121Y-42614D01*
X36107Y-42642D01*
X36092Y-42657D01*
X35821Y-42300D02*
X35821Y-42271D01*
X35835Y-42242D01*
X35850Y-42228D01*
X35878Y-42214D01*
X35935Y-42200D01*
X36007Y-42200D01*
X36064Y-42214D01*
X36092Y-42228D01*
X36107Y-42242D01*
X36121Y-42271D01*
X36121Y-42300D01*
X36107Y-42328D01*
X36092Y-42342D01*
X36064Y-42357D01*
X36007Y-42371D01*
X35935Y-42371D01*
X35878Y-42357D01*
X35850Y-42342D01*
X35835Y-42328D01*
X35821Y-42300D01*
X41371Y-55835D02*
X41371Y-55978D01*
X41071Y-55978D01*
X41100Y-55749D02*
X41085Y-55735D01*
X41071Y-55707D01*
X41071Y-55635D01*
X41085Y-55607D01*
X41100Y-55592D01*
X41128Y-55578D01*
X41157Y-55578D01*
X41200Y-55592D01*
X41371Y-55764D01*
X41371Y-55578D01*
X41371Y-55435D02*
X41371Y-55378D01*
X41357Y-55349D01*
X41342Y-55335D01*
X41300Y-55307D01*
X41242Y-55292D01*
X41128Y-55292D01*
X41100Y-55307D01*
X41085Y-55321D01*
X41071Y-55349D01*
X41071Y-55407D01*
X41085Y-55435D01*
X41100Y-55449D01*
X41128Y-55464D01*
X41200Y-55464D01*
X41228Y-55449D01*
X41242Y-55435D01*
X41257Y-55407D01*
X41257Y-55349D01*
X41242Y-55321D01*
X41228Y-55307D01*
X41200Y-55292D01*
X41071Y-55192D02*
X41071Y-55007D01*
X41185Y-55107D01*
X41185Y-55064D01*
X41200Y-55035D01*
X41214Y-55021D01*
X41242Y-55007D01*
X41314Y-55007D01*
X41342Y-55021D01*
X41357Y-55035D01*
X41371Y-55064D01*
X41371Y-55150D01*
X41357Y-55178D01*
X41342Y-55192D01*
X37342Y-32550D02*
X37357Y-32564D01*
X37371Y-32607D01*
X37371Y-32635D01*
X37357Y-32678D01*
X37328Y-32707D01*
X37300Y-32721D01*
X37242Y-32735D01*
X37200Y-32735D01*
X37142Y-32721D01*
X37114Y-32707D01*
X37085Y-32678D01*
X37071Y-32635D01*
X37071Y-32607D01*
X37085Y-32564D01*
X37100Y-32550D01*
X37200Y-32378D02*
X37185Y-32407D01*
X37171Y-32421D01*
X37142Y-32435D01*
X37128Y-32435D01*
X37100Y-32421D01*
X37085Y-32407D01*
X37071Y-32378D01*
X37071Y-32321D01*
X37085Y-32292D01*
X37100Y-32278D01*
X37128Y-32264D01*
X37142Y-32264D01*
X37171Y-32278D01*
X37185Y-32292D01*
X37200Y-32321D01*
X37200Y-32378D01*
X37214Y-32407D01*
X37228Y-32421D01*
X37257Y-32435D01*
X37314Y-32435D01*
X37342Y-32421D01*
X37357Y-32407D01*
X37371Y-32378D01*
X37371Y-32321D01*
X37357Y-32292D01*
X37342Y-32278D01*
X37314Y-32264D01*
X37257Y-32264D01*
X37228Y-32278D01*
X37214Y-32292D01*
X37200Y-32321D01*
X37371Y-31464D02*
X37371Y-31635D01*
X37371Y-31550D02*
X37071Y-31550D01*
X37114Y-31578D01*
X37142Y-31607D01*
X37157Y-31635D01*
X37071Y-31278D02*
X37071Y-31250D01*
X37085Y-31221D01*
X37100Y-31207D01*
X37128Y-31192D01*
X37185Y-31178D01*
X37257Y-31178D01*
X37314Y-31192D01*
X37342Y-31207D01*
X37357Y-31221D01*
X37371Y-31250D01*
X37371Y-31278D01*
X37357Y-31307D01*
X37342Y-31321D01*
X37314Y-31335D01*
X37257Y-31350D01*
X37185Y-31350D01*
X37128Y-31335D01*
X37100Y-31321D01*
X37085Y-31307D01*
X37071Y-31278D01*
X37071Y-30992D02*
X37071Y-30964D01*
X37085Y-30935D01*
X37100Y-30921D01*
X37128Y-30907D01*
X37185Y-30892D01*
X37257Y-30892D01*
X37314Y-30907D01*
X37342Y-30921D01*
X37357Y-30935D01*
X37371Y-30964D01*
X37371Y-30992D01*
X37357Y-31021D01*
X37342Y-31035D01*
X37314Y-31050D01*
X37257Y-31064D01*
X37185Y-31064D01*
X37128Y-31050D01*
X37100Y-31035D01*
X37085Y-31021D01*
X37071Y-30992D01*
X37171Y-30764D02*
X37371Y-30764D01*
X37200Y-30764D02*
X37185Y-30750D01*
X37171Y-30721D01*
X37171Y-30678D01*
X37185Y-30650D01*
X37214Y-30635D01*
X37371Y-30635D01*
X37214Y-30392D02*
X37214Y-30492D01*
X37371Y-30492D02*
X37071Y-30492D01*
X37071Y-30350D01*
X30373Y-44757D02*
X30392Y-44776D01*
X30411Y-44833D01*
X30411Y-44871D01*
X30392Y-44928D01*
X30354Y-44966D01*
X30316Y-44985D01*
X30240Y-45004D01*
X30183Y-45004D01*
X30107Y-44985D01*
X30069Y-44966D01*
X30030Y-44928D01*
X30011Y-44871D01*
X30011Y-44833D01*
X30030Y-44776D01*
X30050Y-44757D01*
X30411Y-44376D02*
X30411Y-44604D01*
X30411Y-44490D02*
X30011Y-44490D01*
X30069Y-44528D01*
X30107Y-44566D01*
X30126Y-44604D01*
X30011Y-44242D02*
X30011Y-43995D01*
X30164Y-44128D01*
X30164Y-44071D01*
X30183Y-44033D01*
X30202Y-44014D01*
X30240Y-43995D01*
X30335Y-43995D01*
X30373Y-44014D01*
X30392Y-44033D01*
X30411Y-44071D01*
X30411Y-44185D01*
X30392Y-44223D01*
X30373Y-44242D01*
X30050Y-43597D02*
X30030Y-43578D01*
X30011Y-43540D01*
X30011Y-43445D01*
X30030Y-43407D01*
X30050Y-43388D01*
X30088Y-43369D01*
X30126Y-43369D01*
X30183Y-43388D01*
X30411Y-43616D01*
X30411Y-43369D01*
X30050Y-43216D02*
X30030Y-43197D01*
X30011Y-43159D01*
X30011Y-43064D01*
X30030Y-43026D01*
X30050Y-43007D01*
X30088Y-42988D01*
X30126Y-42988D01*
X30183Y-43007D01*
X30411Y-43235D01*
X30411Y-42988D01*
X30011Y-42740D02*
X30011Y-42702D01*
X30030Y-42664D01*
X30050Y-42645D01*
X30088Y-42626D01*
X30164Y-42607D01*
X30259Y-42607D01*
X30335Y-42626D01*
X30373Y-42645D01*
X30392Y-42664D01*
X30411Y-42702D01*
X30411Y-42740D01*
X30392Y-42778D01*
X30373Y-42797D01*
X30335Y-42816D01*
X30259Y-42835D01*
X30164Y-42835D01*
X30088Y-42816D01*
X30050Y-42797D01*
X30030Y-42778D01*
X30011Y-42740D01*
X30145Y-42435D02*
X30411Y-42435D01*
X30183Y-42435D02*
X30164Y-42416D01*
X30145Y-42378D01*
X30145Y-42321D01*
X30164Y-42283D01*
X30202Y-42264D01*
X30411Y-42264D01*
X30202Y-41940D02*
X30202Y-42073D01*
X30411Y-42073D02*
X30011Y-42073D01*
X30011Y-41883D01*
X29342Y-26692D02*
X29357Y-26707D01*
X29371Y-26750D01*
X29371Y-26778D01*
X29357Y-26821D01*
X29328Y-26850D01*
X29300Y-26864D01*
X29242Y-26878D01*
X29200Y-26878D01*
X29142Y-26864D01*
X29114Y-26850D01*
X29085Y-26821D01*
X29071Y-26778D01*
X29071Y-26750D01*
X29085Y-26707D01*
X29100Y-26692D01*
X29371Y-26407D02*
X29371Y-26578D01*
X29371Y-26492D02*
X29071Y-26492D01*
X29114Y-26521D01*
X29142Y-26550D01*
X29157Y-26578D01*
X29171Y-26150D02*
X29371Y-26150D01*
X29057Y-26221D02*
X29271Y-26292D01*
X29271Y-26107D01*
X29371Y-24964D02*
X29371Y-25135D01*
X29371Y-25050D02*
X29071Y-25050D01*
X29114Y-25078D01*
X29142Y-25107D01*
X29157Y-25135D01*
X29071Y-24778D02*
X29071Y-24750D01*
X29085Y-24721D01*
X29100Y-24707D01*
X29128Y-24692D01*
X29185Y-24678D01*
X29257Y-24678D01*
X29314Y-24692D01*
X29342Y-24707D01*
X29357Y-24721D01*
X29371Y-24750D01*
X29371Y-24778D01*
X29357Y-24807D01*
X29342Y-24821D01*
X29314Y-24835D01*
X29257Y-24850D01*
X29185Y-24850D01*
X29128Y-24835D01*
X29100Y-24821D01*
X29085Y-24807D01*
X29071Y-24778D01*
X29071Y-24492D02*
X29071Y-24464D01*
X29085Y-24435D01*
X29100Y-24421D01*
X29128Y-24407D01*
X29185Y-24392D01*
X29257Y-24392D01*
X29314Y-24407D01*
X29342Y-24421D01*
X29357Y-24435D01*
X29371Y-24464D01*
X29371Y-24492D01*
X29357Y-24521D01*
X29342Y-24535D01*
X29314Y-24550D01*
X29257Y-24564D01*
X29185Y-24564D01*
X29128Y-24550D01*
X29100Y-24535D01*
X29085Y-24521D01*
X29071Y-24492D01*
X29171Y-24264D02*
X29371Y-24264D01*
X29200Y-24264D02*
X29185Y-24250D01*
X29171Y-24221D01*
X29171Y-24178D01*
X29185Y-24150D01*
X29214Y-24135D01*
X29371Y-24135D01*
X29214Y-23892D02*
X29214Y-23992D01*
X29371Y-23992D02*
X29071Y-23992D01*
X29071Y-23850D01*
X47342Y-52300D02*
X47357Y-52314D01*
X47371Y-52357D01*
X47371Y-52385D01*
X47357Y-52428D01*
X47328Y-52457D01*
X47300Y-52471D01*
X47242Y-52485D01*
X47200Y-52485D01*
X47142Y-52471D01*
X47114Y-52457D01*
X47085Y-52428D01*
X47071Y-52385D01*
X47071Y-52357D01*
X47085Y-52314D01*
X47100Y-52300D01*
X47371Y-52157D02*
X47371Y-52100D01*
X47357Y-52071D01*
X47342Y-52057D01*
X47300Y-52028D01*
X47242Y-52014D01*
X47128Y-52014D01*
X47100Y-52028D01*
X47085Y-52042D01*
X47071Y-52071D01*
X47071Y-52128D01*
X47085Y-52157D01*
X47100Y-52171D01*
X47128Y-52185D01*
X47200Y-52185D01*
X47228Y-52171D01*
X47242Y-52157D01*
X47257Y-52128D01*
X47257Y-52071D01*
X47242Y-52042D01*
X47228Y-52028D01*
X47200Y-52014D01*
X47371Y-50964D02*
X47371Y-51135D01*
X47371Y-51050D02*
X47071Y-51050D01*
X47114Y-51078D01*
X47142Y-51107D01*
X47157Y-51135D01*
X47071Y-50778D02*
X47071Y-50750D01*
X47085Y-50721D01*
X47100Y-50707D01*
X47128Y-50692D01*
X47185Y-50678D01*
X47257Y-50678D01*
X47314Y-50692D01*
X47342Y-50707D01*
X47357Y-50721D01*
X47371Y-50750D01*
X47371Y-50778D01*
X47357Y-50807D01*
X47342Y-50821D01*
X47314Y-50835D01*
X47257Y-50850D01*
X47185Y-50850D01*
X47128Y-50835D01*
X47100Y-50821D01*
X47085Y-50807D01*
X47071Y-50778D01*
X47071Y-50492D02*
X47071Y-50464D01*
X47085Y-50435D01*
X47100Y-50421D01*
X47128Y-50407D01*
X47185Y-50392D01*
X47257Y-50392D01*
X47314Y-50407D01*
X47342Y-50421D01*
X47357Y-50435D01*
X47371Y-50464D01*
X47371Y-50492D01*
X47357Y-50521D01*
X47342Y-50535D01*
X47314Y-50550D01*
X47257Y-50564D01*
X47185Y-50564D01*
X47128Y-50550D01*
X47100Y-50535D01*
X47085Y-50521D01*
X47071Y-50492D01*
X47171Y-50264D02*
X47371Y-50264D01*
X47200Y-50264D02*
X47185Y-50250D01*
X47171Y-50221D01*
X47171Y-50178D01*
X47185Y-50150D01*
X47214Y-50135D01*
X47371Y-50135D01*
X47214Y-49892D02*
X47214Y-49992D01*
X47371Y-49992D02*
X47071Y-49992D01*
X47071Y-49850D01*
G54D18*
X29623Y-36757D02*
X29642Y-36776D01*
X29661Y-36833D01*
X29661Y-36871D01*
X29642Y-36928D01*
X29604Y-36966D01*
X29566Y-36985D01*
X29490Y-37004D01*
X29433Y-37004D01*
X29357Y-36985D01*
X29319Y-36966D01*
X29280Y-36928D01*
X29261Y-36871D01*
X29261Y-36833D01*
X29280Y-36776D01*
X29300Y-36757D01*
X29661Y-36376D02*
X29661Y-36604D01*
X29661Y-36490D02*
X29261Y-36490D01*
X29319Y-36528D01*
X29357Y-36566D01*
X29376Y-36604D01*
X29300Y-36223D02*
X29280Y-36204D01*
X29261Y-36166D01*
X29261Y-36071D01*
X29280Y-36033D01*
X29300Y-36014D01*
X29338Y-35995D01*
X29376Y-35995D01*
X29433Y-36014D01*
X29661Y-36242D01*
X29661Y-35995D01*
X29661Y-35119D02*
X29661Y-35347D01*
X29661Y-35233D02*
X29261Y-35233D01*
X29319Y-35271D01*
X29357Y-35309D01*
X29376Y-35347D01*
X29261Y-34871D02*
X29261Y-34833D01*
X29280Y-34795D01*
X29300Y-34776D01*
X29338Y-34757D01*
X29414Y-34738D01*
X29509Y-34738D01*
X29585Y-34757D01*
X29623Y-34776D01*
X29642Y-34795D01*
X29661Y-34833D01*
X29661Y-34871D01*
X29642Y-34909D01*
X29623Y-34928D01*
X29585Y-34947D01*
X29509Y-34966D01*
X29414Y-34966D01*
X29338Y-34947D01*
X29300Y-34928D01*
X29280Y-34909D01*
X29261Y-34871D01*
X29261Y-34490D02*
X29261Y-34452D01*
X29280Y-34414D01*
X29300Y-34395D01*
X29338Y-34376D01*
X29414Y-34357D01*
X29509Y-34357D01*
X29585Y-34376D01*
X29623Y-34395D01*
X29642Y-34414D01*
X29661Y-34452D01*
X29661Y-34490D01*
X29642Y-34528D01*
X29623Y-34547D01*
X29585Y-34566D01*
X29509Y-34585D01*
X29414Y-34585D01*
X29338Y-34566D01*
X29300Y-34547D01*
X29280Y-34528D01*
X29261Y-34490D01*
X29395Y-34185D02*
X29661Y-34185D01*
X29433Y-34185D02*
X29414Y-34166D01*
X29395Y-34128D01*
X29395Y-34071D01*
X29414Y-34033D01*
X29452Y-34014D01*
X29661Y-34014D01*
X29452Y-33690D02*
X29452Y-33823D01*
X29661Y-33823D02*
X29261Y-33823D01*
X29261Y-33633D01*
G54D11*
X55307Y-50842D02*
X55292Y-50857D01*
X55250Y-50871D01*
X55221Y-50871D01*
X55178Y-50857D01*
X55150Y-50828D01*
X55135Y-50800D01*
X55121Y-50742D01*
X55121Y-50700D01*
X55135Y-50642D01*
X55150Y-50614D01*
X55178Y-50585D01*
X55221Y-50571D01*
X55250Y-50571D01*
X55292Y-50585D01*
X55307Y-50600D01*
X55592Y-50871D02*
X55421Y-50871D01*
X55507Y-50871D02*
X55507Y-50571D01*
X55478Y-50614D01*
X55450Y-50642D01*
X55421Y-50657D01*
X55850Y-50571D02*
X55792Y-50571D01*
X55764Y-50585D01*
X55750Y-50600D01*
X55721Y-50642D01*
X55707Y-50700D01*
X55707Y-50814D01*
X55721Y-50842D01*
X55735Y-50857D01*
X55764Y-50871D01*
X55821Y-50871D01*
X55850Y-50857D01*
X55864Y-50842D01*
X55878Y-50814D01*
X55878Y-50742D01*
X55864Y-50714D01*
X55850Y-50700D01*
X55821Y-50685D01*
X55764Y-50685D01*
X55735Y-50700D01*
X55721Y-50714D01*
X55707Y-50742D01*
X57178Y-50871D02*
X57007Y-50871D01*
X57092Y-50871D02*
X57092Y-50571D01*
X57064Y-50614D01*
X57035Y-50642D01*
X57007Y-50657D01*
X57364Y-50571D02*
X57392Y-50571D01*
X57421Y-50585D01*
X57435Y-50600D01*
X57450Y-50628D01*
X57464Y-50685D01*
X57464Y-50757D01*
X57450Y-50814D01*
X57435Y-50842D01*
X57421Y-50857D01*
X57392Y-50871D01*
X57364Y-50871D01*
X57335Y-50857D01*
X57321Y-50842D01*
X57307Y-50814D01*
X57292Y-50757D01*
X57292Y-50685D01*
X57307Y-50628D01*
X57321Y-50600D01*
X57335Y-50585D01*
X57364Y-50571D01*
X57592Y-50671D02*
X57592Y-50871D01*
X57592Y-50700D02*
X57607Y-50685D01*
X57635Y-50671D01*
X57678Y-50671D01*
X57707Y-50685D01*
X57721Y-50714D01*
X57721Y-50871D01*
X57964Y-50714D02*
X57864Y-50714D01*
X57864Y-50871D02*
X57864Y-50571D01*
X58007Y-50571D01*
X50307Y-50842D02*
X50292Y-50857D01*
X50250Y-50871D01*
X50221Y-50871D01*
X50178Y-50857D01*
X50150Y-50828D01*
X50135Y-50800D01*
X50121Y-50742D01*
X50121Y-50700D01*
X50135Y-50642D01*
X50150Y-50614D01*
X50178Y-50585D01*
X50221Y-50571D01*
X50250Y-50571D01*
X50292Y-50585D01*
X50307Y-50600D01*
X50592Y-50871D02*
X50421Y-50871D01*
X50507Y-50871D02*
X50507Y-50571D01*
X50478Y-50614D01*
X50450Y-50642D01*
X50421Y-50657D01*
X50864Y-50571D02*
X50721Y-50571D01*
X50707Y-50714D01*
X50721Y-50700D01*
X50750Y-50685D01*
X50821Y-50685D01*
X50850Y-50700D01*
X50864Y-50714D01*
X50878Y-50742D01*
X50878Y-50814D01*
X50864Y-50842D01*
X50850Y-50857D01*
X50821Y-50871D01*
X50750Y-50871D01*
X50721Y-50857D01*
X50707Y-50842D01*
X52178Y-50871D02*
X52007Y-50871D01*
X52092Y-50871D02*
X52092Y-50571D01*
X52064Y-50614D01*
X52035Y-50642D01*
X52007Y-50657D01*
X52364Y-50571D02*
X52392Y-50571D01*
X52421Y-50585D01*
X52435Y-50600D01*
X52450Y-50628D01*
X52464Y-50685D01*
X52464Y-50757D01*
X52450Y-50814D01*
X52435Y-50842D01*
X52421Y-50857D01*
X52392Y-50871D01*
X52364Y-50871D01*
X52335Y-50857D01*
X52321Y-50842D01*
X52307Y-50814D01*
X52292Y-50757D01*
X52292Y-50685D01*
X52307Y-50628D01*
X52321Y-50600D01*
X52335Y-50585D01*
X52364Y-50571D01*
X52592Y-50671D02*
X52592Y-50871D01*
X52592Y-50700D02*
X52607Y-50685D01*
X52635Y-50671D01*
X52678Y-50671D01*
X52707Y-50685D01*
X52721Y-50714D01*
X52721Y-50871D01*
X52964Y-50714D02*
X52864Y-50714D01*
X52864Y-50871D02*
X52864Y-50571D01*
X53007Y-50571D01*
X57342Y-23550D02*
X57357Y-23564D01*
X57371Y-23607D01*
X57371Y-23635D01*
X57357Y-23678D01*
X57328Y-23707D01*
X57300Y-23721D01*
X57242Y-23735D01*
X57200Y-23735D01*
X57142Y-23721D01*
X57114Y-23707D01*
X57085Y-23678D01*
X57071Y-23635D01*
X57071Y-23607D01*
X57085Y-23564D01*
X57100Y-23550D01*
X57100Y-23435D02*
X57085Y-23421D01*
X57071Y-23392D01*
X57071Y-23321D01*
X57085Y-23292D01*
X57100Y-23278D01*
X57128Y-23264D01*
X57157Y-23264D01*
X57200Y-23278D01*
X57371Y-23450D01*
X57371Y-23264D01*
X57371Y-22214D02*
X57371Y-22385D01*
X57371Y-22300D02*
X57071Y-22300D01*
X57114Y-22328D01*
X57142Y-22357D01*
X57157Y-22385D01*
X57071Y-22028D02*
X57071Y-22000D01*
X57085Y-21971D01*
X57100Y-21957D01*
X57128Y-21942D01*
X57185Y-21928D01*
X57257Y-21928D01*
X57314Y-21942D01*
X57342Y-21957D01*
X57357Y-21971D01*
X57371Y-22000D01*
X57371Y-22028D01*
X57357Y-22057D01*
X57342Y-22071D01*
X57314Y-22085D01*
X57257Y-22100D01*
X57185Y-22100D01*
X57128Y-22085D01*
X57100Y-22071D01*
X57085Y-22057D01*
X57071Y-22028D01*
X57071Y-21742D02*
X57071Y-21714D01*
X57085Y-21685D01*
X57100Y-21671D01*
X57128Y-21657D01*
X57185Y-21642D01*
X57257Y-21642D01*
X57314Y-21657D01*
X57342Y-21671D01*
X57357Y-21685D01*
X57371Y-21714D01*
X57371Y-21742D01*
X57357Y-21771D01*
X57342Y-21785D01*
X57314Y-21800D01*
X57257Y-21814D01*
X57185Y-21814D01*
X57128Y-21800D01*
X57100Y-21785D01*
X57085Y-21771D01*
X57071Y-21742D01*
X57171Y-21514D02*
X57371Y-21514D01*
X57200Y-21514D02*
X57185Y-21500D01*
X57171Y-21471D01*
X57171Y-21428D01*
X57185Y-21400D01*
X57214Y-21385D01*
X57371Y-21385D01*
X57214Y-21142D02*
X57214Y-21242D01*
X57371Y-21242D02*
X57071Y-21242D01*
X57071Y-21100D01*
X47057Y-47092D02*
X47042Y-47107D01*
X47000Y-47121D01*
X46971Y-47121D01*
X46928Y-47107D01*
X46900Y-47078D01*
X46885Y-47050D01*
X46871Y-46992D01*
X46871Y-46950D01*
X46885Y-46892D01*
X46900Y-46864D01*
X46928Y-46835D01*
X46971Y-46821D01*
X47000Y-46821D01*
X47042Y-46835D01*
X47057Y-46850D01*
X47342Y-47121D02*
X47171Y-47121D01*
X47257Y-47121D02*
X47257Y-46821D01*
X47228Y-46864D01*
X47200Y-46892D01*
X47171Y-46907D01*
X47442Y-46821D02*
X47642Y-46821D01*
X47514Y-47121D01*
X48601Y-47121D02*
X48458Y-47121D01*
X48529Y-47121D02*
X48529Y-46821D01*
X48505Y-46864D01*
X48482Y-46892D01*
X48458Y-46907D01*
X48815Y-46921D02*
X48815Y-47121D01*
X48708Y-46921D02*
X48708Y-47078D01*
X48720Y-47107D01*
X48744Y-47121D01*
X48779Y-47121D01*
X48803Y-47107D01*
X48815Y-47092D01*
X49017Y-46964D02*
X48934Y-46964D01*
X48934Y-47121D02*
X48934Y-46821D01*
X49053Y-46821D01*
G54D19*
X48007Y-49614D02*
X48007Y-49385D01*
X48121Y-49500D02*
X47892Y-49500D01*
G54D18*
G54D11*
X29700Y-49842D02*
X29685Y-49857D01*
X29642Y-49871D01*
X29614Y-49871D01*
X29571Y-49857D01*
X29542Y-49828D01*
X29528Y-49800D01*
X29514Y-49742D01*
X29514Y-49700D01*
X29528Y-49642D01*
X29542Y-49614D01*
X29571Y-49585D01*
X29614Y-49571D01*
X29642Y-49571D01*
X29685Y-49585D01*
X29700Y-49600D01*
X29800Y-49571D02*
X30000Y-49571D01*
X29871Y-49871D01*
X30732Y-49871D02*
X30589Y-49871D01*
X30660Y-49871D02*
X30660Y-49571D01*
X30636Y-49614D01*
X30613Y-49642D01*
X30589Y-49657D01*
X30886Y-49571D02*
X30910Y-49571D01*
X30934Y-49585D01*
X30946Y-49600D01*
X30958Y-49628D01*
X30970Y-49685D01*
X30970Y-49757D01*
X30958Y-49814D01*
X30946Y-49842D01*
X30934Y-49857D01*
X30910Y-49871D01*
X30886Y-49871D01*
X30863Y-49857D01*
X30851Y-49842D01*
X30839Y-49814D01*
X30827Y-49757D01*
X30827Y-49685D01*
X30839Y-49628D01*
X30851Y-49600D01*
X30863Y-49585D01*
X30886Y-49571D01*
X31184Y-49671D02*
X31184Y-49871D01*
X31077Y-49671D02*
X31077Y-49828D01*
X31089Y-49857D01*
X31113Y-49871D01*
X31148Y-49871D01*
X31172Y-49857D01*
X31184Y-49842D01*
X31386Y-49714D02*
X31303Y-49714D01*
X31303Y-49871D02*
X31303Y-49571D01*
X31422Y-49571D01*
G54D19*
X30757Y-52364D02*
X30757Y-52135D01*
X30871Y-52250D02*
X30642Y-52250D01*
G54D18*
G54D16*
X47450Y-24842D02*
X47435Y-24857D01*
X47392Y-24871D01*
X47364Y-24871D01*
X47321Y-24857D01*
X47292Y-24828D01*
X47278Y-24800D01*
X47264Y-24742D01*
X47264Y-24700D01*
X47278Y-24642D01*
X47292Y-24614D01*
X47321Y-24585D01*
X47364Y-24571D01*
X47392Y-24571D01*
X47435Y-24585D01*
X47450Y-24600D01*
X47707Y-24571D02*
X47650Y-24571D01*
X47621Y-24585D01*
X47607Y-24600D01*
X47578Y-24642D01*
X47564Y-24700D01*
X47564Y-24814D01*
X47578Y-24842D01*
X47592Y-24857D01*
X47621Y-24871D01*
X47678Y-24871D01*
X47707Y-24857D01*
X47721Y-24842D01*
X47735Y-24814D01*
X47735Y-24742D01*
X47721Y-24714D01*
X47707Y-24700D01*
X47678Y-24685D01*
X47621Y-24685D01*
X47592Y-24700D01*
X47578Y-24714D01*
X47564Y-24742D01*
X48601Y-24871D02*
X48458Y-24871D01*
X48529Y-24871D02*
X48529Y-24571D01*
X48505Y-24614D01*
X48482Y-24642D01*
X48458Y-24657D01*
X48815Y-24671D02*
X48815Y-24871D01*
X48708Y-24671D02*
X48708Y-24828D01*
X48720Y-24857D01*
X48744Y-24871D01*
X48779Y-24871D01*
X48803Y-24857D01*
X48815Y-24842D01*
X49017Y-24714D02*
X48934Y-24714D01*
X48934Y-24871D02*
X48934Y-24571D01*
X49053Y-24571D01*
G54D19*
X48007Y-24864D02*
X48007Y-24635D01*
X48121Y-24750D02*
X47892Y-24750D01*
G54D18*
G54D11*
X53450Y-21592D02*
X53435Y-21607D01*
X53392Y-21621D01*
X53364Y-21621D01*
X53321Y-21607D01*
X53292Y-21578D01*
X53278Y-21550D01*
X53264Y-21492D01*
X53264Y-21450D01*
X53278Y-21392D01*
X53292Y-21364D01*
X53321Y-21335D01*
X53364Y-21321D01*
X53392Y-21321D01*
X53435Y-21335D01*
X53450Y-21350D01*
X53735Y-21621D02*
X53564Y-21621D01*
X53650Y-21621D02*
X53650Y-21321D01*
X53621Y-21364D01*
X53592Y-21392D01*
X53564Y-21407D01*
X53351Y-22121D02*
X53208Y-22121D01*
X53279Y-22121D02*
X53279Y-21821D01*
X53255Y-21864D01*
X53232Y-21892D01*
X53208Y-21907D01*
X53565Y-21921D02*
X53565Y-22121D01*
X53458Y-21921D02*
X53458Y-22078D01*
X53470Y-22107D01*
X53494Y-22121D01*
X53529Y-22121D01*
X53553Y-22107D01*
X53565Y-22092D01*
X53767Y-21964D02*
X53684Y-21964D01*
X53684Y-22121D02*
X53684Y-21821D01*
X53803Y-21821D01*
G54D19*
X53007Y-21114D02*
X53007Y-20885D01*
X53121Y-21000D02*
X52892Y-21000D01*
G54D18*
G54D16*
X45200Y-24842D02*
X45185Y-24857D01*
X45142Y-24871D01*
X45114Y-24871D01*
X45071Y-24857D01*
X45042Y-24828D01*
X45028Y-24800D01*
X45014Y-24742D01*
X45014Y-24700D01*
X45028Y-24642D01*
X45042Y-24614D01*
X45071Y-24585D01*
X45114Y-24571D01*
X45142Y-24571D01*
X45185Y-24585D01*
X45200Y-24600D01*
X45471Y-24571D02*
X45328Y-24571D01*
X45314Y-24714D01*
X45328Y-24700D01*
X45357Y-24685D01*
X45428Y-24685D01*
X45457Y-24700D01*
X45471Y-24714D01*
X45485Y-24742D01*
X45485Y-24814D01*
X45471Y-24842D01*
X45457Y-24857D01*
X45428Y-24871D01*
X45357Y-24871D01*
X45328Y-24857D01*
X45314Y-24842D01*
X46601Y-24871D02*
X46458Y-24871D01*
X46529Y-24871D02*
X46529Y-24571D01*
X46505Y-24614D01*
X46482Y-24642D01*
X46458Y-24657D01*
X46815Y-24671D02*
X46815Y-24871D01*
X46708Y-24671D02*
X46708Y-24828D01*
X46720Y-24857D01*
X46744Y-24871D01*
X46779Y-24871D01*
X46803Y-24857D01*
X46815Y-24842D01*
X47017Y-24714D02*
X46934Y-24714D01*
X46934Y-24871D02*
X46934Y-24571D01*
X47053Y-24571D01*
G54D19*
X46007Y-24864D02*
X46007Y-24635D01*
X46121Y-24750D02*
X45892Y-24750D01*
G54D18*
G54D16*
X51450Y-25342D02*
X51435Y-25357D01*
X51392Y-25371D01*
X51364Y-25371D01*
X51321Y-25357D01*
X51292Y-25328D01*
X51278Y-25300D01*
X51264Y-25242D01*
X51264Y-25200D01*
X51278Y-25142D01*
X51292Y-25114D01*
X51321Y-25085D01*
X51364Y-25071D01*
X51392Y-25071D01*
X51435Y-25085D01*
X51450Y-25100D01*
X51707Y-25171D02*
X51707Y-25371D01*
X51635Y-25057D02*
X51564Y-25271D01*
X51750Y-25271D01*
X52482Y-25371D02*
X52339Y-25371D01*
X52410Y-25371D02*
X52410Y-25071D01*
X52386Y-25114D01*
X52363Y-25142D01*
X52339Y-25157D01*
X52636Y-25071D02*
X52660Y-25071D01*
X52684Y-25085D01*
X52696Y-25100D01*
X52708Y-25128D01*
X52720Y-25185D01*
X52720Y-25257D01*
X52708Y-25314D01*
X52696Y-25342D01*
X52684Y-25357D01*
X52660Y-25371D01*
X52636Y-25371D01*
X52613Y-25357D01*
X52601Y-25342D01*
X52589Y-25314D01*
X52577Y-25257D01*
X52577Y-25185D01*
X52589Y-25128D01*
X52601Y-25100D01*
X52613Y-25085D01*
X52636Y-25071D01*
X52934Y-25171D02*
X52934Y-25371D01*
X52827Y-25171D02*
X52827Y-25328D01*
X52839Y-25357D01*
X52863Y-25371D01*
X52898Y-25371D01*
X52922Y-25357D01*
X52934Y-25342D01*
X53136Y-25214D02*
X53053Y-25214D01*
X53053Y-25371D02*
X53053Y-25071D01*
X53172Y-25071D01*
G54D19*
X52007Y-25364D02*
X52007Y-25135D01*
X52121Y-25250D02*
X51892Y-25250D01*
G54D18*
G54D11*
X53950Y-25342D02*
X53935Y-25357D01*
X53892Y-25371D01*
X53864Y-25371D01*
X53821Y-25357D01*
X53792Y-25328D01*
X53778Y-25300D01*
X53764Y-25242D01*
X53764Y-25200D01*
X53778Y-25142D01*
X53792Y-25114D01*
X53821Y-25085D01*
X53864Y-25071D01*
X53892Y-25071D01*
X53935Y-25085D01*
X53950Y-25100D01*
X54050Y-25071D02*
X54235Y-25071D01*
X54135Y-25185D01*
X54178Y-25185D01*
X54207Y-25200D01*
X54221Y-25214D01*
X54235Y-25242D01*
X54235Y-25314D01*
X54221Y-25342D01*
X54207Y-25357D01*
X54178Y-25371D01*
X54092Y-25371D01*
X54064Y-25357D01*
X54050Y-25342D01*
X54851Y-25371D02*
X54708Y-25371D01*
X54779Y-25371D02*
X54779Y-25071D01*
X54755Y-25114D01*
X54732Y-25142D01*
X54708Y-25157D01*
X55065Y-25171D02*
X55065Y-25371D01*
X54958Y-25171D02*
X54958Y-25328D01*
X54970Y-25357D01*
X54994Y-25371D01*
X55029Y-25371D01*
X55053Y-25357D01*
X55065Y-25342D01*
X55267Y-25214D02*
X55184Y-25214D01*
X55184Y-25371D02*
X55184Y-25071D01*
X55303Y-25071D01*
G54D19*
X54507Y-25364D02*
X54507Y-25135D01*
X54621Y-25250D02*
X54392Y-25250D01*
G54D18*
G54D11*
X39342Y-34692D02*
X39357Y-34707D01*
X39371Y-34750D01*
X39371Y-34778D01*
X39357Y-34821D01*
X39328Y-34850D01*
X39300Y-34864D01*
X39242Y-34878D01*
X39200Y-34878D01*
X39142Y-34864D01*
X39114Y-34850D01*
X39085Y-34821D01*
X39071Y-34778D01*
X39071Y-34750D01*
X39085Y-34707D01*
X39100Y-34692D01*
X39371Y-34407D02*
X39371Y-34578D01*
X39371Y-34492D02*
X39071Y-34492D01*
X39114Y-34521D01*
X39142Y-34550D01*
X39157Y-34578D01*
X39071Y-34221D02*
X39071Y-34192D01*
X39085Y-34164D01*
X39100Y-34150D01*
X39128Y-34135D01*
X39185Y-34121D01*
X39257Y-34121D01*
X39314Y-34135D01*
X39342Y-34150D01*
X39357Y-34164D01*
X39371Y-34192D01*
X39371Y-34221D01*
X39357Y-34250D01*
X39342Y-34264D01*
X39314Y-34278D01*
X39257Y-34292D01*
X39185Y-34292D01*
X39128Y-34278D01*
X39100Y-34264D01*
X39085Y-34250D01*
X39071Y-34221D01*
X39071Y-33757D02*
X39071Y-33571D01*
X39185Y-33671D01*
X39185Y-33628D01*
X39200Y-33600D01*
X39214Y-33585D01*
X39242Y-33571D01*
X39314Y-33571D01*
X39342Y-33585D01*
X39357Y-33600D01*
X39371Y-33628D01*
X39371Y-33714D01*
X39357Y-33742D01*
X39342Y-33757D01*
X39071Y-33385D02*
X39071Y-33357D01*
X39085Y-33328D01*
X39100Y-33314D01*
X39128Y-33300D01*
X39185Y-33285D01*
X39257Y-33285D01*
X39314Y-33300D01*
X39342Y-33314D01*
X39357Y-33328D01*
X39371Y-33357D01*
X39371Y-33385D01*
X39357Y-33414D01*
X39342Y-33428D01*
X39314Y-33442D01*
X39257Y-33457D01*
X39185Y-33457D01*
X39128Y-33442D01*
X39100Y-33428D01*
X39085Y-33414D01*
X39071Y-33385D01*
X39171Y-33157D02*
X39471Y-33157D01*
X39185Y-33157D02*
X39171Y-33128D01*
X39171Y-33071D01*
X39185Y-33042D01*
X39200Y-33028D01*
X39228Y-33014D01*
X39314Y-33014D01*
X39342Y-33028D01*
X39357Y-33042D01*
X39371Y-33071D01*
X39371Y-33128D01*
X39357Y-33157D01*
X39214Y-32785D02*
X39214Y-32885D01*
X39371Y-32885D02*
X39071Y-32885D01*
X39071Y-32742D01*
X39342Y-37692D02*
X39357Y-37707D01*
X39371Y-37750D01*
X39371Y-37778D01*
X39357Y-37821D01*
X39328Y-37850D01*
X39300Y-37864D01*
X39242Y-37878D01*
X39200Y-37878D01*
X39142Y-37864D01*
X39114Y-37850D01*
X39085Y-37821D01*
X39071Y-37778D01*
X39071Y-37750D01*
X39085Y-37707D01*
X39100Y-37692D01*
X39371Y-37407D02*
X39371Y-37578D01*
X39371Y-37492D02*
X39071Y-37492D01*
X39114Y-37521D01*
X39142Y-37550D01*
X39157Y-37578D01*
X39371Y-37121D02*
X39371Y-37292D01*
X39371Y-37207D02*
X39071Y-37207D01*
X39114Y-37235D01*
X39142Y-37264D01*
X39157Y-37292D01*
X39071Y-36757D02*
X39071Y-36571D01*
X39185Y-36671D01*
X39185Y-36628D01*
X39200Y-36600D01*
X39214Y-36585D01*
X39242Y-36571D01*
X39314Y-36571D01*
X39342Y-36585D01*
X39357Y-36600D01*
X39371Y-36628D01*
X39371Y-36714D01*
X39357Y-36742D01*
X39342Y-36757D01*
X39071Y-36385D02*
X39071Y-36357D01*
X39085Y-36328D01*
X39100Y-36314D01*
X39128Y-36300D01*
X39185Y-36285D01*
X39257Y-36285D01*
X39314Y-36300D01*
X39342Y-36314D01*
X39357Y-36328D01*
X39371Y-36357D01*
X39371Y-36385D01*
X39357Y-36414D01*
X39342Y-36428D01*
X39314Y-36442D01*
X39257Y-36457D01*
X39185Y-36457D01*
X39128Y-36442D01*
X39100Y-36428D01*
X39085Y-36414D01*
X39071Y-36385D01*
X39171Y-36157D02*
X39471Y-36157D01*
X39185Y-36157D02*
X39171Y-36128D01*
X39171Y-36071D01*
X39185Y-36042D01*
X39200Y-36028D01*
X39228Y-36014D01*
X39314Y-36014D01*
X39342Y-36028D01*
X39357Y-36042D01*
X39371Y-36071D01*
X39371Y-36128D01*
X39357Y-36157D01*
X39214Y-35785D02*
X39214Y-35885D01*
X39371Y-35885D02*
X39071Y-35885D01*
X39071Y-35742D01*
X58771Y-24321D02*
X58771Y-24564D01*
X58785Y-24592D01*
X58800Y-24607D01*
X58828Y-24621D01*
X58885Y-24621D01*
X58914Y-24607D01*
X58928Y-24592D01*
X58942Y-24564D01*
X58942Y-24321D01*
X59242Y-24621D02*
X59071Y-24621D01*
X59157Y-24621D02*
X59157Y-24321D01*
X59128Y-24364D01*
X59100Y-24392D01*
X59071Y-24407D01*
X59571Y-24028D02*
X59571Y-23828D01*
X59871Y-23957D01*
X59700Y-23671D02*
X59685Y-23700D01*
X59671Y-23714D01*
X59642Y-23728D01*
X59628Y-23728D01*
X59600Y-23714D01*
X59585Y-23700D01*
X59571Y-23671D01*
X59571Y-23614D01*
X59585Y-23585D01*
X59600Y-23571D01*
X59628Y-23557D01*
X59642Y-23557D01*
X59671Y-23571D01*
X59685Y-23585D01*
X59700Y-23614D01*
X59700Y-23671D01*
X59714Y-23700D01*
X59728Y-23714D01*
X59757Y-23728D01*
X59814Y-23728D01*
X59842Y-23714D01*
X59857Y-23700D01*
X59871Y-23671D01*
X59871Y-23614D01*
X59857Y-23585D01*
X59842Y-23571D01*
X59814Y-23557D01*
X59757Y-23557D01*
X59728Y-23571D01*
X59714Y-23585D01*
X59700Y-23614D01*
X59571Y-23371D02*
X59571Y-23342D01*
X59585Y-23314D01*
X59600Y-23300D01*
X59628Y-23285D01*
X59685Y-23271D01*
X59757Y-23271D01*
X59814Y-23285D01*
X59842Y-23300D01*
X59857Y-23314D01*
X59871Y-23342D01*
X59871Y-23371D01*
X59857Y-23400D01*
X59842Y-23414D01*
X59814Y-23428D01*
X59757Y-23442D01*
X59685Y-23442D01*
X59628Y-23428D01*
X59600Y-23414D01*
X59585Y-23400D01*
X59571Y-23371D01*
X59571Y-23000D02*
X59571Y-23142D01*
X59714Y-23157D01*
X59700Y-23142D01*
X59685Y-23114D01*
X59685Y-23042D01*
X59700Y-23014D01*
X59714Y-23000D01*
X59742Y-22985D01*
X59814Y-22985D01*
X59842Y-23000D01*
X59857Y-23014D01*
X59871Y-23042D01*
X59871Y-23114D01*
X59857Y-23142D01*
X59842Y-23157D01*
X36621Y-49471D02*
X36321Y-49471D01*
X36321Y-49400D01*
X36335Y-49357D01*
X36364Y-49328D01*
X36392Y-49314D01*
X36450Y-49300D01*
X36492Y-49300D01*
X36550Y-49314D01*
X36578Y-49328D01*
X36607Y-49357D01*
X36621Y-49400D01*
X36621Y-49471D01*
X36421Y-49042D02*
X36621Y-49042D01*
X36307Y-49114D02*
X36521Y-49185D01*
X36521Y-49000D01*
X46621Y-53864D02*
X46321Y-53864D01*
X46321Y-53792D01*
X46335Y-53750D01*
X46364Y-53721D01*
X46392Y-53707D01*
X46450Y-53692D01*
X46492Y-53692D01*
X46550Y-53707D01*
X46578Y-53721D01*
X46607Y-53750D01*
X46621Y-53792D01*
X46621Y-53864D01*
X46621Y-53407D02*
X46621Y-53578D01*
X46621Y-53492D02*
X46321Y-53492D01*
X46364Y-53521D01*
X46392Y-53550D01*
X46407Y-53578D01*
X46321Y-53221D02*
X46321Y-53192D01*
X46335Y-53164D01*
X46350Y-53150D01*
X46378Y-53135D01*
X46435Y-53121D01*
X46507Y-53121D01*
X46564Y-53135D01*
X46592Y-53150D01*
X46607Y-53164D01*
X46621Y-53192D01*
X46621Y-53221D01*
X46607Y-53250D01*
X46592Y-53264D01*
X46564Y-53278D01*
X46507Y-53292D01*
X46435Y-53292D01*
X46378Y-53278D01*
X46350Y-53264D01*
X46335Y-53250D01*
X46321Y-53221D01*
X41871Y-49471D02*
X41571Y-49471D01*
X41571Y-49400D01*
X41585Y-49357D01*
X41614Y-49328D01*
X41642Y-49314D01*
X41700Y-49300D01*
X41742Y-49300D01*
X41800Y-49314D01*
X41828Y-49328D01*
X41857Y-49357D01*
X41871Y-49400D01*
X41871Y-49471D01*
X41700Y-49128D02*
X41685Y-49157D01*
X41671Y-49171D01*
X41642Y-49185D01*
X41628Y-49185D01*
X41600Y-49171D01*
X41585Y-49157D01*
X41571Y-49128D01*
X41571Y-49071D01*
X41585Y-49042D01*
X41600Y-49028D01*
X41628Y-49014D01*
X41642Y-49014D01*
X41671Y-49028D01*
X41685Y-49042D01*
X41700Y-49071D01*
X41700Y-49128D01*
X41714Y-49157D01*
X41728Y-49171D01*
X41757Y-49185D01*
X41814Y-49185D01*
X41842Y-49171D01*
X41857Y-49157D01*
X41871Y-49128D01*
X41871Y-49071D01*
X41857Y-49042D01*
X41842Y-49028D01*
X41814Y-49014D01*
X41757Y-49014D01*
X41728Y-49028D01*
X41714Y-49042D01*
X41700Y-49071D01*
X43871Y-53721D02*
X43571Y-53721D01*
X43571Y-53650D01*
X43585Y-53607D01*
X43614Y-53578D01*
X43642Y-53564D01*
X43700Y-53550D01*
X43742Y-53550D01*
X43800Y-53564D01*
X43828Y-53578D01*
X43857Y-53607D01*
X43871Y-53650D01*
X43871Y-53721D01*
X43871Y-53407D02*
X43871Y-53350D01*
X43857Y-53321D01*
X43842Y-53307D01*
X43800Y-53278D01*
X43742Y-53264D01*
X43628Y-53264D01*
X43600Y-53278D01*
X43585Y-53292D01*
X43571Y-53321D01*
X43571Y-53378D01*
X43585Y-53407D01*
X43600Y-53421D01*
X43628Y-53435D01*
X43700Y-53435D01*
X43728Y-53421D01*
X43742Y-53407D01*
X43757Y-53378D01*
X43757Y-53321D01*
X43742Y-53292D01*
X43728Y-53278D01*
X43700Y-53264D01*
X44621Y-49471D02*
X44321Y-49471D01*
X44321Y-49400D01*
X44335Y-49357D01*
X44364Y-49328D01*
X44392Y-49314D01*
X44450Y-49300D01*
X44492Y-49300D01*
X44550Y-49314D01*
X44578Y-49328D01*
X44607Y-49357D01*
X44621Y-49400D01*
X44621Y-49471D01*
X44321Y-49200D02*
X44321Y-49000D01*
X44621Y-49128D01*
X31871Y-53721D02*
X31571Y-53721D01*
X31571Y-53650D01*
X31585Y-53607D01*
X31614Y-53578D01*
X31642Y-53564D01*
X31700Y-53550D01*
X31742Y-53550D01*
X31800Y-53564D01*
X31828Y-53578D01*
X31857Y-53607D01*
X31871Y-53650D01*
X31871Y-53721D01*
X31571Y-53292D02*
X31571Y-53350D01*
X31585Y-53378D01*
X31600Y-53392D01*
X31642Y-53421D01*
X31700Y-53435D01*
X31814Y-53435D01*
X31842Y-53421D01*
X31857Y-53407D01*
X31871Y-53378D01*
X31871Y-53321D01*
X31857Y-53292D01*
X31842Y-53278D01*
X31814Y-53264D01*
X31742Y-53264D01*
X31714Y-53278D01*
X31700Y-53292D01*
X31685Y-53321D01*
X31685Y-53378D01*
X31700Y-53407D01*
X31714Y-53421D01*
X31742Y-53435D01*
X34621Y-53721D02*
X34321Y-53721D01*
X34321Y-53650D01*
X34335Y-53607D01*
X34364Y-53578D01*
X34392Y-53564D01*
X34450Y-53550D01*
X34492Y-53550D01*
X34550Y-53564D01*
X34578Y-53578D01*
X34607Y-53607D01*
X34621Y-53650D01*
X34621Y-53721D01*
X34321Y-53278D02*
X34321Y-53421D01*
X34464Y-53435D01*
X34450Y-53421D01*
X34435Y-53392D01*
X34435Y-53321D01*
X34450Y-53292D01*
X34464Y-53278D01*
X34492Y-53264D01*
X34564Y-53264D01*
X34592Y-53278D01*
X34607Y-53292D01*
X34621Y-53321D01*
X34621Y-53392D01*
X34607Y-53421D01*
X34592Y-53435D01*
X33871Y-49721D02*
X33571Y-49721D01*
X33571Y-49650D01*
X33585Y-49607D01*
X33614Y-49578D01*
X33642Y-49564D01*
X33700Y-49550D01*
X33742Y-49550D01*
X33800Y-49564D01*
X33828Y-49578D01*
X33857Y-49607D01*
X33871Y-49650D01*
X33871Y-49721D01*
X33571Y-49450D02*
X33571Y-49264D01*
X33685Y-49364D01*
X33685Y-49321D01*
X33700Y-49292D01*
X33714Y-49278D01*
X33742Y-49264D01*
X33814Y-49264D01*
X33842Y-49278D01*
X33857Y-49292D01*
X33871Y-49321D01*
X33871Y-49407D01*
X33857Y-49435D01*
X33842Y-49450D01*
X46778Y-22621D02*
X46778Y-22321D01*
X46850Y-22321D01*
X46892Y-22335D01*
X46921Y-22364D01*
X46935Y-22392D01*
X46950Y-22450D01*
X46950Y-22492D01*
X46935Y-22550D01*
X46921Y-22578D01*
X46892Y-22607D01*
X46850Y-22621D01*
X46778Y-22621D01*
X47235Y-22621D02*
X47064Y-22621D01*
X47150Y-22621D02*
X47150Y-22321D01*
X47121Y-22364D01*
X47092Y-22392D01*
X47064Y-22407D01*
M02*
