G04 (created by PCBNEW (2013-07-07 BZR 4022)-stable) date Sun 20 Apr 2014 15:26:44 SAST*
%MOIN*%
G04 Gerber Fmt 3.4, Leading zero omitted, Abs format*
%FSLAX34Y34*%
G01*
G70*
G90*
G04 APERTURE LIST*
%ADD10C,0.00590551*%
%ADD11C,0.065*%
%ADD12R,0.065X0.065*%
%ADD13C,0.056*%
%ADD14R,0.1378X0.1378*%
%ADD15C,0.07*%
%ADD16R,0.07X0.07*%
%ADD17C,0.16*%
%ADD18R,0.055X0.055*%
%ADD19C,0.055*%
%ADD20R,0.06X0.0787402*%
%ADD21C,0.145669*%
%ADD22C,0.0511811*%
%ADD23C,0.066*%
G04 APERTURE END LIST*
G54D10*
G54D11*
X50500Y-55000D03*
X50500Y-57000D03*
X53500Y-57000D03*
X53500Y-55000D03*
X55500Y-55000D03*
X55500Y-57000D03*
X58500Y-57000D03*
X58500Y-55000D03*
X30000Y-21000D03*
X28000Y-21000D03*
X28000Y-24000D03*
X30000Y-24000D03*
G54D12*
X26000Y-24000D03*
G54D11*
X26000Y-25000D03*
X26000Y-26000D03*
X26000Y-27000D03*
X26000Y-28000D03*
X26000Y-29000D03*
G54D12*
X50000Y-33500D03*
G54D11*
X50000Y-32500D03*
X50000Y-31500D03*
X50000Y-30500D03*
X50000Y-29500D03*
G54D12*
X32500Y-50000D03*
G54D11*
X32500Y-49000D03*
X32500Y-48000D03*
G54D12*
X32500Y-53000D03*
G54D11*
X32500Y-52000D03*
X32500Y-51000D03*
G54D12*
X47000Y-57000D03*
G54D11*
X46000Y-57000D03*
X45000Y-57000D03*
G54D12*
X36000Y-57000D03*
G54D11*
X37000Y-57000D03*
X38000Y-57000D03*
G54D12*
X50000Y-25500D03*
G54D11*
X50000Y-26500D03*
X50000Y-27500D03*
X54500Y-53500D03*
X50500Y-53500D03*
X59500Y-53500D03*
X55500Y-53500D03*
X41000Y-44500D03*
X42000Y-44500D03*
X55000Y-34000D03*
X56000Y-34000D03*
X41000Y-38500D03*
X42000Y-38500D03*
X41000Y-40500D03*
X42000Y-40500D03*
X41000Y-42500D03*
X42000Y-42500D03*
G54D13*
X41000Y-35500D03*
X41000Y-33500D03*
G54D12*
X40000Y-49500D03*
G54D11*
X40000Y-50500D03*
X40000Y-51500D03*
X40000Y-52500D03*
X40000Y-53500D03*
X40000Y-54500D03*
X40000Y-55500D03*
X40000Y-56500D03*
X43000Y-56500D03*
X43000Y-55500D03*
X43000Y-54500D03*
X43000Y-53500D03*
X43000Y-52500D03*
X43000Y-51500D03*
X43000Y-50500D03*
X43000Y-49500D03*
X27000Y-30500D03*
X29000Y-30500D03*
X28000Y-25000D03*
X30000Y-25000D03*
X47000Y-48500D03*
X47000Y-46500D03*
X31500Y-37500D03*
X31500Y-35500D03*
X59500Y-52500D03*
X57500Y-52500D03*
X54500Y-52500D03*
X52500Y-52500D03*
X38000Y-47500D03*
X36000Y-47500D03*
G54D12*
X48500Y-48500D03*
G54D11*
X48500Y-49500D03*
G54D12*
X43500Y-47500D03*
G54D11*
X43500Y-46500D03*
G54D12*
X52500Y-26000D03*
G54D11*
X52500Y-25000D03*
G54D12*
X57500Y-27500D03*
G54D11*
X57500Y-28500D03*
G54D12*
X55000Y-31500D03*
G54D11*
X55000Y-30500D03*
G54D12*
X55000Y-27500D03*
G54D11*
X55000Y-28500D03*
G54D12*
X52500Y-27500D03*
G54D11*
X52500Y-28500D03*
X44000Y-33500D03*
X43000Y-33500D03*
X44000Y-35500D03*
X43000Y-35500D03*
G54D14*
X57000Y-23941D03*
X57000Y-21579D03*
X55150Y-22760D03*
G54D11*
X26000Y-54500D03*
X26000Y-53500D03*
X26000Y-52500D03*
X26000Y-51500D03*
X26000Y-50500D03*
X26000Y-49500D03*
X26000Y-48500D03*
G54D12*
X26000Y-47500D03*
X26000Y-47500D03*
G54D11*
X26000Y-48500D03*
X26000Y-49500D03*
X26000Y-50500D03*
X26000Y-51500D03*
X26000Y-52500D03*
X26000Y-53500D03*
X26000Y-54500D03*
X27000Y-54500D03*
X27000Y-53500D03*
X27000Y-52500D03*
X27000Y-51500D03*
X27000Y-50500D03*
X27000Y-49500D03*
X27000Y-48500D03*
G54D12*
X27000Y-47500D03*
X25000Y-47500D03*
X27000Y-47500D03*
G54D11*
X25000Y-48500D03*
X27000Y-48500D03*
X25000Y-49500D03*
X27000Y-49500D03*
X25000Y-50500D03*
X27000Y-50500D03*
X25000Y-51500D03*
X27000Y-51500D03*
X25000Y-52500D03*
X27000Y-52500D03*
X25000Y-53500D03*
X27000Y-53500D03*
X25000Y-54500D03*
X27000Y-54500D03*
G54D12*
X51000Y-48500D03*
G54D11*
X52000Y-48500D03*
X53000Y-48500D03*
X54000Y-48500D03*
X55000Y-48500D03*
X56000Y-48500D03*
X57000Y-48500D03*
X58000Y-48500D03*
X59000Y-48500D03*
X60000Y-48500D03*
X61000Y-48500D03*
X62000Y-48500D03*
G54D12*
X51000Y-49500D03*
G54D11*
X52000Y-49500D03*
X53000Y-49500D03*
X54000Y-49500D03*
X55000Y-49500D03*
X56000Y-49500D03*
X57000Y-49500D03*
X58000Y-49500D03*
X59000Y-49500D03*
X60000Y-49500D03*
X61000Y-49500D03*
X62000Y-49500D03*
X47000Y-28500D03*
X47000Y-29500D03*
X47000Y-30500D03*
X47000Y-31500D03*
X47000Y-32500D03*
X47000Y-33500D03*
X47000Y-34500D03*
G54D12*
X47000Y-35500D03*
X47000Y-35500D03*
G54D11*
X47000Y-34500D03*
X47000Y-33500D03*
X47000Y-32500D03*
X47000Y-31500D03*
X47000Y-30500D03*
X47000Y-29500D03*
X47000Y-28500D03*
X46000Y-28500D03*
X46000Y-29500D03*
X46000Y-30500D03*
X46000Y-31500D03*
X46000Y-32500D03*
X46000Y-33500D03*
X46000Y-34500D03*
G54D12*
X46000Y-35500D03*
X48000Y-35500D03*
X46000Y-35500D03*
G54D11*
X48000Y-34500D03*
X46000Y-34500D03*
X48000Y-33500D03*
X46000Y-33500D03*
X48000Y-32500D03*
X46000Y-32500D03*
X48000Y-31500D03*
X46000Y-31500D03*
X48000Y-30500D03*
X46000Y-30500D03*
X48000Y-29500D03*
X46000Y-29500D03*
X48000Y-28500D03*
X46000Y-28500D03*
X47000Y-37500D03*
X47000Y-38500D03*
X47000Y-39500D03*
X47000Y-40500D03*
X47000Y-41500D03*
X47000Y-42500D03*
X47000Y-43500D03*
G54D12*
X47000Y-44500D03*
X47000Y-44500D03*
G54D11*
X47000Y-43500D03*
X47000Y-42500D03*
X47000Y-41500D03*
X47000Y-40500D03*
X47000Y-39500D03*
X47000Y-38500D03*
X47000Y-37500D03*
X46000Y-37500D03*
X46000Y-38500D03*
X46000Y-39500D03*
X46000Y-40500D03*
X46000Y-41500D03*
X46000Y-42500D03*
X46000Y-43500D03*
G54D12*
X46000Y-44500D03*
X48000Y-44500D03*
X46000Y-44500D03*
G54D11*
X48000Y-43500D03*
X46000Y-43500D03*
X48000Y-42500D03*
X46000Y-42500D03*
X48000Y-41500D03*
X46000Y-41500D03*
X48000Y-40500D03*
X46000Y-40500D03*
X48000Y-39500D03*
X46000Y-39500D03*
X48000Y-38500D03*
X46000Y-38500D03*
X48000Y-37500D03*
X46000Y-37500D03*
G54D12*
X26000Y-32500D03*
G54D11*
X26000Y-33500D03*
X26000Y-34500D03*
X26000Y-35500D03*
X26000Y-36500D03*
X26000Y-37500D03*
X27000Y-37500D03*
X27000Y-36500D03*
X27000Y-35500D03*
X27000Y-34500D03*
X27000Y-33500D03*
G54D12*
X27000Y-32500D03*
X25000Y-32500D03*
X27000Y-32500D03*
G54D11*
X25000Y-33500D03*
X27000Y-33500D03*
X25000Y-34500D03*
X27000Y-34500D03*
X25000Y-35500D03*
X27000Y-35500D03*
X25000Y-36500D03*
X27000Y-36500D03*
X25000Y-37500D03*
X27000Y-37500D03*
G54D12*
X26000Y-39500D03*
G54D11*
X26000Y-40500D03*
X26000Y-41500D03*
X26000Y-42500D03*
X26000Y-43500D03*
X26000Y-44500D03*
X27000Y-44500D03*
X27000Y-43500D03*
X27000Y-42500D03*
X27000Y-41500D03*
X27000Y-40500D03*
G54D12*
X27000Y-39500D03*
X25000Y-39500D03*
X27000Y-39500D03*
G54D11*
X25000Y-40500D03*
X27000Y-40500D03*
X25000Y-41500D03*
X27000Y-41500D03*
X25000Y-42500D03*
X27000Y-42500D03*
X25000Y-43500D03*
X27000Y-43500D03*
X25000Y-44500D03*
X27000Y-44500D03*
G54D15*
X60000Y-25500D03*
G54D16*
X60000Y-26500D03*
G54D15*
X60000Y-27500D03*
X38000Y-48500D03*
G54D16*
X38000Y-52500D03*
G54D15*
X48000Y-50500D03*
G54D16*
X48000Y-54500D03*
G54D15*
X45000Y-48500D03*
G54D16*
X45000Y-52500D03*
G54D15*
X47000Y-54500D03*
G54D16*
X47000Y-50500D03*
G54D15*
X46000Y-52500D03*
G54D16*
X46000Y-48500D03*
G54D15*
X35000Y-50500D03*
G54D16*
X35000Y-54500D03*
G54D15*
X36000Y-54500D03*
G54D16*
X36000Y-50500D03*
G54D15*
X37000Y-52500D03*
G54D16*
X37000Y-48500D03*
G54D15*
X54500Y-25500D03*
G54D16*
X58500Y-25500D03*
G54D12*
X44000Y-34500D03*
G54D17*
X26000Y-21500D03*
X61000Y-21500D03*
X26000Y-56500D03*
X61000Y-56500D03*
G54D18*
X32500Y-26500D03*
G54D19*
X32500Y-27500D03*
X32500Y-28500D03*
X32500Y-29500D03*
X32500Y-30500D03*
X32500Y-31500D03*
X32500Y-32500D03*
X32500Y-33500D03*
X32500Y-34500D03*
X32500Y-35500D03*
X32500Y-36500D03*
X32500Y-37500D03*
X32500Y-38500D03*
X32500Y-39500D03*
X32500Y-40500D03*
X32500Y-41500D03*
X32500Y-42500D03*
X32500Y-43500D03*
X32500Y-44500D03*
X32500Y-45500D03*
X38500Y-45500D03*
X38500Y-44500D03*
X38500Y-43500D03*
X38500Y-42500D03*
X38500Y-41500D03*
X38500Y-40500D03*
X38500Y-39500D03*
X38500Y-38500D03*
X38500Y-37500D03*
X38500Y-36500D03*
X38500Y-35500D03*
X38500Y-34500D03*
X38500Y-33500D03*
X38500Y-32500D03*
X38500Y-31500D03*
X38500Y-30500D03*
X38500Y-29500D03*
X38500Y-28500D03*
X38500Y-27500D03*
X38500Y-26500D03*
G54D20*
X33622Y-22023D03*
X34606Y-22023D03*
X35393Y-22023D03*
X36377Y-22023D03*
G54D21*
X37303Y-21000D03*
X32696Y-21000D03*
G54D22*
X35885Y-21000D03*
X34114Y-21000D03*
G54D19*
X43000Y-44500D03*
X43000Y-41500D03*
X44000Y-40500D03*
X44000Y-37500D03*
X43000Y-40500D03*
X43000Y-37500D03*
X44000Y-44500D03*
X44000Y-41500D03*
X29000Y-26000D03*
X29000Y-29000D03*
X30000Y-29000D03*
X30000Y-26000D03*
X28000Y-26000D03*
X28000Y-29000D03*
X57000Y-34000D03*
X60000Y-34000D03*
G54D18*
X40500Y-22500D03*
G54D19*
X40500Y-23500D03*
X40500Y-24500D03*
G54D18*
X39500Y-22500D03*
G54D19*
X39500Y-23500D03*
X39500Y-24500D03*
X54000Y-21500D03*
X51000Y-21500D03*
X54000Y-22500D03*
X51000Y-22500D03*
G54D23*
X50000Y-23500D03*
X49000Y-23500D03*
X50000Y-21500D03*
X49000Y-21500D03*
G54D19*
X46250Y-26500D03*
X44250Y-26500D03*
G54D11*
X57000Y-46500D03*
X57000Y-45500D03*
X57000Y-44500D03*
X57000Y-43500D03*
X57000Y-42500D03*
X57000Y-41500D03*
X57000Y-40500D03*
X57000Y-39500D03*
X57000Y-38500D03*
X57000Y-37500D03*
X57000Y-36500D03*
X57000Y-35500D03*
X58000Y-46500D03*
X58000Y-45500D03*
X58000Y-44500D03*
X58000Y-43500D03*
X58000Y-42500D03*
X58000Y-41500D03*
X58000Y-40500D03*
X58000Y-39500D03*
X58000Y-38500D03*
X58000Y-37500D03*
X58000Y-36500D03*
X58000Y-35500D03*
X62000Y-46500D03*
X62000Y-45500D03*
X62000Y-44500D03*
X62000Y-43500D03*
X62000Y-42500D03*
X62000Y-41500D03*
X62000Y-40500D03*
X62000Y-39500D03*
X62000Y-38500D03*
X62000Y-37500D03*
X62000Y-36500D03*
X62000Y-35500D03*
X59000Y-46500D03*
X59000Y-45500D03*
X59000Y-44500D03*
X59000Y-43500D03*
X59000Y-42500D03*
X59000Y-41500D03*
X59000Y-40500D03*
X59000Y-39500D03*
X59000Y-38500D03*
X59000Y-37500D03*
X59000Y-36500D03*
X59000Y-35500D03*
X60000Y-46500D03*
X60000Y-45500D03*
X60000Y-44500D03*
X60000Y-43500D03*
X60000Y-42500D03*
X60000Y-41500D03*
X60000Y-40500D03*
X60000Y-39500D03*
X60000Y-38500D03*
X60000Y-37500D03*
X60000Y-36500D03*
X60000Y-35500D03*
X61000Y-46500D03*
X61000Y-45500D03*
X61000Y-44500D03*
X61000Y-43500D03*
X61000Y-42500D03*
X61000Y-41500D03*
X61000Y-40500D03*
X61000Y-39500D03*
X61000Y-38500D03*
X61000Y-37500D03*
X61000Y-36500D03*
X61000Y-35500D03*
X51000Y-46500D03*
X51000Y-45500D03*
X51000Y-44500D03*
X51000Y-43500D03*
X51000Y-42500D03*
X51000Y-41500D03*
X51000Y-40500D03*
X51000Y-39500D03*
X51000Y-38500D03*
X51000Y-37500D03*
X51000Y-36500D03*
X51000Y-35500D03*
X52000Y-46500D03*
X52000Y-45500D03*
X52000Y-44500D03*
X52000Y-43500D03*
X52000Y-42500D03*
X52000Y-41500D03*
X52000Y-40500D03*
X52000Y-39500D03*
X52000Y-38500D03*
X52000Y-37500D03*
X52000Y-36500D03*
X52000Y-35500D03*
X56000Y-46500D03*
X56000Y-45500D03*
X56000Y-44500D03*
X56000Y-43500D03*
X56000Y-42500D03*
X56000Y-41500D03*
X56000Y-40500D03*
X56000Y-39500D03*
X56000Y-38500D03*
X56000Y-37500D03*
X56000Y-36500D03*
X56000Y-35500D03*
X54000Y-46500D03*
X54000Y-45500D03*
X54000Y-44500D03*
X54000Y-43500D03*
X54000Y-42500D03*
X54000Y-41500D03*
X54000Y-40500D03*
X54000Y-39500D03*
X54000Y-38500D03*
X54000Y-37500D03*
X54000Y-36500D03*
X54000Y-35500D03*
X55000Y-46500D03*
X55000Y-45500D03*
X55000Y-44500D03*
X55000Y-43500D03*
X55000Y-42500D03*
X55000Y-41500D03*
X55000Y-40500D03*
X55000Y-39500D03*
X55000Y-38500D03*
X55000Y-37500D03*
X55000Y-36500D03*
X55000Y-35500D03*
X53000Y-46500D03*
X53000Y-45500D03*
X53000Y-44500D03*
X53000Y-43500D03*
X53000Y-42500D03*
X53000Y-41500D03*
X53000Y-40500D03*
X53000Y-39500D03*
X53000Y-38500D03*
X53000Y-37500D03*
X53000Y-36500D03*
X53000Y-35500D03*
G54D19*
X41500Y-23500D03*
X44500Y-23500D03*
X41500Y-24500D03*
X44500Y-24500D03*
X43250Y-25500D03*
X44250Y-25500D03*
X43250Y-22500D03*
X44250Y-22500D03*
G54D18*
X51000Y-47500D03*
G54D19*
X52000Y-47500D03*
X53000Y-47500D03*
X54000Y-47500D03*
X55000Y-47500D03*
X56000Y-47500D03*
X57000Y-47500D03*
X58000Y-47500D03*
X59000Y-47500D03*
X60000Y-47500D03*
X61000Y-47500D03*
X62000Y-47500D03*
X32000Y-24000D03*
X35000Y-24000D03*
X41000Y-31500D03*
X43000Y-31500D03*
X32000Y-23000D03*
X34000Y-23000D03*
G54D15*
X60000Y-30500D03*
G54D16*
X60000Y-31500D03*
G54D15*
X60000Y-32500D03*
G54D18*
X57500Y-31500D03*
G54D19*
X57500Y-30500D03*
M02*
