G04 (created by PCBNEW (2013-07-07 BZR 4022)-stable) date 2/12/2014 8:02:26 PM*
%MOIN*%
G04 Gerber Fmt 3.4, Leading zero omitted, Abs format*
%FSLAX34Y34*%
G01*
G70*
G90*
G04 APERTURE LIST*
%ADD10C,0.00590551*%
%ADD11C,0.065*%
%ADD12R,0.065X0.065*%
%ADD13C,0.056*%
%ADD14R,0.1378X0.1378*%
%ADD15C,0.07*%
%ADD16R,0.07X0.07*%
%ADD17C,0.16*%
%ADD18R,0.06X0.0787402*%
%ADD19C,0.145669*%
%ADD20C,0.0511811*%
G04 APERTURE END LIST*
G54D10*
G54D11*
X50500Y-55000D03*
X50500Y-57000D03*
X53500Y-57000D03*
X53500Y-55000D03*
X55500Y-55000D03*
X55500Y-57000D03*
X58500Y-57000D03*
X58500Y-55000D03*
X26000Y-26500D03*
X28000Y-26500D03*
X28000Y-23500D03*
X26000Y-23500D03*
G54D12*
X38500Y-24500D03*
G54D11*
X38500Y-25500D03*
X38500Y-26500D03*
X38500Y-27500D03*
X38500Y-28500D03*
X38500Y-29500D03*
G54D12*
X49500Y-31500D03*
G54D11*
X49500Y-30500D03*
X49500Y-29500D03*
X49500Y-28500D03*
X49500Y-27500D03*
G54D12*
X34500Y-47000D03*
G54D11*
X33500Y-47000D03*
X32500Y-47000D03*
G54D12*
X45500Y-47000D03*
G54D11*
X44500Y-47000D03*
X43500Y-47000D03*
G54D12*
X44500Y-57000D03*
G54D11*
X43500Y-57000D03*
X42500Y-57000D03*
G54D12*
X33500Y-57000D03*
G54D11*
X34500Y-57000D03*
X35500Y-57000D03*
G54D12*
X48000Y-25500D03*
G54D11*
X48000Y-26500D03*
X48000Y-27500D03*
X44000Y-43500D03*
X44000Y-39500D03*
X38000Y-43500D03*
X38000Y-39500D03*
X54500Y-53500D03*
X50500Y-53500D03*
X59500Y-53500D03*
X55500Y-53500D03*
X30000Y-31500D03*
X30000Y-27500D03*
X26000Y-31500D03*
X26000Y-27500D03*
X28000Y-31500D03*
X28000Y-27500D03*
X57500Y-26000D03*
X61500Y-26000D03*
X40000Y-43500D03*
X40000Y-39500D03*
X42000Y-43500D03*
X42000Y-39500D03*
X44000Y-45500D03*
X44000Y-44500D03*
X55500Y-26000D03*
X56500Y-26000D03*
X38000Y-45500D03*
X38000Y-44500D03*
X40000Y-45500D03*
X40000Y-44500D03*
X42000Y-45500D03*
X42000Y-44500D03*
G54D13*
X37500Y-36500D03*
X37500Y-34500D03*
G54D12*
X32000Y-25500D03*
G54D11*
X32000Y-26500D03*
X32000Y-27500D03*
X32000Y-28500D03*
X32000Y-29500D03*
X32000Y-30500D03*
X32000Y-31500D03*
X32000Y-32500D03*
X32000Y-33500D03*
X32000Y-34500D03*
X32000Y-35500D03*
X32000Y-36500D03*
X32000Y-37500D03*
X32000Y-38500D03*
X32000Y-39500D03*
X32000Y-40500D03*
X32000Y-41500D03*
X32000Y-42500D03*
X32000Y-43500D03*
X32000Y-44500D03*
X35000Y-44500D03*
X35000Y-43500D03*
X35000Y-42500D03*
X35000Y-41500D03*
X35000Y-40500D03*
X35000Y-39500D03*
X35000Y-38500D03*
X35000Y-37500D03*
X35000Y-36500D03*
X35000Y-35500D03*
X35000Y-34500D03*
X35000Y-33500D03*
X35000Y-32500D03*
X35000Y-31500D03*
X35000Y-30500D03*
X35000Y-29500D03*
X35000Y-28500D03*
X35000Y-27500D03*
X35000Y-26500D03*
X35000Y-25500D03*
G54D12*
X37500Y-49500D03*
G54D11*
X37500Y-50500D03*
X37500Y-51500D03*
X37500Y-52500D03*
X37500Y-53500D03*
X37500Y-54500D03*
X37500Y-55500D03*
X37500Y-56500D03*
X40500Y-56500D03*
X40500Y-55500D03*
X40500Y-54500D03*
X40500Y-53500D03*
X40500Y-52500D03*
X40500Y-51500D03*
X40500Y-50500D03*
X40500Y-49500D03*
X36500Y-30500D03*
X36500Y-32500D03*
X31000Y-42500D03*
X31000Y-44500D03*
X30000Y-26500D03*
X30000Y-24500D03*
X48000Y-50200D03*
X48000Y-52200D03*
X30500Y-36500D03*
X30500Y-34500D03*
X57500Y-51500D03*
X55500Y-51500D03*
X52500Y-51500D03*
X50500Y-51500D03*
X56500Y-21500D03*
X56500Y-23500D03*
G54D12*
X48000Y-47750D03*
G54D11*
X48000Y-48750D03*
G54D12*
X30750Y-51500D03*
G54D11*
X30750Y-50500D03*
G54D12*
X48000Y-24000D03*
G54D11*
X48000Y-23000D03*
G54D12*
X52000Y-21500D03*
G54D11*
X52000Y-22500D03*
G54D12*
X46000Y-24000D03*
G54D11*
X46000Y-23000D03*
G54D12*
X52000Y-24500D03*
G54D11*
X52000Y-23500D03*
G54D12*
X54500Y-24500D03*
G54D11*
X54500Y-23500D03*
X40000Y-33500D03*
X40000Y-34500D03*
X40000Y-37500D03*
X40000Y-36500D03*
G54D14*
X42250Y-23691D03*
X42250Y-21329D03*
X40400Y-22510D03*
G54D11*
X26000Y-54500D03*
X26000Y-53500D03*
X26000Y-52500D03*
X26000Y-51500D03*
X26000Y-50500D03*
X26000Y-49500D03*
X26000Y-48500D03*
G54D12*
X26000Y-47500D03*
X26000Y-47500D03*
G54D11*
X26000Y-48500D03*
X26000Y-49500D03*
X26000Y-50500D03*
X26000Y-51500D03*
X26000Y-52500D03*
X26000Y-53500D03*
X26000Y-54500D03*
X27000Y-54500D03*
X27000Y-53500D03*
X27000Y-52500D03*
X27000Y-51500D03*
X27000Y-50500D03*
X27000Y-49500D03*
X27000Y-48500D03*
G54D12*
X27000Y-47500D03*
X25000Y-47500D03*
X27000Y-47500D03*
G54D11*
X25000Y-48500D03*
X27000Y-48500D03*
X25000Y-49500D03*
X27000Y-49500D03*
X25000Y-50500D03*
X27000Y-50500D03*
X25000Y-51500D03*
X27000Y-51500D03*
X25000Y-52500D03*
X27000Y-52500D03*
X25000Y-53500D03*
X27000Y-53500D03*
X25000Y-54500D03*
X27000Y-54500D03*
X56500Y-46500D03*
X56500Y-45500D03*
X56500Y-44500D03*
X56500Y-43500D03*
X56500Y-42500D03*
X56500Y-41500D03*
X56500Y-40500D03*
X56500Y-39500D03*
X56500Y-38500D03*
X56500Y-37500D03*
X56500Y-36500D03*
X56500Y-35500D03*
X56500Y-34500D03*
X56500Y-33500D03*
X56500Y-32500D03*
X56500Y-31500D03*
X56500Y-30500D03*
X56500Y-29500D03*
X56500Y-28500D03*
X56500Y-27500D03*
X57500Y-46500D03*
X57500Y-45500D03*
X57500Y-44500D03*
X57500Y-43500D03*
X57500Y-42500D03*
X57500Y-41500D03*
X57500Y-40500D03*
X57500Y-39500D03*
X57500Y-38500D03*
X57500Y-37500D03*
X57500Y-36500D03*
X57500Y-35500D03*
X57500Y-34500D03*
X57500Y-33500D03*
X57500Y-32500D03*
X57500Y-31500D03*
X57500Y-30500D03*
X57500Y-29500D03*
X57500Y-28500D03*
X57500Y-27500D03*
X61500Y-46500D03*
X61500Y-45500D03*
X61500Y-44500D03*
X61500Y-43500D03*
X61500Y-42500D03*
X61500Y-41500D03*
X61500Y-40500D03*
X61500Y-39500D03*
X61500Y-38500D03*
X61500Y-37500D03*
X61500Y-36500D03*
X61500Y-35500D03*
X61500Y-34500D03*
X61500Y-33500D03*
X61500Y-32500D03*
X61500Y-31500D03*
X61500Y-30500D03*
X61500Y-29500D03*
X61500Y-28500D03*
X61500Y-27500D03*
X58500Y-46500D03*
X58500Y-45500D03*
X58500Y-44500D03*
X58500Y-43500D03*
X58500Y-42500D03*
X58500Y-41500D03*
X58500Y-40500D03*
X58500Y-39500D03*
X58500Y-38500D03*
X58500Y-37500D03*
X58500Y-36500D03*
X58500Y-35500D03*
X58500Y-34500D03*
X58500Y-33500D03*
X58500Y-32500D03*
X58500Y-31500D03*
X58500Y-30500D03*
X58500Y-29500D03*
X58500Y-28500D03*
X58500Y-27500D03*
X59500Y-46500D03*
X59500Y-45500D03*
X59500Y-44500D03*
X59500Y-43500D03*
X59500Y-42500D03*
X59500Y-41500D03*
X59500Y-40500D03*
X59500Y-39500D03*
X59500Y-38500D03*
X59500Y-37500D03*
X59500Y-36500D03*
X59500Y-35500D03*
X59500Y-34500D03*
X59500Y-33500D03*
X59500Y-32500D03*
X59500Y-31500D03*
X59500Y-30500D03*
X59500Y-29500D03*
X59500Y-28500D03*
X59500Y-27500D03*
X60500Y-46500D03*
X60500Y-45500D03*
X60500Y-44500D03*
X60500Y-43500D03*
X60500Y-42500D03*
X60500Y-41500D03*
X60500Y-40500D03*
X60500Y-39500D03*
X60500Y-38500D03*
X60500Y-37500D03*
X60500Y-36500D03*
X60500Y-35500D03*
X60500Y-34500D03*
X60500Y-33500D03*
X60500Y-32500D03*
X60500Y-31500D03*
X60500Y-30500D03*
X60500Y-29500D03*
X60500Y-28500D03*
X60500Y-27500D03*
G54D12*
X50500Y-48000D03*
G54D11*
X51500Y-48000D03*
X52500Y-48000D03*
X53500Y-48000D03*
X54500Y-48000D03*
X55500Y-48000D03*
X56500Y-48000D03*
X57500Y-48000D03*
X58500Y-48000D03*
X59500Y-48000D03*
X60500Y-48000D03*
X61500Y-48000D03*
X50500Y-46500D03*
X50500Y-45500D03*
X50500Y-44500D03*
X50500Y-43500D03*
X50500Y-42500D03*
X50500Y-41500D03*
X50500Y-40500D03*
X50500Y-39500D03*
X50500Y-38500D03*
X50500Y-37500D03*
X50500Y-36500D03*
X50500Y-35500D03*
X50500Y-34500D03*
X50500Y-33500D03*
X50500Y-32500D03*
X50500Y-31500D03*
X50500Y-30500D03*
X50500Y-29500D03*
X50500Y-28500D03*
X50500Y-27500D03*
X51500Y-46500D03*
X51500Y-45500D03*
X51500Y-44500D03*
X51500Y-43500D03*
X51500Y-42500D03*
X51500Y-41500D03*
X51500Y-40500D03*
X51500Y-39500D03*
X51500Y-38500D03*
X51500Y-37500D03*
X51500Y-36500D03*
X51500Y-35500D03*
X51500Y-34500D03*
X51500Y-33500D03*
X51500Y-32500D03*
X51500Y-31500D03*
X51500Y-30500D03*
X51500Y-29500D03*
X51500Y-28500D03*
X51500Y-27500D03*
X55500Y-46500D03*
X55500Y-45500D03*
X55500Y-44500D03*
X55500Y-43500D03*
X55500Y-42500D03*
X55500Y-41500D03*
X55500Y-40500D03*
X55500Y-39500D03*
X55500Y-38500D03*
X55500Y-37500D03*
X55500Y-36500D03*
X55500Y-35500D03*
X55500Y-34500D03*
X55500Y-33500D03*
X55500Y-32500D03*
X55500Y-31500D03*
X55500Y-30500D03*
X55500Y-29500D03*
X55500Y-28500D03*
X55500Y-27500D03*
X53500Y-46500D03*
X53500Y-45500D03*
X53500Y-44500D03*
X53500Y-43500D03*
X53500Y-42500D03*
X53500Y-41500D03*
X53500Y-40500D03*
X53500Y-39500D03*
X53500Y-38500D03*
X53500Y-37500D03*
X53500Y-36500D03*
X53500Y-35500D03*
X53500Y-34500D03*
X53500Y-33500D03*
X53500Y-32500D03*
X53500Y-31500D03*
X53500Y-30500D03*
X53500Y-29500D03*
X53500Y-28500D03*
X53500Y-27500D03*
X54500Y-46500D03*
X54500Y-45500D03*
X54500Y-44500D03*
X54500Y-43500D03*
X54500Y-42500D03*
X54500Y-41500D03*
X54500Y-40500D03*
X54500Y-39500D03*
X54500Y-38500D03*
X54500Y-37500D03*
X54500Y-36500D03*
X54500Y-35500D03*
X54500Y-34500D03*
X54500Y-33500D03*
X54500Y-32500D03*
X54500Y-31500D03*
X54500Y-30500D03*
X54500Y-29500D03*
X54500Y-28500D03*
X54500Y-27500D03*
G54D12*
X50500Y-49000D03*
G54D11*
X51500Y-49000D03*
X52500Y-49000D03*
X53500Y-49000D03*
X54500Y-49000D03*
X55500Y-49000D03*
X56500Y-49000D03*
X57500Y-49000D03*
X58500Y-49000D03*
X59500Y-49000D03*
X60500Y-49000D03*
X61500Y-49000D03*
X47000Y-29000D03*
X47000Y-30000D03*
X47000Y-31000D03*
X47000Y-32000D03*
X47000Y-33000D03*
X47000Y-34000D03*
X47000Y-35000D03*
G54D12*
X47000Y-36000D03*
X47000Y-36000D03*
G54D11*
X47000Y-35000D03*
X47000Y-34000D03*
X47000Y-33000D03*
X47000Y-32000D03*
X47000Y-31000D03*
X47000Y-30000D03*
X47000Y-29000D03*
X46000Y-29000D03*
X46000Y-30000D03*
X46000Y-31000D03*
X46000Y-32000D03*
X46000Y-33000D03*
X46000Y-34000D03*
X46000Y-35000D03*
G54D12*
X46000Y-36000D03*
X48000Y-36000D03*
X46000Y-36000D03*
G54D11*
X48000Y-35000D03*
X46000Y-35000D03*
X48000Y-34000D03*
X46000Y-34000D03*
X48000Y-33000D03*
X46000Y-33000D03*
X48000Y-32000D03*
X46000Y-32000D03*
X48000Y-31000D03*
X46000Y-31000D03*
X48000Y-30000D03*
X46000Y-30000D03*
X48000Y-29000D03*
X46000Y-29000D03*
X47000Y-37500D03*
X47000Y-38500D03*
X47000Y-39500D03*
X47000Y-40500D03*
X47000Y-41500D03*
X47000Y-42500D03*
X47000Y-43500D03*
G54D12*
X47000Y-44500D03*
X47000Y-44500D03*
G54D11*
X47000Y-43500D03*
X47000Y-42500D03*
X47000Y-41500D03*
X47000Y-40500D03*
X47000Y-39500D03*
X47000Y-38500D03*
X47000Y-37500D03*
X46000Y-37500D03*
X46000Y-38500D03*
X46000Y-39500D03*
X46000Y-40500D03*
X46000Y-41500D03*
X46000Y-42500D03*
X46000Y-43500D03*
G54D12*
X46000Y-44500D03*
X48000Y-44500D03*
X46000Y-44500D03*
G54D11*
X48000Y-43500D03*
X46000Y-43500D03*
X48000Y-42500D03*
X46000Y-42500D03*
X48000Y-41500D03*
X46000Y-41500D03*
X48000Y-40500D03*
X46000Y-40500D03*
X48000Y-39500D03*
X46000Y-39500D03*
X48000Y-38500D03*
X46000Y-38500D03*
X48000Y-37500D03*
X46000Y-37500D03*
G54D12*
X26000Y-32500D03*
G54D11*
X26000Y-33500D03*
X26000Y-34500D03*
X26000Y-35500D03*
X26000Y-36500D03*
X26000Y-37500D03*
X27000Y-37500D03*
X27000Y-36500D03*
X27000Y-35500D03*
X27000Y-34500D03*
X27000Y-33500D03*
G54D12*
X27000Y-32500D03*
X25000Y-32500D03*
X27000Y-32500D03*
G54D11*
X25000Y-33500D03*
X27000Y-33500D03*
X25000Y-34500D03*
X27000Y-34500D03*
X25000Y-35500D03*
X27000Y-35500D03*
X25000Y-36500D03*
X27000Y-36500D03*
X25000Y-37500D03*
X27000Y-37500D03*
G54D12*
X26000Y-39500D03*
G54D11*
X26000Y-40500D03*
X26000Y-41500D03*
X26000Y-42500D03*
X26000Y-43500D03*
X26000Y-44500D03*
X27000Y-44500D03*
X27000Y-43500D03*
X27000Y-42500D03*
X27000Y-41500D03*
X27000Y-40500D03*
G54D12*
X27000Y-39500D03*
X25000Y-39500D03*
X27000Y-39500D03*
G54D11*
X25000Y-40500D03*
X27000Y-40500D03*
X25000Y-41500D03*
X27000Y-41500D03*
X25000Y-42500D03*
X27000Y-42500D03*
X25000Y-43500D03*
X27000Y-43500D03*
X25000Y-44500D03*
X27000Y-44500D03*
X52500Y-46500D03*
X52500Y-45500D03*
X52500Y-44500D03*
X52500Y-43500D03*
X52500Y-42500D03*
X52500Y-41500D03*
X52500Y-40500D03*
X52500Y-39500D03*
X52500Y-38500D03*
X52500Y-37500D03*
X52500Y-36500D03*
X52500Y-35500D03*
X52500Y-34500D03*
X52500Y-33500D03*
X52500Y-32500D03*
X52500Y-31500D03*
X52500Y-30500D03*
X52500Y-29500D03*
X52500Y-28500D03*
X52500Y-27500D03*
G54D15*
X58500Y-21500D03*
G54D16*
X58500Y-22500D03*
G54D15*
X58500Y-23500D03*
X35500Y-48500D03*
G54D16*
X35500Y-52500D03*
G54D15*
X45500Y-50500D03*
G54D16*
X45500Y-54500D03*
G54D15*
X42500Y-48500D03*
G54D16*
X42500Y-52500D03*
G54D15*
X44500Y-54500D03*
G54D16*
X44500Y-50500D03*
G54D15*
X43500Y-52500D03*
G54D16*
X43500Y-48500D03*
G54D15*
X32500Y-50500D03*
G54D16*
X32500Y-54500D03*
G54D15*
X33500Y-54500D03*
G54D16*
X33500Y-50500D03*
G54D15*
X34500Y-52500D03*
G54D16*
X34500Y-48500D03*
G54D15*
X46000Y-21500D03*
G54D16*
X50000Y-21500D03*
G54D17*
X26000Y-21500D03*
X26000Y-56500D03*
X61000Y-56500D03*
X61000Y-21500D03*
G54D18*
X34877Y-22023D03*
X33893Y-22023D03*
X33106Y-22023D03*
X32122Y-22023D03*
G54D19*
X35803Y-21000D03*
X31196Y-21000D03*
G54D20*
X34385Y-21000D03*
X32614Y-21000D03*
G54D12*
X37000Y-39000D03*
M02*
