G04 (created by PCBNEW (2013-07-07 BZR 4022)-stable) date 4/18/2014 6:42:31 PM*
%MOIN*%
G04 Gerber Fmt 3.4, Leading zero omitted, Abs format*
%FSLAX34Y34*%
G01*
G70*
G90*
G04 APERTURE LIST*
%ADD10C,0.00590551*%
%ADD11C,0.006*%
%ADD12C,0.011811*%
%ADD13C,0.00787402*%
%ADD14C,0.012*%
%ADD15C,0.01*%
%ADD16C,0.0125*%
%ADD17C,0.015*%
%ADD18C,0.005*%
%ADD19C,0.0001*%
%ADD20C,0.008*%
%ADD21C,0.0075*%
G04 APERTURE END LIST*
G54D10*
G54D11*
X29371Y-53678D02*
X29071Y-53678D01*
X29371Y-53550D02*
X29214Y-53550D01*
X29185Y-53564D01*
X29171Y-53592D01*
X29171Y-53635D01*
X29185Y-53664D01*
X29200Y-53678D01*
X29171Y-53450D02*
X29171Y-53335D01*
X29071Y-53407D02*
X29328Y-53407D01*
X29357Y-53392D01*
X29371Y-53364D01*
X29371Y-53335D01*
X29171Y-53278D02*
X29171Y-53164D01*
X29071Y-53235D02*
X29328Y-53235D01*
X29357Y-53221D01*
X29371Y-53192D01*
X29371Y-53164D01*
X29171Y-53064D02*
X29471Y-53064D01*
X29185Y-53064D02*
X29171Y-53035D01*
X29171Y-52978D01*
X29185Y-52949D01*
X29200Y-52935D01*
X29228Y-52921D01*
X29314Y-52921D01*
X29342Y-52935D01*
X29357Y-52949D01*
X29371Y-52978D01*
X29371Y-53035D01*
X29357Y-53064D01*
X29357Y-52807D02*
X29371Y-52778D01*
X29371Y-52721D01*
X29357Y-52692D01*
X29328Y-52678D01*
X29314Y-52678D01*
X29285Y-52692D01*
X29271Y-52721D01*
X29271Y-52764D01*
X29257Y-52792D01*
X29228Y-52807D01*
X29214Y-52807D01*
X29185Y-52792D01*
X29171Y-52764D01*
X29171Y-52721D01*
X29185Y-52692D01*
X29342Y-52549D02*
X29357Y-52535D01*
X29371Y-52549D01*
X29357Y-52564D01*
X29342Y-52549D01*
X29371Y-52549D01*
X29185Y-52549D02*
X29200Y-52535D01*
X29214Y-52549D01*
X29200Y-52564D01*
X29185Y-52549D01*
X29214Y-52549D01*
X29057Y-52192D02*
X29442Y-52449D01*
X29057Y-51878D02*
X29442Y-52135D01*
X29171Y-51649D02*
X29414Y-51649D01*
X29442Y-51664D01*
X29457Y-51678D01*
X29471Y-51707D01*
X29471Y-51749D01*
X29457Y-51778D01*
X29357Y-51649D02*
X29371Y-51678D01*
X29371Y-51735D01*
X29357Y-51764D01*
X29342Y-51778D01*
X29314Y-51792D01*
X29228Y-51792D01*
X29200Y-51778D01*
X29185Y-51764D01*
X29171Y-51735D01*
X29171Y-51678D01*
X29185Y-51649D01*
X29371Y-51507D02*
X29171Y-51507D01*
X29071Y-51507D02*
X29085Y-51521D01*
X29100Y-51507D01*
X29085Y-51492D01*
X29071Y-51507D01*
X29100Y-51507D01*
X29171Y-51407D02*
X29171Y-51292D01*
X29071Y-51364D02*
X29328Y-51364D01*
X29357Y-51349D01*
X29371Y-51321D01*
X29371Y-51292D01*
X29371Y-51192D02*
X29071Y-51192D01*
X29371Y-51064D02*
X29214Y-51064D01*
X29185Y-51078D01*
X29171Y-51107D01*
X29171Y-51149D01*
X29185Y-51178D01*
X29200Y-51192D01*
X29171Y-50792D02*
X29371Y-50792D01*
X29171Y-50921D02*
X29328Y-50921D01*
X29357Y-50907D01*
X29371Y-50878D01*
X29371Y-50835D01*
X29357Y-50807D01*
X29342Y-50792D01*
X29371Y-50649D02*
X29071Y-50649D01*
X29185Y-50649D02*
X29171Y-50621D01*
X29171Y-50564D01*
X29185Y-50535D01*
X29200Y-50521D01*
X29228Y-50507D01*
X29314Y-50507D01*
X29342Y-50521D01*
X29357Y-50535D01*
X29371Y-50564D01*
X29371Y-50621D01*
X29357Y-50649D01*
X29342Y-50378D02*
X29357Y-50364D01*
X29371Y-50378D01*
X29357Y-50392D01*
X29342Y-50378D01*
X29371Y-50378D01*
X29357Y-50107D02*
X29371Y-50135D01*
X29371Y-50192D01*
X29357Y-50221D01*
X29342Y-50235D01*
X29314Y-50249D01*
X29228Y-50249D01*
X29200Y-50235D01*
X29185Y-50221D01*
X29171Y-50192D01*
X29171Y-50135D01*
X29185Y-50107D01*
X29371Y-49935D02*
X29357Y-49964D01*
X29342Y-49978D01*
X29314Y-49992D01*
X29228Y-49992D01*
X29200Y-49978D01*
X29185Y-49964D01*
X29171Y-49935D01*
X29171Y-49892D01*
X29185Y-49864D01*
X29200Y-49849D01*
X29228Y-49835D01*
X29314Y-49835D01*
X29342Y-49849D01*
X29357Y-49864D01*
X29371Y-49892D01*
X29371Y-49935D01*
X29371Y-49707D02*
X29171Y-49707D01*
X29200Y-49707D02*
X29185Y-49692D01*
X29171Y-49664D01*
X29171Y-49621D01*
X29185Y-49592D01*
X29214Y-49578D01*
X29371Y-49578D01*
X29214Y-49578D02*
X29185Y-49564D01*
X29171Y-49535D01*
X29171Y-49492D01*
X29185Y-49464D01*
X29214Y-49449D01*
X29371Y-49449D01*
X29057Y-49092D02*
X29442Y-49349D01*
X29371Y-48992D02*
X29071Y-48992D01*
X29371Y-48821D02*
X29200Y-48949D01*
X29071Y-48821D02*
X29242Y-48992D01*
X29371Y-48649D02*
X29357Y-48678D01*
X29342Y-48692D01*
X29314Y-48707D01*
X29228Y-48707D01*
X29200Y-48692D01*
X29185Y-48678D01*
X29171Y-48649D01*
X29171Y-48607D01*
X29185Y-48578D01*
X29200Y-48564D01*
X29228Y-48549D01*
X29314Y-48549D01*
X29342Y-48564D01*
X29357Y-48578D01*
X29371Y-48607D01*
X29371Y-48649D01*
X29371Y-48378D02*
X29357Y-48407D01*
X29328Y-48421D01*
X29071Y-48421D01*
X29371Y-48264D02*
X29171Y-48264D01*
X29071Y-48264D02*
X29085Y-48278D01*
X29100Y-48264D01*
X29085Y-48249D01*
X29071Y-48264D01*
X29100Y-48264D01*
X29171Y-48121D02*
X29428Y-48121D01*
X29457Y-48135D01*
X29471Y-48164D01*
X29471Y-48178D01*
X29071Y-48121D02*
X29085Y-48135D01*
X29100Y-48121D01*
X29085Y-48107D01*
X29071Y-48121D01*
X29100Y-48121D01*
X29171Y-47978D02*
X29371Y-47978D01*
X29200Y-47978D02*
X29185Y-47964D01*
X29171Y-47935D01*
X29171Y-47892D01*
X29185Y-47864D01*
X29214Y-47849D01*
X29371Y-47849D01*
X29071Y-47735D02*
X29371Y-47664D01*
X29157Y-47607D01*
X29371Y-47549D01*
X29071Y-47478D01*
X29371Y-47321D02*
X29357Y-47349D01*
X29342Y-47364D01*
X29314Y-47378D01*
X29228Y-47378D01*
X29200Y-47364D01*
X29185Y-47349D01*
X29171Y-47321D01*
X29171Y-47278D01*
X29185Y-47249D01*
X29200Y-47235D01*
X29228Y-47221D01*
X29314Y-47221D01*
X29342Y-47235D01*
X29357Y-47249D01*
X29371Y-47278D01*
X29371Y-47321D01*
X29371Y-47049D02*
X29357Y-47078D01*
X29328Y-47092D01*
X29071Y-47092D01*
X29171Y-46978D02*
X29171Y-46864D01*
X29371Y-46935D02*
X29114Y-46935D01*
X29085Y-46921D01*
X29071Y-46892D01*
X29071Y-46864D01*
X29371Y-46635D02*
X29214Y-46635D01*
X29185Y-46649D01*
X29171Y-46678D01*
X29171Y-46735D01*
X29185Y-46764D01*
X29357Y-46635D02*
X29371Y-46664D01*
X29371Y-46735D01*
X29357Y-46764D01*
X29328Y-46778D01*
X29300Y-46778D01*
X29271Y-46764D01*
X29257Y-46735D01*
X29257Y-46664D01*
X29242Y-46635D01*
X29371Y-46364D02*
X29214Y-46364D01*
X29185Y-46378D01*
X29171Y-46407D01*
X29171Y-46464D01*
X29185Y-46492D01*
X29357Y-46364D02*
X29371Y-46392D01*
X29371Y-46464D01*
X29357Y-46492D01*
X29328Y-46507D01*
X29300Y-46507D01*
X29271Y-46492D01*
X29257Y-46464D01*
X29257Y-46392D01*
X29242Y-46364D01*
X29371Y-46221D02*
X29171Y-46221D01*
X29228Y-46221D02*
X29200Y-46207D01*
X29185Y-46192D01*
X29171Y-46164D01*
X29171Y-46135D01*
X29371Y-45907D02*
X29071Y-45907D01*
X29357Y-45907D02*
X29371Y-45935D01*
X29371Y-45992D01*
X29357Y-46021D01*
X29342Y-46035D01*
X29314Y-46049D01*
X29228Y-46049D01*
X29200Y-46035D01*
X29185Y-46021D01*
X29171Y-45992D01*
X29171Y-45935D01*
X29185Y-45907D01*
X29171Y-45807D02*
X29171Y-45692D01*
X29071Y-45764D02*
X29328Y-45764D01*
X29357Y-45749D01*
X29371Y-45721D01*
X29371Y-45692D01*
X29057Y-45378D02*
X29442Y-45635D01*
X29357Y-45292D02*
X29371Y-45249D01*
X29371Y-45178D01*
X29357Y-45149D01*
X29342Y-45135D01*
X29314Y-45121D01*
X29285Y-45121D01*
X29257Y-45135D01*
X29242Y-45149D01*
X29228Y-45178D01*
X29214Y-45235D01*
X29200Y-45264D01*
X29185Y-45278D01*
X29157Y-45292D01*
X29128Y-45292D01*
X29100Y-45278D01*
X29085Y-45264D01*
X29071Y-45235D01*
X29071Y-45164D01*
X29085Y-45121D01*
X29371Y-44821D02*
X29228Y-44921D01*
X29371Y-44992D02*
X29071Y-44992D01*
X29071Y-44878D01*
X29085Y-44849D01*
X29100Y-44835D01*
X29128Y-44821D01*
X29171Y-44821D01*
X29200Y-44835D01*
X29214Y-44849D01*
X29228Y-44878D01*
X29228Y-44992D01*
X29214Y-44692D02*
X29214Y-44592D01*
X29371Y-44549D02*
X29371Y-44692D01*
X29071Y-44692D01*
X29071Y-44549D01*
X29214Y-44321D02*
X29228Y-44278D01*
X29242Y-44264D01*
X29271Y-44249D01*
X29314Y-44249D01*
X29342Y-44264D01*
X29357Y-44278D01*
X29371Y-44307D01*
X29371Y-44421D01*
X29071Y-44421D01*
X29071Y-44321D01*
X29085Y-44292D01*
X29100Y-44278D01*
X29128Y-44264D01*
X29157Y-44264D01*
X29185Y-44278D01*
X29200Y-44292D01*
X29214Y-44321D01*
X29214Y-44421D01*
G54D12*
X38112Y-25210D02*
X38196Y-25239D01*
X38337Y-25239D01*
X38393Y-25210D01*
X38421Y-25182D01*
X38449Y-25126D01*
X38449Y-25070D01*
X38421Y-25014D01*
X38393Y-24985D01*
X38337Y-24957D01*
X38224Y-24929D01*
X38168Y-24901D01*
X38140Y-24873D01*
X38112Y-24817D01*
X38112Y-24760D01*
X38140Y-24704D01*
X38168Y-24676D01*
X38224Y-24648D01*
X38365Y-24648D01*
X38449Y-24676D01*
X38618Y-24845D02*
X38843Y-24845D01*
X38703Y-24648D02*
X38703Y-25154D01*
X38731Y-25210D01*
X38787Y-25239D01*
X38843Y-25239D01*
X39265Y-25210D02*
X39209Y-25239D01*
X39096Y-25239D01*
X39040Y-25210D01*
X39012Y-25154D01*
X39012Y-24929D01*
X39040Y-24873D01*
X39096Y-24845D01*
X39209Y-24845D01*
X39265Y-24873D01*
X39293Y-24929D01*
X39293Y-24985D01*
X39012Y-25042D01*
X39631Y-25239D02*
X39574Y-25210D01*
X39546Y-25154D01*
X39546Y-24648D01*
X39940Y-25239D02*
X39884Y-25210D01*
X39856Y-25154D01*
X39856Y-24648D01*
X40390Y-25210D02*
X40334Y-25239D01*
X40221Y-25239D01*
X40165Y-25210D01*
X40137Y-25154D01*
X40137Y-24929D01*
X40165Y-24873D01*
X40221Y-24845D01*
X40334Y-24845D01*
X40390Y-24873D01*
X40418Y-24929D01*
X40418Y-24985D01*
X40137Y-25042D01*
X40671Y-24845D02*
X40671Y-25239D01*
X40671Y-24901D02*
X40699Y-24873D01*
X40755Y-24845D01*
X40840Y-24845D01*
X40896Y-24873D01*
X40924Y-24929D01*
X40924Y-25239D01*
X41205Y-25239D02*
X41205Y-24648D01*
X41205Y-24873D02*
X41262Y-24845D01*
X41374Y-24845D01*
X41430Y-24873D01*
X41458Y-24901D01*
X41487Y-24957D01*
X41487Y-25126D01*
X41458Y-25182D01*
X41430Y-25210D01*
X41374Y-25239D01*
X41262Y-25239D01*
X41205Y-25210D01*
X41824Y-25239D02*
X41768Y-25210D01*
X41740Y-25182D01*
X41712Y-25126D01*
X41712Y-24957D01*
X41740Y-24901D01*
X41768Y-24873D01*
X41824Y-24845D01*
X41908Y-24845D01*
X41965Y-24873D01*
X41993Y-24901D01*
X42021Y-24957D01*
X42021Y-25126D01*
X41993Y-25182D01*
X41965Y-25210D01*
X41908Y-25239D01*
X41824Y-25239D01*
X42246Y-25210D02*
X42302Y-25239D01*
X42415Y-25239D01*
X42471Y-25210D01*
X42499Y-25154D01*
X42499Y-25126D01*
X42471Y-25070D01*
X42415Y-25042D01*
X42330Y-25042D01*
X42274Y-25014D01*
X42246Y-24957D01*
X42246Y-24929D01*
X42274Y-24873D01*
X42330Y-24845D01*
X42415Y-24845D01*
X42471Y-24873D01*
X43005Y-25210D02*
X42949Y-25239D01*
X42836Y-25239D01*
X42780Y-25210D01*
X42752Y-25182D01*
X42724Y-25126D01*
X42724Y-24957D01*
X42752Y-24901D01*
X42780Y-24873D01*
X42836Y-24845D01*
X42949Y-24845D01*
X43005Y-24873D01*
X43258Y-25239D02*
X43258Y-24648D01*
X43511Y-25239D02*
X43511Y-24929D01*
X43483Y-24873D01*
X43427Y-24845D01*
X43343Y-24845D01*
X43286Y-24873D01*
X43258Y-24901D01*
X38478Y-26183D02*
X38281Y-25902D01*
X38140Y-26183D02*
X38140Y-25593D01*
X38365Y-25593D01*
X38421Y-25621D01*
X38449Y-25649D01*
X38478Y-25705D01*
X38478Y-25790D01*
X38449Y-25846D01*
X38421Y-25874D01*
X38365Y-25902D01*
X38140Y-25902D01*
X38815Y-26183D02*
X38759Y-26155D01*
X38731Y-26127D01*
X38703Y-26071D01*
X38703Y-25902D01*
X38731Y-25846D01*
X38759Y-25818D01*
X38815Y-25790D01*
X38899Y-25790D01*
X38956Y-25818D01*
X38984Y-25846D01*
X39012Y-25902D01*
X39012Y-26071D01*
X38984Y-26127D01*
X38956Y-26155D01*
X38899Y-26183D01*
X38815Y-26183D01*
X39265Y-26183D02*
X39265Y-25593D01*
X39265Y-25818D02*
X39321Y-25790D01*
X39434Y-25790D01*
X39490Y-25818D01*
X39518Y-25846D01*
X39546Y-25902D01*
X39546Y-26071D01*
X39518Y-26127D01*
X39490Y-26155D01*
X39434Y-26183D01*
X39321Y-26183D01*
X39265Y-26155D01*
X39884Y-26183D02*
X39827Y-26155D01*
X39799Y-26127D01*
X39771Y-26071D01*
X39771Y-25902D01*
X39799Y-25846D01*
X39827Y-25818D01*
X39884Y-25790D01*
X39968Y-25790D01*
X40024Y-25818D01*
X40052Y-25846D01*
X40080Y-25902D01*
X40080Y-26071D01*
X40052Y-26127D01*
X40024Y-26155D01*
X39968Y-26183D01*
X39884Y-26183D01*
X40249Y-25790D02*
X40474Y-25790D01*
X40334Y-25593D02*
X40334Y-26099D01*
X40362Y-26155D01*
X40418Y-26183D01*
X40474Y-26183D01*
X40671Y-26183D02*
X40671Y-25790D01*
X40671Y-25593D02*
X40643Y-25621D01*
X40671Y-25649D01*
X40699Y-25621D01*
X40671Y-25593D01*
X40671Y-25649D01*
X41205Y-26155D02*
X41149Y-26183D01*
X41037Y-26183D01*
X40980Y-26155D01*
X40952Y-26127D01*
X40924Y-26071D01*
X40924Y-25902D01*
X40952Y-25846D01*
X40980Y-25818D01*
X41037Y-25790D01*
X41149Y-25790D01*
X41205Y-25818D01*
X41430Y-26155D02*
X41487Y-26183D01*
X41599Y-26183D01*
X41655Y-26155D01*
X41683Y-26099D01*
X41683Y-26071D01*
X41655Y-26015D01*
X41599Y-25987D01*
X41515Y-25987D01*
X41458Y-25958D01*
X41430Y-25902D01*
X41430Y-25874D01*
X41458Y-25818D01*
X41515Y-25790D01*
X41599Y-25790D01*
X41655Y-25818D01*
X38140Y-27128D02*
X38140Y-26538D01*
X38281Y-26538D01*
X38365Y-26566D01*
X38421Y-26622D01*
X38449Y-26678D01*
X38478Y-26791D01*
X38478Y-26875D01*
X38449Y-26988D01*
X38421Y-27044D01*
X38365Y-27100D01*
X38281Y-27128D01*
X38140Y-27128D01*
X38956Y-27100D02*
X38899Y-27128D01*
X38787Y-27128D01*
X38731Y-27100D01*
X38703Y-27044D01*
X38703Y-26819D01*
X38731Y-26763D01*
X38787Y-26735D01*
X38899Y-26735D01*
X38956Y-26763D01*
X38984Y-26819D01*
X38984Y-26875D01*
X38703Y-26931D01*
X39181Y-26735D02*
X39321Y-27128D01*
X39462Y-26735D01*
X39912Y-27100D02*
X39856Y-27128D01*
X39743Y-27128D01*
X39687Y-27100D01*
X39659Y-27044D01*
X39659Y-26819D01*
X39687Y-26763D01*
X39743Y-26735D01*
X39856Y-26735D01*
X39912Y-26763D01*
X39940Y-26819D01*
X39940Y-26875D01*
X39659Y-26931D01*
X40277Y-27128D02*
X40221Y-27100D01*
X40193Y-27044D01*
X40193Y-26538D01*
X40587Y-27128D02*
X40530Y-27100D01*
X40502Y-27072D01*
X40474Y-27016D01*
X40474Y-26847D01*
X40502Y-26791D01*
X40530Y-26763D01*
X40587Y-26735D01*
X40671Y-26735D01*
X40727Y-26763D01*
X40755Y-26791D01*
X40784Y-26847D01*
X40784Y-27016D01*
X40755Y-27072D01*
X40727Y-27100D01*
X40671Y-27128D01*
X40587Y-27128D01*
X41037Y-26735D02*
X41037Y-27325D01*
X41037Y-26763D02*
X41093Y-26735D01*
X41205Y-26735D01*
X41262Y-26763D01*
X41290Y-26791D01*
X41318Y-26847D01*
X41318Y-27016D01*
X41290Y-27072D01*
X41262Y-27100D01*
X41205Y-27128D01*
X41093Y-27128D01*
X41037Y-27100D01*
X41571Y-27128D02*
X41571Y-26735D01*
X41571Y-26791D02*
X41599Y-26763D01*
X41655Y-26735D01*
X41740Y-26735D01*
X41796Y-26763D01*
X41824Y-26819D01*
X41824Y-27128D01*
X41824Y-26819D02*
X41852Y-26763D01*
X41908Y-26735D01*
X41993Y-26735D01*
X42049Y-26763D01*
X42077Y-26819D01*
X42077Y-27128D01*
X42583Y-27100D02*
X42527Y-27128D01*
X42415Y-27128D01*
X42358Y-27100D01*
X42330Y-27044D01*
X42330Y-26819D01*
X42358Y-26763D01*
X42415Y-26735D01*
X42527Y-26735D01*
X42583Y-26763D01*
X42611Y-26819D01*
X42611Y-26875D01*
X42330Y-26931D01*
X42865Y-26735D02*
X42865Y-27128D01*
X42865Y-26791D02*
X42893Y-26763D01*
X42949Y-26735D01*
X43033Y-26735D01*
X43089Y-26763D01*
X43118Y-26819D01*
X43118Y-27128D01*
X43314Y-26735D02*
X43539Y-26735D01*
X43399Y-26538D02*
X43399Y-27044D01*
X43427Y-27100D01*
X43483Y-27128D01*
X43539Y-27128D01*
X38337Y-27764D02*
X38421Y-27792D01*
X38449Y-27820D01*
X38478Y-27876D01*
X38478Y-27961D01*
X38449Y-28017D01*
X38421Y-28045D01*
X38365Y-28073D01*
X38140Y-28073D01*
X38140Y-27483D01*
X38337Y-27483D01*
X38393Y-27511D01*
X38421Y-27539D01*
X38449Y-27595D01*
X38449Y-27651D01*
X38421Y-27708D01*
X38393Y-27736D01*
X38337Y-27764D01*
X38140Y-27764D01*
X38815Y-28073D02*
X38759Y-28045D01*
X38731Y-28017D01*
X38703Y-27961D01*
X38703Y-27792D01*
X38731Y-27736D01*
X38759Y-27708D01*
X38815Y-27679D01*
X38899Y-27679D01*
X38956Y-27708D01*
X38984Y-27736D01*
X39012Y-27792D01*
X39012Y-27961D01*
X38984Y-28017D01*
X38956Y-28045D01*
X38899Y-28073D01*
X38815Y-28073D01*
X39518Y-28073D02*
X39518Y-27764D01*
X39490Y-27708D01*
X39434Y-27679D01*
X39321Y-27679D01*
X39265Y-27708D01*
X39518Y-28045D02*
X39462Y-28073D01*
X39321Y-28073D01*
X39265Y-28045D01*
X39237Y-27989D01*
X39237Y-27933D01*
X39265Y-27876D01*
X39321Y-27848D01*
X39462Y-27848D01*
X39518Y-27820D01*
X39799Y-28073D02*
X39799Y-27679D01*
X39799Y-27792D02*
X39827Y-27736D01*
X39856Y-27708D01*
X39912Y-27679D01*
X39968Y-27679D01*
X40418Y-28073D02*
X40418Y-27483D01*
X40418Y-28045D02*
X40362Y-28073D01*
X40249Y-28073D01*
X40193Y-28045D01*
X40165Y-28017D01*
X40137Y-27961D01*
X40137Y-27792D01*
X40165Y-27736D01*
X40193Y-27708D01*
X40249Y-27679D01*
X40362Y-27679D01*
X40418Y-27708D01*
X41318Y-28298D02*
X41290Y-28270D01*
X41233Y-28186D01*
X41205Y-28129D01*
X41177Y-28045D01*
X41149Y-27904D01*
X41149Y-27792D01*
X41177Y-27651D01*
X41205Y-27567D01*
X41233Y-27511D01*
X41290Y-27426D01*
X41318Y-27398D01*
X41458Y-27483D02*
X41655Y-28073D01*
X41852Y-27483D01*
X42358Y-28073D02*
X42021Y-28073D01*
X42190Y-28073D02*
X42190Y-27483D01*
X42133Y-27567D01*
X42077Y-27623D01*
X42021Y-27651D01*
X42611Y-28017D02*
X42640Y-28045D01*
X42611Y-28073D01*
X42583Y-28045D01*
X42611Y-28017D01*
X42611Y-28073D01*
X43202Y-28073D02*
X42865Y-28073D01*
X43033Y-28073D02*
X43033Y-27483D01*
X42977Y-27567D01*
X42921Y-27623D01*
X42865Y-27651D01*
X43568Y-27483D02*
X43624Y-27483D01*
X43680Y-27511D01*
X43708Y-27539D01*
X43736Y-27595D01*
X43764Y-27708D01*
X43764Y-27848D01*
X43736Y-27961D01*
X43708Y-28017D01*
X43680Y-28045D01*
X43624Y-28073D01*
X43568Y-28073D01*
X43511Y-28045D01*
X43483Y-28017D01*
X43455Y-27961D01*
X43427Y-27848D01*
X43427Y-27708D01*
X43455Y-27595D01*
X43483Y-27539D01*
X43511Y-27511D01*
X43568Y-27483D01*
X43961Y-28298D02*
X43989Y-28270D01*
X44046Y-28186D01*
X44074Y-28129D01*
X44102Y-28045D01*
X44130Y-27904D01*
X44130Y-27792D01*
X44102Y-27651D01*
X44074Y-27567D01*
X44046Y-27511D01*
X43989Y-27426D01*
X43961Y-27398D01*
G54D13*
X50500Y-31500D02*
X61500Y-31500D01*
X50500Y-27500D02*
X50500Y-30500D01*
X53500Y-27500D02*
X53500Y-30500D01*
X52500Y-27500D02*
X52500Y-30500D01*
X51500Y-27500D02*
X51500Y-30500D01*
X55500Y-27500D02*
X55500Y-30500D01*
X56500Y-27500D02*
X56500Y-30500D01*
X57500Y-27500D02*
X57500Y-30500D01*
X54500Y-27500D02*
X54500Y-30500D01*
X58500Y-27500D02*
X58500Y-30500D01*
X61500Y-27500D02*
X61500Y-30500D01*
X60500Y-27500D02*
X60500Y-30500D01*
X59500Y-27500D02*
X59500Y-30500D01*
X50500Y-33500D02*
X50500Y-36500D01*
X53500Y-33500D02*
X53500Y-36500D01*
X52500Y-33500D02*
X52500Y-36500D01*
X51500Y-33500D02*
X51500Y-36500D01*
X55500Y-33500D02*
X55500Y-36500D01*
X56500Y-33500D02*
X56500Y-36500D01*
X57500Y-33500D02*
X57500Y-36500D01*
X54500Y-33500D02*
X54500Y-36500D01*
X58500Y-33500D02*
X58500Y-36500D01*
X61500Y-33500D02*
X61500Y-36500D01*
X60500Y-33500D02*
X60500Y-36500D01*
X59500Y-33500D02*
X59500Y-36500D01*
X59500Y-39500D02*
X59500Y-40500D01*
X59500Y-38500D02*
X59500Y-39500D01*
X59500Y-37500D02*
X59500Y-38500D01*
X55500Y-37500D02*
X55500Y-40500D01*
X58500Y-37500D02*
X58500Y-40500D01*
X57500Y-37500D02*
X57500Y-40500D01*
X56500Y-37500D02*
X56500Y-40500D01*
X51500Y-37500D02*
X51500Y-40500D01*
X54500Y-37500D02*
X54500Y-40500D01*
X53500Y-37500D02*
X53500Y-40500D01*
X52500Y-37500D02*
X52500Y-40500D01*
X60500Y-37500D02*
X60500Y-40500D01*
X61500Y-40500D02*
X61500Y-37500D01*
X50500Y-40500D02*
X50500Y-37500D01*
X61500Y-41500D02*
X50500Y-41500D01*
X50500Y-42500D02*
X61500Y-42500D01*
X61500Y-45500D02*
X61500Y-46500D01*
X61500Y-44500D02*
X61500Y-45500D01*
X61500Y-43500D02*
X61500Y-44500D01*
X60500Y-45500D02*
X60500Y-46500D01*
X60500Y-44500D02*
X60500Y-45500D01*
X60500Y-43500D02*
X60500Y-44500D01*
X59500Y-45500D02*
X59500Y-46500D01*
X59500Y-44500D02*
X59500Y-45500D01*
X59500Y-43500D02*
X59500Y-44500D01*
X58500Y-45500D02*
X58500Y-46500D01*
X58500Y-44500D02*
X58500Y-45500D01*
X58500Y-43500D02*
X58500Y-44500D01*
X57500Y-45500D02*
X57500Y-46500D01*
X57500Y-44500D02*
X57500Y-45500D01*
X57500Y-43500D02*
X57500Y-44500D01*
X56500Y-44500D02*
X56500Y-43500D01*
X56500Y-45500D02*
X56500Y-44500D01*
X56500Y-46500D02*
X56500Y-45500D01*
X55500Y-45500D02*
X55500Y-46500D01*
X55500Y-44500D02*
X55500Y-45500D01*
X55500Y-43500D02*
X55500Y-44500D01*
X54500Y-45500D02*
X54500Y-46500D01*
X54500Y-44500D02*
X54500Y-45500D01*
X54500Y-43500D02*
X54500Y-44500D01*
X53500Y-45500D02*
X53500Y-46500D01*
X53500Y-44500D02*
X53500Y-45500D01*
X53500Y-43500D02*
X53500Y-44500D01*
X52500Y-45500D02*
X52500Y-46500D01*
X52500Y-44500D02*
X52500Y-45500D01*
X52500Y-43500D02*
X52500Y-44500D01*
X51500Y-45500D02*
X51500Y-46500D01*
X51500Y-44500D02*
X51500Y-45500D01*
X51500Y-43500D02*
X51500Y-44500D01*
X50500Y-45500D02*
X50500Y-46500D01*
X50500Y-44500D02*
X50500Y-45500D01*
X50500Y-43500D02*
X50500Y-44500D01*
G54D11*
X49107Y-26571D02*
X49207Y-26871D01*
X49307Y-26571D01*
X49407Y-26871D02*
X49407Y-26671D01*
X49407Y-26571D02*
X49392Y-26585D01*
X49407Y-26600D01*
X49421Y-26585D01*
X49407Y-26571D01*
X49407Y-26600D01*
X49550Y-26671D02*
X49550Y-26871D01*
X49550Y-26700D02*
X49564Y-26685D01*
X49592Y-26671D01*
X49635Y-26671D01*
X49664Y-26685D01*
X49678Y-26714D01*
X49678Y-26871D01*
X49585Y-48114D02*
X49571Y-48142D01*
X49571Y-48185D01*
X49585Y-48228D01*
X49614Y-48257D01*
X49642Y-48271D01*
X49700Y-48285D01*
X49742Y-48285D01*
X49800Y-48271D01*
X49828Y-48257D01*
X49857Y-48228D01*
X49871Y-48185D01*
X49871Y-48157D01*
X49857Y-48114D01*
X49842Y-48100D01*
X49742Y-48100D01*
X49742Y-48157D01*
X49671Y-47971D02*
X49871Y-47971D01*
X49700Y-47971D02*
X49685Y-47957D01*
X49671Y-47928D01*
X49671Y-47885D01*
X49685Y-47857D01*
X49714Y-47842D01*
X49871Y-47842D01*
X49871Y-47571D02*
X49571Y-47571D01*
X49857Y-47571D02*
X49871Y-47600D01*
X49871Y-47657D01*
X49857Y-47685D01*
X49842Y-47700D01*
X49814Y-47714D01*
X49728Y-47714D01*
X49700Y-47700D01*
X49685Y-47685D01*
X49671Y-47657D01*
X49671Y-47600D01*
X49685Y-47571D01*
X49571Y-49328D02*
X49571Y-49471D01*
X49714Y-49485D01*
X49700Y-49471D01*
X49685Y-49442D01*
X49685Y-49371D01*
X49700Y-49342D01*
X49714Y-49328D01*
X49742Y-49314D01*
X49814Y-49314D01*
X49842Y-49328D01*
X49857Y-49342D01*
X49871Y-49371D01*
X49871Y-49442D01*
X49857Y-49471D01*
X49842Y-49485D01*
X49571Y-49228D02*
X49871Y-49128D01*
X49571Y-49028D01*
X45321Y-46214D02*
X45421Y-46214D01*
X45464Y-46371D02*
X45321Y-46371D01*
X45321Y-46071D01*
X45464Y-46071D01*
X45592Y-46171D02*
X45592Y-46371D01*
X45592Y-46200D02*
X45607Y-46185D01*
X45635Y-46171D01*
X45678Y-46171D01*
X45707Y-46185D01*
X45721Y-46214D01*
X45721Y-46371D01*
X44321Y-46371D02*
X44321Y-46071D01*
X44392Y-46071D01*
X44435Y-46085D01*
X44464Y-46114D01*
X44478Y-46142D01*
X44492Y-46200D01*
X44492Y-46242D01*
X44478Y-46300D01*
X44464Y-46328D01*
X44435Y-46357D01*
X44392Y-46371D01*
X44321Y-46371D01*
X44778Y-46371D02*
X44607Y-46371D01*
X44692Y-46371D02*
X44692Y-46071D01*
X44664Y-46114D01*
X44635Y-46142D01*
X44607Y-46157D01*
X42321Y-47121D02*
X42321Y-46821D01*
X42392Y-46821D01*
X42435Y-46835D01*
X42464Y-46864D01*
X42478Y-46892D01*
X42492Y-46950D01*
X42492Y-46992D01*
X42478Y-47050D01*
X42464Y-47078D01*
X42435Y-47107D01*
X42392Y-47121D01*
X42321Y-47121D01*
X42607Y-46850D02*
X42621Y-46835D01*
X42650Y-46821D01*
X42721Y-46821D01*
X42750Y-46835D01*
X42764Y-46850D01*
X42778Y-46878D01*
X42778Y-46907D01*
X42764Y-46950D01*
X42592Y-47121D01*
X42778Y-47121D01*
X32621Y-46178D02*
X32321Y-46178D01*
X32321Y-46107D01*
X32335Y-46064D01*
X32364Y-46035D01*
X32392Y-46021D01*
X32450Y-46007D01*
X32492Y-46007D01*
X32550Y-46021D01*
X32578Y-46035D01*
X32607Y-46064D01*
X32621Y-46107D01*
X32621Y-46178D01*
X32350Y-45892D02*
X32335Y-45878D01*
X32321Y-45850D01*
X32321Y-45778D01*
X32335Y-45750D01*
X32350Y-45735D01*
X32378Y-45721D01*
X32407Y-45721D01*
X32450Y-45735D01*
X32621Y-45907D01*
X32621Y-45721D01*
X33621Y-46178D02*
X33321Y-46178D01*
X33321Y-46107D01*
X33335Y-46064D01*
X33364Y-46035D01*
X33392Y-46021D01*
X33450Y-46007D01*
X33492Y-46007D01*
X33550Y-46021D01*
X33578Y-46035D01*
X33607Y-46064D01*
X33621Y-46107D01*
X33621Y-46178D01*
X33621Y-45721D02*
X33621Y-45892D01*
X33621Y-45807D02*
X33321Y-45807D01*
X33364Y-45835D01*
X33392Y-45864D01*
X33407Y-45892D01*
X34714Y-46178D02*
X34714Y-46078D01*
X34871Y-46035D02*
X34871Y-46178D01*
X34571Y-46178D01*
X34571Y-46035D01*
X34671Y-45907D02*
X34871Y-45907D01*
X34700Y-45907D02*
X34685Y-45892D01*
X34671Y-45864D01*
X34671Y-45821D01*
X34685Y-45792D01*
X34714Y-45778D01*
X34871Y-45778D01*
X27785Y-54335D02*
X27757Y-54321D01*
X27714Y-54321D01*
X27671Y-54335D01*
X27642Y-54364D01*
X27628Y-54392D01*
X27614Y-54450D01*
X27614Y-54492D01*
X27628Y-54550D01*
X27642Y-54578D01*
X27671Y-54607D01*
X27714Y-54621D01*
X27742Y-54621D01*
X27785Y-54607D01*
X27800Y-54592D01*
X27800Y-54492D01*
X27742Y-54492D01*
X27928Y-54621D02*
X27928Y-54321D01*
X28042Y-54321D01*
X28071Y-54335D01*
X28085Y-54350D01*
X28100Y-54378D01*
X28100Y-54421D01*
X28085Y-54450D01*
X28071Y-54464D01*
X28042Y-54478D01*
X27928Y-54478D01*
X28200Y-54321D02*
X28400Y-54321D01*
X28271Y-54621D01*
X27785Y-53335D02*
X27757Y-53321D01*
X27714Y-53321D01*
X27671Y-53335D01*
X27642Y-53364D01*
X27628Y-53392D01*
X27614Y-53450D01*
X27614Y-53492D01*
X27628Y-53550D01*
X27642Y-53578D01*
X27671Y-53607D01*
X27714Y-53621D01*
X27742Y-53621D01*
X27785Y-53607D01*
X27800Y-53592D01*
X27800Y-53492D01*
X27742Y-53492D01*
X27928Y-53621D02*
X27928Y-53321D01*
X28042Y-53321D01*
X28071Y-53335D01*
X28085Y-53350D01*
X28100Y-53378D01*
X28100Y-53421D01*
X28085Y-53450D01*
X28071Y-53464D01*
X28042Y-53478D01*
X27928Y-53478D01*
X28357Y-53321D02*
X28300Y-53321D01*
X28271Y-53335D01*
X28257Y-53350D01*
X28228Y-53392D01*
X28214Y-53450D01*
X28214Y-53564D01*
X28228Y-53592D01*
X28242Y-53607D01*
X28271Y-53621D01*
X28328Y-53621D01*
X28357Y-53607D01*
X28371Y-53592D01*
X28385Y-53564D01*
X28385Y-53492D01*
X28371Y-53464D01*
X28357Y-53450D01*
X28328Y-53435D01*
X28271Y-53435D01*
X28242Y-53450D01*
X28228Y-53464D01*
X28214Y-53492D01*
X27785Y-52335D02*
X27757Y-52321D01*
X27714Y-52321D01*
X27671Y-52335D01*
X27642Y-52364D01*
X27628Y-52392D01*
X27614Y-52450D01*
X27614Y-52492D01*
X27628Y-52550D01*
X27642Y-52578D01*
X27671Y-52607D01*
X27714Y-52621D01*
X27742Y-52621D01*
X27785Y-52607D01*
X27800Y-52592D01*
X27800Y-52492D01*
X27742Y-52492D01*
X27928Y-52621D02*
X27928Y-52321D01*
X28042Y-52321D01*
X28071Y-52335D01*
X28085Y-52350D01*
X28100Y-52378D01*
X28100Y-52421D01*
X28085Y-52450D01*
X28071Y-52464D01*
X28042Y-52478D01*
X27928Y-52478D01*
X28371Y-52321D02*
X28228Y-52321D01*
X28214Y-52464D01*
X28228Y-52450D01*
X28257Y-52435D01*
X28328Y-52435D01*
X28357Y-52450D01*
X28371Y-52464D01*
X28385Y-52492D01*
X28385Y-52564D01*
X28371Y-52592D01*
X28357Y-52607D01*
X28328Y-52621D01*
X28257Y-52621D01*
X28228Y-52607D01*
X28214Y-52592D01*
X27785Y-51335D02*
X27757Y-51321D01*
X27714Y-51321D01*
X27671Y-51335D01*
X27642Y-51364D01*
X27628Y-51392D01*
X27614Y-51450D01*
X27614Y-51492D01*
X27628Y-51550D01*
X27642Y-51578D01*
X27671Y-51607D01*
X27714Y-51621D01*
X27742Y-51621D01*
X27785Y-51607D01*
X27800Y-51592D01*
X27800Y-51492D01*
X27742Y-51492D01*
X27928Y-51621D02*
X27928Y-51321D01*
X28042Y-51321D01*
X28071Y-51335D01*
X28085Y-51350D01*
X28100Y-51378D01*
X28100Y-51421D01*
X28085Y-51450D01*
X28071Y-51464D01*
X28042Y-51478D01*
X27928Y-51478D01*
X28357Y-51421D02*
X28357Y-51621D01*
X28285Y-51307D02*
X28214Y-51521D01*
X28400Y-51521D01*
X27785Y-50335D02*
X27757Y-50321D01*
X27714Y-50321D01*
X27671Y-50335D01*
X27642Y-50364D01*
X27628Y-50392D01*
X27614Y-50450D01*
X27614Y-50492D01*
X27628Y-50550D01*
X27642Y-50578D01*
X27671Y-50607D01*
X27714Y-50621D01*
X27742Y-50621D01*
X27785Y-50607D01*
X27800Y-50592D01*
X27800Y-50492D01*
X27742Y-50492D01*
X27928Y-50621D02*
X27928Y-50321D01*
X28042Y-50321D01*
X28071Y-50335D01*
X28085Y-50350D01*
X28100Y-50378D01*
X28100Y-50421D01*
X28085Y-50450D01*
X28071Y-50464D01*
X28042Y-50478D01*
X27928Y-50478D01*
X28200Y-50321D02*
X28385Y-50321D01*
X28285Y-50435D01*
X28328Y-50435D01*
X28357Y-50450D01*
X28371Y-50464D01*
X28385Y-50492D01*
X28385Y-50564D01*
X28371Y-50592D01*
X28357Y-50607D01*
X28328Y-50621D01*
X28242Y-50621D01*
X28214Y-50607D01*
X28200Y-50592D01*
X27785Y-49335D02*
X27757Y-49321D01*
X27714Y-49321D01*
X27671Y-49335D01*
X27642Y-49364D01*
X27628Y-49392D01*
X27614Y-49450D01*
X27614Y-49492D01*
X27628Y-49550D01*
X27642Y-49578D01*
X27671Y-49607D01*
X27714Y-49621D01*
X27742Y-49621D01*
X27785Y-49607D01*
X27800Y-49592D01*
X27800Y-49492D01*
X27742Y-49492D01*
X27928Y-49621D02*
X27928Y-49321D01*
X28042Y-49321D01*
X28071Y-49335D01*
X28085Y-49350D01*
X28100Y-49378D01*
X28100Y-49421D01*
X28085Y-49450D01*
X28071Y-49464D01*
X28042Y-49478D01*
X27928Y-49478D01*
X28214Y-49350D02*
X28228Y-49335D01*
X28257Y-49321D01*
X28328Y-49321D01*
X28357Y-49335D01*
X28371Y-49350D01*
X28385Y-49378D01*
X28385Y-49407D01*
X28371Y-49450D01*
X28200Y-49621D01*
X28385Y-49621D01*
X27785Y-48335D02*
X27757Y-48321D01*
X27714Y-48321D01*
X27671Y-48335D01*
X27642Y-48364D01*
X27628Y-48392D01*
X27614Y-48450D01*
X27614Y-48492D01*
X27628Y-48550D01*
X27642Y-48578D01*
X27671Y-48607D01*
X27714Y-48621D01*
X27742Y-48621D01*
X27785Y-48607D01*
X27800Y-48592D01*
X27800Y-48492D01*
X27742Y-48492D01*
X27928Y-48621D02*
X27928Y-48321D01*
X28042Y-48321D01*
X28071Y-48335D01*
X28085Y-48350D01*
X28100Y-48378D01*
X28100Y-48421D01*
X28085Y-48450D01*
X28071Y-48464D01*
X28042Y-48478D01*
X27928Y-48478D01*
X28385Y-48621D02*
X28214Y-48621D01*
X28300Y-48621D02*
X28300Y-48321D01*
X28271Y-48364D01*
X28242Y-48392D01*
X28214Y-48407D01*
X27785Y-47335D02*
X27757Y-47321D01*
X27714Y-47321D01*
X27671Y-47335D01*
X27642Y-47364D01*
X27628Y-47392D01*
X27614Y-47450D01*
X27614Y-47492D01*
X27628Y-47550D01*
X27642Y-47578D01*
X27671Y-47607D01*
X27714Y-47621D01*
X27742Y-47621D01*
X27785Y-47607D01*
X27800Y-47592D01*
X27800Y-47492D01*
X27742Y-47492D01*
X27928Y-47621D02*
X27928Y-47321D01*
X28042Y-47321D01*
X28071Y-47335D01*
X28085Y-47350D01*
X28100Y-47378D01*
X28100Y-47421D01*
X28085Y-47450D01*
X28071Y-47464D01*
X28042Y-47478D01*
X27928Y-47478D01*
X28285Y-47321D02*
X28314Y-47321D01*
X28342Y-47335D01*
X28357Y-47350D01*
X28371Y-47378D01*
X28385Y-47435D01*
X28385Y-47507D01*
X28371Y-47564D01*
X28357Y-47592D01*
X28342Y-47607D01*
X28314Y-47621D01*
X28285Y-47621D01*
X28257Y-47607D01*
X28242Y-47592D01*
X28228Y-47564D01*
X28214Y-47507D01*
X28214Y-47435D01*
X28228Y-47378D01*
X28242Y-47350D01*
X28257Y-47335D01*
X28285Y-47321D01*
X44607Y-37621D02*
X44507Y-37478D01*
X44435Y-37621D02*
X44435Y-37321D01*
X44550Y-37321D01*
X44578Y-37335D01*
X44592Y-37350D01*
X44607Y-37378D01*
X44607Y-37421D01*
X44592Y-37450D01*
X44578Y-37464D01*
X44550Y-37478D01*
X44435Y-37478D01*
X44735Y-37621D02*
X44735Y-37321D01*
X44807Y-37321D01*
X44850Y-37335D01*
X44878Y-37364D01*
X44892Y-37392D01*
X44907Y-37450D01*
X44907Y-37492D01*
X44892Y-37550D01*
X44878Y-37578D01*
X44850Y-37607D01*
X44807Y-37621D01*
X44735Y-37621D01*
X45007Y-37321D02*
X45207Y-37321D01*
X45078Y-37621D01*
X44607Y-38621D02*
X44507Y-38478D01*
X44435Y-38621D02*
X44435Y-38321D01*
X44550Y-38321D01*
X44578Y-38335D01*
X44592Y-38350D01*
X44607Y-38378D01*
X44607Y-38421D01*
X44592Y-38450D01*
X44578Y-38464D01*
X44550Y-38478D01*
X44435Y-38478D01*
X44735Y-38621D02*
X44735Y-38321D01*
X44807Y-38321D01*
X44850Y-38335D01*
X44878Y-38364D01*
X44892Y-38392D01*
X44907Y-38450D01*
X44907Y-38492D01*
X44892Y-38550D01*
X44878Y-38578D01*
X44850Y-38607D01*
X44807Y-38621D01*
X44735Y-38621D01*
X45164Y-38321D02*
X45107Y-38321D01*
X45078Y-38335D01*
X45064Y-38350D01*
X45035Y-38392D01*
X45021Y-38450D01*
X45021Y-38564D01*
X45035Y-38592D01*
X45050Y-38607D01*
X45078Y-38621D01*
X45135Y-38621D01*
X45164Y-38607D01*
X45178Y-38592D01*
X45192Y-38564D01*
X45192Y-38492D01*
X45178Y-38464D01*
X45164Y-38450D01*
X45135Y-38435D01*
X45078Y-38435D01*
X45050Y-38450D01*
X45035Y-38464D01*
X45021Y-38492D01*
X44607Y-39621D02*
X44507Y-39478D01*
X44435Y-39621D02*
X44435Y-39321D01*
X44550Y-39321D01*
X44578Y-39335D01*
X44592Y-39350D01*
X44607Y-39378D01*
X44607Y-39421D01*
X44592Y-39450D01*
X44578Y-39464D01*
X44550Y-39478D01*
X44435Y-39478D01*
X44735Y-39621D02*
X44735Y-39321D01*
X44807Y-39321D01*
X44850Y-39335D01*
X44878Y-39364D01*
X44892Y-39392D01*
X44907Y-39450D01*
X44907Y-39492D01*
X44892Y-39550D01*
X44878Y-39578D01*
X44850Y-39607D01*
X44807Y-39621D01*
X44735Y-39621D01*
X45178Y-39321D02*
X45035Y-39321D01*
X45021Y-39464D01*
X45035Y-39450D01*
X45064Y-39435D01*
X45135Y-39435D01*
X45164Y-39450D01*
X45178Y-39464D01*
X45192Y-39492D01*
X45192Y-39564D01*
X45178Y-39592D01*
X45164Y-39607D01*
X45135Y-39621D01*
X45064Y-39621D01*
X45035Y-39607D01*
X45021Y-39592D01*
X44607Y-40621D02*
X44507Y-40478D01*
X44435Y-40621D02*
X44435Y-40321D01*
X44550Y-40321D01*
X44578Y-40335D01*
X44592Y-40350D01*
X44607Y-40378D01*
X44607Y-40421D01*
X44592Y-40450D01*
X44578Y-40464D01*
X44550Y-40478D01*
X44435Y-40478D01*
X44735Y-40621D02*
X44735Y-40321D01*
X44807Y-40321D01*
X44850Y-40335D01*
X44878Y-40364D01*
X44892Y-40392D01*
X44907Y-40450D01*
X44907Y-40492D01*
X44892Y-40550D01*
X44878Y-40578D01*
X44850Y-40607D01*
X44807Y-40621D01*
X44735Y-40621D01*
X45164Y-40421D02*
X45164Y-40621D01*
X45092Y-40307D02*
X45021Y-40521D01*
X45207Y-40521D01*
X44607Y-41621D02*
X44507Y-41478D01*
X44435Y-41621D02*
X44435Y-41321D01*
X44550Y-41321D01*
X44578Y-41335D01*
X44592Y-41350D01*
X44607Y-41378D01*
X44607Y-41421D01*
X44592Y-41450D01*
X44578Y-41464D01*
X44550Y-41478D01*
X44435Y-41478D01*
X44735Y-41621D02*
X44735Y-41321D01*
X44807Y-41321D01*
X44850Y-41335D01*
X44878Y-41364D01*
X44892Y-41392D01*
X44907Y-41450D01*
X44907Y-41492D01*
X44892Y-41550D01*
X44878Y-41578D01*
X44850Y-41607D01*
X44807Y-41621D01*
X44735Y-41621D01*
X45007Y-41321D02*
X45192Y-41321D01*
X45092Y-41435D01*
X45135Y-41435D01*
X45164Y-41450D01*
X45178Y-41464D01*
X45192Y-41492D01*
X45192Y-41564D01*
X45178Y-41592D01*
X45164Y-41607D01*
X45135Y-41621D01*
X45050Y-41621D01*
X45021Y-41607D01*
X45007Y-41592D01*
X44607Y-42621D02*
X44507Y-42478D01*
X44435Y-42621D02*
X44435Y-42321D01*
X44550Y-42321D01*
X44578Y-42335D01*
X44592Y-42350D01*
X44607Y-42378D01*
X44607Y-42421D01*
X44592Y-42450D01*
X44578Y-42464D01*
X44550Y-42478D01*
X44435Y-42478D01*
X44735Y-42621D02*
X44735Y-42321D01*
X44807Y-42321D01*
X44850Y-42335D01*
X44878Y-42364D01*
X44892Y-42392D01*
X44907Y-42450D01*
X44907Y-42492D01*
X44892Y-42550D01*
X44878Y-42578D01*
X44850Y-42607D01*
X44807Y-42621D01*
X44735Y-42621D01*
X45021Y-42350D02*
X45035Y-42335D01*
X45064Y-42321D01*
X45135Y-42321D01*
X45164Y-42335D01*
X45178Y-42350D01*
X45192Y-42378D01*
X45192Y-42407D01*
X45178Y-42450D01*
X45007Y-42621D01*
X45192Y-42621D01*
X44607Y-43621D02*
X44507Y-43478D01*
X44435Y-43621D02*
X44435Y-43321D01*
X44550Y-43321D01*
X44578Y-43335D01*
X44592Y-43350D01*
X44607Y-43378D01*
X44607Y-43421D01*
X44592Y-43450D01*
X44578Y-43464D01*
X44550Y-43478D01*
X44435Y-43478D01*
X44735Y-43621D02*
X44735Y-43321D01*
X44807Y-43321D01*
X44850Y-43335D01*
X44878Y-43364D01*
X44892Y-43392D01*
X44907Y-43450D01*
X44907Y-43492D01*
X44892Y-43550D01*
X44878Y-43578D01*
X44850Y-43607D01*
X44807Y-43621D01*
X44735Y-43621D01*
X45192Y-43621D02*
X45021Y-43621D01*
X45107Y-43621D02*
X45107Y-43321D01*
X45078Y-43364D01*
X45050Y-43392D01*
X45021Y-43407D01*
X45607Y-45621D02*
X45507Y-45478D01*
X45435Y-45621D02*
X45435Y-45321D01*
X45550Y-45321D01*
X45578Y-45335D01*
X45592Y-45350D01*
X45607Y-45378D01*
X45607Y-45421D01*
X45592Y-45450D01*
X45578Y-45464D01*
X45550Y-45478D01*
X45435Y-45478D01*
X45735Y-45621D02*
X45735Y-45321D01*
X45807Y-45321D01*
X45850Y-45335D01*
X45878Y-45364D01*
X45892Y-45392D01*
X45907Y-45450D01*
X45907Y-45492D01*
X45892Y-45550D01*
X45878Y-45578D01*
X45850Y-45607D01*
X45807Y-45621D01*
X45735Y-45621D01*
X46092Y-45321D02*
X46121Y-45321D01*
X46150Y-45335D01*
X46164Y-45350D01*
X46178Y-45378D01*
X46192Y-45435D01*
X46192Y-45507D01*
X46178Y-45564D01*
X46164Y-45592D01*
X46150Y-45607D01*
X46121Y-45621D01*
X46092Y-45621D01*
X46064Y-45607D01*
X46050Y-45592D01*
X46035Y-45564D01*
X46021Y-45507D01*
X46021Y-45435D01*
X46035Y-45378D01*
X46050Y-45350D01*
X46064Y-45335D01*
X46092Y-45321D01*
X44607Y-28621D02*
X44507Y-28478D01*
X44435Y-28621D02*
X44435Y-28321D01*
X44550Y-28321D01*
X44578Y-28335D01*
X44592Y-28350D01*
X44607Y-28378D01*
X44607Y-28421D01*
X44592Y-28450D01*
X44578Y-28464D01*
X44550Y-28478D01*
X44435Y-28478D01*
X44835Y-28464D02*
X44878Y-28478D01*
X44892Y-28492D01*
X44907Y-28521D01*
X44907Y-28564D01*
X44892Y-28592D01*
X44878Y-28607D01*
X44850Y-28621D01*
X44735Y-28621D01*
X44735Y-28321D01*
X44835Y-28321D01*
X44864Y-28335D01*
X44878Y-28350D01*
X44892Y-28378D01*
X44892Y-28407D01*
X44878Y-28435D01*
X44864Y-28450D01*
X44835Y-28464D01*
X44735Y-28464D01*
X45007Y-28321D02*
X45207Y-28321D01*
X45078Y-28621D01*
X44607Y-29621D02*
X44507Y-29478D01*
X44435Y-29621D02*
X44435Y-29321D01*
X44550Y-29321D01*
X44578Y-29335D01*
X44592Y-29350D01*
X44607Y-29378D01*
X44607Y-29421D01*
X44592Y-29450D01*
X44578Y-29464D01*
X44550Y-29478D01*
X44435Y-29478D01*
X44835Y-29464D02*
X44878Y-29478D01*
X44892Y-29492D01*
X44907Y-29521D01*
X44907Y-29564D01*
X44892Y-29592D01*
X44878Y-29607D01*
X44850Y-29621D01*
X44735Y-29621D01*
X44735Y-29321D01*
X44835Y-29321D01*
X44864Y-29335D01*
X44878Y-29350D01*
X44892Y-29378D01*
X44892Y-29407D01*
X44878Y-29435D01*
X44864Y-29450D01*
X44835Y-29464D01*
X44735Y-29464D01*
X45164Y-29321D02*
X45107Y-29321D01*
X45078Y-29335D01*
X45064Y-29350D01*
X45035Y-29392D01*
X45021Y-29450D01*
X45021Y-29564D01*
X45035Y-29592D01*
X45050Y-29607D01*
X45078Y-29621D01*
X45135Y-29621D01*
X45164Y-29607D01*
X45178Y-29592D01*
X45192Y-29564D01*
X45192Y-29492D01*
X45178Y-29464D01*
X45164Y-29450D01*
X45135Y-29435D01*
X45078Y-29435D01*
X45050Y-29450D01*
X45035Y-29464D01*
X45021Y-29492D01*
X44607Y-30621D02*
X44507Y-30478D01*
X44435Y-30621D02*
X44435Y-30321D01*
X44550Y-30321D01*
X44578Y-30335D01*
X44592Y-30350D01*
X44607Y-30378D01*
X44607Y-30421D01*
X44592Y-30450D01*
X44578Y-30464D01*
X44550Y-30478D01*
X44435Y-30478D01*
X44835Y-30464D02*
X44878Y-30478D01*
X44892Y-30492D01*
X44907Y-30521D01*
X44907Y-30564D01*
X44892Y-30592D01*
X44878Y-30607D01*
X44850Y-30621D01*
X44735Y-30621D01*
X44735Y-30321D01*
X44835Y-30321D01*
X44864Y-30335D01*
X44878Y-30350D01*
X44892Y-30378D01*
X44892Y-30407D01*
X44878Y-30435D01*
X44864Y-30450D01*
X44835Y-30464D01*
X44735Y-30464D01*
X45178Y-30321D02*
X45035Y-30321D01*
X45021Y-30464D01*
X45035Y-30450D01*
X45064Y-30435D01*
X45135Y-30435D01*
X45164Y-30450D01*
X45178Y-30464D01*
X45192Y-30492D01*
X45192Y-30564D01*
X45178Y-30592D01*
X45164Y-30607D01*
X45135Y-30621D01*
X45064Y-30621D01*
X45035Y-30607D01*
X45021Y-30592D01*
X44607Y-31621D02*
X44507Y-31478D01*
X44435Y-31621D02*
X44435Y-31321D01*
X44550Y-31321D01*
X44578Y-31335D01*
X44592Y-31350D01*
X44607Y-31378D01*
X44607Y-31421D01*
X44592Y-31450D01*
X44578Y-31464D01*
X44550Y-31478D01*
X44435Y-31478D01*
X44835Y-31464D02*
X44878Y-31478D01*
X44892Y-31492D01*
X44907Y-31521D01*
X44907Y-31564D01*
X44892Y-31592D01*
X44878Y-31607D01*
X44850Y-31621D01*
X44735Y-31621D01*
X44735Y-31321D01*
X44835Y-31321D01*
X44864Y-31335D01*
X44878Y-31350D01*
X44892Y-31378D01*
X44892Y-31407D01*
X44878Y-31435D01*
X44864Y-31450D01*
X44835Y-31464D01*
X44735Y-31464D01*
X45164Y-31421D02*
X45164Y-31621D01*
X45092Y-31307D02*
X45021Y-31521D01*
X45207Y-31521D01*
X44607Y-32621D02*
X44507Y-32478D01*
X44435Y-32621D02*
X44435Y-32321D01*
X44550Y-32321D01*
X44578Y-32335D01*
X44592Y-32350D01*
X44607Y-32378D01*
X44607Y-32421D01*
X44592Y-32450D01*
X44578Y-32464D01*
X44550Y-32478D01*
X44435Y-32478D01*
X44835Y-32464D02*
X44878Y-32478D01*
X44892Y-32492D01*
X44907Y-32521D01*
X44907Y-32564D01*
X44892Y-32592D01*
X44878Y-32607D01*
X44850Y-32621D01*
X44735Y-32621D01*
X44735Y-32321D01*
X44835Y-32321D01*
X44864Y-32335D01*
X44878Y-32350D01*
X44892Y-32378D01*
X44892Y-32407D01*
X44878Y-32435D01*
X44864Y-32450D01*
X44835Y-32464D01*
X44735Y-32464D01*
X45007Y-32321D02*
X45192Y-32321D01*
X45092Y-32435D01*
X45135Y-32435D01*
X45164Y-32450D01*
X45178Y-32464D01*
X45192Y-32492D01*
X45192Y-32564D01*
X45178Y-32592D01*
X45164Y-32607D01*
X45135Y-32621D01*
X45050Y-32621D01*
X45021Y-32607D01*
X45007Y-32592D01*
X44607Y-33621D02*
X44507Y-33478D01*
X44435Y-33621D02*
X44435Y-33321D01*
X44550Y-33321D01*
X44578Y-33335D01*
X44592Y-33350D01*
X44607Y-33378D01*
X44607Y-33421D01*
X44592Y-33450D01*
X44578Y-33464D01*
X44550Y-33478D01*
X44435Y-33478D01*
X44835Y-33464D02*
X44878Y-33478D01*
X44892Y-33492D01*
X44907Y-33521D01*
X44907Y-33564D01*
X44892Y-33592D01*
X44878Y-33607D01*
X44850Y-33621D01*
X44735Y-33621D01*
X44735Y-33321D01*
X44835Y-33321D01*
X44864Y-33335D01*
X44878Y-33350D01*
X44892Y-33378D01*
X44892Y-33407D01*
X44878Y-33435D01*
X44864Y-33450D01*
X44835Y-33464D01*
X44735Y-33464D01*
X45021Y-33350D02*
X45035Y-33335D01*
X45064Y-33321D01*
X45135Y-33321D01*
X45164Y-33335D01*
X45178Y-33350D01*
X45192Y-33378D01*
X45192Y-33407D01*
X45178Y-33450D01*
X45007Y-33621D01*
X45192Y-33621D01*
X44607Y-34621D02*
X44507Y-34478D01*
X44435Y-34621D02*
X44435Y-34321D01*
X44550Y-34321D01*
X44578Y-34335D01*
X44592Y-34350D01*
X44607Y-34378D01*
X44607Y-34421D01*
X44592Y-34450D01*
X44578Y-34464D01*
X44550Y-34478D01*
X44435Y-34478D01*
X44835Y-34464D02*
X44878Y-34478D01*
X44892Y-34492D01*
X44907Y-34521D01*
X44907Y-34564D01*
X44892Y-34592D01*
X44878Y-34607D01*
X44850Y-34621D01*
X44735Y-34621D01*
X44735Y-34321D01*
X44835Y-34321D01*
X44864Y-34335D01*
X44878Y-34350D01*
X44892Y-34378D01*
X44892Y-34407D01*
X44878Y-34435D01*
X44864Y-34450D01*
X44835Y-34464D01*
X44735Y-34464D01*
X45192Y-34621D02*
X45021Y-34621D01*
X45107Y-34621D02*
X45107Y-34321D01*
X45078Y-34364D01*
X45050Y-34392D01*
X45021Y-34407D01*
X44607Y-35621D02*
X44507Y-35478D01*
X44435Y-35621D02*
X44435Y-35321D01*
X44550Y-35321D01*
X44578Y-35335D01*
X44592Y-35350D01*
X44607Y-35378D01*
X44607Y-35421D01*
X44592Y-35450D01*
X44578Y-35464D01*
X44550Y-35478D01*
X44435Y-35478D01*
X44835Y-35464D02*
X44878Y-35478D01*
X44892Y-35492D01*
X44907Y-35521D01*
X44907Y-35564D01*
X44892Y-35592D01*
X44878Y-35607D01*
X44850Y-35621D01*
X44735Y-35621D01*
X44735Y-35321D01*
X44835Y-35321D01*
X44864Y-35335D01*
X44878Y-35350D01*
X44892Y-35378D01*
X44892Y-35407D01*
X44878Y-35435D01*
X44864Y-35450D01*
X44835Y-35464D01*
X44735Y-35464D01*
X45092Y-35321D02*
X45121Y-35321D01*
X45150Y-35335D01*
X45164Y-35350D01*
X45178Y-35378D01*
X45192Y-35435D01*
X45192Y-35507D01*
X45178Y-35564D01*
X45164Y-35592D01*
X45150Y-35607D01*
X45121Y-35621D01*
X45092Y-35621D01*
X45064Y-35607D01*
X45050Y-35592D01*
X45035Y-35564D01*
X45021Y-35507D01*
X45021Y-35435D01*
X45035Y-35378D01*
X45050Y-35350D01*
X45064Y-35335D01*
X45092Y-35321D01*
X27992Y-32621D02*
X27892Y-32478D01*
X27821Y-32621D02*
X27821Y-32321D01*
X27935Y-32321D01*
X27964Y-32335D01*
X27978Y-32350D01*
X27992Y-32378D01*
X27992Y-32421D01*
X27978Y-32450D01*
X27964Y-32464D01*
X27935Y-32478D01*
X27821Y-32478D01*
X28121Y-32464D02*
X28221Y-32464D01*
X28264Y-32621D02*
X28121Y-32621D01*
X28121Y-32321D01*
X28264Y-32321D01*
X28378Y-32607D02*
X28421Y-32621D01*
X28492Y-32621D01*
X28521Y-32607D01*
X28535Y-32592D01*
X28550Y-32564D01*
X28550Y-32535D01*
X28535Y-32507D01*
X28521Y-32492D01*
X28492Y-32478D01*
X28435Y-32464D01*
X28407Y-32450D01*
X28392Y-32435D01*
X28378Y-32407D01*
X28378Y-32378D01*
X28392Y-32350D01*
X28407Y-32335D01*
X28435Y-32321D01*
X28507Y-32321D01*
X28550Y-32335D01*
X28678Y-32464D02*
X28778Y-32464D01*
X28821Y-32621D02*
X28678Y-32621D01*
X28678Y-32321D01*
X28821Y-32321D01*
X28907Y-32321D02*
X29078Y-32321D01*
X28992Y-32621D02*
X28992Y-32321D01*
X27750Y-32230D02*
X29107Y-32230D01*
X27964Y-34321D02*
X27821Y-34321D01*
X27807Y-34464D01*
X27821Y-34450D01*
X27850Y-34435D01*
X27921Y-34435D01*
X27950Y-34450D01*
X27964Y-34464D01*
X27978Y-34492D01*
X27978Y-34564D01*
X27964Y-34592D01*
X27950Y-34607D01*
X27921Y-34621D01*
X27850Y-34621D01*
X27821Y-34607D01*
X27807Y-34592D01*
X28078Y-34421D02*
X28150Y-34621D01*
X28221Y-34421D01*
X27978Y-35335D02*
X27950Y-35321D01*
X27907Y-35321D01*
X27864Y-35335D01*
X27835Y-35364D01*
X27821Y-35392D01*
X27807Y-35450D01*
X27807Y-35492D01*
X27821Y-35550D01*
X27835Y-35578D01*
X27864Y-35607D01*
X27907Y-35621D01*
X27935Y-35621D01*
X27978Y-35607D01*
X27992Y-35592D01*
X27992Y-35492D01*
X27935Y-35492D01*
X28121Y-35421D02*
X28121Y-35621D01*
X28121Y-35450D02*
X28135Y-35435D01*
X28164Y-35421D01*
X28207Y-35421D01*
X28235Y-35435D01*
X28250Y-35464D01*
X28250Y-35621D01*
X28521Y-35621D02*
X28521Y-35321D01*
X28521Y-35607D02*
X28492Y-35621D01*
X28435Y-35621D01*
X28407Y-35607D01*
X28392Y-35592D01*
X28378Y-35564D01*
X28378Y-35478D01*
X28392Y-35450D01*
X28407Y-35435D01*
X28435Y-35421D01*
X28492Y-35421D01*
X28521Y-35435D01*
X27978Y-36335D02*
X27950Y-36321D01*
X27907Y-36321D01*
X27864Y-36335D01*
X27835Y-36364D01*
X27821Y-36392D01*
X27807Y-36450D01*
X27807Y-36492D01*
X27821Y-36550D01*
X27835Y-36578D01*
X27864Y-36607D01*
X27907Y-36621D01*
X27935Y-36621D01*
X27978Y-36607D01*
X27992Y-36592D01*
X27992Y-36492D01*
X27935Y-36492D01*
X28121Y-36421D02*
X28121Y-36621D01*
X28121Y-36450D02*
X28135Y-36435D01*
X28164Y-36421D01*
X28207Y-36421D01*
X28235Y-36435D01*
X28250Y-36464D01*
X28250Y-36621D01*
X28521Y-36621D02*
X28521Y-36321D01*
X28521Y-36607D02*
X28492Y-36621D01*
X28435Y-36621D01*
X28407Y-36607D01*
X28392Y-36592D01*
X28378Y-36564D01*
X28378Y-36478D01*
X28392Y-36450D01*
X28407Y-36435D01*
X28435Y-36421D01*
X28492Y-36421D01*
X28521Y-36435D01*
X27778Y-37321D02*
X27878Y-37621D01*
X27978Y-37321D01*
X28078Y-37621D02*
X28078Y-37421D01*
X28078Y-37321D02*
X28064Y-37335D01*
X28078Y-37350D01*
X28092Y-37335D01*
X28078Y-37321D01*
X28078Y-37350D01*
X28221Y-37421D02*
X28221Y-37621D01*
X28221Y-37450D02*
X28235Y-37435D01*
X28264Y-37421D01*
X28307Y-37421D01*
X28335Y-37435D01*
X28350Y-37464D01*
X28350Y-37621D01*
X27628Y-39535D02*
X27771Y-39535D01*
X27600Y-39621D02*
X27700Y-39321D01*
X27800Y-39621D01*
X27900Y-39621D02*
X27900Y-39321D01*
X28071Y-39621D01*
X28071Y-39321D01*
X28271Y-39321D02*
X28300Y-39321D01*
X28328Y-39335D01*
X28342Y-39350D01*
X28357Y-39378D01*
X28371Y-39435D01*
X28371Y-39507D01*
X28357Y-39564D01*
X28342Y-39592D01*
X28328Y-39607D01*
X28300Y-39621D01*
X28271Y-39621D01*
X28242Y-39607D01*
X28228Y-39592D01*
X28214Y-39564D01*
X28200Y-39507D01*
X28200Y-39435D01*
X28214Y-39378D01*
X28228Y-39350D01*
X28242Y-39335D01*
X28271Y-39321D01*
X27628Y-40535D02*
X27771Y-40535D01*
X27600Y-40621D02*
X27700Y-40321D01*
X27800Y-40621D01*
X27900Y-40621D02*
X27900Y-40321D01*
X28071Y-40621D01*
X28071Y-40321D01*
X28371Y-40621D02*
X28200Y-40621D01*
X28285Y-40621D02*
X28285Y-40321D01*
X28257Y-40364D01*
X28228Y-40392D01*
X28200Y-40407D01*
X27628Y-41535D02*
X27771Y-41535D01*
X27600Y-41621D02*
X27700Y-41321D01*
X27800Y-41621D01*
X27900Y-41621D02*
X27900Y-41321D01*
X28071Y-41621D01*
X28071Y-41321D01*
X28200Y-41350D02*
X28214Y-41335D01*
X28242Y-41321D01*
X28314Y-41321D01*
X28342Y-41335D01*
X28357Y-41350D01*
X28371Y-41378D01*
X28371Y-41407D01*
X28357Y-41450D01*
X28185Y-41621D01*
X28371Y-41621D01*
X27628Y-42535D02*
X27771Y-42535D01*
X27600Y-42621D02*
X27700Y-42321D01*
X27800Y-42621D01*
X27900Y-42621D02*
X27900Y-42321D01*
X28071Y-42621D01*
X28071Y-42321D01*
X28185Y-42321D02*
X28371Y-42321D01*
X28271Y-42435D01*
X28314Y-42435D01*
X28342Y-42450D01*
X28357Y-42464D01*
X28371Y-42492D01*
X28371Y-42564D01*
X28357Y-42592D01*
X28342Y-42607D01*
X28314Y-42621D01*
X28228Y-42621D01*
X28200Y-42607D01*
X28185Y-42592D01*
X27628Y-43535D02*
X27771Y-43535D01*
X27600Y-43621D02*
X27700Y-43321D01*
X27800Y-43621D01*
X27900Y-43621D02*
X27900Y-43321D01*
X28071Y-43621D01*
X28071Y-43321D01*
X28342Y-43421D02*
X28342Y-43621D01*
X28271Y-43307D02*
X28200Y-43521D01*
X28385Y-43521D01*
X27628Y-44535D02*
X27771Y-44535D01*
X27600Y-44621D02*
X27700Y-44321D01*
X27800Y-44621D01*
X27900Y-44621D02*
X27900Y-44321D01*
X28071Y-44621D01*
X28071Y-44321D01*
X28357Y-44321D02*
X28214Y-44321D01*
X28200Y-44464D01*
X28214Y-44450D01*
X28242Y-44435D01*
X28314Y-44435D01*
X28342Y-44450D01*
X28357Y-44464D01*
X28371Y-44492D01*
X28371Y-44564D01*
X28357Y-44592D01*
X28342Y-44607D01*
X28314Y-44621D01*
X28242Y-44621D01*
X28214Y-44607D01*
X28200Y-44592D01*
G54D10*
X53000Y-56500D02*
X54000Y-56500D01*
X53000Y-56500D02*
X53000Y-57500D01*
X53000Y-54500D02*
X53000Y-55500D01*
X53000Y-55500D02*
X54000Y-55500D01*
X50000Y-55500D02*
X51000Y-55500D01*
X51000Y-55500D02*
X51000Y-54500D01*
X50000Y-56500D02*
X51000Y-56500D01*
X51000Y-56500D02*
X51000Y-57500D01*
X50000Y-57500D02*
X54000Y-57500D01*
X54000Y-57500D02*
X54000Y-54500D01*
X54000Y-54500D02*
X50000Y-54500D01*
X50000Y-54500D02*
X50000Y-57500D01*
X58000Y-56500D02*
X59000Y-56500D01*
X58000Y-56500D02*
X58000Y-57500D01*
X58000Y-54500D02*
X58000Y-55500D01*
X58000Y-55500D02*
X59000Y-55500D01*
X55000Y-55500D02*
X56000Y-55500D01*
X56000Y-55500D02*
X56000Y-54500D01*
X55000Y-56500D02*
X56000Y-56500D01*
X56000Y-56500D02*
X56000Y-57500D01*
X55000Y-57500D02*
X59000Y-57500D01*
X59000Y-57500D02*
X59000Y-54500D01*
X59000Y-54500D02*
X55000Y-54500D01*
X55000Y-54500D02*
X55000Y-57500D01*
X28500Y-23500D02*
X28500Y-24500D01*
X28500Y-23500D02*
X27500Y-23500D01*
X30500Y-23500D02*
X29500Y-23500D01*
X29500Y-23500D02*
X29500Y-24500D01*
X29500Y-20500D02*
X29500Y-21500D01*
X29500Y-21500D02*
X30500Y-21500D01*
X28500Y-20500D02*
X28500Y-21500D01*
X28500Y-21500D02*
X27500Y-21500D01*
X27500Y-20500D02*
X27500Y-24500D01*
X27500Y-24500D02*
X30500Y-24500D01*
X30500Y-24500D02*
X30500Y-20500D01*
X30500Y-20500D02*
X27500Y-20500D01*
G54D14*
X25500Y-23500D02*
X26500Y-23500D01*
X26500Y-23500D02*
X26500Y-29500D01*
X26500Y-29500D02*
X25500Y-29500D01*
X25500Y-29500D02*
X25500Y-23500D01*
X25500Y-24500D02*
X26500Y-24500D01*
X50000Y-32000D02*
X49000Y-32000D01*
X49000Y-32000D02*
X49000Y-27000D01*
X49000Y-27000D02*
X50000Y-27000D01*
X50000Y-27000D02*
X50000Y-32000D01*
X50000Y-31000D02*
X49000Y-31000D01*
X35000Y-46500D02*
X35000Y-47500D01*
X35000Y-47500D02*
X32000Y-47500D01*
X32000Y-47500D02*
X32000Y-46500D01*
X32000Y-46500D02*
X35000Y-46500D01*
X34000Y-47500D02*
X34000Y-46500D01*
X46000Y-46500D02*
X46000Y-47500D01*
X46000Y-47500D02*
X43000Y-47500D01*
X43000Y-47500D02*
X43000Y-46500D01*
X43000Y-46500D02*
X46000Y-46500D01*
X45000Y-47500D02*
X45000Y-46500D01*
X45000Y-56500D02*
X45000Y-57500D01*
X45000Y-57500D02*
X42000Y-57500D01*
X42000Y-57500D02*
X42000Y-56500D01*
X42000Y-56500D02*
X45000Y-56500D01*
X44000Y-57500D02*
X44000Y-56500D01*
X33000Y-57500D02*
X33000Y-56500D01*
X33000Y-56500D02*
X36000Y-56500D01*
X36000Y-56500D02*
X36000Y-57500D01*
X36000Y-57500D02*
X33000Y-57500D01*
X34000Y-56500D02*
X34000Y-57500D01*
X47500Y-25000D02*
X48500Y-25000D01*
X48500Y-25000D02*
X48500Y-28000D01*
X48500Y-28000D02*
X47500Y-28000D01*
X47500Y-28000D02*
X47500Y-25000D01*
X48500Y-26000D02*
X47500Y-26000D01*
X54500Y-53500D02*
X54100Y-53500D01*
X54100Y-53500D02*
X54100Y-53900D01*
X54100Y-53900D02*
X50900Y-53900D01*
X50900Y-53900D02*
X50900Y-53100D01*
X50900Y-53100D02*
X54100Y-53100D01*
X54100Y-53100D02*
X54100Y-53500D01*
X54100Y-53700D02*
X53900Y-53900D01*
X50500Y-53500D02*
X50900Y-53500D01*
X59500Y-53500D02*
X59100Y-53500D01*
X59100Y-53500D02*
X59100Y-53900D01*
X59100Y-53900D02*
X55900Y-53900D01*
X55900Y-53900D02*
X55900Y-53100D01*
X55900Y-53100D02*
X59100Y-53100D01*
X59100Y-53100D02*
X59100Y-53500D01*
X59100Y-53700D02*
X58900Y-53900D01*
X55500Y-53500D02*
X55900Y-53500D01*
G54D15*
X41220Y-45000D02*
X41220Y-44000D01*
G54D11*
X40139Y-44115D02*
G75*
G03X40000Y-44500I460J-384D01*
G74*
G01*
X40000Y-44500D02*
G75*
G03X40151Y-44897I599J0D01*
G74*
G01*
X41199Y-44500D02*
G75*
G03X41055Y-44110I-599J0D01*
G74*
G01*
X41060Y-44884D02*
G75*
G03X41200Y-44500I-460J384D01*
G74*
G01*
X41087Y-44150D02*
G75*
G03X40600Y-43900I-487J-349D01*
G74*
G01*
X40600Y-43900D02*
G75*
G03X40120Y-44139I0J-600D01*
G74*
G01*
X40600Y-45099D02*
G75*
G03X41072Y-44868I0J599D01*
G74*
G01*
X40126Y-44868D02*
G75*
G03X40600Y-45100I473J368D01*
G74*
G01*
X40600Y-44250D02*
G75*
G03X40350Y-44500I0J-250D01*
G74*
G01*
X40600Y-44100D02*
G75*
G03X40200Y-44500I0J-400D01*
G74*
G01*
X40600Y-44750D02*
G75*
G03X40850Y-44500I0J250D01*
G74*
G01*
X40600Y-44900D02*
G75*
G03X41000Y-44500I0J400D01*
G74*
G01*
G54D15*
X41213Y-43986D02*
G75*
G03X40600Y-43700I-613J-513D01*
G74*
G01*
X40600Y-43701D02*
G75*
G03X39895Y-44123I0J-799D01*
G74*
G01*
X40601Y-45298D02*
G75*
G03X41210Y-45015I-1J798D01*
G74*
G01*
X39905Y-44897D02*
G75*
G03X40600Y-45300I694J397D01*
G74*
G01*
X39895Y-44120D02*
G75*
G03X39800Y-44500I704J-379D01*
G74*
G01*
X39800Y-44500D02*
G75*
G03X39918Y-44918I799J0D01*
G74*
G01*
X56720Y-26500D02*
X56720Y-25500D01*
G54D11*
X55639Y-25615D02*
G75*
G03X55500Y-26000I460J-384D01*
G74*
G01*
X55500Y-26000D02*
G75*
G03X55651Y-26397I599J0D01*
G74*
G01*
X56699Y-26000D02*
G75*
G03X56555Y-25610I-599J0D01*
G74*
G01*
X56560Y-26384D02*
G75*
G03X56700Y-26000I-460J384D01*
G74*
G01*
X56587Y-25650D02*
G75*
G03X56100Y-25400I-487J-349D01*
G74*
G01*
X56100Y-25400D02*
G75*
G03X55620Y-25639I0J-600D01*
G74*
G01*
X56100Y-26599D02*
G75*
G03X56572Y-26368I0J599D01*
G74*
G01*
X55626Y-26368D02*
G75*
G03X56100Y-26600I473J368D01*
G74*
G01*
X56100Y-25750D02*
G75*
G03X55850Y-26000I0J-250D01*
G74*
G01*
X56100Y-25600D02*
G75*
G03X55700Y-26000I0J-400D01*
G74*
G01*
X56100Y-26250D02*
G75*
G03X56350Y-26000I0J250D01*
G74*
G01*
X56100Y-26400D02*
G75*
G03X56500Y-26000I0J400D01*
G74*
G01*
G54D15*
X56713Y-25486D02*
G75*
G03X56100Y-25200I-613J-513D01*
G74*
G01*
X56100Y-25201D02*
G75*
G03X55395Y-25623I0J-799D01*
G74*
G01*
X56101Y-26798D02*
G75*
G03X56710Y-26515I-1J798D01*
G74*
G01*
X55405Y-26397D02*
G75*
G03X56100Y-26800I694J397D01*
G74*
G01*
X55395Y-25620D02*
G75*
G03X55300Y-26000I704J-379D01*
G74*
G01*
X55300Y-26000D02*
G75*
G03X55418Y-26418I799J0D01*
G74*
G01*
X41220Y-39000D02*
X41220Y-38000D01*
G54D11*
X40139Y-38115D02*
G75*
G03X40000Y-38500I460J-384D01*
G74*
G01*
X40000Y-38500D02*
G75*
G03X40151Y-38897I599J0D01*
G74*
G01*
X41199Y-38500D02*
G75*
G03X41055Y-38110I-599J0D01*
G74*
G01*
X41060Y-38884D02*
G75*
G03X41200Y-38500I-460J384D01*
G74*
G01*
X41087Y-38150D02*
G75*
G03X40600Y-37900I-487J-349D01*
G74*
G01*
X40600Y-37900D02*
G75*
G03X40120Y-38139I0J-600D01*
G74*
G01*
X40600Y-39099D02*
G75*
G03X41072Y-38868I0J599D01*
G74*
G01*
X40126Y-38868D02*
G75*
G03X40600Y-39100I473J368D01*
G74*
G01*
X40600Y-38250D02*
G75*
G03X40350Y-38500I0J-250D01*
G74*
G01*
X40600Y-38100D02*
G75*
G03X40200Y-38500I0J-400D01*
G74*
G01*
X40600Y-38750D02*
G75*
G03X40850Y-38500I0J250D01*
G74*
G01*
X40600Y-38900D02*
G75*
G03X41000Y-38500I0J400D01*
G74*
G01*
G54D15*
X41213Y-37986D02*
G75*
G03X40600Y-37700I-613J-513D01*
G74*
G01*
X40600Y-37701D02*
G75*
G03X39895Y-38123I0J-799D01*
G74*
G01*
X40601Y-39298D02*
G75*
G03X41210Y-39015I-1J798D01*
G74*
G01*
X39905Y-38897D02*
G75*
G03X40600Y-39300I694J397D01*
G74*
G01*
X39895Y-38120D02*
G75*
G03X39800Y-38500I704J-379D01*
G74*
G01*
X39800Y-38500D02*
G75*
G03X39918Y-38918I799J0D01*
G74*
G01*
X41220Y-41000D02*
X41220Y-40000D01*
G54D11*
X40139Y-40115D02*
G75*
G03X40000Y-40500I460J-384D01*
G74*
G01*
X40000Y-40500D02*
G75*
G03X40151Y-40897I599J0D01*
G74*
G01*
X41199Y-40500D02*
G75*
G03X41055Y-40110I-599J0D01*
G74*
G01*
X41060Y-40884D02*
G75*
G03X41200Y-40500I-460J384D01*
G74*
G01*
X41087Y-40150D02*
G75*
G03X40600Y-39900I-487J-349D01*
G74*
G01*
X40600Y-39900D02*
G75*
G03X40120Y-40139I0J-600D01*
G74*
G01*
X40600Y-41099D02*
G75*
G03X41072Y-40868I0J599D01*
G74*
G01*
X40126Y-40868D02*
G75*
G03X40600Y-41100I473J368D01*
G74*
G01*
X40600Y-40250D02*
G75*
G03X40350Y-40500I0J-250D01*
G74*
G01*
X40600Y-40100D02*
G75*
G03X40200Y-40500I0J-400D01*
G74*
G01*
X40600Y-40750D02*
G75*
G03X40850Y-40500I0J250D01*
G74*
G01*
X40600Y-40900D02*
G75*
G03X41000Y-40500I0J400D01*
G74*
G01*
G54D15*
X41213Y-39986D02*
G75*
G03X40600Y-39700I-613J-513D01*
G74*
G01*
X40600Y-39701D02*
G75*
G03X39895Y-40123I0J-799D01*
G74*
G01*
X40601Y-41298D02*
G75*
G03X41210Y-41015I-1J798D01*
G74*
G01*
X39905Y-40897D02*
G75*
G03X40600Y-41300I694J397D01*
G74*
G01*
X39895Y-40120D02*
G75*
G03X39800Y-40500I704J-379D01*
G74*
G01*
X39800Y-40500D02*
G75*
G03X39918Y-40918I799J0D01*
G74*
G01*
X41220Y-43000D02*
X41220Y-42000D01*
G54D11*
X40139Y-42115D02*
G75*
G03X40000Y-42500I460J-384D01*
G74*
G01*
X40000Y-42500D02*
G75*
G03X40151Y-42897I599J0D01*
G74*
G01*
X41199Y-42500D02*
G75*
G03X41055Y-42110I-599J0D01*
G74*
G01*
X41060Y-42884D02*
G75*
G03X41200Y-42500I-460J384D01*
G74*
G01*
X41087Y-42150D02*
G75*
G03X40600Y-41900I-487J-349D01*
G74*
G01*
X40600Y-41900D02*
G75*
G03X40120Y-42139I0J-600D01*
G74*
G01*
X40600Y-43099D02*
G75*
G03X41072Y-42868I0J599D01*
G74*
G01*
X40126Y-42868D02*
G75*
G03X40600Y-43100I473J368D01*
G74*
G01*
X40600Y-42250D02*
G75*
G03X40350Y-42500I0J-250D01*
G74*
G01*
X40600Y-42100D02*
G75*
G03X40200Y-42500I0J-400D01*
G74*
G01*
X40600Y-42750D02*
G75*
G03X40850Y-42500I0J250D01*
G74*
G01*
X40600Y-42900D02*
G75*
G03X41000Y-42500I0J400D01*
G74*
G01*
G54D15*
X41213Y-41986D02*
G75*
G03X40600Y-41700I-613J-513D01*
G74*
G01*
X40600Y-41701D02*
G75*
G03X39895Y-42123I0J-799D01*
G74*
G01*
X40601Y-43298D02*
G75*
G03X41210Y-43015I-1J798D01*
G74*
G01*
X39905Y-42897D02*
G75*
G03X40600Y-43300I694J397D01*
G74*
G01*
X39895Y-42120D02*
G75*
G03X39800Y-42500I704J-379D01*
G74*
G01*
X39800Y-42500D02*
G75*
G03X39918Y-42918I799J0D01*
G74*
G01*
G54D16*
X41000Y-35750D02*
X41000Y-33250D01*
X39000Y-35750D02*
X39000Y-33250D01*
X40000Y-32250D02*
G75*
G03X39000Y-33250I0J-1000D01*
G74*
G01*
X41000Y-33250D02*
G75*
G03X40000Y-32250I-1000J0D01*
G74*
G01*
X39000Y-35750D02*
G75*
G03X40000Y-36750I1000J0D01*
G74*
G01*
X40000Y-36750D02*
G75*
G03X41000Y-35750I0J1000D01*
G74*
G01*
G54D17*
X39500Y-48500D02*
X39500Y-48500D01*
X39500Y-48500D02*
X39500Y-49000D01*
X39500Y-49000D02*
X38500Y-49000D01*
X38500Y-49000D02*
X38500Y-48500D01*
X40000Y-48500D02*
X40000Y-57500D01*
X40000Y-57500D02*
X38000Y-57500D01*
X38000Y-57500D02*
X38000Y-48500D01*
X38000Y-48500D02*
X40000Y-48500D01*
G54D14*
X39600Y-31600D02*
X42400Y-31600D01*
X42400Y-31600D02*
X42400Y-32400D01*
X42400Y-32400D02*
X39600Y-32400D01*
X39600Y-32400D02*
X39600Y-31600D01*
X39600Y-31800D02*
X39800Y-31600D01*
X31650Y-46600D02*
X31650Y-49400D01*
X31650Y-49400D02*
X30850Y-49400D01*
X30850Y-49400D02*
X30850Y-46600D01*
X30850Y-46600D02*
X31650Y-46600D01*
X31450Y-46600D02*
X31650Y-46800D01*
X27600Y-24600D02*
X30400Y-24600D01*
X30400Y-24600D02*
X30400Y-25400D01*
X30400Y-25400D02*
X27600Y-25400D01*
X27600Y-25400D02*
X27600Y-24600D01*
X27600Y-24800D02*
X27800Y-24600D01*
X48400Y-49800D02*
X48400Y-52600D01*
X48400Y-52600D02*
X47600Y-52600D01*
X47600Y-52600D02*
X47600Y-49800D01*
X47600Y-49800D02*
X48400Y-49800D01*
X48200Y-49800D02*
X48400Y-50000D01*
X30100Y-36900D02*
X30100Y-34100D01*
X30100Y-34100D02*
X30900Y-34100D01*
X30900Y-34100D02*
X30900Y-36900D01*
X30900Y-36900D02*
X30100Y-36900D01*
X30300Y-36900D02*
X30100Y-36700D01*
X57900Y-51900D02*
X55100Y-51900D01*
X55100Y-51900D02*
X55100Y-51100D01*
X55100Y-51100D02*
X57900Y-51100D01*
X57900Y-51100D02*
X57900Y-51900D01*
X57900Y-51700D02*
X57700Y-51900D01*
X52900Y-51900D02*
X50100Y-51900D01*
X50100Y-51900D02*
X50100Y-51100D01*
X50100Y-51100D02*
X52900Y-51100D01*
X52900Y-51100D02*
X52900Y-51900D01*
X52900Y-51700D02*
X52700Y-51900D01*
X56900Y-21100D02*
X56900Y-23900D01*
X56900Y-23900D02*
X56100Y-23900D01*
X56100Y-23900D02*
X56100Y-21100D01*
X56100Y-21100D02*
X56900Y-21100D01*
X56700Y-21100D02*
X56900Y-21300D01*
G54D18*
X49001Y-48250D02*
G75*
G03X49001Y-48250I-1001J0D01*
G74*
G01*
X31751Y-51000D02*
G75*
G03X31751Y-51000I-1001J0D01*
G74*
G01*
X49001Y-23500D02*
G75*
G03X49001Y-23500I-1001J0D01*
G74*
G01*
X53001Y-22000D02*
G75*
G03X53001Y-22000I-1001J0D01*
G74*
G01*
X47001Y-23500D02*
G75*
G03X47001Y-23500I-1001J0D01*
G74*
G01*
X53001Y-24000D02*
G75*
G03X53001Y-24000I-1001J0D01*
G74*
G01*
X55501Y-24000D02*
G75*
G03X55501Y-24000I-1001J0D01*
G74*
G01*
G54D14*
X43480Y-34000D02*
X41500Y-34000D01*
X41500Y-34000D02*
X41500Y-33000D01*
X41500Y-33000D02*
X43500Y-33000D01*
X43500Y-33000D02*
X43500Y-34000D01*
X43500Y-33750D02*
X43250Y-34000D01*
X43480Y-36000D02*
X41500Y-36000D01*
X41500Y-36000D02*
X41500Y-35000D01*
X41500Y-35000D02*
X43500Y-35000D01*
X43500Y-35000D02*
X43500Y-36000D01*
X43500Y-35750D02*
X43250Y-36000D01*
G54D17*
X44022Y-19675D02*
X40478Y-19675D01*
X44022Y-18297D02*
X40478Y-18297D01*
X40478Y-18297D02*
X40478Y-24006D01*
X40478Y-24006D02*
X44022Y-24006D01*
X44022Y-24006D02*
X44022Y-18297D01*
G54D11*
X24500Y-47000D02*
X24500Y-55000D01*
X24500Y-55000D02*
X27500Y-55000D01*
X27500Y-55000D02*
X27500Y-47000D01*
X27500Y-47000D02*
X24500Y-47000D01*
G54D14*
X50000Y-48500D02*
X50000Y-48500D01*
X50000Y-48500D02*
X50000Y-47500D01*
X50000Y-47500D02*
X60000Y-47500D01*
X60000Y-48500D02*
X50000Y-48500D01*
X51000Y-48500D02*
X51000Y-47500D01*
X60000Y-47500D02*
X61750Y-47500D01*
X61750Y-47500D02*
X62000Y-47500D01*
X62000Y-47500D02*
X62000Y-48500D01*
X62000Y-48500D02*
X60000Y-48500D01*
X50000Y-49500D02*
X50000Y-49500D01*
X50000Y-49500D02*
X50000Y-48500D01*
X50000Y-48500D02*
X60000Y-48500D01*
X60000Y-49500D02*
X50000Y-49500D01*
X51000Y-49500D02*
X51000Y-48500D01*
X60000Y-48500D02*
X61750Y-48500D01*
X61750Y-48500D02*
X62000Y-48500D01*
X62000Y-48500D02*
X62000Y-49500D01*
X62000Y-49500D02*
X60000Y-49500D01*
G54D11*
X48500Y-36000D02*
X48500Y-28000D01*
X48500Y-28000D02*
X45500Y-28000D01*
X45500Y-28000D02*
X45500Y-36000D01*
X45500Y-36000D02*
X48500Y-36000D01*
X48500Y-45000D02*
X48500Y-37000D01*
X48500Y-37000D02*
X45500Y-37000D01*
X45500Y-37000D02*
X45500Y-45000D01*
X45500Y-45000D02*
X48500Y-45000D01*
X27500Y-32000D02*
X27500Y-38000D01*
X27500Y-38000D02*
X24500Y-38000D01*
X24500Y-38000D02*
X24500Y-32000D01*
X27500Y-32000D02*
X24500Y-32000D01*
X27500Y-39000D02*
X27500Y-45000D01*
X27500Y-45000D02*
X24500Y-45000D01*
X24500Y-45000D02*
X24500Y-39000D01*
X27500Y-39000D02*
X24500Y-39000D01*
G54D15*
X59250Y-20750D02*
X59500Y-20750D01*
X59500Y-20750D02*
X59500Y-24250D01*
X59500Y-24250D02*
X59250Y-24250D01*
X57750Y-20750D02*
X59250Y-20750D01*
X59250Y-20750D02*
X59250Y-24250D01*
X59250Y-24250D02*
X57750Y-24250D01*
X57750Y-24250D02*
X57750Y-20750D01*
G54D14*
X36000Y-49000D02*
X36000Y-52000D01*
X36000Y-52000D02*
X35000Y-52000D01*
X35000Y-52000D02*
X35000Y-49000D01*
X35000Y-49000D02*
X36000Y-49000D01*
X36000Y-51750D02*
X35000Y-51750D01*
X35000Y-51500D02*
X36000Y-51500D01*
X35500Y-49000D02*
X35500Y-48500D01*
X35500Y-52000D02*
X35500Y-52500D01*
X46000Y-51000D02*
X46000Y-54000D01*
X46000Y-54000D02*
X45000Y-54000D01*
X45000Y-54000D02*
X45000Y-51000D01*
X45000Y-51000D02*
X46000Y-51000D01*
X46000Y-53750D02*
X45000Y-53750D01*
X45000Y-53500D02*
X46000Y-53500D01*
X45500Y-51000D02*
X45500Y-50500D01*
X45500Y-54000D02*
X45500Y-54500D01*
X43000Y-49000D02*
X43000Y-52000D01*
X43000Y-52000D02*
X42000Y-52000D01*
X42000Y-52000D02*
X42000Y-49000D01*
X42000Y-49000D02*
X43000Y-49000D01*
X43000Y-51750D02*
X42000Y-51750D01*
X42000Y-51500D02*
X43000Y-51500D01*
X42500Y-49000D02*
X42500Y-48500D01*
X42500Y-52000D02*
X42500Y-52500D01*
X44000Y-54000D02*
X44000Y-51000D01*
X44000Y-51000D02*
X45000Y-51000D01*
X45000Y-51000D02*
X45000Y-54000D01*
X45000Y-54000D02*
X44000Y-54000D01*
X44000Y-51250D02*
X45000Y-51250D01*
X45000Y-51500D02*
X44000Y-51500D01*
X44500Y-54000D02*
X44500Y-54500D01*
X44500Y-51000D02*
X44500Y-50500D01*
X43000Y-52000D02*
X43000Y-49000D01*
X43000Y-49000D02*
X44000Y-49000D01*
X44000Y-49000D02*
X44000Y-52000D01*
X44000Y-52000D02*
X43000Y-52000D01*
X43000Y-49250D02*
X44000Y-49250D01*
X44000Y-49500D02*
X43000Y-49500D01*
X43500Y-52000D02*
X43500Y-52500D01*
X43500Y-49000D02*
X43500Y-48500D01*
X33000Y-51000D02*
X33000Y-54000D01*
X33000Y-54000D02*
X32000Y-54000D01*
X32000Y-54000D02*
X32000Y-51000D01*
X32000Y-51000D02*
X33000Y-51000D01*
X33000Y-53750D02*
X32000Y-53750D01*
X32000Y-53500D02*
X33000Y-53500D01*
X32500Y-51000D02*
X32500Y-50500D01*
X32500Y-54000D02*
X32500Y-54500D01*
X33000Y-54000D02*
X33000Y-51000D01*
X33000Y-51000D02*
X34000Y-51000D01*
X34000Y-51000D02*
X34000Y-54000D01*
X34000Y-54000D02*
X33000Y-54000D01*
X33000Y-51250D02*
X34000Y-51250D01*
X34000Y-51500D02*
X33000Y-51500D01*
X33500Y-54000D02*
X33500Y-54500D01*
X33500Y-51000D02*
X33500Y-50500D01*
X34000Y-52000D02*
X34000Y-49000D01*
X34000Y-49000D02*
X35000Y-49000D01*
X35000Y-49000D02*
X35000Y-52000D01*
X35000Y-52000D02*
X34000Y-52000D01*
X34000Y-49250D02*
X35000Y-49250D01*
X35000Y-49500D02*
X34000Y-49500D01*
X34500Y-52000D02*
X34500Y-52500D01*
X34500Y-49000D02*
X34500Y-48500D01*
X46500Y-21000D02*
X49500Y-21000D01*
X49500Y-21000D02*
X49500Y-22000D01*
X49500Y-22000D02*
X46500Y-22000D01*
X46500Y-22000D02*
X46500Y-21000D01*
X49250Y-21000D02*
X49250Y-22000D01*
X49000Y-22000D02*
X49000Y-21000D01*
X46500Y-21500D02*
X46000Y-21500D01*
X49500Y-21500D02*
X50000Y-21500D01*
G54D16*
X42500Y-35000D02*
X43500Y-35000D01*
X42500Y-34000D02*
X43500Y-34000D01*
G54D14*
X42500Y-35000D02*
X42500Y-34000D01*
X43500Y-34000D02*
X43500Y-35000D01*
G54D19*
G36*
X28557Y-57768D02*
X28577Y-57757D01*
X28624Y-57728D01*
X28689Y-57685D01*
X28767Y-57633D01*
X28845Y-57581D01*
X28909Y-57538D01*
X28954Y-57509D01*
X28973Y-57498D01*
X28983Y-57502D01*
X29020Y-57520D01*
X29074Y-57548D01*
X29105Y-57564D01*
X29154Y-57585D01*
X29179Y-57590D01*
X29183Y-57583D01*
X29201Y-57545D01*
X29229Y-57481D01*
X29266Y-57395D01*
X29309Y-57295D01*
X29354Y-57188D01*
X29400Y-57078D01*
X29444Y-56973D01*
X29482Y-56879D01*
X29513Y-56802D01*
X29533Y-56749D01*
X29541Y-56726D01*
X29539Y-56721D01*
X29514Y-56697D01*
X29471Y-56665D01*
X29378Y-56589D01*
X29286Y-56474D01*
X29230Y-56344D01*
X29211Y-56199D01*
X29227Y-56065D01*
X29280Y-55936D01*
X29370Y-55820D01*
X29479Y-55733D01*
X29607Y-55679D01*
X29750Y-55661D01*
X29887Y-55677D01*
X30019Y-55729D01*
X30135Y-55817D01*
X30184Y-55874D01*
X30252Y-55991D01*
X30290Y-56117D01*
X30294Y-56149D01*
X30289Y-56287D01*
X30248Y-56420D01*
X30175Y-56539D01*
X30073Y-56636D01*
X30061Y-56645D01*
X30014Y-56680D01*
X29982Y-56704D01*
X29958Y-56724D01*
X30134Y-57148D01*
X30162Y-57215D01*
X30210Y-57331D01*
X30253Y-57431D01*
X30286Y-57510D01*
X30310Y-57563D01*
X30320Y-57585D01*
X30321Y-57586D01*
X30337Y-57589D01*
X30369Y-57577D01*
X30428Y-57548D01*
X30467Y-57528D01*
X30512Y-57506D01*
X30533Y-57498D01*
X30550Y-57508D01*
X30593Y-57536D01*
X30656Y-57578D01*
X30732Y-57629D01*
X30804Y-57678D01*
X30870Y-57722D01*
X30919Y-57753D01*
X30942Y-57766D01*
X30946Y-57766D01*
X30967Y-57754D01*
X31005Y-57722D01*
X31063Y-57668D01*
X31144Y-57587D01*
X31157Y-57575D01*
X31224Y-57506D01*
X31278Y-57449D01*
X31315Y-57408D01*
X31328Y-57390D01*
X31328Y-57390D01*
X31316Y-57367D01*
X31286Y-57319D01*
X31242Y-57251D01*
X31188Y-57173D01*
X31048Y-56969D01*
X31125Y-56776D01*
X31148Y-56717D01*
X31178Y-56646D01*
X31201Y-56595D01*
X31212Y-56573D01*
X31233Y-56565D01*
X31286Y-56553D01*
X31362Y-56537D01*
X31453Y-56520D01*
X31540Y-56504D01*
X31618Y-56489D01*
X31675Y-56478D01*
X31700Y-56473D01*
X31706Y-56469D01*
X31712Y-56457D01*
X31715Y-56430D01*
X31717Y-56383D01*
X31718Y-56308D01*
X31718Y-56199D01*
X31718Y-56187D01*
X31717Y-56084D01*
X31715Y-56001D01*
X31712Y-55947D01*
X31709Y-55926D01*
X31708Y-55926D01*
X31684Y-55920D01*
X31629Y-55908D01*
X31550Y-55893D01*
X31457Y-55875D01*
X31451Y-55874D01*
X31358Y-55856D01*
X31280Y-55840D01*
X31225Y-55827D01*
X31202Y-55820D01*
X31197Y-55813D01*
X31179Y-55777D01*
X31152Y-55719D01*
X31121Y-55649D01*
X31091Y-55576D01*
X31064Y-55510D01*
X31047Y-55461D01*
X31041Y-55439D01*
X31042Y-55438D01*
X31056Y-55416D01*
X31088Y-55368D01*
X31133Y-55301D01*
X31187Y-55221D01*
X31191Y-55215D01*
X31245Y-55137D01*
X31288Y-55070D01*
X31317Y-55023D01*
X31328Y-55001D01*
X31328Y-55000D01*
X31310Y-54976D01*
X31270Y-54932D01*
X31213Y-54872D01*
X31144Y-54802D01*
X31122Y-54781D01*
X31045Y-54706D01*
X30992Y-54657D01*
X30959Y-54631D01*
X30943Y-54625D01*
X30943Y-54626D01*
X30919Y-54640D01*
X30869Y-54672D01*
X30802Y-54718D01*
X30722Y-54772D01*
X30716Y-54776D01*
X30638Y-54830D01*
X30572Y-54874D01*
X30526Y-54905D01*
X30505Y-54917D01*
X30502Y-54917D01*
X30470Y-54908D01*
X30414Y-54888D01*
X30345Y-54861D01*
X30272Y-54832D01*
X30206Y-54804D01*
X30156Y-54782D01*
X30133Y-54768D01*
X30132Y-54767D01*
X30124Y-54739D01*
X30110Y-54680D01*
X30094Y-54599D01*
X30075Y-54503D01*
X30072Y-54487D01*
X30055Y-54393D01*
X30040Y-54316D01*
X30029Y-54262D01*
X30023Y-54240D01*
X30010Y-54237D01*
X29964Y-54234D01*
X29894Y-54232D01*
X29809Y-54231D01*
X29720Y-54232D01*
X29633Y-54234D01*
X29559Y-54236D01*
X29506Y-54240D01*
X29484Y-54244D01*
X29483Y-54246D01*
X29475Y-54275D01*
X29462Y-54334D01*
X29445Y-54415D01*
X29427Y-54512D01*
X29423Y-54529D01*
X29406Y-54622D01*
X29390Y-54699D01*
X29379Y-54752D01*
X29373Y-54773D01*
X29364Y-54777D01*
X29326Y-54794D01*
X29263Y-54820D01*
X29185Y-54851D01*
X29005Y-54924D01*
X28784Y-54773D01*
X28764Y-54759D01*
X28684Y-54705D01*
X28619Y-54662D01*
X28574Y-54632D01*
X28555Y-54622D01*
X28553Y-54622D01*
X28531Y-54642D01*
X28488Y-54683D01*
X28428Y-54741D01*
X28358Y-54810D01*
X28307Y-54862D01*
X28246Y-54924D01*
X28207Y-54965D01*
X28186Y-54992D01*
X28179Y-55008D01*
X28181Y-55019D01*
X28195Y-55042D01*
X28227Y-55090D01*
X28273Y-55157D01*
X28327Y-55235D01*
X28371Y-55301D01*
X28419Y-55375D01*
X28450Y-55428D01*
X28461Y-55454D01*
X28458Y-55464D01*
X28443Y-55508D01*
X28416Y-55573D01*
X28383Y-55651D01*
X28306Y-55826D01*
X28192Y-55848D01*
X28122Y-55861D01*
X28025Y-55880D01*
X27932Y-55898D01*
X27787Y-55926D01*
X27782Y-56459D01*
X27804Y-56469D01*
X27826Y-56475D01*
X27880Y-56487D01*
X27956Y-56502D01*
X28047Y-56519D01*
X28124Y-56533D01*
X28202Y-56548D01*
X28258Y-56559D01*
X28282Y-56564D01*
X28289Y-56573D01*
X28308Y-56610D01*
X28336Y-56670D01*
X28367Y-56742D01*
X28398Y-56817D01*
X28425Y-56886D01*
X28444Y-56938D01*
X28452Y-56965D01*
X28441Y-56986D01*
X28412Y-57032D01*
X28369Y-57097D01*
X28316Y-57174D01*
X28263Y-57251D01*
X28218Y-57317D01*
X28187Y-57365D01*
X28174Y-57387D01*
X28181Y-57401D01*
X28212Y-57439D01*
X28270Y-57499D01*
X28357Y-57585D01*
X28371Y-57599D01*
X28440Y-57665D01*
X28498Y-57719D01*
X28539Y-57755D01*
X28557Y-57768D01*
X28557Y-57768D01*
G37*
G54D17*
X26900Y-21500D02*
G75*
G03X26900Y-21500I-900J0D01*
G74*
G01*
X61900Y-21500D02*
G75*
G03X61900Y-21500I-900J0D01*
G74*
G01*
X26900Y-56500D02*
G75*
G03X26900Y-56500I-900J0D01*
G74*
G01*
X61900Y-56500D02*
G75*
G03X61900Y-56500I-900J0D01*
G74*
G01*
X35000Y-24500D02*
X35000Y-25000D01*
X35000Y-25000D02*
X34000Y-25000D01*
X34000Y-25000D02*
X34000Y-24500D01*
X37000Y-24500D02*
X37000Y-45500D01*
X37000Y-45500D02*
X32000Y-45500D01*
X32000Y-45500D02*
X32000Y-24500D01*
X32000Y-24500D02*
X37000Y-24500D01*
G54D11*
X39000Y-22500D02*
X32000Y-22500D01*
X32000Y-22500D02*
X32000Y-19500D01*
X32000Y-19500D02*
X39000Y-19500D01*
X39000Y-19500D02*
X39000Y-22500D01*
G54D20*
X42000Y-44500D02*
X42000Y-44300D01*
X42000Y-41500D02*
X42000Y-41700D01*
X42000Y-41700D02*
X41600Y-41700D01*
X41600Y-41700D02*
X41600Y-44300D01*
X41600Y-44300D02*
X42400Y-44300D01*
X42400Y-44300D02*
X42400Y-41700D01*
X42400Y-41700D02*
X42000Y-41700D01*
X41800Y-44300D02*
X41600Y-44100D01*
X43000Y-40500D02*
X43000Y-40300D01*
X43000Y-37500D02*
X43000Y-37700D01*
X43000Y-37700D02*
X42600Y-37700D01*
X42600Y-37700D02*
X42600Y-40300D01*
X42600Y-40300D02*
X43400Y-40300D01*
X43400Y-40300D02*
X43400Y-37700D01*
X43400Y-37700D02*
X43000Y-37700D01*
X42800Y-40300D02*
X42600Y-40100D01*
X42000Y-40500D02*
X42000Y-40300D01*
X42000Y-37500D02*
X42000Y-37700D01*
X42000Y-37700D02*
X41600Y-37700D01*
X41600Y-37700D02*
X41600Y-40300D01*
X41600Y-40300D02*
X42400Y-40300D01*
X42400Y-40300D02*
X42400Y-37700D01*
X42400Y-37700D02*
X42000Y-37700D01*
X41800Y-40300D02*
X41600Y-40100D01*
X43000Y-44500D02*
X43000Y-44300D01*
X43000Y-41500D02*
X43000Y-41700D01*
X43000Y-41700D02*
X42600Y-41700D01*
X42600Y-41700D02*
X42600Y-44300D01*
X42600Y-44300D02*
X43400Y-44300D01*
X43400Y-44300D02*
X43400Y-41700D01*
X43400Y-41700D02*
X43000Y-41700D01*
X42800Y-44300D02*
X42600Y-44100D01*
X29000Y-26000D02*
X29000Y-26200D01*
X29000Y-29000D02*
X29000Y-28800D01*
X29000Y-28800D02*
X29400Y-28800D01*
X29400Y-28800D02*
X29400Y-26200D01*
X29400Y-26200D02*
X28600Y-26200D01*
X28600Y-26200D02*
X28600Y-28800D01*
X28600Y-28800D02*
X29000Y-28800D01*
X29200Y-26200D02*
X29400Y-26400D01*
X30000Y-29000D02*
X30000Y-28800D01*
X30000Y-26000D02*
X30000Y-26200D01*
X30000Y-26200D02*
X29600Y-26200D01*
X29600Y-26200D02*
X29600Y-28800D01*
X29600Y-28800D02*
X30400Y-28800D01*
X30400Y-28800D02*
X30400Y-26200D01*
X30400Y-26200D02*
X30000Y-26200D01*
X29800Y-28800D02*
X29600Y-28600D01*
X28000Y-26000D02*
X28000Y-26200D01*
X28000Y-29000D02*
X28000Y-28800D01*
X28000Y-28800D02*
X28400Y-28800D01*
X28400Y-28800D02*
X28400Y-26200D01*
X28400Y-26200D02*
X27600Y-26200D01*
X27600Y-26200D02*
X27600Y-28800D01*
X27600Y-28800D02*
X28000Y-28800D01*
X28200Y-26200D02*
X28400Y-26400D01*
X58500Y-26000D02*
X58700Y-26000D01*
X61500Y-26000D02*
X61300Y-26000D01*
X61300Y-26000D02*
X61300Y-25600D01*
X61300Y-25600D02*
X58700Y-25600D01*
X58700Y-25600D02*
X58700Y-26400D01*
X58700Y-26400D02*
X61300Y-26400D01*
X61300Y-26400D02*
X61300Y-26000D01*
X58700Y-25800D02*
X58900Y-25600D01*
G54D11*
X49714Y-56507D02*
X49728Y-56464D01*
X49742Y-56450D01*
X49771Y-56435D01*
X49814Y-56435D01*
X49842Y-56450D01*
X49857Y-56464D01*
X49871Y-56492D01*
X49871Y-56607D01*
X49571Y-56607D01*
X49571Y-56507D01*
X49585Y-56478D01*
X49600Y-56464D01*
X49628Y-56450D01*
X49657Y-56450D01*
X49685Y-56464D01*
X49700Y-56478D01*
X49714Y-56507D01*
X49714Y-56607D01*
X49571Y-56307D02*
X49814Y-56307D01*
X49842Y-56292D01*
X49857Y-56278D01*
X49871Y-56250D01*
X49871Y-56192D01*
X49857Y-56164D01*
X49842Y-56150D01*
X49814Y-56135D01*
X49571Y-56135D01*
X49571Y-56035D02*
X49571Y-55864D01*
X49871Y-55949D02*
X49571Y-55949D01*
X49900Y-55835D02*
X49900Y-55607D01*
X49571Y-55478D02*
X49571Y-55450D01*
X49585Y-55421D01*
X49600Y-55407D01*
X49628Y-55392D01*
X49685Y-55378D01*
X49757Y-55378D01*
X49814Y-55392D01*
X49842Y-55407D01*
X49857Y-55421D01*
X49871Y-55450D01*
X49871Y-55478D01*
X49857Y-55507D01*
X49842Y-55521D01*
X49814Y-55535D01*
X49757Y-55550D01*
X49685Y-55550D01*
X49628Y-55535D01*
X49600Y-55521D01*
X49585Y-55507D01*
X49571Y-55478D01*
X54714Y-56507D02*
X54728Y-56464D01*
X54742Y-56450D01*
X54771Y-56435D01*
X54814Y-56435D01*
X54842Y-56450D01*
X54857Y-56464D01*
X54871Y-56492D01*
X54871Y-56607D01*
X54571Y-56607D01*
X54571Y-56507D01*
X54585Y-56478D01*
X54600Y-56464D01*
X54628Y-56450D01*
X54657Y-56450D01*
X54685Y-56464D01*
X54700Y-56478D01*
X54714Y-56507D01*
X54714Y-56607D01*
X54571Y-56307D02*
X54814Y-56307D01*
X54842Y-56292D01*
X54857Y-56278D01*
X54871Y-56250D01*
X54871Y-56192D01*
X54857Y-56164D01*
X54842Y-56150D01*
X54814Y-56135D01*
X54571Y-56135D01*
X54571Y-56035D02*
X54571Y-55864D01*
X54871Y-55949D02*
X54571Y-55949D01*
X54900Y-55835D02*
X54900Y-55607D01*
X54871Y-55378D02*
X54871Y-55550D01*
X54871Y-55464D02*
X54571Y-55464D01*
X54614Y-55492D01*
X54642Y-55521D01*
X54657Y-55550D01*
X30871Y-23014D02*
X30728Y-23114D01*
X30871Y-23185D02*
X30571Y-23185D01*
X30571Y-23071D01*
X30585Y-23042D01*
X30600Y-23028D01*
X30628Y-23014D01*
X30671Y-23014D01*
X30700Y-23028D01*
X30714Y-23042D01*
X30728Y-23071D01*
X30728Y-23185D01*
X30857Y-22771D02*
X30871Y-22800D01*
X30871Y-22857D01*
X30857Y-22885D01*
X30828Y-22900D01*
X30714Y-22900D01*
X30685Y-22885D01*
X30671Y-22857D01*
X30671Y-22800D01*
X30685Y-22771D01*
X30714Y-22757D01*
X30742Y-22757D01*
X30771Y-22900D01*
X30857Y-22642D02*
X30871Y-22614D01*
X30871Y-22557D01*
X30857Y-22528D01*
X30828Y-22514D01*
X30814Y-22514D01*
X30785Y-22528D01*
X30771Y-22557D01*
X30771Y-22600D01*
X30757Y-22628D01*
X30728Y-22642D01*
X30714Y-22642D01*
X30685Y-22628D01*
X30671Y-22600D01*
X30671Y-22557D01*
X30685Y-22528D01*
X30857Y-22271D02*
X30871Y-22300D01*
X30871Y-22357D01*
X30857Y-22385D01*
X30828Y-22400D01*
X30714Y-22400D01*
X30685Y-22385D01*
X30671Y-22357D01*
X30671Y-22300D01*
X30685Y-22271D01*
X30714Y-22257D01*
X30742Y-22257D01*
X30771Y-22400D01*
X30671Y-22171D02*
X30671Y-22057D01*
X30571Y-22128D02*
X30828Y-22128D01*
X30857Y-22114D01*
X30871Y-22085D01*
X30871Y-22057D01*
X30871Y-21800D02*
X30871Y-21971D01*
X30871Y-21885D02*
X30571Y-21885D01*
X30614Y-21914D01*
X30642Y-21942D01*
X30657Y-21971D01*
X25414Y-30121D02*
X25414Y-29821D01*
X25728Y-30092D02*
X25714Y-30107D01*
X25671Y-30121D01*
X25642Y-30121D01*
X25600Y-30107D01*
X25571Y-30078D01*
X25557Y-30050D01*
X25542Y-29992D01*
X25542Y-29950D01*
X25557Y-29892D01*
X25571Y-29864D01*
X25600Y-29835D01*
X25642Y-29821D01*
X25671Y-29821D01*
X25714Y-29835D01*
X25728Y-29850D01*
X25842Y-30107D02*
X25885Y-30121D01*
X25957Y-30121D01*
X25985Y-30107D01*
X26000Y-30092D01*
X26014Y-30064D01*
X26014Y-30035D01*
X26000Y-30007D01*
X25985Y-29992D01*
X25957Y-29978D01*
X25900Y-29964D01*
X25871Y-29950D01*
X25857Y-29935D01*
X25842Y-29907D01*
X25842Y-29878D01*
X25857Y-29850D01*
X25871Y-29835D01*
X25900Y-29821D01*
X25971Y-29821D01*
X26014Y-29835D01*
X26142Y-30121D02*
X26142Y-29821D01*
X26257Y-29821D01*
X26285Y-29835D01*
X26300Y-29850D01*
X26314Y-29878D01*
X26314Y-29921D01*
X26300Y-29950D01*
X26285Y-29964D01*
X26257Y-29978D01*
X26142Y-29978D01*
X26600Y-30121D02*
X26428Y-30121D01*
X26514Y-30121D02*
X26514Y-29821D01*
X26485Y-29864D01*
X26457Y-29892D01*
X26428Y-29907D01*
X32685Y-48121D02*
X32685Y-47821D01*
X32800Y-47821D01*
X32828Y-47835D01*
X32842Y-47850D01*
X32857Y-47878D01*
X32857Y-47921D01*
X32842Y-47950D01*
X32828Y-47964D01*
X32800Y-47978D01*
X32685Y-47978D01*
X32957Y-47821D02*
X33028Y-48121D01*
X33085Y-47907D01*
X33142Y-48121D01*
X33214Y-47821D01*
X33328Y-48121D02*
X33328Y-47821D01*
X33428Y-48035D01*
X33528Y-47821D01*
X33528Y-48121D01*
X33828Y-48121D02*
X33657Y-48121D01*
X33742Y-48121D02*
X33742Y-47821D01*
X33714Y-47864D01*
X33685Y-47892D01*
X33657Y-47907D01*
X44185Y-47871D02*
X44185Y-47571D01*
X44300Y-47571D01*
X44328Y-47585D01*
X44342Y-47600D01*
X44357Y-47628D01*
X44357Y-47671D01*
X44342Y-47700D01*
X44328Y-47714D01*
X44300Y-47728D01*
X44185Y-47728D01*
X44457Y-47571D02*
X44528Y-47871D01*
X44585Y-47657D01*
X44642Y-47871D01*
X44714Y-47571D01*
X44828Y-47871D02*
X44828Y-47571D01*
X44928Y-47785D01*
X45028Y-47571D01*
X45028Y-47871D01*
X45157Y-47600D02*
X45171Y-47585D01*
X45200Y-47571D01*
X45271Y-47571D01*
X45300Y-47585D01*
X45314Y-47600D01*
X45328Y-47628D01*
X45328Y-47657D01*
X45314Y-47700D01*
X45142Y-47871D01*
X45328Y-47871D01*
X45528Y-57121D02*
X45528Y-56821D01*
X45642Y-56821D01*
X45671Y-56835D01*
X45685Y-56850D01*
X45700Y-56878D01*
X45700Y-56921D01*
X45685Y-56950D01*
X45671Y-56964D01*
X45642Y-56978D01*
X45528Y-56978D01*
X45814Y-56850D02*
X45828Y-56835D01*
X45857Y-56821D01*
X45928Y-56821D01*
X45957Y-56835D01*
X45971Y-56850D01*
X45985Y-56878D01*
X45985Y-56907D01*
X45971Y-56950D01*
X45800Y-57121D01*
X45985Y-57121D01*
X36278Y-57121D02*
X36278Y-56821D01*
X36392Y-56821D01*
X36421Y-56835D01*
X36435Y-56850D01*
X36450Y-56878D01*
X36450Y-56921D01*
X36435Y-56950D01*
X36421Y-56964D01*
X36392Y-56978D01*
X36278Y-56978D01*
X36735Y-57121D02*
X36564Y-57121D01*
X36650Y-57121D02*
X36650Y-56821D01*
X36621Y-56864D01*
X36592Y-56892D01*
X36564Y-56907D01*
X47371Y-27564D02*
X47071Y-27564D01*
X47071Y-27450D01*
X47085Y-27421D01*
X47100Y-27407D01*
X47128Y-27392D01*
X47171Y-27392D01*
X47200Y-27407D01*
X47214Y-27421D01*
X47228Y-27450D01*
X47228Y-27564D01*
X47071Y-27207D02*
X47071Y-27150D01*
X47085Y-27121D01*
X47114Y-27092D01*
X47171Y-27078D01*
X47271Y-27078D01*
X47328Y-27092D01*
X47357Y-27121D01*
X47371Y-27150D01*
X47371Y-27207D01*
X47357Y-27235D01*
X47328Y-27264D01*
X47271Y-27278D01*
X47171Y-27278D01*
X47114Y-27264D01*
X47085Y-27235D01*
X47071Y-27207D01*
X47071Y-26978D02*
X47371Y-26907D01*
X47157Y-26849D01*
X47371Y-26792D01*
X47071Y-26721D01*
X47400Y-26678D02*
X47400Y-26450D01*
X47357Y-26392D02*
X47371Y-26350D01*
X47371Y-26278D01*
X47357Y-26250D01*
X47342Y-26235D01*
X47314Y-26221D01*
X47285Y-26221D01*
X47257Y-26235D01*
X47242Y-26250D01*
X47228Y-26278D01*
X47214Y-26335D01*
X47200Y-26364D01*
X47185Y-26378D01*
X47157Y-26392D01*
X47128Y-26392D01*
X47100Y-26378D01*
X47085Y-26364D01*
X47071Y-26335D01*
X47071Y-26264D01*
X47085Y-26221D01*
X47214Y-26092D02*
X47214Y-25992D01*
X47371Y-25950D02*
X47371Y-26092D01*
X47071Y-26092D01*
X47071Y-25950D01*
X47371Y-25678D02*
X47371Y-25821D01*
X47071Y-25821D01*
X47371Y-25421D02*
X47371Y-25592D01*
X47371Y-25507D02*
X47071Y-25507D01*
X47114Y-25535D01*
X47142Y-25564D01*
X47157Y-25592D01*
X51200Y-52871D02*
X51100Y-52728D01*
X51028Y-52871D02*
X51028Y-52571D01*
X51142Y-52571D01*
X51171Y-52585D01*
X51185Y-52600D01*
X51200Y-52628D01*
X51200Y-52671D01*
X51185Y-52700D01*
X51171Y-52714D01*
X51142Y-52728D01*
X51028Y-52728D01*
X51342Y-52871D02*
X51400Y-52871D01*
X51428Y-52857D01*
X51442Y-52842D01*
X51471Y-52800D01*
X51485Y-52742D01*
X51485Y-52628D01*
X51471Y-52600D01*
X51457Y-52585D01*
X51428Y-52571D01*
X51371Y-52571D01*
X51342Y-52585D01*
X51328Y-52600D01*
X51314Y-52628D01*
X51314Y-52700D01*
X51328Y-52728D01*
X51342Y-52742D01*
X51371Y-52757D01*
X51428Y-52757D01*
X51457Y-52742D01*
X51471Y-52728D01*
X51485Y-52700D01*
X53571Y-52871D02*
X53400Y-52871D01*
X53485Y-52871D02*
X53485Y-52571D01*
X53457Y-52614D01*
X53428Y-52642D01*
X53400Y-52657D01*
X53757Y-52571D02*
X53785Y-52571D01*
X53814Y-52585D01*
X53828Y-52600D01*
X53842Y-52628D01*
X53857Y-52685D01*
X53857Y-52757D01*
X53842Y-52814D01*
X53828Y-52842D01*
X53814Y-52857D01*
X53785Y-52871D01*
X53757Y-52871D01*
X53728Y-52857D01*
X53714Y-52842D01*
X53700Y-52814D01*
X53685Y-52757D01*
X53685Y-52685D01*
X53700Y-52628D01*
X53714Y-52600D01*
X53728Y-52585D01*
X53757Y-52571D01*
X53985Y-52871D02*
X53985Y-52571D01*
X54014Y-52757D02*
X54100Y-52871D01*
X54100Y-52671D02*
X53985Y-52785D01*
X56057Y-52871D02*
X55957Y-52728D01*
X55885Y-52871D02*
X55885Y-52571D01*
X56000Y-52571D01*
X56028Y-52585D01*
X56042Y-52600D01*
X56057Y-52628D01*
X56057Y-52671D01*
X56042Y-52700D01*
X56028Y-52714D01*
X56000Y-52728D01*
X55885Y-52728D01*
X56342Y-52871D02*
X56171Y-52871D01*
X56257Y-52871D02*
X56257Y-52571D01*
X56228Y-52614D01*
X56200Y-52642D01*
X56171Y-52657D01*
X56528Y-52571D02*
X56557Y-52571D01*
X56585Y-52585D01*
X56600Y-52600D01*
X56614Y-52628D01*
X56628Y-52685D01*
X56628Y-52757D01*
X56614Y-52814D01*
X56600Y-52842D01*
X56585Y-52857D01*
X56557Y-52871D01*
X56528Y-52871D01*
X56500Y-52857D01*
X56485Y-52842D01*
X56471Y-52814D01*
X56457Y-52757D01*
X56457Y-52685D01*
X56471Y-52628D01*
X56485Y-52600D01*
X56500Y-52585D01*
X56528Y-52571D01*
X58571Y-52871D02*
X58400Y-52871D01*
X58485Y-52871D02*
X58485Y-52571D01*
X58457Y-52614D01*
X58428Y-52642D01*
X58400Y-52657D01*
X58757Y-52571D02*
X58785Y-52571D01*
X58814Y-52585D01*
X58828Y-52600D01*
X58842Y-52628D01*
X58857Y-52685D01*
X58857Y-52757D01*
X58842Y-52814D01*
X58828Y-52842D01*
X58814Y-52857D01*
X58785Y-52871D01*
X58757Y-52871D01*
X58728Y-52857D01*
X58714Y-52842D01*
X58700Y-52814D01*
X58685Y-52757D01*
X58685Y-52685D01*
X58700Y-52628D01*
X58714Y-52600D01*
X58728Y-52585D01*
X58757Y-52571D01*
X58985Y-52871D02*
X58985Y-52571D01*
X59014Y-52757D02*
X59100Y-52871D01*
X59100Y-52671D02*
X58985Y-52785D01*
X39371Y-44835D02*
X39371Y-44978D01*
X39071Y-44978D01*
X39214Y-44735D02*
X39214Y-44635D01*
X39371Y-44592D02*
X39371Y-44735D01*
X39071Y-44735D01*
X39071Y-44592D01*
X39371Y-44464D02*
X39071Y-44464D01*
X39071Y-44392D01*
X39085Y-44350D01*
X39114Y-44321D01*
X39142Y-44307D01*
X39200Y-44292D01*
X39242Y-44292D01*
X39300Y-44307D01*
X39328Y-44321D01*
X39357Y-44350D01*
X39371Y-44392D01*
X39371Y-44464D01*
X39071Y-44107D02*
X39071Y-44078D01*
X39085Y-44050D01*
X39100Y-44035D01*
X39128Y-44021D01*
X39185Y-44007D01*
X39257Y-44007D01*
X39314Y-44021D01*
X39342Y-44035D01*
X39357Y-44050D01*
X39371Y-44078D01*
X39371Y-44107D01*
X39357Y-44135D01*
X39342Y-44150D01*
X39314Y-44164D01*
X39257Y-44178D01*
X39185Y-44178D01*
X39128Y-44164D01*
X39100Y-44150D01*
X39085Y-44135D01*
X39071Y-44107D01*
X52635Y-26121D02*
X52635Y-25821D01*
X52750Y-25821D01*
X52778Y-25835D01*
X52792Y-25850D01*
X52807Y-25878D01*
X52807Y-25921D01*
X52792Y-25950D01*
X52778Y-25964D01*
X52750Y-25978D01*
X52635Y-25978D01*
X52978Y-26121D02*
X52950Y-26107D01*
X52935Y-26092D01*
X52921Y-26064D01*
X52921Y-25978D01*
X52935Y-25950D01*
X52950Y-25935D01*
X52978Y-25921D01*
X53021Y-25921D01*
X53050Y-25935D01*
X53064Y-25950D01*
X53078Y-25978D01*
X53078Y-26064D01*
X53064Y-26092D01*
X53050Y-26107D01*
X53021Y-26121D01*
X52978Y-26121D01*
X53178Y-25921D02*
X53235Y-26121D01*
X53292Y-25978D01*
X53350Y-26121D01*
X53407Y-25921D01*
X53635Y-26107D02*
X53607Y-26121D01*
X53550Y-26121D01*
X53521Y-26107D01*
X53507Y-26078D01*
X53507Y-25964D01*
X53521Y-25935D01*
X53550Y-25921D01*
X53607Y-25921D01*
X53635Y-25935D01*
X53650Y-25964D01*
X53650Y-25992D01*
X53507Y-26021D01*
X53778Y-26121D02*
X53778Y-25921D01*
X53778Y-25978D02*
X53792Y-25950D01*
X53807Y-25935D01*
X53835Y-25921D01*
X53864Y-25921D01*
X53892Y-26150D02*
X54121Y-26150D01*
X54335Y-26121D02*
X54192Y-26121D01*
X54192Y-25821D01*
X54435Y-25964D02*
X54535Y-25964D01*
X54578Y-26121D02*
X54435Y-26121D01*
X54435Y-25821D01*
X54578Y-25821D01*
X54707Y-26121D02*
X54707Y-25821D01*
X54778Y-25821D01*
X54821Y-25835D01*
X54850Y-25864D01*
X54864Y-25892D01*
X54878Y-25950D01*
X54878Y-25992D01*
X54864Y-26050D01*
X54850Y-26078D01*
X54821Y-26107D01*
X54778Y-26121D01*
X54707Y-26121D01*
X39371Y-38835D02*
X39371Y-38978D01*
X39071Y-38978D01*
X39214Y-38735D02*
X39214Y-38635D01*
X39371Y-38592D02*
X39371Y-38735D01*
X39071Y-38735D01*
X39071Y-38592D01*
X39371Y-38464D02*
X39071Y-38464D01*
X39071Y-38392D01*
X39085Y-38350D01*
X39114Y-38321D01*
X39142Y-38307D01*
X39200Y-38292D01*
X39242Y-38292D01*
X39300Y-38307D01*
X39328Y-38321D01*
X39357Y-38350D01*
X39371Y-38392D01*
X39371Y-38464D01*
X39071Y-38192D02*
X39071Y-38007D01*
X39185Y-38107D01*
X39185Y-38064D01*
X39200Y-38035D01*
X39214Y-38021D01*
X39242Y-38007D01*
X39314Y-38007D01*
X39342Y-38021D01*
X39357Y-38035D01*
X39371Y-38064D01*
X39371Y-38150D01*
X39357Y-38178D01*
X39342Y-38192D01*
X39371Y-40835D02*
X39371Y-40978D01*
X39071Y-40978D01*
X39214Y-40735D02*
X39214Y-40635D01*
X39371Y-40592D02*
X39371Y-40735D01*
X39071Y-40735D01*
X39071Y-40592D01*
X39371Y-40464D02*
X39071Y-40464D01*
X39071Y-40392D01*
X39085Y-40350D01*
X39114Y-40321D01*
X39142Y-40307D01*
X39200Y-40292D01*
X39242Y-40292D01*
X39300Y-40307D01*
X39328Y-40321D01*
X39357Y-40350D01*
X39371Y-40392D01*
X39371Y-40464D01*
X39100Y-40178D02*
X39085Y-40164D01*
X39071Y-40135D01*
X39071Y-40064D01*
X39085Y-40035D01*
X39100Y-40021D01*
X39128Y-40007D01*
X39157Y-40007D01*
X39200Y-40021D01*
X39371Y-40192D01*
X39371Y-40007D01*
X39371Y-42835D02*
X39371Y-42978D01*
X39071Y-42978D01*
X39214Y-42735D02*
X39214Y-42635D01*
X39371Y-42592D02*
X39371Y-42735D01*
X39071Y-42735D01*
X39071Y-42592D01*
X39371Y-42464D02*
X39071Y-42464D01*
X39071Y-42392D01*
X39085Y-42350D01*
X39114Y-42321D01*
X39142Y-42307D01*
X39200Y-42292D01*
X39242Y-42292D01*
X39300Y-42307D01*
X39328Y-42321D01*
X39357Y-42350D01*
X39371Y-42392D01*
X39371Y-42464D01*
X39371Y-42007D02*
X39371Y-42178D01*
X39371Y-42092D02*
X39071Y-42092D01*
X39114Y-42121D01*
X39142Y-42150D01*
X39157Y-42178D01*
X38571Y-36742D02*
X38871Y-36542D01*
X38571Y-36542D02*
X38871Y-36742D01*
X38871Y-36271D02*
X38871Y-36442D01*
X38871Y-36357D02*
X38571Y-36357D01*
X38614Y-36385D01*
X38642Y-36414D01*
X38657Y-36442D01*
X38671Y-34142D02*
X38871Y-34142D01*
X38557Y-34214D02*
X38771Y-34285D01*
X38771Y-34100D01*
X38871Y-33985D02*
X38571Y-33985D01*
X38785Y-33885D01*
X38571Y-33785D01*
X38871Y-33785D01*
X38871Y-33642D02*
X38571Y-33642D01*
X38714Y-33642D02*
X38714Y-33471D01*
X38871Y-33471D02*
X38571Y-33471D01*
X38671Y-33357D02*
X38671Y-33200D01*
X38871Y-33357D01*
X38871Y-33200D01*
X41371Y-55835D02*
X41371Y-55978D01*
X41071Y-55978D01*
X41100Y-55749D02*
X41085Y-55735D01*
X41071Y-55707D01*
X41071Y-55635D01*
X41085Y-55607D01*
X41100Y-55592D01*
X41128Y-55578D01*
X41157Y-55578D01*
X41200Y-55592D01*
X41371Y-55764D01*
X41371Y-55578D01*
X41371Y-55435D02*
X41371Y-55378D01*
X41357Y-55349D01*
X41342Y-55335D01*
X41300Y-55307D01*
X41242Y-55292D01*
X41128Y-55292D01*
X41100Y-55307D01*
X41085Y-55321D01*
X41071Y-55349D01*
X41071Y-55407D01*
X41085Y-55435D01*
X41100Y-55449D01*
X41128Y-55464D01*
X41200Y-55464D01*
X41228Y-55449D01*
X41242Y-55435D01*
X41257Y-55407D01*
X41257Y-55349D01*
X41242Y-55321D01*
X41228Y-55307D01*
X41200Y-55292D01*
X41071Y-55192D02*
X41071Y-55007D01*
X41185Y-55107D01*
X41185Y-55064D01*
X41200Y-55035D01*
X41214Y-55021D01*
X41242Y-55007D01*
X41314Y-55007D01*
X41342Y-55021D01*
X41357Y-55035D01*
X41371Y-55064D01*
X41371Y-55150D01*
X41357Y-55178D01*
X41342Y-55192D01*
X41950Y-31342D02*
X41935Y-31357D01*
X41892Y-31371D01*
X41864Y-31371D01*
X41821Y-31357D01*
X41792Y-31328D01*
X41778Y-31300D01*
X41764Y-31242D01*
X41764Y-31200D01*
X41778Y-31142D01*
X41792Y-31114D01*
X41821Y-31085D01*
X41864Y-31071D01*
X41892Y-31071D01*
X41935Y-31085D01*
X41950Y-31100D01*
X42121Y-31200D02*
X42092Y-31185D01*
X42078Y-31171D01*
X42064Y-31142D01*
X42064Y-31128D01*
X42078Y-31100D01*
X42092Y-31085D01*
X42121Y-31071D01*
X42178Y-31071D01*
X42207Y-31085D01*
X42221Y-31100D01*
X42235Y-31128D01*
X42235Y-31142D01*
X42221Y-31171D01*
X42207Y-31185D01*
X42178Y-31200D01*
X42121Y-31200D01*
X42092Y-31214D01*
X42078Y-31228D01*
X42064Y-31257D01*
X42064Y-31314D01*
X42078Y-31342D01*
X42092Y-31357D01*
X42121Y-31371D01*
X42178Y-31371D01*
X42207Y-31357D01*
X42221Y-31342D01*
X42235Y-31314D01*
X42235Y-31257D01*
X42221Y-31228D01*
X42207Y-31214D01*
X42178Y-31200D01*
X40035Y-31371D02*
X39864Y-31371D01*
X39950Y-31371D02*
X39950Y-31071D01*
X39921Y-31114D01*
X39892Y-31142D01*
X39864Y-31157D01*
X40221Y-31071D02*
X40250Y-31071D01*
X40278Y-31085D01*
X40292Y-31100D01*
X40307Y-31128D01*
X40321Y-31185D01*
X40321Y-31257D01*
X40307Y-31314D01*
X40292Y-31342D01*
X40278Y-31357D01*
X40250Y-31371D01*
X40221Y-31371D01*
X40192Y-31357D01*
X40178Y-31342D01*
X40164Y-31314D01*
X40150Y-31257D01*
X40150Y-31185D01*
X40164Y-31128D01*
X40178Y-31100D01*
X40192Y-31085D01*
X40221Y-31071D01*
X40507Y-31071D02*
X40535Y-31071D01*
X40564Y-31085D01*
X40578Y-31100D01*
X40592Y-31128D01*
X40607Y-31185D01*
X40607Y-31257D01*
X40592Y-31314D01*
X40578Y-31342D01*
X40564Y-31357D01*
X40535Y-31371D01*
X40507Y-31371D01*
X40478Y-31357D01*
X40464Y-31342D01*
X40450Y-31314D01*
X40435Y-31257D01*
X40435Y-31185D01*
X40450Y-31128D01*
X40464Y-31100D01*
X40478Y-31085D01*
X40507Y-31071D01*
X40735Y-31171D02*
X40735Y-31371D01*
X40735Y-31200D02*
X40749Y-31185D01*
X40778Y-31171D01*
X40821Y-31171D01*
X40849Y-31185D01*
X40864Y-31214D01*
X40864Y-31371D01*
X41107Y-31214D02*
X41007Y-31214D01*
X41007Y-31371D02*
X41007Y-31071D01*
X41150Y-31071D01*
X30592Y-49192D02*
X30607Y-49207D01*
X30621Y-49250D01*
X30621Y-49278D01*
X30607Y-49321D01*
X30578Y-49350D01*
X30550Y-49364D01*
X30492Y-49378D01*
X30450Y-49378D01*
X30392Y-49364D01*
X30364Y-49350D01*
X30335Y-49321D01*
X30321Y-49278D01*
X30321Y-49250D01*
X30335Y-49207D01*
X30350Y-49192D01*
X30621Y-48907D02*
X30621Y-49078D01*
X30621Y-48992D02*
X30321Y-48992D01*
X30364Y-49021D01*
X30392Y-49050D01*
X30407Y-49078D01*
X30321Y-48807D02*
X30321Y-48621D01*
X30435Y-48721D01*
X30435Y-48678D01*
X30450Y-48650D01*
X30464Y-48635D01*
X30492Y-48621D01*
X30564Y-48621D01*
X30592Y-48635D01*
X30607Y-48650D01*
X30621Y-48678D01*
X30621Y-48764D01*
X30607Y-48792D01*
X30592Y-48807D01*
X30350Y-47885D02*
X30335Y-47871D01*
X30321Y-47842D01*
X30321Y-47771D01*
X30335Y-47742D01*
X30350Y-47728D01*
X30378Y-47714D01*
X30407Y-47714D01*
X30450Y-47728D01*
X30621Y-47900D01*
X30621Y-47714D01*
X30350Y-47600D02*
X30335Y-47585D01*
X30321Y-47557D01*
X30321Y-47485D01*
X30335Y-47457D01*
X30350Y-47442D01*
X30378Y-47428D01*
X30407Y-47428D01*
X30450Y-47442D01*
X30621Y-47614D01*
X30621Y-47428D01*
X30321Y-47242D02*
X30321Y-47214D01*
X30335Y-47185D01*
X30350Y-47171D01*
X30378Y-47157D01*
X30435Y-47142D01*
X30507Y-47142D01*
X30564Y-47157D01*
X30592Y-47171D01*
X30607Y-47185D01*
X30621Y-47214D01*
X30621Y-47242D01*
X30607Y-47271D01*
X30592Y-47285D01*
X30564Y-47300D01*
X30507Y-47314D01*
X30435Y-47314D01*
X30378Y-47300D01*
X30350Y-47285D01*
X30335Y-47271D01*
X30321Y-47242D01*
X30421Y-47014D02*
X30621Y-47014D01*
X30450Y-47014D02*
X30435Y-47000D01*
X30421Y-46971D01*
X30421Y-46928D01*
X30435Y-46900D01*
X30464Y-46885D01*
X30621Y-46885D01*
X30464Y-46642D02*
X30464Y-46742D01*
X30621Y-46742D02*
X30321Y-46742D01*
X30321Y-46600D01*
X27342Y-25192D02*
X27357Y-25207D01*
X27371Y-25250D01*
X27371Y-25278D01*
X27357Y-25321D01*
X27328Y-25350D01*
X27300Y-25364D01*
X27242Y-25378D01*
X27200Y-25378D01*
X27142Y-25364D01*
X27114Y-25350D01*
X27085Y-25321D01*
X27071Y-25278D01*
X27071Y-25250D01*
X27085Y-25207D01*
X27100Y-25192D01*
X27371Y-24907D02*
X27371Y-25078D01*
X27371Y-24992D02*
X27071Y-24992D01*
X27114Y-25021D01*
X27142Y-25050D01*
X27157Y-25078D01*
X27171Y-24650D02*
X27371Y-24650D01*
X27057Y-24721D02*
X27271Y-24792D01*
X27271Y-24607D01*
X30871Y-25464D02*
X30871Y-25635D01*
X30871Y-25550D02*
X30571Y-25550D01*
X30614Y-25578D01*
X30642Y-25607D01*
X30657Y-25635D01*
X30571Y-25278D02*
X30571Y-25250D01*
X30585Y-25221D01*
X30600Y-25207D01*
X30628Y-25192D01*
X30685Y-25178D01*
X30757Y-25178D01*
X30814Y-25192D01*
X30842Y-25207D01*
X30857Y-25221D01*
X30871Y-25250D01*
X30871Y-25278D01*
X30857Y-25307D01*
X30842Y-25321D01*
X30814Y-25335D01*
X30757Y-25350D01*
X30685Y-25350D01*
X30628Y-25335D01*
X30600Y-25321D01*
X30585Y-25307D01*
X30571Y-25278D01*
X30571Y-24992D02*
X30571Y-24964D01*
X30585Y-24935D01*
X30600Y-24921D01*
X30628Y-24907D01*
X30685Y-24892D01*
X30757Y-24892D01*
X30814Y-24907D01*
X30842Y-24921D01*
X30857Y-24935D01*
X30871Y-24964D01*
X30871Y-24992D01*
X30857Y-25021D01*
X30842Y-25035D01*
X30814Y-25050D01*
X30757Y-25064D01*
X30685Y-25064D01*
X30628Y-25050D01*
X30600Y-25035D01*
X30585Y-25021D01*
X30571Y-24992D01*
X30671Y-24764D02*
X30871Y-24764D01*
X30700Y-24764D02*
X30685Y-24750D01*
X30671Y-24721D01*
X30671Y-24678D01*
X30685Y-24650D01*
X30714Y-24635D01*
X30871Y-24635D01*
X30714Y-24392D02*
X30714Y-24492D01*
X30871Y-24492D02*
X30571Y-24492D01*
X30571Y-24350D01*
X47342Y-52300D02*
X47357Y-52314D01*
X47371Y-52357D01*
X47371Y-52385D01*
X47357Y-52428D01*
X47328Y-52457D01*
X47300Y-52471D01*
X47242Y-52485D01*
X47200Y-52485D01*
X47142Y-52471D01*
X47114Y-52457D01*
X47085Y-52428D01*
X47071Y-52385D01*
X47071Y-52357D01*
X47085Y-52314D01*
X47100Y-52300D01*
X47371Y-52157D02*
X47371Y-52100D01*
X47357Y-52071D01*
X47342Y-52057D01*
X47300Y-52028D01*
X47242Y-52014D01*
X47128Y-52014D01*
X47100Y-52028D01*
X47085Y-52042D01*
X47071Y-52071D01*
X47071Y-52128D01*
X47085Y-52157D01*
X47100Y-52171D01*
X47128Y-52185D01*
X47200Y-52185D01*
X47228Y-52171D01*
X47242Y-52157D01*
X47257Y-52128D01*
X47257Y-52071D01*
X47242Y-52042D01*
X47228Y-52028D01*
X47200Y-52014D01*
X47371Y-50964D02*
X47371Y-51135D01*
X47371Y-51050D02*
X47071Y-51050D01*
X47114Y-51078D01*
X47142Y-51107D01*
X47157Y-51135D01*
X47071Y-50778D02*
X47071Y-50750D01*
X47085Y-50721D01*
X47100Y-50707D01*
X47128Y-50692D01*
X47185Y-50678D01*
X47257Y-50678D01*
X47314Y-50692D01*
X47342Y-50707D01*
X47357Y-50721D01*
X47371Y-50750D01*
X47371Y-50778D01*
X47357Y-50807D01*
X47342Y-50821D01*
X47314Y-50835D01*
X47257Y-50850D01*
X47185Y-50850D01*
X47128Y-50835D01*
X47100Y-50821D01*
X47085Y-50807D01*
X47071Y-50778D01*
X47071Y-50492D02*
X47071Y-50464D01*
X47085Y-50435D01*
X47100Y-50421D01*
X47128Y-50407D01*
X47185Y-50392D01*
X47257Y-50392D01*
X47314Y-50407D01*
X47342Y-50421D01*
X47357Y-50435D01*
X47371Y-50464D01*
X47371Y-50492D01*
X47357Y-50521D01*
X47342Y-50535D01*
X47314Y-50550D01*
X47257Y-50564D01*
X47185Y-50564D01*
X47128Y-50550D01*
X47100Y-50535D01*
X47085Y-50521D01*
X47071Y-50492D01*
X47171Y-50264D02*
X47371Y-50264D01*
X47200Y-50264D02*
X47185Y-50250D01*
X47171Y-50221D01*
X47171Y-50178D01*
X47185Y-50150D01*
X47214Y-50135D01*
X47371Y-50135D01*
X47214Y-49892D02*
X47214Y-49992D01*
X47371Y-49992D02*
X47071Y-49992D01*
X47071Y-49850D01*
X29842Y-36692D02*
X29857Y-36707D01*
X29871Y-36750D01*
X29871Y-36778D01*
X29857Y-36821D01*
X29828Y-36850D01*
X29800Y-36864D01*
X29742Y-36878D01*
X29700Y-36878D01*
X29642Y-36864D01*
X29614Y-36850D01*
X29585Y-36821D01*
X29571Y-36778D01*
X29571Y-36750D01*
X29585Y-36707D01*
X29600Y-36692D01*
X29871Y-36407D02*
X29871Y-36578D01*
X29871Y-36492D02*
X29571Y-36492D01*
X29614Y-36521D01*
X29642Y-36550D01*
X29657Y-36578D01*
X29600Y-36292D02*
X29585Y-36278D01*
X29571Y-36250D01*
X29571Y-36178D01*
X29585Y-36150D01*
X29600Y-36135D01*
X29628Y-36121D01*
X29657Y-36121D01*
X29700Y-36135D01*
X29871Y-36307D01*
X29871Y-36121D01*
X29871Y-34964D02*
X29871Y-35135D01*
X29871Y-35050D02*
X29571Y-35050D01*
X29614Y-35078D01*
X29642Y-35107D01*
X29657Y-35135D01*
X29571Y-34778D02*
X29571Y-34750D01*
X29585Y-34721D01*
X29600Y-34707D01*
X29628Y-34692D01*
X29685Y-34678D01*
X29757Y-34678D01*
X29814Y-34692D01*
X29842Y-34707D01*
X29857Y-34721D01*
X29871Y-34750D01*
X29871Y-34778D01*
X29857Y-34807D01*
X29842Y-34821D01*
X29814Y-34835D01*
X29757Y-34850D01*
X29685Y-34850D01*
X29628Y-34835D01*
X29600Y-34821D01*
X29585Y-34807D01*
X29571Y-34778D01*
X29571Y-34492D02*
X29571Y-34464D01*
X29585Y-34435D01*
X29600Y-34421D01*
X29628Y-34407D01*
X29685Y-34392D01*
X29757Y-34392D01*
X29814Y-34407D01*
X29842Y-34421D01*
X29857Y-34435D01*
X29871Y-34464D01*
X29871Y-34492D01*
X29857Y-34521D01*
X29842Y-34535D01*
X29814Y-34550D01*
X29757Y-34564D01*
X29685Y-34564D01*
X29628Y-34550D01*
X29600Y-34535D01*
X29585Y-34521D01*
X29571Y-34492D01*
X29671Y-34264D02*
X29871Y-34264D01*
X29700Y-34264D02*
X29685Y-34250D01*
X29671Y-34221D01*
X29671Y-34178D01*
X29685Y-34150D01*
X29714Y-34135D01*
X29871Y-34135D01*
X29714Y-33892D02*
X29714Y-33992D01*
X29871Y-33992D02*
X29571Y-33992D01*
X29571Y-33850D01*
X55307Y-50842D02*
X55292Y-50857D01*
X55250Y-50871D01*
X55221Y-50871D01*
X55178Y-50857D01*
X55150Y-50828D01*
X55135Y-50800D01*
X55121Y-50742D01*
X55121Y-50700D01*
X55135Y-50642D01*
X55150Y-50614D01*
X55178Y-50585D01*
X55221Y-50571D01*
X55250Y-50571D01*
X55292Y-50585D01*
X55307Y-50600D01*
X55592Y-50871D02*
X55421Y-50871D01*
X55507Y-50871D02*
X55507Y-50571D01*
X55478Y-50614D01*
X55450Y-50642D01*
X55421Y-50657D01*
X55850Y-50571D02*
X55792Y-50571D01*
X55764Y-50585D01*
X55750Y-50600D01*
X55721Y-50642D01*
X55707Y-50700D01*
X55707Y-50814D01*
X55721Y-50842D01*
X55735Y-50857D01*
X55764Y-50871D01*
X55821Y-50871D01*
X55850Y-50857D01*
X55864Y-50842D01*
X55878Y-50814D01*
X55878Y-50742D01*
X55864Y-50714D01*
X55850Y-50700D01*
X55821Y-50685D01*
X55764Y-50685D01*
X55735Y-50700D01*
X55721Y-50714D01*
X55707Y-50742D01*
X57178Y-50871D02*
X57007Y-50871D01*
X57092Y-50871D02*
X57092Y-50571D01*
X57064Y-50614D01*
X57035Y-50642D01*
X57007Y-50657D01*
X57364Y-50571D02*
X57392Y-50571D01*
X57421Y-50585D01*
X57435Y-50600D01*
X57450Y-50628D01*
X57464Y-50685D01*
X57464Y-50757D01*
X57450Y-50814D01*
X57435Y-50842D01*
X57421Y-50857D01*
X57392Y-50871D01*
X57364Y-50871D01*
X57335Y-50857D01*
X57321Y-50842D01*
X57307Y-50814D01*
X57292Y-50757D01*
X57292Y-50685D01*
X57307Y-50628D01*
X57321Y-50600D01*
X57335Y-50585D01*
X57364Y-50571D01*
X57592Y-50671D02*
X57592Y-50871D01*
X57592Y-50700D02*
X57607Y-50685D01*
X57635Y-50671D01*
X57678Y-50671D01*
X57707Y-50685D01*
X57721Y-50714D01*
X57721Y-50871D01*
X57964Y-50714D02*
X57864Y-50714D01*
X57864Y-50871D02*
X57864Y-50571D01*
X58007Y-50571D01*
X50307Y-50842D02*
X50292Y-50857D01*
X50250Y-50871D01*
X50221Y-50871D01*
X50178Y-50857D01*
X50150Y-50828D01*
X50135Y-50800D01*
X50121Y-50742D01*
X50121Y-50700D01*
X50135Y-50642D01*
X50150Y-50614D01*
X50178Y-50585D01*
X50221Y-50571D01*
X50250Y-50571D01*
X50292Y-50585D01*
X50307Y-50600D01*
X50592Y-50871D02*
X50421Y-50871D01*
X50507Y-50871D02*
X50507Y-50571D01*
X50478Y-50614D01*
X50450Y-50642D01*
X50421Y-50657D01*
X50864Y-50571D02*
X50721Y-50571D01*
X50707Y-50714D01*
X50721Y-50700D01*
X50750Y-50685D01*
X50821Y-50685D01*
X50850Y-50700D01*
X50864Y-50714D01*
X50878Y-50742D01*
X50878Y-50814D01*
X50864Y-50842D01*
X50850Y-50857D01*
X50821Y-50871D01*
X50750Y-50871D01*
X50721Y-50857D01*
X50707Y-50842D01*
X52178Y-50871D02*
X52007Y-50871D01*
X52092Y-50871D02*
X52092Y-50571D01*
X52064Y-50614D01*
X52035Y-50642D01*
X52007Y-50657D01*
X52364Y-50571D02*
X52392Y-50571D01*
X52421Y-50585D01*
X52435Y-50600D01*
X52450Y-50628D01*
X52464Y-50685D01*
X52464Y-50757D01*
X52450Y-50814D01*
X52435Y-50842D01*
X52421Y-50857D01*
X52392Y-50871D01*
X52364Y-50871D01*
X52335Y-50857D01*
X52321Y-50842D01*
X52307Y-50814D01*
X52292Y-50757D01*
X52292Y-50685D01*
X52307Y-50628D01*
X52321Y-50600D01*
X52335Y-50585D01*
X52364Y-50571D01*
X52592Y-50671D02*
X52592Y-50871D01*
X52592Y-50700D02*
X52607Y-50685D01*
X52635Y-50671D01*
X52678Y-50671D01*
X52707Y-50685D01*
X52721Y-50714D01*
X52721Y-50871D01*
X52964Y-50714D02*
X52864Y-50714D01*
X52864Y-50871D02*
X52864Y-50571D01*
X53007Y-50571D01*
X57342Y-23550D02*
X57357Y-23564D01*
X57371Y-23607D01*
X57371Y-23635D01*
X57357Y-23678D01*
X57328Y-23707D01*
X57300Y-23721D01*
X57242Y-23735D01*
X57200Y-23735D01*
X57142Y-23721D01*
X57114Y-23707D01*
X57085Y-23678D01*
X57071Y-23635D01*
X57071Y-23607D01*
X57085Y-23564D01*
X57100Y-23550D01*
X57100Y-23435D02*
X57085Y-23421D01*
X57071Y-23392D01*
X57071Y-23321D01*
X57085Y-23292D01*
X57100Y-23278D01*
X57128Y-23264D01*
X57157Y-23264D01*
X57200Y-23278D01*
X57371Y-23450D01*
X57371Y-23264D01*
X57371Y-22214D02*
X57371Y-22385D01*
X57371Y-22300D02*
X57071Y-22300D01*
X57114Y-22328D01*
X57142Y-22357D01*
X57157Y-22385D01*
X57071Y-22028D02*
X57071Y-22000D01*
X57085Y-21971D01*
X57100Y-21957D01*
X57128Y-21942D01*
X57185Y-21928D01*
X57257Y-21928D01*
X57314Y-21942D01*
X57342Y-21957D01*
X57357Y-21971D01*
X57371Y-22000D01*
X57371Y-22028D01*
X57357Y-22057D01*
X57342Y-22071D01*
X57314Y-22085D01*
X57257Y-22100D01*
X57185Y-22100D01*
X57128Y-22085D01*
X57100Y-22071D01*
X57085Y-22057D01*
X57071Y-22028D01*
X57071Y-21742D02*
X57071Y-21714D01*
X57085Y-21685D01*
X57100Y-21671D01*
X57128Y-21657D01*
X57185Y-21642D01*
X57257Y-21642D01*
X57314Y-21657D01*
X57342Y-21671D01*
X57357Y-21685D01*
X57371Y-21714D01*
X57371Y-21742D01*
X57357Y-21771D01*
X57342Y-21785D01*
X57314Y-21800D01*
X57257Y-21814D01*
X57185Y-21814D01*
X57128Y-21800D01*
X57100Y-21785D01*
X57085Y-21771D01*
X57071Y-21742D01*
X57171Y-21514D02*
X57371Y-21514D01*
X57200Y-21514D02*
X57185Y-21500D01*
X57171Y-21471D01*
X57171Y-21428D01*
X57185Y-21400D01*
X57214Y-21385D01*
X57371Y-21385D01*
X57214Y-21142D02*
X57214Y-21242D01*
X57371Y-21242D02*
X57071Y-21242D01*
X57071Y-21100D01*
X47057Y-47092D02*
X47042Y-47107D01*
X47000Y-47121D01*
X46971Y-47121D01*
X46928Y-47107D01*
X46900Y-47078D01*
X46885Y-47050D01*
X46871Y-46992D01*
X46871Y-46950D01*
X46885Y-46892D01*
X46900Y-46864D01*
X46928Y-46835D01*
X46971Y-46821D01*
X47000Y-46821D01*
X47042Y-46835D01*
X47057Y-46850D01*
X47342Y-47121D02*
X47171Y-47121D01*
X47257Y-47121D02*
X47257Y-46821D01*
X47228Y-46864D01*
X47200Y-46892D01*
X47171Y-46907D01*
X47442Y-46821D02*
X47642Y-46821D01*
X47514Y-47121D01*
X48571Y-47121D02*
X48400Y-47121D01*
X48485Y-47121D02*
X48485Y-46821D01*
X48457Y-46864D01*
X48428Y-46892D01*
X48400Y-46907D01*
X48828Y-46921D02*
X48828Y-47121D01*
X48700Y-46921D02*
X48700Y-47078D01*
X48714Y-47107D01*
X48742Y-47121D01*
X48785Y-47121D01*
X48814Y-47107D01*
X48828Y-47092D01*
X49071Y-46964D02*
X48971Y-46964D01*
X48971Y-47121D02*
X48971Y-46821D01*
X49114Y-46821D01*
G54D21*
X48007Y-49614D02*
X48007Y-49385D01*
X48121Y-49500D02*
X47892Y-49500D01*
G54D20*
G54D11*
X29950Y-52592D02*
X29935Y-52607D01*
X29892Y-52621D01*
X29864Y-52621D01*
X29821Y-52607D01*
X29792Y-52578D01*
X29778Y-52550D01*
X29764Y-52492D01*
X29764Y-52450D01*
X29778Y-52392D01*
X29792Y-52364D01*
X29821Y-52335D01*
X29864Y-52321D01*
X29892Y-52321D01*
X29935Y-52335D01*
X29950Y-52350D01*
X30050Y-52321D02*
X30250Y-52321D01*
X30121Y-52621D01*
X29678Y-50121D02*
X29507Y-50121D01*
X29592Y-50121D02*
X29592Y-49821D01*
X29564Y-49864D01*
X29535Y-49892D01*
X29507Y-49907D01*
X29864Y-49821D02*
X29892Y-49821D01*
X29921Y-49835D01*
X29935Y-49850D01*
X29950Y-49878D01*
X29964Y-49935D01*
X29964Y-50007D01*
X29950Y-50064D01*
X29935Y-50092D01*
X29921Y-50107D01*
X29892Y-50121D01*
X29864Y-50121D01*
X29835Y-50107D01*
X29821Y-50092D01*
X29807Y-50064D01*
X29792Y-50007D01*
X29792Y-49935D01*
X29807Y-49878D01*
X29821Y-49850D01*
X29835Y-49835D01*
X29864Y-49821D01*
X30221Y-49921D02*
X30221Y-50121D01*
X30092Y-49921D02*
X30092Y-50078D01*
X30107Y-50107D01*
X30135Y-50121D01*
X30178Y-50121D01*
X30207Y-50107D01*
X30221Y-50092D01*
X30464Y-49964D02*
X30364Y-49964D01*
X30364Y-50121D02*
X30364Y-49821D01*
X30507Y-49821D01*
G54D21*
X30757Y-52364D02*
X30757Y-52135D01*
X30871Y-52250D02*
X30642Y-52250D01*
G54D20*
G54D18*
X47450Y-24842D02*
X47435Y-24857D01*
X47392Y-24871D01*
X47364Y-24871D01*
X47321Y-24857D01*
X47292Y-24828D01*
X47278Y-24800D01*
X47264Y-24742D01*
X47264Y-24700D01*
X47278Y-24642D01*
X47292Y-24614D01*
X47321Y-24585D01*
X47364Y-24571D01*
X47392Y-24571D01*
X47435Y-24585D01*
X47450Y-24600D01*
X47707Y-24571D02*
X47650Y-24571D01*
X47621Y-24585D01*
X47607Y-24600D01*
X47578Y-24642D01*
X47564Y-24700D01*
X47564Y-24814D01*
X47578Y-24842D01*
X47592Y-24857D01*
X47621Y-24871D01*
X47678Y-24871D01*
X47707Y-24857D01*
X47721Y-24842D01*
X47735Y-24814D01*
X47735Y-24742D01*
X47721Y-24714D01*
X47707Y-24700D01*
X47678Y-24685D01*
X47621Y-24685D01*
X47592Y-24700D01*
X47578Y-24714D01*
X47564Y-24742D01*
G54D11*
X48571Y-24871D02*
X48400Y-24871D01*
X48485Y-24871D02*
X48485Y-24571D01*
X48457Y-24614D01*
X48428Y-24642D01*
X48400Y-24657D01*
X48828Y-24671D02*
X48828Y-24871D01*
X48700Y-24671D02*
X48700Y-24828D01*
X48714Y-24857D01*
X48742Y-24871D01*
X48785Y-24871D01*
X48814Y-24857D01*
X48828Y-24842D01*
X49071Y-24714D02*
X48971Y-24714D01*
X48971Y-24871D02*
X48971Y-24571D01*
X49114Y-24571D01*
G54D21*
X48007Y-24864D02*
X48007Y-24635D01*
X48121Y-24750D02*
X47892Y-24750D01*
G54D20*
G54D11*
X53450Y-21592D02*
X53435Y-21607D01*
X53392Y-21621D01*
X53364Y-21621D01*
X53321Y-21607D01*
X53292Y-21578D01*
X53278Y-21550D01*
X53264Y-21492D01*
X53264Y-21450D01*
X53278Y-21392D01*
X53292Y-21364D01*
X53321Y-21335D01*
X53364Y-21321D01*
X53392Y-21321D01*
X53435Y-21335D01*
X53450Y-21350D01*
X53735Y-21621D02*
X53564Y-21621D01*
X53650Y-21621D02*
X53650Y-21321D01*
X53621Y-21364D01*
X53592Y-21392D01*
X53564Y-21407D01*
X53321Y-22121D02*
X53150Y-22121D01*
X53235Y-22121D02*
X53235Y-21821D01*
X53207Y-21864D01*
X53178Y-21892D01*
X53150Y-21907D01*
X53578Y-21921D02*
X53578Y-22121D01*
X53450Y-21921D02*
X53450Y-22078D01*
X53464Y-22107D01*
X53492Y-22121D01*
X53535Y-22121D01*
X53564Y-22107D01*
X53578Y-22092D01*
X53821Y-21964D02*
X53721Y-21964D01*
X53721Y-22121D02*
X53721Y-21821D01*
X53864Y-21821D01*
X53007Y-21114D02*
X53007Y-20885D01*
X53121Y-21000D02*
X52892Y-21000D01*
G54D18*
X45200Y-24842D02*
X45185Y-24857D01*
X45142Y-24871D01*
X45114Y-24871D01*
X45071Y-24857D01*
X45042Y-24828D01*
X45028Y-24800D01*
X45014Y-24742D01*
X45014Y-24700D01*
X45028Y-24642D01*
X45042Y-24614D01*
X45071Y-24585D01*
X45114Y-24571D01*
X45142Y-24571D01*
X45185Y-24585D01*
X45200Y-24600D01*
X45471Y-24571D02*
X45328Y-24571D01*
X45314Y-24714D01*
X45328Y-24700D01*
X45357Y-24685D01*
X45428Y-24685D01*
X45457Y-24700D01*
X45471Y-24714D01*
X45485Y-24742D01*
X45485Y-24814D01*
X45471Y-24842D01*
X45457Y-24857D01*
X45428Y-24871D01*
X45357Y-24871D01*
X45328Y-24857D01*
X45314Y-24842D01*
G54D11*
X46571Y-24871D02*
X46400Y-24871D01*
X46485Y-24871D02*
X46485Y-24571D01*
X46457Y-24614D01*
X46428Y-24642D01*
X46400Y-24657D01*
X46828Y-24671D02*
X46828Y-24871D01*
X46700Y-24671D02*
X46700Y-24828D01*
X46714Y-24857D01*
X46742Y-24871D01*
X46785Y-24871D01*
X46814Y-24857D01*
X46828Y-24842D01*
X47071Y-24714D02*
X46971Y-24714D01*
X46971Y-24871D02*
X46971Y-24571D01*
X47114Y-24571D01*
G54D21*
X46007Y-24864D02*
X46007Y-24635D01*
X46121Y-24750D02*
X45892Y-24750D01*
G54D20*
G54D11*
X51450Y-25342D02*
X51435Y-25357D01*
X51392Y-25371D01*
X51364Y-25371D01*
X51321Y-25357D01*
X51292Y-25328D01*
X51278Y-25300D01*
X51264Y-25242D01*
X51264Y-25200D01*
X51278Y-25142D01*
X51292Y-25114D01*
X51321Y-25085D01*
X51364Y-25071D01*
X51392Y-25071D01*
X51435Y-25085D01*
X51450Y-25100D01*
X51707Y-25171D02*
X51707Y-25371D01*
X51635Y-25057D02*
X51564Y-25271D01*
X51750Y-25271D01*
X52482Y-25371D02*
X52339Y-25371D01*
X52410Y-25371D02*
X52410Y-25071D01*
X52386Y-25114D01*
X52363Y-25142D01*
X52339Y-25157D01*
X52636Y-25071D02*
X52660Y-25071D01*
X52684Y-25085D01*
X52696Y-25100D01*
X52708Y-25128D01*
X52720Y-25185D01*
X52720Y-25257D01*
X52708Y-25314D01*
X52696Y-25342D01*
X52684Y-25357D01*
X52660Y-25371D01*
X52636Y-25371D01*
X52613Y-25357D01*
X52601Y-25342D01*
X52589Y-25314D01*
X52577Y-25257D01*
X52577Y-25185D01*
X52589Y-25128D01*
X52601Y-25100D01*
X52613Y-25085D01*
X52636Y-25071D01*
X52934Y-25171D02*
X52934Y-25371D01*
X52827Y-25171D02*
X52827Y-25328D01*
X52839Y-25357D01*
X52863Y-25371D01*
X52898Y-25371D01*
X52922Y-25357D01*
X52934Y-25342D01*
X53136Y-25214D02*
X53053Y-25214D01*
X53053Y-25371D02*
X53053Y-25071D01*
X53172Y-25071D01*
X52007Y-25364D02*
X52007Y-25135D01*
X52121Y-25250D02*
X51892Y-25250D01*
X53950Y-25342D02*
X53935Y-25357D01*
X53892Y-25371D01*
X53864Y-25371D01*
X53821Y-25357D01*
X53792Y-25328D01*
X53778Y-25300D01*
X53764Y-25242D01*
X53764Y-25200D01*
X53778Y-25142D01*
X53792Y-25114D01*
X53821Y-25085D01*
X53864Y-25071D01*
X53892Y-25071D01*
X53935Y-25085D01*
X53950Y-25100D01*
X54050Y-25071D02*
X54235Y-25071D01*
X54135Y-25185D01*
X54178Y-25185D01*
X54207Y-25200D01*
X54221Y-25214D01*
X54235Y-25242D01*
X54235Y-25314D01*
X54221Y-25342D01*
X54207Y-25357D01*
X54178Y-25371D01*
X54092Y-25371D01*
X54064Y-25357D01*
X54050Y-25342D01*
X54821Y-25371D02*
X54650Y-25371D01*
X54735Y-25371D02*
X54735Y-25071D01*
X54707Y-25114D01*
X54678Y-25142D01*
X54650Y-25157D01*
X55078Y-25171D02*
X55078Y-25371D01*
X54950Y-25171D02*
X54950Y-25328D01*
X54964Y-25357D01*
X54992Y-25371D01*
X55035Y-25371D01*
X55064Y-25357D01*
X55078Y-25342D01*
X55321Y-25214D02*
X55221Y-25214D01*
X55221Y-25371D02*
X55221Y-25071D01*
X55364Y-25071D01*
X54507Y-25364D02*
X54507Y-25135D01*
X54621Y-25250D02*
X54392Y-25250D01*
X41807Y-32842D02*
X41792Y-32857D01*
X41750Y-32871D01*
X41721Y-32871D01*
X41678Y-32857D01*
X41650Y-32828D01*
X41635Y-32800D01*
X41621Y-32742D01*
X41621Y-32700D01*
X41635Y-32642D01*
X41650Y-32614D01*
X41678Y-32585D01*
X41721Y-32571D01*
X41750Y-32571D01*
X41792Y-32585D01*
X41807Y-32600D01*
X42092Y-32871D02*
X41921Y-32871D01*
X42007Y-32871D02*
X42007Y-32571D01*
X41978Y-32614D01*
X41950Y-32642D01*
X41921Y-32657D01*
X42278Y-32571D02*
X42307Y-32571D01*
X42335Y-32585D01*
X42350Y-32600D01*
X42364Y-32628D01*
X42378Y-32685D01*
X42378Y-32757D01*
X42364Y-32814D01*
X42350Y-32842D01*
X42335Y-32857D01*
X42307Y-32871D01*
X42278Y-32871D01*
X42250Y-32857D01*
X42235Y-32842D01*
X42221Y-32814D01*
X42207Y-32757D01*
X42207Y-32685D01*
X42221Y-32628D01*
X42235Y-32600D01*
X42250Y-32585D01*
X42278Y-32571D01*
X42742Y-32571D02*
X42928Y-32571D01*
X42828Y-32685D01*
X42871Y-32685D01*
X42900Y-32700D01*
X42914Y-32714D01*
X42928Y-32742D01*
X42928Y-32814D01*
X42914Y-32842D01*
X42900Y-32857D01*
X42871Y-32871D01*
X42785Y-32871D01*
X42757Y-32857D01*
X42742Y-32842D01*
X43114Y-32571D02*
X43142Y-32571D01*
X43171Y-32585D01*
X43185Y-32600D01*
X43200Y-32628D01*
X43214Y-32685D01*
X43214Y-32757D01*
X43200Y-32814D01*
X43185Y-32842D01*
X43171Y-32857D01*
X43142Y-32871D01*
X43114Y-32871D01*
X43085Y-32857D01*
X43071Y-32842D01*
X43057Y-32814D01*
X43042Y-32757D01*
X43042Y-32685D01*
X43057Y-32628D01*
X43071Y-32600D01*
X43085Y-32585D01*
X43114Y-32571D01*
X43342Y-32671D02*
X43342Y-32971D01*
X43342Y-32685D02*
X43371Y-32671D01*
X43428Y-32671D01*
X43457Y-32685D01*
X43471Y-32700D01*
X43485Y-32728D01*
X43485Y-32814D01*
X43471Y-32842D01*
X43457Y-32857D01*
X43428Y-32871D01*
X43371Y-32871D01*
X43342Y-32857D01*
X43714Y-32714D02*
X43614Y-32714D01*
X43614Y-32871D02*
X43614Y-32571D01*
X43757Y-32571D01*
X42807Y-36342D02*
X42792Y-36357D01*
X42750Y-36371D01*
X42721Y-36371D01*
X42678Y-36357D01*
X42650Y-36328D01*
X42635Y-36300D01*
X42621Y-36242D01*
X42621Y-36200D01*
X42635Y-36142D01*
X42650Y-36114D01*
X42678Y-36085D01*
X42721Y-36071D01*
X42750Y-36071D01*
X42792Y-36085D01*
X42807Y-36100D01*
X43092Y-36371D02*
X42921Y-36371D01*
X43007Y-36371D02*
X43007Y-36071D01*
X42978Y-36114D01*
X42950Y-36142D01*
X42921Y-36157D01*
X43378Y-36371D02*
X43207Y-36371D01*
X43292Y-36371D02*
X43292Y-36071D01*
X43264Y-36114D01*
X43235Y-36142D01*
X43207Y-36157D01*
X41242Y-36071D02*
X41428Y-36071D01*
X41328Y-36185D01*
X41371Y-36185D01*
X41400Y-36200D01*
X41414Y-36214D01*
X41428Y-36242D01*
X41428Y-36314D01*
X41414Y-36342D01*
X41400Y-36357D01*
X41371Y-36371D01*
X41285Y-36371D01*
X41257Y-36357D01*
X41242Y-36342D01*
X41614Y-36071D02*
X41642Y-36071D01*
X41671Y-36085D01*
X41685Y-36100D01*
X41700Y-36128D01*
X41714Y-36185D01*
X41714Y-36257D01*
X41700Y-36314D01*
X41685Y-36342D01*
X41671Y-36357D01*
X41642Y-36371D01*
X41614Y-36371D01*
X41585Y-36357D01*
X41571Y-36342D01*
X41557Y-36314D01*
X41542Y-36257D01*
X41542Y-36185D01*
X41557Y-36128D01*
X41571Y-36100D01*
X41585Y-36085D01*
X41614Y-36071D01*
X41842Y-36171D02*
X41842Y-36471D01*
X41842Y-36185D02*
X41871Y-36171D01*
X41928Y-36171D01*
X41957Y-36185D01*
X41971Y-36200D01*
X41985Y-36228D01*
X41985Y-36314D01*
X41971Y-36342D01*
X41957Y-36357D01*
X41928Y-36371D01*
X41871Y-36371D01*
X41842Y-36357D01*
X42214Y-36214D02*
X42114Y-36214D01*
X42114Y-36371D02*
X42114Y-36071D01*
X42257Y-36071D01*
X58771Y-24321D02*
X58771Y-24564D01*
X58785Y-24592D01*
X58800Y-24607D01*
X58828Y-24621D01*
X58885Y-24621D01*
X58914Y-24607D01*
X58928Y-24592D01*
X58942Y-24564D01*
X58942Y-24321D01*
X59242Y-24621D02*
X59071Y-24621D01*
X59157Y-24621D02*
X59157Y-24321D01*
X59128Y-24364D01*
X59100Y-24392D01*
X59071Y-24407D01*
X59571Y-24028D02*
X59571Y-23828D01*
X59871Y-23957D01*
X59700Y-23671D02*
X59685Y-23700D01*
X59671Y-23714D01*
X59642Y-23728D01*
X59628Y-23728D01*
X59600Y-23714D01*
X59585Y-23700D01*
X59571Y-23671D01*
X59571Y-23614D01*
X59585Y-23585D01*
X59600Y-23571D01*
X59628Y-23557D01*
X59642Y-23557D01*
X59671Y-23571D01*
X59685Y-23585D01*
X59700Y-23614D01*
X59700Y-23671D01*
X59714Y-23700D01*
X59728Y-23714D01*
X59757Y-23728D01*
X59814Y-23728D01*
X59842Y-23714D01*
X59857Y-23700D01*
X59871Y-23671D01*
X59871Y-23614D01*
X59857Y-23585D01*
X59842Y-23571D01*
X59814Y-23557D01*
X59757Y-23557D01*
X59728Y-23571D01*
X59714Y-23585D01*
X59700Y-23614D01*
X59571Y-23371D02*
X59571Y-23342D01*
X59585Y-23314D01*
X59600Y-23300D01*
X59628Y-23285D01*
X59685Y-23271D01*
X59757Y-23271D01*
X59814Y-23285D01*
X59842Y-23300D01*
X59857Y-23314D01*
X59871Y-23342D01*
X59871Y-23371D01*
X59857Y-23400D01*
X59842Y-23414D01*
X59814Y-23428D01*
X59757Y-23442D01*
X59685Y-23442D01*
X59628Y-23428D01*
X59600Y-23414D01*
X59585Y-23400D01*
X59571Y-23371D01*
X59571Y-23000D02*
X59571Y-23142D01*
X59714Y-23157D01*
X59700Y-23142D01*
X59685Y-23114D01*
X59685Y-23042D01*
X59700Y-23014D01*
X59714Y-23000D01*
X59742Y-22985D01*
X59814Y-22985D01*
X59842Y-23000D01*
X59857Y-23014D01*
X59871Y-23042D01*
X59871Y-23114D01*
X59857Y-23142D01*
X59842Y-23157D01*
X36621Y-49471D02*
X36321Y-49471D01*
X36321Y-49400D01*
X36335Y-49357D01*
X36364Y-49328D01*
X36392Y-49314D01*
X36450Y-49300D01*
X36492Y-49300D01*
X36550Y-49314D01*
X36578Y-49328D01*
X36607Y-49357D01*
X36621Y-49400D01*
X36621Y-49471D01*
X36421Y-49042D02*
X36621Y-49042D01*
X36307Y-49114D02*
X36521Y-49185D01*
X36521Y-49000D01*
X46621Y-53864D02*
X46321Y-53864D01*
X46321Y-53792D01*
X46335Y-53750D01*
X46364Y-53721D01*
X46392Y-53707D01*
X46450Y-53692D01*
X46492Y-53692D01*
X46550Y-53707D01*
X46578Y-53721D01*
X46607Y-53750D01*
X46621Y-53792D01*
X46621Y-53864D01*
X46621Y-53407D02*
X46621Y-53578D01*
X46621Y-53492D02*
X46321Y-53492D01*
X46364Y-53521D01*
X46392Y-53550D01*
X46407Y-53578D01*
X46321Y-53221D02*
X46321Y-53192D01*
X46335Y-53164D01*
X46350Y-53150D01*
X46378Y-53135D01*
X46435Y-53121D01*
X46507Y-53121D01*
X46564Y-53135D01*
X46592Y-53150D01*
X46607Y-53164D01*
X46621Y-53192D01*
X46621Y-53221D01*
X46607Y-53250D01*
X46592Y-53264D01*
X46564Y-53278D01*
X46507Y-53292D01*
X46435Y-53292D01*
X46378Y-53278D01*
X46350Y-53264D01*
X46335Y-53250D01*
X46321Y-53221D01*
X41871Y-49471D02*
X41571Y-49471D01*
X41571Y-49400D01*
X41585Y-49357D01*
X41614Y-49328D01*
X41642Y-49314D01*
X41700Y-49300D01*
X41742Y-49300D01*
X41800Y-49314D01*
X41828Y-49328D01*
X41857Y-49357D01*
X41871Y-49400D01*
X41871Y-49471D01*
X41700Y-49128D02*
X41685Y-49157D01*
X41671Y-49171D01*
X41642Y-49185D01*
X41628Y-49185D01*
X41600Y-49171D01*
X41585Y-49157D01*
X41571Y-49128D01*
X41571Y-49071D01*
X41585Y-49042D01*
X41600Y-49028D01*
X41628Y-49014D01*
X41642Y-49014D01*
X41671Y-49028D01*
X41685Y-49042D01*
X41700Y-49071D01*
X41700Y-49128D01*
X41714Y-49157D01*
X41728Y-49171D01*
X41757Y-49185D01*
X41814Y-49185D01*
X41842Y-49171D01*
X41857Y-49157D01*
X41871Y-49128D01*
X41871Y-49071D01*
X41857Y-49042D01*
X41842Y-49028D01*
X41814Y-49014D01*
X41757Y-49014D01*
X41728Y-49028D01*
X41714Y-49042D01*
X41700Y-49071D01*
X43871Y-53721D02*
X43571Y-53721D01*
X43571Y-53650D01*
X43585Y-53607D01*
X43614Y-53578D01*
X43642Y-53564D01*
X43700Y-53550D01*
X43742Y-53550D01*
X43800Y-53564D01*
X43828Y-53578D01*
X43857Y-53607D01*
X43871Y-53650D01*
X43871Y-53721D01*
X43871Y-53407D02*
X43871Y-53350D01*
X43857Y-53321D01*
X43842Y-53307D01*
X43800Y-53278D01*
X43742Y-53264D01*
X43628Y-53264D01*
X43600Y-53278D01*
X43585Y-53292D01*
X43571Y-53321D01*
X43571Y-53378D01*
X43585Y-53407D01*
X43600Y-53421D01*
X43628Y-53435D01*
X43700Y-53435D01*
X43728Y-53421D01*
X43742Y-53407D01*
X43757Y-53378D01*
X43757Y-53321D01*
X43742Y-53292D01*
X43728Y-53278D01*
X43700Y-53264D01*
X44621Y-49471D02*
X44321Y-49471D01*
X44321Y-49400D01*
X44335Y-49357D01*
X44364Y-49328D01*
X44392Y-49314D01*
X44450Y-49300D01*
X44492Y-49300D01*
X44550Y-49314D01*
X44578Y-49328D01*
X44607Y-49357D01*
X44621Y-49400D01*
X44621Y-49471D01*
X44321Y-49200D02*
X44321Y-49000D01*
X44621Y-49128D01*
X31871Y-53721D02*
X31571Y-53721D01*
X31571Y-53650D01*
X31585Y-53607D01*
X31614Y-53578D01*
X31642Y-53564D01*
X31700Y-53550D01*
X31742Y-53550D01*
X31800Y-53564D01*
X31828Y-53578D01*
X31857Y-53607D01*
X31871Y-53650D01*
X31871Y-53721D01*
X31571Y-53292D02*
X31571Y-53350D01*
X31585Y-53378D01*
X31600Y-53392D01*
X31642Y-53421D01*
X31700Y-53435D01*
X31814Y-53435D01*
X31842Y-53421D01*
X31857Y-53407D01*
X31871Y-53378D01*
X31871Y-53321D01*
X31857Y-53292D01*
X31842Y-53278D01*
X31814Y-53264D01*
X31742Y-53264D01*
X31714Y-53278D01*
X31700Y-53292D01*
X31685Y-53321D01*
X31685Y-53378D01*
X31700Y-53407D01*
X31714Y-53421D01*
X31742Y-53435D01*
X34621Y-53721D02*
X34321Y-53721D01*
X34321Y-53650D01*
X34335Y-53607D01*
X34364Y-53578D01*
X34392Y-53564D01*
X34450Y-53550D01*
X34492Y-53550D01*
X34550Y-53564D01*
X34578Y-53578D01*
X34607Y-53607D01*
X34621Y-53650D01*
X34621Y-53721D01*
X34321Y-53278D02*
X34321Y-53421D01*
X34464Y-53435D01*
X34450Y-53421D01*
X34435Y-53392D01*
X34435Y-53321D01*
X34450Y-53292D01*
X34464Y-53278D01*
X34492Y-53264D01*
X34564Y-53264D01*
X34592Y-53278D01*
X34607Y-53292D01*
X34621Y-53321D01*
X34621Y-53392D01*
X34607Y-53421D01*
X34592Y-53435D01*
X33871Y-49721D02*
X33571Y-49721D01*
X33571Y-49650D01*
X33585Y-49607D01*
X33614Y-49578D01*
X33642Y-49564D01*
X33700Y-49550D01*
X33742Y-49550D01*
X33800Y-49564D01*
X33828Y-49578D01*
X33857Y-49607D01*
X33871Y-49650D01*
X33871Y-49721D01*
X33571Y-49450D02*
X33571Y-49264D01*
X33685Y-49364D01*
X33685Y-49321D01*
X33700Y-49292D01*
X33714Y-49278D01*
X33742Y-49264D01*
X33814Y-49264D01*
X33842Y-49278D01*
X33857Y-49292D01*
X33871Y-49321D01*
X33871Y-49407D01*
X33857Y-49435D01*
X33842Y-49450D01*
X46778Y-22621D02*
X46778Y-22321D01*
X46850Y-22321D01*
X46892Y-22335D01*
X46921Y-22364D01*
X46935Y-22392D01*
X46950Y-22450D01*
X46950Y-22492D01*
X46935Y-22550D01*
X46921Y-22578D01*
X46892Y-22607D01*
X46850Y-22621D01*
X46778Y-22621D01*
X47235Y-22621D02*
X47064Y-22621D01*
X47150Y-22621D02*
X47150Y-22321D01*
X47121Y-22364D01*
X47092Y-22392D01*
X47064Y-22407D01*
X38371Y-44785D02*
X38071Y-44785D01*
X38071Y-44671D01*
X38085Y-44642D01*
X38100Y-44628D01*
X38128Y-44614D01*
X38171Y-44614D01*
X38200Y-44628D01*
X38214Y-44642D01*
X38228Y-44671D01*
X38228Y-44785D01*
X38371Y-44485D02*
X38071Y-44485D01*
X38342Y-44171D02*
X38357Y-44185D01*
X38371Y-44228D01*
X38371Y-44257D01*
X38357Y-44299D01*
X38328Y-44328D01*
X38300Y-44342D01*
X38242Y-44357D01*
X38200Y-44357D01*
X38142Y-44342D01*
X38114Y-44328D01*
X38085Y-44299D01*
X38071Y-44257D01*
X38071Y-44228D01*
X38085Y-44185D01*
X38100Y-44171D01*
X38371Y-43885D02*
X38371Y-44057D01*
X38371Y-43971D02*
X38071Y-43971D01*
X38114Y-43999D01*
X38142Y-44028D01*
X38157Y-44057D01*
X38200Y-43714D02*
X38185Y-43742D01*
X38171Y-43757D01*
X38142Y-43771D01*
X38128Y-43771D01*
X38100Y-43757D01*
X38085Y-43742D01*
X38071Y-43714D01*
X38071Y-43657D01*
X38085Y-43628D01*
X38100Y-43614D01*
X38128Y-43600D01*
X38142Y-43600D01*
X38171Y-43614D01*
X38185Y-43628D01*
X38200Y-43657D01*
X38200Y-43714D01*
X38214Y-43742D01*
X38228Y-43757D01*
X38257Y-43771D01*
X38314Y-43771D01*
X38342Y-43757D01*
X38357Y-43742D01*
X38371Y-43714D01*
X38371Y-43657D01*
X38357Y-43628D01*
X38342Y-43614D01*
X38314Y-43600D01*
X38257Y-43600D01*
X38228Y-43614D01*
X38214Y-43628D01*
X38200Y-43657D01*
X38214Y-43371D02*
X38214Y-43471D01*
X38371Y-43471D02*
X38071Y-43471D01*
X38071Y-43328D01*
X38171Y-43085D02*
X38371Y-43085D01*
X38057Y-43157D02*
X38271Y-43228D01*
X38271Y-43042D01*
X38071Y-42785D02*
X38071Y-42928D01*
X38214Y-42942D01*
X38200Y-42928D01*
X38185Y-42900D01*
X38185Y-42828D01*
X38200Y-42800D01*
X38214Y-42785D01*
X38242Y-42771D01*
X38314Y-42771D01*
X38342Y-42785D01*
X38357Y-42800D01*
X38371Y-42828D01*
X38371Y-42900D01*
X38357Y-42928D01*
X38342Y-42942D01*
X38071Y-42500D02*
X38071Y-42642D01*
X38214Y-42657D01*
X38200Y-42642D01*
X38185Y-42614D01*
X38185Y-42542D01*
X38200Y-42514D01*
X38214Y-42500D01*
X38242Y-42485D01*
X38314Y-42485D01*
X38342Y-42500D01*
X38357Y-42514D01*
X38371Y-42542D01*
X38371Y-42614D01*
X38357Y-42642D01*
X38342Y-42657D01*
X38071Y-42300D02*
X38071Y-42271D01*
X38085Y-42242D01*
X38100Y-42228D01*
X38128Y-42214D01*
X38185Y-42200D01*
X38257Y-42200D01*
X38314Y-42214D01*
X38342Y-42228D01*
X38357Y-42242D01*
X38371Y-42271D01*
X38371Y-42300D01*
X38357Y-42328D01*
X38342Y-42342D01*
X38314Y-42357D01*
X38257Y-42371D01*
X38185Y-42371D01*
X38128Y-42357D01*
X38100Y-42342D01*
X38085Y-42328D01*
X38071Y-42300D01*
G54D20*
X41775Y-43619D02*
X41748Y-43595D01*
X41722Y-43547D01*
X41722Y-43428D01*
X41748Y-43380D01*
X41775Y-43357D01*
X41827Y-43333D01*
X41879Y-43333D01*
X41958Y-43357D01*
X42272Y-43642D01*
X42272Y-43333D01*
X41775Y-43142D02*
X41748Y-43119D01*
X41722Y-43071D01*
X41722Y-42952D01*
X41748Y-42904D01*
X41775Y-42880D01*
X41827Y-42857D01*
X41879Y-42857D01*
X41958Y-42880D01*
X42272Y-43166D01*
X42272Y-42857D01*
X41722Y-42547D02*
X41722Y-42500D01*
X41748Y-42452D01*
X41775Y-42428D01*
X41827Y-42404D01*
X41932Y-42380D01*
X42063Y-42380D01*
X42167Y-42404D01*
X42220Y-42428D01*
X42246Y-42452D01*
X42272Y-42500D01*
X42272Y-42547D01*
X42246Y-42595D01*
X42220Y-42619D01*
X42167Y-42642D01*
X42063Y-42666D01*
X41932Y-42666D01*
X41827Y-42642D01*
X41775Y-42619D01*
X41748Y-42595D01*
X41722Y-42547D01*
X42725Y-39619D02*
X42698Y-39595D01*
X42672Y-39547D01*
X42672Y-39428D01*
X42698Y-39380D01*
X42725Y-39357D01*
X42777Y-39333D01*
X42829Y-39333D01*
X42908Y-39357D01*
X43222Y-39642D01*
X43222Y-39333D01*
X42725Y-39142D02*
X42698Y-39119D01*
X42672Y-39071D01*
X42672Y-38952D01*
X42698Y-38904D01*
X42725Y-38880D01*
X42777Y-38857D01*
X42829Y-38857D01*
X42908Y-38880D01*
X43222Y-39166D01*
X43222Y-38857D01*
X42672Y-38547D02*
X42672Y-38500D01*
X42698Y-38452D01*
X42725Y-38428D01*
X42777Y-38404D01*
X42882Y-38380D01*
X43013Y-38380D01*
X43117Y-38404D01*
X43170Y-38428D01*
X43196Y-38452D01*
X43222Y-38500D01*
X43222Y-38547D01*
X43196Y-38595D01*
X43170Y-38619D01*
X43117Y-38642D01*
X43013Y-38666D01*
X42882Y-38666D01*
X42777Y-38642D01*
X42725Y-38619D01*
X42698Y-38595D01*
X42672Y-38547D01*
X41775Y-39619D02*
X41748Y-39595D01*
X41722Y-39547D01*
X41722Y-39428D01*
X41748Y-39380D01*
X41775Y-39357D01*
X41827Y-39333D01*
X41879Y-39333D01*
X41958Y-39357D01*
X42272Y-39642D01*
X42272Y-39333D01*
X41775Y-39142D02*
X41748Y-39119D01*
X41722Y-39071D01*
X41722Y-38952D01*
X41748Y-38904D01*
X41775Y-38880D01*
X41827Y-38857D01*
X41879Y-38857D01*
X41958Y-38880D01*
X42272Y-39166D01*
X42272Y-38857D01*
X41722Y-38547D02*
X41722Y-38500D01*
X41748Y-38452D01*
X41775Y-38428D01*
X41827Y-38404D01*
X41932Y-38380D01*
X42063Y-38380D01*
X42167Y-38404D01*
X42220Y-38428D01*
X42246Y-38452D01*
X42272Y-38500D01*
X42272Y-38547D01*
X42246Y-38595D01*
X42220Y-38619D01*
X42167Y-38642D01*
X42063Y-38666D01*
X41932Y-38666D01*
X41827Y-38642D01*
X41775Y-38619D01*
X41748Y-38595D01*
X41722Y-38547D01*
X42775Y-43619D02*
X42748Y-43595D01*
X42722Y-43547D01*
X42722Y-43428D01*
X42748Y-43380D01*
X42775Y-43357D01*
X42827Y-43333D01*
X42879Y-43333D01*
X42958Y-43357D01*
X43272Y-43642D01*
X43272Y-43333D01*
X42775Y-43142D02*
X42748Y-43119D01*
X42722Y-43071D01*
X42722Y-42952D01*
X42748Y-42904D01*
X42775Y-42880D01*
X42827Y-42857D01*
X42879Y-42857D01*
X42958Y-42880D01*
X43272Y-43166D01*
X43272Y-42857D01*
X42722Y-42547D02*
X42722Y-42500D01*
X42748Y-42452D01*
X42775Y-42428D01*
X42827Y-42404D01*
X42932Y-42380D01*
X43063Y-42380D01*
X43167Y-42404D01*
X43220Y-42428D01*
X43246Y-42452D01*
X43272Y-42500D01*
X43272Y-42547D01*
X43246Y-42595D01*
X43220Y-42619D01*
X43167Y-42642D01*
X43063Y-42666D01*
X42932Y-42666D01*
X42827Y-42642D01*
X42775Y-42619D01*
X42748Y-42595D01*
X42722Y-42547D01*
G54D11*
X29371Y-28550D02*
X29228Y-28650D01*
X29371Y-28721D02*
X29071Y-28721D01*
X29071Y-28607D01*
X29085Y-28578D01*
X29100Y-28564D01*
X29128Y-28550D01*
X29171Y-28550D01*
X29200Y-28564D01*
X29214Y-28578D01*
X29228Y-28607D01*
X29228Y-28721D01*
X29171Y-28292D02*
X29371Y-28292D01*
X29057Y-28364D02*
X29271Y-28435D01*
X29271Y-28250D01*
X29371Y-26928D02*
X29371Y-27099D01*
X29371Y-27014D02*
X29071Y-27014D01*
X29114Y-27042D01*
X29142Y-27071D01*
X29157Y-27099D01*
X29071Y-26742D02*
X29071Y-26714D01*
X29085Y-26685D01*
X29100Y-26671D01*
X29128Y-26657D01*
X29185Y-26642D01*
X29257Y-26642D01*
X29314Y-26657D01*
X29342Y-26671D01*
X29357Y-26685D01*
X29371Y-26714D01*
X29371Y-26742D01*
X29357Y-26771D01*
X29342Y-26785D01*
X29314Y-26799D01*
X29257Y-26814D01*
X29185Y-26814D01*
X29128Y-26799D01*
X29100Y-26785D01*
X29085Y-26771D01*
X29071Y-26742D01*
X29371Y-26514D02*
X29071Y-26514D01*
X29257Y-26485D02*
X29371Y-26400D01*
X29171Y-26400D02*
X29285Y-26514D01*
X30371Y-28550D02*
X30228Y-28650D01*
X30371Y-28721D02*
X30071Y-28721D01*
X30071Y-28607D01*
X30085Y-28578D01*
X30100Y-28564D01*
X30128Y-28550D01*
X30171Y-28550D01*
X30200Y-28564D01*
X30214Y-28578D01*
X30228Y-28607D01*
X30228Y-28721D01*
X30100Y-28435D02*
X30085Y-28421D01*
X30071Y-28392D01*
X30071Y-28321D01*
X30085Y-28292D01*
X30100Y-28278D01*
X30128Y-28264D01*
X30157Y-28264D01*
X30200Y-28278D01*
X30371Y-28450D01*
X30371Y-28264D01*
X30371Y-26535D02*
X30371Y-26707D01*
X30371Y-26621D02*
X30071Y-26621D01*
X30114Y-26649D01*
X30142Y-26678D01*
X30157Y-26707D01*
X30371Y-26407D02*
X30071Y-26407D01*
X30257Y-26378D02*
X30371Y-26292D01*
X30171Y-26292D02*
X30285Y-26407D01*
X28371Y-28550D02*
X28228Y-28650D01*
X28371Y-28721D02*
X28071Y-28721D01*
X28071Y-28607D01*
X28085Y-28578D01*
X28100Y-28564D01*
X28128Y-28550D01*
X28171Y-28550D01*
X28200Y-28564D01*
X28214Y-28578D01*
X28228Y-28607D01*
X28228Y-28721D01*
X28071Y-28450D02*
X28071Y-28264D01*
X28185Y-28364D01*
X28185Y-28321D01*
X28200Y-28292D01*
X28214Y-28278D01*
X28242Y-28264D01*
X28314Y-28264D01*
X28342Y-28278D01*
X28357Y-28292D01*
X28371Y-28321D01*
X28371Y-28407D01*
X28357Y-28435D01*
X28342Y-28450D01*
X28371Y-26535D02*
X28371Y-26707D01*
X28371Y-26621D02*
X28071Y-26621D01*
X28114Y-26649D01*
X28142Y-26678D01*
X28157Y-26707D01*
X28371Y-26407D02*
X28071Y-26407D01*
X28257Y-26378D02*
X28371Y-26292D01*
X28171Y-26292D02*
X28285Y-26407D01*
G54D20*
X59380Y-25775D02*
X59404Y-25748D01*
X59452Y-25722D01*
X59571Y-25722D01*
X59619Y-25748D01*
X59642Y-25775D01*
X59666Y-25827D01*
X59666Y-25879D01*
X59642Y-25958D01*
X59357Y-26272D01*
X59666Y-26272D01*
X59857Y-25775D02*
X59880Y-25748D01*
X59928Y-25722D01*
X60047Y-25722D01*
X60095Y-25748D01*
X60119Y-25775D01*
X60142Y-25827D01*
X60142Y-25879D01*
X60119Y-25958D01*
X59833Y-26272D01*
X60142Y-26272D01*
X60452Y-25722D02*
X60500Y-25722D01*
X60547Y-25748D01*
X60571Y-25775D01*
X60595Y-25827D01*
X60619Y-25932D01*
X60619Y-26063D01*
X60595Y-26167D01*
X60571Y-26220D01*
X60547Y-26246D01*
X60500Y-26272D01*
X60452Y-26272D01*
X60404Y-26246D01*
X60380Y-26220D01*
X60357Y-26167D01*
X60333Y-26063D01*
X60333Y-25932D01*
X60357Y-25827D01*
X60380Y-25775D01*
X60404Y-25748D01*
X60452Y-25722D01*
M02*
